<?xml version="1.0"?>
<VTKFile type="UnstructuredGrid" version="1.0" byte_order="LittleEndian" compressor="vtkZLibDataCompressor">
  <UnstructuredGrid>
    <Piece NumberOfPoints="158" NumberOfCells="1">
      <Points>
        <DataArray type="Float64" Name="Points" NumberOfComponents="3" format="ascii">
          1.7550000000e+00 -1.7550000000e+00 0.0000000000e+00 
          1.4140000000e+00 0.0000000000e+00 5.2300000000e+00 
          1.7550000000e+00 1.7550000000e+00 -0.0000000000e+00 
          1.4140000000e+00 -1.4140000000e+00 5.2300000000e+00 
          1.4140000000e+00 1.4140000000e+00 5.2300000000e+00 
          1.5840000000e+00 8.7800000000e-01 2.6150000000e+00 
          1.5840000000e+00 -8.7700000000e-01 2.6150000000e+00 
          1.5840000000e+00 1.5840000000e+00 2.6150000000e+00 
          1.5840000000e+00 -1.5840000000e+00 2.6150000000e+00 
          -0.0000000000e+00 1.4140000000e+00 5.2300000000e+00 
          -1.7550000000e+00 1.7550000000e+00 -0.0000000000e+00 
          -1.4140000000e+00 1.4140000000e+00 5.2300000000e+00 
          -8.7700000000e-01 1.5840000000e+00 2.6150000000e+00 
          8.7700000000e-01 1.5840000000e+00 2.6150000000e+00 
          -1.5840000000e+00 1.5840000000e+00 2.6150000000e+00 
          -1.4140000000e+00 -0.0000000000e+00 5.2300000000e+00 
          -1.7550000000e+00 -1.7550000000e+00 -0.0000000000e+00 
          -1.4140000000e+00 -1.4140000000e+00 5.2300000000e+00 
          -1.5840000000e+00 -8.7700000000e-01 2.6150000000e+00 
          -1.5840000000e+00 8.7700000000e-01 2.6150000000e+00 
          -1.5840000000e+00 -1.5840000000e+00 2.6150000000e+00 
          0.0000000000e+00 -1.4140000000e+00 5.2300000000e+00 
          8.7700000000e-01 -1.5840000000e+00 2.6150000000e+00 
          -8.7700000000e-01 -1.5840000000e+00 2.6150000000e+00 
          1.2750000000e+00 1.2750000000e+00 7.3500000000e+00 
          1.2750000000e+00 -1.2750000000e+00 7.3500000000e+00 
          1.1500000000e+00 -1.1500000000e+00 9.2700000000e+00 
          1.1500000000e+00 1.1500000000e+00 9.2700000000e+00 
          1.0370000000e+00 -1.0370000000e+00 1.1000000000e+01 
          1.0370000000e+00 1.0370000000e+00 1.1000000000e+01 
          -1.2750000000e+00 1.2750000000e+00 7.3500000000e+00 
          -1.1500000000e+00 1.1500000000e+00 9.2700000000e+00 
          -1.0370000000e+00 1.0370000000e+00 1.1000000000e+01 
          -1.2750000000e+00 -1.2750000000e+00 7.3500000000e+00 
          -1.1500000000e+00 -1.1500000000e+00 9.2700000000e+00 
          -1.0370000000e+00 -1.0370000000e+00 1.1000000000e+01 
          9.3500000000e-01 9.3500000000e-01 1.2560000000e+01 
          9.3500000000e-01 -9.3500000000e-01 1.2560000000e+01 
          8.4300000000e-01 8.4300000000e-01 1.3960000000e+01 
          8.4300000000e-01 -8.4300000000e-01 1.3960000000e+01 
          7.6000000000e-01 7.6000000000e-01 1.5240000000e+01 
          7.6000000000e-01 -7.6000000000e-01 1.5240000000e+01 
          -9.3500000000e-01 9.3500000000e-01 1.2560000000e+01 
          -8.4300000000e-01 8.4300000000e-01 1.3960000000e+01 
          -7.6000000000e-01 7.6000000000e-01 1.5240000000e+01 
          -9.3500000000e-01 -9.3500000000e-01 1.2560000000e+01 
          -8.4300000000e-01 -8.4300000000e-01 1.3960000000e+01 
          -7.6000000000e-01 -7.6000000000e-01 1.5240000000e+01 
          7.6000000000e-01 -7.6000000000e-01 1.6240000000e+01 
          7.6000000000e-01 7.6000000000e-01 1.6240000000e+01 
          7.6000000000e-01 0.0000000000e+00 1.6240000000e+01 
          7.6000000000e-01 7.6000000000e-01 1.7340000000e+01 
          7.6000000000e-01 -7.6000000000e-01 1.7340000000e+01 
          7.6000000000e-01 0.0000000000e+00 1.7890000000e+01 
          7.6000000000e-01 -7.6000000000e-01 1.9440000000e+01 
          7.6000000000e-01 7.6000000000e-01 1.9440000000e+01 
          7.6000000000e-01 -7.6000000000e-01 2.1640000000e+01 
          7.6000000000e-01 7.6000000000e-01 2.1640000000e+01 
          7.6000000000e-01 0.0000000000e+00 1.9440000000e+01 
          7.6000000000e-01 7.6000000000e-01 1.8440000000e+01 
          7.6000000000e-01 -7.6000000000e-01 1.8440000000e+01 
          7.6000000000e-01 -7.6000000000e-01 2.0540000000e+01 
          7.6000000000e-01 7.6000000000e-01 2.0540000000e+01 
          7.6000000000e-01 0.0000000000e+00 2.1090000000e+01 
          7.6000000000e-01 7.6000000000e-01 2.2640000000e+01 
          7.6000000000e-01 -7.6000000000e-01 2.2640000000e+01 
          -7.6000000000e-01 7.6000000000e-01 1.6240000000e+01 
          -7.6000000000e-01 7.6000000000e-01 1.8440000000e+01 
          -0.0000000000e+00 7.6000000000e-01 1.6240000000e+01 
          -7.6000000000e-01 7.6000000000e-01 1.9440000000e+01 
          -7.6000000000e-01 7.6000000000e-01 2.1640000000e+01 
          -7.6000000000e-01 7.6000000000e-01 1.7340000000e+01 
          -0.0000000000e+00 7.6000000000e-01 1.7890000000e+01 
          -0.0000000000e+00 7.6000000000e-01 1.9440000000e+01 
          -7.6000000000e-01 7.6000000000e-01 2.0540000000e+01 
          0.0000000000e+00 7.6000000000e-01 2.1090000000e+01 
          -7.6000000000e-01 7.6000000000e-01 2.2640000000e+01 
          -0.0000000000e+00 5.2600000000e-01 2.3499000000e+01 
          3.9900000000e-01 4.0400000000e-01 2.3950000000e+01 
          -3.9900000000e-01 4.0400000000e-01 2.3950000000e+01 
          -7.6000000000e-01 -7.6000000000e-01 1.6240000000e+01 
          -7.6000000000e-01 -7.6000000000e-01 1.8440000000e+01 
          -7.6000000000e-01 -0.0000000000e+00 1.6240000000e+01 
          -7.6000000000e-01 -7.6000000000e-01 1.9440000000e+01 
          -7.6000000000e-01 -7.6000000000e-01 2.1640000000e+01 
          -7.6000000000e-01 -7.6000000000e-01 1.7340000000e+01 
          -7.6000000000e-01 0.0000000000e+00 1.7890000000e+01 
          -7.6000000000e-01 -0.0000000000e+00 1.9440000000e+01 
          -7.6000000000e-01 -7.6000000000e-01 2.0540000000e+01 
          -7.6000000000e-01 -0.0000000000e+00 2.1090000000e+01 
          -7.6000000000e-01 -7.6000000000e-01 2.2640000000e+01 
          0.0000000000e+00 -7.6000000000e-01 1.6240000000e+01 
          0.0000000000e+00 -7.6000000000e-01 1.7890000000e+01 
          0.0000000000e+00 -7.6000000000e-01 1.9440000000e+01 
          0.0000000000e+00 -7.6000000000e-01 2.1090000000e+01 
          0.0000000000e+00 -5.2600000000e-01 2.3499000000e+01 
          3.9900000000e-01 -4.0400000000e-01 2.3950000000e+01 
          -3.9900000000e-01 -4.0400000000e-01 2.3950000000e+01 
          -0.0000000000e+00 -3.3500000000e+00 2.1640000000e+01 
          -3.8000000000e-01 -2.0550000000e+00 2.2140000000e+01 
          -3.8000000000e-01 -2.0550000000e+00 2.1640000000e+01 
          0.0000000000e+00 3.3500000000e+00 2.1640000000e+01 
          -3.8000000000e-01 2.0550000000e+00 2.2140000000e+01 
          -3.8000000000e-01 2.0550000000e+00 2.1640000000e+01 
          3.8000000000e-01 2.0550000000e+00 2.2140000000e+01 
          3.8000000000e-01 2.0550000000e+00 2.1640000000e+01 
          3.8000000000e-01 -2.0550000000e+00 2.2140000000e+01 
          3.8000000000e-01 -2.0550000000e+00 2.1640000000e+01 
          -0.0000000000e+00 -3.3500000000e+00 1.8440000000e+01 
          -3.8000000000e-01 -2.0550000000e+00 1.8940000000e+01 
          -3.8000000000e-01 -2.0550000000e+00 1.8440000000e+01 
          -0.0000000000e+00 3.3500000000e+00 1.8440000000e+01 
          -3.8000000000e-01 2.0550000000e+00 1.8940000000e+01 
          -3.8000000000e-01 2.0550000000e+00 1.8440000000e+01 
          3.8000000000e-01 2.0550000000e+00 1.8940000000e+01 
          3.8000000000e-01 2.0550000000e+00 1.8440000000e+01 
          3.8000000000e-01 -2.0550000000e+00 1.8940000000e+01 
          3.8000000000e-01 -2.0550000000e+00 1.8440000000e+01 
          -0.0000000000e+00 -3.3500000000e+00 1.5240000000e+01 
          -3.8000000000e-01 -2.0550000000e+00 1.5740000000e+01 
          -3.8000000000e-01 -2.0550000000e+00 1.5240000000e+01 
          -0.0000000000e+00 3.3500000000e+00 1.5240000000e+01 
          -3.8000000000e-01 2.0550000000e+00 1.5740000000e+01 
          -3.8000000000e-01 2.0550000000e+00 1.5240000000e+01 
          3.8000000000e-01 2.0550000000e+00 1.5740000000e+01 
          3.8000000000e-01 2.0550000000e+00 1.5240000000e+01 
          3.8000000000e-01 -2.0550000000e+00 1.5740000000e+01 
          3.8000000000e-01 -2.0550000000e+00 1.5240000000e+01 
          -5.2400000000e-01 0.0000000000e+00 2.3496000000e+01 
          5.2400000000e-01 0.0000000000e+00 2.3496000000e+01 
          4.0000000000e-02 5.0000000000e-02 2.5250000000e+01 
          -4.0000000000e-02 5.0000000000e-02 2.5250000000e+01 
          -4.0000000000e-02 -5.0000000000e-02 2.5250000000e+01 
          4.0000000000e-02 -5.0000000000e-02 2.5250000000e+01 
          1.3410000000e+00 0.0000000000e+00 6.3450000000e+00 
          1.2090000000e+00 0.0000000000e+00 8.3600000000e+00 
          1.0900000000e+00 -0.0000000000e+00 1.0180000000e+01 
          -0.0000000000e+00 1.3410000000e+00 6.3450000000e+00 
          0.0000000000e+00 1.2090000000e+00 8.3600000000e+00 
          -0.0000000000e+00 1.0900000000e+00 1.0180000000e+01 
          -1.3410000000e+00 0.0000000000e+00 6.3450000000e+00 
          -1.2090000000e+00 0.0000000000e+00 8.3600000000e+00 
          -1.0900000000e+00 -0.0000000000e+00 1.0180000000e+01 
          -0.0000000000e+00 -1.3410000000e+00 6.3450000000e+00 
          0.0000000000e+00 -1.2090000000e+00 8.3600000000e+00 
          0.0000000000e+00 -1.0900000000e+00 1.0180000000e+01 
          9.8300000000e-01 0.0000000000e+00 1.1820000000e+01 
          8.8700000000e-01 0.0000000000e+00 1.3296000000e+01 
          8.0000000000e-01 -0.0000000000e+00 1.4633000000e+01 
          0.0000000000e+00 9.8300000000e-01 1.1820000000e+01 
          -0.0000000000e+00 8.8700000000e-01 1.3296000000e+01 
          0.0000000000e+00 8.0000000000e-01 1.4633000000e+01 
          -9.8300000000e-01 0.0000000000e+00 1.1820000000e+01 
          -8.8700000000e-01 0.0000000000e+00 1.3296000000e+01 
          -8.0000000000e-01 0.0000000000e+00 1.4633000000e+01 
          0.0000000000e+00 -9.8300000000e-01 1.1820000000e+01 
          0.0000000000e+00 -8.8700000000e-01 1.3296000000e+01 
          0.0000000000e+00 -8.0000000000e-01 1.4633000000e+01 
        </DataArray>
      </Points>
      <Cells>
        <DataArray type="Int64" Name="connectivity" format="ascii">
          0
          1
          2
          3
          4
          5
          6
          7
          8
          9
          10
          11
          12
          13
          14
          15
          16
          17
          18
          19
          20
          21
          22
          23
          24
          25
          26
          27
          28
          29
          30
          31
          32
          33
          34
          35
          36
          37
          38
          39
          40
          41
          42
          43
          44
          45
          46
          47
          48
          49
          50
          51
          52
          53
          54
          55
          56
          57
          58
          59
          60
          61
          62
          63
          64
          65
          66
          67
          68
          69
          70
          71
          72
          73
          74
          75
          76
          77
          78
          79
          80
          81
          82
          83
          84
          85
          86
          87
          88
          89
          90
          91
          92
          93
          94
          95
          96
          97
          98
          99
          100
          101
          102
          103
          104
          105
          106
          107
          108
          109
          110
          111
          112
          113
          114
          115
          116
          117
          118
          119
          120
          121
          122
          123
          124
          125
          126
          127
          128
          129
          130
          131
          132
          133
          134
          135
          136
          137
          138
          139
          140
          141
          142
          143
          144
          145
          146
          147
          148
          149
          150
          151
          152
          153
          154
          155
          156
          157
        </DataArray>
        <DataArray type="Int64" Name="offsets" format="ascii">
          158
        </DataArray>
        <DataArray type="Int64" Name="types" format="ascii">
          2
        </DataArray>
      </Cells>
      <PointData>
        <DataArray type="Int64" Name="NodeTag" format="ascii">
          1
          2
          3
          4
          5
          6
          7
          8
          9
          10
          11
          12
          13
          14
          15
          16
          17
          18
          19
          20
          21
          22
          23
          24
          25
          26
          27
          28
          29
          30
          31
          32
          33
          34
          35
          36
          37
          38
          39
          40
          41
          42
          43
          44
          45
          46
          47
          48
          49
          50
          51
          52
          53
          54
          55
          56
          57
          58
          59
          60
          61
          62
          63
          64
          65
          66
          67
          68
          69
          70
          71
          72
          73
          74
          75
          76
          77
          78
          79
          80
          81
          82
          83
          84
          85
          86
          87
          88
          89
          90
          91
          92
          93
          94
          95
          96
          97
          98
          99
          100
          101
          102
          103
          104
          105
          106
          107
          108
          109
          110
          111
          112
          113
          114
          115
          116
          117
          118
          119
          120
          121
          122
          123
          124
          125
          126
          127
          128
          129
          130
          131
          132
          133
          134
          135
          136
          137
          138
          139
          140
          141
          142
          143
          144
          145
          146
          147
          148
          149
          150
          151
          152
          153
          154
          155
          156
          157
          158
        </DataArray>
        <DataArray type="Float64" Name="Displacement" NumberOfComponents="3" format="ascii">
          0.0000000000e+00 0.0000000000e+00 0.0000000000e+00 
          -5.8703255797e-05 5.1433830622e-05 -4.9673053681e-05 
          0.0000000000e+00 0.0000000000e+00 0.0000000000e+00 
          4.7436935147e-05 5.5002041329e-05 -3.2584119208e-04 
          -5.2261534844e-05 5.0698389546e-05 -3.3244223680e-04 
          -5.6516096465e-04 -5.1837420998e-04 -2.5171037712e-04 
          -5.5820254728e-04 5.8928236976e-04 -2.5805558834e-04 
          -5.9714299286e-04 -5.1789233430e-04 -2.4651829341e-04 
          -5.0884595588e-04 5.8878513093e-04 -2.4190133243e-04 
          -4.8858937904e-05 -5.8917046138e-05 -4.9876928862e-05 
          0.0000000000e+00 0.0000000000e+00 0.0000000000e+00 
          -4.7995070373e-05 -5.5457910939e-05 -3.2588200261e-04 
          5.0938282496e-04 -5.5983703602e-04 -2.4757600001e-04 
          -5.9770324639e-04 -5.6445784346e-04 -2.6222925964e-04 
          5.0896362258e-04 -5.8900867483e-04 -2.4194926503e-04 
          5.9100708331e-05 -5.1887357876e-05 -4.9893204440e-05 
          0.0000000000e+00 0.0000000000e+00 0.0000000000e+00 
          5.1700436920e-05 -5.1142963423e-05 -3.3253351025e-04 
          5.6521839376e-04 5.1784071056e-04 -2.5168742110e-04 
          5.5819651996e-04 -5.8950666182e-04 -2.5816190699e-04 
          5.9738584184e-04 5.1735847731e-04 -2.4658039314e-04 
          4.8310657484e-05 5.8442617665e-05 -4.9857230412e-05 
          -5.0927514191e-04 5.5930955568e-04 -2.4750926662e-04 
          5.9793756236e-04 5.6413035212e-04 -2.6230405300e-04 
          1.4068959275e-05 1.7235423874e-04 -4.3999327791e-04 
          1.4549897033e-04 1.1100382167e-05 -4.3308850104e-04 
          8.8548705764e-05 1.2167928695e-04 -5.4075547823e-04 
          -7.9914994800e-05 1.2680066153e-04 -5.4776971694e-04 
          1.4356382909e-04 1.0604674873e-04 -6.1328246930e-04 
          -5.1683581220e-05 2.0310299083e-04 -6.1979414764e-04 
          -1.4573484729e-04 -1.1678004164e-05 -4.3307426113e-04 
          -8.8190186917e-05 -1.2231706961e-04 -5.4076782265e-04 
          -1.4311853815e-04 -1.0660707482e-04 -6.1333116289e-04 
          -1.4300192342e-05 -1.7289658704e-04 -4.4001974315e-04 
          8.0254124795e-05 -1.2742392321e-04 -5.4780410966e-04 
          5.2172819438e-05 -2.0383127388e-04 -6.1985305036e-04 
          -8.3984796091e-05 1.9954215660e-04 -7.0692468903e-04 
          1.2518889365e-04 1.6827780930e-04 -7.0251707095e-04 
          -7.6920739114e-05 2.4980827075e-04 -7.7238201403e-04 
          1.4214217501e-04 1.6790365202e-04 -7.7186008846e-04 
          -1.0760951426e-04 2.2065864054e-04 -8.3181612439e-04 
          1.2349358625e-04 2.3331013525e-04 -8.3555088928e-04 
          -1.2492569173e-04 -1.6899555025e-04 -7.0259885471e-04 
          -1.4219929105e-04 -1.6837465443e-04 -7.7191254647e-04 
          -1.2367012232e-04 -2.3389334666e-04 -8.3558182890e-04 
          8.4204946746e-05 -2.0006785393e-04 -7.0700282948e-04 
          7.6928642873e-05 -2.5045842749e-04 -7.7244648084e-04 
          1.0731725845e-04 -2.2114243847e-04 -8.3187308331e-04 
          1.3433391621e-04 2.2925667139e-04 -9.0830059167e-04 
          -1.3793905119e-04 2.4213744292e-04 -9.0244858138e-04 
          6.5568001052e-06 2.3625605951e-04 -8.6489046972e-04 
          -6.2870131560e-05 3.6500170966e-04 -9.6816519887e-04 
          2.6083519842e-04 1.3812204075e-04 -9.7491194032e-04 
          4.9882516966e-05 2.5585405053e-04 -1.1117461953e-03 
          1.8877612941e-04 2.5099422928e-04 -1.1230632986e-03 
          -1.9600574263e-04 2.7617017438e-04 -1.1128844741e-03 
          2.2789734500e-04 2.7648762176e-04 -1.2169152386e-03 
          -2.2555071675e-04 2.4829221701e-04 -1.1997392055e-03 
          5.7746783444e-07 2.6378830694e-04 -1.0882591758e-03 
          -1.7653435916e-04 2.4703156575e-04 -1.0713205258e-03 
          1.8144074855e-04 2.7260110862e-04 -1.0790845403e-03 
          2.6539116125e-04 1.9667325944e-04 -1.1596632490e-03 
          -1.5560297001e-04 3.3696983993e-04 -1.1472326993e-03 
          2.8450063232e-05 2.6551966346e-04 -1.2405751130e-03 
          -2.4404149882e-04 2.7102893599e-04 -1.2174444812e-03 
          2.4636533642e-04 2.3776143001e-04 -1.2384917562e-03 
          -1.3462444804e-04 -2.2989870703e-04 -9.0828693887e-04 
          -1.8160268456e-04 -2.7348619173e-04 -1.0789890332e-03 
          -1.3621050242e-04 1.5529679729e-05 -8.7518343616e-04 
          -1.8892360276e-04 -2.5202987874e-04 -1.1229952818e-03 
          -2.2838986395e-04 -2.7801119061e-04 -1.2169456883e-03 
          -2.6083235797e-04 -1.3857599903e-04 -9.7484235654e-04 
          -1.7038126364e-04 4.2940051967e-05 -1.0914379784e-03 
          -1.9236093883e-04 1.8664489779e-05 -1.0991819342e-03 
          -2.6577938445e-04 -1.9793828972e-04 -1.1596173684e-03 
          -2.1791147830e-04 2.0429631619e-05 -1.2197369233e-03 
          -2.4739897435e-04 -2.3955072335e-04 -1.2386150008e-03 
          -1.8192028159e-04 -1.4452778287e-05 -1.2431251429e-03 
          -1.4937285009e-04 1.1821202395e-04 -1.2385877705e-03 
          -1.4962063427e-04 -1.2278411031e-04 -1.2437964521e-03 
          1.3764648329e-04 -2.4272468890e-04 -9.0251580068e-04 
          1.7631518325e-04 -2.4784988898e-04 -1.0715303042e-03 
          -4.7140860753e-06 -2.3685673474e-04 -8.6482906729e-04 
          1.9578773079e-04 -2.7721170667e-04 -1.1131415454e-03 
          2.2490728872e-04 -2.4995740855e-04 -1.2001878818e-03 
          6.2542922121e-05 -3.6584858941e-04 -9.6826138268e-04 
          -5.4758715616e-05 -2.5658276753e-04 -1.1119358146e-03 
          -3.4091410843e-07 -2.6483032499e-04 -1.0883234659e-03 
          1.5532247237e-04 -3.3834953599e-04 -1.1475504518e-03 
          -3.2087924905e-05 -2.6696775417e-04 -1.2407518966e-03 
          2.4295627526e-04 -2.7308137071e-04 -1.2180582592e-03 
          1.3592830828e-04 -1.6285525653e-05 -8.7520088638e-04 
          1.7021963943e-04 -5.2078536031e-05 -1.0916431081e-03 
          1.9217519223e-04 -2.1508238728e-05 -1.0993814345e-03 
          2.1749963765e-04 -2.5059153821e-05 -1.2198419611e-03 
          1.8042831601e-04 1.1865320530e-05 -1.2432191413e-03 
          1.4772508413e-04 1.2042612735e-04 -1.2436678243e-03 
          1.4749861183e-04 -1.2061193994e-04 -1.2390039840e-03 
          1.1162111047e-03 3.1944705804e-05 -1.4585279583e-03 
          7.2511980319e-04 -1.2762747356e-04 -1.3097364293e-03 
          7.1076406395e-04 -9.7521048095e-05 -1.3113957301e-03 
          -1.1162811430e-03 -3.3437056115e-05 -1.4572496293e-03 
          -7.1337659732e-04 -1.1076725587e-04 -1.3284303709e-03 
          -7.0248804789e-04 -1.4746778749e-04 -1.3300277884e-03 
          -7.1338367035e-04 1.2940193620e-04 -1.3091351598e-03 
          -7.0251939971e-04 9.8443593628e-05 -1.3108072879e-03 
          7.2510834662e-04 1.0552025470e-04 -1.3291588185e-03 
          7.1072107623e-04 1.4349569407e-04 -1.3307701221e-03 
          1.0789213962e-03 3.1323726905e-05 -1.3389529962e-03 
          6.5101143310e-04 -1.3925272033e-04 -1.1976436898e-03 
          6.5609078072e-04 -1.0014980760e-04 -1.1992882482e-03 
          -1.0788715885e-03 -3.2089730875e-05 -1.3381697027e-03 
          -6.5555594340e-04 -1.1046221235e-04 -1.1886497925e-03 
          -6.6102244849e-04 -1.4427331371e-04 -1.1902582056e-03 
          -6.5561009803e-04 1.3702826905e-04 -1.1971481246e-03 
          -6.6104160490e-04 9.7935163259e-05 -1.1987944071e-03 
          6.5095462811e-04 1.1082479863e-04 -1.1889205343e-03 
          6.5604349512e-04 1.4490016328e-04 -1.1905304232e-03 
          9.1432420048e-04 2.6576049756e-05 -1.0961479060e-03 
          5.0671700668e-04 -1.3667960294e-04 -9.6425498440e-04 
          5.2635009268e-04 -9.2952188570e-05 -9.6591718921e-04 
          -9.1510453297e-04 -2.7030469987e-05 -1.0957386057e-03 
          -5.0307375969e-04 -1.0117381021e-04 -9.3821906311e-04 
          -5.2163206152e-04 -1.3025900352e-04 -9.3980458163e-04 
          -5.0313678359e-04 1.3732268345e-04 -9.6406268253e-04 
          -5.2163820900e-04 9.4029952325e-05 -9.6572075054e-04 
          5.0666074053e-04 9.9396060163e-05 -9.3829910827e-04 
          5.2633962115e-04 1.2821916061e-04 -9.3988002811e-04 
          1.7224302044e-05 -1.6964119626e-04 -1.2488595715e-03 
          -5.2720048857e-05 1.6741398368e-04 -1.2577417109e-03 
          -1.8526499623e-04 1.4382630438e-04 -1.2416584854e-03 
          -1.8472124328e-04 -1.4755624630e-04 -1.2449603185e-03 
          1.7925712211e-04 -1.4686681457e-04 -1.2409601996e-03 
          1.7871326236e-04 1.4450771992e-04 -1.2456117426e-03 
          -3.6283058559e-05 7.3737598653e-05 -3.4205325651e-04 
          -9.4783406415e-05 1.0937051900e-04 -5.5370558141e-04 
          -5.0560707796e-05 1.4063678727e-04 -5.6090099723e-04 
          -5.9697138639e-05 -3.4135478046e-05 -3.4243087735e-04 
          -7.6599018000e-05 -9.7279306760e-05 -5.5233741175e-04 
          -9.2252687614e-05 -4.9712544236e-05 -5.6367506472e-04 
          3.6172058036e-05 -7.4246852866e-05 -3.4211431646e-04 
          9.5275550842e-05 -1.0997145183e-04 -5.5374230972e-04 
          4.8891481989e-05 -1.4127862875e-04 -5.6074515900e-04 
          5.9275276454e-05 3.3689213175e-05 -3.4245999340e-04 
          7.6684395376e-05 9.6910148473e-05 -5.5235986200e-04 
          9.2690799711e-05 4.9309625265e-05 -5.6371859593e-04 
          -1.1994040952e-05 1.7067444035e-04 -6.8793474686e-04 
          -7.2553262397e-06 1.9822087929e-04 -7.2744809938e-04 
          5.8261925259e-06 2.1985985434e-04 -8.3601456290e-04 
          -1.0197946487e-04 -1.5968604410e-05 -6.8324372411e-04 
          -1.0762508175e-04 -3.3251727119e-06 -7.3574565391e-04 
          -1.1305282306e-04 -4.5100151498e-06 -8.2215630305e-04 
          1.1226409339e-05 -1.7130959249e-04 -6.8804315126e-04 
          6.3757232829e-06 -1.9880910317e-04 -7.2733540018e-04 
          -7.1090588977e-06 -2.2040053755e-04 -8.3607590742e-04 
          1.0234127594e-04 1.5495556143e-05 -6.8322820276e-04 
          1.0772576056e-04 1.4891072345e-06 -7.3570064064e-04 
          1.1291045085e-04 8.2427158779e-07 -8.2190469851e-04 
        </DataArray>
        <DataArray type="Float64" Name="Reaction" NumberOfComponents="3" format="ascii">
          -4.4804212147e+03 3.5589562798e+03 5.4840006581e+04 
          2.9217248052e+00 -3.7893993917e+01 4.1061379454e-03 
          -3.6679316285e+03 -4.5873267238e+03 5.5993027895e+04 
          8.1869878464e+01 -5.8384990860e+01 4.4983429295e-02 
          -1.0341125522e+02 -5.7503774767e+01 4.8927757309e-02 
          1.5825522111e+01 -3.0287968193e+00 -4.3736930562e-02 
          -1.5995930533e+01 1.0772761148e+00 -4.0369140025e-02 
          1.9637074522e+01 -1.0443359502e+00 5.9256355975e-02 
          -1.2164092274e+01 1.3214689220e-01 6.0775300322e-02 
          -6.7177184624e+01 9.8690447492e-01 -1.3256481288e-03 
          4.4807020071e+03 -3.5610045142e+03 5.4851087806e+04 
          -1.0407625968e+02 5.9317420039e+01 4.7629192964e-02 
          2.6728686463e+01 -3.2120649324e+00 -1.9665222946e-02 
          2.3525547247e+01 2.1864034697e+00 -1.9510871858e-02 
          2.0394409005e+01 1.1207399879e+00 5.8610358371e-02 
          1.8091014161e+00 3.8457400233e+01 4.1773541358e-03 
          3.6691698192e+03 4.5885190413e+03 5.6003356139e+04 
          8.1108295239e+01 5.8456858011e+01 4.5676601069e-02 
          -1.6007280667e+01 2.6322670976e+00 -4.1528306811e-02 
          1.6563158452e+01 3.9970033027e-01 -4.3518289816e-02 
          -1.1937107265e+01 7.2896997431e-01 6.0590239919e-02 
          5.3417266127e+01 -1.0269800178e+00 -1.4072052145e-03 
          -1.6043448063e+01 2.0695310723e+00 -1.8836330783e-02 
          -1.3575514459e+01 -1.9497206941e+00 -1.8290509820e-02 
          1.1487977530e+02 8.2071978822e+01 5.4192826810e-03 
          -1.1856343849e+02 8.2877239902e+01 1.5315342358e-02 
          2.3726275560e+01 -1.3163661996e+01 -3.2295064468e-03 
          -1.5971420047e+01 -1.4411419056e+01 1.1125189690e-02 
          6.8949313645e+01 -4.3897610846e+01 8.0020519838e-04 
          -6.2620664639e+01 -4.4011341685e+01 -3.1541871503e-03 
          1.1494364953e+02 -8.2713143753e+01 1.7059280472e-02 
          -1.5663505261e+01 1.3118047160e+01 -3.7280097053e-03 
          -6.2840998776e+01 4.3810323377e+01 1.5824682942e-03 
          -1.1871461603e+02 -8.3269544022e+01 3.8699633962e-03 
          2.3752182201e+01 1.2873948119e+01 1.1955652376e-02 
          6.8996452613e+01 4.2954914747e+01 -3.3825512744e-03 
          2.0965556449e+00 3.0478704609e+00 8.0126940433e-03 
          -2.3243140622e-01 1.3901810296e+00 -6.2026476248e-03 
          5.0127307852e+01 3.2477565809e+01 2.1039947426e-02 
          -4.9080119241e+01 3.3802352932e+01 2.4705051658e-02 
          4.9744000098e+01 2.5985323958e+01 -9.2978912888e-01 
          -4.2000534296e+01 3.3621283402e+01 -9.2359470993e-01 
          1.1552540660e+00 -3.8436717936e+00 -7.3321043216e-03 
          4.7891123480e+01 -3.1963611018e+01 -5.0215976223e-03 
          3.9470690368e+01 -3.5221520825e+01 -8.8775433888e-01 
          -1.1821254644e+00 -2.1279578019e+00 1.2104888690e-02 
          -5.1188283221e+01 -3.3514536645e+01 5.8606142552e-03 
          -5.2658781109e+01 -2.4681499060e+01 -9.0122610807e-01 
          1.6357243441e+01 8.8652211791e-01 7.6148162521e-01 
          -8.4373336382e+00 -5.2314819999e-01 7.6172359075e-01 
          2.3123656929e+00 -2.0024455754e+00 -2.4725992872e-01 
          -4.1583398098e+01 -1.6444552186e+01 -4.2883514817e-01 
          4.3969121340e+01 -1.7336971518e+01 -3.2625028659e-01 
          9.6209092887e-01 -1.0873160821e+01 -1.5464202436e-01 
          8.8464851744e+00 4.8763488151e+00 1.1820505244e+00 
          -8.8473859473e-01 1.0283532575e+00 1.1713590417e+00 
          -7.9754308765e+01 4.3909191566e+01 -1.6060240216e+00 
          9.8923102747e+01 3.1903092931e+01 -1.5717976146e+00 
          -1.8249585562e+00 6.2395956096e+00 -1.4157089392e-02 
          -7.3571514259e+01 -2.7988178029e+01 -7.7277008785e-01 
          8.7131506499e+01 -1.8251885082e+01 -9.2638207531e-01 
          -3.6481077962e+01 2.3908841214e+01 -4.6316209312e-01 
          4.1643683561e+01 2.4742298696e+01 -4.6763499246e-01 
          -1.8534566446e+00 1.7018788206e+01 -1.2045796750e-01 
          1.7075311974e+01 -1.7446906398e+01 1.3068518764e+00 
          -3.6404092380e+00 -1.5923989470e+01 1.5248723700e+00 
          -1.8248874050e+01 -8.3064300468e-01 7.6114425875e-01 
          -8.7119835763e+01 2.0137058732e+01 -9.2020418468e-01 
          -1.4550014632e+01 -1.5465637851e-01 -4.4234940877e-02 
          -7.8408661413e+00 -4.5669464942e+00 1.1713308237e+00 
          8.1850703647e+01 -4.2203665691e+01 -1.6437556847e+00 
          -4.4808131970e+01 1.7198146315e+01 -2.9615899601e-01 
          -2.8433875165e+01 -3.3896029262e+00 -1.0426805435e-01 
          -6.2355008308e+00 1.5911587637e-01 4.3642436722e-02 
          3.6745218506e+01 -2.3142879814e+01 -3.8238038252e-01 
          2.7035737830e+01 -1.8465592602e+00 6.4779172119e-02 
          5.0721880912e+00 1.6626412621e+01 1.5526611696e+00 
          -1.9686726710e+01 -9.2009117284e+00 1.2448115025e-01 
          -3.4667539575e+01 -3.7516774265e+01 1.6731818255e+00 
          -3.5164680259e+01 4.0596619742e+01 1.2232772202e+00 
          6.6227706108e+00 1.0125377531e+00 7.6219984693e-01 
          7.4239982909e+01 2.9194924992e+01 -8.2496437056e-01 
          1.9123588568e+00 2.4386998727e+00 -2.4687936308e-01 
          2.3946287511e+00 -1.0093955518e+00 1.1822136911e+00 
          -9.7011697575e+01 -3.1197809305e+01 -1.6001649530e+00 
          4.0076188246e+01 1.6377463891e+01 -4.0121198108e-01 
          -1.8979948396e+00 1.1082986434e+01 -1.5545038777e-01 
          -6.7054895152e-01 -5.8078590176e+00 -1.3908495763e-02 
          -3.9998834076e+01 -2.5667076869e+01 -4.9238540753e-01 
          -2.9333415468e+00 -1.6508703642e+01 -1.2063617525e-01 
          -1.4690143879e+01 1.6991087043e+01 1.2803724573e+00 
          1.2319239298e+01 -6.4914241491e-01 -4.5007136596e-02 
          2.7920085679e+01 -4.6070366576e-01 -1.0901423835e-01 
          7.5630963873e+00 -1.0773648608e+00 4.1654506397e-02 
          -2.6697831747e+01 -6.4867325694e-01 6.8970994547e-02 
          1.9923861681e+01 9.0331257952e+00 1.2493647864e-01 
          3.4438241433e+01 -4.0757649829e+01 1.3369903103e+00 
          3.4386450748e+01 3.6877237538e+01 1.8131762486e+00 
          -1.9564255798e+01 -2.5280507516e+00 -4.1657448060e-01 
          5.7993366713e+00 -3.6818403204e+00 3.1997858733e-01 
          1.0687906699e+01 -1.8230409899e+00 -1.6761865565e-02 
          2.2621358150e+01 3.1419738224e+00 -4.5425051793e-01 
          2.4346471476e+00 9.2168545025e+00 3.3486737556e-01 
          -1.1820962178e+01 7.6100245227e+00 -8.2444050853e-03 
          -2.0399465198e-01 4.7730480083e+00 3.3502097065e-01 
          -1.2284537878e+01 8.5201283749e-01 -8.2536921233e-03 
          2.7991864186e+00 -1.0739258596e+01 3.2054414810e-01 
          1.0073255604e+01 -6.5327130039e+00 -1.6996363904e-02 
          1.5208305776e+01 -5.1598203612e+00 -8.7953158324e-01 
          4.5879366543e+00 -5.5361121059e+00 4.5752357103e-01 
          -1.5421314821e+00 -5.0514969644e+00 -1.5821166318e-03 
          -1.0793661140e+01 5.4788943328e+00 -8.8777890780e-01 
          -3.9268306128e+00 6.1722585245e+00 4.5897484809e-01 
          -2.9025404797e-01 7.3226023969e-01 -1.7839503410e-03 
          -4.7424173244e+00 4.9625826182e+00 4.5932787671e-01 
          9.8427816928e-01 4.5997120412e+00 -1.8714541638e-03 
          3.6454043163e+00 -4.9126604670e+00 4.5726038548e-01 
          -4.3003213869e-01 4.1561363843e-01 -1.5033841258e-03 
          9.6418408965e+00 -4.9495229071e+00 -9.7281634951e-01 
          -3.7921057685e+00 -7.3665418008e+00 5.8658531070e-01 
          3.7903331923e+00 -2.9521981800e+00 -2.6872457757e-02 
          -1.7121996045e+01 5.6482062103e+00 -9.8728151107e-01 
          2.6257586993e+00 -3.0651902799e+00 5.9588503644e-01 
          -4.8837597464e+00 -1.4634096755e+00 -2.8795678262e-02 
          3.9356989055e+00 8.5594753453e+00 5.9632551038e-01 
          -2.8411414128e+00 4.5600560738e+00 -2.9191725565e-02 
          -2.4198528738e+00 1.9903633970e+00 5.8600163497e-01 
          5.8356043612e+00 2.0467611832e-01 -2.6515256837e-02 
          -1.4188827229e+01 2.3213934548e+01 -1.2473507452e-01 
          7.7083587130e+00 -2.2970883392e+01 -1.0674940611e-01 
          -8.6185404044e+00 3.0821402527e+01 5.2199875010e-02 
          -4.2931560079e+01 -1.0340823788e+01 3.9159558207e-02 
          6.1679509043e+00 -3.1133852509e+01 8.0205468422e-02 
          4.0478018612e+01 1.0054659946e+01 9.2220124238e-02 
          -2.1615303674e-01 1.0315878454e+01 -7.6903103436e-03 
          -2.6445045186e+00 7.3367548007e+00 -3.2600040058e-02 
          -2.0520667625e-01 -9.5330152725e+00 -3.8279648821e-02 
          1.3166073193e+01 1.0065937742e-01 -5.6442930868e-02 
          1.0484307470e+01 -2.8699247919e+00 -7.2016584125e-02 
          -1.2360266227e+01 1.4253886079e-01 -1.1377688425e-01 
          2.4396347122e-01 -1.0348631267e+01 -7.6779713640e-03 
          2.7958304097e+00 -7.5064443404e+00 -3.2226780077e-02 
          -4.0621180617e-01 9.3585404638e+00 -3.8393604035e-02 
          -1.4684133224e+01 -9.7393546992e-02 -5.6202754468e-02 
          -9.7509444341e+00 2.9139178066e+00 -7.2148927238e-02 
          1.4192774549e+01 -8.4652850292e-02 -1.1499149727e-01 
          -3.9717200130e-03 -5.3699224128e+00 -2.0637685769e-02 
          -3.1305275355e-01 6.5716086684e+00 -2.4030608181e-02 
          7.1371904067e-01 8.5146538166e+00 -6.1871430329e-02 
          -8.1030590831e+00 -2.2065952349e-01 -2.0162791747e-01 
          9.0463502963e+00 -6.2597454756e-02 -2.7789246579e-01 
          1.2430463601e+01 4.9226651660e-01 -3.2331918876e-01 
          -3.2062323106e-01 5.1683072084e+00 -2.0521201222e-02 
          -6.8405086670e-02 -6.6100800579e+00 -2.4180199092e-02 
          1.2899205776e+00 -8.5327241513e+00 -6.1907078582e-02 
          8.9664568369e+00 3.5870194309e-01 -1.9918085355e-01 
          -9.1242110764e+00 -3.7539924356e-01 -2.8139511391e-01 
          -1.2738709547e+01 8.5028470948e-01 -3.1947139533e-01 
        </DataArray>
        <DataArray type="Float64" Name="UnbalancedLoad" NumberOfComponents="3" format="ascii">
          0.0000000000e+00 0.0000000000e+00 -4.1203430934e+03 
          0.0000000000e+00 0.0000000000e+00 -4.2221181895e+03 
          0.0000000000e+00 0.0000000000e+00 -4.1201826387e+03 
          0.0000000000e+00 0.0000000000e+00 -6.6527337596e+03 
          0.0000000000e+00 0.0000000000e+00 -6.6526324043e+03 
          0.0000000000e+00 0.0000000000e+00 -4.5014864129e+03 
          0.0000000000e+00 0.0000000000e+00 -4.5020931005e+03 
          0.0000000000e+00 0.0000000000e+00 -3.3681583156e+03 
          0.0000000000e+00 0.0000000000e+00 -3.3686636515e+03 
          0.0000000000e+00 0.0000000000e+00 -4.2219577312e+03 
          0.0000000000e+00 0.0000000000e+00 -4.1203430934e+03 
          0.0000000000e+00 0.0000000000e+00 -6.6527337596e+03 
          0.0000000000e+00 0.0000000000e+00 -4.5020931005e+03 
          0.0000000000e+00 0.0000000000e+00 -4.5020931005e+03 
          0.0000000000e+00 0.0000000000e+00 -3.3686636515e+03 
          0.0000000000e+00 0.0000000000e+00 -4.2219577312e+03 
          0.0000000000e+00 0.0000000000e+00 -4.1203430934e+03 
          0.0000000000e+00 0.0000000000e+00 -6.6527337596e+03 
          0.0000000000e+00 0.0000000000e+00 -4.5020931005e+03 
          0.0000000000e+00 0.0000000000e+00 -4.5020931005e+03 
          0.0000000000e+00 0.0000000000e+00 -3.3686636515e+03 
          0.0000000000e+00 0.0000000000e+00 -4.2219577312e+03 
          0.0000000000e+00 0.0000000000e+00 -4.5020931005e+03 
          0.0000000000e+00 0.0000000000e+00 -4.5020931005e+03 
          0.0000000000e+00 0.0000000000e+00 -2.2442772730e+03 
          0.0000000000e+00 0.0000000000e+00 -2.2442772730e+03 
          0.0000000000e+00 0.0000000000e+00 -2.0270629926e+03 
          0.0000000000e+00 0.0000000000e+00 -2.0270629926e+03 
          0.0000000000e+00 0.0000000000e+00 -1.6686656953e+03 
          0.0000000000e+00 0.0000000000e+00 -1.6686656953e+03 
          0.0000000000e+00 0.0000000000e+00 -2.2442772730e+03 
          0.0000000000e+00 0.0000000000e+00 -2.0270629926e+03 
          0.0000000000e+00 0.0000000000e+00 -1.6686656953e+03 
          0.0000000000e+00 0.0000000000e+00 -2.2442772730e+03 
          0.0000000000e+00 0.0000000000e+00 -2.0270629926e+03 
          0.0000000000e+00 0.0000000000e+00 -1.6686656953e+03 
          0.0000000000e+00 0.0000000000e+00 -1.3436833252e+03 
          0.0000000000e+00 0.0000000000e+00 -1.3436833252e+03 
          0.0000000000e+00 0.0000000000e+00 -1.2157168215e+03 
          0.0000000000e+00 0.0000000000e+00 -1.2157168215e+03 
          0.0000000000e+00 0.0000000000e+00 -1.6566354095e+03 
          0.0000000000e+00 0.0000000000e+00 -1.6566354095e+03 
          0.0000000000e+00 0.0000000000e+00 -1.3436833252e+03 
          0.0000000000e+00 0.0000000000e+00 -1.2157168215e+03 
          0.0000000000e+00 0.0000000000e+00 -1.6566354095e+03 
          0.0000000000e+00 0.0000000000e+00 -1.3436833252e+03 
          0.0000000000e+00 0.0000000000e+00 -1.2157168215e+03 
          0.0000000000e+00 0.0000000000e+00 -1.6566354095e+03 
          0.0000000000e+00 0.0000000000e+00 -7.6415136269e+02 
          0.0000000000e+00 0.0000000000e+00 -7.6415136269e+02 
          0.0000000000e+00 0.0000000000e+00 -9.5542363186e+02 
          0.0000000000e+00 0.0000000000e+00 -7.8401826842e+02 
          0.0000000000e+00 0.0000000000e+00 -7.8401826842e+02 
          0.0000000000e+00 0.0000000000e+00 -4.3584228368e+02 
          0.0000000000e+00 0.0000000000e+00 -5.8760980768e+02 
          0.0000000000e+00 0.0000000000e+00 -5.8760980768e+02 
          0.0000000000e+00 0.0000000000e+00 -1.5614659443e+03 
          0.0000000000e+00 0.0000000000e+00 -1.5614659443e+03 
          0.0000000000e+00 0.0000000000e+00 -7.7888207686e+02 
          0.0000000000e+00 0.0000000000e+00 -1.4305870973e+03 
          0.0000000000e+00 0.0000000000e+00 -1.4305870973e+03 
          0.0000000000e+00 0.0000000000e+00 -7.8401826842e+02 
          0.0000000000e+00 0.0000000000e+00 -7.8401826842e+02 
          0.0000000000e+00 0.0000000000e+00 -4.3584228368e+02 
          0.0000000000e+00 0.0000000000e+00 -1.4938878486e+03 
          0.0000000000e+00 0.0000000000e+00 -1.4938878486e+03 
          0.0000000000e+00 0.0000000000e+00 -7.6415136269e+02 
          0.0000000000e+00 0.0000000000e+00 -1.4305870973e+03 
          0.0000000000e+00 0.0000000000e+00 -9.5542363186e+02 
          0.0000000000e+00 0.0000000000e+00 -5.8760980768e+02 
          0.0000000000e+00 0.0000000000e+00 -1.5614659443e+03 
          0.0000000000e+00 0.0000000000e+00 -7.8401826842e+02 
          0.0000000000e+00 0.0000000000e+00 -4.3584228368e+02 
          0.0000000000e+00 0.0000000000e+00 -7.7888207686e+02 
          0.0000000000e+00 0.0000000000e+00 -7.8401826842e+02 
          0.0000000000e+00 0.0000000000e+00 -4.3584228368e+02 
          0.0000000000e+00 0.0000000000e+00 -1.4938878486e+03 
          0.0000000000e+00 0.0000000000e+00 -4.1463342217e+02 
          0.0000000000e+00 0.0000000000e+00 -5.0104213545e+02 
          0.0000000000e+00 0.0000000000e+00 -5.0104213545e+02 
          0.0000000000e+00 0.0000000000e+00 -7.6415136269e+02 
          0.0000000000e+00 0.0000000000e+00 -1.4305870973e+03 
          0.0000000000e+00 0.0000000000e+00 -9.5542363186e+02 
          0.0000000000e+00 0.0000000000e+00 -5.8760980768e+02 
          0.0000000000e+00 0.0000000000e+00 -1.5614659443e+03 
          0.0000000000e+00 0.0000000000e+00 -7.8401826842e+02 
          0.0000000000e+00 0.0000000000e+00 -4.3584228368e+02 
          0.0000000000e+00 0.0000000000e+00 -7.7888207686e+02 
          0.0000000000e+00 0.0000000000e+00 -7.8401826842e+02 
          0.0000000000e+00 0.0000000000e+00 -4.3584228368e+02 
          0.0000000000e+00 0.0000000000e+00 -1.4938878486e+03 
          0.0000000000e+00 0.0000000000e+00 -9.5542363186e+02 
          0.0000000000e+00 0.0000000000e+00 -4.3584228368e+02 
          0.0000000000e+00 0.0000000000e+00 -7.7888207686e+02 
          0.0000000000e+00 0.0000000000e+00 -4.3584228368e+02 
          0.0000000000e+00 0.0000000000e+00 -4.1463342217e+02 
          0.0000000000e+00 0.0000000000e+00 -5.0104213545e+02 
          0.0000000000e+00 0.0000000000e+00 -5.0104213545e+02 
          0.0000000000e+00 0.0000000000e+00 -6.4782536548e+02 
          0.0000000000e+00 0.0000000000e+00 -6.4783012830e+02 
          0.0000000000e+00 0.0000000000e+00 -4.5984470900e+02 
          0.0000000000e+00 0.0000000000e+00 -6.4782536548e+02 
          0.0000000000e+00 0.0000000000e+00 -6.4783012830e+02 
          0.0000000000e+00 0.0000000000e+00 -4.5984470900e+02 
          0.0000000000e+00 0.0000000000e+00 -6.4783012830e+02 
          0.0000000000e+00 0.0000000000e+00 -4.5984470900e+02 
          0.0000000000e+00 0.0000000000e+00 -6.4783012830e+02 
          0.0000000000e+00 0.0000000000e+00 -4.5984470900e+02 
          0.0000000000e+00 0.0000000000e+00 -6.4782536548e+02 
          0.0000000000e+00 0.0000000000e+00 -6.4783012830e+02 
          0.0000000000e+00 0.0000000000e+00 -4.5984470900e+02 
          0.0000000000e+00 0.0000000000e+00 -6.4782536548e+02 
          0.0000000000e+00 0.0000000000e+00 -6.4783012830e+02 
          0.0000000000e+00 0.0000000000e+00 -4.5984470900e+02 
          0.0000000000e+00 0.0000000000e+00 -6.4783012830e+02 
          0.0000000000e+00 0.0000000000e+00 -4.5984470900e+02 
          0.0000000000e+00 0.0000000000e+00 -6.4783012830e+02 
          0.0000000000e+00 0.0000000000e+00 -4.5984470900e+02 
          0.0000000000e+00 0.0000000000e+00 -6.4782536548e+02 
          0.0000000000e+00 0.0000000000e+00 -6.4783012830e+02 
          0.0000000000e+00 0.0000000000e+00 -4.5984470900e+02 
          0.0000000000e+00 0.0000000000e+00 -6.4782536548e+02 
          0.0000000000e+00 0.0000000000e+00 -6.4783012830e+02 
          0.0000000000e+00 0.0000000000e+00 -4.5984470900e+02 
          0.0000000000e+00 0.0000000000e+00 -6.4783012830e+02 
          0.0000000000e+00 0.0000000000e+00 -4.5984470900e+02 
          0.0000000000e+00 0.0000000000e+00 -6.4783012830e+02 
          0.0000000000e+00 0.0000000000e+00 -4.5984470900e+02 
          0.0000000000e+00 0.0000000000e+00 -4.1562127112e+02 
          0.0000000000e+00 0.0000000000e+00 -4.1562127112e+02 
          0.0000000000e+00 0.0000000000e+00 -1.1361508568e+02 
          0.0000000000e+00 0.0000000000e+00 -1.1361508568e+02 
          0.0000000000e+00 0.0000000000e+00 -1.1361508568e+02 
          0.0000000000e+00 0.0000000000e+00 -1.1361508568e+02 
          0.0000000000e+00 0.0000000000e+00 -5.5282421718e+02 
          0.0000000000e+00 0.0000000000e+00 -4.9935993813e+02 
          0.0000000000e+00 0.0000000000e+00 -4.5019603520e+02 
          0.0000000000e+00 0.0000000000e+00 -5.5282421718e+02 
          0.0000000000e+00 0.0000000000e+00 -4.9935993813e+02 
          0.0000000000e+00 0.0000000000e+00 -4.5019603520e+02 
          0.0000000000e+00 0.0000000000e+00 -5.5282421718e+02 
          0.0000000000e+00 0.0000000000e+00 -4.9935993813e+02 
          0.0000000000e+00 0.0000000000e+00 -4.5019603520e+02 
          0.0000000000e+00 0.0000000000e+00 -5.5282421718e+02 
          0.0000000000e+00 0.0000000000e+00 -4.9935993813e+02 
          0.0000000000e+00 0.0000000000e+00 -4.5019603520e+02 
          0.0000000000e+00 0.0000000000e+00 -4.0594609395e+02 
          0.0000000000e+00 0.0000000000e+00 -3.6535824083e+02 
          0.0000000000e+00 0.0000000000e+00 -3.3118029307e+02 
          0.0000000000e+00 0.0000000000e+00 -4.0594609395e+02 
          0.0000000000e+00 0.0000000000e+00 -3.6535824083e+02 
          0.0000000000e+00 0.0000000000e+00 -3.3118029307e+02 
          0.0000000000e+00 0.0000000000e+00 -4.0594609395e+02 
          0.0000000000e+00 0.0000000000e+00 -3.6535824083e+02 
          0.0000000000e+00 0.0000000000e+00 -3.3118029307e+02 
          0.0000000000e+00 0.0000000000e+00 -4.0594609395e+02 
          0.0000000000e+00 0.0000000000e+00 -3.6535824083e+02 
          0.0000000000e+00 0.0000000000e+00 -3.3118029307e+02 
        </DataArray>
      </PointData>
      <CellData>
        <DataArray type="Int64" Name="ElementTag" format="ascii">
          0
        </DataArray>
      </CellData>
    </Piece>
  </UnstructuredGrid>
</VTKFile>
