<?xml version="1.0"?>
<VTKFile type="UnstructuredGrid" version="1.0" byte_order="LittleEndian" compressor="vtkZLibDataCompressor">
  <UnstructuredGrid>
    <Piece NumberOfPoints="158" NumberOfCells="1">
      <Points>
        <DataArray type="Float64" Name="Points" NumberOfComponents="3" format="ascii">
          1.7550000000e+00 -1.7550000000e+00 0.0000000000e+00 
          1.4140000000e+00 0.0000000000e+00 5.2300000000e+00 
          1.7550000000e+00 1.7550000000e+00 -0.0000000000e+00 
          1.4140000000e+00 -1.4140000000e+00 5.2300000000e+00 
          1.4140000000e+00 1.4140000000e+00 5.2300000000e+00 
          1.5840000000e+00 8.7800000000e-01 2.6150000000e+00 
          1.5840000000e+00 -8.7700000000e-01 2.6150000000e+00 
          1.5840000000e+00 1.5840000000e+00 2.6150000000e+00 
          1.5840000000e+00 -1.5840000000e+00 2.6150000000e+00 
          -0.0000000000e+00 1.4140000000e+00 5.2300000000e+00 
          -1.7550000000e+00 1.7550000000e+00 -0.0000000000e+00 
          -1.4140000000e+00 1.4140000000e+00 5.2300000000e+00 
          -8.7700000000e-01 1.5840000000e+00 2.6150000000e+00 
          8.7700000000e-01 1.5840000000e+00 2.6150000000e+00 
          -1.5840000000e+00 1.5840000000e+00 2.6150000000e+00 
          -1.4140000000e+00 -0.0000000000e+00 5.2300000000e+00 
          -1.7550000000e+00 -1.7550000000e+00 -0.0000000000e+00 
          -1.4140000000e+00 -1.4140000000e+00 5.2300000000e+00 
          -1.5840000000e+00 -8.7700000000e-01 2.6150000000e+00 
          -1.5840000000e+00 8.7700000000e-01 2.6150000000e+00 
          -1.5840000000e+00 -1.5840000000e+00 2.6150000000e+00 
          0.0000000000e+00 -1.4140000000e+00 5.2300000000e+00 
          8.7700000000e-01 -1.5840000000e+00 2.6150000000e+00 
          -8.7700000000e-01 -1.5840000000e+00 2.6150000000e+00 
          1.2750000000e+00 1.2750000000e+00 7.3500000000e+00 
          1.2750000000e+00 -1.2750000000e+00 7.3500000000e+00 
          1.1500000000e+00 -1.1500000000e+00 9.2700000000e+00 
          1.1500000000e+00 1.1500000000e+00 9.2700000000e+00 
          1.0370000000e+00 -1.0370000000e+00 1.1000000000e+01 
          1.0370000000e+00 1.0370000000e+00 1.1000000000e+01 
          -1.2750000000e+00 1.2750000000e+00 7.3500000000e+00 
          -1.1500000000e+00 1.1500000000e+00 9.2700000000e+00 
          -1.0370000000e+00 1.0370000000e+00 1.1000000000e+01 
          -1.2750000000e+00 -1.2750000000e+00 7.3500000000e+00 
          -1.1500000000e+00 -1.1500000000e+00 9.2700000000e+00 
          -1.0370000000e+00 -1.0370000000e+00 1.1000000000e+01 
          9.3500000000e-01 9.3500000000e-01 1.2560000000e+01 
          9.3500000000e-01 -9.3500000000e-01 1.2560000000e+01 
          8.4300000000e-01 8.4300000000e-01 1.3960000000e+01 
          8.4300000000e-01 -8.4300000000e-01 1.3960000000e+01 
          7.6000000000e-01 7.6000000000e-01 1.5240000000e+01 
          7.6000000000e-01 -7.6000000000e-01 1.5240000000e+01 
          -9.3500000000e-01 9.3500000000e-01 1.2560000000e+01 
          -8.4300000000e-01 8.4300000000e-01 1.3960000000e+01 
          -7.6000000000e-01 7.6000000000e-01 1.5240000000e+01 
          -9.3500000000e-01 -9.3500000000e-01 1.2560000000e+01 
          -8.4300000000e-01 -8.4300000000e-01 1.3960000000e+01 
          -7.6000000000e-01 -7.6000000000e-01 1.5240000000e+01 
          7.6000000000e-01 -7.6000000000e-01 1.6240000000e+01 
          7.6000000000e-01 7.6000000000e-01 1.6240000000e+01 
          7.6000000000e-01 0.0000000000e+00 1.6240000000e+01 
          7.6000000000e-01 7.6000000000e-01 1.7340000000e+01 
          7.6000000000e-01 -7.6000000000e-01 1.7340000000e+01 
          7.6000000000e-01 0.0000000000e+00 1.7890000000e+01 
          7.6000000000e-01 -7.6000000000e-01 1.9440000000e+01 
          7.6000000000e-01 7.6000000000e-01 1.9440000000e+01 
          7.6000000000e-01 -7.6000000000e-01 2.1640000000e+01 
          7.6000000000e-01 7.6000000000e-01 2.1640000000e+01 
          7.6000000000e-01 0.0000000000e+00 1.9440000000e+01 
          7.6000000000e-01 7.6000000000e-01 1.8440000000e+01 
          7.6000000000e-01 -7.6000000000e-01 1.8440000000e+01 
          7.6000000000e-01 -7.6000000000e-01 2.0540000000e+01 
          7.6000000000e-01 7.6000000000e-01 2.0540000000e+01 
          7.6000000000e-01 0.0000000000e+00 2.1090000000e+01 
          7.6000000000e-01 7.6000000000e-01 2.2640000000e+01 
          7.6000000000e-01 -7.6000000000e-01 2.2640000000e+01 
          -7.6000000000e-01 7.6000000000e-01 1.6240000000e+01 
          -7.6000000000e-01 7.6000000000e-01 1.8440000000e+01 
          -0.0000000000e+00 7.6000000000e-01 1.6240000000e+01 
          -7.6000000000e-01 7.6000000000e-01 1.9440000000e+01 
          -7.6000000000e-01 7.6000000000e-01 2.1640000000e+01 
          -7.6000000000e-01 7.6000000000e-01 1.7340000000e+01 
          -0.0000000000e+00 7.6000000000e-01 1.7890000000e+01 
          -0.0000000000e+00 7.6000000000e-01 1.9440000000e+01 
          -7.6000000000e-01 7.6000000000e-01 2.0540000000e+01 
          0.0000000000e+00 7.6000000000e-01 2.1090000000e+01 
          -7.6000000000e-01 7.6000000000e-01 2.2640000000e+01 
          -0.0000000000e+00 5.2600000000e-01 2.3499000000e+01 
          3.9900000000e-01 4.0400000000e-01 2.3950000000e+01 
          -3.9900000000e-01 4.0400000000e-01 2.3950000000e+01 
          -7.6000000000e-01 -7.6000000000e-01 1.6240000000e+01 
          -7.6000000000e-01 -7.6000000000e-01 1.8440000000e+01 
          -7.6000000000e-01 -0.0000000000e+00 1.6240000000e+01 
          -7.6000000000e-01 -7.6000000000e-01 1.9440000000e+01 
          -7.6000000000e-01 -7.6000000000e-01 2.1640000000e+01 
          -7.6000000000e-01 -7.6000000000e-01 1.7340000000e+01 
          -7.6000000000e-01 0.0000000000e+00 1.7890000000e+01 
          -7.6000000000e-01 -0.0000000000e+00 1.9440000000e+01 
          -7.6000000000e-01 -7.6000000000e-01 2.0540000000e+01 
          -7.6000000000e-01 -0.0000000000e+00 2.1090000000e+01 
          -7.6000000000e-01 -7.6000000000e-01 2.2640000000e+01 
          0.0000000000e+00 -7.6000000000e-01 1.6240000000e+01 
          0.0000000000e+00 -7.6000000000e-01 1.7890000000e+01 
          0.0000000000e+00 -7.6000000000e-01 1.9440000000e+01 
          0.0000000000e+00 -7.6000000000e-01 2.1090000000e+01 
          0.0000000000e+00 -5.2600000000e-01 2.3499000000e+01 
          3.9900000000e-01 -4.0400000000e-01 2.3950000000e+01 
          -3.9900000000e-01 -4.0400000000e-01 2.3950000000e+01 
          -0.0000000000e+00 -3.3500000000e+00 2.1640000000e+01 
          -3.8000000000e-01 -2.0550000000e+00 2.2140000000e+01 
          -3.8000000000e-01 -2.0550000000e+00 2.1640000000e+01 
          0.0000000000e+00 3.3500000000e+00 2.1640000000e+01 
          -3.8000000000e-01 2.0550000000e+00 2.2140000000e+01 
          -3.8000000000e-01 2.0550000000e+00 2.1640000000e+01 
          3.8000000000e-01 2.0550000000e+00 2.2140000000e+01 
          3.8000000000e-01 2.0550000000e+00 2.1640000000e+01 
          3.8000000000e-01 -2.0550000000e+00 2.2140000000e+01 
          3.8000000000e-01 -2.0550000000e+00 2.1640000000e+01 
          -0.0000000000e+00 -3.3500000000e+00 1.8440000000e+01 
          -3.8000000000e-01 -2.0550000000e+00 1.8940000000e+01 
          -3.8000000000e-01 -2.0550000000e+00 1.8440000000e+01 
          -0.0000000000e+00 3.3500000000e+00 1.8440000000e+01 
          -3.8000000000e-01 2.0550000000e+00 1.8940000000e+01 
          -3.8000000000e-01 2.0550000000e+00 1.8440000000e+01 
          3.8000000000e-01 2.0550000000e+00 1.8940000000e+01 
          3.8000000000e-01 2.0550000000e+00 1.8440000000e+01 
          3.8000000000e-01 -2.0550000000e+00 1.8940000000e+01 
          3.8000000000e-01 -2.0550000000e+00 1.8440000000e+01 
          -0.0000000000e+00 -3.3500000000e+00 1.5240000000e+01 
          -3.8000000000e-01 -2.0550000000e+00 1.5740000000e+01 
          -3.8000000000e-01 -2.0550000000e+00 1.5240000000e+01 
          -0.0000000000e+00 3.3500000000e+00 1.5240000000e+01 
          -3.8000000000e-01 2.0550000000e+00 1.5740000000e+01 
          -3.8000000000e-01 2.0550000000e+00 1.5240000000e+01 
          3.8000000000e-01 2.0550000000e+00 1.5740000000e+01 
          3.8000000000e-01 2.0550000000e+00 1.5240000000e+01 
          3.8000000000e-01 -2.0550000000e+00 1.5740000000e+01 
          3.8000000000e-01 -2.0550000000e+00 1.5240000000e+01 
          -5.2400000000e-01 0.0000000000e+00 2.3496000000e+01 
          5.2400000000e-01 0.0000000000e+00 2.3496000000e+01 
          4.0000000000e-02 5.0000000000e-02 2.5250000000e+01 
          -4.0000000000e-02 5.0000000000e-02 2.5250000000e+01 
          -4.0000000000e-02 -5.0000000000e-02 2.5250000000e+01 
          4.0000000000e-02 -5.0000000000e-02 2.5250000000e+01 
          1.3410000000e+00 0.0000000000e+00 6.3450000000e+00 
          1.2090000000e+00 0.0000000000e+00 8.3600000000e+00 
          1.0900000000e+00 -0.0000000000e+00 1.0180000000e+01 
          -0.0000000000e+00 1.3410000000e+00 6.3450000000e+00 
          0.0000000000e+00 1.2090000000e+00 8.3600000000e+00 
          -0.0000000000e+00 1.0900000000e+00 1.0180000000e+01 
          -1.3410000000e+00 0.0000000000e+00 6.3450000000e+00 
          -1.2090000000e+00 0.0000000000e+00 8.3600000000e+00 
          -1.0900000000e+00 -0.0000000000e+00 1.0180000000e+01 
          -0.0000000000e+00 -1.3410000000e+00 6.3450000000e+00 
          0.0000000000e+00 -1.2090000000e+00 8.3600000000e+00 
          0.0000000000e+00 -1.0900000000e+00 1.0180000000e+01 
          9.8300000000e-01 0.0000000000e+00 1.1820000000e+01 
          8.8700000000e-01 0.0000000000e+00 1.3296000000e+01 
          8.0000000000e-01 -0.0000000000e+00 1.4633000000e+01 
          0.0000000000e+00 9.8300000000e-01 1.1820000000e+01 
          -0.0000000000e+00 8.8700000000e-01 1.3296000000e+01 
          0.0000000000e+00 8.0000000000e-01 1.4633000000e+01 
          -9.8300000000e-01 0.0000000000e+00 1.1820000000e+01 
          -8.8700000000e-01 0.0000000000e+00 1.3296000000e+01 
          -8.0000000000e-01 0.0000000000e+00 1.4633000000e+01 
          0.0000000000e+00 -9.8300000000e-01 1.1820000000e+01 
          0.0000000000e+00 -8.8700000000e-01 1.3296000000e+01 
          0.0000000000e+00 -8.0000000000e-01 1.4633000000e+01 
        </DataArray>
      </Points>
      <Cells>
        <DataArray type="Int64" Name="connectivity" format="ascii">
          0
          1
          2
          3
          4
          5
          6
          7
          8
          9
          10
          11
          12
          13
          14
          15
          16
          17
          18
          19
          20
          21
          22
          23
          24
          25
          26
          27
          28
          29
          30
          31
          32
          33
          34
          35
          36
          37
          38
          39
          40
          41
          42
          43
          44
          45
          46
          47
          48
          49
          50
          51
          52
          53
          54
          55
          56
          57
          58
          59
          60
          61
          62
          63
          64
          65
          66
          67
          68
          69
          70
          71
          72
          73
          74
          75
          76
          77
          78
          79
          80
          81
          82
          83
          84
          85
          86
          87
          88
          89
          90
          91
          92
          93
          94
          95
          96
          97
          98
          99
          100
          101
          102
          103
          104
          105
          106
          107
          108
          109
          110
          111
          112
          113
          114
          115
          116
          117
          118
          119
          120
          121
          122
          123
          124
          125
          126
          127
          128
          129
          130
          131
          132
          133
          134
          135
          136
          137
          138
          139
          140
          141
          142
          143
          144
          145
          146
          147
          148
          149
          150
          151
          152
          153
          154
          155
          156
          157
        </DataArray>
        <DataArray type="Int64" Name="offsets" format="ascii">
          158
        </DataArray>
        <DataArray type="Int64" Name="types" format="ascii">
          2
        </DataArray>
      </Cells>
      <PointData>
        <DataArray type="Int64" Name="NodeTag" format="ascii">
          1
          2
          3
          4
          5
          6
          7
          8
          9
          10
          11
          12
          13
          14
          15
          16
          17
          18
          19
          20
          21
          22
          23
          24
          25
          26
          27
          28
          29
          30
          31
          32
          33
          34
          35
          36
          37
          38
          39
          40
          41
          42
          43
          44
          45
          46
          47
          48
          49
          50
          51
          52
          53
          54
          55
          56
          57
          58
          59
          60
          61
          62
          63
          64
          65
          66
          67
          68
          69
          70
          71
          72
          73
          74
          75
          76
          77
          78
          79
          80
          81
          82
          83
          84
          85
          86
          87
          88
          89
          90
          91
          92
          93
          94
          95
          96
          97
          98
          99
          100
          101
          102
          103
          104
          105
          106
          107
          108
          109
          110
          111
          112
          113
          114
          115
          116
          117
          118
          119
          120
          121
          122
          123
          124
          125
          126
          127
          128
          129
          130
          131
          132
          133
          134
          135
          136
          137
          138
          139
          140
          141
          142
          143
          144
          145
          146
          147
          148
          149
          150
          151
          152
          153
          154
          155
          156
          157
          158
        </DataArray>
        <DataArray type="Float64" Name="Displacement" NumberOfComponents="3" format="ascii">
          0.0000000000e+00 0.0000000000e+00 0.0000000000e+00 
          -5.3091040088e-06 4.8226068587e-05 -4.4358879072e-06 
          0.0000000000e+00 0.0000000000e+00 0.0000000000e+00 
          4.3357395956e-05 4.9684083843e-05 -2.7191287462e-05 
          -4.4067516021e-05 4.9280903439e-05 -3.1830628809e-05 
          -6.1423087218e-05 -1.4715866511e-05 -1.9917466230e-05 
          -3.9158242958e-05 8.4867016955e-05 -2.5824268773e-05 
          -8.9366966533e-05 -1.4690368745e-05 -2.3572201149e-05 
          -9.6084780303e-06 8.4814675058e-05 -2.0232822950e-05 
          -4.2716816195e-05 -5.4853482072e-06 -4.4731649466e-06 
          0.0000000000e+00 0.0000000000e+00 0.0000000000e+00 
          -4.3670492756e-05 -4.9621735713e-05 -2.7267831480e-05 
          1.0216415738e-05 -5.2717940996e-05 -1.6775709294e-05 
          -8.9415103957e-05 -4.8054268745e-05 -2.9025388679e-05 
          1.0184086035e-05 -8.4646049291e-05 -2.0311479492e-05 
          5.5397130039e-06 -4.8170430910e-05 -4.5277211075e-06 
          0.0000000000e+00 0.0000000000e+00 0.0000000000e+00 
          4.3745893497e-05 -4.9231338994e-05 -3.1960275812e-05 
          6.1483264552e-05 1.4838219508e-05 -2.0002906777e-05 
          3.9396822154e-05 -8.4703504989e-05 -2.5877088796e-05 
          8.9803333717e-05 1.4808841334e-05 -2.3683140193e-05 
          4.2413238369e-05 5.4779962355e-06 -4.5036797563e-06 
          -9.6527142578e-06 5.2663372215e-05 -1.6664367014e-05 
          8.9843681236e-05 4.8114569325e-05 -2.9153501540e-05 
          -5.6895796547e-05 8.7199601070e-05 -4.2179761035e-05 
          7.0491375097e-05 7.2792067996e-05 -3.6111176024e-05 
          7.8520680929e-05 1.0842956082e-04 -4.5523471027e-05 
          -7.8237711259e-05 1.0894655692e-04 -5.2038494870e-05 
          9.1565836326e-05 1.3105316351e-04 -5.2402273094e-05 
          -8.3379274355e-05 1.3965490326e-04 -5.8041898250e-05 
          -7.1125994597e-05 -7.2955955676e-05 -3.6105241813e-05 
          -7.8966663830e-05 -1.0874312760e-04 -4.5476122916e-05 
          -9.1560788008e-05 -1.3119342776e-04 -5.2357350765e-05 
          5.6258468619e-05 -8.7289985114e-05 -4.2213335209e-05 
          7.7803255416e-05 -1.0909197466e-04 -5.2002020882e-05 
          8.3414085922e-05 -1.3994718434e-04 -5.7987504977e-05 
          -9.2098321869e-05 1.6107036029e-04 -6.4926807456e-05 
          9.5908359522e-05 1.5832572641e-04 -6.1186125586e-05 
          -9.6729308938e-05 1.8390821894e-04 -6.9554807469e-05 
          1.0285373896e-04 1.7657054996e-04 -6.8508222671e-05 
          -1.0407221053e-04 1.9566778155e-04 -7.3524209396e-05 
          1.0560441378e-04 1.9682060113e-04 -7.5490417866e-05 
          -9.5633538427e-05 -1.5851778800e-04 -6.1178153796e-05 
          -1.0263408600e-04 -1.7661362418e-04 -6.8500990432e-05 
          -1.0539142693e-04 -1.9685570531e-04 -7.5476888512e-05 
          9.2339547599e-05 -1.6117301099e-04 -6.4900728084e-05 
          9.7003335866e-05 -1.8401321864e-04 -6.9547759872e-05 
          1.0417090684e-04 -1.9570220158e-04 -7.3530889924e-05 
          1.2060732170e-04 2.0453574847e-04 -8.2540314427e-05 
          -1.2083214092e-04 2.0568744868e-04 -7.9148621867e-05 
          1.4761163708e-06 2.0570367633e-04 -7.7332829867e-05 
          -1.3153502542e-04 2.3259096626e-04 -8.4945220359e-05 
          1.4922501403e-04 2.1287858399e-04 -8.8457676780e-05 
          -4.3620005908e-07 2.2793566417e-04 -9.8946544009e-05 
          1.6853976344e-04 2.3468561830e-04 -1.0453830486e-04 
          -1.6913236933e-04 2.3690697666e-04 -9.4841313914e-05 
          2.0779998972e-04 2.3794994000e-04 -1.1510071366e-04 
          -2.0699864732e-04 2.3541380383e-04 -1.0025663396e-04 
          1.6370378366e-06 2.3615331028e-04 -9.7094306543e-05 
          -1.5452831203e-04 2.3093077113e-04 -9.2542988586e-05 
          1.5494026002e-04 2.3307257373e-04 -9.9222502899e-05 
          1.9537251693e-04 2.3325501507e-04 -1.0906486898e-04 
          -1.8532518450e-04 2.4561092803e-04 -9.6632791094e-05 
          3.5300609635e-06 2.3849793957e-04 -1.1053631792e-04 
          -2.2247892437e-04 2.3240469449e-04 -1.0101774638e-04 
          2.2339087992e-04 2.2967665359e-04 -1.1776769177e-04 
          -1.2049206427e-04 -2.0467842808e-04 -8.2517681895e-05 
          -1.5490020716e-04 -2.3354942560e-04 -9.9097857854e-05 
          -1.2062169938e-04 6.2948583138e-07 -7.8160738140e-05 
          -1.6843467338e-04 -2.3519973988e-04 -1.0435743334e-04 
          -2.0712792131e-04 -2.3870487811e-04 -1.1486327899e-04 
          -1.4897190417e-04 -2.1282811585e-04 -8.8401297702e-05 
          -1.4692887180e-04 2.6018620800e-06 -9.7272916714e-05 
          -1.6882939623e-04 -1.5586739575e-07 -9.7930274041e-05 
          -1.9504897108e-04 -2.3397895162e-04 -1.0882777960e-04 
          -1.9820289195e-04 9.9065483576e-07 -1.0861923770e-04 
          -2.2273770305e-04 -2.3057182655e-04 -1.1755675111e-04 
          -1.6293769588e-04 8.2421501224e-06 -1.0795320514e-04 
          -1.3224842563e-04 1.1105286666e-04 -1.0845881528e-04 
          -1.3215307328e-04 -1.1256734113e-04 -1.1247704493e-04 
          1.2094437393e-04 -2.0581206602e-04 -7.9191054332e-05 
          1.5452173151e-04 -2.3119348791e-04 -9.2647088646e-05 
          -1.1946249145e-07 -2.0582322890e-04 -7.7255275230e-05 
          1.6916759610e-04 -2.3736197574e-04 -9.4881679166e-05 
          2.0753102051e-04 -2.3628910183e-04 -1.0027643053e-04 
          1.3149413447e-04 -2.3300016935e-04 -8.5027799202e-05 
          -4.4867017596e-06 -2.2819690515e-04 -9.9176033132e-05 
          6.7757018214e-07 -2.3664163654e-04 -9.7012641947e-05 
          1.8576366862e-04 -2.4618622384e-04 -9.6624379606e-05 
          -1.3021153007e-06 -2.3922502526e-04 -1.1032670216e-04 
          2.2308287379e-04 -2.3354883667e-04 -1.0111609352e-04 
          1.2074137464e-04 -1.2304426286e-06 -7.8175849205e-05 
          1.4697966606e-04 -1.1312747007e-05 -9.7444318561e-05 
          1.6890770172e-04 -2.1799470527e-06 -9.8076048978e-05 
          1.9870337487e-04 -3.9371750933e-06 -1.0865187847e-04 
          1.6358253266e-04 -9.7723690347e-06 -1.0799777113e-04 
          1.3276429442e-04 1.1126480773e-04 -1.1263111637e-04 
          1.3289724654e-04 -1.1236260429e-04 -1.0848758053e-04 
          1.0138064387e-03 2.6018707104e-06 -1.2995186833e-04 
          6.7340470616e-04 -1.0223581159e-04 -1.1059031656e-04 
          6.6168151789e-04 -1.0233532741e-04 -1.1075232254e-04 
          -1.0123044289e-03 -3.3222857204e-06 -1.2909773216e-04 
          -6.6842106827e-04 -1.0168237937e-04 -1.2402729632e-04 
          -6.5777380862e-04 -1.0739689311e-04 -1.2414922499e-04 
          -6.6841512550e-04 1.0247583975e-04 -1.1014538066e-04 
          -6.5779087377e-04 1.0236808995e-04 -1.1031030298e-04 
          6.7340602025e-04 9.9650628323e-05 -1.2442413964e-04 
          6.6165198254e-04 1.0586116912e-04 -1.2455031752e-04 
          9.5714078527e-04 2.7392752677e-06 -1.1942747438e-04 
          6.0055097985e-04 -1.0587916515e-04 -1.1086920001e-04 
          6.0702193234e-04 -9.9563258212e-05 -1.1103571998e-04 
          -9.5773243796e-04 -3.0390336144e-06 -1.1891952107e-04 
          -6.0198206973e-04 -1.0321032318e-04 -1.0166556642e-04 
          -6.0802742282e-04 -1.0352580756e-04 -1.0178790166e-04 
          -6.0200603935e-04 1.0515181033e-04 -1.1059796141e-04 
          -6.0804073580e-04 9.9075916696e-05 -1.1076216213e-04 
          6.0052594727e-04 1.0311558802e-04 -1.0188009959e-04 
          6.0698234484e-04 1.0336853414e-04 -1.0199988282e-04 
          7.9575283220e-04 2.4759422078e-06 -9.8100531121e-05 
          4.5654166644e-04 -9.9824363768e-05 -9.7263070498e-05 
          4.7251244397e-04 -9.0314407686e-05 -9.7435514434e-05 
          -7.9549472595e-04 -2.4302826397e-06 -9.7654101975e-05 
          -4.5532906760e-04 -9.6916424255e-05 -7.2694325452e-05 
          -4.7069399609e-04 -9.4044857737e-05 -7.2811124018e-05 
          -4.5535263947e-04 1.0005443766e-04 -9.7045389333e-05 
          -4.7069810207e-04 9.0806412482e-05 -9.7215987443e-05 
          4.5652414580e-04 9.6534763539e-05 -7.2782995217e-05 
          4.7250295481e-04 9.3589467937e-05 -7.2897570688e-05 
          -5.2992280117e-06 -1.5493964568e-04 -1.0919081144e-04 
          -3.2131973091e-05 1.5371990322e-04 -1.1956808886e-04 
          -1.3964664355e-04 1.1102311652e-04 -1.0929351856e-04 
          -1.3936970417e-04 -1.1304857225e-04 -1.1217856142e-04 
          1.4033270491e-04 -1.1270296738e-04 -1.0911682937e-04 
          1.4005575240e-04 1.1136178539e-04 -1.1233944478e-04 
          -4.1728639793e-06 6.5811935707e-05 -3.0730677599e-05 
          -9.2017994541e-06 9.5428147840e-05 -4.9630978317e-05 
          -4.4875258491e-06 1.2315926206e-04 -5.0290935354e-05 
          -5.5849663214e-05 -3.8444514016e-06 -3.0803240095e-05 
          -7.2940506001e-05 -8.3585488411e-06 -4.9447547464e-05 
          -8.4188463726e-05 -4.5827081447e-06 -5.0478860693e-05 
          4.0359308682e-06 -6.5854799487e-05 -3.0837942534e-05 
          9.1550645901e-06 -9.5616853223e-05 -4.9680819038e-05 
          5.0818592946e-06 -1.2338805989e-04 -5.0196046924e-05 
          5.5319700235e-05 3.6751410289e-06 -3.0819453947e-05 
          7.2374646888e-05 8.1658602480e-06 -4.9463629463e-05 
          8.3990483272e-05 4.4428153112e-06 -5.0490743282e-05 
          -8.9698077882e-07 1.4879918436e-04 -6.1562614825e-05 
          -2.2184423421e-06 1.7142573218e-04 -6.5149753038e-05 
          -2.0103985200e-06 1.8975235684e-04 -7.4909567645e-05 
          -9.1477738469e-05 -1.4784248386e-06 -6.1182886971e-05 
          -9.7455990182e-05 -7.9742213644e-07 -6.5763100267e-05 
          -1.0278998226e-04 5.4023783979e-07 -7.3476779864e-05 
          8.3219625240e-07 -1.4898089801e-04 -6.1591415440e-05 
          1.8927046775e-07 -1.7153216922e-04 -6.4941051981e-05 
          -7.4279184808e-07 -1.8979886570e-04 -7.4731445650e-05 
          9.1638766117e-05 1.5802344672e-06 -6.1174211238e-05 
          9.7718184664e-05 -1.1699657826e-06 -6.5665071932e-05 
          1.0299122050e-04 -3.9213739710e-06 -7.3212377150e-05 
        </DataArray>
        <DataArray type="Float64" Name="Reaction" NumberOfComponents="3" format="ascii">
          -7.4637896697e+02 -1.2391353252e+02 4.4728564319e+03 
          1.6166293618e+00 -4.9048204150e+00 1.7135110013e-02 
          1.2745046417e+01 -8.5065419242e+02 5.4864910606e+03 
          -4.9062930226e+01 -8.0742532615e+00 4.6244268514e-02 
          3.5259849251e+01 -8.4359166786e+00 6.2354357137e-02 
          -2.9123623162e+01 2.9576091522e+01 -7.1665046768e-03 
          1.8699925351e+01 3.1980506153e+01 -9.0269104232e-04 
          -5.5235379906e-01 2.2631126403e+01 5.4910016453e-02 
          1.2861899056e+01 2.3720502444e+01 5.8552478497e-02 
          2.1900871934e+01 -9.7084404660e-03 5.2615523020e-03 
          7.4214450847e+02 1.1806819275e+02 4.4867178755e+03 
          3.4967210493e+01 9.7114249961e+00 4.5206875051e-02 
          -8.9289631765e-02 1.4646360057e+01 -5.3454096776e-02 
          -1.4416038399e+00 -2.4490176327e+01 -6.4310554648e-02 
          -1.3463490496e+00 -1.9771818835e+01 5.5856145554e-02 
          1.1124881151e+00 5.6565073531e+00 1.6898156128e-02 
          -1.3166678238e+01 8.5410033335e+02 5.5056011916e+03 
          -4.9527072566e+01 9.1800705796e+00 6.3364030507e-02 
          2.7224717701e+01 -3.1228645799e+01 -5.9685243095e-03 
          -1.9162473246e+01 -2.6864670041e+01 -3.6441775545e-03 
          9.6900433510e+00 -2.3989914801e+01 5.5342134475e-02 
          -3.0559154678e+01 -2.6144380563e-01 6.6399684237e-03 
          1.5117929917e+01 -1.4275525865e+01 -5.3513813145e-02 
          1.3381822505e+01 2.2877918902e+01 -6.4494994312e-02 
          -2.5448850602e+01 1.1773324394e+01 9.8230197303e-03 
          1.8646996655e+01 1.1315670744e+01 5.5482277656e-03 
          3.2236006516e+01 -7.9501482719e+00 6.7368879770e-03 
          -3.5792182793e+01 -6.8966600415e+00 -1.5542758202e-03 
          -1.0551731263e-01 -1.3049134916e+01 3.8016261809e-03 
          5.1695161729e+00 -1.3498518811e+01 1.0908711750e-02 
          -2.4991056418e+01 -1.3105821773e+01 6.6946904503e-03 
          -3.6593517303e+01 5.2194084716e+00 8.5530393795e-03 
          3.9939903547e+00 1.3250526530e+01 4.2662794067e-03 
          1.8973360175e+01 -1.2125132521e+01 9.5142157849e-03 
          3.1802656135e+01 6.2239096177e+00 -2.2957582421e-03 
          -1.0707455697e+00 1.1302669736e+01 9.8075898838e-03 
          3.2577733032e+01 1.6857788265e+00 2.3771293857e-03 
          -2.6483419461e+01 8.4444074268e-01 9.8831426477e-04 
          2.0948561597e+01 1.3338741981e-01 3.9980543979e-03 
          -1.7381289958e+01 -1.2146001472e-01 1.7847565233e-02 
          6.0776815325e+00 -1.5916084978e+01 -7.9696205147e-01 
          1.2133789607e+00 -8.1926588422e+00 -8.2544141210e-01 
          3.1583124583e+01 -1.2489376971e+00 8.7816660931e-03 
          1.9098194971e+01 5.2919996444e-01 -4.7515773660e-03 
          -1.6698262187e+00 8.9143874724e+00 -8.1072525655e-01 
          -2.7543470763e+01 -1.2494201968e+00 4.8524358472e-03 
          -1.9282525681e+01 1.2534376092e-01 -2.8665332693e-04 
          -6.6334091596e+00 1.6443397508e+01 -7.7916425770e-01 
          8.7145254294e+00 -9.4909989174e+00 6.8653330820e-01 
          2.1767058508e-01 -1.1170814246e+01 6.8897883612e-01 
          -7.3343405935e-01 -1.5210671907e+01 -1.4760751151e-01 
          1.1980236905e+01 -1.0930855231e+01 -3.7621564471e-01 
          -7.1387939696e+00 -1.1624162656e+01 -3.2372962639e-01 
          -3.0556109074e-01 -5.0597230186e+00 -1.2410055342e-01 
          -1.7461027650e+01 3.8355536840e+00 1.0573369420e+00 
          2.2225024403e+01 5.4239863020e-01 1.0707706030e+00 
          2.3592708847e+00 -7.2821480648e+00 -1.2162414336e+00 
          1.4467422806e+01 -1.5560702425e+01 -1.1702619851e+00 
          1.0382069426e+00 1.2096095557e+00 -2.2301326822e-01 
          4.3463127390e+01 -1.4136282949e+01 -7.9611699862e-01 
          -3.3791257599e+01 -3.6374143843e+00 -8.2029116101e-01 
          -8.7902771636e+00 -5.0001891408e+00 -3.8609513378e-01 
          1.3792444439e+01 -6.8394799778e-01 -4.8649880606e-01 
          2.2928049263e+00 -3.2223607352e+00 -2.1797921159e-01 
          2.1313857169e+00 -1.8784408647e+01 9.9010356821e-01 
          1.0114218303e+01 -2.1207145153e+01 1.0863259056e+00 
          -8.5178821823e+00 1.0123139976e+01 6.8877553308e-01 
          3.0685950013e+01 3.2577523870e+00 -8.8694306822e-01 
          -2.8518069060e+00 -3.5130518214e-01 -1.1682520527e-01 
          1.5272407284e+01 -3.6015419453e+00 1.0699801223e+00 
          -5.5723160686e-01 8.6241797541e+00 -1.2197496252e+00 
          7.0005976007e+00 1.2668668384e+01 -2.8266633668e-01 
          8.4499453932e+00 -2.0724967976e+00 -1.2842520779e-01 
          2.4619197037e+01 -6.0681839649e-01 8.1275203878e-02 
          9.1527374231e+00 4.3519879725e+00 -4.3641472427e-01 
          4.3619303144e+00 -9.8052571080e-01 4.6639596495e-02 
          -8.8192001580e+00 2.0702168474e+01 1.2065186162e+00 
          -6.2647944874e+00 -3.8476867069e+00 -5.2768666999e-02 
          -5.2761012564e+00 -7.7159801268e+00 1.2481182089e+00 
          -7.3431673457e+00 1.1818367308e+01 8.4562472272e-01 
          1.4325376620e-02 1.1632184642e+01 6.8673002721e-01 
          -4.5236536379e+01 1.5410092471e+01 -8.1283306745e-01 
          3.8048773191e-01 1.6141283112e+01 -1.4745896113e-01 
          -2.3755634408e+01 1.2631798394e-01 1.0578678115e+00 
          -1.0860162491e+01 1.4804771082e+01 -1.1683176429e+00 
          -1.2029756687e+01 1.0420503166e+01 -3.4854813013e-01 
          -3.2735610925e-01 5.2192453318e+00 -1.2466286984e-01 
          1.5224805393e+00 -7.5337015198e-01 -2.2284531788e-01 
          -1.3527523973e+01 2.1764380978e+00 -4.4589910429e-01 
          1.3013843374e+00 2.9596433350e+00 -2.1805290640e-01 
          -1.1548964030e-02 1.9340505033e+01 8.5744812069e-01 
          2.9524513612e+00 -1.7492558603e+00 -1.1730598681e-01 
          -9.1699748791e+00 -1.8085660438e+00 -1.2587149745e-01 
          -2.6856349632e+01 -5.2745512955e-01 8.1615396418e-02 
          -3.7968234379e+00 4.0162920882e-01 4.0594475429e-02 
          6.7211137115e+00 3.8251557800e+00 -5.0243134360e-02 
          8.2829869967e+00 -1.1777608121e+01 9.9823748790e-01 
          6.6464200618e+00 7.6773231363e+00 1.4336385461e+00 
          5.9712863303e+00 -4.5443009232e+00 -8.3332752202e-01 
          1.1137882672e+01 1.8550138509e+00 4.8095036658e-01 
          1.1842672013e+01 3.5797728687e+00 -8.0150630451e-03 
          3.5147730548e+00 4.2828028339e+00 -7.6768967938e-01 
          -1.3336585482e+01 1.2615416768e+01 4.4499971180e-01 
          -1.2398569562e+01 9.1207725259e+00 -6.0953504363e-03 
          -1.3955356765e+01 -3.4903287897e+00 4.4489277693e-01 
          -1.1240963281e+01 -4.4252312908e+00 -5.9021010717e-03 
          1.0977160990e+01 -1.0376918483e+01 4.8092320598e-01 
          1.3149954675e+01 -7.9356981283e+00 -8.1821076331e-03 
          -2.3302044542e+01 -4.7238959218e+00 -9.0202787933e-01 
          9.9720752751e+00 6.5248980829e+00 5.1007207383e-01 
          6.6105404984e+00 6.8985342570e+00 -3.0635702805e-03 
          1.7833779159e+01 4.2583787373e+00 -8.9539873015e-01 
          -1.0744997913e+01 1.4303565821e+01 5.0450379209e-01 
          -6.1982728299e+00 8.9002788649e+00 -1.6684250858e-03 
          -1.0508755865e+01 -5.2557108636e+00 5.0474382706e-01 
          -4.5548644207e+00 -5.6912074554e+00 -1.8185267424e-03 
          1.0332318736e+01 -1.5084188625e+01 5.0988006401e-01 
          8.1403445417e+00 -1.0552060153e+01 -2.9292944579e-03 
          -8.5078181593e+00 -4.4754410549e+00 -9.0271767863e-01 
          4.7208964058e+00 3.4691766543e+00 5.0682395620e-01 
          -7.9793474035e-01 2.6352752821e+00 -7.1749392605e-03 
          9.8182930532e+00 5.0374604883e+00 -8.9782252933e-01 
          -6.2848862462e+00 8.7754902842e+00 5.0509911791e-01 
          -2.1568024207e+00 4.9237336305e+00 -6.9262669789e-03 
          -5.0183773545e+00 -3.4340321003e+00 5.0542304377e-01 
          -1.0710822920e-01 -2.6461757464e+00 -7.1851904342e-03 
          6.0578664807e+00 -8.1245876527e+00 5.0640854693e-01 
          1.2434130792e+00 -4.1355116982e+00 -6.9116837796e-03 
          -1.2495733646e+01 1.0318238000e+01 5.0217647328e-02 
          -6.8678455182e+00 -1.0439098478e+01 7.1547099044e-02 
          1.0063122226e+02 4.9461338243e-01 4.6416105616e-01 
          1.5459723446e+01 8.6951821678e+01 4.6740069095e-01 
          -9.7894989280e+01 -6.2428870613e-01 5.5332405034e-01 
          -1.2722867715e+01 -8.7120139970e+01 5.4002214855e-01 
          -6.0651554632e-02 1.5586662256e+00 -1.9206472967e-02 
          -2.2978072891e-01 1.4146092346e-01 -2.1135605610e-02 
          1.0616571861e-01 -3.0351364094e+00 -1.5303353894e-02 
          -2.1937669985e+00 -7.9414698049e-02 -5.0393236695e-02 
          -8.1391266495e+00 -1.0154937280e-01 -8.3639989009e-02 
          -3.5397684178e+00 3.8720348472e-02 -1.2686171720e-01 
          1.0053086386e-01 -1.6622580267e+00 -1.9237158153e-02 
          3.0682476746e-01 -5.0317825680e-01 -2.1185925651e-02 
          1.3642290542e-01 2.6958891660e+00 -1.5327186958e-02 
          6.8271912099e-01 5.5453637312e-02 -5.0081039699e-02 
          6.8094393985e+00 1.0166765197e-01 -8.3242230068e-02 
          3.7089607049e+00 -2.4692336561e-02 -1.2825995833e-01 
          2.1034981598e-01 -1.0403329863e+00 -2.0591703802e-02 
          -5.2933440458e-01 5.2703656451e-01 -3.8610332524e-02 
          2.8873194055e-01 -1.2847678183e+00 -6.0811708154e-02 
          6.2074096758e+00 1.1360655906e-01 -1.7917679717e-01 
          7.8307815971e+00 -3.2090354560e-01 -2.2160252302e-01 
          2.9119362741e+00 8.4262237407e-01 -2.7031948297e-01 
          -2.0011053526e-01 9.4196084607e-01 -2.0644781991e-02 
          -5.1669197386e-01 -4.2706611396e-01 -3.8555811080e-02 
          -8.0660363934e-02 1.3877196809e+00 -6.0769520536e-02 
          -4.8275599930e+00 1.2123120188e-01 -1.7787189817e-01 
          -6.9197176591e+00 -4.6267249204e-01 -2.2272740799e-01 
          -2.7589264581e+00 3.9315231188e-01 -2.6957738449e-01 
        </DataArray>
        <DataArray type="Float64" Name="UnbalancedLoad" NumberOfComponents="3" format="ascii">
          0.0000000000e+00 0.0000000000e+00 -3.7372726471e+02 
          0.0000000000e+00 0.0000000000e+00 -3.8295856594e+02 
          0.0000000000e+00 0.0000000000e+00 -3.7371271099e+02 
          0.0000000000e+00 0.0000000000e+00 -6.0342256323e+02 
          0.0000000000e+00 0.0000000000e+00 -6.0341337000e+02 
          0.0000000000e+00 0.0000000000e+00 -4.0829808733e+02 
          0.0000000000e+00 0.0000000000e+00 -4.0835311569e+02 
          0.0000000000e+00 0.0000000000e+00 -3.0550188804e+02 
          0.0000000000e+00 0.0000000000e+00 -3.0554772350e+02 
          0.0000000000e+00 0.0000000000e+00 -3.8294401190e+02 
          0.0000000000e+00 0.0000000000e+00 -3.7372726471e+02 
          0.0000000000e+00 0.0000000000e+00 -6.0342256323e+02 
          0.0000000000e+00 0.0000000000e+00 -4.0835311569e+02 
          0.0000000000e+00 0.0000000000e+00 -4.0835311569e+02 
          0.0000000000e+00 0.0000000000e+00 -3.0554772350e+02 
          0.0000000000e+00 0.0000000000e+00 -3.8294401190e+02 
          0.0000000000e+00 0.0000000000e+00 -3.7372726471e+02 
          0.0000000000e+00 0.0000000000e+00 -6.0342256323e+02 
          0.0000000000e+00 0.0000000000e+00 -4.0835311569e+02 
          0.0000000000e+00 0.0000000000e+00 -4.0835311569e+02 
          0.0000000000e+00 0.0000000000e+00 -3.0554772350e+02 
          0.0000000000e+00 0.0000000000e+00 -3.8294401190e+02 
          0.0000000000e+00 0.0000000000e+00 -4.0835311569e+02 
          0.0000000000e+00 0.0000000000e+00 -4.0835311569e+02 
          0.0000000000e+00 0.0000000000e+00 -2.0356256445e+02 
          0.0000000000e+00 0.0000000000e+00 -2.0356256445e+02 
          0.0000000000e+00 0.0000000000e+00 -1.8386058890e+02 
          0.0000000000e+00 0.0000000000e+00 -1.8386058890e+02 
          0.0000000000e+00 0.0000000000e+00 -1.5135289753e+02 
          0.0000000000e+00 0.0000000000e+00 -1.5135289753e+02 
          0.0000000000e+00 0.0000000000e+00 -2.0356256445e+02 
          0.0000000000e+00 0.0000000000e+00 -1.8386058890e+02 
          0.0000000000e+00 0.0000000000e+00 -1.5135289753e+02 
          0.0000000000e+00 0.0000000000e+00 -2.0356256445e+02 
          0.0000000000e+00 0.0000000000e+00 -1.8386058890e+02 
          0.0000000000e+00 0.0000000000e+00 -1.5135289753e+02 
          0.0000000000e+00 0.0000000000e+00 -1.2187603856e+02 
          0.0000000000e+00 0.0000000000e+00 -1.2187603856e+02 
          0.0000000000e+00 0.0000000000e+00 -1.1026909946e+02 
          0.0000000000e+00 0.0000000000e+00 -1.1026909946e+02 
          0.0000000000e+00 0.0000000000e+00 -1.5026171515e+02 
          0.0000000000e+00 0.0000000000e+00 -1.5026171515e+02 
          0.0000000000e+00 0.0000000000e+00 -1.2187603856e+02 
          0.0000000000e+00 0.0000000000e+00 -1.1026909946e+02 
          0.0000000000e+00 0.0000000000e+00 -1.5026171515e+02 
          0.0000000000e+00 0.0000000000e+00 -1.2187603856e+02 
          0.0000000000e+00 0.0000000000e+00 -1.1026909946e+02 
          0.0000000000e+00 0.0000000000e+00 -1.5026171515e+02 
          0.0000000000e+00 0.0000000000e+00 -6.9310781196e+01 
          0.0000000000e+00 0.0000000000e+00 -6.9310781196e+01 
          0.0000000000e+00 0.0000000000e+00 -8.6659739851e+01 
          0.0000000000e+00 0.0000000000e+00 -7.1112768110e+01 
          0.0000000000e+00 0.0000000000e+00 -7.1112768110e+01 
          0.0000000000e+00 0.0000000000e+00 -3.9532179926e+01 
          0.0000000000e+00 0.0000000000e+00 -5.3297941740e+01 
          0.0000000000e+00 0.0000000000e+00 -5.3297941740e+01 
          0.0000000000e+00 0.0000000000e+00 -1.4162956411e+02 
          0.0000000000e+00 0.0000000000e+00 -1.4162956411e+02 
          0.0000000000e+00 0.0000000000e+00 -7.0646900395e+01 
          0.0000000000e+00 0.0000000000e+00 -1.2975846688e+02 
          0.0000000000e+00 0.0000000000e+00 -1.2975846688e+02 
          0.0000000000e+00 0.0000000000e+00 -7.1112768110e+01 
          0.0000000000e+00 0.0000000000e+00 -7.1112768110e+01 
          0.0000000000e+00 0.0000000000e+00 -3.9532179926e+01 
          0.0000000000e+00 0.0000000000e+00 -1.3550003162e+02 
          0.0000000000e+00 0.0000000000e+00 -1.3550003162e+02 
          0.0000000000e+00 0.0000000000e+00 -6.9310781196e+01 
          0.0000000000e+00 0.0000000000e+00 -1.2975846688e+02 
          0.0000000000e+00 0.0000000000e+00 -8.6659739851e+01 
          0.0000000000e+00 0.0000000000e+00 -5.3297941740e+01 
          0.0000000000e+00 0.0000000000e+00 -1.4162956411e+02 
          0.0000000000e+00 0.0000000000e+00 -7.1112768110e+01 
          0.0000000000e+00 0.0000000000e+00 -3.9532179926e+01 
          0.0000000000e+00 0.0000000000e+00 -7.0646900395e+01 
          0.0000000000e+00 0.0000000000e+00 -7.1112768110e+01 
          0.0000000000e+00 0.0000000000e+00 -3.9532179926e+01 
          0.0000000000e+00 0.0000000000e+00 -1.3550003162e+02 
          0.0000000000e+00 0.0000000000e+00 -3.7608473666e+01 
          0.0000000000e+00 0.0000000000e+00 -4.5445998681e+01 
          0.0000000000e+00 0.0000000000e+00 -4.5445998681e+01 
          0.0000000000e+00 0.0000000000e+00 -6.9310781196e+01 
          0.0000000000e+00 0.0000000000e+00 -1.2975846688e+02 
          0.0000000000e+00 0.0000000000e+00 -8.6659739851e+01 
          0.0000000000e+00 0.0000000000e+00 -5.3297941740e+01 
          0.0000000000e+00 0.0000000000e+00 -1.4162956411e+02 
          0.0000000000e+00 0.0000000000e+00 -7.1112768110e+01 
          0.0000000000e+00 0.0000000000e+00 -3.9532179926e+01 
          0.0000000000e+00 0.0000000000e+00 -7.0646900395e+01 
          0.0000000000e+00 0.0000000000e+00 -7.1112768110e+01 
          0.0000000000e+00 0.0000000000e+00 -3.9532179926e+01 
          0.0000000000e+00 0.0000000000e+00 -1.3550003162e+02 
          0.0000000000e+00 0.0000000000e+00 -8.6659739851e+01 
          0.0000000000e+00 0.0000000000e+00 -3.9532179926e+01 
          0.0000000000e+00 0.0000000000e+00 -7.0646900395e+01 
          0.0000000000e+00 0.0000000000e+00 -3.9532179926e+01 
          0.0000000000e+00 0.0000000000e+00 -3.7608473666e+01 
          0.0000000000e+00 0.0000000000e+00 -4.5445998681e+01 
          0.0000000000e+00 0.0000000000e+00 -4.5445998681e+01 
          0.0000000000e+00 0.0000000000e+00 -5.8759670338e+01 
          0.0000000000e+00 0.0000000000e+00 -5.8760102340e+01 
          0.0000000000e+00 0.0000000000e+00 -4.1709270658e+01 
          0.0000000000e+00 0.0000000000e+00 -5.8759670338e+01 
          0.0000000000e+00 0.0000000000e+00 -5.8760102340e+01 
          0.0000000000e+00 0.0000000000e+00 -4.1709270658e+01 
          0.0000000000e+00 0.0000000000e+00 -5.8760102340e+01 
          0.0000000000e+00 0.0000000000e+00 -4.1709270658e+01 
          0.0000000000e+00 0.0000000000e+00 -5.8760102340e+01 
          0.0000000000e+00 0.0000000000e+00 -4.1709270658e+01 
          0.0000000000e+00 0.0000000000e+00 -5.8759670338e+01 
          0.0000000000e+00 0.0000000000e+00 -5.8760102340e+01 
          0.0000000000e+00 0.0000000000e+00 -4.1709270658e+01 
          0.0000000000e+00 0.0000000000e+00 -5.8759670338e+01 
          0.0000000000e+00 0.0000000000e+00 -5.8760102340e+01 
          0.0000000000e+00 0.0000000000e+00 -4.1709270658e+01 
          0.0000000000e+00 0.0000000000e+00 -5.8760102340e+01 
          0.0000000000e+00 0.0000000000e+00 -4.1709270658e+01 
          0.0000000000e+00 0.0000000000e+00 -5.8760102340e+01 
          0.0000000000e+00 0.0000000000e+00 -4.1709270658e+01 
          0.0000000000e+00 0.0000000000e+00 -5.8759670338e+01 
          0.0000000000e+00 0.0000000000e+00 -5.8760102340e+01 
          0.0000000000e+00 0.0000000000e+00 -4.1709270658e+01 
          0.0000000000e+00 0.0000000000e+00 -5.8759670338e+01 
          0.0000000000e+00 0.0000000000e+00 -5.8760102340e+01 
          0.0000000000e+00 0.0000000000e+00 -4.1709270658e+01 
          0.0000000000e+00 0.0000000000e+00 -5.8760102340e+01 
          0.0000000000e+00 0.0000000000e+00 -4.1709270658e+01 
          0.0000000000e+00 0.0000000000e+00 -5.8760102340e+01 
          0.0000000000e+00 0.0000000000e+00 -4.1709270658e+01 
          0.0000000000e+00 0.0000000000e+00 -3.7698074478e+01 
          0.0000000000e+00 0.0000000000e+00 -3.7698074478e+01 
          0.0000000000e+00 0.0000000000e+00 -1.0305223191e+01 
          0.0000000000e+00 0.0000000000e+00 -1.0305223191e+01 
          0.0000000000e+00 0.0000000000e+00 -1.0305223191e+01 
          0.0000000000e+00 0.0000000000e+00 -1.0305223191e+01 
          0.0000000000e+00 0.0000000000e+00 -5.0142786138e+01 
          0.0000000000e+00 0.0000000000e+00 -4.5293418424e+01 
          0.0000000000e+00 0.0000000000e+00 -4.0834107501e+01 
          0.0000000000e+00 0.0000000000e+00 -5.0142786138e+01 
          0.0000000000e+00 0.0000000000e+00 -4.5293418424e+01 
          0.0000000000e+00 0.0000000000e+00 -4.0834107501e+01 
          0.0000000000e+00 0.0000000000e+00 -5.0142786138e+01 
          0.0000000000e+00 0.0000000000e+00 -4.5293418424e+01 
          0.0000000000e+00 0.0000000000e+00 -4.0834107501e+01 
          0.0000000000e+00 0.0000000000e+00 -5.0142786138e+01 
          0.0000000000e+00 0.0000000000e+00 -4.5293418424e+01 
          0.0000000000e+00 0.0000000000e+00 -4.0834107501e+01 
          0.0000000000e+00 0.0000000000e+00 -3.6820507388e+01 
          0.0000000000e+00 0.0000000000e+00 -3.3139069463e+01 
          0.0000000000e+00 0.0000000000e+00 -3.0039028850e+01 
          0.0000000000e+00 0.0000000000e+00 -3.6820507388e+01 
          0.0000000000e+00 0.0000000000e+00 -3.3139069463e+01 
          0.0000000000e+00 0.0000000000e+00 -3.0039028850e+01 
          0.0000000000e+00 0.0000000000e+00 -3.6820507388e+01 
          0.0000000000e+00 0.0000000000e+00 -3.3139069463e+01 
          0.0000000000e+00 0.0000000000e+00 -3.0039028850e+01 
          0.0000000000e+00 0.0000000000e+00 -3.6820507388e+01 
          0.0000000000e+00 0.0000000000e+00 -3.3139069463e+01 
          0.0000000000e+00 0.0000000000e+00 -3.0039028850e+01 
        </DataArray>
      </PointData>
      <CellData>
        <DataArray type="Int64" Name="ElementTag" format="ascii">
          0
        </DataArray>
      </CellData>
    </Piece>
  </UnstructuredGrid>
</VTKFile>
