<?xml version="1.0"?>
<VTKFile type="UnstructuredGrid" version="1.0" byte_order="LittleEndian" compressor="vtkZLibDataCompressor">
  <UnstructuredGrid>
    <Piece NumberOfPoints="158" NumberOfCells="1">
      <Points>
        <DataArray type="Float64" Name="Points" NumberOfComponents="3" format="ascii">
          1.7550000000e+00 -1.7550000000e+00 0.0000000000e+00 
          1.4140000000e+00 0.0000000000e+00 5.2300000000e+00 
          1.7550000000e+00 1.7550000000e+00 -0.0000000000e+00 
          1.4140000000e+00 -1.4140000000e+00 5.2300000000e+00 
          1.4140000000e+00 1.4140000000e+00 5.2300000000e+00 
          1.5840000000e+00 8.7800000000e-01 2.6150000000e+00 
          1.5840000000e+00 -8.7700000000e-01 2.6150000000e+00 
          1.5840000000e+00 1.5840000000e+00 2.6150000000e+00 
          1.5840000000e+00 -1.5840000000e+00 2.6150000000e+00 
          -0.0000000000e+00 1.4140000000e+00 5.2300000000e+00 
          -1.7550000000e+00 1.7550000000e+00 -0.0000000000e+00 
          -1.4140000000e+00 1.4140000000e+00 5.2300000000e+00 
          -8.7700000000e-01 1.5840000000e+00 2.6150000000e+00 
          8.7700000000e-01 1.5840000000e+00 2.6150000000e+00 
          -1.5840000000e+00 1.5840000000e+00 2.6150000000e+00 
          -1.4140000000e+00 -0.0000000000e+00 5.2300000000e+00 
          -1.7550000000e+00 -1.7550000000e+00 -0.0000000000e+00 
          -1.4140000000e+00 -1.4140000000e+00 5.2300000000e+00 
          -1.5840000000e+00 -8.7700000000e-01 2.6150000000e+00 
          -1.5840000000e+00 8.7700000000e-01 2.6150000000e+00 
          -1.5840000000e+00 -1.5840000000e+00 2.6150000000e+00 
          0.0000000000e+00 -1.4140000000e+00 5.2300000000e+00 
          8.7700000000e-01 -1.5840000000e+00 2.6150000000e+00 
          -8.7700000000e-01 -1.5840000000e+00 2.6150000000e+00 
          1.2750000000e+00 1.2750000000e+00 7.3500000000e+00 
          1.2750000000e+00 -1.2750000000e+00 7.3500000000e+00 
          1.1500000000e+00 -1.1500000000e+00 9.2700000000e+00 
          1.1500000000e+00 1.1500000000e+00 9.2700000000e+00 
          1.0370000000e+00 -1.0370000000e+00 1.1000000000e+01 
          1.0370000000e+00 1.0370000000e+00 1.1000000000e+01 
          -1.2750000000e+00 1.2750000000e+00 7.3500000000e+00 
          -1.1500000000e+00 1.1500000000e+00 9.2700000000e+00 
          -1.0370000000e+00 1.0370000000e+00 1.1000000000e+01 
          -1.2750000000e+00 -1.2750000000e+00 7.3500000000e+00 
          -1.1500000000e+00 -1.1500000000e+00 9.2700000000e+00 
          -1.0370000000e+00 -1.0370000000e+00 1.1000000000e+01 
          9.3500000000e-01 9.3500000000e-01 1.2560000000e+01 
          9.3500000000e-01 -9.3500000000e-01 1.2560000000e+01 
          8.4300000000e-01 8.4300000000e-01 1.3960000000e+01 
          8.4300000000e-01 -8.4300000000e-01 1.3960000000e+01 
          7.6000000000e-01 7.6000000000e-01 1.5240000000e+01 
          7.6000000000e-01 -7.6000000000e-01 1.5240000000e+01 
          -9.3500000000e-01 9.3500000000e-01 1.2560000000e+01 
          -8.4300000000e-01 8.4300000000e-01 1.3960000000e+01 
          -7.6000000000e-01 7.6000000000e-01 1.5240000000e+01 
          -9.3500000000e-01 -9.3500000000e-01 1.2560000000e+01 
          -8.4300000000e-01 -8.4300000000e-01 1.3960000000e+01 
          -7.6000000000e-01 -7.6000000000e-01 1.5240000000e+01 
          7.6000000000e-01 -7.6000000000e-01 1.6240000000e+01 
          7.6000000000e-01 7.6000000000e-01 1.6240000000e+01 
          7.6000000000e-01 0.0000000000e+00 1.6240000000e+01 
          7.6000000000e-01 7.6000000000e-01 1.7340000000e+01 
          7.6000000000e-01 -7.6000000000e-01 1.7340000000e+01 
          7.6000000000e-01 0.0000000000e+00 1.7890000000e+01 
          7.6000000000e-01 -7.6000000000e-01 1.9440000000e+01 
          7.6000000000e-01 7.6000000000e-01 1.9440000000e+01 
          7.6000000000e-01 -7.6000000000e-01 2.1640000000e+01 
          7.6000000000e-01 7.6000000000e-01 2.1640000000e+01 
          7.6000000000e-01 0.0000000000e+00 1.9440000000e+01 
          7.6000000000e-01 7.6000000000e-01 1.8440000000e+01 
          7.6000000000e-01 -7.6000000000e-01 1.8440000000e+01 
          7.6000000000e-01 -7.6000000000e-01 2.0540000000e+01 
          7.6000000000e-01 7.6000000000e-01 2.0540000000e+01 
          7.6000000000e-01 0.0000000000e+00 2.1090000000e+01 
          7.6000000000e-01 7.6000000000e-01 2.2640000000e+01 
          7.6000000000e-01 -7.6000000000e-01 2.2640000000e+01 
          -7.6000000000e-01 7.6000000000e-01 1.6240000000e+01 
          -7.6000000000e-01 7.6000000000e-01 1.8440000000e+01 
          -0.0000000000e+00 7.6000000000e-01 1.6240000000e+01 
          -7.6000000000e-01 7.6000000000e-01 1.9440000000e+01 
          -7.6000000000e-01 7.6000000000e-01 2.1640000000e+01 
          -7.6000000000e-01 7.6000000000e-01 1.7340000000e+01 
          -0.0000000000e+00 7.6000000000e-01 1.7890000000e+01 
          -0.0000000000e+00 7.6000000000e-01 1.9440000000e+01 
          -7.6000000000e-01 7.6000000000e-01 2.0540000000e+01 
          0.0000000000e+00 7.6000000000e-01 2.1090000000e+01 
          -7.6000000000e-01 7.6000000000e-01 2.2640000000e+01 
          -0.0000000000e+00 5.2600000000e-01 2.3499000000e+01 
          3.9900000000e-01 4.0400000000e-01 2.3950000000e+01 
          -3.9900000000e-01 4.0400000000e-01 2.3950000000e+01 
          -7.6000000000e-01 -7.6000000000e-01 1.6240000000e+01 
          -7.6000000000e-01 -7.6000000000e-01 1.8440000000e+01 
          -7.6000000000e-01 -0.0000000000e+00 1.6240000000e+01 
          -7.6000000000e-01 -7.6000000000e-01 1.9440000000e+01 
          -7.6000000000e-01 -7.6000000000e-01 2.1640000000e+01 
          -7.6000000000e-01 -7.6000000000e-01 1.7340000000e+01 
          -7.6000000000e-01 0.0000000000e+00 1.7890000000e+01 
          -7.6000000000e-01 -0.0000000000e+00 1.9440000000e+01 
          -7.6000000000e-01 -7.6000000000e-01 2.0540000000e+01 
          -7.6000000000e-01 -0.0000000000e+00 2.1090000000e+01 
          -7.6000000000e-01 -7.6000000000e-01 2.2640000000e+01 
          0.0000000000e+00 -7.6000000000e-01 1.6240000000e+01 
          0.0000000000e+00 -7.6000000000e-01 1.7890000000e+01 
          0.0000000000e+00 -7.6000000000e-01 1.9440000000e+01 
          0.0000000000e+00 -7.6000000000e-01 2.1090000000e+01 
          0.0000000000e+00 -5.2600000000e-01 2.3499000000e+01 
          3.9900000000e-01 -4.0400000000e-01 2.3950000000e+01 
          -3.9900000000e-01 -4.0400000000e-01 2.3950000000e+01 
          -0.0000000000e+00 -3.3500000000e+00 2.1640000000e+01 
          -3.8000000000e-01 -2.0550000000e+00 2.2140000000e+01 
          -3.8000000000e-01 -2.0550000000e+00 2.1640000000e+01 
          0.0000000000e+00 3.3500000000e+00 2.1640000000e+01 
          -3.8000000000e-01 2.0550000000e+00 2.2140000000e+01 
          -3.8000000000e-01 2.0550000000e+00 2.1640000000e+01 
          3.8000000000e-01 2.0550000000e+00 2.2140000000e+01 
          3.8000000000e-01 2.0550000000e+00 2.1640000000e+01 
          3.8000000000e-01 -2.0550000000e+00 2.2140000000e+01 
          3.8000000000e-01 -2.0550000000e+00 2.1640000000e+01 
          -0.0000000000e+00 -3.3500000000e+00 1.8440000000e+01 
          -3.8000000000e-01 -2.0550000000e+00 1.8940000000e+01 
          -3.8000000000e-01 -2.0550000000e+00 1.8440000000e+01 
          -0.0000000000e+00 3.3500000000e+00 1.8440000000e+01 
          -3.8000000000e-01 2.0550000000e+00 1.8940000000e+01 
          -3.8000000000e-01 2.0550000000e+00 1.8440000000e+01 
          3.8000000000e-01 2.0550000000e+00 1.8940000000e+01 
          3.8000000000e-01 2.0550000000e+00 1.8440000000e+01 
          3.8000000000e-01 -2.0550000000e+00 1.8940000000e+01 
          3.8000000000e-01 -2.0550000000e+00 1.8440000000e+01 
          -0.0000000000e+00 -3.3500000000e+00 1.5240000000e+01 
          -3.8000000000e-01 -2.0550000000e+00 1.5740000000e+01 
          -3.8000000000e-01 -2.0550000000e+00 1.5240000000e+01 
          -0.0000000000e+00 3.3500000000e+00 1.5240000000e+01 
          -3.8000000000e-01 2.0550000000e+00 1.5740000000e+01 
          -3.8000000000e-01 2.0550000000e+00 1.5240000000e+01 
          3.8000000000e-01 2.0550000000e+00 1.5740000000e+01 
          3.8000000000e-01 2.0550000000e+00 1.5240000000e+01 
          3.8000000000e-01 -2.0550000000e+00 1.5740000000e+01 
          3.8000000000e-01 -2.0550000000e+00 1.5240000000e+01 
          -5.2400000000e-01 0.0000000000e+00 2.3496000000e+01 
          5.2400000000e-01 0.0000000000e+00 2.3496000000e+01 
          4.0000000000e-02 5.0000000000e-02 2.5250000000e+01 
          -4.0000000000e-02 5.0000000000e-02 2.5250000000e+01 
          -4.0000000000e-02 -5.0000000000e-02 2.5250000000e+01 
          4.0000000000e-02 -5.0000000000e-02 2.5250000000e+01 
          1.3410000000e+00 0.0000000000e+00 6.3450000000e+00 
          1.2090000000e+00 0.0000000000e+00 8.3600000000e+00 
          1.0900000000e+00 -0.0000000000e+00 1.0180000000e+01 
          -0.0000000000e+00 1.3410000000e+00 6.3450000000e+00 
          0.0000000000e+00 1.2090000000e+00 8.3600000000e+00 
          -0.0000000000e+00 1.0900000000e+00 1.0180000000e+01 
          -1.3410000000e+00 0.0000000000e+00 6.3450000000e+00 
          -1.2090000000e+00 0.0000000000e+00 8.3600000000e+00 
          -1.0900000000e+00 -0.0000000000e+00 1.0180000000e+01 
          -0.0000000000e+00 -1.3410000000e+00 6.3450000000e+00 
          0.0000000000e+00 -1.2090000000e+00 8.3600000000e+00 
          0.0000000000e+00 -1.0900000000e+00 1.0180000000e+01 
          9.8300000000e-01 0.0000000000e+00 1.1820000000e+01 
          8.8700000000e-01 0.0000000000e+00 1.3296000000e+01 
          8.0000000000e-01 -0.0000000000e+00 1.4633000000e+01 
          0.0000000000e+00 9.8300000000e-01 1.1820000000e+01 
          -0.0000000000e+00 8.8700000000e-01 1.3296000000e+01 
          0.0000000000e+00 8.0000000000e-01 1.4633000000e+01 
          -9.8300000000e-01 0.0000000000e+00 1.1820000000e+01 
          -8.8700000000e-01 0.0000000000e+00 1.3296000000e+01 
          -8.0000000000e-01 0.0000000000e+00 1.4633000000e+01 
          0.0000000000e+00 -9.8300000000e-01 1.1820000000e+01 
          0.0000000000e+00 -8.8700000000e-01 1.3296000000e+01 
          0.0000000000e+00 -8.0000000000e-01 1.4633000000e+01 
        </DataArray>
      </Points>
      <Cells>
        <DataArray type="Int64" Name="connectivity" format="ascii">
          0
          1
          2
          3
          4
          5
          6
          7
          8
          9
          10
          11
          12
          13
          14
          15
          16
          17
          18
          19
          20
          21
          22
          23
          24
          25
          26
          27
          28
          29
          30
          31
          32
          33
          34
          35
          36
          37
          38
          39
          40
          41
          42
          43
          44
          45
          46
          47
          48
          49
          50
          51
          52
          53
          54
          55
          56
          57
          58
          59
          60
          61
          62
          63
          64
          65
          66
          67
          68
          69
          70
          71
          72
          73
          74
          75
          76
          77
          78
          79
          80
          81
          82
          83
          84
          85
          86
          87
          88
          89
          90
          91
          92
          93
          94
          95
          96
          97
          98
          99
          100
          101
          102
          103
          104
          105
          106
          107
          108
          109
          110
          111
          112
          113
          114
          115
          116
          117
          118
          119
          120
          121
          122
          123
          124
          125
          126
          127
          128
          129
          130
          131
          132
          133
          134
          135
          136
          137
          138
          139
          140
          141
          142
          143
          144
          145
          146
          147
          148
          149
          150
          151
          152
          153
          154
          155
          156
          157
        </DataArray>
        <DataArray type="Int64" Name="offsets" format="ascii">
          158
        </DataArray>
        <DataArray type="Int64" Name="types" format="ascii">
          2
        </DataArray>
      </Cells>
      <PointData>
        <DataArray type="Int64" Name="NodeTag" format="ascii">
          1
          2
          3
          4
          5
          6
          7
          8
          9
          10
          11
          12
          13
          14
          15
          16
          17
          18
          19
          20
          21
          22
          23
          24
          25
          26
          27
          28
          29
          30
          31
          32
          33
          34
          35
          36
          37
          38
          39
          40
          41
          42
          43
          44
          45
          46
          47
          48
          49
          50
          51
          52
          53
          54
          55
          56
          57
          58
          59
          60
          61
          62
          63
          64
          65
          66
          67
          68
          69
          70
          71
          72
          73
          74
          75
          76
          77
          78
          79
          80
          81
          82
          83
          84
          85
          86
          87
          88
          89
          90
          91
          92
          93
          94
          95
          96
          97
          98
          99
          100
          101
          102
          103
          104
          105
          106
          107
          108
          109
          110
          111
          112
          113
          114
          115
          116
          117
          118
          119
          120
          121
          122
          123
          124
          125
          126
          127
          128
          129
          130
          131
          132
          133
          134
          135
          136
          137
          138
          139
          140
          141
          142
          143
          144
          145
          146
          147
          148
          149
          150
          151
          152
          153
          154
          155
          156
          157
          158
        </DataArray>
        <DataArray type="Float64" Name="Displacement" NumberOfComponents="3" format="ascii">
          0.0000000000e+00 0.0000000000e+00 0.0000000000e+00 
          -6.5894766125e-07 -3.0902796086e-06 4.2495177428e-08 
          0.0000000000e+00 0.0000000000e+00 0.0000000000e+00 
          -1.4047186409e-06 -4.0903476077e-06 1.8133886206e-04 
          1.6152665374e-06 -4.0986726885e-06 -1.8129708287e-04 
          -2.4624861205e-04 -3.1268900787e-04 -1.2544700001e-04 
          2.4605469958e-04 -3.1235002951e-04 1.2543667770e-04 
          -2.8519806450e-04 -3.1176978319e-04 -1.3175467828e-04 
          2.8542849435e-04 -3.1141486673e-04 1.3175708670e-04 
          1.3117044980e-07 -9.0106590018e-05 -2.1893943686e-05 
          0.0000000000e+00 0.0000000000e+00 0.0000000000e+00 
          -1.3459729391e-06 -3.8973014233e-06 -1.8133734430e-04 
          2.8623989511e-04 -3.2266742230e-04 -1.2927271403e-04 
          -2.8595420509e-04 -3.2302584366e-04 -1.2924209897e-04 
          2.8548340923e-04 -3.1140640155e-04 -1.3176516101e-04 
          1.0002768957e-06 -2.8862972848e-06 -8.4452565770e-08 
          0.0000000000e+00 0.0000000000e+00 0.0000000000e+00 
          1.6534399381e-06 -3.8894832197e-06 1.8129041462e-04 
          -2.4580349293e-04 -3.1224776741e-04 1.2536917400e-04 
          2.4647247948e-04 -3.1232573231e-04 -1.2541555704e-04 
          -2.8519363380e-04 -3.1131249263e-04 1.3172486927e-04 
          1.2121480856e-07 -9.1012531278e-05 2.1862822958e-05 
          2.8618968027e-04 -3.2327990875e-04 1.2925268015e-04 
          -2.8595461302e-04 -3.2319154355e-04 1.2920793678e-04 
          6.7648467194e-05 3.3032510808e-04 -2.6290585674e-04 
          -6.7285903636e-05 3.3041174818e-04 2.6303906999e-04 
          -1.8863491063e-05 7.9481440453e-04 3.3536792065e-04 
          1.8553834987e-05 7.9483448775e-04 -3.3521063609e-04 
          -4.8249196206e-05 1.3623271490e-03 3.8555491821e-04 
          4.8659841844e-05 1.3620905169e-03 -3.8537501317e-04 
          -6.7385447455e-05 3.3050556528e-04 -2.6295158802e-04 
          -1.8331601959e-05 7.9498425673e-04 -3.3526869686e-04 
          -4.8516589712e-05 1.3622158153e-03 -3.8544775696e-04 
          6.7569728490e-05 3.3057944713e-04 2.6297717826e-04 
          1.9130813260e-05 7.9495334321e-04 3.3528945257e-04 
          4.8449335599e-05 1.3624303109e-03 3.8546048454e-04 
          3.1666253300e-05 2.0231679339e-03 -4.4795276516e-04 
          -3.2002439471e-05 2.0233566402e-03 4.4801963690e-04 
          4.2858962882e-05 2.7711279273e-03 -4.9082516190e-04 
          -4.3211654988e-05 2.7710824756e-03 4.9072572461e-04 
          1.3385600180e-05 3.5953801507e-03 -5.2027065529e-04 
          -1.3588594021e-05 3.5958955116e-03 5.1981811428e-04 
          -3.1641228081e-05 2.0232617252e-03 -4.4804729721e-04 
          -4.2994750044e-05 2.7711991780e-03 -4.9093957780e-04 
          -1.3724036154e-05 3.5954144025e-03 -5.2040246153e-04 
          3.2088333239e-05 2.0234311253e-03 4.4790389228e-04 
          4.3136376647e-05 2.7711238989e-03 4.9059296224e-04 
          1.3309753139e-05 3.5959239981e-03 5.1967263303e-04 
          1.4436046460e-06 4.3627481224e-03 6.3301539775e-04 
          -1.9434472112e-06 4.3622969077e-03 -6.3384470347e-04 
          3.7332945574e-07 4.3572661555e-03 -4.5993976358e-07 
          1.4336320388e-04 5.4734597134e-03 -7.4865964005e-04 
          -1.4442854192e-04 5.4740855088e-03 7.4699883909e-04 
          -4.2783239669e-06 6.0284621622e-03 -1.1332662847e-06 
          2.4407273372e-06 7.9252785408e-03 9.4361134691e-04 
          -4.0195897742e-06 7.9242572574e-03 -9.4754850023e-04 
          -1.6704887614e-06 1.0927877567e-02 1.0720905432e-03 
          -7.1945368208e-07 1.0926345005e-02 -1.0795262588e-03 
          -1.4146066141e-06 7.9141645039e-03 -1.9575127671e-06 
          5.3600858020e-07 6.6805189330e-03 -8.8506000350e-04 
          -1.7145724989e-06 6.6815010066e-03 8.8243091773e-04 
          -7.7764799093e-05 9.3981304790e-03 1.0041207592e-03 
          7.5405759156e-05 9.3972369140e-03 -1.0097339171e-03 
          -2.4060993119e-06 1.0137579856e-02 -3.4811994443e-06 
          4.8469141384e-06 1.2413224191e-02 -1.1153049517e-03 
          -8.1017166729e-06 1.2414488454e-02 1.1058802536e-03 
          1.4222692532e-06 4.3623175384e-03 -6.3402177271e-04 
          -1.7598098519e-06 6.6805151476e-03 -8.8533281550e-04 
          -2.6072160576e-07 4.3397756116e-03 -5.9084174110e-04 
          2.4200433884e-06 7.9242525455e-03 -9.4784562987e-04 
          -1.8473073537e-06 1.0926327194e-02 -1.0798632689e-03 
          -1.4421774313e-04 5.4735235460e-03 -7.4887970384e-04 
          -5.1005075005e-07 6.0213351059e-03 -9.1414108139e-04 
          -7.9973457296e-07 7.8901215210e-03 -9.2175876359e-04 
          -7.7484734679e-05 9.3972562977e-03 -1.0100520314e-03 
          -1.1580013505e-06 1.0110075960e-02 -1.0963571527e-03 
          -7.8663763080e-06 1.2413210586e-02 -1.1156458938e-03 
          -1.7015512887e-06 1.3469675579e-02 -8.4021830607e-04 
          7.2546831462e-06 1.4356120284e-02 -6.1257136966e-04 
          -1.0857083390e-05 1.4356114447e-02 -6.1275130237e-04 
          -1.9162026912e-06 4.3627700433e-03 6.3282827967e-04 
          5.4547393465e-07 6.6815017103e-03 8.8215438446e-04 
          -8.4943780461e-07 4.3572869384e-03 -6.2323813383e-07 
          -3.9834556837e-06 7.9252746306e-03 9.4331126878e-04 
          -8.3299591343e-07 1.0927868417e-02 1.0717504436e-03 
          1.4362711905e-04 5.4740368131e-03 7.4677146955e-04 
          3.2890932177e-06 6.0284644309e-03 -1.4222588534e-06 
          -1.4253788539e-07 7.9141598780e-03 -2.2439317199e-06 
          7.5747662933e-05 9.3980925958e-03 1.0038003949e-03 
          1.3660308205e-07 1.0137568615e-02 -3.8325603800e-06 
          5.1421817164e-06 1.2414470602e-02 1.1055347542e-03 
          -2.3613452857e-07 4.3403724812e-03 5.8994982307e-04 
          -4.8372353754e-07 6.0208763030e-03 9.1214037572e-04 
          -7.7127062632e-07 7.8907717488e-03 9.1765478216e-04 
          -1.1265709079e-06 1.0109949608e-02 1.0901159958e-03 
          -1.6788803761e-06 1.3453155779e-02 8.3550412175e-04 
          -9.1818538871e-06 1.4357113884e-02 6.0036125131e-04 
          5.6133706231e-06 1.4357107376e-02 6.0017646992e-04 
          -1.2271511730e-06 1.0897066920e-02 5.1276014498e-03 
          -8.0257537667e-07 1.1694234752e-02 3.0331750429e-03 
          -1.7625961379e-06 1.0903542562e-02 3.0339171702e-03 
          -1.3128180503e-06 1.0888562915e-02 -5.1410594898e-03 
          -2.1247016540e-06 1.1690665537e-02 -3.0419208962e-03 
          -5.3790462153e-07 1.0898582843e-02 -3.0414482103e-03 
          -7.7717920591e-07 1.1690652465e-02 -3.0417348629e-03 
          -1.9944187481e-06 1.0898610566e-02 -3.0412614709e-03 
          -1.8813417365e-06 1.1694231282e-02 3.0333684623e-03 
          -5.5252158561e-07 1.0903499525e-02 3.0341113876e-03 
          -5.7443538475e-07 6.6513759956e-03 4.3339652164e-03 
          -5.3903031197e-07 7.3319897365e-03 2.5457764492e-03 
          -6.6962238511e-07 6.6573050305e-03 2.5464032430e-03 
          -6.1694460382e-07 6.6453528630e-03 -4.3409599446e-03 
          -9.0361716752e-07 7.3295265616e-03 -2.5490764840e-03 
          -2.8432528009e-07 6.6538471133e-03 -2.5488383040e-03 
          -5.1785656826e-07 7.3295264198e-03 -2.5489262595e-03 
          -8.4638380443e-07 6.6538781969e-03 -2.5486875927e-03 
          -7.1764750325e-07 7.3319634634e-03 2.5459351072e-03 
          -3.0076835642e-07 6.6572495301e-03 2.5465623721e-03 
          -1.6738419412e-07 3.5619809741e-03 2.7878982018e-03 
          -5.2628502046e-08 4.0147685391e-03 1.5934586044e-03 
          -2.2862945056e-07 3.5680424964e-03 1.5937918188e-03 
          -1.1165562561e-07 3.5589497169e-03 -2.7922848999e-03 
          -3.2296415984e-07 4.0138456183e-03 -1.5943280597e-03 
          2.0880223853e-07 3.5662433325e-03 -1.5942775609e-03 
          1.9852357440e-08 4.0138496654e-03 -1.5942500127e-03 
          -3.1192458944e-07 3.5662788437e-03 -1.5941990012e-03 
          -2.3481652783e-07 4.0147210258e-03 1.5935608777e-03 
          1.3852777544e-07 3.5679649274e-03 1.5938944659e-03 
          6.4519554267e-06 1.3667373106e-02 -8.3827947998e-06 
          -9.7258612299e-06 1.3667381941e-02 -8.1156664042e-06 
          1.5773881729e-06 1.5886115655e-02 -2.1292108092e-04 
          -5.4226618146e-06 1.5886122093e-02 -2.1304592273e-04 
          1.5761015272e-06 1.5886957112e-02 1.9850057844e-04 
          -5.4200660998e-06 1.5886965875e-02 1.9861813785e-04 
          3.4757332424e-05 1.2851160390e-04 2.3022154043e-06 
          -2.6862524792e-05 5.3474129062e-04 -1.6262348929e-06 
          1.5535251004e-05 1.0575996052e-03 1.0295369650e-06 
          1.3555877435e-07 -3.3526518855e-05 -1.9369314661e-04 
          1.2453431768e-07 5.1125172233e-04 -3.3310523141e-04 
          9.4755683532e-08 1.0427611168e-03 -3.4354786668e-04 
          -3.4085894463e-05 1.2869984746e-04 2.2304809992e-06 
          2.7496589138e-05 5.3490067279e-04 -1.7122752634e-06 
          -1.5100366650e-05 1.0577286428e-03 9.4244859252e-07 
          1.3823152700e-07 -3.5864651232e-05 1.9399848997e-04 
          1.4302589670e-07 5.1032328544e-04 3.3287798134e-04 
          1.2168387374e-07 1.0398125808e-03 3.4440819851e-04 
          -1.5313720665e-05 1.6680103185e-03 -9.0610188465e-07 
          8.6474342576e-06 2.3798033697e-03 6.6585988249e-07 
          -9.6403642824e-06 3.1724662174e-03 -9.2290003097e-07 
          4.6550258086e-08 1.6038918657e-03 -4.3313839855e-04 
          -2.3670719048e-08 2.3389785538e-03 -4.6627961376e-04 
          -1.1535312857e-07 3.1363725236e-03 -5.2762924792e-04 
          1.5572287270e-05 1.6681090194e-03 -1.0108702522e-06 
          -8.5713791120e-06 2.3798726794e-03 5.4817869154e-07 
          9.5109602919e-06 3.1725087822e-03 -1.0667919777e-06 
          7.7019715676e-08 1.6017806068e-03 4.3301467264e-04 
          7.0761004399e-09 2.3359142721e-03 4.6655007622e-04 
          -8.5383706865e-08 3.1342502481e-03 5.2773041413e-04 
        </DataArray>
        <DataArray type="Float64" Name="Reaction" NumberOfComponents="3" format="ascii">
          1.5256310589e+03 -1.3141795537e+03 -2.4217216605e+04 
          -5.2075420071e-01 1.8478731577e+01 4.0438488738e+00 
          -1.5369680430e+03 -1.3181045676e+03 2.4186848523e+04 
          -1.6800241039e-02 2.6486834492e+01 1.0120196126e+01 
          2.3746114014e+00 3.1015759162e+01 6.2349495810e-02 
          8.7132930247e+00 2.3108548711e+00 -2.2706309383e+00 
          -2.9819206239e+00 -8.7313385759e-01 -3.4342409407e+00 
          1.2602727355e+01 4.6645369268e+00 -5.2970659733e+00 
          -7.7090164773e+00 -6.9245839142e-01 4.3539908613e+00 
          4.7490405116e-02 2.7618456407e+00 3.5491580812e-02 
          1.5337723784e+03 -1.3157839300e+03 2.4173602877e+04 
          -2.2497798814e+00 3.0988720988e+01 2.9080557490e-02 
          -1.6756252001e+01 7.0662190003e+00 1.7246745026e+00 
          1.6912054832e+01 7.1576335629e+00 1.7806816949e+00 
          -1.2502923108e+01 4.6074698089e+00 -5.3174280038e+00 
          5.5639240159e-01 1.8449182945e+01 4.0419557371e+00 
          -1.5282418616e+03 -1.3136472566e+03 -2.4219320027e+04 
          2.8513442558e-02 2.6461854810e+01 1.0090591082e+01 
          3.0096139517e+00 -8.7054786712e-01 -3.4300037491e+00 
          -8.7259016928e+00 2.2246210736e+00 -2.2992241998e+00 
          7.7339707107e+00 -6.8570668011e-01 4.3501974583e+00 
          -4.1879030084e-03 2.8809784683e+00 7.3852436902e+00 
          -1.4808700092e+01 2.1343510382e+00 -7.2409092010e+00 
          1.4838715483e+01 2.1517246240e+00 -7.2407126118e+00 
          3.3590999992e+00 1.6071539631e+01 -6.3215241218e+00 
          6.2299225370e-01 1.3308094707e+01 3.8080829800e+00 
          2.1065251972e-01 1.8764758644e+01 4.5390780095e+00 
          2.8116629860e+00 2.3436564582e+01 -1.0260950983e+01 
          -7.2542798729e-01 3.0827850736e+01 6.9997490132e+00 
          1.4340930608e+00 3.6442361764e+01 -8.0701515304e+00 
          -3.3388117206e+00 1.6060924296e+01 -6.3258261831e+00 
          -2.8015154571e+00 2.3430369400e+01 -1.0274468139e+01 
          -1.4319299800e+00 3.6438520938e+01 -8.0698574365e+00 
          -6.2402714484e-01 1.3301770214e+01 3.7975033024e+00 
          -2.0846096449e-01 1.8760544429e+01 4.5415800584e+00 
          7.2135458912e-01 3.0823271593e+01 6.9915258196e+00 
          2.3883438591e+00 4.2996648238e+01 -9.5111123052e+00 
          2.2459497729e+00 3.4073602546e+01 4.3153155130e+00 
          2.9689877331e+00 4.4567005435e+01 -9.9558492873e+00 
          1.3517084245e+00 3.3261872355e+01 3.6931557504e+00 
          7.9325241447e+00 6.1814428087e+01 -7.9136599265e+00 
          5.3767069134e+00 6.4066208494e+01 1.1232636389e+01 
          -2.3928698811e+00 4.2994872021e+01 -9.5159802621e+00 
          -2.9730037457e+00 4.4565055087e+01 -9.9530645826e+00 
          -7.9398100417e+00 6.1829063195e+01 -7.9197755748e+00 
          -2.2529118891e+00 3.4072877490e+01 4.3148961787e+00 
          -1.3587205475e+00 3.3262572675e+01 3.6845818497e+00 
          -5.3937637213e+00 6.4075035267e+01 1.1226467141e+01 
          2.4203988805e+00 2.5166534328e+01 7.5936594337e+00 
          1.1465172400e+00 4.4618839669e+01 -1.1204691945e+01 
          -9.0259049002e-01 4.2326743048e+01 -6.5154557638e+00 
          8.2046771367e+00 5.1454208866e+01 -1.5879412398e+00 
          5.5739569246e+00 2.2396029949e+01 1.3679834872e+01 
          9.7660359801e-01 2.2929753606e+01 -2.5140724078e+00 
          4.1248969566e+00 5.0169321162e+01 8.6039019687e+00 
          2.3800418032e+00 5.3933298693e+01 -1.8726341890e+00 
          1.0944189199e+01 1.0737345752e+02 -3.1161316492e+00 
          1.8835969988e+01 1.3450114208e+02 -3.7042074061e+00 
          -2.0176343356e-01 6.5521278362e+01 -2.3238311034e+00 
          1.6122389689e+01 9.0956470278e+01 -2.7087539692e+01 
          1.5575133359e+01 7.7789585090e+01 2.1866314219e+00 
          1.6701828345e+01 4.3249102405e+01 1.1500960349e+01 
          2.8387415846e+00 8.3868548221e+01 5.5042508343e+00 
          1.3628906355e-01 3.5276298191e+01 -1.0042906544e+00 
          2.1386950105e+01 1.4780597823e+02 -1.3125874217e+01 
          1.8184889068e+01 8.9358740517e+01 1.4703003688e+01 
          -1.1556902374e+00 4.4627177075e+01 -1.1221136998e+01 
          -1.6163557265e+01 9.0979699261e+01 -2.7106892609e+01 
          -1.9333131762e-04 4.1339578433e+01 -1.0370319047e+01 
          -2.4079771934e+00 5.3943261076e+01 -1.8857448519e+00 
          -1.8935730977e+01 1.3452551242e+02 -3.7108721628e+00 
          -8.2178613639e+00 5.1450550749e+01 -1.5616773269e+00 
          -1.3160561670e-02 1.9978435542e+01 -3.9392562061e+00 
          -1.8051811730e-02 4.8843208493e+01 -8.6303977776e+00 
          -2.8877860468e+00 8.3863494496e+01 5.5097401482e+00 
          -1.7232670386e-02 3.6952223432e+01 3.7512074646e+00 
          -2.1492558620e+01 1.4782375115e+02 -1.3158518533e+01 
          -1.1598074538e-02 6.6798559903e+01 7.6305579102e+00 
          1.6044359230e+01 8.0047441512e+01 -2.6815549560e+00 
          -1.6092411203e+01 8.0047676452e+01 -2.7070196323e+00 
          -2.4279182880e+00 2.5177380103e+01 7.5961434242e+00 
          -1.5630693400e+01 7.7808289449e+01 2.1775549945e+00 
          8.8886580252e-01 4.2318208599e+01 -6.5207144032e+00 
          -4.1572799507e+00 5.0181230116e+01 8.6030824558e+00 
          -1.1056360435e+01 1.0739382505e+02 -3.1242063851e+00 
          -5.5945070584e+00 2.2393925826e+01 1.3640448955e+01 
          -9.8460974479e-01 2.2944809089e+01 -2.5169968479e+00 
          1.7024633890e-01 6.5518019828e+01 -2.3315045517e+00 
          -1.6751112705e+01 4.3252662686e+01 1.1482795469e+01 
          -1.6396411747e-01 3.5282146225e+01 -1.0044018790e+00 
          -1.8287865047e+01 8.9373151855e+01 1.4703640713e+01 
          -1.0416860758e-02 4.1050830326e+01 1.6978087504e+00 
          1.2241572153e-03 1.9802968103e+01 5.1700557600e+00 
          -2.1431089085e-02 4.8773475485e+01 5.8157771027e+00 
          -1.1781960412e-02 3.6860558715e+01 -2.5140929486e+00 
          -1.5334317205e-02 7.2266037608e+01 2.9376320280e+00 
          -1.5328031168e+01 3.9304698319e+01 4.1930429130e+01 
          1.5277847885e+01 3.9299017436e+01 4.1918928077e+01 
          -2.5090330712e-02 -6.3210717685e+00 2.2535792156e+01 
          4.7789268160e+00 4.5191178023e+01 2.8692703711e+01 
          -9.5974569135e-01 2.6767086156e+01 -6.9789274435e+00 
          -3.9076445710e-02 9.5965861553e+01 -3.9089642572e+01 
          2.0329681008e+00 7.2084784524e+01 1.0458772336e+01 
          1.1316883473e+00 2.9026269581e+01 -2.0056620198e+01 
          -2.0709852982e+00 7.2100416657e+01 1.0455072377e+01 
          -1.1922355173e+00 2.9020168566e+01 -2.0065932154e+01 
          -4.8021099850e+00 4.5196795981e+01 2.8677978005e+01 
          9.0597406985e-01 2.6774716050e+01 -6.9825749284e+00 
          -9.3097844353e-03 -9.9721227557e+00 4.8447165940e+01 
          4.0779514062e+00 4.2041435077e+01 5.3071989499e+01 
          -6.5954484675e-01 2.0289370108e+01 1.2005873492e+01 
          -1.9380748270e-02 8.4060620840e+01 -6.6625796026e+01 
          2.2284492464e+00 6.5448679465e+01 -1.6372844802e+01 
          8.2891679884e-01 2.1284664983e+01 -3.7620609615e+01 
          -2.2453029917e+00 6.5463658399e+01 -1.6372244364e+01 
          -8.6747062591e-01 2.1278973872e+01 -3.7628167689e+01 
          -4.0824436670e+00 4.2046224472e+01 5.3060128271e+01 
          6.2689301757e-01 2.0296760069e+01 1.2005611137e+01 
          -2.1920221297e-03 -6.4418483137e-01 7.8768932347e+00 
          2.0325527183e+00 2.6960363478e+01 2.4889354660e+01 
          -4.1020685654e-01 1.0748984259e+01 3.7037687829e+00 
          -5.0209117067e-03 4.8709618221e+01 -1.8483595958e+01 
          1.1040231095e+00 3.8241680581e+01 -5.1576788803e+00 
          5.9977401090e-01 1.1160467844e+01 -1.8083009668e+01 
          -1.0942426928e+00 3.8252069152e+01 -5.1595129349e+00 
          -6.1327314140e-01 1.1157181141e+01 -1.8088134400e+01 
          -2.0232872414e+00 2.6962015686e+01 2.4880544375e+01 
          3.9432232602e-01 1.0753886575e+01 3.7012549546e+00 
          -6.9958480620e-01 2.4942153235e+01 7.0719556933e-01 
          6.4866434694e-01 2.4944928896e+01 7.1235782433e-01 
          -1.9018802305e+00 2.3344207511e+01 -8.6974671517e+00 
          1.8754626076e+00 2.3349443087e+01 -8.7117076083e+00 
          2.3143645452e+00 1.1425525937e+01 2.4766596904e+01 
          -2.3351879834e+00 1.1422591347e+01 2.4786490673e+01 
          8.6294610955e-01 2.6303028796e+00 -3.1519001339e-01 
          -6.0355907973e-01 3.8877759812e+00 -4.4146078500e-01 
          -5.6369120545e-01 6.6418182567e+00 -5.5310621734e-01 
          5.3946597119e-03 -2.7571915396e+01 -4.4200690357e+00 
          1.1031427149e-03 6.5581739436e+00 -2.1567293593e-02 
          1.0906444213e-03 1.7387170162e+01 9.6618310198e-01 
          -8.8594766296e-01 2.6271812520e+00 -3.1567892911e-01 
          6.2035891150e-01 3.8871467279e+00 -4.4398145585e-01 
          5.7524352123e-01 6.6394654782e+00 -5.5446472418e-01 
          1.8243263968e-04 -2.8037055032e+01 2.0187706589e-02 
          7.0096431540e-04 6.8618898839e+00 1.5348342878e+00 
          -8.9245878209e-04 1.7527737193e+01 2.2818215498e+00 
          3.1594130293e-02 9.8497446121e+00 -7.0139149015e-01 
          -2.2271776020e-01 1.1056921493e+01 -8.0241665789e-01 
          -1.0669589750e-01 1.1328581814e+01 -8.8250007306e-01 
          -3.5434279351e-04 -7.5035602887e+00 -3.4307574052e+00 
          -2.7854932958e-04 7.7631740329e+00 -1.0243024604e+00 
          -1.4992510622e-03 1.2007772667e+01 -6.4599222679e-01 
          -2.9900730710e-02 9.8495557715e+00 -7.0260584848e-01 
          2.2507421339e-01 1.1055883295e+01 -8.0332955716e-01 
          1.0654925026e-01 1.1330207381e+01 -8.8301002761e-01 
          -4.0297039403e-04 -7.5745809206e+00 2.2434451325e+00 
          -1.4272045198e-03 7.7698987473e+00 2.3168143753e+00 
          -3.2960809437e-04 1.2273516574e+01 2.5646070271e+00 
        </DataArray>
        <DataArray type="Float64" Name="UnbalancedLoad" NumberOfComponents="3" format="ascii">
          0.0000000000e+00 0.0000000000e+00 0.0000000000e+00 
          0.0000000000e+00 0.0000000000e+00 0.0000000000e+00 
          0.0000000000e+00 0.0000000000e+00 0.0000000000e+00 
          0.0000000000e+00 0.0000000000e+00 0.0000000000e+00 
          0.0000000000e+00 0.0000000000e+00 0.0000000000e+00 
          0.0000000000e+00 0.0000000000e+00 0.0000000000e+00 
          0.0000000000e+00 0.0000000000e+00 0.0000000000e+00 
          0.0000000000e+00 0.0000000000e+00 0.0000000000e+00 
          0.0000000000e+00 0.0000000000e+00 0.0000000000e+00 
          0.0000000000e+00 0.0000000000e+00 0.0000000000e+00 
          0.0000000000e+00 0.0000000000e+00 0.0000000000e+00 
          0.0000000000e+00 0.0000000000e+00 0.0000000000e+00 
          0.0000000000e+00 0.0000000000e+00 0.0000000000e+00 
          0.0000000000e+00 0.0000000000e+00 0.0000000000e+00 
          0.0000000000e+00 0.0000000000e+00 0.0000000000e+00 
          0.0000000000e+00 0.0000000000e+00 0.0000000000e+00 
          0.0000000000e+00 0.0000000000e+00 0.0000000000e+00 
          0.0000000000e+00 0.0000000000e+00 0.0000000000e+00 
          0.0000000000e+00 0.0000000000e+00 0.0000000000e+00 
          0.0000000000e+00 0.0000000000e+00 0.0000000000e+00 
          0.0000000000e+00 0.0000000000e+00 0.0000000000e+00 
          0.0000000000e+00 0.0000000000e+00 0.0000000000e+00 
          0.0000000000e+00 0.0000000000e+00 0.0000000000e+00 
          0.0000000000e+00 0.0000000000e+00 0.0000000000e+00 
          0.0000000000e+00 0.0000000000e+00 0.0000000000e+00 
          0.0000000000e+00 0.0000000000e+00 0.0000000000e+00 
          0.0000000000e+00 0.0000000000e+00 0.0000000000e+00 
          0.0000000000e+00 0.0000000000e+00 0.0000000000e+00 
          0.0000000000e+00 0.0000000000e+00 0.0000000000e+00 
          0.0000000000e+00 0.0000000000e+00 0.0000000000e+00 
          0.0000000000e+00 0.0000000000e+00 0.0000000000e+00 
          0.0000000000e+00 0.0000000000e+00 0.0000000000e+00 
          0.0000000000e+00 0.0000000000e+00 0.0000000000e+00 
          0.0000000000e+00 0.0000000000e+00 0.0000000000e+00 
          0.0000000000e+00 0.0000000000e+00 0.0000000000e+00 
          0.0000000000e+00 0.0000000000e+00 0.0000000000e+00 
          0.0000000000e+00 0.0000000000e+00 0.0000000000e+00 
          0.0000000000e+00 0.0000000000e+00 0.0000000000e+00 
          0.0000000000e+00 0.0000000000e+00 0.0000000000e+00 
          0.0000000000e+00 0.0000000000e+00 0.0000000000e+00 
          0.0000000000e+00 0.0000000000e+00 0.0000000000e+00 
          0.0000000000e+00 0.0000000000e+00 0.0000000000e+00 
          0.0000000000e+00 0.0000000000e+00 0.0000000000e+00 
          0.0000000000e+00 0.0000000000e+00 0.0000000000e+00 
          0.0000000000e+00 0.0000000000e+00 0.0000000000e+00 
          0.0000000000e+00 0.0000000000e+00 0.0000000000e+00 
          0.0000000000e+00 0.0000000000e+00 0.0000000000e+00 
          0.0000000000e+00 0.0000000000e+00 0.0000000000e+00 
          0.0000000000e+00 0.0000000000e+00 0.0000000000e+00 
          0.0000000000e+00 0.0000000000e+00 0.0000000000e+00 
          0.0000000000e+00 0.0000000000e+00 0.0000000000e+00 
          0.0000000000e+00 0.0000000000e+00 0.0000000000e+00 
          0.0000000000e+00 0.0000000000e+00 0.0000000000e+00 
          0.0000000000e+00 0.0000000000e+00 0.0000000000e+00 
          0.0000000000e+00 0.0000000000e+00 0.0000000000e+00 
          0.0000000000e+00 0.0000000000e+00 0.0000000000e+00 
          0.0000000000e+00 0.0000000000e+00 0.0000000000e+00 
          0.0000000000e+00 0.0000000000e+00 0.0000000000e+00 
          0.0000000000e+00 0.0000000000e+00 0.0000000000e+00 
          0.0000000000e+00 0.0000000000e+00 0.0000000000e+00 
          0.0000000000e+00 0.0000000000e+00 0.0000000000e+00 
          0.0000000000e+00 0.0000000000e+00 0.0000000000e+00 
          0.0000000000e+00 0.0000000000e+00 0.0000000000e+00 
          0.0000000000e+00 0.0000000000e+00 0.0000000000e+00 
          0.0000000000e+00 0.0000000000e+00 0.0000000000e+00 
          0.0000000000e+00 0.0000000000e+00 0.0000000000e+00 
          0.0000000000e+00 0.0000000000e+00 0.0000000000e+00 
          0.0000000000e+00 0.0000000000e+00 0.0000000000e+00 
          0.0000000000e+00 0.0000000000e+00 0.0000000000e+00 
          0.0000000000e+00 0.0000000000e+00 0.0000000000e+00 
          0.0000000000e+00 0.0000000000e+00 0.0000000000e+00 
          0.0000000000e+00 0.0000000000e+00 0.0000000000e+00 
          0.0000000000e+00 0.0000000000e+00 0.0000000000e+00 
          0.0000000000e+00 0.0000000000e+00 0.0000000000e+00 
          0.0000000000e+00 0.0000000000e+00 0.0000000000e+00 
          0.0000000000e+00 0.0000000000e+00 0.0000000000e+00 
          0.0000000000e+00 0.0000000000e+00 0.0000000000e+00 
          0.0000000000e+00 0.0000000000e+00 0.0000000000e+00 
          0.0000000000e+00 0.0000000000e+00 0.0000000000e+00 
          0.0000000000e+00 0.0000000000e+00 0.0000000000e+00 
          0.0000000000e+00 0.0000000000e+00 0.0000000000e+00 
          0.0000000000e+00 0.0000000000e+00 0.0000000000e+00 
          0.0000000000e+00 0.0000000000e+00 0.0000000000e+00 
          0.0000000000e+00 0.0000000000e+00 0.0000000000e+00 
          0.0000000000e+00 0.0000000000e+00 0.0000000000e+00 
          0.0000000000e+00 0.0000000000e+00 0.0000000000e+00 
          0.0000000000e+00 0.0000000000e+00 0.0000000000e+00 
          0.0000000000e+00 0.0000000000e+00 0.0000000000e+00 
          0.0000000000e+00 0.0000000000e+00 0.0000000000e+00 
          0.0000000000e+00 0.0000000000e+00 0.0000000000e+00 
          0.0000000000e+00 0.0000000000e+00 0.0000000000e+00 
          0.0000000000e+00 0.0000000000e+00 0.0000000000e+00 
          0.0000000000e+00 0.0000000000e+00 0.0000000000e+00 
          0.0000000000e+00 0.0000000000e+00 0.0000000000e+00 
          0.0000000000e+00 0.0000000000e+00 0.0000000000e+00 
          0.0000000000e+00 0.0000000000e+00 0.0000000000e+00 
          0.0000000000e+00 0.0000000000e+00 0.0000000000e+00 
          0.0000000000e+00 0.0000000000e+00 0.0000000000e+00 
          0.0000000000e+00 0.0000000000e+00 0.0000000000e+00 
          0.0000000000e+00 0.0000000000e+00 0.0000000000e+00 
          0.0000000000e+00 0.0000000000e+00 0.0000000000e+00 
          0.0000000000e+00 0.0000000000e+00 0.0000000000e+00 
          0.0000000000e+00 0.0000000000e+00 0.0000000000e+00 
          0.0000000000e+00 0.0000000000e+00 0.0000000000e+00 
          0.0000000000e+00 0.0000000000e+00 0.0000000000e+00 
          0.0000000000e+00 0.0000000000e+00 0.0000000000e+00 
          0.0000000000e+00 0.0000000000e+00 0.0000000000e+00 
          0.0000000000e+00 0.0000000000e+00 0.0000000000e+00 
          0.0000000000e+00 0.0000000000e+00 0.0000000000e+00 
          0.0000000000e+00 0.0000000000e+00 0.0000000000e+00 
          0.0000000000e+00 0.0000000000e+00 0.0000000000e+00 
          0.0000000000e+00 0.0000000000e+00 0.0000000000e+00 
          0.0000000000e+00 0.0000000000e+00 0.0000000000e+00 
          0.0000000000e+00 0.0000000000e+00 0.0000000000e+00 
          0.0000000000e+00 0.0000000000e+00 0.0000000000e+00 
          0.0000000000e+00 0.0000000000e+00 0.0000000000e+00 
          0.0000000000e+00 0.0000000000e+00 0.0000000000e+00 
          0.0000000000e+00 0.0000000000e+00 0.0000000000e+00 
          0.0000000000e+00 0.0000000000e+00 0.0000000000e+00 
          0.0000000000e+00 0.0000000000e+00 0.0000000000e+00 
          0.0000000000e+00 0.0000000000e+00 0.0000000000e+00 
          0.0000000000e+00 0.0000000000e+00 0.0000000000e+00 
          0.0000000000e+00 0.0000000000e+00 0.0000000000e+00 
          0.0000000000e+00 0.0000000000e+00 0.0000000000e+00 
          0.0000000000e+00 0.0000000000e+00 0.0000000000e+00 
          0.0000000000e+00 0.0000000000e+00 0.0000000000e+00 
          0.0000000000e+00 0.0000000000e+00 0.0000000000e+00 
          0.0000000000e+00 0.0000000000e+00 0.0000000000e+00 
          0.0000000000e+00 0.0000000000e+00 0.0000000000e+00 
          0.0000000000e+00 0.0000000000e+00 0.0000000000e+00 
          0.0000000000e+00 0.0000000000e+00 0.0000000000e+00 
          0.0000000000e+00 0.0000000000e+00 0.0000000000e+00 
          0.0000000000e+00 0.0000000000e+00 0.0000000000e+00 
          0.0000000000e+00 0.0000000000e+00 0.0000000000e+00 
          0.0000000000e+00 0.0000000000e+00 0.0000000000e+00 
          0.0000000000e+00 0.0000000000e+00 0.0000000000e+00 
          0.0000000000e+00 0.0000000000e+00 0.0000000000e+00 
          0.0000000000e+00 0.0000000000e+00 0.0000000000e+00 
          0.0000000000e+00 0.0000000000e+00 0.0000000000e+00 
          0.0000000000e+00 0.0000000000e+00 0.0000000000e+00 
          0.0000000000e+00 0.0000000000e+00 0.0000000000e+00 
          0.0000000000e+00 0.0000000000e+00 0.0000000000e+00 
          0.0000000000e+00 0.0000000000e+00 0.0000000000e+00 
          0.0000000000e+00 0.0000000000e+00 0.0000000000e+00 
          0.0000000000e+00 0.0000000000e+00 0.0000000000e+00 
          0.0000000000e+00 0.0000000000e+00 0.0000000000e+00 
          0.0000000000e+00 0.0000000000e+00 0.0000000000e+00 
          0.0000000000e+00 0.0000000000e+00 0.0000000000e+00 
          0.0000000000e+00 0.0000000000e+00 0.0000000000e+00 
          0.0000000000e+00 0.0000000000e+00 0.0000000000e+00 
          0.0000000000e+00 0.0000000000e+00 0.0000000000e+00 
          0.0000000000e+00 0.0000000000e+00 0.0000000000e+00 
          0.0000000000e+00 0.0000000000e+00 0.0000000000e+00 
          0.0000000000e+00 0.0000000000e+00 0.0000000000e+00 
          0.0000000000e+00 0.0000000000e+00 0.0000000000e+00 
          0.0000000000e+00 0.0000000000e+00 0.0000000000e+00 
          0.0000000000e+00 0.0000000000e+00 0.0000000000e+00 
          0.0000000000e+00 0.0000000000e+00 0.0000000000e+00 
        </DataArray>
      </PointData>
      <CellData>
        <DataArray type="Int64" Name="ElementTag" format="ascii">
          0
        </DataArray>
      </CellData>
    </Piece>
  </UnstructuredGrid>
</VTKFile>
