<?xml version="1.0"?>
<VTKFile type="UnstructuredGrid" version="1.0" byte_order="LittleEndian" compressor="vtkZLibDataCompressor">
  <UnstructuredGrid>
    <Piece NumberOfPoints="158" NumberOfCells="1">
      <Points>
        <DataArray type="Float64" Name="Points" NumberOfComponents="3" format="ascii">
          1.7550000000e+00 -1.7550000000e+00 0.0000000000e+00 
          1.4140000000e+00 0.0000000000e+00 5.2300000000e+00 
          1.7550000000e+00 1.7550000000e+00 -0.0000000000e+00 
          1.4140000000e+00 -1.4140000000e+00 5.2300000000e+00 
          1.4140000000e+00 1.4140000000e+00 5.2300000000e+00 
          1.5840000000e+00 8.7800000000e-01 2.6150000000e+00 
          1.5840000000e+00 -8.7700000000e-01 2.6150000000e+00 
          1.5840000000e+00 1.5840000000e+00 2.6150000000e+00 
          1.5840000000e+00 -1.5840000000e+00 2.6150000000e+00 
          -0.0000000000e+00 1.4140000000e+00 5.2300000000e+00 
          -1.7550000000e+00 1.7550000000e+00 -0.0000000000e+00 
          -1.4140000000e+00 1.4140000000e+00 5.2300000000e+00 
          -8.7700000000e-01 1.5840000000e+00 2.6150000000e+00 
          8.7700000000e-01 1.5840000000e+00 2.6150000000e+00 
          -1.5840000000e+00 1.5840000000e+00 2.6150000000e+00 
          -1.4140000000e+00 -0.0000000000e+00 5.2300000000e+00 
          -1.7550000000e+00 -1.7550000000e+00 -0.0000000000e+00 
          -1.4140000000e+00 -1.4140000000e+00 5.2300000000e+00 
          -1.5840000000e+00 -8.7700000000e-01 2.6150000000e+00 
          -1.5840000000e+00 8.7700000000e-01 2.6150000000e+00 
          -1.5840000000e+00 -1.5840000000e+00 2.6150000000e+00 
          0.0000000000e+00 -1.4140000000e+00 5.2300000000e+00 
          8.7700000000e-01 -1.5840000000e+00 2.6150000000e+00 
          -8.7700000000e-01 -1.5840000000e+00 2.6150000000e+00 
          1.2750000000e+00 1.2750000000e+00 7.3500000000e+00 
          1.2750000000e+00 -1.2750000000e+00 7.3500000000e+00 
          1.1500000000e+00 -1.1500000000e+00 9.2700000000e+00 
          1.1500000000e+00 1.1500000000e+00 9.2700000000e+00 
          1.0370000000e+00 -1.0370000000e+00 1.1000000000e+01 
          1.0370000000e+00 1.0370000000e+00 1.1000000000e+01 
          -1.2750000000e+00 1.2750000000e+00 7.3500000000e+00 
          -1.1500000000e+00 1.1500000000e+00 9.2700000000e+00 
          -1.0370000000e+00 1.0370000000e+00 1.1000000000e+01 
          -1.2750000000e+00 -1.2750000000e+00 7.3500000000e+00 
          -1.1500000000e+00 -1.1500000000e+00 9.2700000000e+00 
          -1.0370000000e+00 -1.0370000000e+00 1.1000000000e+01 
          9.3500000000e-01 9.3500000000e-01 1.2560000000e+01 
          9.3500000000e-01 -9.3500000000e-01 1.2560000000e+01 
          8.4300000000e-01 8.4300000000e-01 1.3960000000e+01 
          8.4300000000e-01 -8.4300000000e-01 1.3960000000e+01 
          7.6000000000e-01 7.6000000000e-01 1.5240000000e+01 
          7.6000000000e-01 -7.6000000000e-01 1.5240000000e+01 
          -9.3500000000e-01 9.3500000000e-01 1.2560000000e+01 
          -8.4300000000e-01 8.4300000000e-01 1.3960000000e+01 
          -7.6000000000e-01 7.6000000000e-01 1.5240000000e+01 
          -9.3500000000e-01 -9.3500000000e-01 1.2560000000e+01 
          -8.4300000000e-01 -8.4300000000e-01 1.3960000000e+01 
          -7.6000000000e-01 -7.6000000000e-01 1.5240000000e+01 
          7.6000000000e-01 -7.6000000000e-01 1.6240000000e+01 
          7.6000000000e-01 7.6000000000e-01 1.6240000000e+01 
          7.6000000000e-01 0.0000000000e+00 1.6240000000e+01 
          7.6000000000e-01 7.6000000000e-01 1.7340000000e+01 
          7.6000000000e-01 -7.6000000000e-01 1.7340000000e+01 
          7.6000000000e-01 0.0000000000e+00 1.7890000000e+01 
          7.6000000000e-01 -7.6000000000e-01 1.9440000000e+01 
          7.6000000000e-01 7.6000000000e-01 1.9440000000e+01 
          7.6000000000e-01 -7.6000000000e-01 2.1640000000e+01 
          7.6000000000e-01 7.6000000000e-01 2.1640000000e+01 
          7.6000000000e-01 0.0000000000e+00 1.9440000000e+01 
          7.6000000000e-01 7.6000000000e-01 1.8440000000e+01 
          7.6000000000e-01 -7.6000000000e-01 1.8440000000e+01 
          7.6000000000e-01 -7.6000000000e-01 2.0540000000e+01 
          7.6000000000e-01 7.6000000000e-01 2.0540000000e+01 
          7.6000000000e-01 0.0000000000e+00 2.1090000000e+01 
          7.6000000000e-01 7.6000000000e-01 2.2640000000e+01 
          7.6000000000e-01 -7.6000000000e-01 2.2640000000e+01 
          -7.6000000000e-01 7.6000000000e-01 1.6240000000e+01 
          -7.6000000000e-01 7.6000000000e-01 1.8440000000e+01 
          -0.0000000000e+00 7.6000000000e-01 1.6240000000e+01 
          -7.6000000000e-01 7.6000000000e-01 1.9440000000e+01 
          -7.6000000000e-01 7.6000000000e-01 2.1640000000e+01 
          -7.6000000000e-01 7.6000000000e-01 1.7340000000e+01 
          -0.0000000000e+00 7.6000000000e-01 1.7890000000e+01 
          -0.0000000000e+00 7.6000000000e-01 1.9440000000e+01 
          -7.6000000000e-01 7.6000000000e-01 2.0540000000e+01 
          0.0000000000e+00 7.6000000000e-01 2.1090000000e+01 
          -7.6000000000e-01 7.6000000000e-01 2.2640000000e+01 
          -0.0000000000e+00 5.2600000000e-01 2.3499000000e+01 
          3.9900000000e-01 4.0400000000e-01 2.3950000000e+01 
          -3.9900000000e-01 4.0400000000e-01 2.3950000000e+01 
          -7.6000000000e-01 -7.6000000000e-01 1.6240000000e+01 
          -7.6000000000e-01 -7.6000000000e-01 1.8440000000e+01 
          -7.6000000000e-01 -0.0000000000e+00 1.6240000000e+01 
          -7.6000000000e-01 -7.6000000000e-01 1.9440000000e+01 
          -7.6000000000e-01 -7.6000000000e-01 2.1640000000e+01 
          -7.6000000000e-01 -7.6000000000e-01 1.7340000000e+01 
          -7.6000000000e-01 0.0000000000e+00 1.7890000000e+01 
          -7.6000000000e-01 -0.0000000000e+00 1.9440000000e+01 
          -7.6000000000e-01 -7.6000000000e-01 2.0540000000e+01 
          -7.6000000000e-01 -0.0000000000e+00 2.1090000000e+01 
          -7.6000000000e-01 -7.6000000000e-01 2.2640000000e+01 
          0.0000000000e+00 -7.6000000000e-01 1.6240000000e+01 
          0.0000000000e+00 -7.6000000000e-01 1.7890000000e+01 
          0.0000000000e+00 -7.6000000000e-01 1.9440000000e+01 
          0.0000000000e+00 -7.6000000000e-01 2.1090000000e+01 
          0.0000000000e+00 -5.2600000000e-01 2.3499000000e+01 
          3.9900000000e-01 -4.0400000000e-01 2.3950000000e+01 
          -3.9900000000e-01 -4.0400000000e-01 2.3950000000e+01 
          -0.0000000000e+00 -3.3500000000e+00 2.1640000000e+01 
          -3.8000000000e-01 -2.0550000000e+00 2.2140000000e+01 
          -3.8000000000e-01 -2.0550000000e+00 2.1640000000e+01 
          0.0000000000e+00 3.3500000000e+00 2.1640000000e+01 
          -3.8000000000e-01 2.0550000000e+00 2.2140000000e+01 
          -3.8000000000e-01 2.0550000000e+00 2.1640000000e+01 
          3.8000000000e-01 2.0550000000e+00 2.2140000000e+01 
          3.8000000000e-01 2.0550000000e+00 2.1640000000e+01 
          3.8000000000e-01 -2.0550000000e+00 2.2140000000e+01 
          3.8000000000e-01 -2.0550000000e+00 2.1640000000e+01 
          -0.0000000000e+00 -3.3500000000e+00 1.8440000000e+01 
          -3.8000000000e-01 -2.0550000000e+00 1.8940000000e+01 
          -3.8000000000e-01 -2.0550000000e+00 1.8440000000e+01 
          -0.0000000000e+00 3.3500000000e+00 1.8440000000e+01 
          -3.8000000000e-01 2.0550000000e+00 1.8940000000e+01 
          -3.8000000000e-01 2.0550000000e+00 1.8440000000e+01 
          3.8000000000e-01 2.0550000000e+00 1.8940000000e+01 
          3.8000000000e-01 2.0550000000e+00 1.8440000000e+01 
          3.8000000000e-01 -2.0550000000e+00 1.8940000000e+01 
          3.8000000000e-01 -2.0550000000e+00 1.8440000000e+01 
          -0.0000000000e+00 -3.3500000000e+00 1.5240000000e+01 
          -3.8000000000e-01 -2.0550000000e+00 1.5740000000e+01 
          -3.8000000000e-01 -2.0550000000e+00 1.5240000000e+01 
          -0.0000000000e+00 3.3500000000e+00 1.5240000000e+01 
          -3.8000000000e-01 2.0550000000e+00 1.5740000000e+01 
          -3.8000000000e-01 2.0550000000e+00 1.5240000000e+01 
          3.8000000000e-01 2.0550000000e+00 1.5740000000e+01 
          3.8000000000e-01 2.0550000000e+00 1.5240000000e+01 
          3.8000000000e-01 -2.0550000000e+00 1.5740000000e+01 
          3.8000000000e-01 -2.0550000000e+00 1.5240000000e+01 
          -5.2400000000e-01 0.0000000000e+00 2.3496000000e+01 
          5.2400000000e-01 0.0000000000e+00 2.3496000000e+01 
          4.0000000000e-02 5.0000000000e-02 2.5250000000e+01 
          -4.0000000000e-02 5.0000000000e-02 2.5250000000e+01 
          -4.0000000000e-02 -5.0000000000e-02 2.5250000000e+01 
          4.0000000000e-02 -5.0000000000e-02 2.5250000000e+01 
          1.3410000000e+00 0.0000000000e+00 6.3450000000e+00 
          1.2090000000e+00 0.0000000000e+00 8.3600000000e+00 
          1.0900000000e+00 -0.0000000000e+00 1.0180000000e+01 
          -0.0000000000e+00 1.3410000000e+00 6.3450000000e+00 
          0.0000000000e+00 1.2090000000e+00 8.3600000000e+00 
          -0.0000000000e+00 1.0900000000e+00 1.0180000000e+01 
          -1.3410000000e+00 0.0000000000e+00 6.3450000000e+00 
          -1.2090000000e+00 0.0000000000e+00 8.3600000000e+00 
          -1.0900000000e+00 -0.0000000000e+00 1.0180000000e+01 
          -0.0000000000e+00 -1.3410000000e+00 6.3450000000e+00 
          0.0000000000e+00 -1.2090000000e+00 8.3600000000e+00 
          0.0000000000e+00 -1.0900000000e+00 1.0180000000e+01 
          9.8300000000e-01 0.0000000000e+00 1.1820000000e+01 
          8.8700000000e-01 0.0000000000e+00 1.3296000000e+01 
          8.0000000000e-01 -0.0000000000e+00 1.4633000000e+01 
          0.0000000000e+00 9.8300000000e-01 1.1820000000e+01 
          -0.0000000000e+00 8.8700000000e-01 1.3296000000e+01 
          0.0000000000e+00 8.0000000000e-01 1.4633000000e+01 
          -9.8300000000e-01 0.0000000000e+00 1.1820000000e+01 
          -8.8700000000e-01 0.0000000000e+00 1.3296000000e+01 
          -8.0000000000e-01 0.0000000000e+00 1.4633000000e+01 
          0.0000000000e+00 -9.8300000000e-01 1.1820000000e+01 
          0.0000000000e+00 -8.8700000000e-01 1.3296000000e+01 
          0.0000000000e+00 -8.0000000000e-01 1.4633000000e+01 
        </DataArray>
      </Points>
      <Cells>
        <DataArray type="Int64" Name="connectivity" format="ascii">
          0
          1
          2
          3
          4
          5
          6
          7
          8
          9
          10
          11
          12
          13
          14
          15
          16
          17
          18
          19
          20
          21
          22
          23
          24
          25
          26
          27
          28
          29
          30
          31
          32
          33
          34
          35
          36
          37
          38
          39
          40
          41
          42
          43
          44
          45
          46
          47
          48
          49
          50
          51
          52
          53
          54
          55
          56
          57
          58
          59
          60
          61
          62
          63
          64
          65
          66
          67
          68
          69
          70
          71
          72
          73
          74
          75
          76
          77
          78
          79
          80
          81
          82
          83
          84
          85
          86
          87
          88
          89
          90
          91
          92
          93
          94
          95
          96
          97
          98
          99
          100
          101
          102
          103
          104
          105
          106
          107
          108
          109
          110
          111
          112
          113
          114
          115
          116
          117
          118
          119
          120
          121
          122
          123
          124
          125
          126
          127
          128
          129
          130
          131
          132
          133
          134
          135
          136
          137
          138
          139
          140
          141
          142
          143
          144
          145
          146
          147
          148
          149
          150
          151
          152
          153
          154
          155
          156
          157
        </DataArray>
        <DataArray type="Int64" Name="offsets" format="ascii">
          158
        </DataArray>
        <DataArray type="Int64" Name="types" format="ascii">
          2
        </DataArray>
      </Cells>
      <PointData>
        <DataArray type="Int64" Name="NodeTag" format="ascii">
          1
          2
          3
          4
          5
          6
          7
          8
          9
          10
          11
          12
          13
          14
          15
          16
          17
          18
          19
          20
          21
          22
          23
          24
          25
          26
          27
          28
          29
          30
          31
          32
          33
          34
          35
          36
          37
          38
          39
          40
          41
          42
          43
          44
          45
          46
          47
          48
          49
          50
          51
          52
          53
          54
          55
          56
          57
          58
          59
          60
          61
          62
          63
          64
          65
          66
          67
          68
          69
          70
          71
          72
          73
          74
          75
          76
          77
          78
          79
          80
          81
          82
          83
          84
          85
          86
          87
          88
          89
          90
          91
          92
          93
          94
          95
          96
          97
          98
          99
          100
          101
          102
          103
          104
          105
          106
          107
          108
          109
          110
          111
          112
          113
          114
          115
          116
          117
          118
          119
          120
          121
          122
          123
          124
          125
          126
          127
          128
          129
          130
          131
          132
          133
          134
          135
          136
          137
          138
          139
          140
          141
          142
          143
          144
          145
          146
          147
          148
          149
          150
          151
          152
          153
          154
          155
          156
          157
          158
        </DataArray>
        <DataArray type="Float64" Name="Displacement" NumberOfComponents="3" format="ascii">
          0.0000000000e+00 0.0000000000e+00 0.0000000000e+00 
          7.5806703530e-05 -8.4563194446e-05 -6.6930474993e-05 
          0.0000000000e+00 0.0000000000e+00 0.0000000000e+00 
          7.9280818813e-05 -8.5527323973e-05 -6.3135970946e-04 
          -2.5065640302e-05 -8.7844192148e-05 -3.3527711963e-04 
          -4.3530240873e-04 -5.8792658429e-04 -2.6254396891e-04 
          -1.0936478351e-03 1.0207114066e-03 -4.8013180653e-04 
          -5.3428142342e-04 -5.8702549472e-04 -2.4850922022e-04 
          -1.0185566335e-03 1.0196307621e-03 -4.6567706127e-04 
          -2.2391645851e-05 -6.5803557603e-05 -7.3114733402e-05 
          0.0000000000e+00 0.0000000000e+00 0.0000000000e+00 
          -2.0855447925e-05 1.0492632437e-05 -3.3434162160e-04 
          5.1768628554e-04 -6.6953720317e-04 -2.7073387032e-04 
          -5.3524091423e-04 -6.5614070654e-04 -2.6903806215e-04 
          5.1674032030e-04 -5.2691060597e-04 -2.4797374985e-04 
          -2.8328824720e-06 1.5458810286e-05 -6.7742837564e-05 
          0.0000000000e+00 0.0000000000e+00 0.0000000000e+00 
          8.5610269012e-05 2.0396781121e-05 -6.7671466837e-04 
          1.3700582276e-03 1.1810986361e-03 -5.2915595967e-04 
          3.6062157745e-04 -5.2776762976e-04 -2.5195434584e-04 
          1.2318088912e-03 1.1806695305e-03 -5.0321001443e-04 
          8.0737191640e-05 2.1493985249e-04 -8.6801516870e-05 
          -1.0196037879e-03 9.5835984025e-04 -4.7148987574e-04 
          1.2321204006e-03 1.1302492246e-03 -5.2179677289e-04 
          1.0825195635e-04 -2.9794210154e-04 -4.4589236087e-04 
          2.4455513195e-04 -5.3653600904e-04 -8.4606857518e-04 
          5.8264120702e-05 -8.1542192685e-04 -1.0505564802e-03 
          -1.3107833596e-04 -8.0938239149e-04 -5.8014586430e-04 
          1.4830176677e-04 -1.3177703218e-03 -1.1802082734e-03 
          5.0227401291e-05 -1.1753193925e-03 -6.5858452115e-04 
          -1.8979568437e-04 -1.5599960538e-04 -4.4298912990e-04 
          3.2057090991e-05 -8.3679502412e-04 -5.8619733705e-04 
          -1.5878184337e-04 -1.0965402653e-03 -6.5728774905e-04 
          -1.1853973834e-04 -5.3074112746e-04 -8.8077296819e-04 
          4.6553340930e-05 -6.9798916222e-04 -1.0887262092e-03 
          -6.2749420589e-05 -1.3571110574e-03 -1.2069332352e-03 
          -8.3510230156e-05 -1.6822124025e-03 -7.7348648116e-04 
          7.1193991699e-05 -1.7374443791e-03 -1.3392901876e-03 
          -1.8736279843e-05 -2.1376244242e-03 -8.5672677784e-04 
          9.4506415103e-05 -2.2531154943e-03 -1.4528918512e-03 
          -6.8965347383e-05 -2.7098543408e-03 -9.4480109125e-04 
          1.5586596599e-05 -2.6902789868e-03 -1.5505192876e-03 
          -3.4426672128e-05 -1.7246191542e-03 -7.8233026284e-04 
          -1.1154767431e-04 -2.1403676661e-03 -8.6423831751e-04 
          -7.9410211401e-05 -2.7572908314e-03 -9.5980458406e-04 
          -7.9611491001e-06 -1.7008972008e-03 -1.3729126320e-03 
          -5.8571904051e-05 -2.3011725430e-03 -1.4819744202e-03 
          -1.6934541339e-05 -2.7354683055e-03 -1.5830487304e-03 
          -2.3809699890e-05 -3.1458581773e-03 -1.7018878900e-03 
          -9.0338618811e-05 -3.1270406042e-03 -1.0030587875e-03 
          -6.2682072537e-05 -3.1365879748e-03 -1.2925578183e-03 
          -2.5968569168e-05 -3.5955317449e-03 -1.0489579593e-03 
          1.5211881695e-04 -3.9305241225e-03 -1.8492369597e-03 
          -2.0706780726e-04 -4.0688914973e-03 -1.6564567319e-03 
          -1.2570973768e-04 -5.0402071428e-03 -2.1192016889e-03 
          -1.7563331333e-04 -4.9974851441e-03 -1.2186616128e-03 
          -1.8087298312e-04 -6.3533050350e-03 -2.2692824884e-03 
          -2.3322860988e-04 -6.3966995181e-03 -1.3442293814e-03 
          7.8150090047e-05 -5.0162455919e-03 -1.6236977178e-03 
          -1.3839695828e-04 -4.4227555256e-03 -1.1621125380e-03 
          -9.1139131207e-05 -4.3865339135e-03 -2.0456737310e-03 
          -5.7821093866e-05 -5.8085671547e-03 -2.1823301346e-03 
          -1.2678410629e-04 -5.5916251048e-03 -1.2638699488e-03 
          -2.0043446504e-04 -6.0364644630e-03 -1.8571958961e-03 
          -2.6603910781e-04 -6.9578144640e-03 -1.3745567727e-03 
          -2.0474894480e-04 -7.0078322505e-03 -2.2984429623e-03 
          -8.5391623714e-05 -3.1870362106e-03 -1.0252793593e-03 
          -1.5518938116e-04 -4.5407035109e-03 -1.1976529875e-03 
          -8.8277702595e-05 -2.9800411922e-03 -9.8320790138e-04 
          -1.6920414947e-04 -5.1228016437e-03 -1.2578691511e-03 
          -2.3994044034e-04 -6.5219871946e-03 -1.3913147726e-03 
          -2.0994885101e-04 -3.6770871998e-03 -1.0768503115e-03 
          -1.3105325608e-04 -3.9223628952e-03 -1.1816408223e-03 
          -1.7221149436e-04 -5.1113383605e-03 -1.2137829318e-03 
          -2.8033053826e-04 -5.7151578719e-03 -1.3068777187e-03 
          -2.1928921443e-04 -6.1163926671e-03 -1.3801924230e-03 
          -2.7182818991e-04 -7.0775880408e-03 -1.4239348198e-03 
          -2.7817311300e-04 -7.5731530218e-03 -1.5613394716e-03 
          -2.8268588370e-04 -7.7943058993e-03 -1.6190525129e-03 
          -2.8674053608e-04 -7.8729089242e-03 -1.6517847363e-03 
          -1.8791355864e-05 -3.2067884476e-03 -1.7413690137e-03 
          -8.9062164222e-05 -4.4995061641e-03 -2.0951953285e-03 
          -2.2109556384e-05 -3.1981889836e-03 -1.3192022878e-03 
          -1.1896322658e-04 -5.1663585537e-03 -2.1658050642e-03 
          -1.8169391079e-04 -6.4772579793e-03 -2.3106971886e-03 
          -2.6274964336e-04 -4.0333786048e-03 -1.8967216976e-03 
          5.2348105934e-06 -4.1737924398e-03 -1.7055364118e-03 
          -4.4141878650e-04 -5.1418139444e-03 -1.6645711099e-03 
          -2.4540283921e-04 -5.9376697486e-03 -2.2253799080e-03 
          -1.8421659858e-04 -6.1629424736e-03 -1.9031785952e-03 
          -2.0956133536e-04 -7.1288296764e-03 -2.3378201927e-03 
          -2.1281785749e-05 -3.0740136141e-03 -1.6600607668e-03 
          -7.2399320794e-05 -4.4123721640e-03 -2.1175200757e-03 
          -1.2220254834e-04 -5.7266043224e-03 -2.1091624108e-03 
          -1.6668288727e-04 -6.2683480541e-03 -2.3141753452e-03 
          -2.4760985335e-04 -7.5098289510e-03 -2.2082132773e-03 
          -2.6929985483e-04 -7.7909369501e-03 -2.1149172392e-03 
          -2.6607418760e-04 -7.8694684676e-03 -2.1295929494e-03 
          3.0068392015e-05 -6.3883129389e-03 -4.2327643124e-03 
          -3.3680540566e-05 -6.7694488427e-03 -3.2522518070e-03 
          -8.7602678956e-06 -6.4132287846e-03 -3.2546695631e-03 
          -4.4680373095e-04 -6.4894244839e-03 -1.8369074007e-04 
          -3.2850948293e-04 -6.7648857521e-03 -7.6908147172e-04 
          -2.9425004565e-04 -6.5206705394e-03 -7.7158463080e-04 
          -3.2862516855e-04 -6.6860274209e-03 -7.3698841400e-04 
          -2.9428453150e-04 -6.4302213970e-03 -7.3930408564e-04 
          -3.3672209144e-05 -6.7409184413e-03 -3.2302878446e-03 
          -8.5433960155e-06 -6.3904213916e-03 -3.2325484180e-03 
          1.1835465828e-04 -4.4170156177e-03 -4.0798919465e-03 
          5.0102650159e-06 -4.8228910825e-03 -3.0776469743e-03 
          6.3931451815e-05 -4.4441453015e-03 -3.0801341465e-03 
          -3.6227880414e-04 -4.5141616217e-03 1.9903698490e-05 
          -3.1401325190e-04 -4.7687297168e-03 -5.6238518342e-04 
          -2.9756976754e-04 -4.5169999107e-03 -5.6484093709e-04 
          -3.1445662835e-04 -4.7373827263e-03 -5.5106513785e-04 
          -2.9754743034e-04 -4.4828049140e-03 -5.5336878978e-04 
          5.5044369485e-06 -4.7707102234e-03 -3.0329742066e-03 
          6.4261411410e-05 -4.4167945275e-03 -3.0351575245e-03 
          9.6259892674e-05 -2.6798022650e-03 -3.1644022673e-03 
          1.3251407973e-05 -2.9994436183e-03 -2.3633399617e-03 
          4.5009830103e-05 -2.7057852412e-03 -2.3657183578e-03 
          -1.5559364191e-04 -2.7622030741e-03 -1.5018761887e-04 
          -4.6351814567e-05 -2.9603318695e-03 -5.3330157430e-04 
          -1.0909080047e-05 -2.7910028142e-03 -5.3590891533e-04 
          -4.6213797699e-05 -2.8903149420e-03 -5.2798284733e-04 
          -1.0807105943e-05 -2.7065568373e-03 -5.3025949270e-04 
          1.3069115462e-05 -2.9614139133e-03 -2.3248642961e-03 
          4.5098930713e-05 -2.6816174713e-03 -2.3271509479e-03 
          -2.1089334411e-04 -7.6066336456e-03 -1.9123069058e-03 
          -2.9528059107e-04 -7.5121527412e-03 -1.8758243209e-03 
          -2.8798180858e-04 -8.5833957991e-03 -1.8391940104e-03 
          -2.8792829607e-04 -8.5822593001e-03 -1.8524394834e-03 
          -2.8968898147e-04 -8.5821296459e-03 -1.9280521557e-03 
          -2.8972484181e-04 -8.5833710284e-03 -1.9079274253e-03 
          -2.6747262381e-03 -2.3293513807e-04 -6.7971995417e-04 
          -2.7159992711e-03 -6.0208320218e-04 -9.9297004794e-04 
          -8.4061311489e-04 -1.0219844831e-03 -8.8806085713e-04 
          -3.1777911743e-05 5.1070958839e-03 3.8404073606e-05 
          -4.5733307954e-05 3.9313159226e-03 -3.7634293768e-04 
          -5.2068431482e-05 5.1933321823e-04 -4.1238625269e-04 
          -1.8695326695e-03 -1.4655305185e-04 -3.5336965798e-04 
          1.9231526363e-03 -5.4343843934e-04 -1.0486210938e-03 
          1.2007785376e-03 -9.9046501303e-04 -8.4646534153e-04 
          7.2003366312e-05 -1.4866884105e-04 -6.6037149426e-04 
          5.7573775522e-05 -9.7968849359e-05 -1.1205728017e-03 
          4.7755592582e-05 -1.0573826076e-03 -1.0751079628e-03 
          -3.1076692632e-04 -1.4695820644e-03 -1.0441390374e-03 
          -4.7865773017e-05 -1.9477248477e-03 -1.0949449870e-03 
          -9.1951965416e-05 -2.4466301071e-03 -1.2538049943e-03 
          -5.6220655887e-05 -1.2827772860e-03 -7.9501511625e-04 
          -6.1846221844e-05 -2.1768006796e-03 -7.9606008603e-04 
          -6.8720974723e-05 -2.3876171535e-03 -9.3180130259e-04 
          2.7753926784e-04 -1.4617464783e-03 -1.1218530768e-03 
          2.1444361078e-05 -1.9626570899e-03 -1.0766900714e-03 
          1.0220215898e-05 -2.4833735845e-03 -1.2878018288e-03 
          3.7979043820e-05 -1.7767368757e-03 -1.3055286694e-03 
          2.5352286421e-05 -2.2557175749e-03 -1.3761774041e-03 
          9.6238936290e-06 -2.6464152889e-03 -1.5489993704e-03 
        </DataArray>
        <DataArray type="Float64" Name="Reaction" NumberOfComponents="3" format="ascii">
          -8.1760102120e+03 8.2566257793e+03 1.0672908196e+05 
          6.8313453898e+02 -4.2417901914e+00 3.9973288564e+00 
          -5.2002683024e+03 -4.5482815019e+03 6.1862272654e+04 
          -6.0850573636e+01 -9.7420586338e+01 -3.3924504617e+01 
          1.1565713242e+03 1.4139225039e+02 -9.1849039028e+02 
          5.6919599415e+02 3.1921729455e+02 -1.7512278200e-01 
          -2.6962801415e+02 8.3062971684e+01 -3.6876530063e+00 
          3.0865758101e+02 2.9331718329e+02 7.7300634984e-01 
          -9.0110121363e-01 2.9547054478e+01 9.9405705180e-01 
          -6.9588733436e+01 4.8002880970e+02 2.5190765903e+00 
          5.9320841020e+03 -5.6675328513e+03 6.6922109842e+04 
          -1.2913959366e+03 5.6734368362e+02 -1.2200518964e+03 
          -3.7458476586e+02 2.0868882558e+02 -4.3629607963e+00 
          5.1410756751e+02 3.1945782852e+02 -3.8239185672e-01 
          -3.7745497852e+02 3.7773897882e+02 2.1399839615e+00 
          -4.5547683883e+02 1.4862942130e+02 8.0118978533e+00 
          5.6389172192e+03 6.2978355865e+03 9.8997091365e+04 
          1.1677787562e+02 -5.4794593419e+01 -3.5745903859e+02 
          7.6654246679e+02 5.3940760144e+02 -2.3244730865e+00 
          -6.5043567384e+02 2.9895496293e+02 -3.9760391373e+00 
          4.7198108060e+02 3.9835467102e+02 1.2040505058e+00 
          5.0040719683e+01 6.2363770763e+02 7.2126714142e-01 
          -1.6802029388e+01 -1.0008297604e+02 -2.4044389575e-01 
          5.5657587011e+02 3.3167225476e+02 7.8657023176e-01 
          2.1427644020e+03 -3.6766119533e+02 1.0017311967e+03 
          3.2976210830e+02 -3.3184076394e+02 -8.0361406538e+01 
          2.1353638195e+02 -2.5057528945e+02 1.2875910357e+02 
          -3.9552371737e+02 -2.8616303028e+02 1.6555977412e+02 
          6.1708088391e+01 -1.3335848027e+02 3.3926996322e+01 
          5.0040606476e+02 -1.1862080834e+02 3.3305907019e+00 
          -2.1878562521e+03 7.5458667349e+02 1.3692909023e+03 
          2.3242670664e+02 -9.3923574487e+02 1.7914685871e+02 
          -5.6283322364e+02 3.0510962965e+02 -2.6929564104e+00 
          -2.8855228846e+02 -1.2933734097e+03 3.2105518539e+02 
          -2.4665783042e+02 3.6476874703e+02 1.0767012168e+02 
          -5.8737600406e+01 -5.8056608679e+02 4.1229415837e+01 
          -2.2886574515e+02 8.4128502145e+01 5.7524465498e-01 
          -2.5855375583e+01 -1.6748081833e+02 6.2379813026e+00 
          1.0226296777e+02 -3.8472781709e+01 5.0426350372e+00 
          1.9373563452e+02 1.1567458405e+02 -4.8018638439e+00 
          1.9982942281e+01 7.2598432009e+01 9.7864104465e-01 
          7.8149412991e+01 5.6269173808e+01 2.0674182940e+00 
          2.5189952713e+02 -2.1128627112e+02 7.1073108107e+00 
          -8.8374366005e+01 1.3046676156e+02 3.3290710703e+00 
          6.8479774159e+01 8.4259205304e+01 2.0201778487e+00 
          8.7226900844e+01 1.9703473725e+02 9.0109991583e+00 
          -5.1747673318e+01 -6.1280611508e+01 1.8420618463e+00 
          1.3887645856e+02 1.4770391986e+02 -1.4299607665e+00 
          4.1203902794e+01 5.3298106868e+01 2.7910403698e-01 
          3.0060739705e+01 5.2036594093e+01 -2.6845875843e-01 
          3.5597271873e+01 7.0327972722e+01 -7.7311349841e-01 
          -1.9301185845e+01 -3.6299456927e+01 2.9454293303e+00 
          2.2932718373e+01 -3.6833891818e+01 1.4361250316e+00 
          -2.5412834007e+02 -3.6249949654e+01 7.7399956590e-01 
          6.8627659194e+00 -1.6950095705e+02 1.1001462163e+00 
          6.2175703958e+01 8.0655086911e+00 9.5934278070e-01 
          -3.1294871612e+01 -1.3746373508e+02 4.2745424373e-01 
          3.2685624878e+01 -1.4842816679e+02 9.9825564126e+00 
          8.5009863934e+02 -1.4578655457e+02 1.4914864260e+00 
          -4.2030608502e+01 -1.5194953512e+02 -5.8260048196e+01 
          -1.1066235814e+02 -2.0682184182e+02 -3.3083480869e+01 
          -1.4024340044e+01 -1.7482198597e+02 2.9792532585e+01 
          4.8244918749e+01 -4.3254894953e+01 3.8583550560e+01 
          -6.1907954477e+01 -6.3192708192e+01 -9.7658983722e-01 
          3.0439066554e+01 -1.7813913022e+01 5.0376902141e-01 
          -8.7347094804e+01 1.9959858917e+01 4.1622355868e-01 
          6.2537111769e-01 4.4118877760e+01 -4.8914339971e-01 
          -8.3073816094e+01 -2.9266638634e+02 -4.5862278441e+01 
          1.9522861293e+00 6.4599303834e+02 -4.3911825441e+00 
          -1.3885330696e+01 2.1174711754e+01 1.1168030707e+00 
          1.0747924580e+01 -1.9082818830e+02 2.4071214875e+00 
          -4.4975929074e+01 2.4851838175e+01 3.5567977865e+00 
          -1.2648573903e+01 2.2886471524e+02 -1.3031721330e+00 
          -6.8759095282e+01 1.0513387139e+02 1.2767577411e+01 
          -1.2055073119e+01 -1.1474217135e+01 3.2657717322e+01 
          2.1841714178e+00 -5.2907752838e+01 1.2009438172e+00 
          9.0038002245e+00 -3.7641808580e+01 -4.1390727951e-02 
          1.6295852103e+01 9.5549832209e+01 -3.7539088135e-01 
          2.7712330919e+01 4.9650837263e+01 4.9271004787e-01 
          1.1749213778e+01 5.4841411589e+01 1.2713853955e+00 
          -1.9578327806e+01 4.2372896240e+01 -2.1885576116e-01 
          -3.5215325988e+01 -2.3821871246e+02 -4.6408653366e+01 
          8.6777997899e+01 3.8524857663e+01 -2.0500054116e-01 
          9.6384089029e+00 -2.6727044780e+02 1.5409531125e+00 
          -4.0270521033e+01 -1.3841442761e+02 4.8729409115e+00 
          -3.8507400739e+01 -1.3061286372e+02 9.7527520964e+00 
          2.6306939391e+02 -6.7272925751e+01 -2.9064706116e-01 
          -1.0365564559e+03 -1.0671397529e+02 1.2032328985e+01 
          3.5347970130e+01 -2.4830550373e+02 3.1204383849e+01 
          7.8173172365e+01 -5.9882267907e+01 7.3552351945e-01 
          -7.4261895265e+01 -7.5953463376e+01 -2.7934222890e-01 
          5.7529268584e+01 6.5244380486e+02 -7.3403105698e+00 
          -3.2741164737e+01 -2.8713461287e+02 1.0118942288e+00 
          -5.4733610137e+01 -1.7191727473e+03 6.2566547244e+00 
          6.9534959824e-01 -1.9248885604e+02 -2.5879248517e-01 
          -1.5956384406e+01 9.0477324130e+01 -5.1392386273e-01 
          -1.4533355398e+01 4.9837013265e+01 2.3403784431e-01 
          -3.0364933540e+00 5.3717053643e+01 1.1382162817e+00 
          -9.3562661717e+00 -6.2601629112e+01 -4.3552074747e-01 
          3.9175088828e+01 -6.8352569809e+00 1.9811913613e-01 
          1.7138996719e+01 -3.5368262777e+01 -1.3485511081e-02 
          -4.3931982638e+01 -5.7003586670e+01 -3.8350270708e-01 
          1.2307983096e+01 -4.0992604296e+01 3.0686266383e-01 
          1.2122381391e+01 -5.7918316314e+01 -4.9148977775e-02 
          2.0134968786e+01 -2.4377594710e+01 2.9037004782e-01 
          1.5898981763e+01 -3.3933651921e+01 -4.3440922573e-02 
          3.3698212307e+01 -2.4566272810e+01 1.8390715213e-01 
          1.7120711431e+01 -5.4370528937e+01 -8.8517438938e-03 
          4.1403320029e+01 -8.1048373869e+01 -2.8171401185e-01 
          -3.4481244491e+01 -1.3386313173e+02 1.6773985989e+00 
          5.5997550171e+01 -6.4345722629e+01 -1.9770485628e+00 
          -1.2434760907e+02 -1.1188663667e+02 -3.0356877904e-01 
          -2.6890150246e+01 -9.3889193305e+01 5.9784391119e-01 
          -2.9611501957e+01 -9.6832081895e+01 -4.9955993905e-01 
          -3.1463913035e+01 -8.1292385465e+01 6.2813987889e-01 
          -3.0161658458e+01 -6.8817375564e+01 -2.9934863411e-01 
          -2.4827212560e+01 -1.2014661734e+02 1.5110045219e+00 
          5.1061626320e+01 -6.6266297181e+01 -1.3153587689e+00 
          6.3144096916e+01 4.0065939744e+01 -2.5002755554e-01 
          -1.0415105943e+01 2.2725532649e+01 1.7995926298e-01 
          -9.2405519307e+00 1.9036786943e+01 -2.0593096262e-01 
          6.0132051344e+01 3.1869274045e+01 -6.3759177399e-01 
          9.0476869859e+00 3.9733261448e+01 1.0303542958e+00 
          7.6145438055e+01 6.1781633161e+00 -6.5521844611e-01 
          1.5947470690e+01 3.4410350742e+01 1.2369190641e+00 
          8.0251852888e+01 3.2589246019e+01 -9.5904084680e-01 
          -4.9023650466e+00 3.2910015814e+01 3.7737203966e-01 
          -1.0385622095e+01 3.1691094435e+01 -2.0932617204e-01 
          1.6941218428e+01 2.0232359804e+01 -1.5156833748e-01 
          1.3208113138e+01 2.2387887548e+01 -7.8859505094e-02 
          1.4430256211e+01 5.1672448325e+01 -5.7934027885e-02 
          1.3790280522e+01 5.6227004397e+01 3.8983708275e-01 
          6.2609094213e+00 5.1421475689e+01 3.4901313346e-01 
          7.0508910778e+00 4.5709943493e+01 -7.2815723909e-02 
          -3.5894861118e+02 -4.0356433920e+01 -2.2391547783e+00 
          -2.9531887942e+02 -6.0853858299e+01 -3.3324490098e+00 
          -8.1076233127e+00 -4.7103460489e+01 2.2966571543e+00 
          3.2848449158e-01 9.0317679266e+02 -4.2590084965e+02 
          -2.3358105397e+01 7.4944480764e+02 -8.5486869392e+01 
          -1.3149286552e+01 2.1726999574e+02 4.0707909148e-01 
          -5.3608857115e+02 -2.2693779949e+01 -1.3722689969e+02 
          2.0601820808e+02 -2.0063429275e+01 -1.1902399032e+01 
          1.4192956668e+02 -4.3835086104e+01 8.6376996343e-01 
          -4.7570595235e+01 1.4803401902e+02 -2.0618503691e+01 
          2.4055674405e+01 2.5039337700e+02 -4.2623901954e+01 
          1.3377185656e+00 1.2041364364e+02 -2.5755351668e+01 
          -4.1006904617e+01 -2.5885412701e+01 -2.7431796205e+00 
          4.1225128487e+01 -5.5578335758e-01 6.0636101642e-01 
          -4.8821724342e+01 1.0173223379e+01 -1.2153051155e-01 
          -1.4290793758e+00 -1.0260279124e+01 1.5562572521e+00 
          -4.6747479246e+00 -1.2647241642e+02 -1.1391756431e+00 
          1.7327634333e+01 1.0177710903e+02 -2.2040440356e+00 
          1.2957743567e+01 -9.0306955034e+00 -5.5118293462e+00 
          -4.1244506056e+01 9.1810939626e+00 3.0090431133e-01 
          3.4373144095e+01 2.1664072151e+01 -1.0293388120e-01 
          7.8459581513e+00 -3.0374151268e+01 -7.2157848142e-01 
          1.0406515156e+01 -1.0093624450e+02 -4.6155180345e-01 
          1.5413773738e+01 -9.6102269629e+01 -3.3390696206e-01 
        </DataArray>
        <DataArray type="Float64" Name="UnbalancedLoad" NumberOfComponents="3" format="ascii">
          0.0000000000e+00 0.0000000000e+00 -6.2132157758e+03 
          0.0000000000e+00 0.0000000000e+00 -6.3666861588e+03 
          0.0000000000e+00 0.0000000000e+00 -6.2129738203e+03 
          0.0000000000e+00 0.0000000000e+00 -1.0031900114e+04 
          0.0000000000e+00 0.0000000000e+00 -1.0031747276e+04 
          0.0000000000e+00 0.0000000000e+00 -6.7879557019e+03 
          0.0000000000e+00 0.0000000000e+00 -6.7888705484e+03 
          0.0000000000e+00 0.0000000000e+00 -5.0789688886e+03 
          0.0000000000e+00 0.0000000000e+00 -5.0797309031e+03 
          0.0000000000e+00 0.0000000000e+00 -6.3664441978e+03 
          0.0000000000e+00 0.0000000000e+00 -6.2132157758e+03 
          0.0000000000e+00 0.0000000000e+00 -1.0031900114e+04 
          0.0000000000e+00 0.0000000000e+00 -6.7888705484e+03 
          0.0000000000e+00 0.0000000000e+00 -6.7888705484e+03 
          0.0000000000e+00 0.0000000000e+00 -5.0797309031e+03 
          0.0000000000e+00 0.0000000000e+00 -6.3664441978e+03 
          0.0000000000e+00 0.0000000000e+00 -6.2132157758e+03 
          0.0000000000e+00 0.0000000000e+00 -1.0031900114e+04 
          0.0000000000e+00 0.0000000000e+00 -6.7888705484e+03 
          0.0000000000e+00 0.0000000000e+00 -6.7888705484e+03 
          0.0000000000e+00 0.0000000000e+00 -5.0797309031e+03 
          0.0000000000e+00 0.0000000000e+00 -6.3664441978e+03 
          0.0000000000e+00 0.0000000000e+00 -6.7888705484e+03 
          0.0000000000e+00 0.0000000000e+00 -6.7888705484e+03 
          0.0000000000e+00 0.0000000000e+00 -3.3842276339e+03 
          0.0000000000e+00 0.0000000000e+00 -3.3842276339e+03 
          0.0000000000e+00 0.0000000000e+00 -3.0566822904e+03 
          0.0000000000e+00 0.0000000000e+00 -3.0566822904e+03 
          0.0000000000e+00 0.0000000000e+00 -2.5162419214e+03 
          0.0000000000e+00 0.0000000000e+00 -2.5162419214e+03 
          0.0000000000e+00 0.0000000000e+00 -3.3842276339e+03 
          0.0000000000e+00 0.0000000000e+00 -3.0566822904e+03 
          0.0000000000e+00 0.0000000000e+00 -2.5162419214e+03 
          0.0000000000e+00 0.0000000000e+00 -3.3842276339e+03 
          0.0000000000e+00 0.0000000000e+00 -3.0566822904e+03 
          0.0000000000e+00 0.0000000000e+00 -2.5162419214e+03 
          0.0000000000e+00 0.0000000000e+00 -2.0261891411e+03 
          0.0000000000e+00 0.0000000000e+00 -2.0261891411e+03 
          0.0000000000e+00 0.0000000000e+00 -1.8332237785e+03 
          0.0000000000e+00 0.0000000000e+00 -1.8332237785e+03 
          0.0000000000e+00 0.0000000000e+00 -2.4981010144e+03 
          0.0000000000e+00 0.0000000000e+00 -2.4981010144e+03 
          0.0000000000e+00 0.0000000000e+00 -2.0261891411e+03 
          0.0000000000e+00 0.0000000000e+00 -1.8332237785e+03 
          0.0000000000e+00 0.0000000000e+00 -2.4981010144e+03 
          0.0000000000e+00 0.0000000000e+00 -2.0261891411e+03 
          0.0000000000e+00 0.0000000000e+00 -1.8332237785e+03 
          0.0000000000e+00 0.0000000000e+00 -2.4981010144e+03 
          0.0000000000e+00 0.0000000000e+00 -1.1522917374e+03 
          0.0000000000e+00 0.0000000000e+00 -1.1522917374e+03 
          0.0000000000e+00 0.0000000000e+00 -1.4407181750e+03 
          0.0000000000e+00 0.0000000000e+00 -1.1822497698e+03 
          0.0000000000e+00 0.0000000000e+00 -1.1822497698e+03 
          0.0000000000e+00 0.0000000000e+00 -6.5722249126e+02 
          0.0000000000e+00 0.0000000000e+00 -8.8607828143e+02 
          0.0000000000e+00 0.0000000000e+00 -8.8607828143e+02 
          0.0000000000e+00 0.0000000000e+00 -2.3545915033e+03 
          0.0000000000e+00 0.0000000000e+00 -2.3545915033e+03 
          0.0000000000e+00 0.0000000000e+00 -1.1745047191e+03 
          0.0000000000e+00 0.0000000000e+00 -2.1572345118e+03 
          0.0000000000e+00 0.0000000000e+00 -2.1572345118e+03 
          0.0000000000e+00 0.0000000000e+00 -1.1822497698e+03 
          0.0000000000e+00 0.0000000000e+00 -1.1822497698e+03 
          0.0000000000e+00 0.0000000000e+00 -6.5722249126e+02 
          0.0000000000e+00 0.0000000000e+00 -2.2526880256e+03 
          0.0000000000e+00 0.0000000000e+00 -2.2526880256e+03 
          0.0000000000e+00 0.0000000000e+00 -1.1522917374e+03 
          0.0000000000e+00 0.0000000000e+00 -2.1572345118e+03 
          0.0000000000e+00 0.0000000000e+00 -1.4407181750e+03 
          0.0000000000e+00 0.0000000000e+00 -8.8607828143e+02 
          0.0000000000e+00 0.0000000000e+00 -2.3545915033e+03 
          0.0000000000e+00 0.0000000000e+00 -1.1822497698e+03 
          0.0000000000e+00 0.0000000000e+00 -6.5722249126e+02 
          0.0000000000e+00 0.0000000000e+00 -1.1745047191e+03 
          0.0000000000e+00 0.0000000000e+00 -1.1822497698e+03 
          0.0000000000e+00 0.0000000000e+00 -6.5722249126e+02 
          0.0000000000e+00 0.0000000000e+00 -2.2526880256e+03 
          0.0000000000e+00 0.0000000000e+00 -6.2524087470e+02 
          0.0000000000e+00 0.0000000000e+00 -7.5553972806e+02 
          0.0000000000e+00 0.0000000000e+00 -7.5553972806e+02 
          0.0000000000e+00 0.0000000000e+00 -1.1522917374e+03 
          0.0000000000e+00 0.0000000000e+00 -2.1572345118e+03 
          0.0000000000e+00 0.0000000000e+00 -1.4407181750e+03 
          0.0000000000e+00 0.0000000000e+00 -8.8607828143e+02 
          0.0000000000e+00 0.0000000000e+00 -2.3545915033e+03 
          0.0000000000e+00 0.0000000000e+00 -1.1822497698e+03 
          0.0000000000e+00 0.0000000000e+00 -6.5722249126e+02 
          0.0000000000e+00 0.0000000000e+00 -1.1745047191e+03 
          0.0000000000e+00 0.0000000000e+00 -1.1822497698e+03 
          0.0000000000e+00 0.0000000000e+00 -6.5722249126e+02 
          0.0000000000e+00 0.0000000000e+00 -2.2526880256e+03 
          0.0000000000e+00 0.0000000000e+00 -1.4407181750e+03 
          0.0000000000e+00 0.0000000000e+00 -6.5722249126e+02 
          0.0000000000e+00 0.0000000000e+00 -1.1745047191e+03 
          0.0000000000e+00 0.0000000000e+00 -6.5722249126e+02 
          0.0000000000e+00 0.0000000000e+00 -6.2524087470e+02 
          0.0000000000e+00 0.0000000000e+00 -7.5553972806e+02 
          0.0000000000e+00 0.0000000000e+00 -7.5553972806e+02 
          0.0000000000e+00 0.0000000000e+00 -9.7687951937e+02 
          0.0000000000e+00 0.0000000000e+00 -9.7688670140e+02 
          0.0000000000e+00 0.0000000000e+00 -6.9341662469e+02 
          0.0000000000e+00 0.0000000000e+00 -9.7687951937e+02 
          0.0000000000e+00 0.0000000000e+00 -9.7688670140e+02 
          0.0000000000e+00 0.0000000000e+00 -6.9341662469e+02 
          0.0000000000e+00 0.0000000000e+00 -9.7688670140e+02 
          0.0000000000e+00 0.0000000000e+00 -6.9341662469e+02 
          0.0000000000e+00 0.0000000000e+00 -9.7688670140e+02 
          0.0000000000e+00 0.0000000000e+00 -6.9341662469e+02 
          0.0000000000e+00 0.0000000000e+00 -9.7687951937e+02 
          0.0000000000e+00 0.0000000000e+00 -9.7688670140e+02 
          0.0000000000e+00 0.0000000000e+00 -6.9341662469e+02 
          0.0000000000e+00 0.0000000000e+00 -9.7687951937e+02 
          0.0000000000e+00 0.0000000000e+00 -9.7688670140e+02 
          0.0000000000e+00 0.0000000000e+00 -6.9341662469e+02 
          0.0000000000e+00 0.0000000000e+00 -9.7688670140e+02 
          0.0000000000e+00 0.0000000000e+00 -6.9341662469e+02 
          0.0000000000e+00 0.0000000000e+00 -9.7688670140e+02 
          0.0000000000e+00 0.0000000000e+00 -6.9341662469e+02 
          0.0000000000e+00 0.0000000000e+00 -9.7687951937e+02 
          0.0000000000e+00 0.0000000000e+00 -9.7688670140e+02 
          0.0000000000e+00 0.0000000000e+00 -6.9341662469e+02 
          0.0000000000e+00 0.0000000000e+00 -9.7687951937e+02 
          0.0000000000e+00 0.0000000000e+00 -9.7688670140e+02 
          0.0000000000e+00 0.0000000000e+00 -6.9341662469e+02 
          0.0000000000e+00 0.0000000000e+00 -9.7688670140e+02 
          0.0000000000e+00 0.0000000000e+00 -6.9341662469e+02 
          0.0000000000e+00 0.0000000000e+00 -9.7688670140e+02 
          0.0000000000e+00 0.0000000000e+00 -6.9341662469e+02 
          0.0000000000e+00 0.0000000000e+00 -6.2673048820e+02 
          0.0000000000e+00 0.0000000000e+00 -6.2673048820e+02 
          0.0000000000e+00 0.0000000000e+00 -1.7132433555e+02 
          0.0000000000e+00 0.0000000000e+00 -1.7132433555e+02 
          0.0000000000e+00 0.0000000000e+00 -1.7132433555e+02 
          0.0000000000e+00 0.0000000000e+00 -1.7132433555e+02 
          0.0000000000e+00 0.0000000000e+00 -8.3362381955e+02 
          0.0000000000e+00 0.0000000000e+00 -7.5300308131e+02 
          0.0000000000e+00 0.0000000000e+00 -6.7886703720e+02 
          0.0000000000e+00 0.0000000000e+00 -8.3362381955e+02 
          0.0000000000e+00 0.0000000000e+00 -7.5300308131e+02 
          0.0000000000e+00 0.0000000000e+00 -6.7886703720e+02 
          0.0000000000e+00 0.0000000000e+00 -8.3362381955e+02 
          0.0000000000e+00 0.0000000000e+00 -7.5300308131e+02 
          0.0000000000e+00 0.0000000000e+00 -6.7886703720e+02 
          0.0000000000e+00 0.0000000000e+00 -8.3362381955e+02 
          0.0000000000e+00 0.0000000000e+00 -7.5300308131e+02 
          0.0000000000e+00 0.0000000000e+00 -6.7886703720e+02 
          0.0000000000e+00 0.0000000000e+00 -6.1214093532e+02 
          0.0000000000e+00 0.0000000000e+00 -5.5093702983e+02 
          0.0000000000e+00 0.0000000000e+00 -4.9939885463e+02 
          0.0000000000e+00 0.0000000000e+00 -6.1214093532e+02 
          0.0000000000e+00 0.0000000000e+00 -5.5093702983e+02 
          0.0000000000e+00 0.0000000000e+00 -4.9939885463e+02 
          0.0000000000e+00 0.0000000000e+00 -6.1214093532e+02 
          0.0000000000e+00 0.0000000000e+00 -5.5093702983e+02 
          0.0000000000e+00 0.0000000000e+00 -4.9939885463e+02 
          0.0000000000e+00 0.0000000000e+00 -6.1214093532e+02 
          0.0000000000e+00 0.0000000000e+00 -5.5093702983e+02 
          0.0000000000e+00 0.0000000000e+00 -4.9939885463e+02 
        </DataArray>
      </PointData>
      <CellData>
        <DataArray type="Int64" Name="ElementTag" format="ascii">
          0
        </DataArray>
      </CellData>
    </Piece>
  </UnstructuredGrid>
</VTKFile>
