<?xml version="1.0"?>
<VTKFile type="UnstructuredGrid" version="1.0" byte_order="LittleEndian" compressor="vtkZLibDataCompressor">
  <UnstructuredGrid>
    <Piece NumberOfPoints="158" NumberOfCells="1">
      <Points>
        <DataArray type="Float64" Name="Points" NumberOfComponents="3" format="ascii">
          1.7550000000e+00 -1.7550000000e+00 0.0000000000e+00 
          1.4140000000e+00 0.0000000000e+00 5.2300000000e+00 
          1.7550000000e+00 1.7550000000e+00 -0.0000000000e+00 
          1.4140000000e+00 -1.4140000000e+00 5.2300000000e+00 
          1.4140000000e+00 1.4140000000e+00 5.2300000000e+00 
          1.5840000000e+00 8.7800000000e-01 2.6150000000e+00 
          1.5840000000e+00 -8.7700000000e-01 2.6150000000e+00 
          1.5840000000e+00 1.5840000000e+00 2.6150000000e+00 
          1.5840000000e+00 -1.5840000000e+00 2.6150000000e+00 
          -0.0000000000e+00 1.4140000000e+00 5.2300000000e+00 
          -1.7550000000e+00 1.7550000000e+00 -0.0000000000e+00 
          -1.4140000000e+00 1.4140000000e+00 5.2300000000e+00 
          -8.7700000000e-01 1.5840000000e+00 2.6150000000e+00 
          8.7700000000e-01 1.5840000000e+00 2.6150000000e+00 
          -1.5840000000e+00 1.5840000000e+00 2.6150000000e+00 
          -1.4140000000e+00 -0.0000000000e+00 5.2300000000e+00 
          -1.7550000000e+00 -1.7550000000e+00 -0.0000000000e+00 
          -1.4140000000e+00 -1.4140000000e+00 5.2300000000e+00 
          -1.5840000000e+00 -8.7700000000e-01 2.6150000000e+00 
          -1.5840000000e+00 8.7700000000e-01 2.6150000000e+00 
          -1.5840000000e+00 -1.5840000000e+00 2.6150000000e+00 
          0.0000000000e+00 -1.4140000000e+00 5.2300000000e+00 
          8.7700000000e-01 -1.5840000000e+00 2.6150000000e+00 
          -8.7700000000e-01 -1.5840000000e+00 2.6150000000e+00 
          1.2750000000e+00 1.2750000000e+00 7.3500000000e+00 
          1.2750000000e+00 -1.2750000000e+00 7.3500000000e+00 
          1.1500000000e+00 -1.1500000000e+00 9.2700000000e+00 
          1.1500000000e+00 1.1500000000e+00 9.2700000000e+00 
          1.0370000000e+00 -1.0370000000e+00 1.1000000000e+01 
          1.0370000000e+00 1.0370000000e+00 1.1000000000e+01 
          -1.2750000000e+00 1.2750000000e+00 7.3500000000e+00 
          -1.1500000000e+00 1.1500000000e+00 9.2700000000e+00 
          -1.0370000000e+00 1.0370000000e+00 1.1000000000e+01 
          -1.2750000000e+00 -1.2750000000e+00 7.3500000000e+00 
          -1.1500000000e+00 -1.1500000000e+00 9.2700000000e+00 
          -1.0370000000e+00 -1.0370000000e+00 1.1000000000e+01 
          9.3500000000e-01 9.3500000000e-01 1.2560000000e+01 
          9.3500000000e-01 -9.3500000000e-01 1.2560000000e+01 
          8.4300000000e-01 8.4300000000e-01 1.3960000000e+01 
          8.4300000000e-01 -8.4300000000e-01 1.3960000000e+01 
          7.6000000000e-01 7.6000000000e-01 1.5240000000e+01 
          7.6000000000e-01 -7.6000000000e-01 1.5240000000e+01 
          -9.3500000000e-01 9.3500000000e-01 1.2560000000e+01 
          -8.4300000000e-01 8.4300000000e-01 1.3960000000e+01 
          -7.6000000000e-01 7.6000000000e-01 1.5240000000e+01 
          -9.3500000000e-01 -9.3500000000e-01 1.2560000000e+01 
          -8.4300000000e-01 -8.4300000000e-01 1.3960000000e+01 
          -7.6000000000e-01 -7.6000000000e-01 1.5240000000e+01 
          7.6000000000e-01 -7.6000000000e-01 1.6240000000e+01 
          7.6000000000e-01 7.6000000000e-01 1.6240000000e+01 
          7.6000000000e-01 0.0000000000e+00 1.6240000000e+01 
          7.6000000000e-01 7.6000000000e-01 1.7340000000e+01 
          7.6000000000e-01 -7.6000000000e-01 1.7340000000e+01 
          7.6000000000e-01 0.0000000000e+00 1.7890000000e+01 
          7.6000000000e-01 -7.6000000000e-01 1.9440000000e+01 
          7.6000000000e-01 7.6000000000e-01 1.9440000000e+01 
          7.6000000000e-01 -7.6000000000e-01 2.1640000000e+01 
          7.6000000000e-01 7.6000000000e-01 2.1640000000e+01 
          7.6000000000e-01 0.0000000000e+00 1.9440000000e+01 
          7.6000000000e-01 7.6000000000e-01 1.8440000000e+01 
          7.6000000000e-01 -7.6000000000e-01 1.8440000000e+01 
          7.6000000000e-01 -7.6000000000e-01 2.0540000000e+01 
          7.6000000000e-01 7.6000000000e-01 2.0540000000e+01 
          7.6000000000e-01 0.0000000000e+00 2.1090000000e+01 
          7.6000000000e-01 7.6000000000e-01 2.2640000000e+01 
          7.6000000000e-01 -7.6000000000e-01 2.2640000000e+01 
          -7.6000000000e-01 7.6000000000e-01 1.6240000000e+01 
          -7.6000000000e-01 7.6000000000e-01 1.8440000000e+01 
          -0.0000000000e+00 7.6000000000e-01 1.6240000000e+01 
          -7.6000000000e-01 7.6000000000e-01 1.9440000000e+01 
          -7.6000000000e-01 7.6000000000e-01 2.1640000000e+01 
          -7.6000000000e-01 7.6000000000e-01 1.7340000000e+01 
          -0.0000000000e+00 7.6000000000e-01 1.7890000000e+01 
          -0.0000000000e+00 7.6000000000e-01 1.9440000000e+01 
          -7.6000000000e-01 7.6000000000e-01 2.0540000000e+01 
          0.0000000000e+00 7.6000000000e-01 2.1090000000e+01 
          -7.6000000000e-01 7.6000000000e-01 2.2640000000e+01 
          -0.0000000000e+00 5.2600000000e-01 2.3499000000e+01 
          3.9900000000e-01 4.0400000000e-01 2.3950000000e+01 
          -3.9900000000e-01 4.0400000000e-01 2.3950000000e+01 
          -7.6000000000e-01 -7.6000000000e-01 1.6240000000e+01 
          -7.6000000000e-01 -7.6000000000e-01 1.8440000000e+01 
          -7.6000000000e-01 -0.0000000000e+00 1.6240000000e+01 
          -7.6000000000e-01 -7.6000000000e-01 1.9440000000e+01 
          -7.6000000000e-01 -7.6000000000e-01 2.1640000000e+01 
          -7.6000000000e-01 -7.6000000000e-01 1.7340000000e+01 
          -7.6000000000e-01 0.0000000000e+00 1.7890000000e+01 
          -7.6000000000e-01 -0.0000000000e+00 1.9440000000e+01 
          -7.6000000000e-01 -7.6000000000e-01 2.0540000000e+01 
          -7.6000000000e-01 -0.0000000000e+00 2.1090000000e+01 
          -7.6000000000e-01 -7.6000000000e-01 2.2640000000e+01 
          0.0000000000e+00 -7.6000000000e-01 1.6240000000e+01 
          0.0000000000e+00 -7.6000000000e-01 1.7890000000e+01 
          0.0000000000e+00 -7.6000000000e-01 1.9440000000e+01 
          0.0000000000e+00 -7.6000000000e-01 2.1090000000e+01 
          0.0000000000e+00 -5.2600000000e-01 2.3499000000e+01 
          3.9900000000e-01 -4.0400000000e-01 2.3950000000e+01 
          -3.9900000000e-01 -4.0400000000e-01 2.3950000000e+01 
          -0.0000000000e+00 -3.3500000000e+00 2.1640000000e+01 
          -3.8000000000e-01 -2.0550000000e+00 2.2140000000e+01 
          -3.8000000000e-01 -2.0550000000e+00 2.1640000000e+01 
          0.0000000000e+00 3.3500000000e+00 2.1640000000e+01 
          -3.8000000000e-01 2.0550000000e+00 2.2140000000e+01 
          -3.8000000000e-01 2.0550000000e+00 2.1640000000e+01 
          3.8000000000e-01 2.0550000000e+00 2.2140000000e+01 
          3.8000000000e-01 2.0550000000e+00 2.1640000000e+01 
          3.8000000000e-01 -2.0550000000e+00 2.2140000000e+01 
          3.8000000000e-01 -2.0550000000e+00 2.1640000000e+01 
          -0.0000000000e+00 -3.3500000000e+00 1.8440000000e+01 
          -3.8000000000e-01 -2.0550000000e+00 1.8940000000e+01 
          -3.8000000000e-01 -2.0550000000e+00 1.8440000000e+01 
          -0.0000000000e+00 3.3500000000e+00 1.8440000000e+01 
          -3.8000000000e-01 2.0550000000e+00 1.8940000000e+01 
          -3.8000000000e-01 2.0550000000e+00 1.8440000000e+01 
          3.8000000000e-01 2.0550000000e+00 1.8940000000e+01 
          3.8000000000e-01 2.0550000000e+00 1.8440000000e+01 
          3.8000000000e-01 -2.0550000000e+00 1.8940000000e+01 
          3.8000000000e-01 -2.0550000000e+00 1.8440000000e+01 
          -0.0000000000e+00 -3.3500000000e+00 1.5240000000e+01 
          -3.8000000000e-01 -2.0550000000e+00 1.5740000000e+01 
          -3.8000000000e-01 -2.0550000000e+00 1.5240000000e+01 
          -0.0000000000e+00 3.3500000000e+00 1.5240000000e+01 
          -3.8000000000e-01 2.0550000000e+00 1.5740000000e+01 
          -3.8000000000e-01 2.0550000000e+00 1.5240000000e+01 
          3.8000000000e-01 2.0550000000e+00 1.5740000000e+01 
          3.8000000000e-01 2.0550000000e+00 1.5240000000e+01 
          3.8000000000e-01 -2.0550000000e+00 1.5740000000e+01 
          3.8000000000e-01 -2.0550000000e+00 1.5240000000e+01 
          -5.2400000000e-01 0.0000000000e+00 2.3496000000e+01 
          5.2400000000e-01 0.0000000000e+00 2.3496000000e+01 
          4.0000000000e-02 5.0000000000e-02 2.5250000000e+01 
          -4.0000000000e-02 5.0000000000e-02 2.5250000000e+01 
          -4.0000000000e-02 -5.0000000000e-02 2.5250000000e+01 
          4.0000000000e-02 -5.0000000000e-02 2.5250000000e+01 
          1.3410000000e+00 0.0000000000e+00 6.3450000000e+00 
          1.2090000000e+00 0.0000000000e+00 8.3600000000e+00 
          1.0900000000e+00 -0.0000000000e+00 1.0180000000e+01 
          -0.0000000000e+00 1.3410000000e+00 6.3450000000e+00 
          0.0000000000e+00 1.2090000000e+00 8.3600000000e+00 
          -0.0000000000e+00 1.0900000000e+00 1.0180000000e+01 
          -1.3410000000e+00 0.0000000000e+00 6.3450000000e+00 
          -1.2090000000e+00 0.0000000000e+00 8.3600000000e+00 
          -1.0900000000e+00 -0.0000000000e+00 1.0180000000e+01 
          -0.0000000000e+00 -1.3410000000e+00 6.3450000000e+00 
          0.0000000000e+00 -1.2090000000e+00 8.3600000000e+00 
          0.0000000000e+00 -1.0900000000e+00 1.0180000000e+01 
          9.8300000000e-01 0.0000000000e+00 1.1820000000e+01 
          8.8700000000e-01 0.0000000000e+00 1.3296000000e+01 
          8.0000000000e-01 -0.0000000000e+00 1.4633000000e+01 
          0.0000000000e+00 9.8300000000e-01 1.1820000000e+01 
          -0.0000000000e+00 8.8700000000e-01 1.3296000000e+01 
          0.0000000000e+00 8.0000000000e-01 1.4633000000e+01 
          -9.8300000000e-01 0.0000000000e+00 1.1820000000e+01 
          -8.8700000000e-01 0.0000000000e+00 1.3296000000e+01 
          -8.0000000000e-01 0.0000000000e+00 1.4633000000e+01 
          0.0000000000e+00 -9.8300000000e-01 1.1820000000e+01 
          0.0000000000e+00 -8.8700000000e-01 1.3296000000e+01 
          0.0000000000e+00 -8.0000000000e-01 1.4633000000e+01 
        </DataArray>
      </Points>
      <Cells>
        <DataArray type="Int64" Name="connectivity" format="ascii">
          0
          1
          2
          3
          4
          5
          6
          7
          8
          9
          10
          11
          12
          13
          14
          15
          16
          17
          18
          19
          20
          21
          22
          23
          24
          25
          26
          27
          28
          29
          30
          31
          32
          33
          34
          35
          36
          37
          38
          39
          40
          41
          42
          43
          44
          45
          46
          47
          48
          49
          50
          51
          52
          53
          54
          55
          56
          57
          58
          59
          60
          61
          62
          63
          64
          65
          66
          67
          68
          69
          70
          71
          72
          73
          74
          75
          76
          77
          78
          79
          80
          81
          82
          83
          84
          85
          86
          87
          88
          89
          90
          91
          92
          93
          94
          95
          96
          97
          98
          99
          100
          101
          102
          103
          104
          105
          106
          107
          108
          109
          110
          111
          112
          113
          114
          115
          116
          117
          118
          119
          120
          121
          122
          123
          124
          125
          126
          127
          128
          129
          130
          131
          132
          133
          134
          135
          136
          137
          138
          139
          140
          141
          142
          143
          144
          145
          146
          147
          148
          149
          150
          151
          152
          153
          154
          155
          156
          157
        </DataArray>
        <DataArray type="Int64" Name="offsets" format="ascii">
          158
        </DataArray>
        <DataArray type="Int64" Name="types" format="ascii">
          2
        </DataArray>
      </Cells>
      <PointData>
        <DataArray type="Int64" Name="NodeTag" format="ascii">
          1
          2
          3
          4
          5
          6
          7
          8
          9
          10
          11
          12
          13
          14
          15
          16
          17
          18
          19
          20
          21
          22
          23
          24
          25
          26
          27
          28
          29
          30
          31
          32
          33
          34
          35
          36
          37
          38
          39
          40
          41
          42
          43
          44
          45
          46
          47
          48
          49
          50
          51
          52
          53
          54
          55
          56
          57
          58
          59
          60
          61
          62
          63
          64
          65
          66
          67
          68
          69
          70
          71
          72
          73
          74
          75
          76
          77
          78
          79
          80
          81
          82
          83
          84
          85
          86
          87
          88
          89
          90
          91
          92
          93
          94
          95
          96
          97
          98
          99
          100
          101
          102
          103
          104
          105
          106
          107
          108
          109
          110
          111
          112
          113
          114
          115
          116
          117
          118
          119
          120
          121
          122
          123
          124
          125
          126
          127
          128
          129
          130
          131
          132
          133
          134
          135
          136
          137
          138
          139
          140
          141
          142
          143
          144
          145
          146
          147
          148
          149
          150
          151
          152
          153
          154
          155
          156
          157
          158
        </DataArray>
        <DataArray type="Float64" Name="Displacement" NumberOfComponents="3" format="ascii">
          0.0000000000e+00 0.0000000000e+00 0.0000000000e+00 
          2.8450021008e-16 5.1929986935e-16 4.2982015826e-18 
          0.0000000000e+00 0.0000000000e+00 0.0000000000e+00 
          8.1571279327e-16 5.4222198065e-16 -7.3298504537e-17 
          8.0715126887e-16 5.2597778835e-16 1.1266993357e-16 
          1.2904650620e-15 3.1520545642e-16 1.1235905727e-16 
          1.2110998178e-15 4.5419843040e-16 -3.5097396992e-17 
          1.2653907575e-15 3.1293077219e-16 1.5775597213e-16 
          4.3455998995e-16 4.5350304807e-16 9.3152865006e-18 
          7.8633142635e-16 3.5056904266e-16 -8.7220194804e-17 
          0.0000000000e+00 0.0000000000e+00 0.0000000000e+00 
          7.9387841636e-16 3.5866688430e-16 8.6107847981e-17 
          5.5560947352e-16 6.5407854299e-16 -5.8155072994e-17 
          1.2474343293e-15 -1.1093578140e-16 1.2966217645e-16 
          5.4657910678e-16 7.9530708972e-16 1.1321234166e-16 
          2.1530011441e-15 3.5286439148e-16 -1.7729699120e-16 
          0.0000000000e+00 0.0000000000e+00 0.0000000000e+00 
          9.0694352483e-16 3.6354653882e-16 3.2701627236e-17 
          9.3834459063e-16 2.5545000252e-16 -7.9061618521e-17 
          1.0974302633e-16 7.9708110894e-16 1.3029564425e-16 
          3.9443603018e-16 2.6274868772e-16 1.6724569760e-16 
          8.3006575312e-16 1.5359645932e-15 -2.1727779931e-16 
          4.3663056636e-16 5.4948468128e-16 -7.4035275379e-17 
          4.1816867408e-16 5.1870330453e-16 -1.9957928954e-16 
          9.1224545614e-16 6.1127041993e-16 2.4797983499e-17 
          1.3878491753e-15 3.6385839267e-16 -8.4146465609e-17 
          1.7229733861e-15 5.8659806486e-16 -1.0600148210e-16 
          1.4005682740e-15 4.8863129167e-16 -3.1653201227e-17 
          2.0149648583e-15 6.5596459503e-16 -9.4275039267e-17 
          1.3497460475e-15 5.6517012725e-16 -7.1776353066e-17 
          1.0902497650e-15 3.6271363032e-16 1.3446439607e-16 
          1.0038230629e-15 7.1391167037e-16 2.1365130458e-16 
          1.5789017395e-15 3.4053016132e-16 1.8991676820e-16 
          1.2411378368e-15 7.0955094422e-16 5.5497792197e-17 
          1.8030847340e-15 4.3023487992e-16 3.8254346644e-17 
          2.0375754205e-15 4.6807499277e-16 -3.6867304201e-18 
          1.8856331864e-15 7.6080356448e-16 -4.0869356849e-17 
          2.2996352917e-15 4.1316191832e-16 -7.5831419891e-17 
          2.4886483445e-15 4.7390804181e-16 3.0109540434e-18 
          2.2522459968e-15 6.4035316786e-16 -8.2548137797e-17 
          2.8682226833e-15 4.9600142785e-16 1.2054660383e-16 
          2.3308226746e-15 5.5345438064e-16 -3.4419466871e-17 
          1.9719638665e-15 2.3336200504e-16 1.9056106168e-16 
          2.4095308738e-15 2.2699317691e-16 1.3147472678e-16 
          2.8978376322e-15 2.1871563336e-16 4.1207537074e-17 
          2.1420931014e-15 1.5525021037e-16 -3.0836800167e-17 
          2.4064708243e-15 8.5168904858e-17 -1.0801259549e-16 
          2.2992594487e-15 1.4478531844e-16 -2.0354747782e-16 
          2.1891009578e-15 3.3988264157e-16 3.5300777930e-17 
          2.9402596391e-15 3.5892736864e-16 3.8087615869e-16 
          2.0240187112e-15 3.4616120615e-16 1.4429261420e-16 
          2.3107811983e-15 -3.8054546479e-16 6.6239098834e-16 
          1.6415740491e-15 2.9365650230e-18 1.1783303841e-16 
          2.1984253164e-15 -4.3690623428e-16 6.2326255664e-16 
          -3.9456551482e-16 -1.3926240756e-15 4.3147537795e-16 
          5.9480975591e-16 -1.4350575266e-15 1.2216969139e-15 
          -3.9264157066e-15 -3.0922778617e-15 7.8973387933e-16 
          -3.0268966410e-15 -3.0346867912e-15 1.4466580998e-15 
          9.6945540999e-18 -1.4328813609e-15 7.6356002717e-16 
          1.6458724514e-15 -7.8807998915e-16 1.0419990743e-15 
          6.2927134792e-16 -7.4592473510e-16 2.8230120899e-16 
          -2.1431907277e-15 -2.2105428526e-15 5.7003506388e-16 
          -1.0696325446e-15 -2.4872321514e-15 1.4056516496e-15 
          -1.6904792494e-15 -2.7427765239e-15 1.1438878984e-15 
          -4.7633177080e-15 -3.5056043780e-15 1.3995969060e-15 
          -5.7187524616e-15 -3.4383343283e-15 9.4086338392e-16 
          2.9590695295e-15 6.3062974041e-17 -7.5820774616e-17 
          1.6244540280e-15 -4.9454562315e-16 -4.9767941008e-16 
          2.9492284953e-15 -2.0619160889e-16 1.0804175738e-16 
          5.7678211158e-16 -1.0092885272e-15 -6.8417395713e-16 
          -3.0037211875e-15 -1.4242811234e-15 -1.1407908937e-15 
          2.5536858644e-15 9.7214797249e-17 -2.4552399617e-16 
          2.1494455134e-15 -4.5209399724e-16 3.4084871498e-16 
          5.8402243426e-16 -1.8208828899e-15 2.8829801756e-16 
          -1.2601965727e-15 -9.8574085704e-16 -9.3706966442e-16 
          -2.0462443320e-15 -2.3634740985e-15 1.1673181426e-16 
          -4.7882060167e-15 -1.7161039163e-15 -1.1962858119e-15 
          -6.5531329990e-15 -2.3523906162e-15 2.2654532965e-16 
          -7.2504326934e-15 -3.5258225742e-15 5.2748772646e-16 
          -7.6157827984e-15 -2.3044039855e-15 -6.6117990725e-16 
          2.1661777744e-15 9.9079734783e-17 -4.3501125773e-16 
          6.5139428361e-16 -5.6372471810e-16 -1.1000916903e-15 
          2.1446086933e-15 8.3062035505e-17 -2.2116442670e-16 
          -4.0683364338e-16 -9.5672553396e-16 -1.2600906738e-15 
          -3.9229268620e-15 -1.4129272964e-15 -1.6054894732e-15 
          1.3746203484e-15 -4.6274312169e-16 -7.2031882164e-16 
          2.3390726978e-15 -3.3296960467e-16 -8.2791986966e-16 
          1.5298460220e-16 -9.5034455134e-16 -9.6628110101e-16 
          -2.1224136711e-15 -1.3682809396e-15 -1.4353426345e-15 
          -2.0749824144e-15 -1.3049046582e-15 -1.4342466161e-15 
          -5.6565460788e-15 -1.7514848191e-15 -1.6482635792e-15 
          2.1751011339e-15 1.6143681401e-16 -1.6929583348e-16 
          1.1739708898e-15 -8.1765355929e-16 -4.5174515506e-16 
          -4.1441625191e-16 -1.6274882183e-15 -4.2061025248e-16 
          -2.9581208645e-15 -2.2132991236e-15 -4.1487797272e-16 
          -6.9749541553e-15 -6.1501162660e-15 7.1876451518e-16 
          -7.6074605445e-15 -3.4812918662e-15 5.4657653709e-16 
          -7.7294016874e-15 -2.2871501311e-15 -9.4082388661e-16 
          -6.8689898506e-15 -2.4166175783e-15 -4.8016466075e-16 
          -6.8508718901e-15 -2.1315218901e-15 -1.4966348454e-15 
          -5.5211213448e-15 -1.9373596880e-15 -1.5100399934e-15 
          1.9054272512e-16 -2.1136345210e-15 1.7883806242e-15 
          -3.9824754035e-15 -1.5683908958e-15 -1.2528840008e-16 
          -1.4299563574e-15 -1.7491865967e-15 -1.3078206464e-16 
          -3.9870435269e-15 -3.3145655362e-15 1.6602090735e-15 
          -1.4188082619e-15 -2.5881320900e-15 1.6671896367e-15 
          -6.8850727513e-15 -2.6049063291e-15 -1.6321541710e-16 
          -5.4885475347e-15 -2.7434645226e-15 -1.6108380905e-16 
          3.8556605155e-16 -6.2409333995e-16 -1.7882646221e-15 
          8.4554088695e-16 -6.1074702305e-16 -1.2821285521e-15 
          1.7881856939e-15 -2.2786415698e-16 -1.2787162444e-15 
          2.2913185124e-15 -6.2509008729e-16 1.9951514247e-15 
          5.1048445735e-15 -1.9209787416e-15 6.8543653979e-16 
          5.1724833161e-15 -1.4990208349e-15 6.9182027455e-16 
          5.0911165259e-15 3.7415090241e-17 1.5871502594e-15 
          5.1830168532e-15 2.2654608755e-16 1.5855263090e-15 
          8.3985333697e-16 -1.2296608147e-15 -7.0457850152e-16 
          1.7904140616e-15 -1.0486714143e-15 -7.0149512635e-16 
          2.9284003495e-15 3.5680023527e-16 -5.0041918355e-16 
          1.4828423109e-15 -1.6105310589e-16 -2.0485258085e-16 
          8.2417848445e-16 -2.6662324575e-16 -1.9975679135e-16 
          2.4684287778e-15 4.3946699711e-16 9.0310899613e-16 
          4.1183966217e-15 -2.1104988275e-16 3.3070565534e-16 
          3.6782558009e-15 3.9807512459e-17 3.3481986499e-16 
          4.0946883866e-15 7.1581837657e-16 3.6210880929e-16 
          3.7031586206e-15 7.8406450228e-16 3.5652294850e-16 
          1.4857707706e-15 7.0301959603e-16 -3.9190786417e-16 
          8.2250899293e-16 9.9200427669e-16 -3.9587266330e-16 
          -6.1014235097e-15 -2.1274822695e-15 -1.2375564127e-15 
          -8.9060585860e-15 -3.5884622553e-15 1.1531653255e-16 
          -9.7563247177e-15 -2.5890289928e-15 -2.8714285351e-17 
          -9.7502962049e-15 -2.4878966581e-15 -7.9591736880e-17 
          -9.8835384709e-15 -2.4920142524e-15 -2.8667499809e-16 
          -9.8770742742e-15 -2.5843863572e-15 -2.4685135138e-16 
          3.2350106926e-15 5.0679671909e-16 2.3395604090e-16 
          1.2413558410e-15 5.0810285436e-16 -1.6194785163e-16 
          2.3028007815e-15 5.7098590275e-16 -3.1777528950e-17 
          8.7671697342e-16 -2.4517338288e-15 -1.7023961730e-16 
          1.0826222427e-15 1.3033830561e-15 3.1813850246e-16 
          1.3256915946e-15 2.7651131130e-15 2.4564569965e-17 
          1.9243232876e-15 4.5991982827e-16 -9.1434161073e-17 
          2.6070775546e-15 5.7193032261e-16 2.2651997015e-16 
          1.1789688878e-15 4.9506477125e-16 1.0670460010e-17 
          1.0851894337e-15 -9.8981796155e-16 1.5600582918e-16 
          1.5561641239e-15 6.5425242929e-16 -1.0740898138e-16 
          1.9139091782e-15 3.0749720270e-15 -1.9600286412e-16 
          -2.1692534851e-15 5.9982315078e-16 -1.8642100307e-16 
          1.9466583335e-15 5.7555289744e-16 -2.3200582461e-16 
          2.1661565906e-15 5.5066894387e-16 1.1274199658e-17 
          1.7022111339e-15 -2.6260231415e-15 -1.0087269936e-16 
          2.2205244838e-15 1.0877525775e-15 1.6652343668e-16 
          2.7164274135e-15 8.1881810863e-16 6.9375070365e-17 
          -2.2230811813e-15 3.0454525305e-16 4.2429122066e-16 
          2.5676022660e-15 1.8129677853e-16 4.5631272586e-17 
          3.0561700619e-15 1.8139919029e-16 -9.1269753890e-17 
          2.1378911969e-15 -3.1245051312e-15 2.3223420258e-16 
          2.2965013729e-15 5.7349847278e-16 -1.9212306337e-16 
          2.3525205748e-15 1.1886237213e-16 -3.7091677474e-17 
        </DataArray>
        <DataArray type="Float64" Name="Reaction" NumberOfComponents="3" format="ascii">
          -1.4936684550e-08 2.5976409806e-09 2.5811120544e-08 
          -1.6115825986e-09 2.6719076843e-09 -1.7084722635e-09 
          -1.9612532355e-08 -9.0863451762e-09 5.6847736365e-08 
          1.9785982238e-09 5.4343987714e-09 3.6970179472e-09 
          -4.4992929393e-09 4.0331997203e-09 1.7692821111e-09 
          6.9672425020e-09 -3.3925627759e-09 2.7649971699e-09 
          -3.8559824413e-09 -5.5502545148e-09 9.3498192036e-10 
          5.6480175220e-09 -2.8204138038e-09 -3.5538361294e-10 
          -4.5785199670e-09 -3.7227443637e-09 -9.3358414240e-11 
          -3.0939193735e-09 3.5537812107e-09 3.2940424092e-09 
          -4.3192993061e-09 -6.1323633758e-09 -1.2745506363e-08 
          -7.4634713758e-09 -7.0459964628e-09 -2.4337801323e-09 
          1.6835562119e-08 -8.5269981140e-09 -4.4215974950e-09 
          5.7770168623e-09 -2.6534948549e-10 2.3242986622e-09 
          1.0723463078e-08 9.7489547376e-09 -1.0155669022e-09 
          -5.9418945193e-09 -3.9137749294e-09 -8.1123576710e-09 
          8.2922254784e-09 -5.7851395013e-09 -5.5849096042e-08 
          5.8259457723e-10 -6.2969839063e-09 -2.2573031404e-09 
          -7.7959356280e-09 3.1480561004e-10 -1.4841072348e-09 
          -1.1835758189e-08 1.2917425754e-08 7.8975340756e-10 
          3.9961972236e-09 1.5466114270e-09 -2.7049922828e-09 
          -6.8432625311e-11 2.1026126431e-09 4.0303026214e-09 
          -3.5818842592e-09 3.0872375053e-09 2.7003210421e-09 
          1.1159473646e-08 4.5570129187e-09 -2.9613707239e-09 
          -8.7786454068e-10 2.5416829867e-09 6.5142780934e-10 
          9.0939403983e-11 -1.8058062420e-10 5.9042825341e-10 
          3.4876215606e-09 -3.0818378193e-10 2.7498160959e-10 
          1.0387163386e-09 6.2408937776e-11 5.2893434692e-10 
          2.5268568055e-09 7.9810615110e-10 6.9695812176e-11 
          4.1278684890e-10 -1.1195272706e-09 1.9862524964e-10 
          -2.4225357465e-10 2.1377445388e-09 -3.3839187522e-10 
          5.5174538409e-10 2.2876446409e-09 1.5939897194e-10 
          -1.4097681881e-09 -5.4301769336e-10 4.1310773000e-10 
          1.7832549236e-09 3.4463345783e-09 -8.3489828054e-10 
          3.0707020273e-09 1.5194357983e-09 -1.2751338669e-09 
          1.3619656974e-09 -6.3059862317e-10 -8.8621091147e-10 
          -1.6036911259e-09 2.2504917146e-09 1.1123971743e-10 
          1.2836359369e-10 -1.4033763577e-09 -1.7442163478e-10 
          -4.3812887190e-11 -1.0348361062e-09 -2.6753825227e-10 
          1.3869677033e-09 9.5825439039e-10 -2.6080781755e-10 
          1.4614295950e-09 1.2887159944e-09 -5.3288210401e-10 
          1.6201804029e-09 1.8958233628e-09 -6.9835122105e-11 
          -1.5132503136e-09 -2.5273667978e-09 5.0069577015e-10 
          -1.5887607026e-09 -2.0129939316e-09 3.8537470013e-10 
          1.2170400164e-09 -1.1319532373e-10 -5.3159464731e-11 
          7.8050906975e-10 -3.7934286204e-09 1.9319630563e-11 
          -3.5093315794e-12 -2.4477741232e-09 3.0888604290e-10 
          2.0157677649e-09 2.3627618820e-10 5.1920669173e-11 
          -2.2030550714e-10 8.8567830132e-10 -2.6477616265e-10 
          5.1019007417e-10 9.3669570010e-10 -4.7808070529e-10 
          1.9071942858e-09 1.1176751408e-09 -3.9226133142e-10 
          -1.1597117760e-09 6.0025299034e-10 -3.3199061815e-10 
          7.3730958530e-10 4.5448076879e-10 -4.5120806748e-10 
          7.0147773984e-10 3.5038200967e-10 -3.8786371236e-10 
          2.7427178047e-10 5.9393069165e-10 -6.9038253910e-10 
          3.7086408421e-11 -5.6164276215e-11 3.1471557301e-10 
          -2.7388758124e-10 -1.5488812113e-09 -9.3061490943e-10 
          -1.7001616906e-09 -2.2197198629e-09 -1.4959723938e-09 
          -4.8041769615e-10 3.8335064322e-10 -5.1483657848e-11 
          4.1880994416e-10 6.3968272609e-10 2.8051073294e-10 
          5.4790869610e-10 1.3296909081e-09 -1.6523971319e-09 
          -1.2392236460e-09 -1.0544248177e-09 -7.6156290555e-10 
          8.9920080776e-10 5.0494448080e-10 3.4896082969e-12 
          6.4891429983e-10 -3.6412205258e-10 -7.7305671698e-10 
          -7.6531798528e-10 -2.2349800759e-09 -1.6219345234e-09 
          -1.2941937096e-09 -9.2004234901e-10 -1.7693043368e-09 
          3.2396981391e-10 3.1319088100e-10 -1.4617838592e-10 
          8.3029824937e-10 6.2632694679e-10 8.5579637867e-10 
          4.0425886551e-10 5.8390041947e-10 -2.3063251776e-10 
          -3.8794872082e-10 5.6847154999e-10 5.5547787944e-10 
          -3.3616216740e-10 3.2941596761e-10 -9.4349157193e-10 
          1.5625988639e-09 -1.1585349190e-10 2.5815584246e-10 
          2.7500991216e-10 -4.3597254350e-10 8.4634588969e-10 
          -1.5304910950e-10 -6.9502537542e-10 9.9116796438e-10 
          -2.2797426983e-09 1.5896784359e-10 2.2795542519e-10 
          -2.7182612696e-10 1.1392389549e-10 -8.6770837114e-10 
          -1.8145132913e-09 -4.7587299299e-10 5.7064773736e-11 
          8.4514213096e-10 -2.4434842415e-09 -1.8230408598e-09 
          -2.0824638683e-11 3.1226107657e-10 -1.3090274096e-09 
          -4.8769000748e-10 -1.3292670219e-10 -1.6185221214e-10 
          1.6240208466e-10 5.7468881862e-10 6.8217614362e-11 
          9.5003583999e-10 8.1770112831e-10 -7.0101153306e-10 
          -8.5259541740e-11 5.1072273286e-10 -1.5155736451e-10 
          -2.3946334747e-11 3.8750231538e-10 -2.4928736839e-10 
          -9.2098896756e-10 -6.5769294609e-10 -1.4593549447e-10 
          -5.0117431614e-10 1.6706369407e-10 1.2051490616e-10 
          4.4043704659e-10 2.0444638776e-10 4.5739470079e-11 
          7.0408790563e-12 8.7672455032e-10 -1.5195544227e-10 
          3.1671383556e-10 8.4641811793e-10 -5.8094212656e-10 
          1.0696656686e-09 -9.2918776219e-11 8.1039546679e-11 
          1.6952897229e-10 -2.8311948082e-10 -3.2176022698e-10 
          2.3369564170e-10 1.3295865713e-09 7.5412931215e-10 
          1.5203906586e-10 -2.4748936352e-11 -3.7014394802e-10 
          1.0234712516e-10 -3.7272457461e-10 -1.2150560913e-09 
          -7.9703885985e-11 6.4889639486e-11 1.3533696847e-10 
          5.3660036639e-10 -2.8747028516e-09 1.0879877895e-09 
          -2.8228356270e-10 2.3914912212e-10 -1.1017744008e-09 
          -1.3205670122e-10 7.1097264691e-10 4.5897430115e-10 
          -1.3612408807e-09 -7.2038012035e-11 1.2107301266e-09 
          3.5662887114e-10 -1.5930895927e-10 -1.1799133785e-10 
          -6.8371947991e-11 3.4245204479e-10 -1.6172677914e-10 
          1.2114776476e-09 2.5038285949e-10 2.2545131435e-09 
          -6.8448624056e-10 6.9687695673e-10 1.8082731001e-09 
          1.8405557329e-10 1.6136154983e-10 1.2273261295e-09 
          2.4160706010e-11 -2.8493476609e-10 5.1761143303e-11 
          1.5593204910e-10 -2.7146323434e-10 -5.5579067788e-12 
          6.0574189275e-10 -7.9980926446e-10 -2.1559342285e-09 
          -8.9855067378e-10 -6.6779641693e-10 -1.6263849930e-09 
          3.0264658846e-09 1.0453255359e-09 1.6504491985e-10 
          5.7988305170e-10 4.0408853024e-11 6.2576249790e-10 
          1.5939633433e-09 3.4503613324e-10 4.1170451767e-10 
          1.3825384499e-09 -4.2816090532e-10 1.8124658793e-10 
          1.5474250668e-09 -2.3677704632e-10 7.9704429216e-10 
          1.2141665445e-09 7.4932435221e-11 5.0443871791e-10 
          1.0017129310e-09 -7.3457416175e-11 2.8504077770e-10 
          1.3468087758e-09 1.3781309675e-10 1.5374703045e-10 
          1.9719599341e-10 7.5148238699e-10 3.9116942722e-11 
          1.2877613100e-09 4.6650953701e-10 -4.7068382311e-11 
          1.1946942049e-09 4.8475634104e-10 -3.4961803220e-11 
          -1.2130125614e-09 -5.7242729446e-10 1.0694298400e-09 
          4.1205606794e-10 5.2200147733e-10 7.4248402337e-10 
          3.0388934301e-10 6.9305601408e-10 1.0704142048e-09 
          2.2949285852e-10 5.7737465421e-10 1.8675916834e-10 
          3.5401259438e-10 1.8600525459e-10 1.0200386173e-10 
          6.5856616074e-10 8.8356970329e-10 -2.3375352675e-10 
          1.0584905058e-10 5.3605563525e-10 -2.2807151344e-10 
          -7.0324429966e-10 1.2258176997e-09 -8.8115131629e-10 
          -3.0602327306e-10 3.0606369101e-10 -6.2753400882e-10 
          -5.9255868241e-09 -3.2717714358e-12 1.0734881401e-09 
          -3.8602274555e-09 -1.9274175655e-12 -1.8478318711e-09 
          -4.1285156994e-10 1.2931843259e-09 3.3281354099e-10 
          -2.0215208634e-10 -3.0223102533e-10 4.9965734307e-10 
          8.7443294610e-10 1.3876552371e-10 -1.7849150590e-10 
          1.0807646902e-09 8.5551536869e-10 -4.3262369553e-10 
          3.4063891767e-10 4.0226463722e-10 3.9797423233e-10 
          1.9118312750e-10 1.8444917554e-10 5.5085371231e-11 
          4.7651995541e-10 -7.1139948395e-11 -1.9387620337e-10 
          -6.6237919369e-11 -4.1351598667e-10 -1.3777298250e-10 
          7.3889001154e-12 3.1659261727e-10 1.9002733677e-10 
          1.3425930792e-12 7.8649728652e-10 2.9899753839e-10 
          3.3111962982e-10 1.8451595288e-10 1.2915344667e-10 
          3.2973497081e-10 5.8335038370e-10 8.0074492534e-12 
          8.6395704268e-11 1.4177824056e-10 -2.3615944288e-10 
          1.6033141152e-10 -3.3960985114e-10 2.6853857855e-10 
          5.1151763659e-10 1.5772910187e-10 -3.3038226315e-11 
          6.3582407383e-10 8.5218762067e-10 -2.0548897505e-10 
          -2.1650243637e-09 3.9658136302e-11 4.0600206175e-10 
          4.2390646387e-10 3.2673146011e-11 -5.9507495236e-10 
          1.8886025859e-10 8.0637092535e-11 -6.2502168503e-11 
          -3.3939471785e-10 -1.9595899035e-09 -1.8104400973e-10 
          -2.6856424208e-10 8.6215626855e-11 2.7310002806e-10 
          -6.9006172556e-12 4.5179288325e-11 -3.2837891807e-11 
          -1.9215193161e-09 -5.7812153517e-10 2.9187434469e-10 
          1.5926775315e-10 -7.7280355065e-10 4.1503304113e-11 
          3.7618289091e-10 -3.2421636534e-10 7.0104870199e-11 
          2.1560082226e-10 -1.8717147019e-09 -4.8500432454e-11 
          1.3928239869e-10 4.5240129343e-10 1.4335484092e-10 
          3.2771957749e-10 -2.0974994766e-11 -7.1239144566e-11 
        </DataArray>
        <DataArray type="Float64" Name="UnbalancedLoad" NumberOfComponents="3" format="ascii">
          0.0000000000e+00 0.0000000000e+00 0.0000000000e+00 
          0.0000000000e+00 0.0000000000e+00 0.0000000000e+00 
          0.0000000000e+00 0.0000000000e+00 0.0000000000e+00 
          0.0000000000e+00 0.0000000000e+00 0.0000000000e+00 
          0.0000000000e+00 0.0000000000e+00 0.0000000000e+00 
          0.0000000000e+00 0.0000000000e+00 0.0000000000e+00 
          0.0000000000e+00 0.0000000000e+00 0.0000000000e+00 
          0.0000000000e+00 0.0000000000e+00 0.0000000000e+00 
          0.0000000000e+00 0.0000000000e+00 0.0000000000e+00 
          0.0000000000e+00 0.0000000000e+00 0.0000000000e+00 
          0.0000000000e+00 0.0000000000e+00 0.0000000000e+00 
          0.0000000000e+00 0.0000000000e+00 0.0000000000e+00 
          0.0000000000e+00 0.0000000000e+00 0.0000000000e+00 
          0.0000000000e+00 0.0000000000e+00 0.0000000000e+00 
          0.0000000000e+00 0.0000000000e+00 0.0000000000e+00 
          0.0000000000e+00 0.0000000000e+00 0.0000000000e+00 
          0.0000000000e+00 0.0000000000e+00 0.0000000000e+00 
          0.0000000000e+00 0.0000000000e+00 0.0000000000e+00 
          0.0000000000e+00 0.0000000000e+00 0.0000000000e+00 
          0.0000000000e+00 0.0000000000e+00 0.0000000000e+00 
          0.0000000000e+00 0.0000000000e+00 0.0000000000e+00 
          0.0000000000e+00 0.0000000000e+00 0.0000000000e+00 
          0.0000000000e+00 0.0000000000e+00 0.0000000000e+00 
          0.0000000000e+00 0.0000000000e+00 0.0000000000e+00 
          0.0000000000e+00 0.0000000000e+00 0.0000000000e+00 
          0.0000000000e+00 0.0000000000e+00 0.0000000000e+00 
          0.0000000000e+00 0.0000000000e+00 0.0000000000e+00 
          0.0000000000e+00 0.0000000000e+00 0.0000000000e+00 
          0.0000000000e+00 0.0000000000e+00 0.0000000000e+00 
          0.0000000000e+00 0.0000000000e+00 0.0000000000e+00 
          0.0000000000e+00 0.0000000000e+00 0.0000000000e+00 
          0.0000000000e+00 0.0000000000e+00 0.0000000000e+00 
          0.0000000000e+00 0.0000000000e+00 0.0000000000e+00 
          0.0000000000e+00 0.0000000000e+00 0.0000000000e+00 
          0.0000000000e+00 0.0000000000e+00 0.0000000000e+00 
          0.0000000000e+00 0.0000000000e+00 0.0000000000e+00 
          0.0000000000e+00 0.0000000000e+00 0.0000000000e+00 
          0.0000000000e+00 0.0000000000e+00 0.0000000000e+00 
          0.0000000000e+00 0.0000000000e+00 0.0000000000e+00 
          0.0000000000e+00 0.0000000000e+00 0.0000000000e+00 
          0.0000000000e+00 0.0000000000e+00 0.0000000000e+00 
          0.0000000000e+00 0.0000000000e+00 0.0000000000e+00 
          0.0000000000e+00 0.0000000000e+00 0.0000000000e+00 
          0.0000000000e+00 0.0000000000e+00 0.0000000000e+00 
          0.0000000000e+00 0.0000000000e+00 0.0000000000e+00 
          0.0000000000e+00 0.0000000000e+00 0.0000000000e+00 
          0.0000000000e+00 0.0000000000e+00 0.0000000000e+00 
          0.0000000000e+00 0.0000000000e+00 0.0000000000e+00 
          0.0000000000e+00 0.0000000000e+00 0.0000000000e+00 
          0.0000000000e+00 0.0000000000e+00 0.0000000000e+00 
          0.0000000000e+00 0.0000000000e+00 0.0000000000e+00 
          0.0000000000e+00 0.0000000000e+00 0.0000000000e+00 
          0.0000000000e+00 0.0000000000e+00 0.0000000000e+00 
          0.0000000000e+00 0.0000000000e+00 0.0000000000e+00 
          0.0000000000e+00 0.0000000000e+00 0.0000000000e+00 
          0.0000000000e+00 0.0000000000e+00 0.0000000000e+00 
          0.0000000000e+00 0.0000000000e+00 0.0000000000e+00 
          0.0000000000e+00 0.0000000000e+00 0.0000000000e+00 
          0.0000000000e+00 0.0000000000e+00 0.0000000000e+00 
          0.0000000000e+00 0.0000000000e+00 0.0000000000e+00 
          0.0000000000e+00 0.0000000000e+00 0.0000000000e+00 
          0.0000000000e+00 0.0000000000e+00 0.0000000000e+00 
          0.0000000000e+00 0.0000000000e+00 0.0000000000e+00 
          0.0000000000e+00 0.0000000000e+00 0.0000000000e+00 
          0.0000000000e+00 0.0000000000e+00 0.0000000000e+00 
          0.0000000000e+00 0.0000000000e+00 0.0000000000e+00 
          0.0000000000e+00 0.0000000000e+00 0.0000000000e+00 
          0.0000000000e+00 0.0000000000e+00 0.0000000000e+00 
          0.0000000000e+00 0.0000000000e+00 0.0000000000e+00 
          0.0000000000e+00 0.0000000000e+00 0.0000000000e+00 
          0.0000000000e+00 0.0000000000e+00 0.0000000000e+00 
          0.0000000000e+00 0.0000000000e+00 0.0000000000e+00 
          0.0000000000e+00 0.0000000000e+00 0.0000000000e+00 
          0.0000000000e+00 0.0000000000e+00 0.0000000000e+00 
          0.0000000000e+00 0.0000000000e+00 0.0000000000e+00 
          0.0000000000e+00 0.0000000000e+00 0.0000000000e+00 
          0.0000000000e+00 0.0000000000e+00 0.0000000000e+00 
          0.0000000000e+00 0.0000000000e+00 0.0000000000e+00 
          0.0000000000e+00 0.0000000000e+00 0.0000000000e+00 
          0.0000000000e+00 0.0000000000e+00 0.0000000000e+00 
          0.0000000000e+00 0.0000000000e+00 0.0000000000e+00 
          0.0000000000e+00 0.0000000000e+00 0.0000000000e+00 
          0.0000000000e+00 0.0000000000e+00 0.0000000000e+00 
          0.0000000000e+00 0.0000000000e+00 0.0000000000e+00 
          0.0000000000e+00 0.0000000000e+00 0.0000000000e+00 
          0.0000000000e+00 0.0000000000e+00 0.0000000000e+00 
          0.0000000000e+00 0.0000000000e+00 0.0000000000e+00 
          0.0000000000e+00 0.0000000000e+00 0.0000000000e+00 
          0.0000000000e+00 0.0000000000e+00 0.0000000000e+00 
          0.0000000000e+00 0.0000000000e+00 0.0000000000e+00 
          0.0000000000e+00 0.0000000000e+00 0.0000000000e+00 
          0.0000000000e+00 0.0000000000e+00 0.0000000000e+00 
          0.0000000000e+00 0.0000000000e+00 0.0000000000e+00 
          0.0000000000e+00 0.0000000000e+00 0.0000000000e+00 
          0.0000000000e+00 0.0000000000e+00 0.0000000000e+00 
          0.0000000000e+00 0.0000000000e+00 0.0000000000e+00 
          0.0000000000e+00 0.0000000000e+00 0.0000000000e+00 
          0.0000000000e+00 0.0000000000e+00 0.0000000000e+00 
          0.0000000000e+00 0.0000000000e+00 0.0000000000e+00 
          0.0000000000e+00 0.0000000000e+00 0.0000000000e+00 
          0.0000000000e+00 0.0000000000e+00 0.0000000000e+00 
          0.0000000000e+00 0.0000000000e+00 0.0000000000e+00 
          0.0000000000e+00 0.0000000000e+00 0.0000000000e+00 
          0.0000000000e+00 0.0000000000e+00 0.0000000000e+00 
          0.0000000000e+00 0.0000000000e+00 0.0000000000e+00 
          0.0000000000e+00 0.0000000000e+00 0.0000000000e+00 
          0.0000000000e+00 0.0000000000e+00 0.0000000000e+00 
          0.0000000000e+00 0.0000000000e+00 0.0000000000e+00 
          0.0000000000e+00 0.0000000000e+00 0.0000000000e+00 
          0.0000000000e+00 0.0000000000e+00 0.0000000000e+00 
          0.0000000000e+00 0.0000000000e+00 0.0000000000e+00 
          0.0000000000e+00 0.0000000000e+00 0.0000000000e+00 
          0.0000000000e+00 0.0000000000e+00 0.0000000000e+00 
          0.0000000000e+00 0.0000000000e+00 0.0000000000e+00 
          0.0000000000e+00 0.0000000000e+00 0.0000000000e+00 
          0.0000000000e+00 0.0000000000e+00 0.0000000000e+00 
          0.0000000000e+00 0.0000000000e+00 0.0000000000e+00 
          0.0000000000e+00 0.0000000000e+00 0.0000000000e+00 
          0.0000000000e+00 0.0000000000e+00 0.0000000000e+00 
          0.0000000000e+00 0.0000000000e+00 0.0000000000e+00 
          0.0000000000e+00 0.0000000000e+00 0.0000000000e+00 
          0.0000000000e+00 0.0000000000e+00 0.0000000000e+00 
          0.0000000000e+00 0.0000000000e+00 0.0000000000e+00 
          0.0000000000e+00 0.0000000000e+00 0.0000000000e+00 
          0.0000000000e+00 0.0000000000e+00 0.0000000000e+00 
          0.0000000000e+00 0.0000000000e+00 0.0000000000e+00 
          0.0000000000e+00 0.0000000000e+00 0.0000000000e+00 
          0.0000000000e+00 0.0000000000e+00 0.0000000000e+00 
          0.0000000000e+00 0.0000000000e+00 0.0000000000e+00 
          0.0000000000e+00 0.0000000000e+00 0.0000000000e+00 
          0.0000000000e+00 0.0000000000e+00 0.0000000000e+00 
          0.0000000000e+00 0.0000000000e+00 0.0000000000e+00 
          0.0000000000e+00 0.0000000000e+00 0.0000000000e+00 
          0.0000000000e+00 0.0000000000e+00 0.0000000000e+00 
          0.0000000000e+00 0.0000000000e+00 0.0000000000e+00 
          0.0000000000e+00 0.0000000000e+00 0.0000000000e+00 
          0.0000000000e+00 0.0000000000e+00 0.0000000000e+00 
          0.0000000000e+00 0.0000000000e+00 0.0000000000e+00 
          0.0000000000e+00 0.0000000000e+00 0.0000000000e+00 
          0.0000000000e+00 0.0000000000e+00 0.0000000000e+00 
          0.0000000000e+00 0.0000000000e+00 0.0000000000e+00 
          0.0000000000e+00 0.0000000000e+00 0.0000000000e+00 
          0.0000000000e+00 0.0000000000e+00 0.0000000000e+00 
          0.0000000000e+00 0.0000000000e+00 0.0000000000e+00 
          0.0000000000e+00 0.0000000000e+00 0.0000000000e+00 
          0.0000000000e+00 0.0000000000e+00 0.0000000000e+00 
          0.0000000000e+00 0.0000000000e+00 0.0000000000e+00 
          0.0000000000e+00 0.0000000000e+00 0.0000000000e+00 
          0.0000000000e+00 0.0000000000e+00 0.0000000000e+00 
          0.0000000000e+00 0.0000000000e+00 0.0000000000e+00 
          0.0000000000e+00 0.0000000000e+00 0.0000000000e+00 
          0.0000000000e+00 0.0000000000e+00 0.0000000000e+00 
          0.0000000000e+00 0.0000000000e+00 0.0000000000e+00 
          0.0000000000e+00 0.0000000000e+00 0.0000000000e+00 
          0.0000000000e+00 0.0000000000e+00 0.0000000000e+00 
          0.0000000000e+00 0.0000000000e+00 0.0000000000e+00 
          0.0000000000e+00 0.0000000000e+00 0.0000000000e+00 
          0.0000000000e+00 0.0000000000e+00 0.0000000000e+00 
        </DataArray>
      </PointData>
      <CellData>
        <DataArray type="Int64" Name="ElementTag" format="ascii">
          0
        </DataArray>
      </CellData>
    </Piece>
  </UnstructuredGrid>
</VTKFile>
