<?xml version="1.0"?>
<VTKFile type="UnstructuredGrid" version="1.0" byte_order="LittleEndian" compressor="vtkZLibDataCompressor">
  <UnstructuredGrid>
    <Piece NumberOfPoints="158" NumberOfCells="1">
      <Points>
        <DataArray type="Float64" Name="Points" NumberOfComponents="3" format="ascii">
          1.7550000000e+00 -1.7550000000e+00 0.0000000000e+00 
          1.4140000000e+00 0.0000000000e+00 5.2300000000e+00 
          1.7550000000e+00 1.7550000000e+00 -0.0000000000e+00 
          1.4140000000e+00 -1.4140000000e+00 5.2300000000e+00 
          1.4140000000e+00 1.4140000000e+00 5.2300000000e+00 
          1.5840000000e+00 8.7800000000e-01 2.6150000000e+00 
          1.5840000000e+00 -8.7700000000e-01 2.6150000000e+00 
          1.5840000000e+00 1.5840000000e+00 2.6150000000e+00 
          1.5840000000e+00 -1.5840000000e+00 2.6150000000e+00 
          -0.0000000000e+00 1.4140000000e+00 5.2300000000e+00 
          -1.7550000000e+00 1.7550000000e+00 -0.0000000000e+00 
          -1.4140000000e+00 1.4140000000e+00 5.2300000000e+00 
          -8.7700000000e-01 1.5840000000e+00 2.6150000000e+00 
          8.7700000000e-01 1.5840000000e+00 2.6150000000e+00 
          -1.5840000000e+00 1.5840000000e+00 2.6150000000e+00 
          -1.4140000000e+00 -0.0000000000e+00 5.2300000000e+00 
          -1.7550000000e+00 -1.7550000000e+00 -0.0000000000e+00 
          -1.4140000000e+00 -1.4140000000e+00 5.2300000000e+00 
          -1.5840000000e+00 -8.7700000000e-01 2.6150000000e+00 
          -1.5840000000e+00 8.7700000000e-01 2.6150000000e+00 
          -1.5840000000e+00 -1.5840000000e+00 2.6150000000e+00 
          0.0000000000e+00 -1.4140000000e+00 5.2300000000e+00 
          8.7700000000e-01 -1.5840000000e+00 2.6150000000e+00 
          -8.7700000000e-01 -1.5840000000e+00 2.6150000000e+00 
          1.2750000000e+00 1.2750000000e+00 7.3500000000e+00 
          1.2750000000e+00 -1.2750000000e+00 7.3500000000e+00 
          1.1500000000e+00 -1.1500000000e+00 9.2700000000e+00 
          1.1500000000e+00 1.1500000000e+00 9.2700000000e+00 
          1.0370000000e+00 -1.0370000000e+00 1.1000000000e+01 
          1.0370000000e+00 1.0370000000e+00 1.1000000000e+01 
          -1.2750000000e+00 1.2750000000e+00 7.3500000000e+00 
          -1.1500000000e+00 1.1500000000e+00 9.2700000000e+00 
          -1.0370000000e+00 1.0370000000e+00 1.1000000000e+01 
          -1.2750000000e+00 -1.2750000000e+00 7.3500000000e+00 
          -1.1500000000e+00 -1.1500000000e+00 9.2700000000e+00 
          -1.0370000000e+00 -1.0370000000e+00 1.1000000000e+01 
          9.3500000000e-01 9.3500000000e-01 1.2560000000e+01 
          9.3500000000e-01 -9.3500000000e-01 1.2560000000e+01 
          8.4300000000e-01 8.4300000000e-01 1.3960000000e+01 
          8.4300000000e-01 -8.4300000000e-01 1.3960000000e+01 
          7.6000000000e-01 7.6000000000e-01 1.5240000000e+01 
          7.6000000000e-01 -7.6000000000e-01 1.5240000000e+01 
          -9.3500000000e-01 9.3500000000e-01 1.2560000000e+01 
          -8.4300000000e-01 8.4300000000e-01 1.3960000000e+01 
          -7.6000000000e-01 7.6000000000e-01 1.5240000000e+01 
          -9.3500000000e-01 -9.3500000000e-01 1.2560000000e+01 
          -8.4300000000e-01 -8.4300000000e-01 1.3960000000e+01 
          -7.6000000000e-01 -7.6000000000e-01 1.5240000000e+01 
          7.6000000000e-01 -7.6000000000e-01 1.6240000000e+01 
          7.6000000000e-01 7.6000000000e-01 1.6240000000e+01 
          7.6000000000e-01 0.0000000000e+00 1.6240000000e+01 
          7.6000000000e-01 7.6000000000e-01 1.7340000000e+01 
          7.6000000000e-01 -7.6000000000e-01 1.7340000000e+01 
          7.6000000000e-01 0.0000000000e+00 1.7890000000e+01 
          7.6000000000e-01 -7.6000000000e-01 1.9440000000e+01 
          7.6000000000e-01 7.6000000000e-01 1.9440000000e+01 
          7.6000000000e-01 -7.6000000000e-01 2.1640000000e+01 
          7.6000000000e-01 7.6000000000e-01 2.1640000000e+01 
          7.6000000000e-01 0.0000000000e+00 1.9440000000e+01 
          7.6000000000e-01 7.6000000000e-01 1.8440000000e+01 
          7.6000000000e-01 -7.6000000000e-01 1.8440000000e+01 
          7.6000000000e-01 -7.6000000000e-01 2.0540000000e+01 
          7.6000000000e-01 7.6000000000e-01 2.0540000000e+01 
          7.6000000000e-01 0.0000000000e+00 2.1090000000e+01 
          7.6000000000e-01 7.6000000000e-01 2.2640000000e+01 
          7.6000000000e-01 -7.6000000000e-01 2.2640000000e+01 
          -7.6000000000e-01 7.6000000000e-01 1.6240000000e+01 
          -7.6000000000e-01 7.6000000000e-01 1.8440000000e+01 
          -0.0000000000e+00 7.6000000000e-01 1.6240000000e+01 
          -7.6000000000e-01 7.6000000000e-01 1.9440000000e+01 
          -7.6000000000e-01 7.6000000000e-01 2.1640000000e+01 
          -7.6000000000e-01 7.6000000000e-01 1.7340000000e+01 
          -0.0000000000e+00 7.6000000000e-01 1.7890000000e+01 
          -0.0000000000e+00 7.6000000000e-01 1.9440000000e+01 
          -7.6000000000e-01 7.6000000000e-01 2.0540000000e+01 
          0.0000000000e+00 7.6000000000e-01 2.1090000000e+01 
          -7.6000000000e-01 7.6000000000e-01 2.2640000000e+01 
          -0.0000000000e+00 5.2600000000e-01 2.3499000000e+01 
          3.9900000000e-01 4.0400000000e-01 2.3950000000e+01 
          -3.9900000000e-01 4.0400000000e-01 2.3950000000e+01 
          -7.6000000000e-01 -7.6000000000e-01 1.6240000000e+01 
          -7.6000000000e-01 -7.6000000000e-01 1.8440000000e+01 
          -7.6000000000e-01 -0.0000000000e+00 1.6240000000e+01 
          -7.6000000000e-01 -7.6000000000e-01 1.9440000000e+01 
          -7.6000000000e-01 -7.6000000000e-01 2.1640000000e+01 
          -7.6000000000e-01 -7.6000000000e-01 1.7340000000e+01 
          -7.6000000000e-01 0.0000000000e+00 1.7890000000e+01 
          -7.6000000000e-01 -0.0000000000e+00 1.9440000000e+01 
          -7.6000000000e-01 -7.6000000000e-01 2.0540000000e+01 
          -7.6000000000e-01 -0.0000000000e+00 2.1090000000e+01 
          -7.6000000000e-01 -7.6000000000e-01 2.2640000000e+01 
          0.0000000000e+00 -7.6000000000e-01 1.6240000000e+01 
          0.0000000000e+00 -7.6000000000e-01 1.7890000000e+01 
          0.0000000000e+00 -7.6000000000e-01 1.9440000000e+01 
          0.0000000000e+00 -7.6000000000e-01 2.1090000000e+01 
          0.0000000000e+00 -5.2600000000e-01 2.3499000000e+01 
          3.9900000000e-01 -4.0400000000e-01 2.3950000000e+01 
          -3.9900000000e-01 -4.0400000000e-01 2.3950000000e+01 
          -0.0000000000e+00 -3.3500000000e+00 2.1640000000e+01 
          -3.8000000000e-01 -2.0550000000e+00 2.2140000000e+01 
          -3.8000000000e-01 -2.0550000000e+00 2.1640000000e+01 
          0.0000000000e+00 3.3500000000e+00 2.1640000000e+01 
          -3.8000000000e-01 2.0550000000e+00 2.2140000000e+01 
          -3.8000000000e-01 2.0550000000e+00 2.1640000000e+01 
          3.8000000000e-01 2.0550000000e+00 2.2140000000e+01 
          3.8000000000e-01 2.0550000000e+00 2.1640000000e+01 
          3.8000000000e-01 -2.0550000000e+00 2.2140000000e+01 
          3.8000000000e-01 -2.0550000000e+00 2.1640000000e+01 
          -0.0000000000e+00 -3.3500000000e+00 1.8440000000e+01 
          -3.8000000000e-01 -2.0550000000e+00 1.8940000000e+01 
          -3.8000000000e-01 -2.0550000000e+00 1.8440000000e+01 
          -0.0000000000e+00 3.3500000000e+00 1.8440000000e+01 
          -3.8000000000e-01 2.0550000000e+00 1.8940000000e+01 
          -3.8000000000e-01 2.0550000000e+00 1.8440000000e+01 
          3.8000000000e-01 2.0550000000e+00 1.8940000000e+01 
          3.8000000000e-01 2.0550000000e+00 1.8440000000e+01 
          3.8000000000e-01 -2.0550000000e+00 1.8940000000e+01 
          3.8000000000e-01 -2.0550000000e+00 1.8440000000e+01 
          -0.0000000000e+00 -3.3500000000e+00 1.5240000000e+01 
          -3.8000000000e-01 -2.0550000000e+00 1.5740000000e+01 
          -3.8000000000e-01 -2.0550000000e+00 1.5240000000e+01 
          -0.0000000000e+00 3.3500000000e+00 1.5240000000e+01 
          -3.8000000000e-01 2.0550000000e+00 1.5740000000e+01 
          -3.8000000000e-01 2.0550000000e+00 1.5240000000e+01 
          3.8000000000e-01 2.0550000000e+00 1.5740000000e+01 
          3.8000000000e-01 2.0550000000e+00 1.5240000000e+01 
          3.8000000000e-01 -2.0550000000e+00 1.5740000000e+01 
          3.8000000000e-01 -2.0550000000e+00 1.5240000000e+01 
          -5.2400000000e-01 0.0000000000e+00 2.3496000000e+01 
          5.2400000000e-01 0.0000000000e+00 2.3496000000e+01 
          4.0000000000e-02 5.0000000000e-02 2.5250000000e+01 
          -4.0000000000e-02 5.0000000000e-02 2.5250000000e+01 
          -4.0000000000e-02 -5.0000000000e-02 2.5250000000e+01 
          4.0000000000e-02 -5.0000000000e-02 2.5250000000e+01 
          1.3410000000e+00 0.0000000000e+00 6.3450000000e+00 
          1.2090000000e+00 0.0000000000e+00 8.3600000000e+00 
          1.0900000000e+00 -0.0000000000e+00 1.0180000000e+01 
          -0.0000000000e+00 1.3410000000e+00 6.3450000000e+00 
          0.0000000000e+00 1.2090000000e+00 8.3600000000e+00 
          -0.0000000000e+00 1.0900000000e+00 1.0180000000e+01 
          -1.3410000000e+00 0.0000000000e+00 6.3450000000e+00 
          -1.2090000000e+00 0.0000000000e+00 8.3600000000e+00 
          -1.0900000000e+00 -0.0000000000e+00 1.0180000000e+01 
          -0.0000000000e+00 -1.3410000000e+00 6.3450000000e+00 
          0.0000000000e+00 -1.2090000000e+00 8.3600000000e+00 
          0.0000000000e+00 -1.0900000000e+00 1.0180000000e+01 
          9.8300000000e-01 0.0000000000e+00 1.1820000000e+01 
          8.8700000000e-01 0.0000000000e+00 1.3296000000e+01 
          8.0000000000e-01 -0.0000000000e+00 1.4633000000e+01 
          0.0000000000e+00 9.8300000000e-01 1.1820000000e+01 
          -0.0000000000e+00 8.8700000000e-01 1.3296000000e+01 
          0.0000000000e+00 8.0000000000e-01 1.4633000000e+01 
          -9.8300000000e-01 0.0000000000e+00 1.1820000000e+01 
          -8.8700000000e-01 0.0000000000e+00 1.3296000000e+01 
          -8.0000000000e-01 0.0000000000e+00 1.4633000000e+01 
          0.0000000000e+00 -9.8300000000e-01 1.1820000000e+01 
          0.0000000000e+00 -8.8700000000e-01 1.3296000000e+01 
          0.0000000000e+00 -8.0000000000e-01 1.4633000000e+01 
        </DataArray>
      </Points>
      <Cells>
        <DataArray type="Int64" Name="connectivity" format="ascii">
          0
          1
          2
          3
          4
          5
          6
          7
          8
          9
          10
          11
          12
          13
          14
          15
          16
          17
          18
          19
          20
          21
          22
          23
          24
          25
          26
          27
          28
          29
          30
          31
          32
          33
          34
          35
          36
          37
          38
          39
          40
          41
          42
          43
          44
          45
          46
          47
          48
          49
          50
          51
          52
          53
          54
          55
          56
          57
          58
          59
          60
          61
          62
          63
          64
          65
          66
          67
          68
          69
          70
          71
          72
          73
          74
          75
          76
          77
          78
          79
          80
          81
          82
          83
          84
          85
          86
          87
          88
          89
          90
          91
          92
          93
          94
          95
          96
          97
          98
          99
          100
          101
          102
          103
          104
          105
          106
          107
          108
          109
          110
          111
          112
          113
          114
          115
          116
          117
          118
          119
          120
          121
          122
          123
          124
          125
          126
          127
          128
          129
          130
          131
          132
          133
          134
          135
          136
          137
          138
          139
          140
          141
          142
          143
          144
          145
          146
          147
          148
          149
          150
          151
          152
          153
          154
          155
          156
          157
        </DataArray>
        <DataArray type="Int64" Name="offsets" format="ascii">
          158
        </DataArray>
        <DataArray type="Int64" Name="types" format="ascii">
          2
        </DataArray>
      </Cells>
      <PointData>
        <DataArray type="Int64" Name="NodeTag" format="ascii">
          1
          2
          3
          4
          5
          6
          7
          8
          9
          10
          11
          12
          13
          14
          15
          16
          17
          18
          19
          20
          21
          22
          23
          24
          25
          26
          27
          28
          29
          30
          31
          32
          33
          34
          35
          36
          37
          38
          39
          40
          41
          42
          43
          44
          45
          46
          47
          48
          49
          50
          51
          52
          53
          54
          55
          56
          57
          58
          59
          60
          61
          62
          63
          64
          65
          66
          67
          68
          69
          70
          71
          72
          73
          74
          75
          76
          77
          78
          79
          80
          81
          82
          83
          84
          85
          86
          87
          88
          89
          90
          91
          92
          93
          94
          95
          96
          97
          98
          99
          100
          101
          102
          103
          104
          105
          106
          107
          108
          109
          110
          111
          112
          113
          114
          115
          116
          117
          118
          119
          120
          121
          122
          123
          124
          125
          126
          127
          128
          129
          130
          131
          132
          133
          134
          135
          136
          137
          138
          139
          140
          141
          142
          143
          144
          145
          146
          147
          148
          149
          150
          151
          152
          153
          154
          155
          156
          157
          158
        </DataArray>
        <DataArray type="Float64" Name="Displacement" NumberOfComponents="3" format="ascii">
          0.0000000000e+00 0.0000000000e+00 0.0000000000e+00 
          -3.7393823832e-05 5.6623757186e-05 -9.2262926300e-05 
          0.0000000000e+00 0.0000000000e+00 0.0000000000e+00 
          -3.5031094873e-05 6.0775519367e-05 -6.6797200577e-04 
          -1.5415400897e-05 5.4488379876e-05 -6.9451220806e-04 
          -7.1543790580e-04 -1.1271474029e-03 -4.9981954925e-04 
          -1.4964908690e-03 1.1760091172e-03 -5.4369254336e-04 
          -1.1727061458e-03 -1.1256522939e-03 -5.1332363397e-04 
          -1.1977091598e-03 1.1759704089e-03 -5.0056554723e-04 
          -1.2951245651e-05 -4.5062770616e-05 -1.0039736184e-04 
          0.0000000000e+00 0.0000000000e+00 0.0000000000e+00 
          -1.0615319632e-05 -1.6329096868e-05 -6.7270276272e-04 
          1.0990907762e-03 -1.1166332816e-03 -5.1485655673e-04 
          -1.1741754795e-03 -1.4900979587e-03 -5.5832062616e-04 
          1.0975512133e-03 -1.1577714664e-03 -4.9814031281e-04 
          1.7057594567e-04 -1.2905023945e-05 -1.0007295792e-04 
          0.0000000000e+00 0.0000000000e+00 0.0000000000e+00 
          -2.3170462995e-05 -9.2698003347e-06 -6.1747241231e-04 
          1.4824660331e-03 1.0274560557e-03 -5.0691995646e-04 
          1.0995768243e-03 -1.1588029652e-03 -5.1946794759e-04 
          1.0501499328e-03 1.0269345658e-03 -4.6033250170e-04 
          -2.8934502951e-05 1.2964139713e-04 -8.5787166209e-05 
          -1.1971714137e-03 1.1049470190e-03 -5.1774699624e-04 
          1.0502561489e-03 7.3941976708e-04 -4.5878098793e-04 
          1.6211484579e-04 3.2122021091e-04 -9.2677757442e-04 
          2.6052369416e-04 -7.6516929903e-05 -8.6586030362e-04 
          2.8441889362e-06 2.2847497237e-04 -1.0850864169e-03 
          9.4902013401e-05 1.4526201078e-04 -1.1539048340e-03 
          2.8483910346e-04 1.2454042392e-04 -1.2022208578e-03 
          1.9172712329e-04 3.9086720335e-04 -1.3007102302e-03 
          -1.1749074051e-04 1.8327763705e-04 -8.9852784075e-04 
          3.5701860303e-05 1.4790892667e-04 -1.1147205472e-03 
          1.8687773564e-05 2.7475733912e-04 -1.2720534339e-03 
          -2.2439069021e-04 -7.8226761154e-05 -8.1406932190e-04 
          1.5353903199e-04 9.3255551611e-05 -1.0249622693e-03 
          2.9929712689e-06 1.1304081660e-04 -1.1556086770e-03 
          1.9016568976e-04 3.4713510658e-04 -1.4873909881e-03 
          2.0766638416e-04 3.2790893417e-04 -1.3732983022e-03 
          2.3548658601e-04 5.2185025530e-04 -1.6249741928e-03 
          3.2812142891e-04 3.4291891505e-04 -1.4838099897e-03 
          2.0040674677e-04 5.3177055037e-04 -1.7521983699e-03 
          3.0522061145e-04 5.6250040324e-04 -1.5925271894e-03 
          8.7292227498e-05 3.1264488927e-04 -1.4575374858e-03 
          9.3599108745e-05 4.4573180937e-04 -1.6075410510e-03 
          1.6077543072e-04 4.6336686148e-04 -1.7447557328e-03 
          2.0201963340e-04 2.3446476194e-04 -1.3289451920e-03 
          1.8376164457e-04 2.8575259185e-04 -1.4553133046e-03 
          2.8212380248e-04 4.8451950244e-04 -1.5758800499e-03 
          3.1190959339e-04 6.5102385488e-04 -1.6962788886e-03 
          1.7813290332e-04 6.7602362053e-04 -1.9123696262e-03 
          2.8103974457e-04 6.6490151426e-04 -1.7270867188e-03 
          3.7794133308e-04 1.1113286152e-03 -2.0646096948e-03 
          4.6746341797e-04 6.8736767352e-04 -1.7848618135e-03 
          2.5232720187e-04 1.0131525543e-03 -2.1872768082e-03 
          2.4180005604e-04 1.3771355481e-03 -2.0118628223e-03 
          3.8116918322e-05 1.4250231528e-03 -2.3763059166e-03 
          1.1818318016e-04 2.0353196003e-03 -2.1560543929e-03 
          -1.0528259201e-04 1.9825208602e-03 -2.5596835359e-03 
          -1.8616392020e-04 1.4003573367e-03 -2.1385576533e-03 
          1.0134892543e-04 1.1241259416e-03 -2.2879575612e-03 
          2.9027918211e-04 1.1753640407e-03 -1.9453912399e-03 
          2.8223954165e-04 1.5791641668e-03 -2.0622060472e-03 
          9.0611945782e-05 1.8353325728e-03 -2.4508037938e-03 
          2.3664852129e-05 1.8554677587e-03 -2.4169994701e-03 
          -1.7430612937e-04 2.3115591023e-03 -2.5982390317e-03 
          3.9849690251e-05 2.2474058982e-03 -2.1908457631e-03 
          1.8466247215e-04 5.9709167645e-04 -1.9256507195e-03 
          9.5360750773e-05 1.0130828546e-03 -2.3494945217e-03 
          1.8085543462e-04 5.1392131641e-04 -1.8490280434e-03 
          5.5108791801e-05 1.3088669665e-03 -2.4503497179e-03 
          -1.0859456209e-04 1.8264362891e-03 -2.6591144073e-03 
          -9.1458941419e-05 1.0397200235e-03 -2.0989036043e-03 
          1.2574796143e-04 1.1461748057e-03 -2.3631126845e-03 
          4.6605189933e-05 1.5855413800e-03 -2.3718602690e-03 
          -1.5044151010e-04 1.7186547432e-03 -2.5376147171e-03 
          -6.6187510597e-05 2.0095868155e-03 -2.6372767665e-03 
          -1.8207799642e-04 2.1516773102e-03 -2.7008847058e-03 
          -2.1330192128e-04 2.3915303950e-03 -2.6200229318e-03 
          -2.3089166195e-04 2.5802132099e-03 -2.5564555957e-03 
          -2.3174430156e-04 2.5056751690e-03 -2.6073102957e-03 
          3.1833274829e-04 5.7121919106e-04 -1.7003192350e-03 
          2.7807032232e-04 1.0631987448e-03 -2.0010682690e-03 
          2.6809186486e-04 5.8476834544e-04 -1.7285950367e-03 
          2.5883312755e-04 1.2586235540e-03 -2.0847106206e-03 
          1.0953537216e-04 1.8841075225e-03 -2.2644716537e-03 
          1.4665219767e-04 5.5999383527e-04 -1.8117392663e-03 
          1.7067344673e-04 9.0785463321e-04 -2.2505576625e-03 
          4.2199915870e-04 1.2823930728e-03 -2.2053266510e-03 
          8.9801843665e-05 1.4202380442e-03 -2.1535335877e-03 
          5.8776297606e-05 1.7105220878e-03 -2.5295723651e-03 
          3.3983835726e-05 2.0829840912e-03 -2.3062485287e-03 
          3.1504464848e-04 4.4936271577e-04 -1.6474709781e-03 
          3.0079388728e-04 7.0636971972e-04 -1.9955949988e-03 
          2.5016729555e-04 1.3932954889e-03 -2.0154236573e-03 
          1.5309888616e-04 1.7001660770e-03 -2.2260686006e-03 
          -5.5235418435e-05 2.4731291586e-03 -2.3456851011e-03 
          -1.0506938729e-04 2.5846969921e-03 -2.3349630827e-03 
          -1.0539459611e-04 2.5097982848e-03 -2.4018533178e-03 
          3.8615600829e-04 1.9981017907e-03 -2.0181807005e-03 
          2.5002083272e-04 2.0178320809e-03 -2.1220171296e-03 
          3.2869306064e-04 1.9653298979e-03 -2.1254126115e-03 
          -3.8070769296e-04 1.8691093412e-03 -3.7911702799e-03 
          -4.4083196312e-04 2.0945473170e-03 -3.1979638313e-03 
          -3.8697021391e-04 1.8890763046e-03 -3.2012789123e-03 
          -4.4075431431e-04 2.0781731464e-03 -3.1488345633e-03 
          -3.8674439217e-04 1.8839917482e-03 -3.1519021285e-03 
          2.4988957587e-04 2.0729637808e-03 -2.0480599818e-03 
          3.2872511378e-04 1.9948825684e-03 -2.0511304198e-03 
          4.9519382483e-04 1.1570855862e-03 -1.8433721124e-03 
          5.0062523868e-04 1.2024259670e-03 -1.9053201909e-03 
          5.5869191935e-04 1.1606447799e-03 -1.9086765658e-03 
          -9.3048424269e-05 1.0312336554e-03 -3.4949478005e-03 
          -1.1899655471e-04 1.2486875338e-03 -2.8933341135e-03 
          -9.0727994692e-05 1.0486565077e-03 -2.8965998019e-03 
          -1.1864005222e-04 1.2473283770e-03 -2.8638663553e-03 
          -9.0589990790e-05 1.0497565513e-03 -2.8669936014e-03 
          5.0065959251e-04 1.1833293269e-03 -1.8557561913e-03 
          5.5886557693e-04 1.1180394679e-03 -1.8588304171e-03 
          4.4578673981e-04 5.6148796945e-04 -1.7794029666e-03 
          3.9142311197e-04 5.1984187846e-04 -1.6611929612e-03 
          4.0124777598e-04 5.3382989198e-04 -1.6644807932e-03 
          6.9488487586e-05 4.5471177080e-04 -2.5961273997e-03 
          2.3911613503e-04 5.5702983171e-04 -2.1442740220e-03 
          2.6356559475e-04 4.1525929746e-04 -2.1475946674e-03 
          2.3875683167e-04 6.5858326298e-04 -2.1442820896e-03 
          2.6350793132e-04 5.3022265322e-04 -2.1473231502e-03 
          3.9155626747e-04 5.5033437122e-04 -1.6499675397e-03 
          4.0131853624e-04 5.5454559864e-04 -1.6531689833e-03 
          -9.1126767222e-05 2.3728872575e-03 -2.5303362986e-03 
          -2.0314930808e-04 2.4769467061e-03 -2.4604136110e-03 
          -2.6093510583e-04 2.8989691686e-03 -2.4824433983e-03 
          -2.6087487278e-04 2.8854342169e-03 -2.5003665147e-03 
          -2.4382570206e-04 2.8855673641e-03 -2.4730959770e-03 
          -2.4388413114e-04 2.8989879917e-03 -2.4598777278e-03 
          4.6153361323e-03 8.5468590311e-05 -3.7759192696e-04 
          -1.5072965829e-03 1.5097894773e-04 -1.2768432670e-03 
          -2.6685143392e-04 2.1901467233e-04 -1.1112065969e-03 
          2.8306727064e-06 9.4821583481e-03 -1.0959700899e-04 
          4.3945721116e-05 1.6359476370e-03 -1.0099021687e-03 
          8.6297087085e-05 2.2796579236e-04 -1.1841016261e-03 
          -8.1380916628e-03 1.5379704746e-05 -1.5197945574e-04 
          -3.9642157682e-04 8.2589881642e-05 -1.0154258924e-03 
          -2.9339620828e-04 1.5370336002e-04 -1.0943538150e-03 
          -6.2412495965e-06 -1.8634651237e-03 -4.7828558051e-04 
          4.8293900213e-05 1.5508205906e-03 -1.2562996866e-03 
          1.1280511902e-04 7.7572045455e-04 -1.0318010388e-03 
          2.9533937839e-04 2.9357959987e-04 -1.4205322675e-03 
          2.4434276064e-04 3.8046174119e-04 -1.4474957494e-03 
          5.4762923002e-04 4.8612994226e-04 -1.6657243618e-03 
          1.2306666132e-04 5.5900856850e-05 -1.4267369573e-03 
          1.5368783836e-04 2.1474699473e-04 -1.5503346189e-03 
          1.7472856442e-04 5.3854938380e-04 -1.7163435024e-03 
          -7.3606549370e-05 2.2935348698e-04 -1.3274132447e-03 
          1.8561863072e-04 3.1476492350e-04 -1.4447594495e-03 
          -2.3344751724e-05 4.1536341431e-04 -1.6446388772e-03 
          1.7662450842e-04 5.4695526643e-04 -1.3810709688e-03 
          2.3381951403e-04 3.0758906961e-04 -1.3734692339e-03 
          2.7812551025e-04 6.0851659629e-04 -1.5813918772e-03 
        </DataArray>
        <DataArray type="Float64" Name="Reaction" NumberOfComponents="3" format="ascii">
          -6.3565198452e+03 6.9509651438e+03 1.0424578138e+05 
          5.3884899713e+02 1.7520378832e+02 1.3220491911e+01 
          -8.7918369767e+03 -8.9250344840e+03 1.1733075766e+05 
          4.1482647077e+02 -2.2526757414e+02 -8.5306721789e+02 
          2.4309124784e+02 3.5978911869e+02 -5.0361233481e+02 
          1.0417111315e+03 -2.2816875760e+02 -2.7166453595e+00 
          -1.2786561719e+03 -1.0702176849e+02 -9.4878737185e+00 
          -1.5466996101e+02 8.9593608032e+01 3.6561677432e-01 
          -4.2684435994e+02 -9.0017957839e+01 1.1843944766e+00 
          -1.3409346048e+02 3.1155013005e+02 7.9211521589e-01 
          8.7415464720e+03 -7.9077469779e+03 1.1255370803e+05 
          -7.1281718999e+02 2.0359616592e+02 -5.4048628309e+02 
          -2.6837196167e+02 4.3031843890e+02 -1.3739102311e-01 
          -2.0344358877e+02 2.0165186790e+02 -2.4656654742e+00 
          -1.8702205803e+02 -2.9117720291e+02 9.8161938807e-01 
          2.7879361030e+02 -1.7260411014e+02 2.9122171118e+00 
          7.3568410366e+03 8.0714550760e+03 1.0502238654e+05 
          -1.2415790261e+03 -6.9729819452e+02 -8.3069256019e+02 
          8.0880759363e+02 -3.3920405852e+02 -1.8524593964e-01 
          -4.8159875067e+02 -5.5002698131e+02 -3.8117789109e+00 
          6.7452832270e+01 -2.6174609167e+02 2.9578661263e-01 
          -1.1095058749e+02 1.0254018339e+02 5.7478907925e-01 
          -6.4875850275e+02 8.5195803633e+02 1.3981430037e+00 
          9.1173898423e+01 1.0109014016e+02 -5.5471231937e-01 
          8.4856461630e+01 6.1303019336e+02 5.9643318948e+02 
          1.8399984967e+03 -2.7770555774e+02 9.8487727228e+02 
          -4.1835595557e+02 5.6478836029e+02 7.2484936403e+01 
          2.4330986903e+02 -2.6387821837e+02 2.4700287846e+01 
          3.5957052600e+02 -1.6687975416e+02 2.3226860770e+01 
          -1.5324820438e+01 4.5311731023e+02 1.8919786249e+01 
          1.6373420257e+01 -4.6149551234e+00 6.5794845016e+02 
          -4.9782554862e+01 3.8079969039e+02 1.9999077764e+01 
          1.9562364397e+02 9.1895357701e+01 1.0864975013e+01 
          -1.9947182774e+03 1.7193896755e+02 9.9584127297e+02 
          2.3016751509e+02 -6.6181204716e+01 4.5451430232e+01 
          -3.4583299266e+02 2.8199365424e+02 2.5829595776e+01 
          5.1380310098e+01 4.4623099290e+01 4.5403629173e+00 
          -5.4960257788e+01 1.3424901806e+02 6.5493069403e+00 
          -2.4018082309e+01 -2.0998444862e+00 -1.0663216273e+00 
          1.6351015273e+02 -8.9537232780e+01 -5.3969988830e+00 
          5.8141996402e+01 -9.8939072050e+01 2.9641755164e-01 
          6.0699780732e+01 -1.0098818915e+02 1.1107013978e+01 
          2.7673051906e+01 1.4567656812e+02 5.2891304471e+00 
          1.0691893824e+02 4.6595064583e+01 -4.5627198130e-01 
          1.9806018259e+01 -1.0977160932e+02 -4.2660040765e-01 
          7.8241907911e+01 1.2035277809e+02 4.5283000154e+00 
          -2.6063306593e+01 5.4486654465e+01 1.8737029495e+00 
          7.2093068990e+01 -1.4213846953e+02 9.4571134416e+00 
          2.0553105257e+01 -6.5225929528e+01 8.3549672741e-01 
          7.2490604092e+01 -6.7750136694e+01 1.4058330035e-01 
          1.4140605316e+02 -1.0900091280e+02 3.8914225801e-01 
          5.3566239352e+01 -5.5107331283e+01 2.8446824238e+00 
          3.9258866768e+01 -1.2183068230e+01 -2.8014096445e-01 
          -3.9737169676e+01 1.1476379726e+00 1.1262695469e-02 
          6.5663603311e+01 6.4428129174e+01 3.6155198728e-01 
          1.2429489286e+01 2.3946568343e+01 1.6008748030e-03 
          1.2671760706e+02 1.6836459580e+02 2.9418006073e-01 
          -5.6986320112e+01 2.5685107641e+02 1.7859181164e+00 
          -7.7342729102e+02 8.0166877084e+01 -1.3331899160e-01 
          6.2431737555e+00 5.8273498228e+01 -2.1045032172e+00 
          1.2898765848e+02 1.6066418591e+01 -1.8678523828e+01 
          6.8719763038e+01 1.7060604775e+02 1.7309443066e+01 
          -1.0408084779e+01 4.6246002206e+01 6.0420421018e-01 
          -7.2601988945e+01 6.4064087275e+01 4.0061368314e-02 
          -1.1270678421e+02 1.5951148474e+02 8.5645382666e-02 
          2.4869573869e+00 1.5788635202e+02 1.3431301986e-01 
          1.7539982694e+01 -7.9108665903e+01 1.1975990296e-01 
          6.9180966832e+01 3.5730679112e+01 -5.4351239366e+00 
          8.5527955287e+01 -5.6792980497e+02 1.1189583428e+00 
          7.2702558605e+00 1.0294798961e+02 2.0842291931e-02 
          -3.8916589455e+01 1.5905522092e+02 5.0071825572e-01 
          3.0866686986e+01 -6.6804513598e+01 3.7242703523e+00 
          1.8942729517e+01 1.2637273330e+02 -2.2080301109e-02 
          2.2961384219e+01 2.5162714631e+02 -8.8635024005e-03 
          1.3655548886e+01 9.0916014364e+01 4.1238878087e+00 
          -2.2855967773e+01 2.7442508326e+02 -1.6396432502e-01 
          -1.3583100539e+02 1.7383105788e+02 -5.3864807676e-02 
          -6.1611349460e+01 5.0308829617e+01 -1.1309972023e-01 
          -6.7158503175e+01 5.8993232929e+01 2.0705773756e-01 
          -8.1556800924e+01 1.7501315720e+01 1.3526438981e-01 
          2.8811976160e+00 -6.9371560469e+01 7.7816517674e-01 
          3.0382806731e+01 4.1847249177e+01 -1.5533160393e+01 
          1.2896983607e+02 -6.4988813168e+01 1.9368980660e-02 
          8.2365469442e+00 4.9685104940e+01 3.6278574625e-01 
          1.1634179774e+02 1.9885380375e+02 -1.8746510357e-01 
          3.3707309275e+01 -1.2837397835e+01 -1.9362821151e+00 
          6.8943372934e+01 -1.0093476101e+01 -5.1047396927e-02 
          6.4053628357e+02 8.8470752042e+01 1.5997706087e+00 
          3.8843813309e+01 9.4926719698e+01 1.6724014365e+01 
          5.3278134153e+01 5.0729313984e+01 -3.2428149873e-02 
          -1.0140573965e+01 1.5040179633e+02 -3.2334168603e-02 
          7.5267692060e+00 -5.3255112102e+02 4.0291019436e-01 
          -1.0008997861e+01 -2.6157801602e+02 -3.1693132314e-01 
          3.3499998058e+01 5.5253631179e+02 3.4955983110e+00 
          1.1613638672e+01 1.0197792660e+01 -1.4348115468e-01 
          -2.6595930963e+01 4.3201446793e+01 -1.3988351517e-01 
          -4.7859044747e+01 5.7974688729e+01 2.0953475031e-01 
          -3.9996851831e+01 2.2240876443e+01 2.0381452365e-01 
          1.4622679528e+01 6.5298541039e+01 -9.6511338790e-01 
          -1.5617202344e+01 7.4138401342e+01 6.8100988896e-01 
          5.3812925258e+01 6.9369841310e+01 -2.5161290369e-01 
          -2.4245745584e+01 9.4568840545e+01 -2.0481790700e-01 
          -9.7783417908e+01 8.5931179806e+01 1.2063340393e-01 
          -4.3357884333e+01 6.0875102067e+01 -2.8604430278e-02 
          -9.7768717404e+01 7.5156680908e+01 1.0545593412e-01 
          -3.8651902874e+01 6.8473313695e+01 -1.5560993518e-02 
          -1.5776092045e+01 7.6137477926e+01 6.7142260743e-01 
          5.3398324383e+01 3.9265616644e+01 -1.9557519314e-01 
          4.6630136198e+01 1.5819595834e+01 -2.0493756607e-02 
          2.9207155094e+01 5.7558523268e+01 1.5195342402e-01 
          8.5314304070e+01 2.9949949845e+01 -1.5757406019e-01 
          5.7178101570e+01 -1.3848091992e+01 -8.4044720455e-01 
          -5.2890350315e+01 3.0960317295e+01 4.7087775084e-01 
          -3.8394096061e+01 1.7192263709e+01 -2.8703370865e-02 
          -3.7772848184e+01 5.9047317300e+01 4.4828327076e-01 
          -3.3668504843e+01 -1.4362169612e+01 -2.6829374633e-02 
          3.0368983017e+01 3.4029202925e+01 2.5409885259e-01 
          8.2459634563e+01 -1.1929923327e+01 -2.2284174198e-01 
          7.2472014099e+01 -5.9032443018e+01 -5.5705858665e-01 
          1.7551874577e+01 -6.2680291760e+01 3.0270388594e-01 
          -1.8267931622e+00 -4.9333580181e+01 -1.0365001756e-01 
          5.9348389756e+01 -5.1462611051e+01 -1.0682833832e-02 
          4.8891567948e+01 -5.6514615886e+01 1.7185215867e-01 
          7.8316764927e+01 -5.3417520243e+01 -1.3102889760e-01 
          5.3955078143e+01 -5.0303052830e+01 1.8445640406e-01 
          8.1583410212e+01 -1.8046326651e+01 -1.9193247676e-01 
          2.6845073120e+01 -5.0494493784e+01 2.5258563203e-01 
          9.0086703648e-02 -2.5917149130e+01 -1.3944307591e-01 
          -6.2290899102e+01 2.2563242344e+01 -3.5480592466e-02 
          -6.8335228091e+01 4.6479246950e+01 -3.7846713154e-03 
          -1.5958301796e+01 1.3891753268e+01 1.3500554466e-03 
          -1.6268043645e+01 1.3540169209e+01 6.9802035960e-02 
          -1.5661095144e+01 1.3321842813e+01 7.9409227235e-02 
          -1.5596935578e+01 1.4344119434e+01 7.9985829489e-03 
          1.0471006335e+03 -1.1527763795e+01 -7.5616857533e+01 
          -2.6502272888e+02 1.8509336754e+01 -1.8768574008e+01 
          -6.0395788755e+01 2.5593964529e+01 -2.5965383843e+00 
          5.6413474851e+01 1.9453487900e+03 -1.5350026356e+02 
          2.5004922276e+01 3.0924002018e+02 4.4057447174e+00 
          3.3389678202e+01 1.1258714173e+01 -3.5289654981e+00 
          -1.7052712331e+03 -6.4154044606e+01 -8.2674057333e+01 
          -8.0799382395e+01 1.1286345590e+01 -8.3068758297e+00 
          -1.0629965775e+02 5.6707178279e+01 -4.2012042453e-02 
          -8.1832199875e+00 -4.9811095068e+02 -3.8474345183e+02 
          -5.9759033260e+01 1.8575345430e+02 -2.0481493632e+01 
          -6.7535469547e+00 1.0797090812e+02 -1.5482561630e+01 
          3.9515581321e+01 3.0186137688e+01 -3.2734002547e+00 
          -1.3067296435e+01 3.6578391934e-01 -2.0398852721e-01 
          2.5092422567e+02 -2.2326558154e+01 -2.7550801028e-02 
          1.6624695728e+01 -2.7337865119e+01 1.2796420020e+00 
          8.9714992459e+00 -1.3632354243e+01 -4.3671895947e-01 
          8.6988593277e+00 1.5024205469e+02 -4.9901420267e-01 
          -4.9418731177e+01 5.3992725055e+01 -6.5678474529e-01 
          3.4751132575e+01 2.9867760540e+01 3.1414172460e-01 
          -1.8302929924e+02 -1.2160279893e+00 -9.6583102625e-01 
          6.6159410453e+00 8.2989818462e+01 -1.0738021440e+00 
          1.5290164107e+01 -8.0157618305e+01 -3.2535550533e+00 
          1.2062677573e+01 1.1818370169e+02 -5.4071518265e+00 
        </DataArray>
        <DataArray type="Float64" Name="UnbalancedLoad" NumberOfComponents="3" format="ascii">
          0.0000000000e+00 0.0000000000e+00 -8.1565975523e+03 
          0.0000000000e+00 0.0000000000e+00 -8.3580707016e+03 
          0.0000000000e+00 0.0000000000e+00 -8.1562799174e+03 
          0.0000000000e+00 0.0000000000e+00 -1.3169697442e+04 
          0.0000000000e+00 0.0000000000e+00 -1.3169496800e+04 
          0.0000000000e+00 0.0000000000e+00 -8.9111057561e+03 
          0.0000000000e+00 0.0000000000e+00 -8.9123067500e+03 
          0.0000000000e+00 0.0000000000e+00 -6.6675787064e+03 
          0.0000000000e+00 0.0000000000e+00 -6.6685790653e+03 
          0.0000000000e+00 0.0000000000e+00 -8.3577530597e+03 
          0.0000000000e+00 0.0000000000e+00 -8.1565975523e+03 
          0.0000000000e+00 0.0000000000e+00 -1.3169697442e+04 
          0.0000000000e+00 0.0000000000e+00 -8.9123067500e+03 
          0.0000000000e+00 0.0000000000e+00 -8.9123067500e+03 
          0.0000000000e+00 0.0000000000e+00 -6.6685790653e+03 
          0.0000000000e+00 0.0000000000e+00 -8.3577530597e+03 
          0.0000000000e+00 0.0000000000e+00 -8.1565975523e+03 
          0.0000000000e+00 0.0000000000e+00 -1.3169697442e+04 
          0.0000000000e+00 0.0000000000e+00 -8.9123067500e+03 
          0.0000000000e+00 0.0000000000e+00 -8.9123067500e+03 
          0.0000000000e+00 0.0000000000e+00 -6.6685790653e+03 
          0.0000000000e+00 0.0000000000e+00 -8.3577530597e+03 
          0.0000000000e+00 0.0000000000e+00 -8.9123067500e+03 
          0.0000000000e+00 0.0000000000e+00 -8.9123067500e+03 
          0.0000000000e+00 0.0000000000e+00 -4.4427529690e+03 
          0.0000000000e+00 0.0000000000e+00 -4.4427529690e+03 
          0.0000000000e+00 0.0000000000e+00 -4.0127573527e+03 
          0.0000000000e+00 0.0000000000e+00 -4.0127573527e+03 
          0.0000000000e+00 0.0000000000e+00 -3.3032769886e+03 
          0.0000000000e+00 0.0000000000e+00 -3.3032769886e+03 
          0.0000000000e+00 0.0000000000e+00 -4.4427529690e+03 
          0.0000000000e+00 0.0000000000e+00 -4.0127573527e+03 
          0.0000000000e+00 0.0000000000e+00 -3.3032769886e+03 
          0.0000000000e+00 0.0000000000e+00 -4.4427529690e+03 
          0.0000000000e+00 0.0000000000e+00 -4.0127573527e+03 
          0.0000000000e+00 0.0000000000e+00 -3.3032769886e+03 
          0.0000000000e+00 0.0000000000e+00 -2.6599445417e+03 
          0.0000000000e+00 0.0000000000e+00 -2.6599445417e+03 
          0.0000000000e+00 0.0000000000e+00 -2.4066230956e+03 
          0.0000000000e+00 0.0000000000e+00 -2.4066230956e+03 
          0.0000000000e+00 0.0000000000e+00 -3.2794619331e+03 
          0.0000000000e+00 0.0000000000e+00 -3.2794619331e+03 
          0.0000000000e+00 0.0000000000e+00 -2.6599445417e+03 
          0.0000000000e+00 0.0000000000e+00 -2.4066230956e+03 
          0.0000000000e+00 0.0000000000e+00 -3.2794619331e+03 
          0.0000000000e+00 0.0000000000e+00 -2.6599445417e+03 
          0.0000000000e+00 0.0000000000e+00 -2.4066230956e+03 
          0.0000000000e+00 0.0000000000e+00 -3.2794619331e+03 
          0.0000000000e+00 0.0000000000e+00 -1.5127077996e+03 
          0.0000000000e+00 0.0000000000e+00 -1.5127077996e+03 
          0.0000000000e+00 0.0000000000e+00 -1.8913488222e+03 
          0.0000000000e+00 0.0000000000e+00 -1.5520361640e+03 
          0.0000000000e+00 0.0000000000e+00 -1.5520361640e+03 
          0.0000000000e+00 0.0000000000e+00 -8.6278982688e+02 
          0.0000000000e+00 0.0000000000e+00 -1.1632275785e+03 
          0.0000000000e+00 0.0000000000e+00 -1.1632275785e+03 
          0.0000000000e+00 0.0000000000e+00 -3.0910652366e+03 
          0.0000000000e+00 0.0000000000e+00 -3.0910652366e+03 
          0.0000000000e+00 0.0000000000e+00 -1.5418686011e+03 
          0.0000000000e+00 0.0000000000e+00 -2.8319785396e+03 
          0.0000000000e+00 0.0000000000e+00 -2.8319785396e+03 
          0.0000000000e+00 0.0000000000e+00 -1.5520361640e+03 
          0.0000000000e+00 0.0000000000e+00 -1.5520361640e+03 
          0.0000000000e+00 0.0000000000e+00 -8.6278982688e+02 
          0.0000000000e+00 0.0000000000e+00 -2.9572881900e+03 
          0.0000000000e+00 0.0000000000e+00 -2.9572881900e+03 
          0.0000000000e+00 0.0000000000e+00 -1.5127077996e+03 
          0.0000000000e+00 0.0000000000e+00 -2.8319785396e+03 
          0.0000000000e+00 0.0000000000e+00 -1.8913488222e+03 
          0.0000000000e+00 0.0000000000e+00 -1.1632275785e+03 
          0.0000000000e+00 0.0000000000e+00 -3.0910652366e+03 
          0.0000000000e+00 0.0000000000e+00 -1.5520361640e+03 
          0.0000000000e+00 0.0000000000e+00 -8.6278982688e+02 
          0.0000000000e+00 0.0000000000e+00 -1.5418686011e+03 
          0.0000000000e+00 0.0000000000e+00 -1.5520361640e+03 
          0.0000000000e+00 0.0000000000e+00 -8.6278982688e+02 
          0.0000000000e+00 0.0000000000e+00 -2.9572881900e+03 
          0.0000000000e+00 0.0000000000e+00 -8.2080493776e+02 
          0.0000000000e+00 0.0000000000e+00 -9.9185892120e+02 
          0.0000000000e+00 0.0000000000e+00 -9.9185892120e+02 
          0.0000000000e+00 0.0000000000e+00 -1.5127077996e+03 
          0.0000000000e+00 0.0000000000e+00 -2.8319785396e+03 
          0.0000000000e+00 0.0000000000e+00 -1.8913488222e+03 
          0.0000000000e+00 0.0000000000e+00 -1.1632275785e+03 
          0.0000000000e+00 0.0000000000e+00 -3.0910652366e+03 
          0.0000000000e+00 0.0000000000e+00 -1.5520361640e+03 
          0.0000000000e+00 0.0000000000e+00 -8.6278982688e+02 
          0.0000000000e+00 0.0000000000e+00 -1.5418686011e+03 
          0.0000000000e+00 0.0000000000e+00 -1.5520361640e+03 
          0.0000000000e+00 0.0000000000e+00 -8.6278982688e+02 
          0.0000000000e+00 0.0000000000e+00 -2.9572881900e+03 
          0.0000000000e+00 0.0000000000e+00 -1.8913488222e+03 
          0.0000000000e+00 0.0000000000e+00 -8.6278982688e+02 
          0.0000000000e+00 0.0000000000e+00 -1.5418686011e+03 
          0.0000000000e+00 0.0000000000e+00 -8.6278982688e+02 
          0.0000000000e+00 0.0000000000e+00 -8.2080493776e+02 
          0.0000000000e+00 0.0000000000e+00 -9.9185892120e+02 
          0.0000000000e+00 0.0000000000e+00 -9.9185892120e+02 
          0.0000000000e+00 0.0000000000e+00 -1.2824298051e+03 
          0.0000000000e+00 0.0000000000e+00 -1.2824392336e+03 
          0.0000000000e+00 0.0000000000e+00 -9.1030483211e+02 
          0.0000000000e+00 0.0000000000e+00 -1.2824298051e+03 
          0.0000000000e+00 0.0000000000e+00 -1.2824392336e+03 
          0.0000000000e+00 0.0000000000e+00 -9.1030483211e+02 
          0.0000000000e+00 0.0000000000e+00 -1.2824392336e+03 
          0.0000000000e+00 0.0000000000e+00 -9.1030483211e+02 
          0.0000000000e+00 0.0000000000e+00 -1.2824392336e+03 
          0.0000000000e+00 0.0000000000e+00 -9.1030483211e+02 
          0.0000000000e+00 0.0000000000e+00 -1.2824298051e+03 
          0.0000000000e+00 0.0000000000e+00 -1.2824392336e+03 
          0.0000000000e+00 0.0000000000e+00 -9.1030483211e+02 
          0.0000000000e+00 0.0000000000e+00 -1.2824298051e+03 
          0.0000000000e+00 0.0000000000e+00 -1.2824392336e+03 
          0.0000000000e+00 0.0000000000e+00 -9.1030483211e+02 
          0.0000000000e+00 0.0000000000e+00 -1.2824392336e+03 
          0.0000000000e+00 0.0000000000e+00 -9.1030483211e+02 
          0.0000000000e+00 0.0000000000e+00 -1.2824392336e+03 
          0.0000000000e+00 0.0000000000e+00 -9.1030483211e+02 
          0.0000000000e+00 0.0000000000e+00 -1.2824298051e+03 
          0.0000000000e+00 0.0000000000e+00 -1.2824392336e+03 
          0.0000000000e+00 0.0000000000e+00 -9.1030483211e+02 
          0.0000000000e+00 0.0000000000e+00 -1.2824298051e+03 
          0.0000000000e+00 0.0000000000e+00 -1.2824392336e+03 
          0.0000000000e+00 0.0000000000e+00 -9.1030483211e+02 
          0.0000000000e+00 0.0000000000e+00 -1.2824392336e+03 
          0.0000000000e+00 0.0000000000e+00 -9.1030483211e+02 
          0.0000000000e+00 0.0000000000e+00 -1.2824392336e+03 
          0.0000000000e+00 0.0000000000e+00 -9.1030483211e+02 
          0.0000000000e+00 0.0000000000e+00 -8.2276047548e+02 
          0.0000000000e+00 0.0000000000e+00 -8.2276047548e+02 
          0.0000000000e+00 0.0000000000e+00 -2.2491149615e+02 
          0.0000000000e+00 0.0000000000e+00 -2.2491149615e+02 
          0.0000000000e+00 0.0000000000e+00 -2.2491149615e+02 
          0.0000000000e+00 0.0000000000e+00 -2.2491149615e+02 
          0.0000000000e+00 0.0000000000e+00 -1.0943663075e+03 
          0.0000000000e+00 0.0000000000e+00 -9.8852885711e+02 
          0.0000000000e+00 0.0000000000e+00 -8.9120439621e+02 
          0.0000000000e+00 0.0000000000e+00 -1.0943663075e+03 
          0.0000000000e+00 0.0000000000e+00 -9.8852885711e+02 
          0.0000000000e+00 0.0000000000e+00 -8.9120439621e+02 
          0.0000000000e+00 0.0000000000e+00 -1.0943663075e+03 
          0.0000000000e+00 0.0000000000e+00 -9.8852885711e+02 
          0.0000000000e+00 0.0000000000e+00 -8.9120439621e+02 
          0.0000000000e+00 0.0000000000e+00 -1.0943663075e+03 
          0.0000000000e+00 0.0000000000e+00 -9.8852885711e+02 
          0.0000000000e+00 0.0000000000e+00 -8.9120439621e+02 
          0.0000000000e+00 0.0000000000e+00 -8.0360757373e+02 
          0.0000000000e+00 0.0000000000e+00 -7.2326019104e+02 
          0.0000000000e+00 0.0000000000e+00 -6.5560180465e+02 
          0.0000000000e+00 0.0000000000e+00 -8.0360757373e+02 
          0.0000000000e+00 0.0000000000e+00 -7.2326019104e+02 
          0.0000000000e+00 0.0000000000e+00 -6.5560180465e+02 
          0.0000000000e+00 0.0000000000e+00 -8.0360757373e+02 
          0.0000000000e+00 0.0000000000e+00 -7.2326019104e+02 
          0.0000000000e+00 0.0000000000e+00 -6.5560180465e+02 
          0.0000000000e+00 0.0000000000e+00 -8.0360757373e+02 
          0.0000000000e+00 0.0000000000e+00 -7.2326019104e+02 
          0.0000000000e+00 0.0000000000e+00 -6.5560180465e+02 
        </DataArray>
      </PointData>
      <CellData>
        <DataArray type="Int64" Name="ElementTag" format="ascii">
          0
        </DataArray>
      </CellData>
    </Piece>
  </UnstructuredGrid>
</VTKFile>
