<?xml version="1.0"?>
<VTKFile type="UnstructuredGrid" version="1.0" byte_order="LittleEndian" compressor="vtkZLibDataCompressor">
  <UnstructuredGrid>
    <Piece NumberOfPoints="158" NumberOfCells="1">
      <Points>
        <DataArray type="Float64" Name="Points" NumberOfComponents="3" format="ascii">
          1.7550000000e+00 -1.7550000000e+00 0.0000000000e+00 
          1.4140000000e+00 0.0000000000e+00 5.2300000000e+00 
          1.7550000000e+00 1.7550000000e+00 -0.0000000000e+00 
          1.4140000000e+00 -1.4140000000e+00 5.2300000000e+00 
          1.4140000000e+00 1.4140000000e+00 5.2300000000e+00 
          1.5840000000e+00 8.7800000000e-01 2.6150000000e+00 
          1.5840000000e+00 -8.7700000000e-01 2.6150000000e+00 
          1.5840000000e+00 1.5840000000e+00 2.6150000000e+00 
          1.5840000000e+00 -1.5840000000e+00 2.6150000000e+00 
          -0.0000000000e+00 1.4140000000e+00 5.2300000000e+00 
          -1.7550000000e+00 1.7550000000e+00 -0.0000000000e+00 
          -1.4140000000e+00 1.4140000000e+00 5.2300000000e+00 
          -8.7700000000e-01 1.5840000000e+00 2.6150000000e+00 
          8.7700000000e-01 1.5840000000e+00 2.6150000000e+00 
          -1.5840000000e+00 1.5840000000e+00 2.6150000000e+00 
          -1.4140000000e+00 -0.0000000000e+00 5.2300000000e+00 
          -1.7550000000e+00 -1.7550000000e+00 -0.0000000000e+00 
          -1.4140000000e+00 -1.4140000000e+00 5.2300000000e+00 
          -1.5840000000e+00 -8.7700000000e-01 2.6150000000e+00 
          -1.5840000000e+00 8.7700000000e-01 2.6150000000e+00 
          -1.5840000000e+00 -1.5840000000e+00 2.6150000000e+00 
          0.0000000000e+00 -1.4140000000e+00 5.2300000000e+00 
          8.7700000000e-01 -1.5840000000e+00 2.6150000000e+00 
          -8.7700000000e-01 -1.5840000000e+00 2.6150000000e+00 
          1.2750000000e+00 1.2750000000e+00 7.3500000000e+00 
          1.2750000000e+00 -1.2750000000e+00 7.3500000000e+00 
          1.1500000000e+00 -1.1500000000e+00 9.2700000000e+00 
          1.1500000000e+00 1.1500000000e+00 9.2700000000e+00 
          1.0370000000e+00 -1.0370000000e+00 1.1000000000e+01 
          1.0370000000e+00 1.0370000000e+00 1.1000000000e+01 
          -1.2750000000e+00 1.2750000000e+00 7.3500000000e+00 
          -1.1500000000e+00 1.1500000000e+00 9.2700000000e+00 
          -1.0370000000e+00 1.0370000000e+00 1.1000000000e+01 
          -1.2750000000e+00 -1.2750000000e+00 7.3500000000e+00 
          -1.1500000000e+00 -1.1500000000e+00 9.2700000000e+00 
          -1.0370000000e+00 -1.0370000000e+00 1.1000000000e+01 
          9.3500000000e-01 9.3500000000e-01 1.2560000000e+01 
          9.3500000000e-01 -9.3500000000e-01 1.2560000000e+01 
          8.4300000000e-01 8.4300000000e-01 1.3960000000e+01 
          8.4300000000e-01 -8.4300000000e-01 1.3960000000e+01 
          7.6000000000e-01 7.6000000000e-01 1.5240000000e+01 
          7.6000000000e-01 -7.6000000000e-01 1.5240000000e+01 
          -9.3500000000e-01 9.3500000000e-01 1.2560000000e+01 
          -8.4300000000e-01 8.4300000000e-01 1.3960000000e+01 
          -7.6000000000e-01 7.6000000000e-01 1.5240000000e+01 
          -9.3500000000e-01 -9.3500000000e-01 1.2560000000e+01 
          -8.4300000000e-01 -8.4300000000e-01 1.3960000000e+01 
          -7.6000000000e-01 -7.6000000000e-01 1.5240000000e+01 
          7.6000000000e-01 -7.6000000000e-01 1.6240000000e+01 
          7.6000000000e-01 7.6000000000e-01 1.6240000000e+01 
          7.6000000000e-01 0.0000000000e+00 1.6240000000e+01 
          7.6000000000e-01 7.6000000000e-01 1.7340000000e+01 
          7.6000000000e-01 -7.6000000000e-01 1.7340000000e+01 
          7.6000000000e-01 0.0000000000e+00 1.7890000000e+01 
          7.6000000000e-01 -7.6000000000e-01 1.9440000000e+01 
          7.6000000000e-01 7.6000000000e-01 1.9440000000e+01 
          7.6000000000e-01 -7.6000000000e-01 2.1640000000e+01 
          7.6000000000e-01 7.6000000000e-01 2.1640000000e+01 
          7.6000000000e-01 0.0000000000e+00 1.9440000000e+01 
          7.6000000000e-01 7.6000000000e-01 1.8440000000e+01 
          7.6000000000e-01 -7.6000000000e-01 1.8440000000e+01 
          7.6000000000e-01 -7.6000000000e-01 2.0540000000e+01 
          7.6000000000e-01 7.6000000000e-01 2.0540000000e+01 
          7.6000000000e-01 0.0000000000e+00 2.1090000000e+01 
          7.6000000000e-01 7.6000000000e-01 2.2640000000e+01 
          7.6000000000e-01 -7.6000000000e-01 2.2640000000e+01 
          -7.6000000000e-01 7.6000000000e-01 1.6240000000e+01 
          -7.6000000000e-01 7.6000000000e-01 1.8440000000e+01 
          -0.0000000000e+00 7.6000000000e-01 1.6240000000e+01 
          -7.6000000000e-01 7.6000000000e-01 1.9440000000e+01 
          -7.6000000000e-01 7.6000000000e-01 2.1640000000e+01 
          -7.6000000000e-01 7.6000000000e-01 1.7340000000e+01 
          -0.0000000000e+00 7.6000000000e-01 1.7890000000e+01 
          -0.0000000000e+00 7.6000000000e-01 1.9440000000e+01 
          -7.6000000000e-01 7.6000000000e-01 2.0540000000e+01 
          0.0000000000e+00 7.6000000000e-01 2.1090000000e+01 
          -7.6000000000e-01 7.6000000000e-01 2.2640000000e+01 
          -0.0000000000e+00 5.2600000000e-01 2.3499000000e+01 
          3.9900000000e-01 4.0400000000e-01 2.3950000000e+01 
          -3.9900000000e-01 4.0400000000e-01 2.3950000000e+01 
          -7.6000000000e-01 -7.6000000000e-01 1.6240000000e+01 
          -7.6000000000e-01 -7.6000000000e-01 1.8440000000e+01 
          -7.6000000000e-01 -0.0000000000e+00 1.6240000000e+01 
          -7.6000000000e-01 -7.6000000000e-01 1.9440000000e+01 
          -7.6000000000e-01 -7.6000000000e-01 2.1640000000e+01 
          -7.6000000000e-01 -7.6000000000e-01 1.7340000000e+01 
          -7.6000000000e-01 0.0000000000e+00 1.7890000000e+01 
          -7.6000000000e-01 -0.0000000000e+00 1.9440000000e+01 
          -7.6000000000e-01 -7.6000000000e-01 2.0540000000e+01 
          -7.6000000000e-01 -0.0000000000e+00 2.1090000000e+01 
          -7.6000000000e-01 -7.6000000000e-01 2.2640000000e+01 
          0.0000000000e+00 -7.6000000000e-01 1.6240000000e+01 
          0.0000000000e+00 -7.6000000000e-01 1.7890000000e+01 
          0.0000000000e+00 -7.6000000000e-01 1.9440000000e+01 
          0.0000000000e+00 -7.6000000000e-01 2.1090000000e+01 
          0.0000000000e+00 -5.2600000000e-01 2.3499000000e+01 
          3.9900000000e-01 -4.0400000000e-01 2.3950000000e+01 
          -3.9900000000e-01 -4.0400000000e-01 2.3950000000e+01 
          -0.0000000000e+00 -3.3500000000e+00 2.1640000000e+01 
          -3.8000000000e-01 -2.0550000000e+00 2.2140000000e+01 
          -3.8000000000e-01 -2.0550000000e+00 2.1640000000e+01 
          0.0000000000e+00 3.3500000000e+00 2.1640000000e+01 
          -3.8000000000e-01 2.0550000000e+00 2.2140000000e+01 
          -3.8000000000e-01 2.0550000000e+00 2.1640000000e+01 
          3.8000000000e-01 2.0550000000e+00 2.2140000000e+01 
          3.8000000000e-01 2.0550000000e+00 2.1640000000e+01 
          3.8000000000e-01 -2.0550000000e+00 2.2140000000e+01 
          3.8000000000e-01 -2.0550000000e+00 2.1640000000e+01 
          -0.0000000000e+00 -3.3500000000e+00 1.8440000000e+01 
          -3.8000000000e-01 -2.0550000000e+00 1.8940000000e+01 
          -3.8000000000e-01 -2.0550000000e+00 1.8440000000e+01 
          -0.0000000000e+00 3.3500000000e+00 1.8440000000e+01 
          -3.8000000000e-01 2.0550000000e+00 1.8940000000e+01 
          -3.8000000000e-01 2.0550000000e+00 1.8440000000e+01 
          3.8000000000e-01 2.0550000000e+00 1.8940000000e+01 
          3.8000000000e-01 2.0550000000e+00 1.8440000000e+01 
          3.8000000000e-01 -2.0550000000e+00 1.8940000000e+01 
          3.8000000000e-01 -2.0550000000e+00 1.8440000000e+01 
          -0.0000000000e+00 -3.3500000000e+00 1.5240000000e+01 
          -3.8000000000e-01 -2.0550000000e+00 1.5740000000e+01 
          -3.8000000000e-01 -2.0550000000e+00 1.5240000000e+01 
          -0.0000000000e+00 3.3500000000e+00 1.5240000000e+01 
          -3.8000000000e-01 2.0550000000e+00 1.5740000000e+01 
          -3.8000000000e-01 2.0550000000e+00 1.5240000000e+01 
          3.8000000000e-01 2.0550000000e+00 1.5740000000e+01 
          3.8000000000e-01 2.0550000000e+00 1.5240000000e+01 
          3.8000000000e-01 -2.0550000000e+00 1.5740000000e+01 
          3.8000000000e-01 -2.0550000000e+00 1.5240000000e+01 
          -5.2400000000e-01 0.0000000000e+00 2.3496000000e+01 
          5.2400000000e-01 0.0000000000e+00 2.3496000000e+01 
          4.0000000000e-02 5.0000000000e-02 2.5250000000e+01 
          -4.0000000000e-02 5.0000000000e-02 2.5250000000e+01 
          -4.0000000000e-02 -5.0000000000e-02 2.5250000000e+01 
          4.0000000000e-02 -5.0000000000e-02 2.5250000000e+01 
          1.3410000000e+00 0.0000000000e+00 6.3450000000e+00 
          1.2090000000e+00 0.0000000000e+00 8.3600000000e+00 
          1.0900000000e+00 -0.0000000000e+00 1.0180000000e+01 
          -0.0000000000e+00 1.3410000000e+00 6.3450000000e+00 
          0.0000000000e+00 1.2090000000e+00 8.3600000000e+00 
          -0.0000000000e+00 1.0900000000e+00 1.0180000000e+01 
          -1.3410000000e+00 0.0000000000e+00 6.3450000000e+00 
          -1.2090000000e+00 0.0000000000e+00 8.3600000000e+00 
          -1.0900000000e+00 -0.0000000000e+00 1.0180000000e+01 
          -0.0000000000e+00 -1.3410000000e+00 6.3450000000e+00 
          0.0000000000e+00 -1.2090000000e+00 8.3600000000e+00 
          0.0000000000e+00 -1.0900000000e+00 1.0180000000e+01 
          9.8300000000e-01 0.0000000000e+00 1.1820000000e+01 
          8.8700000000e-01 0.0000000000e+00 1.3296000000e+01 
          8.0000000000e-01 -0.0000000000e+00 1.4633000000e+01 
          0.0000000000e+00 9.8300000000e-01 1.1820000000e+01 
          -0.0000000000e+00 8.8700000000e-01 1.3296000000e+01 
          0.0000000000e+00 8.0000000000e-01 1.4633000000e+01 
          -9.8300000000e-01 0.0000000000e+00 1.1820000000e+01 
          -8.8700000000e-01 0.0000000000e+00 1.3296000000e+01 
          -8.0000000000e-01 0.0000000000e+00 1.4633000000e+01 
          0.0000000000e+00 -9.8300000000e-01 1.1820000000e+01 
          0.0000000000e+00 -8.8700000000e-01 1.3296000000e+01 
          0.0000000000e+00 -8.0000000000e-01 1.4633000000e+01 
        </DataArray>
      </Points>
      <Cells>
        <DataArray type="Int64" Name="connectivity" format="ascii">
          0
          1
          2
          3
          4
          5
          6
          7
          8
          9
          10
          11
          12
          13
          14
          15
          16
          17
          18
          19
          20
          21
          22
          23
          24
          25
          26
          27
          28
          29
          30
          31
          32
          33
          34
          35
          36
          37
          38
          39
          40
          41
          42
          43
          44
          45
          46
          47
          48
          49
          50
          51
          52
          53
          54
          55
          56
          57
          58
          59
          60
          61
          62
          63
          64
          65
          66
          67
          68
          69
          70
          71
          72
          73
          74
          75
          76
          77
          78
          79
          80
          81
          82
          83
          84
          85
          86
          87
          88
          89
          90
          91
          92
          93
          94
          95
          96
          97
          98
          99
          100
          101
          102
          103
          104
          105
          106
          107
          108
          109
          110
          111
          112
          113
          114
          115
          116
          117
          118
          119
          120
          121
          122
          123
          124
          125
          126
          127
          128
          129
          130
          131
          132
          133
          134
          135
          136
          137
          138
          139
          140
          141
          142
          143
          144
          145
          146
          147
          148
          149
          150
          151
          152
          153
          154
          155
          156
          157
        </DataArray>
        <DataArray type="Int64" Name="offsets" format="ascii">
          158
        </DataArray>
        <DataArray type="Int64" Name="types" format="ascii">
          2
        </DataArray>
      </Cells>
      <PointData>
        <DataArray type="Int64" Name="NodeTag" format="ascii">
          1
          2
          3
          4
          5
          6
          7
          8
          9
          10
          11
          12
          13
          14
          15
          16
          17
          18
          19
          20
          21
          22
          23
          24
          25
          26
          27
          28
          29
          30
          31
          32
          33
          34
          35
          36
          37
          38
          39
          40
          41
          42
          43
          44
          45
          46
          47
          48
          49
          50
          51
          52
          53
          54
          55
          56
          57
          58
          59
          60
          61
          62
          63
          64
          65
          66
          67
          68
          69
          70
          71
          72
          73
          74
          75
          76
          77
          78
          79
          80
          81
          82
          83
          84
          85
          86
          87
          88
          89
          90
          91
          92
          93
          94
          95
          96
          97
          98
          99
          100
          101
          102
          103
          104
          105
          106
          107
          108
          109
          110
          111
          112
          113
          114
          115
          116
          117
          118
          119
          120
          121
          122
          123
          124
          125
          126
          127
          128
          129
          130
          131
          132
          133
          134
          135
          136
          137
          138
          139
          140
          141
          142
          143
          144
          145
          146
          147
          148
          149
          150
          151
          152
          153
          154
          155
          156
          157
          158
        </DataArray>
        <DataArray type="Float64" Name="Displacement" NumberOfComponents="3" format="ascii">
          0.0000000000e+00 0.0000000000e+00 0.0000000000e+00 
          -2.1609352377e-05 5.7782768830e-05 -1.2525887572e-05 
          0.0000000000e+00 0.0000000000e+00 0.0000000000e+00 
          6.3160420583e-05 5.9651454742e-05 -8.4944649359e-05 
          -4.0463067535e-05 5.8833879524e-05 -8.7971943879e-05 
          -1.4679452359e-04 -1.0020937093e-04 -6.1514021293e-05 
          -1.1656457161e-04 1.8981166382e-04 -6.9665210152e-05 
          -1.8216630190e-04 -9.9883558166e-05 -6.4643058833e-05 
          -9.0435481627e-05 1.8966507172e-04 -6.2519030164e-05 
          -3.8950061416e-05 -2.6096552111e-05 -1.1743040454e-05 
          0.0000000000e+00 0.0000000000e+00 0.0000000000e+00 
          -3.9510674172e-05 -5.6088901257e-05 -5.5821239961e-05 
          5.8164008842e-05 -1.0652370981e-04 -4.0050788777e-05 
          -1.8232725991e-04 -1.1333189344e-04 -6.9633255662e-05 
          5.8016955692e-05 -1.3601930176e-04 -4.1725474920e-05 
          3.5256294464e-05 -5.4181102074e-05 -1.1655548175e-05 
          0.0000000000e+00 0.0000000000e+00 0.0000000000e+00 
          6.4079103748e-05 -5.5028515255e-05 -6.4091265032e-05 
          1.1304499781e-04 6.1483990112e-05 -4.4002049755e-05 
          8.1276890905e-05 -1.3607193627e-04 -4.8401241007e-05 
          1.5655558535e-04 6.1300458657e-05 -4.7656178658e-05 
          6.2069980172e-05 3.0807699785e-05 -1.2398664357e-05 
          -9.0733305148e-05 1.4341371664e-04 -5.8299375646e-05 
          1.5663325858e-04 9.4339889733e-05 -5.5540621513e-05 
          -1.2692238529e-05 1.1514571408e-04 -1.1744318762e-04 
          1.3265532497e-04 6.9606637606e-05 -1.1420636310e-04 
          1.7017777383e-04 1.2083645947e-04 -1.4301362067e-04 
          -6.2578135247e-06 1.2447202543e-04 -1.4510171277e-04 
          2.3343318986e-04 1.3482275270e-04 -1.6255184610e-04 
          3.3251013027e-05 1.6222847553e-04 -1.6268968491e-04 
          -4.6742189175e-05 -7.9676583717e-05 -7.3345346040e-05 
          -8.7785435392e-06 -1.2776147817e-04 -9.2588369054e-05 
          1.3818438836e-05 -1.5386545622e-04 -1.0672612322e-04 
          9.6747510484e-05 -1.0466600143e-04 -8.3989696693e-05 
          1.6715616236e-04 -1.2837198290e-04 -1.0422652129e-04 
          2.1258175429e-04 -1.6928705244e-04 -1.1803007243e-04 
          6.5223951152e-05 1.7614122504e-04 -1.8353785008e-04 
          2.8352936487e-04 1.6545559092e-04 -1.8635149035e-04 
          1.1008612053e-04 1.9920083877e-04 -1.9809989633e-04 
          3.4127632537e-04 1.7629938444e-04 -2.0449029214e-04 
          1.4966723335e-04 1.9803505729e-04 -2.1021993617e-04 
          3.9073401027e-04 2.0037061078e-04 -2.2055145602e-04 
          5.6160796987e-05 -1.9084605589e-04 -1.2415094313e-04 
          9.5837494022e-05 -2.1343891189e-04 -1.3903437647e-04 
          1.4661043915e-04 -2.4666084959e-04 -1.5380997758e-04 
          2.7330219305e-04 -1.9519710227e-04 -1.3464729763e-04 
          3.2576687868e-04 -2.2826150943e-04 -1.4761028330e-04 
          3.8690246307e-04 -2.4270346789e-04 -1.5971412337e-04 
          4.4798783321e-04 2.0152343338e-04 -2.4287489328e-04 
          1.7237758637e-04 2.0432989932e-04 -2.2847696537e-04 
          3.0977202134e-04 2.0362917413e-04 -2.2472300001e-04 
          2.3009796217e-04 2.4379027044e-04 -2.4650877822e-04 
          5.5435920447e-04 1.8033893526e-04 -2.6392224093e-04 
          4.0270044424e-04 2.1251097861e-04 -2.9349388235e-04 
          6.8339674498e-04 2.0057355391e-04 -3.0738325346e-04 
          2.9510900800e-04 2.0587050935e-04 -2.8045252790e-04 
          8.6166917856e-04 1.8050345867e-04 -3.3408555481e-04 
          3.9357732331e-04 1.7365427177e-04 -2.9960512691e-04 
          4.7787853169e-04 2.0363686478e-04 -2.8646251954e-04 
          2.5372951211e-04 2.0757128922e-04 -2.7142708643e-04 
          6.0966988233e-04 2.1402799011e-04 -2.9464657449e-04 
          7.8801493889e-04 1.7596692944e-04 -3.1885132590e-04 
          3.5332908184e-04 2.1154556612e-04 -2.8807572233e-04 
          6.0424963467e-04 1.8605736409e-04 -3.2518278172e-04 
          4.4005988649e-04 1.6165904144e-04 -3.0299302288e-04 
          9.4153484617e-04 1.5388904634e-04 -3.4014038444e-04 
          1.7318468667e-04 -2.5897874927e-04 -1.6549198598e-04 
          2.5286762344e-04 -3.1011033658e-04 -1.9405217512e-04 
          1.7276007225e-04 -2.3075514415e-05 -1.9058352125e-04 
          2.9671044732e-04 -3.1815492535e-04 -2.0276256314e-04 
          3.9310654544e-04 -3.5000361519e-04 -2.2122459374e-04 
          1.8820951482e-04 -2.6762659498e-04 -1.7486373068e-04 
          2.3015886122e-04 -3.0245898660e-05 -2.3623441623e-04 
          2.9586680760e-04 -4.4292812822e-05 -2.3784868300e-04 
          3.3108052922e-04 -3.2329216945e-04 -2.0967547569e-04 
          3.6773774171e-04 -8.0442714145e-05 -2.6252710255e-04 
          4.3925715426e-04 -3.5006809399e-04 -2.2631414412e-04 
          5.5945551665e-04 -9.1663536677e-05 -2.6616741981e-04 
          6.2045915835e-04 6.5255243861e-06 -2.9528967114e-04 
          6.2265316513e-04 -2.3670263973e-04 -2.4891653016e-04 
          4.4884189035e-04 -2.6183312868e-04 -1.7143812414e-04 
          6.0853412466e-04 -3.0474627638e-04 -2.0073387320e-04 
          3.1347800048e-04 -2.6104473257e-04 -1.6054919795e-04 
          6.8492037835e-04 -3.2352925460e-04 -2.0803028146e-04 
          8.6125025139e-04 -3.4413899081e-04 -2.2410126714e-04 
          5.0710175513e-04 -3.0876278524e-04 -1.8221941183e-04 
          3.9256632837e-04 -2.9794174752e-04 -2.0437274078e-04 
          4.9093282352e-04 -3.2117286426e-04 -1.9921055502e-04 
          7.6201642558e-04 -3.5119673743e-04 -2.1360758384e-04 
          6.0327352843e-04 -3.4230678022e-04 -2.2918407689e-04 
          9.4002481929e-04 -3.5757220656e-04 -2.2756274138e-04 
          4.4839186507e-04 -3.0032301822e-05 -2.0007630728e-04 
          5.6772440817e-04 -7.0862569984e-05 -2.5167291812e-04 
          6.8398490342e-04 -5.6658061017e-05 -2.5347718413e-04 
          8.1741885012e-04 -8.5180861823e-05 -2.8191999749e-04 
          9.2824935309e-04 -1.3797018863e-04 -2.7675425524e-04 
          9.2107324465e-04 7.4051103771e-06 -3.0917705600e-04 
          9.2382501227e-04 -2.3591077879e-04 -2.5601457970e-04 
          1.7518708111e-03 -7.7181652776e-05 -3.7002361453e-04 
          1.3819984783e-03 -2.1290729763e-04 -2.8852245824e-04 
          1.3363082561e-03 -2.0228240894e-04 -2.8887473803e-04 
          -4.9420707823e-04 -9.2199511861e-05 -2.8028933249e-04 
          -1.9823710118e-05 -2.2089659361e-04 -2.5186901949e-04 
          -3.9759416034e-05 -2.2486290346e-04 -2.5221897248e-04 
          -1.9834415811e-05 4.2317286366e-05 -2.8288323119e-04 
          -3.9752693805e-05 4.4185654434e-05 -2.8324054971e-04 
          1.3819715431e-03 2.5044822305e-05 -3.5230914320e-04 
          1.3362169134e-03 4.3680911451e-05 -3.5266877702e-04 
          1.5052268861e-03 -4.0668709551e-05 -3.3481057864e-04 
          1.1187643867e-03 -1.7808564468e-04 -2.6931681929e-04 
          1.1005223522e-03 -1.6017825782e-04 -2.6966702490e-04 
          -6.3959708982e-04 -5.5459839688e-05 -2.6161507006e-04 
          -1.6117695766e-04 -1.8286561538e-04 -2.1914781112e-04 
          -2.0074234573e-04 -1.8114617573e-04 -2.1948241102e-04 
          -1.6122200824e-04 8.1322605376e-05 -2.6865864139e-04 
          -2.0076885540e-04 7.4028234991e-05 -2.6898611887e-04 
          1.1187127694e-03 6.4833586587e-05 -3.0525694422e-04 
          1.1004401515e-03 7.4643183653e-05 -3.0558417416e-04 
          1.1679904441e-03 -1.6214320920e-05 -2.6665788011e-04 
          7.9669783156e-04 -1.4312550629e-04 -2.2293987971e-04 
          7.9913211943e-04 -1.2334154328e-04 -2.2331349359e-04 
          -6.3327852596e-04 -2.8803789461e-05 -2.2312654613e-04 
          -1.9402621083e-04 -1.4372253369e-04 -1.7175892657e-04 
          -2.3434271846e-04 -1.4082241620e-04 -1.7210384813e-04 
          -1.9407015271e-04 9.9944564189e-05 -2.2724170083e-04 
          -2.3434265387e-04 8.7071287023e-05 -2.2760752420e-04 
          7.9664590141e-04 8.3187303334e-05 -2.2677815599e-04 
          7.9908541407e-04 8.6760575703e-05 -2.2712599057e-04 
          7.3785430106e-04 -2.7808525892e-04 -2.4352929916e-04 
          7.0189707680e-04 6.0343195164e-05 -3.2195094930e-04 
          6.6250499484e-04 3.2294829926e-05 -2.7476171312e-04 
          6.6309541977e-04 -2.7921978073e-04 -2.7376282924e-04 
          1.0452272159e-03 -2.7851933942e-04 -2.7616229316e-04 
          1.0446372333e-03 3.3009945942e-05 -2.8455389576e-04 
          3.9803124432e-05 7.7267821034e-05 -8.7685723637e-05 
          6.2554217206e-05 1.0907756216e-04 -1.4480034825e-04 
          1.1003330526e-04 1.3713742822e-04 -1.4664774991e-04 
          -3.8927910824e-05 6.2399995904e-06 -7.4256970392e-05 
          -2.1676337188e-05 -1.2743273677e-05 -1.1954030225e-04 
          5.9237513798e-06 -9.6717129513e-06 -1.2314540147e-04 
          4.4408621827e-05 -7.4801298907e-05 -6.4204623560e-05 
          9.6480394675e-05 -1.1121243126e-04 -1.0026002317e-04 
          1.2579549792e-04 -1.4599246802e-04 -1.0361948413e-04 
          8.9077117260e-05 1.1945035795e-05 -7.7919273112e-05 
          1.4191060066e-04 2.4744495027e-05 -1.2515988638e-04 
          1.9626978557e-04 9.9523874848e-06 -1.2865500286e-04 
          1.5827322637e-04 1.6132188662e-04 -1.7950384887e-04 
          2.0785018299e-04 1.8101908985e-04 -1.8928208982e-04 
          2.4744920727e-04 1.9531301728e-04 -2.1686906092e-04 
          4.0186708690e-05 -9.4403529789e-06 -1.4881927937e-04 
          8.0599654812e-05 -8.2347113377e-06 -1.6020919998e-04 
          1.2485348228e-04 -2.2477029920e-05 -1.7975397670e-04 
          1.6054699554e-04 -1.7849285496e-04 -1.2655402434e-04 
          1.9984059544e-04 -2.0832298952e-04 -1.3435510266e-04 
          2.4127194589e-04 -2.3434774717e-04 -1.5658934374e-04 
          2.5083758701e-04 -2.0046039523e-06 -1.5542439353e-04 
          3.0642229222e-04 -1.8489564475e-05 -1.6730690500e-04 
          3.6187319178e-04 -2.3349192582e-05 -1.8728752809e-04 
        </DataArray>
        <DataArray type="Float64" Name="Reaction" NumberOfComponents="3" format="ascii">
          -1.5151563151e+03 4.9780271620e+02 1.4185418443e+04 
          2.7991975404e-10 -2.0591794936e-10 -3.4648631186e-11 
          -6.9760630943e+02 -1.5537109687e+03 1.5127715104e+04 
          -5.6292037698e-10 4.2548847778e-10 3.4888666123e-09 
          1.6272940218e-09 3.4097957791e-10 -1.2208426547e-08 
          1.5734173131e-09 6.0733537643e-10 3.9944435641e-09 
          1.1794709653e-10 -1.9800605600e-11 -6.2730376449e-13 
          -1.5787063878e-09 3.5866309922e-11 -9.5549275436e-10 
          -4.7793746738e-10 -8.0544637626e-10 1.3110750263e-09 
          -9.5256247334e-11 1.4278461746e-10 3.7505706457e-09 
          1.0707339552e+03 -2.4111550248e+02 9.6294344904e+03 
          8.9912632895e-11 -4.9683035463e-12 -2.2856402326e-09 
          1.3959966516e-10 -9.7249985842e-13 2.1958863720e-10 
          2.4468937987e-10 4.8864723379e-10 -6.7636109213e-09 
          -8.5014284501e-10 -2.5583846153e-10 -5.7889838756e-10 
          -3.8277414571e-10 -2.1398494088e-11 2.7942372027e-10 
          2.6939100891e+02 1.2564280753e+03 1.0965037801e+04 
          3.3931544241e-09 -7.6772233015e-10 -1.1322603591e-08 
          6.5503308333e-10 -4.6202669468e-10 -2.4723584291e-10 
          7.9057149716e-10 -1.7762408211e-10 1.0713716858e-09 
          3.1795477362e-10 4.7686121718e-10 7.2576286647e-10 
          8.6184026582e-10 1.6024670479e-10 6.6898223072e-11 
          1.3759463013e-10 6.9203007214e-10 -1.3083791169e-09 
          -1.4559616845e-09 -2.4871865678e-10 -5.4481651135e-10 
          1.1484946327e-10 -8.3724799316e-10 8.3656168381e-09 
          7.9703976752e-10 6.3010502371e-10 -6.7628516676e-10 
          -1.7645117589e-09 1.0320466703e-10 2.5339949306e-09 
          2.0051926786e-10 7.8520967506e-10 -6.3135766060e-09 
          3.3946812028e-10 3.1504332476e-10 -2.8863478829e-09 
          -3.3989255854e-11 -2.3824875406e-10 -2.3388824766e-09 
          2.9690938597e-10 7.8386963587e-11 4.8584919421e-10 
          1.5721757229e-10 -1.3480089267e-10 -3.8603917285e-10 
          1.8062662477e-11 -4.0509859356e-10 6.1920791272e-09 
          1.2672949357e-09 1.6808645031e-09 1.4021316608e-08 
          -1.1756151608e-10 -2.7617358400e-10 -4.6744712268e-09 
          2.6766516226e-09 2.1225748936e-10 4.8614691439e-09 
          -7.0884897951e-10 -1.5992968061e-10 5.5152808986e-09 
          1.0084169055e-09 1.7370715977e-11 1.8313750516e-10 
          1.3145475819e-09 6.0778146405e-10 -6.7926161362e-09 
          5.9196125779e-10 -2.2913599629e-09 -4.3726212096e-09 
          -1.4368759516e-09 -8.7378076996e-10 7.7150169031e-09 
          -6.3187932664e-10 7.3206107148e-10 7.8218061056e-09 
          -2.5579482976e-10 2.9399280232e-10 -2.7948920955e-09 
          -7.6437411956e-11 8.2866297157e-11 -1.2889023182e-10 
          -2.8986890666e-10 -1.0622909219e-09 2.0789496236e-09 
          5.5113913433e-10 -9.0914470396e-11 -4.2643966136e-10 
          3.5911940088e-11 3.0880575874e-11 2.7474322817e-10 
          5.4158655338e-10 1.1518211523e-09 -7.6487105538e-10 
          -3.7827341259e-10 5.4792670401e-11 -3.5495633099e-09 
          6.4650862441e-10 6.4154444257e-10 1.6486056964e-10 
          -2.6749047422e-10 -1.0418087781e-09 1.4976000440e-09 
          -4.1058589861e-09 5.9621002352e-10 -9.5834148395e-09 
          -9.5281338375e-11 3.1209394097e-10 3.2995510768e-09 
          -7.6101125401e-11 3.6664891891e-10 3.6596792263e-10 
          5.0592419143e-10 8.8547982662e-10 1.9872914425e-10 
          1.8708234961e-10 -4.0940062451e-10 -3.5609305504e-09 
          -9.7997165938e-12 9.6630961566e-09 -5.3957185386e-09 
          -3.8038385775e-09 8.3735629541e-10 1.1179908110e-09 
          -5.0955906161e-11 7.7880724092e-10 7.9296413880e-10 
          -1.7790613427e-10 1.9172552990e-09 4.7264506753e-09 
          -7.4068751132e-10 -1.3540509963e-09 -7.3259802669e-09 
          -4.5450110342e-10 4.3034367736e-11 1.9898446224e-09 
          1.0376699500e-10 -2.0282139856e-10 2.8581567113e-09 
          2.5617952204e-10 -1.0704282918e-08 7.5140054179e-09 
          -3.6586444985e-10 5.5428628354e-10 -1.4413215066e-09 
          -3.9857583900e-10 1.5656637098e-10 -4.0828962433e-09 
          -7.5923489717e-11 -4.1639182727e-10 -1.9406426466e-09 
          -1.6966743566e-09 -9.4086306801e-10 -7.0171601863e-10 
          5.2621984548e-09 2.5448334412e-11 5.6651375258e-09 
          2.3975756935e-09 -4.8020261656e-09 7.3375794329e-10 
          2.4391986209e-09 -2.6983304480e-10 3.5026137546e-10 
          -6.1223448533e-10 -4.6409358995e-11 -1.1199795535e-09 
          -5.6537496906e-11 -3.4128385448e-11 3.0466694445e-10 
          -1.7594276036e-09 6.0743630265e-10 -2.9237211263e-09 
          -8.8822460498e-10 -4.9875906183e-10 4.0606167317e-09 
          2.1941495842e-09 2.3930885051e-11 -1.5465070335e-09 
          2.0082469021e-10 -8.0323603324e-10 -1.7689958387e-09 
          2.1062662725e-10 2.0170377868e-10 7.2050698741e-12 
          1.8567014592e-10 1.6574452921e-10 4.4630965590e-13 
          2.9300850635e-10 4.9866892837e-09 6.7749361676e-11 
          -2.0902168885e-11 1.1506823272e-10 5.6932791814e-11 
          4.0442982296e-11 7.5700447603e-10 4.9413817482e-10 
          5.2317705723e-11 -1.1789889898e-10 2.9899260845e-10 
          -1.0098437642e-09 1.6302266342e-09 1.4079168942e-09 
          1.5317955793e-09 -3.2885801027e-09 3.5974001555e-09 
          4.2793255051e-10 8.1600335863e-11 6.8837414935e-10 
          -5.6360027756e-11 -3.1281164117e-10 2.3919166647e-10 
          1.2181922138e-10 4.3690905893e-09 -5.5565252399e-10 
          1.9776263960e-11 -4.5227376011e-10 4.3601444677e-10 
          2.6697311029e-11 4.9204164354e-09 -2.2825027424e-09 
          -1.0692620123e-09 8.3296658460e-10 4.2723358185e-10 
          -2.0561741199e-10 3.3150870937e-11 -3.8978975603e-10 
          -3.1213279184e-10 1.5432155553e-11 -3.2924570015e-10 
          5.5746351979e-11 -5.3090877181e-11 -3.0549429653e-10 
          -7.3607178686e-10 9.8828431550e-11 -5.4863469323e-10 
          -9.5034369263e-11 -8.0324857876e-11 2.3210527944e-10 
          9.6453067755e-11 -4.6794434994e-10 -3.9132519447e-10 
          -3.2211877610e-10 -5.3201354433e-09 3.4446667740e-10 
          9.5173202652e-11 -4.6257513098e-10 -2.8027824506e-10 
          3.7680969456e-12 -1.8289758597e-11 -4.8558934651e-11 
          1.0601297618e-10 -3.5309172253e-10 4.4531267562e-11 
          -5.0738524493e-11 -1.6506562783e-10 -3.2196467714e-12 
          -2.1078738754e-10 -1.6142870374e-10 -9.3708818483e-11 
          2.7178792550e-10 7.6340994637e-10 2.3185009468e-11 
          -4.8231307836e-10 1.3393637865e-09 4.9691384341e-10 
          4.6246007024e-10 -2.0122876698e-09 -9.5466523575e-11 
          -1.1706591252e-10 -2.7808422232e-10 -1.8882206909e-10 
          2.9274271895e-10 6.9147890192e-10 4.2815528900e-11 
          -5.7609073068e-10 7.3172043424e-10 2.5992030750e-10 
          1.3188743431e-09 -4.5654789949e-09 -1.7803535313e-09 
          1.4845968899e-10 -9.3124271879e-10 -6.0256133416e-11 
          -5.1121329392e-11 -3.4393682347e-10 1.0868117517e-10 
          8.4381657217e-10 3.2150093421e-09 -1.1231662267e-09 
          -1.0962097896e-10 2.1472382206e-10 5.4081850109e-11 
          -1.2496670365e-10 4.6103601492e-10 -1.0362322111e-10 
          1.1129852595e-09 -3.4722427017e-09 -1.7900791960e-11 
          -4.1578740451e-11 -4.7335577819e-10 -4.3218872925e-11 
          4.0482661667e-10 1.3703930768e-09 -2.1745494294e-11 
          1.5514256546e-10 -5.7785673468e-10 7.4083295054e-11 
          -8.5655038617e-11 -2.5358753986e-10 -1.0205991607e-10 
          -8.0728090879e-11 6.5351388190e-10 -1.1293965763e-11 
          -9.6104013636e-11 -3.2404286893e-10 1.6792678359e-11 
          2.9807822877e-10 3.7122333679e-10 -1.0796907812e-10 
          1.4965229056e-10 3.9292881449e-10 -3.5576430690e-11 
          -8.8866469738e-11 -1.5686101029e-10 -2.1204593637e-11 
          1.3505285779e-10 -1.9196527701e-10 3.5009106725e-11 
          1.1389555965e-10 4.9796528012e-11 -1.5116463636e-11 
          -1.3952594635e-10 -1.5545295606e-10 1.9427792708e-11 
          9.0490503979e-11 2.7960456173e-10 1.9040991006e-10 
          -2.4542679000e-10 1.0236755887e-11 -7.3059225336e-11 
          -2.2777291164e-10 9.7018754142e-11 -2.1901737368e-10 
          -6.8940225750e-10 -7.3202451045e-11 -6.9764911903e-10 
          9.9300906387e-10 -3.7444575912e-10 7.4147159246e-10 
          -9.6229690882e-11 3.4763494861e-10 1.4693389561e-10 
          -1.5589085578e-11 -6.0499738552e-10 4.4260980991e-10 
          6.5504934810e-11 -7.0064015700e-10 -5.1117057809e-10 
          7.4045769516e-11 3.5604169613e-10 -3.2677233142e-10 
          -2.1618934420e-10 -1.2487705314e-11 1.6323381535e-10 
          -7.2094069603e-10 -3.9214964609e-11 7.7990175429e-10 
          3.6945319026e-10 -2.2019525092e-11 2.9836758064e-10 
          8.5415008400e-12 1.3687939671e-11 5.4292403906e-12 
          1.6595391727e-11 -3.4735492260e-11 2.9455604622e-12 
          3.2253089088e-12 -2.9714530836e-10 1.9461826595e-10 
          -4.1841954901e-09 -2.3752413925e-10 -3.3468449678e-09 
          -6.1921362482e-10 1.8600870844e-11 5.1760008779e-10 
          1.7677866948e-09 -8.5470047706e-11 -1.3784404174e-09 
          6.2412297552e-11 -8.6461054982e-10 -6.8179567547e-10 
          -6.7120753400e-12 3.8007597070e-11 -5.1271153989e-11 
          -1.2656720116e-10 2.2387984244e-09 2.0321301863e-09 
          -4.3053449694e-11 -2.4174856561e-11 -4.3873848998e-11 
          8.0503265165e-10 -4.9262378898e-11 3.6662195502e-10 
          -1.5600332137e-09 -4.3242708025e-11 1.5283712351e-09 
          -1.2525536164e-12 1.2425760421e-10 -6.2630400866e-11 
          -2.9520164091e-11 -1.7048307210e-12 -3.3939090427e-10 
          -4.9001025459e-11 5.3588133930e-11 3.3514302444e-12 
          -3.0144219898e-09 -8.8003354604e-11 -1.6520256829e-09 
          -1.4041822705e-09 3.2584504539e-11 4.2857403737e-10 
          9.7248986641e-11 -3.8690058102e-11 -3.4161905249e-10 
        </DataArray>
        <DataArray type="Float64" Name="UnbalancedLoad" NumberOfComponents="3" format="ascii">
          0.0000000000e+00 0.0000000000e+00 -9.3431816177e+02 
          0.0000000000e+00 0.0000000000e+00 -9.5739641485e+02 
          0.0000000000e+00 0.0000000000e+00 -9.3428177749e+02 
          0.0000000000e+00 0.0000000000e+00 -1.5085564081e+03 
          0.0000000000e+00 0.0000000000e+00 -1.5085334250e+03 
          0.0000000000e+00 0.0000000000e+00 -1.0207452183e+03 
          0.0000000000e+00 0.0000000000e+00 -1.0208827892e+03 
          0.0000000000e+00 0.0000000000e+00 -7.6375472009e+02 
          0.0000000000e+00 0.0000000000e+00 -7.6386930874e+02 
          0.0000000000e+00 0.0000000000e+00 -9.5736002975e+02 
          0.0000000000e+00 0.0000000000e+00 -9.3431816177e+02 
          0.0000000000e+00 0.0000000000e+00 -1.5085564081e+03 
          0.0000000000e+00 0.0000000000e+00 -1.0208827892e+03 
          0.0000000000e+00 0.0000000000e+00 -1.0208827892e+03 
          0.0000000000e+00 0.0000000000e+00 -7.6386930874e+02 
          0.0000000000e+00 0.0000000000e+00 -9.5736002975e+02 
          0.0000000000e+00 0.0000000000e+00 -9.3431816177e+02 
          0.0000000000e+00 0.0000000000e+00 -1.5085564081e+03 
          0.0000000000e+00 0.0000000000e+00 -1.0208827892e+03 
          0.0000000000e+00 0.0000000000e+00 -1.0208827892e+03 
          0.0000000000e+00 0.0000000000e+00 -7.6386930874e+02 
          0.0000000000e+00 0.0000000000e+00 -9.5736002975e+02 
          0.0000000000e+00 0.0000000000e+00 -1.0208827892e+03 
          0.0000000000e+00 0.0000000000e+00 -1.0208827892e+03 
          0.0000000000e+00 0.0000000000e+00 -5.0890641111e+02 
          0.0000000000e+00 0.0000000000e+00 -5.0890641111e+02 
          0.0000000000e+00 0.0000000000e+00 -4.5965147224e+02 
          0.0000000000e+00 0.0000000000e+00 -4.5965147224e+02 
          0.0000000000e+00 0.0000000000e+00 -3.7838224383e+02 
          0.0000000000e+00 0.0000000000e+00 -3.7838224383e+02 
          0.0000000000e+00 0.0000000000e+00 -5.0890641111e+02 
          0.0000000000e+00 0.0000000000e+00 -4.5965147224e+02 
          0.0000000000e+00 0.0000000000e+00 -3.7838224383e+02 
          0.0000000000e+00 0.0000000000e+00 -5.0890641111e+02 
          0.0000000000e+00 0.0000000000e+00 -4.5965147224e+02 
          0.0000000000e+00 0.0000000000e+00 -3.7838224383e+02 
          0.0000000000e+00 0.0000000000e+00 -3.0469009641e+02 
          0.0000000000e+00 0.0000000000e+00 -3.0469009641e+02 
          0.0000000000e+00 0.0000000000e+00 -2.7567274864e+02 
          0.0000000000e+00 0.0000000000e+00 -2.7567274864e+02 
          0.0000000000e+00 0.0000000000e+00 -3.7565428787e+02 
          0.0000000000e+00 0.0000000000e+00 -3.7565428787e+02 
          0.0000000000e+00 0.0000000000e+00 -3.0469009641e+02 
          0.0000000000e+00 0.0000000000e+00 -2.7567274864e+02 
          0.0000000000e+00 0.0000000000e+00 -3.7565428787e+02 
          0.0000000000e+00 0.0000000000e+00 -3.0469009641e+02 
          0.0000000000e+00 0.0000000000e+00 -2.7567274864e+02 
          0.0000000000e+00 0.0000000000e+00 -3.7565428787e+02 
          0.0000000000e+00 0.0000000000e+00 -1.7327695299e+02 
          0.0000000000e+00 0.0000000000e+00 -1.7327695299e+02 
          0.0000000000e+00 0.0000000000e+00 -2.1664934963e+02 
          0.0000000000e+00 0.0000000000e+00 -1.7778192028e+02 
          0.0000000000e+00 0.0000000000e+00 -1.7778192028e+02 
          0.0000000000e+00 0.0000000000e+00 -9.8830449814e+01 
          0.0000000000e+00 0.0000000000e+00 -1.3324485435e+02 
          0.0000000000e+00 0.0000000000e+00 -1.3324485435e+02 
          0.0000000000e+00 0.0000000000e+00 -3.5407391026e+02 
          0.0000000000e+00 0.0000000000e+00 -3.5407391026e+02 
          0.0000000000e+00 0.0000000000e+00 -1.7661725099e+02 
          0.0000000000e+00 0.0000000000e+00 -3.2439616719e+02 
          0.0000000000e+00 0.0000000000e+00 -3.2439616719e+02 
          0.0000000000e+00 0.0000000000e+00 -1.7778192028e+02 
          0.0000000000e+00 0.0000000000e+00 -1.7778192028e+02 
          0.0000000000e+00 0.0000000000e+00 -9.8830449814e+01 
          0.0000000000e+00 0.0000000000e+00 -3.3875007904e+02 
          0.0000000000e+00 0.0000000000e+00 -3.3875007904e+02 
          0.0000000000e+00 0.0000000000e+00 -1.7327695299e+02 
          0.0000000000e+00 0.0000000000e+00 -3.2439616719e+02 
          0.0000000000e+00 0.0000000000e+00 -2.1664934963e+02 
          0.0000000000e+00 0.0000000000e+00 -1.3324485435e+02 
          0.0000000000e+00 0.0000000000e+00 -3.5407391026e+02 
          0.0000000000e+00 0.0000000000e+00 -1.7778192028e+02 
          0.0000000000e+00 0.0000000000e+00 -9.8830449814e+01 
          0.0000000000e+00 0.0000000000e+00 -1.7661725099e+02 
          0.0000000000e+00 0.0000000000e+00 -1.7778192028e+02 
          0.0000000000e+00 0.0000000000e+00 -9.8830449814e+01 
          0.0000000000e+00 0.0000000000e+00 -3.3875007904e+02 
          0.0000000000e+00 0.0000000000e+00 -9.4021184165e+01 
          0.0000000000e+00 0.0000000000e+00 -1.1361499670e+02 
          0.0000000000e+00 0.0000000000e+00 -1.1361499670e+02 
          0.0000000000e+00 0.0000000000e+00 -1.7327695299e+02 
          0.0000000000e+00 0.0000000000e+00 -3.2439616719e+02 
          0.0000000000e+00 0.0000000000e+00 -2.1664934963e+02 
          0.0000000000e+00 0.0000000000e+00 -1.3324485435e+02 
          0.0000000000e+00 0.0000000000e+00 -3.5407391026e+02 
          0.0000000000e+00 0.0000000000e+00 -1.7778192028e+02 
          0.0000000000e+00 0.0000000000e+00 -9.8830449814e+01 
          0.0000000000e+00 0.0000000000e+00 -1.7661725099e+02 
          0.0000000000e+00 0.0000000000e+00 -1.7778192028e+02 
          0.0000000000e+00 0.0000000000e+00 -9.8830449814e+01 
          0.0000000000e+00 0.0000000000e+00 -3.3875007904e+02 
          0.0000000000e+00 0.0000000000e+00 -2.1664934963e+02 
          0.0000000000e+00 0.0000000000e+00 -9.8830449814e+01 
          0.0000000000e+00 0.0000000000e+00 -1.7661725099e+02 
          0.0000000000e+00 0.0000000000e+00 -9.8830449814e+01 
          0.0000000000e+00 0.0000000000e+00 -9.4021184165e+01 
          0.0000000000e+00 0.0000000000e+00 -1.1361499670e+02 
          0.0000000000e+00 0.0000000000e+00 -1.1361499670e+02 
          0.0000000000e+00 0.0000000000e+00 -1.4689917585e+02 
          0.0000000000e+00 0.0000000000e+00 -1.4690025585e+02 
          0.0000000000e+00 0.0000000000e+00 -1.0427317665e+02 
          0.0000000000e+00 0.0000000000e+00 -1.4689917585e+02 
          0.0000000000e+00 0.0000000000e+00 -1.4690025585e+02 
          0.0000000000e+00 0.0000000000e+00 -1.0427317665e+02 
          0.0000000000e+00 0.0000000000e+00 -1.4690025585e+02 
          0.0000000000e+00 0.0000000000e+00 -1.0427317665e+02 
          0.0000000000e+00 0.0000000000e+00 -1.4690025585e+02 
          0.0000000000e+00 0.0000000000e+00 -1.0427317665e+02 
          0.0000000000e+00 0.0000000000e+00 -1.4689917585e+02 
          0.0000000000e+00 0.0000000000e+00 -1.4690025585e+02 
          0.0000000000e+00 0.0000000000e+00 -1.0427317665e+02 
          0.0000000000e+00 0.0000000000e+00 -1.4689917585e+02 
          0.0000000000e+00 0.0000000000e+00 -1.4690025585e+02 
          0.0000000000e+00 0.0000000000e+00 -1.0427317665e+02 
          0.0000000000e+00 0.0000000000e+00 -1.4690025585e+02 
          0.0000000000e+00 0.0000000000e+00 -1.0427317665e+02 
          0.0000000000e+00 0.0000000000e+00 -1.4690025585e+02 
          0.0000000000e+00 0.0000000000e+00 -1.0427317665e+02 
          0.0000000000e+00 0.0000000000e+00 -1.4689917585e+02 
          0.0000000000e+00 0.0000000000e+00 -1.4690025585e+02 
          0.0000000000e+00 0.0000000000e+00 -1.0427317665e+02 
          0.0000000000e+00 0.0000000000e+00 -1.4689917585e+02 
          0.0000000000e+00 0.0000000000e+00 -1.4690025585e+02 
          0.0000000000e+00 0.0000000000e+00 -1.0427317665e+02 
          0.0000000000e+00 0.0000000000e+00 -1.4690025585e+02 
          0.0000000000e+00 0.0000000000e+00 -1.0427317665e+02 
          0.0000000000e+00 0.0000000000e+00 -1.4690025585e+02 
          0.0000000000e+00 0.0000000000e+00 -1.0427317665e+02 
          0.0000000000e+00 0.0000000000e+00 -9.4245186195e+01 
          0.0000000000e+00 0.0000000000e+00 -9.4245186195e+01 
          0.0000000000e+00 0.0000000000e+00 -2.5763057978e+01 
          0.0000000000e+00 0.0000000000e+00 -2.5763057978e+01 
          0.0000000000e+00 0.0000000000e+00 -2.5763057978e+01 
          0.0000000000e+00 0.0000000000e+00 -2.5763057978e+01 
          0.0000000000e+00 0.0000000000e+00 -1.2535696535e+02 
          0.0000000000e+00 0.0000000000e+00 -1.1323354606e+02 
          0.0000000000e+00 0.0000000000e+00 -1.0208526875e+02 
          0.0000000000e+00 0.0000000000e+00 -1.2535696535e+02 
          0.0000000000e+00 0.0000000000e+00 -1.1323354606e+02 
          0.0000000000e+00 0.0000000000e+00 -1.0208526875e+02 
          0.0000000000e+00 0.0000000000e+00 -1.2535696535e+02 
          0.0000000000e+00 0.0000000000e+00 -1.1323354606e+02 
          0.0000000000e+00 0.0000000000e+00 -1.0208526875e+02 
          0.0000000000e+00 0.0000000000e+00 -1.2535696535e+02 
          0.0000000000e+00 0.0000000000e+00 -1.1323354606e+02 
          0.0000000000e+00 0.0000000000e+00 -1.0208526875e+02 
          0.0000000000e+00 0.0000000000e+00 -9.2051268469e+01 
          0.0000000000e+00 0.0000000000e+00 -8.2847673658e+01 
          0.0000000000e+00 0.0000000000e+00 -7.5097572125e+01 
          0.0000000000e+00 0.0000000000e+00 -9.2051268469e+01 
          0.0000000000e+00 0.0000000000e+00 -8.2847673658e+01 
          0.0000000000e+00 0.0000000000e+00 -7.5097572125e+01 
          0.0000000000e+00 0.0000000000e+00 -9.2051268469e+01 
          0.0000000000e+00 0.0000000000e+00 -8.2847673658e+01 
          0.0000000000e+00 0.0000000000e+00 -7.5097572125e+01 
          0.0000000000e+00 0.0000000000e+00 -9.2051268469e+01 
          0.0000000000e+00 0.0000000000e+00 -8.2847673658e+01 
          0.0000000000e+00 0.0000000000e+00 -7.5097572125e+01 
        </DataArray>
      </PointData>
      <CellData>
        <DataArray type="Int64" Name="ElementTag" format="ascii">
          0
        </DataArray>
      </CellData>
    </Piece>
  </UnstructuredGrid>
</VTKFile>
