<?xml version="1.0"?>
<VTKFile type="UnstructuredGrid" version="1.0" byte_order="LittleEndian" compressor="vtkZLibDataCompressor">
  <UnstructuredGrid>
    <Piece NumberOfPoints="158" NumberOfCells="1">
      <Points>
        <DataArray type="Float64" Name="Points" NumberOfComponents="3" format="ascii">
          1.7550000000e+00 -1.7550000000e+00 0.0000000000e+00 
          1.4140000000e+00 0.0000000000e+00 5.2300000000e+00 
          1.7550000000e+00 1.7550000000e+00 -0.0000000000e+00 
          1.4140000000e+00 -1.4140000000e+00 5.2300000000e+00 
          1.4140000000e+00 1.4140000000e+00 5.2300000000e+00 
          1.5840000000e+00 8.7800000000e-01 2.6150000000e+00 
          1.5840000000e+00 -8.7700000000e-01 2.6150000000e+00 
          1.5840000000e+00 1.5840000000e+00 2.6150000000e+00 
          1.5840000000e+00 -1.5840000000e+00 2.6150000000e+00 
          -0.0000000000e+00 1.4140000000e+00 5.2300000000e+00 
          -1.7550000000e+00 1.7550000000e+00 -0.0000000000e+00 
          -1.4140000000e+00 1.4140000000e+00 5.2300000000e+00 
          -8.7700000000e-01 1.5840000000e+00 2.6150000000e+00 
          8.7700000000e-01 1.5840000000e+00 2.6150000000e+00 
          -1.5840000000e+00 1.5840000000e+00 2.6150000000e+00 
          -1.4140000000e+00 -0.0000000000e+00 5.2300000000e+00 
          -1.7550000000e+00 -1.7550000000e+00 -0.0000000000e+00 
          -1.4140000000e+00 -1.4140000000e+00 5.2300000000e+00 
          -1.5840000000e+00 -8.7700000000e-01 2.6150000000e+00 
          -1.5840000000e+00 8.7700000000e-01 2.6150000000e+00 
          -1.5840000000e+00 -1.5840000000e+00 2.6150000000e+00 
          0.0000000000e+00 -1.4140000000e+00 5.2300000000e+00 
          8.7700000000e-01 -1.5840000000e+00 2.6150000000e+00 
          -8.7700000000e-01 -1.5840000000e+00 2.6150000000e+00 
          1.2750000000e+00 1.2750000000e+00 7.3500000000e+00 
          1.2750000000e+00 -1.2750000000e+00 7.3500000000e+00 
          1.1500000000e+00 -1.1500000000e+00 9.2700000000e+00 
          1.1500000000e+00 1.1500000000e+00 9.2700000000e+00 
          1.0370000000e+00 -1.0370000000e+00 1.1000000000e+01 
          1.0370000000e+00 1.0370000000e+00 1.1000000000e+01 
          -1.2750000000e+00 1.2750000000e+00 7.3500000000e+00 
          -1.1500000000e+00 1.1500000000e+00 9.2700000000e+00 
          -1.0370000000e+00 1.0370000000e+00 1.1000000000e+01 
          -1.2750000000e+00 -1.2750000000e+00 7.3500000000e+00 
          -1.1500000000e+00 -1.1500000000e+00 9.2700000000e+00 
          -1.0370000000e+00 -1.0370000000e+00 1.1000000000e+01 
          9.3500000000e-01 9.3500000000e-01 1.2560000000e+01 
          9.3500000000e-01 -9.3500000000e-01 1.2560000000e+01 
          8.4300000000e-01 8.4300000000e-01 1.3960000000e+01 
          8.4300000000e-01 -8.4300000000e-01 1.3960000000e+01 
          7.6000000000e-01 7.6000000000e-01 1.5240000000e+01 
          7.6000000000e-01 -7.6000000000e-01 1.5240000000e+01 
          -9.3500000000e-01 9.3500000000e-01 1.2560000000e+01 
          -8.4300000000e-01 8.4300000000e-01 1.3960000000e+01 
          -7.6000000000e-01 7.6000000000e-01 1.5240000000e+01 
          -9.3500000000e-01 -9.3500000000e-01 1.2560000000e+01 
          -8.4300000000e-01 -8.4300000000e-01 1.3960000000e+01 
          -7.6000000000e-01 -7.6000000000e-01 1.5240000000e+01 
          7.6000000000e-01 -7.6000000000e-01 1.6240000000e+01 
          7.6000000000e-01 7.6000000000e-01 1.6240000000e+01 
          7.6000000000e-01 0.0000000000e+00 1.6240000000e+01 
          7.6000000000e-01 7.6000000000e-01 1.7340000000e+01 
          7.6000000000e-01 -7.6000000000e-01 1.7340000000e+01 
          7.6000000000e-01 0.0000000000e+00 1.7890000000e+01 
          7.6000000000e-01 -7.6000000000e-01 1.9440000000e+01 
          7.6000000000e-01 7.6000000000e-01 1.9440000000e+01 
          7.6000000000e-01 -7.6000000000e-01 2.1640000000e+01 
          7.6000000000e-01 7.6000000000e-01 2.1640000000e+01 
          7.6000000000e-01 0.0000000000e+00 1.9440000000e+01 
          7.6000000000e-01 7.6000000000e-01 1.8440000000e+01 
          7.6000000000e-01 -7.6000000000e-01 1.8440000000e+01 
          7.6000000000e-01 -7.6000000000e-01 2.0540000000e+01 
          7.6000000000e-01 7.6000000000e-01 2.0540000000e+01 
          7.6000000000e-01 0.0000000000e+00 2.1090000000e+01 
          7.6000000000e-01 7.6000000000e-01 2.2640000000e+01 
          7.6000000000e-01 -7.6000000000e-01 2.2640000000e+01 
          -7.6000000000e-01 7.6000000000e-01 1.6240000000e+01 
          -7.6000000000e-01 7.6000000000e-01 1.8440000000e+01 
          -0.0000000000e+00 7.6000000000e-01 1.6240000000e+01 
          -7.6000000000e-01 7.6000000000e-01 1.9440000000e+01 
          -7.6000000000e-01 7.6000000000e-01 2.1640000000e+01 
          -7.6000000000e-01 7.6000000000e-01 1.7340000000e+01 
          -0.0000000000e+00 7.6000000000e-01 1.7890000000e+01 
          -0.0000000000e+00 7.6000000000e-01 1.9440000000e+01 
          -7.6000000000e-01 7.6000000000e-01 2.0540000000e+01 
          0.0000000000e+00 7.6000000000e-01 2.1090000000e+01 
          -7.6000000000e-01 7.6000000000e-01 2.2640000000e+01 
          -0.0000000000e+00 5.2600000000e-01 2.3499000000e+01 
          3.9900000000e-01 4.0400000000e-01 2.3950000000e+01 
          -3.9900000000e-01 4.0400000000e-01 2.3950000000e+01 
          -7.6000000000e-01 -7.6000000000e-01 1.6240000000e+01 
          -7.6000000000e-01 -7.6000000000e-01 1.8440000000e+01 
          -7.6000000000e-01 -0.0000000000e+00 1.6240000000e+01 
          -7.6000000000e-01 -7.6000000000e-01 1.9440000000e+01 
          -7.6000000000e-01 -7.6000000000e-01 2.1640000000e+01 
          -7.6000000000e-01 -7.6000000000e-01 1.7340000000e+01 
          -7.6000000000e-01 0.0000000000e+00 1.7890000000e+01 
          -7.6000000000e-01 -0.0000000000e+00 1.9440000000e+01 
          -7.6000000000e-01 -7.6000000000e-01 2.0540000000e+01 
          -7.6000000000e-01 -0.0000000000e+00 2.1090000000e+01 
          -7.6000000000e-01 -7.6000000000e-01 2.2640000000e+01 
          0.0000000000e+00 -7.6000000000e-01 1.6240000000e+01 
          0.0000000000e+00 -7.6000000000e-01 1.7890000000e+01 
          0.0000000000e+00 -7.6000000000e-01 1.9440000000e+01 
          0.0000000000e+00 -7.6000000000e-01 2.1090000000e+01 
          0.0000000000e+00 -5.2600000000e-01 2.3499000000e+01 
          3.9900000000e-01 -4.0400000000e-01 2.3950000000e+01 
          -3.9900000000e-01 -4.0400000000e-01 2.3950000000e+01 
          -0.0000000000e+00 -3.3500000000e+00 2.1640000000e+01 
          -3.8000000000e-01 -2.0550000000e+00 2.2140000000e+01 
          -3.8000000000e-01 -2.0550000000e+00 2.1640000000e+01 
          0.0000000000e+00 3.3500000000e+00 2.1640000000e+01 
          -3.8000000000e-01 2.0550000000e+00 2.2140000000e+01 
          -3.8000000000e-01 2.0550000000e+00 2.1640000000e+01 
          3.8000000000e-01 2.0550000000e+00 2.2140000000e+01 
          3.8000000000e-01 2.0550000000e+00 2.1640000000e+01 
          3.8000000000e-01 -2.0550000000e+00 2.2140000000e+01 
          3.8000000000e-01 -2.0550000000e+00 2.1640000000e+01 
          -0.0000000000e+00 -3.3500000000e+00 1.8440000000e+01 
          -3.8000000000e-01 -2.0550000000e+00 1.8940000000e+01 
          -3.8000000000e-01 -2.0550000000e+00 1.8440000000e+01 
          -0.0000000000e+00 3.3500000000e+00 1.8440000000e+01 
          -3.8000000000e-01 2.0550000000e+00 1.8940000000e+01 
          -3.8000000000e-01 2.0550000000e+00 1.8440000000e+01 
          3.8000000000e-01 2.0550000000e+00 1.8940000000e+01 
          3.8000000000e-01 2.0550000000e+00 1.8440000000e+01 
          3.8000000000e-01 -2.0550000000e+00 1.8940000000e+01 
          3.8000000000e-01 -2.0550000000e+00 1.8440000000e+01 
          -0.0000000000e+00 -3.3500000000e+00 1.5240000000e+01 
          -3.8000000000e-01 -2.0550000000e+00 1.5740000000e+01 
          -3.8000000000e-01 -2.0550000000e+00 1.5240000000e+01 
          -0.0000000000e+00 3.3500000000e+00 1.5240000000e+01 
          -3.8000000000e-01 2.0550000000e+00 1.5740000000e+01 
          -3.8000000000e-01 2.0550000000e+00 1.5240000000e+01 
          3.8000000000e-01 2.0550000000e+00 1.5740000000e+01 
          3.8000000000e-01 2.0550000000e+00 1.5240000000e+01 
          3.8000000000e-01 -2.0550000000e+00 1.5740000000e+01 
          3.8000000000e-01 -2.0550000000e+00 1.5240000000e+01 
          -5.2400000000e-01 0.0000000000e+00 2.3496000000e+01 
          5.2400000000e-01 0.0000000000e+00 2.3496000000e+01 
          4.0000000000e-02 5.0000000000e-02 2.5250000000e+01 
          -4.0000000000e-02 5.0000000000e-02 2.5250000000e+01 
          -4.0000000000e-02 -5.0000000000e-02 2.5250000000e+01 
          4.0000000000e-02 -5.0000000000e-02 2.5250000000e+01 
          1.3410000000e+00 0.0000000000e+00 6.3450000000e+00 
          1.2090000000e+00 0.0000000000e+00 8.3600000000e+00 
          1.0900000000e+00 -0.0000000000e+00 1.0180000000e+01 
          -0.0000000000e+00 1.3410000000e+00 6.3450000000e+00 
          0.0000000000e+00 1.2090000000e+00 8.3600000000e+00 
          -0.0000000000e+00 1.0900000000e+00 1.0180000000e+01 
          -1.3410000000e+00 0.0000000000e+00 6.3450000000e+00 
          -1.2090000000e+00 0.0000000000e+00 8.3600000000e+00 
          -1.0900000000e+00 -0.0000000000e+00 1.0180000000e+01 
          -0.0000000000e+00 -1.3410000000e+00 6.3450000000e+00 
          0.0000000000e+00 -1.2090000000e+00 8.3600000000e+00 
          0.0000000000e+00 -1.0900000000e+00 1.0180000000e+01 
          9.8300000000e-01 0.0000000000e+00 1.1820000000e+01 
          8.8700000000e-01 0.0000000000e+00 1.3296000000e+01 
          8.0000000000e-01 -0.0000000000e+00 1.4633000000e+01 
          0.0000000000e+00 9.8300000000e-01 1.1820000000e+01 
          -0.0000000000e+00 8.8700000000e-01 1.3296000000e+01 
          0.0000000000e+00 8.0000000000e-01 1.4633000000e+01 
          -9.8300000000e-01 0.0000000000e+00 1.1820000000e+01 
          -8.8700000000e-01 0.0000000000e+00 1.3296000000e+01 
          -8.0000000000e-01 0.0000000000e+00 1.4633000000e+01 
          0.0000000000e+00 -9.8300000000e-01 1.1820000000e+01 
          0.0000000000e+00 -8.8700000000e-01 1.3296000000e+01 
          0.0000000000e+00 -8.0000000000e-01 1.4633000000e+01 
        </DataArray>
      </Points>
      <Cells>
        <DataArray type="Int64" Name="connectivity" format="ascii">
          0
          1
          2
          3
          4
          5
          6
          7
          8
          9
          10
          11
          12
          13
          14
          15
          16
          17
          18
          19
          20
          21
          22
          23
          24
          25
          26
          27
          28
          29
          30
          31
          32
          33
          34
          35
          36
          37
          38
          39
          40
          41
          42
          43
          44
          45
          46
          47
          48
          49
          50
          51
          52
          53
          54
          55
          56
          57
          58
          59
          60
          61
          62
          63
          64
          65
          66
          67
          68
          69
          70
          71
          72
          73
          74
          75
          76
          77
          78
          79
          80
          81
          82
          83
          84
          85
          86
          87
          88
          89
          90
          91
          92
          93
          94
          95
          96
          97
          98
          99
          100
          101
          102
          103
          104
          105
          106
          107
          108
          109
          110
          111
          112
          113
          114
          115
          116
          117
          118
          119
          120
          121
          122
          123
          124
          125
          126
          127
          128
          129
          130
          131
          132
          133
          134
          135
          136
          137
          138
          139
          140
          141
          142
          143
          144
          145
          146
          147
          148
          149
          150
          151
          152
          153
          154
          155
          156
          157
        </DataArray>
        <DataArray type="Int64" Name="offsets" format="ascii">
          158
        </DataArray>
        <DataArray type="Int64" Name="types" format="ascii">
          2
        </DataArray>
      </Cells>
      <PointData>
        <DataArray type="Int64" Name="NodeTag" format="ascii">
          1
          2
          3
          4
          5
          6
          7
          8
          9
          10
          11
          12
          13
          14
          15
          16
          17
          18
          19
          20
          21
          22
          23
          24
          25
          26
          27
          28
          29
          30
          31
          32
          33
          34
          35
          36
          37
          38
          39
          40
          41
          42
          43
          44
          45
          46
          47
          48
          49
          50
          51
          52
          53
          54
          55
          56
          57
          58
          59
          60
          61
          62
          63
          64
          65
          66
          67
          68
          69
          70
          71
          72
          73
          74
          75
          76
          77
          78
          79
          80
          81
          82
          83
          84
          85
          86
          87
          88
          89
          90
          91
          92
          93
          94
          95
          96
          97
          98
          99
          100
          101
          102
          103
          104
          105
          106
          107
          108
          109
          110
          111
          112
          113
          114
          115
          116
          117
          118
          119
          120
          121
          122
          123
          124
          125
          126
          127
          128
          129
          130
          131
          132
          133
          134
          135
          136
          137
          138
          139
          140
          141
          142
          143
          144
          145
          146
          147
          148
          149
          150
          151
          152
          153
          154
          155
          156
          157
          158
        </DataArray>
        <DataArray type="Float64" Name="Displacement" NumberOfComponents="3" format="ascii">
          0.0000000000e+00 0.0000000000e+00 0.0000000000e+00 
          2.1979543098e-15 -8.4017041173e-16 6.2583318988e-17 
          0.0000000000e+00 0.0000000000e+00 0.0000000000e+00 
          1.4782107103e-15 -8.7213863142e-16 -1.0491922508e-16 
          1.3583702877e-15 -8.4850902921e-16 3.1191488659e-16 
          1.9163150533e-15 -3.8513898469e-17 1.5968893823e-16 
          2.1277991211e-15 -4.2588919419e-16 6.4181118616e-17 
          1.0706906647e-15 -3.7878738434e-17 2.0597466173e-16 
          8.3884947806e-16 -4.2848265062e-16 -8.2128330388e-17 
          1.3210131781e-15 -2.6491675649e-15 -7.9005779262e-17 
          0.0000000000e+00 0.0000000000e+00 0.0000000000e+00 
          1.3573486361e-15 -1.5982802831e-15 -6.4475707285e-17 
          9.3689730717e-16 -1.1991127671e-15 -1.3963326006e-16 
          1.0800770275e-15 -1.3087584977e-15 2.1939899709e-16 
          9.4344387541e-16 -1.4895685261e-15 -7.4921595963e-17 
          3.6350700245e-15 -1.5687219585e-15 -2.0054103894e-16 
          0.0000000000e+00 0.0000000000e+00 0.0000000000e+00 
          1.5290021862e-15 -1.5952255231e-15 -5.4469258633e-16 
          3.8761239878e-15 -5.8993700566e-16 -3.7745962443e-16 
          1.3939349664e-15 -1.4855387033e-15 -2.3079843095e-16 
          2.4297879351e-15 -6.0622785998e-16 -2.6564107845e-16 
          1.4618349619e-15 -1.7624592486e-15 8.2580312081e-17 
          8.4141043101e-16 -4.2632770166e-16 6.5914057421e-17 
          2.4274635906e-15 -8.0910248174e-16 -5.6853645229e-16 
          1.0645891667e-15 -1.5815665582e-15 5.7079599995e-16 
          1.3964970371e-15 -1.2105748129e-15 -2.4822867274e-16 
          6.4019981978e-16 -2.1155153574e-15 -3.8325595357e-16 
          1.0386514881e-15 -2.0885879673e-15 8.4274879345e-16 
          4.4579365033e-17 -3.3400562694e-15 -4.6956625913e-16 
          3.0556450091e-16 -3.2641967161e-15 9.7918514936e-16 
          1.5014726072e-15 -2.4201681398e-15 7.0707194826e-17 
          7.3636083810e-16 -3.0566675989e-15 2.1898602839e-16 
          6.7743711750e-16 -4.4306936041e-15 2.3293806680e-16 
          8.6674918040e-16 -2.2372874823e-15 -7.9656251092e-16 
          6.4394599159e-16 -3.4209330528e-15 -1.0119504956e-15 
          -7.6240861426e-17 -4.4371186785e-15 -1.1565436054e-15 
          -2.0486392616e-17 -4.8088516921e-15 1.1856893929e-15 
          -3.4586810798e-16 -4.5943304734e-15 -5.3855672021e-16 
          -4.9339492249e-16 -6.0674251744e-15 1.3761450169e-15 
          -1.0598577523e-15 -6.2126962990e-15 -5.5748921915e-16 
          -1.1611866281e-15 -7.9030475145e-15 1.5057387406e-15 
          -1.6115845729e-15 -7.6715095290e-15 -5.1612868105e-16 
          2.4777514701e-16 -5.8605957371e-15 2.7627132125e-16 
          -4.4571839846e-16 -7.0586930407e-15 2.8231322337e-16 
          -1.0948219498e-15 -8.5344535642e-15 2.1981943323e-16 
          -6.9419810826e-16 -5.7325329340e-15 -1.3147312906e-15 
          -9.8148282643e-16 -7.3410688831e-15 -1.4633674023e-15 
          -1.6896029923e-15 -8.6804481915e-15 -1.6155443812e-15 
          -2.3358194473e-15 -9.1900739058e-15 -4.4196308803e-16 
          -2.0468047045e-15 -9.1919335054e-15 2.0122918191e-15 
          -2.9980961168e-15 -9.1913507759e-15 7.3421437531e-16 
          -4.2257779107e-15 -1.1751757789e-14 2.5871539641e-15 
          -3.8427266368e-15 -1.1035451644e-14 -3.4148371176e-16 
          -5.7571586862e-15 -1.2475994271e-14 1.5573618227e-15 
          -8.3059232686e-15 -1.6145097837e-14 -1.5608193579e-16 
          -8.3030354209e-15 -1.6045092295e-14 3.6960750189e-15 
          -1.4797387835e-14 -2.2941180539e-14 9.6398821201e-17 
          -1.5170877326e-14 -2.2785253727e-14 4.6455754595e-15 
          -8.1672750286e-15 -1.6126569938e-14 1.6501141842e-15 
          -6.0415665067e-15 -1.3776958274e-14 3.2876283962e-15 
          -6.1517982082e-15 -1.3762203119e-14 -2.1777508025e-16 
          -1.1138334688e-14 -1.9103284642e-14 -8.4244367157e-17 
          -1.1711795094e-14 -1.9839159068e-14 4.1903892920e-15 
          -1.1660817003e-14 -2.1119264655e-14 2.5072472347e-15 
          -1.8670854471e-14 -2.6111450013e-14 4.7995088957e-15 
          -1.8199998372e-14 -2.5963749051e-14 1.9919506042e-16 
          -2.0178300371e-15 -9.9476602541e-15 1.6001293874e-16 
          -6.0472585001e-15 -1.4375551672e-14 -5.3389330446e-17 
          -2.0303385427e-15 -9.8731606408e-15 9.9358036889e-16 
          -8.3136298751e-15 -1.6638844238e-14 -1.5547389226e-16 
          -1.5165639351e-14 -2.2558656212e-14 -4.8012350239e-16 
          -3.5591630548e-15 -1.1591436393e-14 7.1968256128e-17 
          -4.8218924335e-15 -1.1879804299e-14 1.7147136901e-15 
          -8.3042137821e-15 -1.6036033581e-14 1.7445717817e-15 
          -1.1464343541e-14 -1.9135662920e-14 -3.0431091239e-16 
          -1.3262850872e-14 -2.1060151308e-14 2.0868950233e-15 
          -1.8679021715e-14 -2.5474674452e-14 -5.3164631686e-16 
          -2.1865965623e-14 -2.8325006036e-14 1.4340505631e-15 
          -2.3506342424e-14 -3.0139496883e-14 2.3403068225e-15 
          -2.3557490637e-14 -2.9391909558e-14 -2.8657738870e-16 
          -2.3457917380e-15 -9.9478297027e-15 -2.1329402350e-15 
          -6.1601253810e-15 -1.4327569350e-14 -3.3924129661e-15 
          -2.2696283640e-15 -9.9409410034e-15 -8.8692459806e-16 
          -8.3207973885e-15 -1.6527265041e-14 -3.7791785598e-15 
          -1.4781271949e-14 -2.2442030277e-14 -4.7903431875e-15 
          -4.3446759096e-15 -1.2502985833e-14 -2.7114029539e-15 
          -3.7484445604e-15 -1.3098478716e-14 -1.8655512296e-15 
          -7.0924397100e-15 -1.6583778899e-14 -1.8908700604e-15 
          -1.1624831516e-14 -1.9845340270e-14 -4.2402775615e-15 
          -1.3166328896e-14 -2.0930128717e-14 -2.7395683604e-15 
          -1.8243510109e-14 -2.5601216804e-14 -5.0375418759e-15 
          -2.3471296331e-15 -9.8822234188e-15 -1.2318045507e-15 
          -4.9784075217e-15 -1.3630479274e-14 -1.8298764732e-15 
          -8.3116734652e-15 -1.6327109676e-14 -1.8916346900e-15 
          -1.2948326560e-14 -2.0111684901e-14 -2.4282003308e-15 
          -2.1250161951e-14 -2.8290580650e-14 -1.8493382259e-15 
          -2.3095836130e-14 -3.0116411373e-14 1.5125422917e-16 
          -2.2719884957e-14 -2.9380155532e-14 -2.8440270278e-15 
          -1.5356571815e-14 -2.2710711599e-14 -1.0383802843e-14 
          -2.0670143123e-14 -2.5173834122e-14 -8.2086190951e-15 
          -1.4959664034e-14 -2.2537701868e-14 -8.2330101860e-15 
          -1.4047301248e-14 -2.2551416843e-14 1.0906383519e-14 
          -1.7933787618e-14 -2.3833056496e-14 4.2581317263e-15 
          -1.1760892563e-14 -2.3368302040e-14 4.2334344719e-15 
          -1.7962262307e-14 -2.4735365499e-14 8.2246483666e-15 
          -1.1725215455e-14 -2.1844957473e-14 8.2453720099e-15 
          -2.0718375607e-14 -2.3274837082e-14 -4.6865475518e-15 
          -1.4925274010e-14 -2.2890580736e-14 -4.6686749553e-15 
          -5.4039262465e-15 -1.3938258756e-14 -8.2157271233e-15 
          -5.4694045082e-15 -1.4990248076e-14 -5.3667487699e-15 
          -3.3154923966e-15 -1.3406353052e-14 -5.3523763171e-15 
          -7.4327175022e-15 -1.4266432188e-14 6.7386920558e-15 
          -2.9861387055e-15 -1.6719472884e-14 3.9015754094e-15 
          -1.5089490634e-15 -1.5867067740e-14 3.9140139437e-15 
          -2.9840512492e-15 -1.3650652831e-14 5.3547306039e-15 
          -1.5050598959e-15 -1.2480320880e-14 5.3507101709e-15 
          -5.4653103089e-15 -1.5498357117e-14 -4.0543969489e-15 
          -3.3251028869e-15 -1.4561266207e-14 -4.0527702984e-15 
          4.4462406316e-16 -8.1084247232e-15 -5.1529722301e-15 
          -3.3471627984e-15 -9.8848717912e-15 -3.1555736690e-15 
          -4.0208747468e-15 -9.3881935156e-15 -3.1472429909e-15 
          -1.9994457287e-15 -8.2207181097e-15 4.5575713090e-15 
          -4.1200259174e-15 -8.4516807054e-15 2.4986775669e-15 
          -4.2989286124e-15 -7.5669264336e-15 2.5057950110e-15 
          -4.1478922738e-15 -9.4327002328e-15 2.9878186287e-15 
          -4.2746480615e-15 -8.8367727588e-15 2.9825698546e-15 
          -3.3419529804e-15 -7.9860115777e-15 -2.7082374080e-15 
          -4.0249023958e-15 -6.8718331879e-15 -2.7083413367e-15 
          -1.9051270304e-14 -2.8045867290e-14 -2.6866857493e-15 
          -2.1544685038e-14 -2.8786096543e-14 1.7023996234e-15 
          -2.7548854304e-14 -3.1073835678e-14 6.9423876795e-16 
          -2.7569257584e-14 -3.1071560599e-14 3.4037288290e-16 
          -2.7653679069e-14 -3.1053091336e-14 -9.6237116827e-16 
          -2.7674233410e-14 -3.1092180857e-14 -6.2749313273e-16 
          -3.6973217022e-15 -1.0492224270e-15 -3.3354357222e-16 
          2.8146729479e-15 -1.6739608952e-15 4.4240155955e-16 
          2.9427554862e-15 -2.6562232344e-15 4.2323765748e-16 
          1.3543138515e-15 1.7046518302e-15 2.9678198963e-16 
          1.1108241715e-15 -5.0318444638e-15 4.8447332366e-16 
          7.1111503793e-16 -4.1857750869e-15 3.0005783373e-16 
          -4.2595004932e-15 -1.8826430752e-15 -3.9114219683e-17 
          3.7551820181e-15 -2.7208221935e-15 -3.8242138390e-16 
          2.9520146594e-15 -3.8019415724e-15 -6.9439885083e-16 
          1.3456821607e-15 2.9286178483e-15 -5.2891663922e-16 
          9.0827365022e-16 -6.2241191975e-15 -5.2194756185e-16 
          3.1867103500e-16 -4.2325647570e-15 -6.6227096822e-16 
          2.3135321309e-16 -3.9567446009e-15 2.1388155663e-16 
          -2.4082036513e-15 -5.3852398583e-15 3.6106172674e-16 
          -2.0368931739e-15 -6.9466320984e-15 2.7378515912e-16 
          3.4390229918e-16 -4.2826617006e-15 7.1237643658e-16 
          -1.3645315265e-16 -4.6950182569e-15 9.3139302870e-16 
          -7.5065812889e-16 -7.6176874022e-15 8.2600114368e-16 
          -1.4500386481e-15 -5.0746817250e-15 -4.4786975198e-16 
          -8.6932710059e-16 -6.4747745609e-15 -3.9142599238e-16 
          -1.3266587187e-15 -7.8844136491e-15 -6.6620893702e-16 
          -2.5191589567e-16 -3.6073572218e-15 -8.5468802454e-16 
          -7.3812255631e-16 -5.9027981128e-15 -1.1124067788e-15 
          -1.2922006321e-15 -7.8010455258e-15 -9.7296603261e-16 
        </DataArray>
        <DataArray type="Float64" Name="Reaction" NumberOfComponents="3" format="ascii">
          -1.6944389668e-08 2.2812247955e-08 1.2627050527e-07 
          -8.5409007202e-09 -1.0180289034e-09 -3.0222247215e-09 
          2.6061849909e-09 5.4627766012e-10 -2.9647508400e-08 
          -4.2661332918e-11 -5.8670482310e-09 -1.1748568894e-09 
          9.4326511200e-09 -1.4831687471e-09 -3.6639308163e-09 
          7.4203374971e-09 6.9322776576e-09 -6.1015993334e-09 
          -2.7014054066e-10 -3.6982775835e-09 -5.1992038890e-11 
          -7.9692380909e-09 5.9811990608e-09 3.5284246814e-09 
          4.6837599872e-09 -3.1788548681e-09 2.7284154501e-11 
          6.2773762967e-09 -4.8191518646e-09 -4.9426898877e-09 
          -2.4203853776e-08 3.2253331362e-08 -1.3579517091e-07 
          1.0232127803e-08 2.9183882950e-09 -1.3885179748e-09 
          -5.4649926312e-09 6.6837783135e-09 2.4857231297e-09 
          -9.6189709842e-09 -6.6036608913e-09 -3.5925893070e-09 
          -3.7751360400e-09 -1.0469079483e-08 -4.8265336590e-10 
          4.0114715190e-09 1.3067140762e-09 3.7066600219e-09 
          -5.3675627271e-10 2.1636176494e-08 5.7922345400e-08 
          -2.4632035034e-09 1.2504519701e-09 7.9415025825e-10 
          1.6022431294e-08 -1.3572822326e-09 -2.9974460910e-09 
          8.9098657169e-09 -1.5489638807e-08 -3.0044292925e-09 
          1.2187215489e-09 -2.4334112664e-09 2.0576004824e-09 
          -1.2182985127e-10 -9.3408712354e-09 -1.8075315139e-09 
          5.7639667367e-09 1.7761189053e-10 -1.5343822020e-09 
          1.1172427532e-09 -1.1068651590e-08 3.9461494367e-09 
          1.9193231854e-09 -1.7759373231e-09 -4.7950249614e-10 
          3.0250206032e-09 3.5526669326e-09 -5.4801217041e-10 
          1.7307079226e-09 1.7248554335e-09 -4.5359129272e-10 
          1.0301885014e-09 3.0160823075e-09 1.0522916297e-09 
          -4.2194860033e-09 -9.9617535329e-10 -4.5597903572e-10 
          1.0393001892e-09 7.1471247110e-10 7.6815308765e-10 
          2.0076928358e-09 -5.1150590088e-09 -6.7172378858e-10 
          -2.0491781084e-10 1.7380347704e-09 8.7170062095e-10 
          -2.1873526691e-09 2.1275186113e-09 7.3364188409e-10 
          9.7869301143e-10 8.4981478967e-10 -4.6131069225e-10 
          8.7956178492e-10 -2.8357394122e-09 -4.2027624352e-11 
          -2.9914449093e-09 -1.6515622946e-09 6.2230060502e-11 
          3.6857235071e-10 -2.5389648408e-09 -3.5156430880e-11 
          2.1827339565e-10 -8.6378396537e-10 -6.6369823480e-11 
          -5.1842526148e-10 -1.8277094177e-10 -2.6760511418e-10 
          -6.3711756709e-10 -1.7902440992e-09 -3.4766230356e-10 
          9.6613370123e-10 -2.3757973409e-09 -1.0377710842e-09 
          2.9865706189e-10 -1.1709685260e-09 -6.6332948689e-10 
          2.2453000827e-09 -3.3680419182e-09 1.5448215754e-10 
          1.3033901843e-09 4.4256494116e-10 5.2476747294e-10 
          4.0589449411e-09 1.2650778671e-09 -2.0061077441e-10 
          -1.4032088018e-09 4.9068332755e-09 2.8726341769e-10 
          9.6162614201e-10 -4.4048374732e-10 1.7760918931e-10 
          2.4824504788e-09 -1.6758480731e-09 -2.3112809476e-11 
          8.5141883579e-10 -2.2491991464e-10 2.6550840694e-10 
          3.3764189113e-10 -9.6044597287e-11 -2.2140626163e-10 
          -1.2993418422e-09 -2.5631837231e-10 7.0999729881e-10 
          -6.4245607615e-10 2.0575428047e-10 1.8438426743e-10 
          -1.2752116287e-09 8.1333787409e-10 8.6423561647e-10 
          -1.6204546249e-09 1.3669643178e-10 9.9482403242e-11 
          -1.2572088828e-09 4.4738293079e-10 3.9467817292e-10 
          -1.3030676048e-09 2.0885024664e-10 -3.0837725666e-10 
          2.1994438730e-09 4.2536642490e-12 2.8693705504e-10 
          -3.8273968207e-10 6.6952280918e-11 -2.4217261565e-09 
          -1.8494392330e-09 4.1476636743e-10 4.1827178855e-11 
          -3.3136183012e-09 -4.8986943120e-10 5.3274625920e-10 
          -1.1950113729e-09 2.2407973865e-09 2.2811339993e-09 
          -1.0448344675e-10 -3.4863330471e-10 -4.7664840412e-10 
          -9.0107421836e-10 4.7298149334e-10 -8.9586978092e-10 
          1.3084312210e-10 -1.7873307794e-10 -3.7127120759e-10 
          1.4090150250e-09 -1.1279756001e-09 -1.9342674626e-09 
          2.6209897367e-09 -1.3084531682e-09 5.4521351665e-10 
          4.2652102340e-10 3.0203394859e-11 -1.0785803158e-09 
          -3.1702985144e-09 -9.7290529257e-10 -1.3953133022e-10 
          6.1165025927e-10 -4.4022417896e-10 -5.5075280730e-10 
          -1.3743871136e-09 -9.6516220899e-10 2.1041801001e-10 
          -1.2263108204e-09 -9.1421870625e-10 2.8741383715e-10 
          -1.4293064092e-09 2.4085071103e-10 -1.0638985144e-09 
          -8.1921076227e-10 2.0568632843e-10 -4.0691584371e-10 
          -1.8376042366e-09 -1.1669382289e-09 -2.3909781259e-10 
          -9.6231981451e-10 -1.5445248019e-10 4.5982876189e-10 
          -1.2757951523e-10 5.3899411912e-10 1.6052645038e-10 
          -5.8850112190e-10 -1.1588032238e-09 -1.8680826056e-09 
          1.1303541320e-09 -8.6238453160e-09 -4.2834155870e-09 
          -8.2812044456e-10 1.1573455292e-09 -1.7073600953e-09 
          -3.3190673019e-10 -9.9135315739e-10 -5.6590532528e-10 
          4.6043220280e-10 -2.8763723487e-10 -3.8166615586e-10 
          -1.9340705624e-09 5.3247888275e-10 6.5224230181e-10 
          7.8670128051e-10 -1.5019483891e-10 -5.9767564623e-10 
          -1.3654847603e-09 8.4152722467e-11 1.0840273787e-09 
          1.5772747488e-09 -1.7239153986e-09 3.1251895796e-09 
          1.0639733241e-09 7.4883586394e-10 -3.7427463893e-10 
          6.0110452543e-10 1.4914764124e-10 -1.2902300181e-10 
          1.0114019345e-09 -7.0012307761e-10 9.6095646999e-10 
          -1.2578686511e-11 -9.9049238020e-10 1.6605638751e-09 
          -9.1704959640e-11 -4.3764106994e-10 2.2148192251e-10 
          2.8950536423e-09 -2.0509438986e-09 5.7561510908e-10 
          7.8572899399e-10 -1.3051521210e-09 -1.0058640880e-09 
          -3.7618645596e-10 -1.0998005294e-09 7.6645483383e-10 
          -1.8492306717e-09 -1.9841270287e-09 -1.8198537449e-11 
          5.9007522903e-10 3.5079850065e-10 6.4613067512e-10 
          1.5544519777e-09 -5.0455019786e-09 2.2821417940e-09 
          -9.1332313209e-10 -1.8946827743e-09 -3.4758754829e-10 
          1.0825373509e-09 1.3841703294e-09 1.0336127158e-09 
          4.6792048530e-09 4.5508587500e-10 -4.4697541392e-09 
          -5.4182771273e-09 -2.3454134622e-09 1.1273453151e-10 
          2.1756616523e-09 1.6383389719e-10 3.2111444025e-10 
          2.0110109697e-09 -4.3905061514e-10 -3.0340157500e-10 
          -4.0396940527e-09 9.4314882814e-10 -6.1991365760e-10 
          3.4549807772e-09 -1.4770670830e-09 -5.0601086327e-10 
          -4.2342434676e-09 -1.5020241733e-09 2.6047121521e-09 
          3.4612311656e-09 7.0109665234e-10 1.9680298344e-09 
          -6.3424145445e-09 2.3385188256e-09 1.6887155179e-09 
          2.3464681265e-09 7.4464671864e-10 1.4856285198e-09 
          1.1347318721e-09 7.2305643138e-10 -2.2286971889e-10 
          -4.4121248068e-09 -1.0194973040e-09 2.2161811749e-09 
          5.5139668671e-09 2.1652218913e-09 1.7504909197e-09 
          -1.7268301641e-09 -1.2443279484e-09 -4.0344126752e-09 
          -3.2037507744e-09 -1.0786108617e-10 9.5484028669e-10 
          5.5528565234e-09 -2.5942761679e-09 6.7784203007e-10 
          -3.4138041959e-09 -2.0367913888e-10 -3.8094483880e-10 
          5.8974662123e-09 1.1148008313e-09 -2.2647000382e-10 
          -4.0268581227e-09 1.9589169080e-09 -1.0706681519e-11 
          5.4635897741e-09 -5.6077945061e-10 9.3964442037e-11 
          3.8574574370e-09 1.1302734806e-10 -1.5407295742e-09 
          -9.1835281966e-10 -1.3617468455e-09 4.5806361497e-10 
          9.0811616234e-10 -7.1399385606e-10 2.5391694666e-10 
          3.0796985982e-09 -4.0002213486e-10 -5.1968477555e-10 
          -1.6933286501e-09 9.4440111771e-10 8.1182695287e-10 
          9.8709598513e-11 6.2774596439e-10 6.2622979032e-10 
          -2.4321975524e-09 -2.0310995530e-09 1.4293920260e-10 
          2.3851657420e-10 -1.1153501128e-09 1.3297870714e-10 
          -1.5983034482e-09 7.3768042826e-10 1.1987447377e-09 
          6.8457914875e-10 5.4850693430e-10 9.9618428991e-10 
          -4.4662614253e-10 -6.6307706219e-10 5.2095802357e-11 
          -9.2455773553e-09 -7.8944439231e-10 -2.6775642594e-09 
          1.3020196473e-09 3.6090139162e-09 8.7270481495e-10 
          -4.1881127049e-11 2.1524620000e-09 -2.7562878189e-11 
          1.5905614635e-09 3.4432149268e-09 -1.2632543062e-09 
          2.4634679175e-10 2.3180043753e-09 -3.6951507471e-10 
          -1.1530743153e-09 -1.9783362333e-10 -8.2723346302e-10 
          7.7832501907e-10 5.4257964609e-10 5.5640628508e-10 
          9.7513546578e-10 1.9269848195e-10 2.9285680850e-10 
          6.9064277224e-10 1.0072987830e-09 -3.7588928458e-10 
          2.8295896927e-10 -9.7950494924e-10 4.3035817339e-11 
          -6.0222593565e-11 -5.2236091866e-10 7.0763970049e-10 
          -1.2165641584e-09 -1.0100687664e-10 -9.5460360280e-10 
          7.8290587973e-10 -2.1978036111e-10 4.2542485014e-10 
          1.2011496806e-09 -5.2485578777e-11 1.3293080960e-10 
          7.8021348922e-11 9.3447226914e-10 -1.3820851201e-10 
          4.4260295955e-10 -1.1847961965e-09 -4.0473705039e-10 
          -4.3698023183e-10 -4.1420210517e-10 -2.8948200252e-10 
          5.5294377262e-10 -2.7835219552e-10 -1.2572258269e-10 
          -1.0323952832e-09 -3.8612003636e-10 1.5657890996e-10 
          -1.2099548842e-10 -3.5131677924e-10 -2.2353846867e-10 
          1.5751721019e-10 3.1376413554e-10 -2.2894092860e-10 
          2.2147343897e-10 7.4918801038e-10 -4.9209736041e-11 
          2.4675519303e-10 -1.4239444009e-10 -3.1907929597e-10 
          -3.0200798190e-10 1.3000400619e-10 -1.0640620444e-09 
          -7.0909510325e-10 1.3293547988e-10 1.2044712619e-09 
          -2.3223181908e-10 -9.3355614700e-11 5.7790963176e-11 
          -5.7799019151e-10 6.7961153043e-10 3.0127449112e-10 
          -8.5429803778e-12 2.8405394008e-10 -3.2348520781e-10 
          9.6429888501e-11 1.4974193302e-10 -1.5640759456e-10 
        </DataArray>
        <DataArray type="Float64" Name="UnbalancedLoad" NumberOfComponents="3" format="ascii">
          0.0000000000e+00 0.0000000000e+00 0.0000000000e+00 
          0.0000000000e+00 0.0000000000e+00 0.0000000000e+00 
          0.0000000000e+00 0.0000000000e+00 0.0000000000e+00 
          0.0000000000e+00 0.0000000000e+00 0.0000000000e+00 
          0.0000000000e+00 0.0000000000e+00 0.0000000000e+00 
          0.0000000000e+00 0.0000000000e+00 0.0000000000e+00 
          0.0000000000e+00 0.0000000000e+00 0.0000000000e+00 
          0.0000000000e+00 0.0000000000e+00 0.0000000000e+00 
          0.0000000000e+00 0.0000000000e+00 0.0000000000e+00 
          0.0000000000e+00 0.0000000000e+00 0.0000000000e+00 
          0.0000000000e+00 0.0000000000e+00 0.0000000000e+00 
          0.0000000000e+00 0.0000000000e+00 0.0000000000e+00 
          0.0000000000e+00 0.0000000000e+00 0.0000000000e+00 
          0.0000000000e+00 0.0000000000e+00 0.0000000000e+00 
          0.0000000000e+00 0.0000000000e+00 0.0000000000e+00 
          0.0000000000e+00 0.0000000000e+00 0.0000000000e+00 
          0.0000000000e+00 0.0000000000e+00 0.0000000000e+00 
          0.0000000000e+00 0.0000000000e+00 0.0000000000e+00 
          0.0000000000e+00 0.0000000000e+00 0.0000000000e+00 
          0.0000000000e+00 0.0000000000e+00 0.0000000000e+00 
          0.0000000000e+00 0.0000000000e+00 0.0000000000e+00 
          0.0000000000e+00 0.0000000000e+00 0.0000000000e+00 
          0.0000000000e+00 0.0000000000e+00 0.0000000000e+00 
          0.0000000000e+00 0.0000000000e+00 0.0000000000e+00 
          0.0000000000e+00 0.0000000000e+00 0.0000000000e+00 
          0.0000000000e+00 0.0000000000e+00 0.0000000000e+00 
          0.0000000000e+00 0.0000000000e+00 0.0000000000e+00 
          0.0000000000e+00 0.0000000000e+00 0.0000000000e+00 
          0.0000000000e+00 0.0000000000e+00 0.0000000000e+00 
          0.0000000000e+00 0.0000000000e+00 0.0000000000e+00 
          0.0000000000e+00 0.0000000000e+00 0.0000000000e+00 
          0.0000000000e+00 0.0000000000e+00 0.0000000000e+00 
          0.0000000000e+00 0.0000000000e+00 0.0000000000e+00 
          0.0000000000e+00 0.0000000000e+00 0.0000000000e+00 
          0.0000000000e+00 0.0000000000e+00 0.0000000000e+00 
          0.0000000000e+00 0.0000000000e+00 0.0000000000e+00 
          0.0000000000e+00 0.0000000000e+00 0.0000000000e+00 
          0.0000000000e+00 0.0000000000e+00 0.0000000000e+00 
          0.0000000000e+00 0.0000000000e+00 0.0000000000e+00 
          0.0000000000e+00 0.0000000000e+00 0.0000000000e+00 
          0.0000000000e+00 0.0000000000e+00 0.0000000000e+00 
          0.0000000000e+00 0.0000000000e+00 0.0000000000e+00 
          0.0000000000e+00 0.0000000000e+00 0.0000000000e+00 
          0.0000000000e+00 0.0000000000e+00 0.0000000000e+00 
          0.0000000000e+00 0.0000000000e+00 0.0000000000e+00 
          0.0000000000e+00 0.0000000000e+00 0.0000000000e+00 
          0.0000000000e+00 0.0000000000e+00 0.0000000000e+00 
          0.0000000000e+00 0.0000000000e+00 0.0000000000e+00 
          0.0000000000e+00 0.0000000000e+00 0.0000000000e+00 
          0.0000000000e+00 0.0000000000e+00 0.0000000000e+00 
          0.0000000000e+00 0.0000000000e+00 0.0000000000e+00 
          0.0000000000e+00 0.0000000000e+00 0.0000000000e+00 
          0.0000000000e+00 0.0000000000e+00 0.0000000000e+00 
          0.0000000000e+00 0.0000000000e+00 0.0000000000e+00 
          0.0000000000e+00 0.0000000000e+00 0.0000000000e+00 
          0.0000000000e+00 0.0000000000e+00 0.0000000000e+00 
          0.0000000000e+00 0.0000000000e+00 0.0000000000e+00 
          0.0000000000e+00 0.0000000000e+00 0.0000000000e+00 
          0.0000000000e+00 0.0000000000e+00 0.0000000000e+00 
          0.0000000000e+00 0.0000000000e+00 0.0000000000e+00 
          0.0000000000e+00 0.0000000000e+00 0.0000000000e+00 
          0.0000000000e+00 0.0000000000e+00 0.0000000000e+00 
          0.0000000000e+00 0.0000000000e+00 0.0000000000e+00 
          0.0000000000e+00 0.0000000000e+00 0.0000000000e+00 
          0.0000000000e+00 0.0000000000e+00 0.0000000000e+00 
          0.0000000000e+00 0.0000000000e+00 0.0000000000e+00 
          0.0000000000e+00 0.0000000000e+00 0.0000000000e+00 
          0.0000000000e+00 0.0000000000e+00 0.0000000000e+00 
          0.0000000000e+00 0.0000000000e+00 0.0000000000e+00 
          0.0000000000e+00 0.0000000000e+00 0.0000000000e+00 
          0.0000000000e+00 0.0000000000e+00 0.0000000000e+00 
          0.0000000000e+00 0.0000000000e+00 0.0000000000e+00 
          0.0000000000e+00 0.0000000000e+00 0.0000000000e+00 
          0.0000000000e+00 0.0000000000e+00 0.0000000000e+00 
          0.0000000000e+00 0.0000000000e+00 0.0000000000e+00 
          0.0000000000e+00 0.0000000000e+00 0.0000000000e+00 
          0.0000000000e+00 0.0000000000e+00 0.0000000000e+00 
          0.0000000000e+00 0.0000000000e+00 0.0000000000e+00 
          0.0000000000e+00 0.0000000000e+00 0.0000000000e+00 
          0.0000000000e+00 0.0000000000e+00 0.0000000000e+00 
          0.0000000000e+00 0.0000000000e+00 0.0000000000e+00 
          0.0000000000e+00 0.0000000000e+00 0.0000000000e+00 
          0.0000000000e+00 0.0000000000e+00 0.0000000000e+00 
          0.0000000000e+00 0.0000000000e+00 0.0000000000e+00 
          0.0000000000e+00 0.0000000000e+00 0.0000000000e+00 
          0.0000000000e+00 0.0000000000e+00 0.0000000000e+00 
          0.0000000000e+00 0.0000000000e+00 0.0000000000e+00 
          0.0000000000e+00 0.0000000000e+00 0.0000000000e+00 
          0.0000000000e+00 0.0000000000e+00 0.0000000000e+00 
          0.0000000000e+00 0.0000000000e+00 0.0000000000e+00 
          0.0000000000e+00 0.0000000000e+00 0.0000000000e+00 
          0.0000000000e+00 0.0000000000e+00 0.0000000000e+00 
          0.0000000000e+00 0.0000000000e+00 0.0000000000e+00 
          0.0000000000e+00 0.0000000000e+00 0.0000000000e+00 
          0.0000000000e+00 0.0000000000e+00 0.0000000000e+00 
          0.0000000000e+00 0.0000000000e+00 0.0000000000e+00 
          0.0000000000e+00 0.0000000000e+00 0.0000000000e+00 
          0.0000000000e+00 0.0000000000e+00 0.0000000000e+00 
          0.0000000000e+00 0.0000000000e+00 0.0000000000e+00 
          0.0000000000e+00 0.0000000000e+00 0.0000000000e+00 
          0.0000000000e+00 0.0000000000e+00 0.0000000000e+00 
          0.0000000000e+00 0.0000000000e+00 0.0000000000e+00 
          0.0000000000e+00 0.0000000000e+00 0.0000000000e+00 
          0.0000000000e+00 0.0000000000e+00 0.0000000000e+00 
          0.0000000000e+00 0.0000000000e+00 0.0000000000e+00 
          0.0000000000e+00 0.0000000000e+00 0.0000000000e+00 
          0.0000000000e+00 0.0000000000e+00 0.0000000000e+00 
          0.0000000000e+00 0.0000000000e+00 0.0000000000e+00 
          0.0000000000e+00 0.0000000000e+00 0.0000000000e+00 
          0.0000000000e+00 0.0000000000e+00 0.0000000000e+00 
          0.0000000000e+00 0.0000000000e+00 0.0000000000e+00 
          0.0000000000e+00 0.0000000000e+00 0.0000000000e+00 
          0.0000000000e+00 0.0000000000e+00 0.0000000000e+00 
          0.0000000000e+00 0.0000000000e+00 0.0000000000e+00 
          0.0000000000e+00 0.0000000000e+00 0.0000000000e+00 
          0.0000000000e+00 0.0000000000e+00 0.0000000000e+00 
          0.0000000000e+00 0.0000000000e+00 0.0000000000e+00 
          0.0000000000e+00 0.0000000000e+00 0.0000000000e+00 
          0.0000000000e+00 0.0000000000e+00 0.0000000000e+00 
          0.0000000000e+00 0.0000000000e+00 0.0000000000e+00 
          0.0000000000e+00 0.0000000000e+00 0.0000000000e+00 
          0.0000000000e+00 0.0000000000e+00 0.0000000000e+00 
          0.0000000000e+00 0.0000000000e+00 0.0000000000e+00 
          0.0000000000e+00 0.0000000000e+00 0.0000000000e+00 
          0.0000000000e+00 0.0000000000e+00 0.0000000000e+00 
          0.0000000000e+00 0.0000000000e+00 0.0000000000e+00 
          0.0000000000e+00 0.0000000000e+00 0.0000000000e+00 
          0.0000000000e+00 0.0000000000e+00 0.0000000000e+00 
          0.0000000000e+00 0.0000000000e+00 0.0000000000e+00 
          0.0000000000e+00 0.0000000000e+00 0.0000000000e+00 
          0.0000000000e+00 0.0000000000e+00 0.0000000000e+00 
          0.0000000000e+00 0.0000000000e+00 0.0000000000e+00 
          0.0000000000e+00 0.0000000000e+00 0.0000000000e+00 
          0.0000000000e+00 0.0000000000e+00 0.0000000000e+00 
          0.0000000000e+00 0.0000000000e+00 0.0000000000e+00 
          0.0000000000e+00 0.0000000000e+00 0.0000000000e+00 
          0.0000000000e+00 0.0000000000e+00 0.0000000000e+00 
          0.0000000000e+00 0.0000000000e+00 0.0000000000e+00 
          0.0000000000e+00 0.0000000000e+00 0.0000000000e+00 
          0.0000000000e+00 0.0000000000e+00 0.0000000000e+00 
          0.0000000000e+00 0.0000000000e+00 0.0000000000e+00 
          0.0000000000e+00 0.0000000000e+00 0.0000000000e+00 
          0.0000000000e+00 0.0000000000e+00 0.0000000000e+00 
          0.0000000000e+00 0.0000000000e+00 0.0000000000e+00 
          0.0000000000e+00 0.0000000000e+00 0.0000000000e+00 
          0.0000000000e+00 0.0000000000e+00 0.0000000000e+00 
          0.0000000000e+00 0.0000000000e+00 0.0000000000e+00 
          0.0000000000e+00 0.0000000000e+00 0.0000000000e+00 
          0.0000000000e+00 0.0000000000e+00 0.0000000000e+00 
          0.0000000000e+00 0.0000000000e+00 0.0000000000e+00 
          0.0000000000e+00 0.0000000000e+00 0.0000000000e+00 
          0.0000000000e+00 0.0000000000e+00 0.0000000000e+00 
          0.0000000000e+00 0.0000000000e+00 0.0000000000e+00 
          0.0000000000e+00 0.0000000000e+00 0.0000000000e+00 
          0.0000000000e+00 0.0000000000e+00 0.0000000000e+00 
          0.0000000000e+00 0.0000000000e+00 0.0000000000e+00 
          0.0000000000e+00 0.0000000000e+00 0.0000000000e+00 
          0.0000000000e+00 0.0000000000e+00 0.0000000000e+00 
        </DataArray>
      </PointData>
      <CellData>
        <DataArray type="Int64" Name="ElementTag" format="ascii">
          0
        </DataArray>
      </CellData>
    </Piece>
  </UnstructuredGrid>
</VTKFile>
