<?xml version="1.0"?>
<VTKFile type="UnstructuredGrid" version="1.0" byte_order="LittleEndian" compressor="vtkZLibDataCompressor">
  <UnstructuredGrid>
    <Piece NumberOfPoints="158" NumberOfCells="1">
      <Points>
        <DataArray type="Float64" Name="Points" NumberOfComponents="3" format="ascii">
          1.7550000000e+00 -1.7550000000e+00 0.0000000000e+00 
          1.4140000000e+00 0.0000000000e+00 5.2300000000e+00 
          1.7550000000e+00 1.7550000000e+00 -0.0000000000e+00 
          1.4140000000e+00 -1.4140000000e+00 5.2300000000e+00 
          1.4140000000e+00 1.4140000000e+00 5.2300000000e+00 
          1.5840000000e+00 8.7800000000e-01 2.6150000000e+00 
          1.5840000000e+00 -8.7700000000e-01 2.6150000000e+00 
          1.5840000000e+00 1.5840000000e+00 2.6150000000e+00 
          1.5840000000e+00 -1.5840000000e+00 2.6150000000e+00 
          -0.0000000000e+00 1.4140000000e+00 5.2300000000e+00 
          -1.7550000000e+00 1.7550000000e+00 -0.0000000000e+00 
          -1.4140000000e+00 1.4140000000e+00 5.2300000000e+00 
          -8.7700000000e-01 1.5840000000e+00 2.6150000000e+00 
          8.7700000000e-01 1.5840000000e+00 2.6150000000e+00 
          -1.5840000000e+00 1.5840000000e+00 2.6150000000e+00 
          -1.4140000000e+00 -0.0000000000e+00 5.2300000000e+00 
          -1.7550000000e+00 -1.7550000000e+00 -0.0000000000e+00 
          -1.4140000000e+00 -1.4140000000e+00 5.2300000000e+00 
          -1.5840000000e+00 -8.7700000000e-01 2.6150000000e+00 
          -1.5840000000e+00 8.7700000000e-01 2.6150000000e+00 
          -1.5840000000e+00 -1.5840000000e+00 2.6150000000e+00 
          0.0000000000e+00 -1.4140000000e+00 5.2300000000e+00 
          8.7700000000e-01 -1.5840000000e+00 2.6150000000e+00 
          -8.7700000000e-01 -1.5840000000e+00 2.6150000000e+00 
          1.2750000000e+00 1.2750000000e+00 7.3500000000e+00 
          1.2750000000e+00 -1.2750000000e+00 7.3500000000e+00 
          1.1500000000e+00 -1.1500000000e+00 9.2700000000e+00 
          1.1500000000e+00 1.1500000000e+00 9.2700000000e+00 
          1.0370000000e+00 -1.0370000000e+00 1.1000000000e+01 
          1.0370000000e+00 1.0370000000e+00 1.1000000000e+01 
          -1.2750000000e+00 1.2750000000e+00 7.3500000000e+00 
          -1.1500000000e+00 1.1500000000e+00 9.2700000000e+00 
          -1.0370000000e+00 1.0370000000e+00 1.1000000000e+01 
          -1.2750000000e+00 -1.2750000000e+00 7.3500000000e+00 
          -1.1500000000e+00 -1.1500000000e+00 9.2700000000e+00 
          -1.0370000000e+00 -1.0370000000e+00 1.1000000000e+01 
          9.3500000000e-01 9.3500000000e-01 1.2560000000e+01 
          9.3500000000e-01 -9.3500000000e-01 1.2560000000e+01 
          8.4300000000e-01 8.4300000000e-01 1.3960000000e+01 
          8.4300000000e-01 -8.4300000000e-01 1.3960000000e+01 
          7.6000000000e-01 7.6000000000e-01 1.5240000000e+01 
          7.6000000000e-01 -7.6000000000e-01 1.5240000000e+01 
          -9.3500000000e-01 9.3500000000e-01 1.2560000000e+01 
          -8.4300000000e-01 8.4300000000e-01 1.3960000000e+01 
          -7.6000000000e-01 7.6000000000e-01 1.5240000000e+01 
          -9.3500000000e-01 -9.3500000000e-01 1.2560000000e+01 
          -8.4300000000e-01 -8.4300000000e-01 1.3960000000e+01 
          -7.6000000000e-01 -7.6000000000e-01 1.5240000000e+01 
          7.6000000000e-01 -7.6000000000e-01 1.6240000000e+01 
          7.6000000000e-01 7.6000000000e-01 1.6240000000e+01 
          7.6000000000e-01 0.0000000000e+00 1.6240000000e+01 
          7.6000000000e-01 7.6000000000e-01 1.7340000000e+01 
          7.6000000000e-01 -7.6000000000e-01 1.7340000000e+01 
          7.6000000000e-01 0.0000000000e+00 1.7890000000e+01 
          7.6000000000e-01 -7.6000000000e-01 1.9440000000e+01 
          7.6000000000e-01 7.6000000000e-01 1.9440000000e+01 
          7.6000000000e-01 -7.6000000000e-01 2.1640000000e+01 
          7.6000000000e-01 7.6000000000e-01 2.1640000000e+01 
          7.6000000000e-01 0.0000000000e+00 1.9440000000e+01 
          7.6000000000e-01 7.6000000000e-01 1.8440000000e+01 
          7.6000000000e-01 -7.6000000000e-01 1.8440000000e+01 
          7.6000000000e-01 -7.6000000000e-01 2.0540000000e+01 
          7.6000000000e-01 7.6000000000e-01 2.0540000000e+01 
          7.6000000000e-01 0.0000000000e+00 2.1090000000e+01 
          7.6000000000e-01 7.6000000000e-01 2.2640000000e+01 
          7.6000000000e-01 -7.6000000000e-01 2.2640000000e+01 
          -7.6000000000e-01 7.6000000000e-01 1.6240000000e+01 
          -7.6000000000e-01 7.6000000000e-01 1.8440000000e+01 
          -0.0000000000e+00 7.6000000000e-01 1.6240000000e+01 
          -7.6000000000e-01 7.6000000000e-01 1.9440000000e+01 
          -7.6000000000e-01 7.6000000000e-01 2.1640000000e+01 
          -7.6000000000e-01 7.6000000000e-01 1.7340000000e+01 
          -0.0000000000e+00 7.6000000000e-01 1.7890000000e+01 
          -0.0000000000e+00 7.6000000000e-01 1.9440000000e+01 
          -7.6000000000e-01 7.6000000000e-01 2.0540000000e+01 
          0.0000000000e+00 7.6000000000e-01 2.1090000000e+01 
          -7.6000000000e-01 7.6000000000e-01 2.2640000000e+01 
          -0.0000000000e+00 5.2600000000e-01 2.3499000000e+01 
          3.9900000000e-01 4.0400000000e-01 2.3950000000e+01 
          -3.9900000000e-01 4.0400000000e-01 2.3950000000e+01 
          -7.6000000000e-01 -7.6000000000e-01 1.6240000000e+01 
          -7.6000000000e-01 -7.6000000000e-01 1.8440000000e+01 
          -7.6000000000e-01 -0.0000000000e+00 1.6240000000e+01 
          -7.6000000000e-01 -7.6000000000e-01 1.9440000000e+01 
          -7.6000000000e-01 -7.6000000000e-01 2.1640000000e+01 
          -7.6000000000e-01 -7.6000000000e-01 1.7340000000e+01 
          -7.6000000000e-01 0.0000000000e+00 1.7890000000e+01 
          -7.6000000000e-01 -0.0000000000e+00 1.9440000000e+01 
          -7.6000000000e-01 -7.6000000000e-01 2.0540000000e+01 
          -7.6000000000e-01 -0.0000000000e+00 2.1090000000e+01 
          -7.6000000000e-01 -7.6000000000e-01 2.2640000000e+01 
          0.0000000000e+00 -7.6000000000e-01 1.6240000000e+01 
          0.0000000000e+00 -7.6000000000e-01 1.7890000000e+01 
          0.0000000000e+00 -7.6000000000e-01 1.9440000000e+01 
          0.0000000000e+00 -7.6000000000e-01 2.1090000000e+01 
          0.0000000000e+00 -5.2600000000e-01 2.3499000000e+01 
          3.9900000000e-01 -4.0400000000e-01 2.3950000000e+01 
          -3.9900000000e-01 -4.0400000000e-01 2.3950000000e+01 
          -0.0000000000e+00 -3.3500000000e+00 2.1640000000e+01 
          -3.8000000000e-01 -2.0550000000e+00 2.2140000000e+01 
          -3.8000000000e-01 -2.0550000000e+00 2.1640000000e+01 
          0.0000000000e+00 3.3500000000e+00 2.1640000000e+01 
          -3.8000000000e-01 2.0550000000e+00 2.2140000000e+01 
          -3.8000000000e-01 2.0550000000e+00 2.1640000000e+01 
          3.8000000000e-01 2.0550000000e+00 2.2140000000e+01 
          3.8000000000e-01 2.0550000000e+00 2.1640000000e+01 
          3.8000000000e-01 -2.0550000000e+00 2.2140000000e+01 
          3.8000000000e-01 -2.0550000000e+00 2.1640000000e+01 
          -0.0000000000e+00 -3.3500000000e+00 1.8440000000e+01 
          -3.8000000000e-01 -2.0550000000e+00 1.8940000000e+01 
          -3.8000000000e-01 -2.0550000000e+00 1.8440000000e+01 
          -0.0000000000e+00 3.3500000000e+00 1.8440000000e+01 
          -3.8000000000e-01 2.0550000000e+00 1.8940000000e+01 
          -3.8000000000e-01 2.0550000000e+00 1.8440000000e+01 
          3.8000000000e-01 2.0550000000e+00 1.8940000000e+01 
          3.8000000000e-01 2.0550000000e+00 1.8440000000e+01 
          3.8000000000e-01 -2.0550000000e+00 1.8940000000e+01 
          3.8000000000e-01 -2.0550000000e+00 1.8440000000e+01 
          -0.0000000000e+00 -3.3500000000e+00 1.5240000000e+01 
          -3.8000000000e-01 -2.0550000000e+00 1.5740000000e+01 
          -3.8000000000e-01 -2.0550000000e+00 1.5240000000e+01 
          -0.0000000000e+00 3.3500000000e+00 1.5240000000e+01 
          -3.8000000000e-01 2.0550000000e+00 1.5740000000e+01 
          -3.8000000000e-01 2.0550000000e+00 1.5240000000e+01 
          3.8000000000e-01 2.0550000000e+00 1.5740000000e+01 
          3.8000000000e-01 2.0550000000e+00 1.5240000000e+01 
          3.8000000000e-01 -2.0550000000e+00 1.5740000000e+01 
          3.8000000000e-01 -2.0550000000e+00 1.5240000000e+01 
          -5.2400000000e-01 0.0000000000e+00 2.3496000000e+01 
          5.2400000000e-01 0.0000000000e+00 2.3496000000e+01 
          4.0000000000e-02 5.0000000000e-02 2.5250000000e+01 
          -4.0000000000e-02 5.0000000000e-02 2.5250000000e+01 
          -4.0000000000e-02 -5.0000000000e-02 2.5250000000e+01 
          4.0000000000e-02 -5.0000000000e-02 2.5250000000e+01 
          1.3410000000e+00 0.0000000000e+00 6.3450000000e+00 
          1.2090000000e+00 0.0000000000e+00 8.3600000000e+00 
          1.0900000000e+00 -0.0000000000e+00 1.0180000000e+01 
          -0.0000000000e+00 1.3410000000e+00 6.3450000000e+00 
          0.0000000000e+00 1.2090000000e+00 8.3600000000e+00 
          -0.0000000000e+00 1.0900000000e+00 1.0180000000e+01 
          -1.3410000000e+00 0.0000000000e+00 6.3450000000e+00 
          -1.2090000000e+00 0.0000000000e+00 8.3600000000e+00 
          -1.0900000000e+00 -0.0000000000e+00 1.0180000000e+01 
          -0.0000000000e+00 -1.3410000000e+00 6.3450000000e+00 
          0.0000000000e+00 -1.2090000000e+00 8.3600000000e+00 
          0.0000000000e+00 -1.0900000000e+00 1.0180000000e+01 
          9.8300000000e-01 0.0000000000e+00 1.1820000000e+01 
          8.8700000000e-01 0.0000000000e+00 1.3296000000e+01 
          8.0000000000e-01 -0.0000000000e+00 1.4633000000e+01 
          0.0000000000e+00 9.8300000000e-01 1.1820000000e+01 
          -0.0000000000e+00 8.8700000000e-01 1.3296000000e+01 
          0.0000000000e+00 8.0000000000e-01 1.4633000000e+01 
          -9.8300000000e-01 0.0000000000e+00 1.1820000000e+01 
          -8.8700000000e-01 0.0000000000e+00 1.3296000000e+01 
          -8.0000000000e-01 0.0000000000e+00 1.4633000000e+01 
          0.0000000000e+00 -9.8300000000e-01 1.1820000000e+01 
          0.0000000000e+00 -8.8700000000e-01 1.3296000000e+01 
          0.0000000000e+00 -8.0000000000e-01 1.4633000000e+01 
        </DataArray>
      </Points>
      <Cells>
        <DataArray type="Int64" Name="connectivity" format="ascii">
          0
          1
          2
          3
          4
          5
          6
          7
          8
          9
          10
          11
          12
          13
          14
          15
          16
          17
          18
          19
          20
          21
          22
          23
          24
          25
          26
          27
          28
          29
          30
          31
          32
          33
          34
          35
          36
          37
          38
          39
          40
          41
          42
          43
          44
          45
          46
          47
          48
          49
          50
          51
          52
          53
          54
          55
          56
          57
          58
          59
          60
          61
          62
          63
          64
          65
          66
          67
          68
          69
          70
          71
          72
          73
          74
          75
          76
          77
          78
          79
          80
          81
          82
          83
          84
          85
          86
          87
          88
          89
          90
          91
          92
          93
          94
          95
          96
          97
          98
          99
          100
          101
          102
          103
          104
          105
          106
          107
          108
          109
          110
          111
          112
          113
          114
          115
          116
          117
          118
          119
          120
          121
          122
          123
          124
          125
          126
          127
          128
          129
          130
          131
          132
          133
          134
          135
          136
          137
          138
          139
          140
          141
          142
          143
          144
          145
          146
          147
          148
          149
          150
          151
          152
          153
          154
          155
          156
          157
        </DataArray>
        <DataArray type="Int64" Name="offsets" format="ascii">
          158
        </DataArray>
        <DataArray type="Int64" Name="types" format="ascii">
          2
        </DataArray>
      </Cells>
      <PointData>
        <DataArray type="Int64" Name="NodeTag" format="ascii">
          1
          2
          3
          4
          5
          6
          7
          8
          9
          10
          11
          12
          13
          14
          15
          16
          17
          18
          19
          20
          21
          22
          23
          24
          25
          26
          27
          28
          29
          30
          31
          32
          33
          34
          35
          36
          37
          38
          39
          40
          41
          42
          43
          44
          45
          46
          47
          48
          49
          50
          51
          52
          53
          54
          55
          56
          57
          58
          59
          60
          61
          62
          63
          64
          65
          66
          67
          68
          69
          70
          71
          72
          73
          74
          75
          76
          77
          78
          79
          80
          81
          82
          83
          84
          85
          86
          87
          88
          89
          90
          91
          92
          93
          94
          95
          96
          97
          98
          99
          100
          101
          102
          103
          104
          105
          106
          107
          108
          109
          110
          111
          112
          113
          114
          115
          116
          117
          118
          119
          120
          121
          122
          123
          124
          125
          126
          127
          128
          129
          130
          131
          132
          133
          134
          135
          136
          137
          138
          139
          140
          141
          142
          143
          144
          145
          146
          147
          148
          149
          150
          151
          152
          153
          154
          155
          156
          157
          158
        </DataArray>
        <DataArray type="Float64" Name="Displacement" NumberOfComponents="3" format="ascii">
          0.0000000000e+00 0.0000000000e+00 0.0000000000e+00 
          -1.0329207763e-04 3.8878280203e-05 -5.8446073456e-05 
          0.0000000000e+00 0.0000000000e+00 0.0000000000e+00 
          -3.4345384551e-05 4.1677517923e-05 -2.5553196952e-04 
          2.2673179141e-05 3.7947406633e-05 -3.3587708603e-04 
          -5.1503114899e-04 -5.3955539791e-04 -2.5450197248e-04 
          -4.2498804606e-04 4.1042985499e-04 -1.9774487575e-04 
          -5.3104042238e-04 -5.3924227177e-04 -2.4963663608e-04 
          -4.3090246813e-04 4.0903632490e-04 -1.8930740898e-04 
          2.3394752974e-05 -9.8910195947e-05 -6.0714155162e-05 
          0.0000000000e+00 0.0000000000e+00 0.0000000000e+00 
          2.5339132763e-05 4.5462498871e-06 -3.1642340563e-04 
          5.2363608603e-04 -5.4213077007e-04 -2.4512398604e-04 
          -5.3194495955e-04 -5.3863804181e-04 -2.5526306485e-04 
          5.2267435624e-04 -5.3648881178e-04 -2.3643780976e-04 
          9.4366419789e-05 4.5224639900e-06 -5.6614605895e-05 
          0.0000000000e+00 0.0000000000e+00 0.0000000000e+00 
          -2.5730424124e-05 5.7743705429e-06 -2.2003245201e-04 
          3.1537788985e-04 3.1654550716e-04 -1.6676957061e-04 
          5.0520331713e-04 -5.3636690864e-04 -2.4368561745e-04 
          3.2267565085e-04 3.1485551174e-04 -1.6111430488e-04 
          -2.9800232643e-05 3.4148826804e-05 -4.9884066505e-05 
          -4.3142328561e-04 3.8173562609e-04 -1.9709619162e-04 
          3.2338190838e-04 2.8537629819e-04 -1.6586118808e-04 
          1.2916531263e-04 2.7865441347e-04 -4.4626043166e-04 
          2.1144271538e-04 1.4537361191e-05 -3.4155226021e-04 
          -8.2196753777e-05 2.8803128895e-04 -4.5891150396e-04 
          1.5250069146e-04 1.8371002134e-04 -5.5707152398e-04 
          2.3608727261e-04 2.3549592894e-04 -4.9568231647e-04 
          1.9666181096e-04 4.1302010414e-04 -6.2334448377e-04 
          1.4151908881e-05 1.6630455980e-04 -4.2181120009e-04 
          9.3357312324e-05 2.5140311884e-04 -5.2113473005e-04 
          1.3464717862e-04 3.2671899929e-04 -6.0137932201e-04 
          -2.0265721362e-04 7.1936116889e-05 -3.0458973442e-04 
          1.8545401400e-04 1.8586717424e-04 -4.1287589272e-04 
          -4.5741318328e-05 2.8873672151e-04 -4.6458660728e-04 
          2.3400844762e-04 4.0706297643e-04 -7.1273072324e-04 
          7.9402306002e-05 4.3532488128e-04 -5.8542817734e-04 
          2.4883673531e-04 5.7844308935e-04 -7.7557884830e-04 
          2.1371096327e-04 4.7999584266e-04 -6.2581270894e-04 
          2.4256416935e-04 6.4279564815e-04 -8.3452133625e-04 
          1.8305821950e-04 6.5837668734e-04 -6.7900680666e-04 
          1.6315094981e-04 4.3435505900e-04 -6.8895462998e-04 
          1.9000420597e-04 5.3790026661e-04 -7.6595212011e-04 
          2.2051833604e-04 6.3101426503e-04 -8.3007891116e-04 
          1.8433396918e-04 3.6704567070e-04 -5.5173439717e-04 
          1.0462174645e-04 4.8014514348e-04 -6.0545910994e-04 
          1.7848690095e-04 6.3665807294e-04 -6.6443862851e-04 
          1.9193199699e-04 7.6076378815e-04 -7.2014488365e-04 
          2.3185118618e-04 7.7209346412e-04 -9.1178571601e-04 
          2.2247678980e-04 7.6705546384e-04 -7.8196532475e-04 
          3.2500392740e-04 1.0547343718e-03 -9.8659324870e-04 
          2.5157386048e-04 8.6534903063e-04 -7.5462858810e-04 
          2.3686811422e-04 1.0525164673e-03 -9.8904083300e-04 
          1.3862209186e-04 1.3305101248e-03 -8.6299065277e-04 
          1.6055145898e-04 1.3469251066e-03 -1.1259416667e-03 
          6.6960281784e-05 1.7469392441e-03 -9.4155475954e-04 
          9.0350700847e-05 1.7238014647e-03 -1.2018685319e-03 
          1.7069906439e-04 1.3382779672e-03 -9.7021391470e-04 
          1.9205705829e-04 1.1433768037e-03 -1.0886874685e-03 
          1.6987545232e-04 1.1666176051e-03 -8.2842044102e-04 
          1.5287604783e-04 1.4847512859e-03 -8.9078223468e-04 
          1.7572354782e-04 1.5974377138e-03 -1.1567982129e-03 
          1.1896675271e-04 1.6393960923e-03 -1.0960289039e-03 
          5.6339448715e-05 1.9173017324e-03 -1.2166426158e-03 
          3.3175213931e-05 1.8868493543e-03 -9.6278745655e-04 
          2.3475640371e-04 7.6107299584e-04 -9.2002248909e-04 
          1.9063190927e-04 1.1466192483e-03 -1.1242753623e-03 
          2.3324221474e-04 7.2815297157e-04 -8.8476215571e-04 
          1.6694432070e-04 1.3529970266e-03 -1.1667494356e-03 
          8.8540740677e-05 1.7292056775e-03 -1.2523879619e-03 
          1.0405615950e-04 1.0673914394e-03 -1.0083426264e-03 
          2.0545557567e-04 1.1245571313e-03 -1.1287652723e-03 
          1.6381735846e-04 8.9839410773e-04 -1.1290920185e-03 
          7.6590867566e-05 1.6123127800e-03 -1.2030165248e-03 
          1.0849104182e-04 1.7078961368e-03 -1.2386503833e-03 
          5.4372368804e-05 1.9250427728e-03 -1.2687778195e-03 
          2.4830043742e-05 2.0223062937e-03 -1.2209199593e-03 
          5.5026682382e-06 2.1206377821e-03 -1.1785280163e-03 
          8.9444508663e-06 2.1197084378e-03 -1.2097460321e-03 
          1.9506431240e-04 7.4883225643e-04 -7.1916546881e-04 
          1.5998262127e-04 1.1692299250e-03 -8.5792492031e-04 
          2.0994980282e-04 7.5579742655e-04 -7.8214391211e-04 
          1.4466993888e-04 1.3361466050e-03 -9.0030786411e-04 
          6.2470667417e-05 1.7548719555e-03 -9.9139791454e-04 
          1.1323651648e-04 8.4519650095e-04 -7.6739831277e-04 
          1.3996359912e-04 1.0525535748e-03 -1.0249153901e-03 
          1.6503680929e-04 1.3442918619e-03 -1.0065565002e-03 
          5.2754190736e-05 1.4822646484e-03 -9.3620974221e-04 
          6.6058954018e-05 1.6458435438e-03 -1.1508109511e-03 
          2.8287944202e-05 1.8941570449e-03 -1.0128715837e-03 
          1.9311392217e-04 7.0362559709e-04 -6.9699839550e-04 
          1.7668709945e-04 1.0397736538e-03 -8.4784033984e-04 
          1.4150889445e-04 1.7719447188e-03 -8.6572386474e-04 
          8.4496660707e-05 1.6631932670e-03 -9.7454931181e-04 
          3.8347945539e-06 2.0561404807e-03 -1.0404753964e-03 
          -9.3031795378e-06 2.1228820817e-03 -1.0480177108e-03 
          -1.1756412553e-05 2.1215654901e-03 -1.0733652643e-03 
          4.7456808645e-05 1.7693174133e-03 -7.6689111200e-04 
          2.6674903674e-05 1.8104419151e-03 -8.6522686247e-04 
          3.8505438092e-05 1.7578794782e-03 -8.6676707071e-04 
          9.7912597543e-05 1.7118285460e-03 -1.8772793682e-03 
          7.0238219536e-05 1.8353108041e-03 -1.5561486951e-03 
          8.1939765770e-05 1.7236878440e-03 -1.5576587475e-03 
          7.0037034572e-05 1.8279047784e-03 -1.5305164845e-03 
          8.2244105739e-05 1.7144725636e-03 -1.5320956306e-03 
          2.6630982030e-05 1.8145712677e-03 -8.4218822832e-04 
          3.8431167162e-05 1.7639703796e-03 -8.4377094684e-04 
          1.6041056916e-04 1.1876223829e-03 -6.0202992098e-04 
          1.6470358132e-04 1.2434243731e-03 -7.1599285583e-04 
          1.7219209180e-04 1.1824039047e-03 -7.1755026102e-04 
          2.0353322176e-04 1.1313070647e-03 -1.8066340185e-03 
          2.3711398142e-04 1.2463713790e-03 -1.4592421095e-03 
          2.4375713558e-04 1.1253671984e-03 -1.4607425765e-03 
          2.3672972938e-04 1.2747047214e-03 -1.4389559931e-03 
          2.4425900948e-04 1.1509641724e-03 -1.4405364604e-03 
          1.6468669972e-04 1.2347300651e-03 -7.0279821690e-04 
          1.7194840122e-04 1.1755068580e-03 -7.0436444641e-04 
          2.2322156397e-04 6.6326118099e-04 -5.8145607015e-04 
          2.6261036050e-04 6.9808171350e-04 -6.1334926795e-04 
          2.6518991496e-04 6.6845572792e-04 -6.1495970154e-04 
          2.2144909453e-04 6.1710472832e-04 -1.3942260998e-03 
          3.0565643071e-04 6.9497686911e-04 -1.1054760770e-03 
          3.0673394591e-04 5.9873250874e-04 -1.1070281471e-03 
          3.0515717164e-04 7.4603343875e-04 -1.1009682756e-03 
          3.0697504397e-04 6.5107946683e-04 -1.1025144945e-03 
          2.6282435126e-04 6.7467260066e-04 -6.1861578614e-04 
          2.6522820206e-04 6.4267069239e-04 -6.2012188191e-04 
          2.7787232378e-05 2.0479647200e-03 -1.1515148489e-03 
          -9.1487110317e-06 2.0469198886e-03 -1.1178347252e-03 
          -4.9689839943e-05 2.3175388632e-03 -1.1367650499e-03 
          -4.9852069409e-05 2.3177639393e-03 -1.1422680467e-03 
          -4.9771260728e-05 2.3175527851e-03 -1.1214878974e-03 
          -4.9987874487e-05 2.3178207224e-03 -1.1157874571e-03 
          7.9853779215e-04 9.1345975553e-05 -2.1904844307e-04 
          3.9288619395e-05 1.8918834410e-04 -5.7614373362e-04 
          1.1004258651e-04 2.7781023574e-04 -4.5035072543e-04 
          4.6312226564e-05 3.8722227756e-03 -1.0454612458e-04 
          9.8197576077e-05 -2.2167156645e-04 -5.3752751441e-04 
          1.4576259435e-04 2.6975961453e-04 -5.8046702234e-04 
          -3.2760106894e-03 6.1501115173e-05 -8.1071017135e-05 
          1.6632331259e-04 1.6757027450e-04 -4.3803238343e-04 
          1.8845117974e-04 2.6129717184e-04 -5.1905038876e-04 
          -1.4515020116e-05 -1.2904866252e-03 -6.6873618568e-05 
          2.8552736988e-05 -1.3677760943e-04 -5.8119738138e-04 
          7.4817092514e-05 2.4825128142e-04 -2.8974756700e-04 
          1.7932010183e-04 3.7008939636e-04 -6.7254438563e-04 
          2.0532840357e-04 4.7207458570e-04 -6.3711435173e-04 
          1.9135104862e-04 5.8819262417e-04 -7.6837064446e-04 
          1.8377639670e-04 3.5860242892e-04 -6.5966121978e-04 
          2.1120879789e-04 3.3275479247e-04 -7.5243057366e-04 
          2.2708855975e-04 6.3330136534e-04 -8.1325514703e-04 
          2.0552437041e-04 3.5117319707e-04 -5.7732243555e-04 
          1.9911372283e-04 4.5128897676e-04 -6.6090288577e-04 
          2.1030147350e-04 5.6959846177e-04 -7.4134772657e-04 
          1.1496490509e-04 4.0712110823e-04 -6.5339469362e-04 
          1.4747049019e-04 3.1684104536e-04 -5.2006403160e-04 
          1.7162145782e-04 6.5056305019e-04 -6.8316806669e-04 
        </DataArray>
        <DataArray type="Float64" Name="Reaction" NumberOfComponents="3" format="ascii">
          -3.3849169085e+03 3.6676514482e+03 4.5664808069e+04 
          -6.8786432885e+01 4.5306698576e+02 1.8513289755e-01 
          -4.8532056084e+03 -4.7621911467e+03 6.0099522765e+04 
          8.6060747477e+02 1.9625297975e+02 -1.3688738751e+03 
          3.6045289250e+01 1.2161516055e+03 -3.4699308943e+02 
          -1.1622693655e+02 -2.6572185080e+02 4.4438677678e-01 
          -1.4597305107e+02 -1.5277401177e+02 -5.1608293468e-02 
          -6.4506982320e+01 -2.0282464447e+02 6.8108111069e-01 
          -4.8927040127e+01 -1.3552068137e+02 2.0757118183e-01 
          1.1032566768e+01 -8.5703051866e+01 9.1752316103e-01 
          4.0839993395e+03 -3.8914101743e+03 5.4032483387e+04 
          1.4865831564e+01 6.2370691245e+02 -5.7826612262e+01 
          5.0536909546e+01 -7.3674298428e+02 -3.6728667908e-01 
          -1.0111719542e+02 -5.3045853123e+02 3.2153811921e-01 
          3.3785987352e+01 -3.3128694519e+02 9.5451369237e-01 
          6.4031289353e+01 2.9048172842e+02 1.1488166072e+00 
          4.1813614324e+03 4.2504782718e+03 4.5945182379e+04 
          -1.4750432323e+03 1.8634012804e+02 -1.0844800615e+03 
          -7.4776506044e+01 -5.3026602353e+02 -1.1081907113e+00 
          2.0532088515e+01 -4.3006238307e+02 7.2728823049e-01 
          -1.3033135992e+02 -4.1256079266e+02 -2.0549176120e-01 
          -3.1436733019e+02 -4.6781066632e+02 3.0211661017e-01 
          -6.2375601252e+01 -4.7040088073e+02 -2.3334934401e-01 
          -1.7914403762e+02 -6.8002100462e+02 -3.9058460623e-01 
          -2.0176868578e+02 1.5797957860e+03 4.2207998318e+02 
          2.9207095890e+03 -5.2718661630e+02 1.6007705158e+03 
          -1.2492755924e+03 8.2039849728e+02 6.9727175545e+00 
          2.4383922613e+02 -3.0570292471e+02 3.5424844042e+00 
          8.4786671593e+02 -2.9733979959e+02 2.2180730151e+01 
          3.4980297684e+01 4.0594519394e+02 -5.6008019754e-01 
          3.1658247930e+02 2.1699960609e+02 7.1106502714e+01 
          -2.9209871501e+01 6.7918111994e+02 1.8680062848e-01 
          2.2867306418e+02 -7.2528952682e+01 1.0373398923e+00 
          -3.1930618102e+03 6.0223787297e+02 1.2354664715e+03 
          1.2288129271e+03 1.3962359451e+02 -1.1829832482e+00 
          -7.5733369436e+02 3.6500226698e+02 2.5884150296e+01 
          1.9667346520e+02 -1.7222831091e+02 3.3743598445e+00 
          -4.1670057672e+02 2.0990974260e+02 1.5916101204e+01 
          -2.7951652870e+01 3.3731651451e+01 4.0204196137e-02 
          1.4135594692e+02 -1.2189608402e+02 7.7427095215e+00 
          9.7491146515e+01 -1.3668263572e+02 2.7413164644e-01 
          -2.2118928767e+01 -1.1934631345e+02 1.5007879229e+00 
          5.6188926953e+01 9.4190952979e+01 3.3366492871e-01 
          1.4245794566e+02 -1.8459031929e+02 8.6251882739e-01 
          8.5040695881e+01 -1.8372809260e+02 1.4528099656e-01 
          5.1485052413e+02 -2.3029381940e+02 1.4110296422e+01 
          -2.2660274510e+02 -3.9483296090e+01 9.3525087888e+00 
          7.2247764136e+01 -1.9586561366e+02 1.2272620016e+00 
          3.7528105137e+01 -7.3220552774e+01 -3.2237054212e-01 
          5.4295045301e+01 -6.9945218692e+01 -4.0359276411e-01 
          2.2422464167e+01 -8.5264364216e+01 -4.4339370998e-01 
          3.5430205094e+01 1.5402852769e+01 9.9346933400e-01 
          1.3008580765e+01 7.0008799692e+01 2.2009485295e-01 
          2.7661984527e+00 5.5276059430e+01 -4.0702288666e-02 
          1.8434431743e+01 1.0882209398e+02 3.3304895815e-01 
          -1.2699113185e+01 1.2428275481e+02 1.4139733927e-01 
          -1.0381201262e+02 2.0372551934e+02 -9.7583825486e-02 
          -3.3930637809e+01 2.6437533707e+02 1.7466092544e-02 
          4.6356981119e+01 1.5074240288e+02 4.2855655241e-02 
          -4.8854315128e+01 2.0977088250e+02 -5.2032279590e+00 
          2.0557955249e+01 2.2288805673e+02 -1.5770667050e+01 
          1.7216080621e+01 2.2467824799e+02 6.8252013529e+00 
          -2.5325631738e+01 8.1484007000e+01 9.2024169241e+00 
          -1.0398565096e+01 7.7012393761e+01 9.1003789019e-02 
          5.1312834162e+01 9.9949261403e+01 -5.2386116331e-02 
          -4.5860717579e+01 9.6077414428e+01 -1.5027031423e-01 
          5.2057313847e+01 -7.5446863569e+01 -4.1526801914e-01 
          4.2355277623e+01 1.7615683048e+02 -5.0223778816e+00 
          6.5102340560e+01 -2.3851458885e+02 -1.3813507661e+00 
          -5.8594251174e+01 1.0017272443e+02 3.1732041865e-01 
          -3.1551802504e+01 1.6883438089e+02 1.2618560073e-01 
          2.6412203003e+01 4.0286129846e+01 3.2261881817e-01 
          1.1181813096e+01 9.0784622104e+01 3.4990004137e-01 
          -1.8721321455e+01 -1.5674263976e+03 -9.5969688002e+00 
          -5.2042156695e+01 1.4146735453e+02 9.1596682494e+00 
          -3.2845375644e+01 1.4922696033e+02 1.1648307967e+00 
          5.5958559663e+01 7.6071364397e+01 5.1064597503e-01 
          2.8948864758e+01 -4.5504413201e+01 -2.5799310564e-01 
          2.6449281553e+01 -1.7907878324e+01 6.9287223649e-01 
          4.1876025639e+01 -2.8804182376e+01 6.8010467657e-01 
          3.6208340841e+01 -7.7028686766e+01 -5.4948598928e-01 
          2.9498984873e+01 1.8678978795e+02 -1.5677086594e+01 
          2.2351834369e+01 -9.3232098422e+01 -5.1513825164e-01 
          -6.4751807701e+01 1.3283526046e+02 2.5903284011e-01 
          -9.8961518411e+01 2.0483545887e+02 -1.3330942461e-01 
          6.1649668557e+01 -6.9464625675e+00 8.9971836329e-01 
          -8.9964258435e+00 2.6903314076e+01 -2.1726992833e-01 
          6.0964266796e+01 1.5866765325e+02 1.4064753698e-01 
          -7.3057001856e+01 1.4558910250e+02 6.7431996155e+00 
          -1.4371612605e+01 7.3946263176e+01 7.5683283960e-02 
          -7.6256183029e+01 9.0760693574e+01 -3.8435712646e-02 
          4.4765836784e+01 -2.3948499582e+02 -1.3493517142e+00 
          1.9265598820e+00 1.0829814343e+02 5.8572044810e-01 
          1.6094397922e+01 1.6395532951e+03 1.5832562024e+01 
          -2.7899463197e+01 1.5902193417e+02 1.0884053960e+00 
          -1.4761029468e+01 -4.0510229919e+01 -2.2250092460e-01 
          -1.4353005340e+01 -1.8601052790e+01 7.5168081831e-01 
          -1.5941207335e+01 -2.9698026703e+01 5.4304859504e-01 
          -2.9676819692e+01 9.8327380384e+01 -2.2226368362e-01 
          -1.8525517321e+01 6.6802431812e+01 3.5037632523e-01 
          -2.1657585320e+01 6.9343091819e+01 -2.6116670617e-01 
          1.9983834167e+00 7.7947521041e+01 -2.0944704461e-01 
          -6.6430195817e+00 4.5861350736e+01 4.1712394008e-01 
          -1.3348861123e+01 5.1404718968e+01 -3.0338982499e-01 
          -6.2416895355e+00 7.6519752987e+01 4.2239971448e-01 
          -1.3077741237e+01 6.5900720936e+01 -2.5140457197e-01 
          -1.7299821283e+01 5.2141981100e+01 4.1362814980e-01 
          -2.1330094786e+01 6.4385474330e+01 -3.0974965355e-01 
          1.9646750745e+01 9.7478051970e+01 -4.1394235876e-01 
          1.2663573059e+01 1.3185756949e+02 6.8305689390e-01 
          -5.5148945111e+00 7.0501120395e+01 -5.8990413676e-01 
          4.5947769933e+01 9.6502463366e+01 -3.6251430318e-01 
          5.2333533098e+01 6.7454748118e+01 6.1680398021e-01 
          2.0099819287e+01 5.0337848119e+01 -4.9298665925e-01 
          4.0655401880e+01 1.0423899115e+02 7.4061827287e-01 
          2.0185171349e+01 8.9589335322e+01 -5.0240292938e-01 
          2.5768105257e+00 1.2656349147e+02 8.4105575009e-01 
          -4.8294620504e+00 6.2563707310e+01 -5.9456247146e-01 
          4.9376625423e+01 -6.0884041649e+01 -1.1686540288e-01 
          5.0453028471e+01 -7.0238136840e+01 1.5331113027e-01 
          2.7915279483e+01 -4.9370756717e+01 -8.0568741040e-02 
          -2.3228114907e+00 -7.3027698810e+01 -1.6664173947e-01 
          7.7200050821e+01 -7.8625633224e+01 1.1580565756e-01 
          4.2738867335e+01 -6.0928816073e+01 -4.4648829620e-02 
          7.3936358970e+01 -4.3217582922e+01 1.9549706167e-01 
          4.2952453284e+01 -3.6897098023e+01 -8.2501886927e-02 
          4.8839782640e+01 -6.7742915155e+01 1.4771445755e-01 
          2.9465512841e+01 -4.2325075168e+01 -5.7660874394e-02 
          -2.3245443583e+01 -6.7237794186e+00 2.1430861044e-02 
          -1.9547792737e+01 -2.0829161786e-01 1.7277093066e-01 
          -2.7864184373e+01 -2.7415389315e+01 8.4146450933e-02 
          -2.7438679500e+01 -2.4916005763e+01 1.0953017467e-01 
          -2.7964545873e+01 -2.8847469263e+01 1.6495294008e-01 
          -2.7132909927e+01 -2.5346629317e+01 1.0407633536e-01 
          1.7858354333e+02 4.5614612835e+01 -1.0735070863e+02 
          1.0584588101e+01 1.0196458100e+02 -8.8810379975e+00 
          1.6001398988e+01 3.9055441357e+01 2.3693286251e+00 
          -1.6867117002e+01 8.6347808385e+02 -2.5250123444e+00 
          2.3008896357e+01 -7.9797721438e+01 7.1960552467e-01 
          2.9321158337e+01 3.7103561453e+01 -2.0633117273e-01 
          -7.3782504077e+02 3.2749092093e+01 -6.1382364962e+00 
          5.8380227925e+00 9.1588151705e+01 6.7301266901e+00 
          1.2733114988e+01 7.5602497810e+01 -9.5328040320e-01 
          -6.2786424351e+01 -3.1000415350e+02 -4.6700447211e+02 
          -2.5573449584e+01 -9.2416191407e+01 -1.1561869295e-01 
          9.4830921352e+00 -1.0801882691e+01 3.4239010665e-01 
          1.8933879361e+01 1.1771144376e+01 6.2046889840e-01 
          2.6270914743e+01 -3.7243687652e+00 1.0127910424e+00 
          -1.4218930050e+01 -2.0131488523e+01 4.3289934942e-01 
          3.7876275864e+01 2.8545519775e+01 -6.8817928334e-01 
          2.3842306427e+01 -7.7275576877e+01 -1.8303373654e-01 
          1.8030559574e+01 7.7015133457e+01 6.7584349644e-02 
          2.0252021102e+01 6.5918529057e+00 8.8051214565e-01 
          5.9742171643e+00 -2.7555708939e+01 7.4101609631e-01 
          1.3771934324e+01 -3.6191272316e+01 3.3919036814e-01 
          1.4421982064e+01 4.1756697485e+01 -1.6370125544e+00 
          -2.6639280142e+00 -9.5330334782e+01 -1.3425173589e-01 
          -3.4910434341e+00 8.4126689802e+01 -3.3768492189e-01 
        </DataArray>
        <DataArray type="Float64" Name="UnbalancedLoad" NumberOfComponents="3" format="ascii">
          0.0000000000e+00 0.0000000000e+00 -3.8213612817e+03 
          0.0000000000e+00 0.0000000000e+00 -3.9157513367e+03 
          0.0000000000e+00 0.0000000000e+00 -3.8212124699e+03 
          0.0000000000e+00 0.0000000000e+00 -6.1699957090e+03 
          0.0000000000e+00 0.0000000000e+00 -6.1699017083e+03 
          0.0000000000e+00 0.0000000000e+00 -4.1748479430e+03 
          0.0000000000e+00 0.0000000000e+00 -4.1754106079e+03 
          0.0000000000e+00 0.0000000000e+00 -3.1237568052e+03 
          0.0000000000e+00 0.0000000000e+00 -3.1242254727e+03 
          0.0000000000e+00 0.0000000000e+00 -3.9156025217e+03 
          0.0000000000e+00 0.0000000000e+00 -3.8213612817e+03 
          0.0000000000e+00 0.0000000000e+00 -6.1699957090e+03 
          0.0000000000e+00 0.0000000000e+00 -4.1754106079e+03 
          0.0000000000e+00 0.0000000000e+00 -4.1754106079e+03 
          0.0000000000e+00 0.0000000000e+00 -3.1242254727e+03 
          0.0000000000e+00 0.0000000000e+00 -3.9156025217e+03 
          0.0000000000e+00 0.0000000000e+00 -3.8213612817e+03 
          0.0000000000e+00 0.0000000000e+00 -6.1699957090e+03 
          0.0000000000e+00 0.0000000000e+00 -4.1754106079e+03 
          0.0000000000e+00 0.0000000000e+00 -4.1754106079e+03 
          0.0000000000e+00 0.0000000000e+00 -3.1242254727e+03 
          0.0000000000e+00 0.0000000000e+00 -3.9156025217e+03 
          0.0000000000e+00 0.0000000000e+00 -4.1754106079e+03 
          0.0000000000e+00 0.0000000000e+00 -4.1754106079e+03 
          0.0000000000e+00 0.0000000000e+00 -2.0814272215e+03 
          0.0000000000e+00 0.0000000000e+00 -2.0814272215e+03 
          0.0000000000e+00 0.0000000000e+00 -1.8799745215e+03 
          0.0000000000e+00 0.0000000000e+00 -1.8799745215e+03 
          0.0000000000e+00 0.0000000000e+00 -1.5475833772e+03 
          0.0000000000e+00 0.0000000000e+00 -1.5475833772e+03 
          0.0000000000e+00 0.0000000000e+00 -2.0814272215e+03 
          0.0000000000e+00 0.0000000000e+00 -1.8799745215e+03 
          0.0000000000e+00 0.0000000000e+00 -1.5475833772e+03 
          0.0000000000e+00 0.0000000000e+00 -2.0814272215e+03 
          0.0000000000e+00 0.0000000000e+00 -1.8799745215e+03 
          0.0000000000e+00 0.0000000000e+00 -1.5475833772e+03 
          0.0000000000e+00 0.0000000000e+00 -1.2461824943e+03 
          0.0000000000e+00 0.0000000000e+00 -1.2461824943e+03 
          0.0000000000e+00 0.0000000000e+00 -1.1275015419e+03 
          0.0000000000e+00 0.0000000000e+00 -1.1275015419e+03 
          0.0000000000e+00 0.0000000000e+00 -1.5364260374e+03 
          0.0000000000e+00 0.0000000000e+00 -1.5364260374e+03 
          0.0000000000e+00 0.0000000000e+00 -1.2461824943e+03 
          0.0000000000e+00 0.0000000000e+00 -1.1275015419e+03 
          0.0000000000e+00 0.0000000000e+00 -1.5364260374e+03 
          0.0000000000e+00 0.0000000000e+00 -1.2461824943e+03 
          0.0000000000e+00 0.0000000000e+00 -1.1275015419e+03 
          0.0000000000e+00 0.0000000000e+00 -1.5364260374e+03 
          0.0000000000e+00 0.0000000000e+00 -7.0870273773e+02 
          0.0000000000e+00 0.0000000000e+00 -7.0870273773e+02 
          0.0000000000e+00 0.0000000000e+00 -8.8609583998e+02 
          0.0000000000e+00 0.0000000000e+00 -7.2712805393e+02 
          0.0000000000e+00 0.0000000000e+00 -7.2712805393e+02 
          0.0000000000e+00 0.0000000000e+00 -4.0421653974e+02 
          0.0000000000e+00 0.0000000000e+00 -5.4497145429e+02 
          0.0000000000e+00 0.0000000000e+00 -5.4497145429e+02 
          0.0000000000e+00 0.0000000000e+00 -1.4481622930e+03 
          0.0000000000e+00 0.0000000000e+00 -1.4481622930e+03 
          0.0000000000e+00 0.0000000000e+00 -7.2236455654e+02 
          0.0000000000e+00 0.0000000000e+00 -1.3267803238e+03 
          0.0000000000e+00 0.0000000000e+00 -1.3267803238e+03 
          0.0000000000e+00 0.0000000000e+00 -7.2712805393e+02 
          0.0000000000e+00 0.0000000000e+00 -7.2712805393e+02 
          0.0000000000e+00 0.0000000000e+00 -4.0421653974e+02 
          0.0000000000e+00 0.0000000000e+00 -1.3854878233e+03 
          0.0000000000e+00 0.0000000000e+00 -1.3854878233e+03 
          0.0000000000e+00 0.0000000000e+00 -7.0870273773e+02 
          0.0000000000e+00 0.0000000000e+00 -1.3267803238e+03 
          0.0000000000e+00 0.0000000000e+00 -8.8609583998e+02 
          0.0000000000e+00 0.0000000000e+00 -5.4497145429e+02 
          0.0000000000e+00 0.0000000000e+00 -1.4481622930e+03 
          0.0000000000e+00 0.0000000000e+00 -7.2712805393e+02 
          0.0000000000e+00 0.0000000000e+00 -4.0421653974e+02 
          0.0000000000e+00 0.0000000000e+00 -7.2236455654e+02 
          0.0000000000e+00 0.0000000000e+00 -7.2712805393e+02 
          0.0000000000e+00 0.0000000000e+00 -4.0421653974e+02 
          0.0000000000e+00 0.0000000000e+00 -1.3854878233e+03 
          0.0000000000e+00 0.0000000000e+00 -3.8454664324e+02 
          0.0000000000e+00 0.0000000000e+00 -4.6468533651e+02 
          0.0000000000e+00 0.0000000000e+00 -4.6468533651e+02 
          0.0000000000e+00 0.0000000000e+00 -7.0870273773e+02 
          0.0000000000e+00 0.0000000000e+00 -1.3267803238e+03 
          0.0000000000e+00 0.0000000000e+00 -8.8609583998e+02 
          0.0000000000e+00 0.0000000000e+00 -5.4497145429e+02 
          0.0000000000e+00 0.0000000000e+00 -1.4481622930e+03 
          0.0000000000e+00 0.0000000000e+00 -7.2712805393e+02 
          0.0000000000e+00 0.0000000000e+00 -4.0421653974e+02 
          0.0000000000e+00 0.0000000000e+00 -7.2236455654e+02 
          0.0000000000e+00 0.0000000000e+00 -7.2712805393e+02 
          0.0000000000e+00 0.0000000000e+00 -4.0421653974e+02 
          0.0000000000e+00 0.0000000000e+00 -1.3854878233e+03 
          0.0000000000e+00 0.0000000000e+00 -8.8609583998e+02 
          0.0000000000e+00 0.0000000000e+00 -4.0421653974e+02 
          0.0000000000e+00 0.0000000000e+00 -7.2236455654e+02 
          0.0000000000e+00 0.0000000000e+00 -4.0421653974e+02 
          0.0000000000e+00 0.0000000000e+00 -3.8454664324e+02 
          0.0000000000e+00 0.0000000000e+00 -4.6468533651e+02 
          0.0000000000e+00 0.0000000000e+00 -4.6468533651e+02 
          0.0000000000e+00 0.0000000000e+00 -6.0081762921e+02 
          0.0000000000e+00 0.0000000000e+00 -6.0082204643e+02 
          0.0000000000e+00 0.0000000000e+00 -4.2647729248e+02 
          0.0000000000e+00 0.0000000000e+00 -6.0081762921e+02 
          0.0000000000e+00 0.0000000000e+00 -6.0082204643e+02 
          0.0000000000e+00 0.0000000000e+00 -4.2647729248e+02 
          0.0000000000e+00 0.0000000000e+00 -6.0082204643e+02 
          0.0000000000e+00 0.0000000000e+00 -4.2647729248e+02 
          0.0000000000e+00 0.0000000000e+00 -6.0082204643e+02 
          0.0000000000e+00 0.0000000000e+00 -4.2647729248e+02 
          0.0000000000e+00 0.0000000000e+00 -6.0081762921e+02 
          0.0000000000e+00 0.0000000000e+00 -6.0082204643e+02 
          0.0000000000e+00 0.0000000000e+00 -4.2647729248e+02 
          0.0000000000e+00 0.0000000000e+00 -6.0081762921e+02 
          0.0000000000e+00 0.0000000000e+00 -6.0082204643e+02 
          0.0000000000e+00 0.0000000000e+00 -4.2647729248e+02 
          0.0000000000e+00 0.0000000000e+00 -6.0082204643e+02 
          0.0000000000e+00 0.0000000000e+00 -4.2647729248e+02 
          0.0000000000e+00 0.0000000000e+00 -6.0082204643e+02 
          0.0000000000e+00 0.0000000000e+00 -4.2647729248e+02 
          0.0000000000e+00 0.0000000000e+00 -6.0081762921e+02 
          0.0000000000e+00 0.0000000000e+00 -6.0082204643e+02 
          0.0000000000e+00 0.0000000000e+00 -4.2647729248e+02 
          0.0000000000e+00 0.0000000000e+00 -6.0081762921e+02 
          0.0000000000e+00 0.0000000000e+00 -6.0082204643e+02 
          0.0000000000e+00 0.0000000000e+00 -4.2647729248e+02 
          0.0000000000e+00 0.0000000000e+00 -6.0082204643e+02 
          0.0000000000e+00 0.0000000000e+00 -4.2647729248e+02 
          0.0000000000e+00 0.0000000000e+00 -6.0082204643e+02 
          0.0000000000e+00 0.0000000000e+00 -4.2647729248e+02 
          0.0000000000e+00 0.0000000000e+00 -3.8546281154e+02 
          0.0000000000e+00 0.0000000000e+00 -3.8546281154e+02 
          0.0000000000e+00 0.0000000000e+00 -1.0537090713e+02 
          0.0000000000e+00 0.0000000000e+00 -1.0537090713e+02 
          0.0000000000e+00 0.0000000000e+00 -1.0537090713e+02 
          0.0000000000e+00 0.0000000000e+00 -1.0537090713e+02 
          0.0000000000e+00 0.0000000000e+00 -5.1270998827e+02 
          0.0000000000e+00 0.0000000000e+00 -4.6312520339e+02 
          0.0000000000e+00 0.0000000000e+00 -4.1752874920e+02 
          0.0000000000e+00 0.0000000000e+00 -5.1270998827e+02 
          0.0000000000e+00 0.0000000000e+00 -4.6312520339e+02 
          0.0000000000e+00 0.0000000000e+00 -4.1752874920e+02 
          0.0000000000e+00 0.0000000000e+00 -5.1270998827e+02 
          0.0000000000e+00 0.0000000000e+00 -4.6312520339e+02 
          0.0000000000e+00 0.0000000000e+00 -4.1752874920e+02 
          0.0000000000e+00 0.0000000000e+00 -5.1270998827e+02 
          0.0000000000e+00 0.0000000000e+00 -4.6312520339e+02 
          0.0000000000e+00 0.0000000000e+00 -4.1752874920e+02 
          0.0000000000e+00 0.0000000000e+00 -3.7648968804e+02 
          0.0000000000e+00 0.0000000000e+00 -3.3884698526e+02 
          0.0000000000e+00 0.0000000000e+00 -3.0714906999e+02 
          0.0000000000e+00 0.0000000000e+00 -3.7648968804e+02 
          0.0000000000e+00 0.0000000000e+00 -3.3884698526e+02 
          0.0000000000e+00 0.0000000000e+00 -3.0714906999e+02 
          0.0000000000e+00 0.0000000000e+00 -3.7648968804e+02 
          0.0000000000e+00 0.0000000000e+00 -3.3884698526e+02 
          0.0000000000e+00 0.0000000000e+00 -3.0714906999e+02 
          0.0000000000e+00 0.0000000000e+00 -3.7648968804e+02 
          0.0000000000e+00 0.0000000000e+00 -3.3884698526e+02 
          0.0000000000e+00 0.0000000000e+00 -3.0714906999e+02 
        </DataArray>
      </PointData>
      <CellData>
        <DataArray type="Int64" Name="ElementTag" format="ascii">
          0
        </DataArray>
      </CellData>
    </Piece>
  </UnstructuredGrid>
</VTKFile>
