<?xml version="1.0"?>
<VTKFile type="UnstructuredGrid" version="1.0" byte_order="LittleEndian" compressor="vtkZLibDataCompressor">
  <UnstructuredGrid>
    <Piece NumberOfPoints="158" NumberOfCells="1">
      <Points>
        <DataArray type="Float64" Name="Points" NumberOfComponents="3" format="ascii">
          1.7550000000e+00 -1.7550000000e+00 0.0000000000e+00 
          1.4140000000e+00 0.0000000000e+00 5.2300000000e+00 
          1.7550000000e+00 1.7550000000e+00 -0.0000000000e+00 
          1.4140000000e+00 -1.4140000000e+00 5.2300000000e+00 
          1.4140000000e+00 1.4140000000e+00 5.2300000000e+00 
          1.5840000000e+00 8.7800000000e-01 2.6150000000e+00 
          1.5840000000e+00 -8.7700000000e-01 2.6150000000e+00 
          1.5840000000e+00 1.5840000000e+00 2.6150000000e+00 
          1.5840000000e+00 -1.5840000000e+00 2.6150000000e+00 
          -0.0000000000e+00 1.4140000000e+00 5.2300000000e+00 
          -1.7550000000e+00 1.7550000000e+00 -0.0000000000e+00 
          -1.4140000000e+00 1.4140000000e+00 5.2300000000e+00 
          -8.7700000000e-01 1.5840000000e+00 2.6150000000e+00 
          8.7700000000e-01 1.5840000000e+00 2.6150000000e+00 
          -1.5840000000e+00 1.5840000000e+00 2.6150000000e+00 
          -1.4140000000e+00 -0.0000000000e+00 5.2300000000e+00 
          -1.7550000000e+00 -1.7550000000e+00 -0.0000000000e+00 
          -1.4140000000e+00 -1.4140000000e+00 5.2300000000e+00 
          -1.5840000000e+00 -8.7700000000e-01 2.6150000000e+00 
          -1.5840000000e+00 8.7700000000e-01 2.6150000000e+00 
          -1.5840000000e+00 -1.5840000000e+00 2.6150000000e+00 
          0.0000000000e+00 -1.4140000000e+00 5.2300000000e+00 
          8.7700000000e-01 -1.5840000000e+00 2.6150000000e+00 
          -8.7700000000e-01 -1.5840000000e+00 2.6150000000e+00 
          1.2750000000e+00 1.2750000000e+00 7.3500000000e+00 
          1.2750000000e+00 -1.2750000000e+00 7.3500000000e+00 
          1.1500000000e+00 -1.1500000000e+00 9.2700000000e+00 
          1.1500000000e+00 1.1500000000e+00 9.2700000000e+00 
          1.0370000000e+00 -1.0370000000e+00 1.1000000000e+01 
          1.0370000000e+00 1.0370000000e+00 1.1000000000e+01 
          -1.2750000000e+00 1.2750000000e+00 7.3500000000e+00 
          -1.1500000000e+00 1.1500000000e+00 9.2700000000e+00 
          -1.0370000000e+00 1.0370000000e+00 1.1000000000e+01 
          -1.2750000000e+00 -1.2750000000e+00 7.3500000000e+00 
          -1.1500000000e+00 -1.1500000000e+00 9.2700000000e+00 
          -1.0370000000e+00 -1.0370000000e+00 1.1000000000e+01 
          9.3500000000e-01 9.3500000000e-01 1.2560000000e+01 
          9.3500000000e-01 -9.3500000000e-01 1.2560000000e+01 
          8.4300000000e-01 8.4300000000e-01 1.3960000000e+01 
          8.4300000000e-01 -8.4300000000e-01 1.3960000000e+01 
          7.6000000000e-01 7.6000000000e-01 1.5240000000e+01 
          7.6000000000e-01 -7.6000000000e-01 1.5240000000e+01 
          -9.3500000000e-01 9.3500000000e-01 1.2560000000e+01 
          -8.4300000000e-01 8.4300000000e-01 1.3960000000e+01 
          -7.6000000000e-01 7.6000000000e-01 1.5240000000e+01 
          -9.3500000000e-01 -9.3500000000e-01 1.2560000000e+01 
          -8.4300000000e-01 -8.4300000000e-01 1.3960000000e+01 
          -7.6000000000e-01 -7.6000000000e-01 1.5240000000e+01 
          7.6000000000e-01 -7.6000000000e-01 1.6240000000e+01 
          7.6000000000e-01 7.6000000000e-01 1.6240000000e+01 
          7.6000000000e-01 0.0000000000e+00 1.6240000000e+01 
          7.6000000000e-01 7.6000000000e-01 1.7340000000e+01 
          7.6000000000e-01 -7.6000000000e-01 1.7340000000e+01 
          7.6000000000e-01 0.0000000000e+00 1.7890000000e+01 
          7.6000000000e-01 -7.6000000000e-01 1.9440000000e+01 
          7.6000000000e-01 7.6000000000e-01 1.9440000000e+01 
          7.6000000000e-01 -7.6000000000e-01 2.1640000000e+01 
          7.6000000000e-01 7.6000000000e-01 2.1640000000e+01 
          7.6000000000e-01 0.0000000000e+00 1.9440000000e+01 
          7.6000000000e-01 7.6000000000e-01 1.8440000000e+01 
          7.6000000000e-01 -7.6000000000e-01 1.8440000000e+01 
          7.6000000000e-01 -7.6000000000e-01 2.0540000000e+01 
          7.6000000000e-01 7.6000000000e-01 2.0540000000e+01 
          7.6000000000e-01 0.0000000000e+00 2.1090000000e+01 
          7.6000000000e-01 7.6000000000e-01 2.2640000000e+01 
          7.6000000000e-01 -7.6000000000e-01 2.2640000000e+01 
          -7.6000000000e-01 7.6000000000e-01 1.6240000000e+01 
          -7.6000000000e-01 7.6000000000e-01 1.8440000000e+01 
          -0.0000000000e+00 7.6000000000e-01 1.6240000000e+01 
          -7.6000000000e-01 7.6000000000e-01 1.9440000000e+01 
          -7.6000000000e-01 7.6000000000e-01 2.1640000000e+01 
          -7.6000000000e-01 7.6000000000e-01 1.7340000000e+01 
          -0.0000000000e+00 7.6000000000e-01 1.7890000000e+01 
          -0.0000000000e+00 7.6000000000e-01 1.9440000000e+01 
          -7.6000000000e-01 7.6000000000e-01 2.0540000000e+01 
          0.0000000000e+00 7.6000000000e-01 2.1090000000e+01 
          -7.6000000000e-01 7.6000000000e-01 2.2640000000e+01 
          -0.0000000000e+00 5.2600000000e-01 2.3499000000e+01 
          3.9900000000e-01 4.0400000000e-01 2.3950000000e+01 
          -3.9900000000e-01 4.0400000000e-01 2.3950000000e+01 
          -7.6000000000e-01 -7.6000000000e-01 1.6240000000e+01 
          -7.6000000000e-01 -7.6000000000e-01 1.8440000000e+01 
          -7.6000000000e-01 -0.0000000000e+00 1.6240000000e+01 
          -7.6000000000e-01 -7.6000000000e-01 1.9440000000e+01 
          -7.6000000000e-01 -7.6000000000e-01 2.1640000000e+01 
          -7.6000000000e-01 -7.6000000000e-01 1.7340000000e+01 
          -7.6000000000e-01 0.0000000000e+00 1.7890000000e+01 
          -7.6000000000e-01 -0.0000000000e+00 1.9440000000e+01 
          -7.6000000000e-01 -7.6000000000e-01 2.0540000000e+01 
          -7.6000000000e-01 -0.0000000000e+00 2.1090000000e+01 
          -7.6000000000e-01 -7.6000000000e-01 2.2640000000e+01 
          0.0000000000e+00 -7.6000000000e-01 1.6240000000e+01 
          0.0000000000e+00 -7.6000000000e-01 1.7890000000e+01 
          0.0000000000e+00 -7.6000000000e-01 1.9440000000e+01 
          0.0000000000e+00 -7.6000000000e-01 2.1090000000e+01 
          0.0000000000e+00 -5.2600000000e-01 2.3499000000e+01 
          3.9900000000e-01 -4.0400000000e-01 2.3950000000e+01 
          -3.9900000000e-01 -4.0400000000e-01 2.3950000000e+01 
          -0.0000000000e+00 -3.3500000000e+00 2.1640000000e+01 
          -3.8000000000e-01 -2.0550000000e+00 2.2140000000e+01 
          -3.8000000000e-01 -2.0550000000e+00 2.1640000000e+01 
          0.0000000000e+00 3.3500000000e+00 2.1640000000e+01 
          -3.8000000000e-01 2.0550000000e+00 2.2140000000e+01 
          -3.8000000000e-01 2.0550000000e+00 2.1640000000e+01 
          3.8000000000e-01 2.0550000000e+00 2.2140000000e+01 
          3.8000000000e-01 2.0550000000e+00 2.1640000000e+01 
          3.8000000000e-01 -2.0550000000e+00 2.2140000000e+01 
          3.8000000000e-01 -2.0550000000e+00 2.1640000000e+01 
          -0.0000000000e+00 -3.3500000000e+00 1.8440000000e+01 
          -3.8000000000e-01 -2.0550000000e+00 1.8940000000e+01 
          -3.8000000000e-01 -2.0550000000e+00 1.8440000000e+01 
          -0.0000000000e+00 3.3500000000e+00 1.8440000000e+01 
          -3.8000000000e-01 2.0550000000e+00 1.8940000000e+01 
          -3.8000000000e-01 2.0550000000e+00 1.8440000000e+01 
          3.8000000000e-01 2.0550000000e+00 1.8940000000e+01 
          3.8000000000e-01 2.0550000000e+00 1.8440000000e+01 
          3.8000000000e-01 -2.0550000000e+00 1.8940000000e+01 
          3.8000000000e-01 -2.0550000000e+00 1.8440000000e+01 
          -0.0000000000e+00 -3.3500000000e+00 1.5240000000e+01 
          -3.8000000000e-01 -2.0550000000e+00 1.5740000000e+01 
          -3.8000000000e-01 -2.0550000000e+00 1.5240000000e+01 
          -0.0000000000e+00 3.3500000000e+00 1.5240000000e+01 
          -3.8000000000e-01 2.0550000000e+00 1.5740000000e+01 
          -3.8000000000e-01 2.0550000000e+00 1.5240000000e+01 
          3.8000000000e-01 2.0550000000e+00 1.5740000000e+01 
          3.8000000000e-01 2.0550000000e+00 1.5240000000e+01 
          3.8000000000e-01 -2.0550000000e+00 1.5740000000e+01 
          3.8000000000e-01 -2.0550000000e+00 1.5240000000e+01 
          -5.2400000000e-01 0.0000000000e+00 2.3496000000e+01 
          5.2400000000e-01 0.0000000000e+00 2.3496000000e+01 
          4.0000000000e-02 5.0000000000e-02 2.5250000000e+01 
          -4.0000000000e-02 5.0000000000e-02 2.5250000000e+01 
          -4.0000000000e-02 -5.0000000000e-02 2.5250000000e+01 
          4.0000000000e-02 -5.0000000000e-02 2.5250000000e+01 
          1.3410000000e+00 0.0000000000e+00 6.3450000000e+00 
          1.2090000000e+00 0.0000000000e+00 8.3600000000e+00 
          1.0900000000e+00 -0.0000000000e+00 1.0180000000e+01 
          -0.0000000000e+00 1.3410000000e+00 6.3450000000e+00 
          0.0000000000e+00 1.2090000000e+00 8.3600000000e+00 
          -0.0000000000e+00 1.0900000000e+00 1.0180000000e+01 
          -1.3410000000e+00 0.0000000000e+00 6.3450000000e+00 
          -1.2090000000e+00 0.0000000000e+00 8.3600000000e+00 
          -1.0900000000e+00 -0.0000000000e+00 1.0180000000e+01 
          -0.0000000000e+00 -1.3410000000e+00 6.3450000000e+00 
          0.0000000000e+00 -1.2090000000e+00 8.3600000000e+00 
          0.0000000000e+00 -1.0900000000e+00 1.0180000000e+01 
          9.8300000000e-01 0.0000000000e+00 1.1820000000e+01 
          8.8700000000e-01 0.0000000000e+00 1.3296000000e+01 
          8.0000000000e-01 -0.0000000000e+00 1.4633000000e+01 
          0.0000000000e+00 9.8300000000e-01 1.1820000000e+01 
          -0.0000000000e+00 8.8700000000e-01 1.3296000000e+01 
          0.0000000000e+00 8.0000000000e-01 1.4633000000e+01 
          -9.8300000000e-01 0.0000000000e+00 1.1820000000e+01 
          -8.8700000000e-01 0.0000000000e+00 1.3296000000e+01 
          -8.0000000000e-01 0.0000000000e+00 1.4633000000e+01 
          0.0000000000e+00 -9.8300000000e-01 1.1820000000e+01 
          0.0000000000e+00 -8.8700000000e-01 1.3296000000e+01 
          0.0000000000e+00 -8.0000000000e-01 1.4633000000e+01 
        </DataArray>
      </Points>
      <Cells>
        <DataArray type="Int64" Name="connectivity" format="ascii">
          0
          1
          2
          3
          4
          5
          6
          7
          8
          9
          10
          11
          12
          13
          14
          15
          16
          17
          18
          19
          20
          21
          22
          23
          24
          25
          26
          27
          28
          29
          30
          31
          32
          33
          34
          35
          36
          37
          38
          39
          40
          41
          42
          43
          44
          45
          46
          47
          48
          49
          50
          51
          52
          53
          54
          55
          56
          57
          58
          59
          60
          61
          62
          63
          64
          65
          66
          67
          68
          69
          70
          71
          72
          73
          74
          75
          76
          77
          78
          79
          80
          81
          82
          83
          84
          85
          86
          87
          88
          89
          90
          91
          92
          93
          94
          95
          96
          97
          98
          99
          100
          101
          102
          103
          104
          105
          106
          107
          108
          109
          110
          111
          112
          113
          114
          115
          116
          117
          118
          119
          120
          121
          122
          123
          124
          125
          126
          127
          128
          129
          130
          131
          132
          133
          134
          135
          136
          137
          138
          139
          140
          141
          142
          143
          144
          145
          146
          147
          148
          149
          150
          151
          152
          153
          154
          155
          156
          157
        </DataArray>
        <DataArray type="Int64" Name="offsets" format="ascii">
          158
        </DataArray>
        <DataArray type="Int64" Name="types" format="ascii">
          2
        </DataArray>
      </Cells>
      <PointData>
        <DataArray type="Int64" Name="NodeTag" format="ascii">
          1
          2
          3
          4
          5
          6
          7
          8
          9
          10
          11
          12
          13
          14
          15
          16
          17
          18
          19
          20
          21
          22
          23
          24
          25
          26
          27
          28
          29
          30
          31
          32
          33
          34
          35
          36
          37
          38
          39
          40
          41
          42
          43
          44
          45
          46
          47
          48
          49
          50
          51
          52
          53
          54
          55
          56
          57
          58
          59
          60
          61
          62
          63
          64
          65
          66
          67
          68
          69
          70
          71
          72
          73
          74
          75
          76
          77
          78
          79
          80
          81
          82
          83
          84
          85
          86
          87
          88
          89
          90
          91
          92
          93
          94
          95
          96
          97
          98
          99
          100
          101
          102
          103
          104
          105
          106
          107
          108
          109
          110
          111
          112
          113
          114
          115
          116
          117
          118
          119
          120
          121
          122
          123
          124
          125
          126
          127
          128
          129
          130
          131
          132
          133
          134
          135
          136
          137
          138
          139
          140
          141
          142
          143
          144
          145
          146
          147
          148
          149
          150
          151
          152
          153
          154
          155
          156
          157
          158
        </DataArray>
        <DataArray type="Float64" Name="Displacement" NumberOfComponents="3" format="ascii">
          0.0000000000e+00 0.0000000000e+00 0.0000000000e+00 
          -9.0896283559e-06 -5.1310287137e-05 -1.8744678838e-05 
          0.0000000000e+00 0.0000000000e+00 0.0000000000e+00 
          2.3690668045e-05 -5.0605159864e-05 -1.6219862418e-04 
          -1.9192131656e-05 -5.4568520052e-05 -2.4364014136e-05 
          -3.8990800317e-05 -5.2046912598e-05 -2.4588664034e-05 
          -2.4084940689e-04 2.4272891415e-04 -1.1830211936e-04 
          -3.8069575262e-05 -5.1666578944e-05 -1.8345995895e-05 
          -2.5114920027e-04 2.4250387021e-04 -1.1948439188e-04 
          -1.9621241264e-05 -5.2097417619e-05 -1.7206951171e-05 
          0.0000000000e+00 0.0000000000e+00 0.0000000000e+00 
          -2.0674505551e-05 -7.2653195249e-05 -3.4767119780e-05 
          2.3149581543e-05 -9.4515681587e-05 -2.7663691976e-05 
          -3.8191287963e-05 -4.2069118798e-05 -2.1849572524e-05 
          2.2924400259e-05 -1.0012710991e-04 -2.6575698239e-05 
          9.0275144202e-06 -7.0140405710e-05 -1.7425077770e-05 
          0.0000000000e+00 0.0000000000e+00 0.0000000000e+00 
          2.4061375368e-05 -7.0553848627e-05 -1.7381860384e-04 
          3.0480543841e-04 2.4553133918e-04 -1.2602987605e-04 
          2.3340487630e-05 -1.0020988624e-04 -3.3881550795e-05 
          3.1633326894e-04 2.4528851349e-04 -1.2893063027e-04 
          2.3470703033e-05 4.1903588916e-05 -2.4731418320e-05 
          -2.5165245186e-04 2.4399680085e-04 -1.2023522262e-04 
          3.1669698122e-04 2.4640845444e-04 -1.3262003103e-04 
          -6.8508524587e-05 -1.4586721194e-04 -3.3928564502e-05 
          6.2206227654e-05 -2.9606281338e-04 -2.1862353533e-04 
          5.7926954509e-06 -3.6702248241e-04 -2.7776091312e-04 
          -3.3731217086e-06 -4.6598901413e-04 -5.2333111220e-05 
          1.1001309401e-05 -6.7867620728e-04 -3.0601008917e-04 
          -1.0230599376e-04 -5.6729991108e-04 -6.7208496410e-05 
          3.0064526423e-06 -2.0800943074e-04 -4.7222773736e-05 
          -9.3239127714e-05 -4.2601541750e-04 -5.9108315354e-05 
          -2.6859964705e-05 -6.2104323450e-04 -7.7608828209e-05 
          -3.4350253504e-05 -2.6403990294e-04 -2.3333220235e-04 
          -7.1244452470e-06 -4.3508712808e-04 -2.8633847331e-04 
          -4.8193546223e-05 -6.4370813102e-04 -3.1916930971e-04 
          -4.8043100250e-05 -8.6350497619e-04 -8.6573107672e-05 
          -2.0854234126e-05 -8.2414477351e-04 -3.5344254831e-04 
          -9.1288981721e-05 -1.0463832029e-03 -1.0543797179e-04 
          -2.2407061486e-05 -1.0989092603e-03 -3.8035657594e-04 
          -7.4423029352e-05 -1.3118428817e-03 -1.2562745166e-04 
          -4.2059579823e-05 -1.3079812949e-03 -4.0730869085e-04 
          -9.9881196144e-05 -8.4145693216e-04 -8.6416455291e-05 
          -6.5246237508e-05 -1.0648881955e-03 -1.0315989361e-04 
          -7.8725514714e-05 -1.3191854899e-03 -1.1629835375e-04 
          -4.5103203223e-05 -8.5403666031e-04 -3.5760527484e-04 
          -6.4814499817e-05 -1.0871618174e-03 -3.8297750948e-04 
          -5.2189703315e-05 -1.3133997647e-03 -4.0216298470e-04 
          -4.3732745898e-05 -1.5226886129e-03 -4.5409417742e-04 
          -6.9182049887e-05 -1.5184762191e-03 -1.3429147136e-04 
          -7.0268421432e-05 -1.5210462564e-03 -2.8021727223e-04 
          -3.5707369062e-05 -1.7785473993e-03 -1.3963911242e-04 
          3.2755482803e-05 -1.8608497316e-03 -5.0240067968e-04 
          -1.7747312259e-05 -1.9625802148e-03 -3.7172328874e-04 
          4.1272274373e-05 -2.3781379059e-03 -5.6141382431e-04 
          7.4889364922e-06 -2.3769572556e-03 -1.8644963440e-04 
          1.1723061779e-04 -2.8990232087e-03 -5.7894006179e-04 
          7.3990181896e-05 -2.9070214455e-03 -2.2849321299e-04 
          2.6671705368e-05 -2.3762166743e-03 -3.6577296031e-04 
          -1.4732507536e-05 -2.1165880881e-03 -1.6782012435e-04 
          7.8682929283e-06 -2.1082943236e-03 -5.5076393879e-04 
          9.2226202176e-05 -2.6645011873e-03 -5.6966369515e-04 
          6.4594165211e-05 -2.6261331171e-03 -2.0358626431e-04 
          9.2218672139e-05 -2.7771273521e-03 -4.1166357965e-04 
          1.0415513087e-04 -3.1196977812e-03 -2.3956443471e-04 
          1.4500055674e-04 -3.1296667503e-03 -5.8006010154e-04 
          -6.8064473608e-05 -1.5278821562e-03 -1.1609445597e-04 
          -2.3751365653e-05 -2.1335592589e-03 -1.3025781464e-04 
          -6.8562786381e-05 -1.4713431758e-03 -1.2191497594e-04 
          8.9072501174e-06 -2.3946487619e-03 -1.4659659724e-04 
          7.2420202730e-05 -2.9297915823e-03 -1.8461937813e-04 
          -5.4631100694e-05 -1.8048118452e-03 -1.1123979013e-04 
          -3.3854920277e-05 -1.9759694639e-03 -1.4130540285e-04 
          8.0730301932e-06 -2.8981085651e-03 -1.6021261946e-04 
          1.7836675826e-05 -2.6481954045e-03 -1.6057540410e-04 
          5.7079537961e-05 -2.8379391493e-03 -2.1041978686e-04 
          1.0058864349e-04 -3.1434336036e-03 -1.9545756232e-04 
          1.3107749092e-04 -3.3153414464e-03 -2.7111898511e-04 
          1.4868802070e-04 -3.4217365678e-03 -3.1582079762e-04 
          1.4464657971e-04 -3.4288976195e-03 -2.9025819828e-04 
          -4.2796612513e-05 -1.5318022835e-03 -4.3861402344e-04 
          1.2375556548e-05 -2.1253878754e-03 -5.1224324691e-04 
          -7.6605920236e-05 -1.5305928983e-03 -2.6637733545e-04 
          4.2472380163e-05 -2.3962610043e-03 -5.2026967831e-04 
          1.1672799946e-04 -2.9225184108e-03 -5.3545107143e-04 
          -6.9460827138e-05 -1.8636233128e-03 -4.7544319537e-04 
          -4.6382580595e-05 -1.9788323611e-03 -3.3081350851e-04 
          2.1103579954e-05 -2.3944723862e-03 -3.2523571832e-04 
          7.0395912516e-05 -2.6848386431e-03 -5.2533781453e-04 
          7.4867638622e-05 -2.7989988682e-03 -3.6715375570e-04 
          1.4624666069e-04 -3.1545703363e-03 -5.3864485484e-04 
          -4.2937604751e-05 -1.4791040661e-03 -4.3252458709e-04 
          -6.2300729493e-06 -2.0083675980e-03 -5.4727873621e-04 
          4.1926866126e-05 -1.9780344705e-03 -5.3581747267e-04 
          9.9401291639e-05 -2.8477920621e-03 -5.6031277932e-04 
          1.6451696026e-04 -3.3026906141e-03 -5.1660215701e-04 
          1.7171736859e-04 -3.4210630967e-03 -4.9186021031e-04 
          1.7568606829e-04 -3.4281545112e-03 -4.7272429576e-04 
          1.6587005085e-04 -2.9062736504e-03 -1.2028672388e-03 
          1.7189795263e-04 -3.0293618100e-03 -8.7016763082e-04 
          1.6792746485e-04 -2.9068152898e-03 -8.7074877130e-04 
          3.6392117379e-05 -2.9253817563e-03 2.8409644532e-04 
          5.2213443875e-05 -3.0226851799e-03 5.3653996453e-05 
          4.7853151116e-05 -2.9257863006e-03 5.3040791315e-05 
          5.2268595730e-05 -3.0203003338e-03 3.4485957166e-05 
          4.7766559793e-05 -2.9187593177e-03 3.4018543678e-05 
          1.7179517707e-04 -3.0280623502e-03 -8.8537994339e-04 
          1.6812162715e-04 -2.9104008767e-03 -8.8586001669e-04 
          4.3189185106e-05 -2.1155552493e-03 -1.2757372106e-03 
          4.1325793959e-05 -2.2603118996e-03 -8.9727517972e-04 
          3.8784367913e-05 -2.1176242337e-03 -8.9784847975e-04 
          -4.5910954992e-05 -2.1353319394e-03 4.4724229037e-04 
          -5.8438197577e-05 -2.2450537184e-03 1.6420611557e-04 
          -6.0341540316e-05 -2.1273970538e-03 1.6360083285e-04 
          -5.8315366992e-05 -2.2582803204e-03 1.4846272155e-04 
          -6.0817511466e-05 -2.1353605584e-03 1.4798481012e-04 
          4.1093926200e-05 -2.2527406585e-03 -9.1089057715e-04 
          3.9363370227e-05 -2.1162935550e-03 -9.1136290260e-04 
          -4.2607285635e-05 -1.3038424690e-03 -1.0529501573e-03 
          -3.9503930780e-05 -1.4278874689e-03 -7.2486422526e-04 
          -4.0914406016e-05 -1.3062915235e-03 -7.2541376708e-04 
          -9.6647652302e-05 -1.3217139893e-03 3.5846485816e-04 
          -1.4855660211e-04 -1.3995773468e-03 1.2776575031e-04 
          -1.4843569073e-04 -1.3025732214e-03 1.2718153308e-04 
          -1.4814826665e-04 -1.4333358675e-03 1.1916020370e-04 
          -1.4868727474e-04 -1.3348590812e-03 1.1866053451e-04 
          -4.0054645541e-05 -1.4267291215e-03 -7.2855150236e-04 
          -4.0533448233e-05 -1.3061002453e-03 -7.2906698485e-04 
          1.5573392824e-04 -3.3320581900e-03 -3.8105064740e-04 
          1.4496681065e-04 -3.3200323189e-03 -4.0874850327e-04 
          2.1001139627e-04 -3.6863884143e-03 -3.7634835119e-04 
          2.1024468117e-04 -3.6859919062e-03 -3.8073614812e-04 
          2.1016317494e-04 -3.6863759272e-03 -4.1015440004e-04 
          2.1037711774e-04 -3.6859755053e-03 -4.0596741382e-04 
          2.9607338968e-03 -1.2773437992e-04 1.3065898066e-04 
          -1.1621257677e-04 -3.1333756412e-04 -2.3345183543e-04 
          -7.8088458163e-05 -5.1649371094e-04 -1.1490583793e-04 
          -2.6393628698e-05 3.1038018984e-03 1.5065779142e-04 
          -4.0653263308e-05 -2.6262588349e-04 4.4240662179e-06 
          -5.7248656763e-05 -6.7006477193e-04 -1.2725386493e-04 
          -5.3815608839e-04 -1.4472354509e-04 -7.1321909195e-05 
          -7.7578760651e-05 -3.2790346541e-04 -1.6991667466e-04 
          -4.7499930199e-05 -5.2800500373e-04 -1.8255136351e-04 
          1.9032236966e-05 -6.3589737623e-04 -1.3834616080e-04 
          6.6899505341e-06 -2.2873720876e-04 -2.8914758518e-04 
          -1.0232682821e-05 -6.7315696727e-04 -2.7487565272e-04 
          -1.0060295615e-04 -7.2946534080e-04 -2.5550294244e-04 
          -4.4261641498e-05 -9.5644207644e-04 -2.0361105289e-04 
          -4.5982329386e-05 -1.1906265723e-03 -2.7203869974e-04 
          -7.0585734602e-05 -9.0624231050e-04 -5.2832937194e-05 
          -7.7235078994e-05 -9.6026282960e-04 -1.2094832195e-04 
          -7.8835751479e-05 -1.2479362509e-03 -1.0817807501e-04 
          -8.9600724234e-05 -7.3552326504e-04 -2.1234063990e-04 
          -3.6078053148e-05 -9.5969832398e-04 -2.3249912418e-04 
          -5.3564476107e-05 -1.1955667565e-03 -2.6152102655e-04 
          -2.6893169867e-05 -8.9673472453e-04 -3.3668674530e-04 
          -3.9356405510e-05 -9.6714486670e-04 -3.6381184161e-04 
          -4.6885301555e-05 -1.2410632279e-03 -4.0168607136e-04 
        </DataArray>
        <DataArray type="Float64" Name="Reaction" NumberOfComponents="3" format="ascii">
          -2.3576210946e+03 2.4551222633e+03 2.8933652193e+04 
          1.7081636711e+02 -9.3238012298e+01 7.1696000260e-01 
          -6.0395750868e+02 -4.6606879506e+02 6.2542394916e+03 
          1.4005617596e+02 -5.6241997683e+02 -3.5084904787e+02 
          -1.4582224122e+02 1.9254146425e+02 -3.4835157009e+02 
          9.3435527139e+01 1.9796437272e+02 -9.6027033188e-03 
          -9.1607128939e+01 9.9898411205e+01 -4.4508449011e-01 
          7.5452321811e+01 1.5529004007e+02 1.4770850905e-01 
          -3.2701917657e+01 7.7726428966e+01 2.7331068447e-01 
          -1.0925149394e+02 1.8032677976e+02 5.5825325997e-01 
          1.1113391699e+03 -1.8362190970e+02 7.9247977775e+03 
          -1.7662570337e+02 -3.6927800633e+02 -1.0236747543e-01 
          -1.9860878397e+02 9.1601889694e+01 -5.4216737320e-01 
          9.6132296226e+01 3.0066227743e+02 4.9200575568e-02 
          -1.5073503220e+02 -1.3696112476e+01 -2.3604676783e-02 
          -2.3827559701e+02 -2.0145012533e+02 3.8198488106e-01 
          1.7258596320e+03 2.5668053817e+03 2.8719170640e+04 
          8.6446606890e+01 -3.0277120091e+02 -6.3140657094e-01 
          1.1871896017e+02 1.1048160778e+02 -5.1586477001e-01 
          -1.2338813266e+02 -2.8020542852e+01 -9.7348917842e-02 
          2.2431584743e+02 8.6161584286e+01 -1.9327298400e-01 
          4.6446176833e+01 4.3036917636e+02 5.0720152654e-01 
          -3.2966017495e+01 2.8411786588e+02 1.1563184137e-01 
          3.0125966896e+02 2.9248193641e+02 -6.3644711709e-01 
          -5.5973039728e+02 9.4677357123e+02 4.2813125884e+02 
          -5.6851159361e+01 -1.2148349509e+03 4.2703973832e+02 
          1.2439781636e+02 3.9190453847e+02 -1.7431818912e+00 
          5.6915869706e+02 -6.0148320021e+02 5.3017730453e+00 
          2.8385672078e+01 -3.2915889949e+02 3.1968750786e+00 
          -4.0867242537e+02 3.2844661569e+02 -1.4772424197e-01 
          4.6316945376e+02 -3.3039593713e+01 -3.7636909533e+00 
          -4.8566424361e+02 -1.4241219243e+02 2.9961055950e+00 
          2.4674617081e+02 -1.3041842396e+02 5.9986313217e-01 
          2.6028103339e+01 -1.5830160561e+02 -7.2720341323e-01 
          5.2502163099e+01 -2.4923115724e+02 3.1859681029e+00 
          -6.5117816342e+01 2.5440959445e+01 3.3010297479e-01 
          1.7592086474e+02 -1.6169850009e+02 2.3003088539e+00 
          -2.9119601564e+01 1.8507566298e+02 -2.0000844814e+00 
          -1.6727196687e+02 1.4716279255e+02 -1.7837951331e+00 
          -6.5910780756e+01 -1.2909782714e+01 1.3066881432e+00 
          -3.5612904022e+01 1.8233644648e+02 3.8455156145e-01 
          -7.5530633068e+01 1.7762848183e+02 -5.1947702669e-01 
          -2.2440957146e+02 8.0482532548e+01 -7.7771748837e-02 
          4.5227215017e+01 1.3885645407e+02 -4.0234033981e-01 
          -6.9870822946e+01 1.7083332425e+02 -8.8446404686e-03 
          3.5874917831e+01 9.8274405349e+01 -2.7612111576e-01 
          -1.0401182857e+02 1.3827126657e+02 -3.4155253069e-01 
          -9.2898294921e+01 1.7821257982e+02 -1.3021344642e-01 
          -3.5365811943e+01 3.8264905019e+01 -4.8995703787e-01 
          3.3942593623e+00 3.6269512038e+01 -4.9328947903e-01 
          -1.0988272499e+02 4.7546190099e+01 -1.0175036415e+00 
          -4.3300076841e+01 -1.0151796275e+02 2.1043043243e+00 
          -6.2695061902e+01 1.9697871344e+01 2.4252478786e+00 
          -4.1287182884e+01 -4.8716685307e+01 5.1307250433e-02 
          1.3997766709e+02 -1.1536824280e+02 9.0568879388e-01 
          9.1530641065e+01 -1.4363640948e+02 8.6698352133e-01 
          1.1417284463e+02 -1.1254959725e+02 3.9679262468e-01 
          -4.7205114071e+00 -5.1550045890e+01 2.6752240555e-01 
          -1.9894259713e+00 -1.7745039595e+02 7.7086939760e-01 
          2.3610183196e+01 -1.9860236841e+02 -3.5387015686e+01 
          -3.4771961743e+01 -2.6937801603e+02 -3.2692207090e+01 
          5.7497290392e+01 -2.7206892897e+00 4.2513249828e+01 
          7.0895578979e+01 -1.9921172114e+02 1.9495710266e+01 
          1.4174683765e+01 -5.0431632474e+01 2.2903787228e-01 
          -2.5303525582e+01 1.1158375289e+02 1.1685071563e-01 
          6.6321840675e+01 9.7918852399e+01 1.3475951914e-01 
          -2.3692315899e+00 5.2180661936e+01 -4.8680542837e-01 
          -1.4428341798e+01 -2.8557144392e+02 -3.5685372870e+01 
          3.4659416176e-01 3.4526389649e+02 -4.0183543523e+00 
          -8.0013609010e+01 -1.6098988615e+02 9.1193408812e-01 
          2.2611675359e+01 -9.5739371692e+01 3.5222706495e-01 
          3.1911693115e+01 -9.8694018220e+01 2.6736906746e+00 
          -6.7964266475e-01 -4.2260488797e+01 7.8591852785e-01 
          2.7181166317e+01 -1.8356187136e+03 3.0139606552e+01 
          -3.6475631733e+01 -1.4845726199e+02 1.9830628747e+01 
          1.0392374426e+01 -1.5562844106e+02 1.2287564009e+00 
          -3.9742250962e+01 8.8791473426e+01 1.4251870961e-01 
          -1.7985431499e+01 1.1021549114e+02 -1.0495857635e+00 
          -1.6563514044e+01 1.1580895312e+02 9.0607400739e-01 
          -3.2214528631e+01 1.2996631890e+02 4.7366118566e-01 
          -4.1838684483e+01 6.0075116319e+01 -3.0012154781e-01 
          -2.2434918140e+01 -2.4805646487e+02 -3.2501048940e+01 
          -1.2071807722e+02 6.3513314809e+01 -9.6380771844e-01 
          -1.1262768458e+02 -1.4165006553e+02 8.0326822346e-01 
          1.1459647355e+02 -1.1882960254e+02 2.8308670041e-01 
          -1.6648504887e+01 -4.6717652816e+01 2.0787929943e+00 
          -3.4012207050e+01 -6.6724994770e+01 6.2136325123e-02 
          -7.2774126281e+00 -1.9642628724e+02 6.6832234055e-01 
          5.5767100814e+01 -1.3915482928e+02 4.2299593361e+01 
          1.5269762409e+01 -5.6497354144e+01 2.6480004121e-01 
          9.1300585415e+01 1.2371147644e+02 1.4022173703e-01 
          -5.0141931910e+01 3.4764701844e+02 -3.9704738939e+00 
          -1.6108236038e+01 -4.6121455285e+01 8.7907560118e-01 
          4.8919146984e+01 1.4716949473e+03 -2.0971846684e+01 
          3.8075271235e+01 -1.4225584406e+02 1.3900127525e+00 
          1.9265779931e+01 1.1053026376e+02 -1.1149125887e+00 
          1.9078754785e+01 1.1682870038e+02 9.7093943545e-01 
          1.6292448374e+01 1.2788573718e+02 6.8657842345e-01 
          7.8855291825e+01 -3.9526738379e+01 -1.1320526450e-01 
          1.6660970433e+01 -1.4131648273e+01 1.6056464091e-01 
          9.6236309249e+00 -3.8712860171e+01 -9.2953840453e-02 
          1.1107476583e+01 -3.3227258244e+01 -7.3072908649e-02 
          -2.9893015320e+00 7.9824897016e+00 1.3866418338e-01 
          -4.7892080696e+00 -2.1991411668e+01 -1.1233923442e-01 
          8.2418847951e-01 2.2310760867e+01 1.2005755311e-01 
          -4.5691552540e+00 -2.5902697870e+01 -1.0077051584e-01 
          2.0431560100e+01 9.3228835674e-01 1.1070739137e-01 
          8.1711089737e+00 -2.0644617132e+01 -9.5014451203e-02 
          7.8207053777e-01 -1.3456569756e+02 -4.6054651833e-01 
          4.8253376367e+00 -1.4516020207e+02 9.2412940839e-01 
          6.9759102728e-01 -8.5243759124e+01 -7.7453534827e-01 
          3.4336718578e+01 -1.0164754994e+02 -6.1952147661e-01 
          -1.9066769367e+01 -1.1823916921e+02 1.1366806777e+00 
          -1.4675201105e+01 -7.6636895162e+01 -9.4704999537e-01 
          -1.4613949847e+01 -1.6715061464e+02 1.2164720050e+00 
          -1.6242757900e+01 -7.7049816374e+01 -9.8964218583e-01 
          5.1525449033e+00 -1.0043893979e+02 8.2341879327e-01 
          -2.4744673654e-01 -9.5811642924e+01 -7.0758301317e-01 
          -7.4176514292e+01 6.4494434438e+01 -6.6979518664e-01 
          -2.0526266493e+00 7.1397441525e+01 1.2125911272e+00 
          -6.6255302349e+00 5.8762117083e+01 -8.9600974314e-01 
          -7.7047872011e+00 8.3489280577e+01 -6.0094779771e-01 
          -4.7186119682e+01 6.1347617177e+01 1.2154258086e+00 
          -3.7618354977e+01 6.0114188818e+01 -8.9998242773e-01 
          -4.9809101219e+01 3.8445646268e+01 1.3083143804e+00 
          -3.7642890521e+01 4.7653735388e+01 -8.8629935562e-01 
          -5.0868747803e+00 4.3529051845e+01 1.4006349496e+00 
          -6.3069082241e+00 4.0995559529e+01 -9.2209977742e-01 
          -2.4798073507e+01 7.7735873903e+01 -1.0169517570e-01 
          -1.7571438427e+01 6.9980143191e+01 6.0706608213e-02 
          1.2690929793e+01 6.4107436997e+01 4.0185768576e-03 
          1.1977205280e+01 5.8968860312e+01 3.1565882447e-02 
          1.2104327887e+01 6.1390200834e+01 9.3141551681e-04 
          1.1356176032e+01 5.6281802076e+01 -4.7403584232e-03 
          6.7660635494e+02 -4.7211986792e+01 -1.6133909052e+02 
          -2.7228716620e+01 -2.6925483854e+01 -8.7208100274e-01 
          -1.1286109420e+01 -9.6051215620e+00 5.3151515300e-02 
          -3.1424863184e+01 9.2957801005e+02 -2.4223609216e-02 
          8.2021703423e+00 4.7716570409e+01 -2.6210161593e+00 
          -1.0318602710e+01 -3.2728629345e+01 -5.5109657286e-01 
          -1.3016896045e+02 -2.7244314794e+01 -9.5699709137e-02 
          -2.4597419448e+01 -2.9900293350e+01 -2.1802531212e-01 
          -1.3023385981e+01 -3.0114522256e+01 -8.4005154554e-02 
          2.0220875003e+01 -9.8288608385e+01 -1.7893579885e+00 
          1.0344318195e+01 4.0222966926e+01 -5.6338860905e-01 
          2.3235067687e+00 -4.4931325221e+01 1.3041579433e+00 
          -2.8521948850e+01 7.1536512593e-01 -1.6027839274e-01 
          1.0168912692e+01 1.1889018989e+01 -1.4725911831e-01 
          1.7769034854e+01 2.9724179627e+01 -1.6653154549e-01 
          -1.1219678525e+01 -6.6032131538e+01 4.1309730892e-01 
          -1.0392695873e+01 2.4867721222e+01 -5.6680164378e-01 
          -1.4283493306e+01 -2.9418547570e+01 5.5830015004e-01 
          -2.7429842598e+01 8.4736772797e+00 3.9305775084e-02 
          1.5535180794e+01 3.4313654770e+01 -1.3747247922e-01 
          5.1546612486e+00 3.7797427712e+01 -1.6253822951e-01 
          7.1576391850e-01 -6.8801853922e+01 6.2456663581e-02 
          -1.1033093634e+01 1.6008492831e+01 -6.9321863593e-01 
          -2.0406149383e+01 -2.2243940967e+01 3.7972543043e-01 
        </DataArray>
        <DataArray type="Float64" Name="UnbalancedLoad" NumberOfComponents="3" format="ascii">
          0.0000000000e+00 0.0000000000e+00 -1.3360749713e+03 
          0.0000000000e+00 0.0000000000e+00 -1.3690768732e+03 
          0.0000000000e+00 0.0000000000e+00 -1.3360229418e+03 
          0.0000000000e+00 0.0000000000e+00 -2.1572356635e+03 
          0.0000000000e+00 0.0000000000e+00 -2.1572027978e+03 
          0.0000000000e+00 0.0000000000e+00 -1.4596656622e+03 
          0.0000000000e+00 0.0000000000e+00 -1.4598623886e+03 
          0.0000000000e+00 0.0000000000e+00 -1.0921692497e+03 
          0.0000000000e+00 0.0000000000e+00 -1.0923331115e+03 
          0.0000000000e+00 0.0000000000e+00 -1.3690248425e+03 
          0.0000000000e+00 0.0000000000e+00 -1.3360749713e+03 
          0.0000000000e+00 0.0000000000e+00 -2.1572356635e+03 
          0.0000000000e+00 0.0000000000e+00 -1.4598623886e+03 
          0.0000000000e+00 0.0000000000e+00 -1.4598623886e+03 
          0.0000000000e+00 0.0000000000e+00 -1.0923331115e+03 
          0.0000000000e+00 0.0000000000e+00 -1.3690248425e+03 
          0.0000000000e+00 0.0000000000e+00 -1.3360749713e+03 
          0.0000000000e+00 0.0000000000e+00 -2.1572356635e+03 
          0.0000000000e+00 0.0000000000e+00 -1.4598623886e+03 
          0.0000000000e+00 0.0000000000e+00 -1.4598623886e+03 
          0.0000000000e+00 0.0000000000e+00 -1.0923331115e+03 
          0.0000000000e+00 0.0000000000e+00 -1.3690248425e+03 
          0.0000000000e+00 0.0000000000e+00 -1.4598623886e+03 
          0.0000000000e+00 0.0000000000e+00 -1.4598623886e+03 
          0.0000000000e+00 0.0000000000e+00 -7.2773616789e+02 
          0.0000000000e+00 0.0000000000e+00 -7.2773616789e+02 
          0.0000000000e+00 0.0000000000e+00 -6.5730160531e+02 
          0.0000000000e+00 0.0000000000e+00 -6.5730160531e+02 
          0.0000000000e+00 0.0000000000e+00 -5.4108660867e+02 
          0.0000000000e+00 0.0000000000e+00 -5.4108660867e+02 
          0.0000000000e+00 0.0000000000e+00 -7.2773616789e+02 
          0.0000000000e+00 0.0000000000e+00 -6.5730160531e+02 
          0.0000000000e+00 0.0000000000e+00 -5.4108660867e+02 
          0.0000000000e+00 0.0000000000e+00 -7.2773616789e+02 
          0.0000000000e+00 0.0000000000e+00 -6.5730160531e+02 
          0.0000000000e+00 0.0000000000e+00 -5.4108660867e+02 
          0.0000000000e+00 0.0000000000e+00 -4.3570683787e+02 
          0.0000000000e+00 0.0000000000e+00 -4.3570683787e+02 
          0.0000000000e+00 0.0000000000e+00 -3.9421203056e+02 
          0.0000000000e+00 0.0000000000e+00 -3.9421203056e+02 
          0.0000000000e+00 0.0000000000e+00 -5.3718563166e+02 
          0.0000000000e+00 0.0000000000e+00 -5.3718563166e+02 
          0.0000000000e+00 0.0000000000e+00 -4.3570683787e+02 
          0.0000000000e+00 0.0000000000e+00 -3.9421203056e+02 
          0.0000000000e+00 0.0000000000e+00 -5.3718563166e+02 
          0.0000000000e+00 0.0000000000e+00 -4.3570683787e+02 
          0.0000000000e+00 0.0000000000e+00 -3.9421203056e+02 
          0.0000000000e+00 0.0000000000e+00 -5.3718563166e+02 
          0.0000000000e+00 0.0000000000e+00 -2.4778604278e+02 
          0.0000000000e+00 0.0000000000e+00 -2.4778604278e+02 
          0.0000000000e+00 0.0000000000e+00 -3.0980856997e+02 
          0.0000000000e+00 0.0000000000e+00 -2.5422814600e+02 
          0.0000000000e+00 0.0000000000e+00 -2.5422814600e+02 
          0.0000000000e+00 0.0000000000e+00 -1.4132754323e+02 
          0.0000000000e+00 0.0000000000e+00 -1.9054014172e+02 
          0.0000000000e+00 0.0000000000e+00 -1.9054014172e+02 
          0.0000000000e+00 0.0000000000e+00 -5.0632569168e+02 
          0.0000000000e+00 0.0000000000e+00 -5.0632569168e+02 
          0.0000000000e+00 0.0000000000e+00 -2.5256266891e+02 
          0.0000000000e+00 0.0000000000e+00 -4.6388651908e+02 
          0.0000000000e+00 0.0000000000e+00 -4.6388651908e+02 
          0.0000000000e+00 0.0000000000e+00 -2.5422814600e+02 
          0.0000000000e+00 0.0000000000e+00 -2.5422814600e+02 
          0.0000000000e+00 0.0000000000e+00 -1.4132754323e+02 
          0.0000000000e+00 0.0000000000e+00 -4.8441261303e+02 
          0.0000000000e+00 0.0000000000e+00 -4.8441261303e+02 
          0.0000000000e+00 0.0000000000e+00 -2.4778604278e+02 
          0.0000000000e+00 0.0000000000e+00 -4.6388651908e+02 
          0.0000000000e+00 0.0000000000e+00 -3.0980856997e+02 
          0.0000000000e+00 0.0000000000e+00 -1.9054014172e+02 
          0.0000000000e+00 0.0000000000e+00 -5.0632569168e+02 
          0.0000000000e+00 0.0000000000e+00 -2.5422814600e+02 
          0.0000000000e+00 0.0000000000e+00 -1.4132754323e+02 
          0.0000000000e+00 0.0000000000e+00 -2.5256266891e+02 
          0.0000000000e+00 0.0000000000e+00 -2.5422814600e+02 
          0.0000000000e+00 0.0000000000e+00 -1.4132754323e+02 
          0.0000000000e+00 0.0000000000e+00 -4.8441261303e+02 
          0.0000000000e+00 0.0000000000e+00 -1.3445029336e+02 
          0.0000000000e+00 0.0000000000e+00 -1.6246944528e+02 
          0.0000000000e+00 0.0000000000e+00 -1.6246944528e+02 
          0.0000000000e+00 0.0000000000e+00 -2.4778604278e+02 
          0.0000000000e+00 0.0000000000e+00 -4.6388651908e+02 
          0.0000000000e+00 0.0000000000e+00 -3.0980856997e+02 
          0.0000000000e+00 0.0000000000e+00 -1.9054014172e+02 
          0.0000000000e+00 0.0000000000e+00 -5.0632569168e+02 
          0.0000000000e+00 0.0000000000e+00 -2.5422814600e+02 
          0.0000000000e+00 0.0000000000e+00 -1.4132754323e+02 
          0.0000000000e+00 0.0000000000e+00 -2.5256266891e+02 
          0.0000000000e+00 0.0000000000e+00 -2.5422814600e+02 
          0.0000000000e+00 0.0000000000e+00 -1.4132754323e+02 
          0.0000000000e+00 0.0000000000e+00 -4.8441261303e+02 
          0.0000000000e+00 0.0000000000e+00 -3.0980856997e+02 
          0.0000000000e+00 0.0000000000e+00 -1.4132754323e+02 
          0.0000000000e+00 0.0000000000e+00 -2.5256266891e+02 
          0.0000000000e+00 0.0000000000e+00 -1.4132754323e+02 
          0.0000000000e+00 0.0000000000e+00 -1.3445029336e+02 
          0.0000000000e+00 0.0000000000e+00 -1.6246944528e+02 
          0.0000000000e+00 0.0000000000e+00 -1.6246944528e+02 
          0.0000000000e+00 0.0000000000e+00 -2.1006582146e+02 
          0.0000000000e+00 0.0000000000e+00 -2.1006736587e+02 
          0.0000000000e+00 0.0000000000e+00 -1.4911064260e+02 
          0.0000000000e+00 0.0000000000e+00 -2.1006582146e+02 
          0.0000000000e+00 0.0000000000e+00 -2.1006736587e+02 
          0.0000000000e+00 0.0000000000e+00 -1.4911064260e+02 
          0.0000000000e+00 0.0000000000e+00 -2.1006736587e+02 
          0.0000000000e+00 0.0000000000e+00 -1.4911064260e+02 
          0.0000000000e+00 0.0000000000e+00 -2.1006736587e+02 
          0.0000000000e+00 0.0000000000e+00 -1.4911064260e+02 
          0.0000000000e+00 0.0000000000e+00 -2.1006582146e+02 
          0.0000000000e+00 0.0000000000e+00 -2.1006736587e+02 
          0.0000000000e+00 0.0000000000e+00 -1.4911064260e+02 
          0.0000000000e+00 0.0000000000e+00 -2.1006582146e+02 
          0.0000000000e+00 0.0000000000e+00 -2.1006736587e+02 
          0.0000000000e+00 0.0000000000e+00 -1.4911064260e+02 
          0.0000000000e+00 0.0000000000e+00 -2.1006736587e+02 
          0.0000000000e+00 0.0000000000e+00 -1.4911064260e+02 
          0.0000000000e+00 0.0000000000e+00 -2.1006736587e+02 
          0.0000000000e+00 0.0000000000e+00 -1.4911064260e+02 
          0.0000000000e+00 0.0000000000e+00 -2.1006582146e+02 
          0.0000000000e+00 0.0000000000e+00 -2.1006736587e+02 
          0.0000000000e+00 0.0000000000e+00 -1.4911064260e+02 
          0.0000000000e+00 0.0000000000e+00 -2.1006582146e+02 
          0.0000000000e+00 0.0000000000e+00 -2.1006736587e+02 
          0.0000000000e+00 0.0000000000e+00 -1.4911064260e+02 
          0.0000000000e+00 0.0000000000e+00 -2.1006736587e+02 
          0.0000000000e+00 0.0000000000e+00 -1.4911064260e+02 
          0.0000000000e+00 0.0000000000e+00 -2.1006736587e+02 
          0.0000000000e+00 0.0000000000e+00 -1.4911064260e+02 
          0.0000000000e+00 0.0000000000e+00 -1.3477061626e+02 
          0.0000000000e+00 0.0000000000e+00 -1.3477061626e+02 
          0.0000000000e+00 0.0000000000e+00 -3.6841172909e+01 
          0.0000000000e+00 0.0000000000e+00 -3.6841172909e+01 
          0.0000000000e+00 0.0000000000e+00 -3.6841172909e+01 
          0.0000000000e+00 0.0000000000e+00 -3.6841172909e+01 
          0.0000000000e+00 0.0000000000e+00 -1.7926046045e+02 
          0.0000000000e+00 0.0000000000e+00 -1.6192397087e+02 
          0.0000000000e+00 0.0000000000e+00 -1.4598193432e+02 
          0.0000000000e+00 0.0000000000e+00 -1.7926046045e+02 
          0.0000000000e+00 0.0000000000e+00 -1.6192397087e+02 
          0.0000000000e+00 0.0000000000e+00 -1.4598193432e+02 
          0.0000000000e+00 0.0000000000e+00 -1.7926046045e+02 
          0.0000000000e+00 0.0000000000e+00 -1.6192397087e+02 
          0.0000000000e+00 0.0000000000e+00 -1.4598193432e+02 
          0.0000000000e+00 0.0000000000e+00 -1.7926046045e+02 
          0.0000000000e+00 0.0000000000e+00 -1.6192397087e+02 
          0.0000000000e+00 0.0000000000e+00 -1.4598193432e+02 
          0.0000000000e+00 0.0000000000e+00 -1.3163331391e+02 
          0.0000000000e+00 0.0000000000e+00 -1.1847217333e+02 
          0.0000000000e+00 0.0000000000e+00 -1.0738952814e+02 
          0.0000000000e+00 0.0000000000e+00 -1.3163331391e+02 
          0.0000000000e+00 0.0000000000e+00 -1.1847217333e+02 
          0.0000000000e+00 0.0000000000e+00 -1.0738952814e+02 
          0.0000000000e+00 0.0000000000e+00 -1.3163331391e+02 
          0.0000000000e+00 0.0000000000e+00 -1.1847217333e+02 
          0.0000000000e+00 0.0000000000e+00 -1.0738952814e+02 
          0.0000000000e+00 0.0000000000e+00 -1.3163331391e+02 
          0.0000000000e+00 0.0000000000e+00 -1.1847217333e+02 
          0.0000000000e+00 0.0000000000e+00 -1.0738952814e+02 
        </DataArray>
      </PointData>
      <CellData>
        <DataArray type="Int64" Name="ElementTag" format="ascii">
          0
        </DataArray>
      </CellData>
    </Piece>
  </UnstructuredGrid>
</VTKFile>
