<?xml version="1.0"?>
<VTKFile type="UnstructuredGrid" version="1.0" byte_order="LittleEndian" compressor="vtkZLibDataCompressor">
  <UnstructuredGrid>
    <Piece NumberOfPoints="158" NumberOfCells="1">
      <Points>
        <DataArray type="Float64" Name="Points" NumberOfComponents="3" format="ascii">
          1.7550000000e+00 -1.7550000000e+00 0.0000000000e+00 
          1.4140000000e+00 0.0000000000e+00 5.2300000000e+00 
          1.7550000000e+00 1.7550000000e+00 -0.0000000000e+00 
          1.4140000000e+00 -1.4140000000e+00 5.2300000000e+00 
          1.4140000000e+00 1.4140000000e+00 5.2300000000e+00 
          1.5840000000e+00 8.7800000000e-01 2.6150000000e+00 
          1.5840000000e+00 -8.7700000000e-01 2.6150000000e+00 
          1.5840000000e+00 1.5840000000e+00 2.6150000000e+00 
          1.5840000000e+00 -1.5840000000e+00 2.6150000000e+00 
          -0.0000000000e+00 1.4140000000e+00 5.2300000000e+00 
          -1.7550000000e+00 1.7550000000e+00 -0.0000000000e+00 
          -1.4140000000e+00 1.4140000000e+00 5.2300000000e+00 
          -8.7700000000e-01 1.5840000000e+00 2.6150000000e+00 
          8.7700000000e-01 1.5840000000e+00 2.6150000000e+00 
          -1.5840000000e+00 1.5840000000e+00 2.6150000000e+00 
          -1.4140000000e+00 -0.0000000000e+00 5.2300000000e+00 
          -1.7550000000e+00 -1.7550000000e+00 -0.0000000000e+00 
          -1.4140000000e+00 -1.4140000000e+00 5.2300000000e+00 
          -1.5840000000e+00 -8.7700000000e-01 2.6150000000e+00 
          -1.5840000000e+00 8.7700000000e-01 2.6150000000e+00 
          -1.5840000000e+00 -1.5840000000e+00 2.6150000000e+00 
          0.0000000000e+00 -1.4140000000e+00 5.2300000000e+00 
          8.7700000000e-01 -1.5840000000e+00 2.6150000000e+00 
          -8.7700000000e-01 -1.5840000000e+00 2.6150000000e+00 
          1.2750000000e+00 1.2750000000e+00 7.3500000000e+00 
          1.2750000000e+00 -1.2750000000e+00 7.3500000000e+00 
          1.1500000000e+00 -1.1500000000e+00 9.2700000000e+00 
          1.1500000000e+00 1.1500000000e+00 9.2700000000e+00 
          1.0370000000e+00 -1.0370000000e+00 1.1000000000e+01 
          1.0370000000e+00 1.0370000000e+00 1.1000000000e+01 
          -1.2750000000e+00 1.2750000000e+00 7.3500000000e+00 
          -1.1500000000e+00 1.1500000000e+00 9.2700000000e+00 
          -1.0370000000e+00 1.0370000000e+00 1.1000000000e+01 
          -1.2750000000e+00 -1.2750000000e+00 7.3500000000e+00 
          -1.1500000000e+00 -1.1500000000e+00 9.2700000000e+00 
          -1.0370000000e+00 -1.0370000000e+00 1.1000000000e+01 
          9.3500000000e-01 9.3500000000e-01 1.2560000000e+01 
          9.3500000000e-01 -9.3500000000e-01 1.2560000000e+01 
          8.4300000000e-01 8.4300000000e-01 1.3960000000e+01 
          8.4300000000e-01 -8.4300000000e-01 1.3960000000e+01 
          7.6000000000e-01 7.6000000000e-01 1.5240000000e+01 
          7.6000000000e-01 -7.6000000000e-01 1.5240000000e+01 
          -9.3500000000e-01 9.3500000000e-01 1.2560000000e+01 
          -8.4300000000e-01 8.4300000000e-01 1.3960000000e+01 
          -7.6000000000e-01 7.6000000000e-01 1.5240000000e+01 
          -9.3500000000e-01 -9.3500000000e-01 1.2560000000e+01 
          -8.4300000000e-01 -8.4300000000e-01 1.3960000000e+01 
          -7.6000000000e-01 -7.6000000000e-01 1.5240000000e+01 
          7.6000000000e-01 -7.6000000000e-01 1.6240000000e+01 
          7.6000000000e-01 7.6000000000e-01 1.6240000000e+01 
          7.6000000000e-01 0.0000000000e+00 1.6240000000e+01 
          7.6000000000e-01 7.6000000000e-01 1.7340000000e+01 
          7.6000000000e-01 -7.6000000000e-01 1.7340000000e+01 
          7.6000000000e-01 0.0000000000e+00 1.7890000000e+01 
          7.6000000000e-01 -7.6000000000e-01 1.9440000000e+01 
          7.6000000000e-01 7.6000000000e-01 1.9440000000e+01 
          7.6000000000e-01 -7.6000000000e-01 2.1640000000e+01 
          7.6000000000e-01 7.6000000000e-01 2.1640000000e+01 
          7.6000000000e-01 0.0000000000e+00 1.9440000000e+01 
          7.6000000000e-01 7.6000000000e-01 1.8440000000e+01 
          7.6000000000e-01 -7.6000000000e-01 1.8440000000e+01 
          7.6000000000e-01 -7.6000000000e-01 2.0540000000e+01 
          7.6000000000e-01 7.6000000000e-01 2.0540000000e+01 
          7.6000000000e-01 0.0000000000e+00 2.1090000000e+01 
          7.6000000000e-01 7.6000000000e-01 2.2640000000e+01 
          7.6000000000e-01 -7.6000000000e-01 2.2640000000e+01 
          -7.6000000000e-01 7.6000000000e-01 1.6240000000e+01 
          -7.6000000000e-01 7.6000000000e-01 1.8440000000e+01 
          -0.0000000000e+00 7.6000000000e-01 1.6240000000e+01 
          -7.6000000000e-01 7.6000000000e-01 1.9440000000e+01 
          -7.6000000000e-01 7.6000000000e-01 2.1640000000e+01 
          -7.6000000000e-01 7.6000000000e-01 1.7340000000e+01 
          -0.0000000000e+00 7.6000000000e-01 1.7890000000e+01 
          -0.0000000000e+00 7.6000000000e-01 1.9440000000e+01 
          -7.6000000000e-01 7.6000000000e-01 2.0540000000e+01 
          0.0000000000e+00 7.6000000000e-01 2.1090000000e+01 
          -7.6000000000e-01 7.6000000000e-01 2.2640000000e+01 
          -0.0000000000e+00 5.2600000000e-01 2.3499000000e+01 
          3.9900000000e-01 4.0400000000e-01 2.3950000000e+01 
          -3.9900000000e-01 4.0400000000e-01 2.3950000000e+01 
          -7.6000000000e-01 -7.6000000000e-01 1.6240000000e+01 
          -7.6000000000e-01 -7.6000000000e-01 1.8440000000e+01 
          -7.6000000000e-01 -0.0000000000e+00 1.6240000000e+01 
          -7.6000000000e-01 -7.6000000000e-01 1.9440000000e+01 
          -7.6000000000e-01 -7.6000000000e-01 2.1640000000e+01 
          -7.6000000000e-01 -7.6000000000e-01 1.7340000000e+01 
          -7.6000000000e-01 0.0000000000e+00 1.7890000000e+01 
          -7.6000000000e-01 -0.0000000000e+00 1.9440000000e+01 
          -7.6000000000e-01 -7.6000000000e-01 2.0540000000e+01 
          -7.6000000000e-01 -0.0000000000e+00 2.1090000000e+01 
          -7.6000000000e-01 -7.6000000000e-01 2.2640000000e+01 
          0.0000000000e+00 -7.6000000000e-01 1.6240000000e+01 
          0.0000000000e+00 -7.6000000000e-01 1.7890000000e+01 
          0.0000000000e+00 -7.6000000000e-01 1.9440000000e+01 
          0.0000000000e+00 -7.6000000000e-01 2.1090000000e+01 
          0.0000000000e+00 -5.2600000000e-01 2.3499000000e+01 
          3.9900000000e-01 -4.0400000000e-01 2.3950000000e+01 
          -3.9900000000e-01 -4.0400000000e-01 2.3950000000e+01 
          -0.0000000000e+00 -3.3500000000e+00 2.1640000000e+01 
          -3.8000000000e-01 -2.0550000000e+00 2.2140000000e+01 
          -3.8000000000e-01 -2.0550000000e+00 2.1640000000e+01 
          0.0000000000e+00 3.3500000000e+00 2.1640000000e+01 
          -3.8000000000e-01 2.0550000000e+00 2.2140000000e+01 
          -3.8000000000e-01 2.0550000000e+00 2.1640000000e+01 
          3.8000000000e-01 2.0550000000e+00 2.2140000000e+01 
          3.8000000000e-01 2.0550000000e+00 2.1640000000e+01 
          3.8000000000e-01 -2.0550000000e+00 2.2140000000e+01 
          3.8000000000e-01 -2.0550000000e+00 2.1640000000e+01 
          -0.0000000000e+00 -3.3500000000e+00 1.8440000000e+01 
          -3.8000000000e-01 -2.0550000000e+00 1.8940000000e+01 
          -3.8000000000e-01 -2.0550000000e+00 1.8440000000e+01 
          -0.0000000000e+00 3.3500000000e+00 1.8440000000e+01 
          -3.8000000000e-01 2.0550000000e+00 1.8940000000e+01 
          -3.8000000000e-01 2.0550000000e+00 1.8440000000e+01 
          3.8000000000e-01 2.0550000000e+00 1.8940000000e+01 
          3.8000000000e-01 2.0550000000e+00 1.8440000000e+01 
          3.8000000000e-01 -2.0550000000e+00 1.8940000000e+01 
          3.8000000000e-01 -2.0550000000e+00 1.8440000000e+01 
          -0.0000000000e+00 -3.3500000000e+00 1.5240000000e+01 
          -3.8000000000e-01 -2.0550000000e+00 1.5740000000e+01 
          -3.8000000000e-01 -2.0550000000e+00 1.5240000000e+01 
          -0.0000000000e+00 3.3500000000e+00 1.5240000000e+01 
          -3.8000000000e-01 2.0550000000e+00 1.5740000000e+01 
          -3.8000000000e-01 2.0550000000e+00 1.5240000000e+01 
          3.8000000000e-01 2.0550000000e+00 1.5740000000e+01 
          3.8000000000e-01 2.0550000000e+00 1.5240000000e+01 
          3.8000000000e-01 -2.0550000000e+00 1.5740000000e+01 
          3.8000000000e-01 -2.0550000000e+00 1.5240000000e+01 
          -5.2400000000e-01 0.0000000000e+00 2.3496000000e+01 
          5.2400000000e-01 0.0000000000e+00 2.3496000000e+01 
          4.0000000000e-02 5.0000000000e-02 2.5250000000e+01 
          -4.0000000000e-02 5.0000000000e-02 2.5250000000e+01 
          -4.0000000000e-02 -5.0000000000e-02 2.5250000000e+01 
          4.0000000000e-02 -5.0000000000e-02 2.5250000000e+01 
          1.3410000000e+00 0.0000000000e+00 6.3450000000e+00 
          1.2090000000e+00 0.0000000000e+00 8.3600000000e+00 
          1.0900000000e+00 -0.0000000000e+00 1.0180000000e+01 
          -0.0000000000e+00 1.3410000000e+00 6.3450000000e+00 
          0.0000000000e+00 1.2090000000e+00 8.3600000000e+00 
          -0.0000000000e+00 1.0900000000e+00 1.0180000000e+01 
          -1.3410000000e+00 0.0000000000e+00 6.3450000000e+00 
          -1.2090000000e+00 0.0000000000e+00 8.3600000000e+00 
          -1.0900000000e+00 -0.0000000000e+00 1.0180000000e+01 
          -0.0000000000e+00 -1.3410000000e+00 6.3450000000e+00 
          0.0000000000e+00 -1.2090000000e+00 8.3600000000e+00 
          0.0000000000e+00 -1.0900000000e+00 1.0180000000e+01 
          9.8300000000e-01 0.0000000000e+00 1.1820000000e+01 
          8.8700000000e-01 0.0000000000e+00 1.3296000000e+01 
          8.0000000000e-01 -0.0000000000e+00 1.4633000000e+01 
          0.0000000000e+00 9.8300000000e-01 1.1820000000e+01 
          -0.0000000000e+00 8.8700000000e-01 1.3296000000e+01 
          0.0000000000e+00 8.0000000000e-01 1.4633000000e+01 
          -9.8300000000e-01 0.0000000000e+00 1.1820000000e+01 
          -8.8700000000e-01 0.0000000000e+00 1.3296000000e+01 
          -8.0000000000e-01 0.0000000000e+00 1.4633000000e+01 
          0.0000000000e+00 -9.8300000000e-01 1.1820000000e+01 
          0.0000000000e+00 -8.8700000000e-01 1.3296000000e+01 
          0.0000000000e+00 -8.0000000000e-01 1.4633000000e+01 
        </DataArray>
      </Points>
      <Cells>
        <DataArray type="Int64" Name="connectivity" format="ascii">
          0
          1
          2
          3
          4
          5
          6
          7
          8
          9
          10
          11
          12
          13
          14
          15
          16
          17
          18
          19
          20
          21
          22
          23
          24
          25
          26
          27
          28
          29
          30
          31
          32
          33
          34
          35
          36
          37
          38
          39
          40
          41
          42
          43
          44
          45
          46
          47
          48
          49
          50
          51
          52
          53
          54
          55
          56
          57
          58
          59
          60
          61
          62
          63
          64
          65
          66
          67
          68
          69
          70
          71
          72
          73
          74
          75
          76
          77
          78
          79
          80
          81
          82
          83
          84
          85
          86
          87
          88
          89
          90
          91
          92
          93
          94
          95
          96
          97
          98
          99
          100
          101
          102
          103
          104
          105
          106
          107
          108
          109
          110
          111
          112
          113
          114
          115
          116
          117
          118
          119
          120
          121
          122
          123
          124
          125
          126
          127
          128
          129
          130
          131
          132
          133
          134
          135
          136
          137
          138
          139
          140
          141
          142
          143
          144
          145
          146
          147
          148
          149
          150
          151
          152
          153
          154
          155
          156
          157
        </DataArray>
        <DataArray type="Int64" Name="offsets" format="ascii">
          158
        </DataArray>
        <DataArray type="Int64" Name="types" format="ascii">
          2
        </DataArray>
      </Cells>
      <PointData>
        <DataArray type="Int64" Name="NodeTag" format="ascii">
          1
          2
          3
          4
          5
          6
          7
          8
          9
          10
          11
          12
          13
          14
          15
          16
          17
          18
          19
          20
          21
          22
          23
          24
          25
          26
          27
          28
          29
          30
          31
          32
          33
          34
          35
          36
          37
          38
          39
          40
          41
          42
          43
          44
          45
          46
          47
          48
          49
          50
          51
          52
          53
          54
          55
          56
          57
          58
          59
          60
          61
          62
          63
          64
          65
          66
          67
          68
          69
          70
          71
          72
          73
          74
          75
          76
          77
          78
          79
          80
          81
          82
          83
          84
          85
          86
          87
          88
          89
          90
          91
          92
          93
          94
          95
          96
          97
          98
          99
          100
          101
          102
          103
          104
          105
          106
          107
          108
          109
          110
          111
          112
          113
          114
          115
          116
          117
          118
          119
          120
          121
          122
          123
          124
          125
          126
          127
          128
          129
          130
          131
          132
          133
          134
          135
          136
          137
          138
          139
          140
          141
          142
          143
          144
          145
          146
          147
          148
          149
          150
          151
          152
          153
          154
          155
          156
          157
          158
        </DataArray>
        <DataArray type="Float64" Name="Displacement" NumberOfComponents="3" format="ascii">
          0.0000000000e+00 0.0000000000e+00 0.0000000000e+00 
          -1.7564901499e-04 7.2957172464e-05 -1.1187117269e-04 
          0.0000000000e+00 0.0000000000e+00 0.0000000000e+00 
          -1.2203924224e-05 7.8592463309e-05 -7.9999156637e-04 
          -1.4451384077e-04 7.0876631689e-05 -6.9469374357e-04 
          -1.1585999588e-03 -1.1088241277e-03 -5.2864800696e-04 
          -1.3244527745e-03 1.4077675684e-03 -6.1790968724e-04 
          -1.2517527345e-03 -1.1080740973e-03 -5.1583548036e-04 
          -1.3420605201e-03 1.4068516175e-03 -5.9308736251e-04 
          -1.3835188669e-04 -4.9121643615e-05 -1.0894240372e-04 
          0.0000000000e+00 0.0000000000e+00 0.0000000000e+00 
          -1.3870369318e-04 -2.7348211655e-05 -6.7024610723e-04 
          1.0084968614e-03 -1.2339513571e-03 -5.1673454100e-04 
          -1.2530010643e-03 -1.2462454925e-03 -5.5477757346e-04 
          1.0071902120e-03 -1.1549428314e-03 -4.9710577845e-04 
          -5.1333610630e-06 -1.9892538545e-05 -1.0161104573e-04 
          0.0000000000e+00 0.0000000000e+00 0.0000000000e+00 
          9.1778261899e-06 -1.3071876151e-05 -7.7743661139e-04 
          1.1653861157e-03 1.2983531855e-03 -5.8763309425e-04 
          9.1265025555e-04 -1.1559549137e-03 -5.1492314819e-04 
          1.3247309286e-03 1.2973829246e-03 -5.7682097983e-04 
          -1.4470813799e-06 3.1808655449e-04 -1.2394415435e-04 
          -1.3430013388e-03 1.5480101885e-03 -6.2532474303e-04 
          1.3254263219e-03 1.5489092381e-03 -6.1702999247e-04 
          -3.9383417401e-05 9.7726999220e-05 -9.2640521674e-04 
          3.9086498096e-04 -1.7209398566e-04 -1.0560823962e-03 
          -4.6580952389e-05 -2.3888986453e-04 -1.3167866858e-03 
          6.0753887110e-06 -1.2732760215e-04 -1.1450224094e-03 
          3.5832364742e-04 -4.1977625904e-04 -1.4653996409e-03 
          -1.4885644939e-04 -2.4991290060e-04 -1.3243500778e-03 
          -2.7070020834e-04 9.2400556248e-05 -8.8921827138e-04 
          -2.4522892292e-04 -3.1526195109e-04 -1.1148715912e-03 
          -2.0851359460e-05 -3.6097390829e-04 -1.2871817313e-03 
          -3.1805664674e-04 -3.6850589469e-04 -1.0263277594e-03 
          2.3231918945e-04 -2.8107448689e-04 -1.3009040825e-03 
          -9.6247942138e-05 -6.0305982907e-04 -1.4441464559e-03 
          1.1374755111e-04 -4.1610393923e-04 -1.4952295363e-03 
          1.5221584053e-04 -5.4476897703e-04 -1.6727645766e-03 
          -3.5271938168e-05 -5.4531300949e-04 -1.6648646536e-03 
          2.9415259499e-04 -6.7833221940e-04 -1.8141346317e-03 
          1.1732532043e-07 -7.4756359304e-04 -1.7902244952e-03 
          2.1007269818e-04 -7.2580388606e-04 -1.9477662669e-03 
          -2.3402257608e-04 -6.2396446808e-04 -1.4665441193e-03 
          -4.2490874176e-05 -7.3652980540e-04 -1.6389356099e-03 
          -4.9654654702e-05 -9.9203083361e-04 -1.7749692392e-03 
          1.7999356909e-04 -6.9531449914e-04 -1.6614698042e-03 
          7.9716652292e-05 -9.0758732820e-04 -1.8040029094e-03 
          1.8014398441e-04 -9.6701879342e-04 -1.9414457471e-03 
          1.9978943736e-04 -8.6023779570e-04 -2.1114924180e-03 
          -2.6721825866e-05 -8.3270749093e-04 -1.9434724022e-03 
          1.4359600460e-04 -8.4579417311e-04 -1.9401781149e-03 
          1.8627657053e-04 -7.2418425960e-04 -2.0861129973e-03 
          4.4332014673e-04 -1.2228908951e-03 -2.2634651096e-03 
          2.4476624927e-04 -1.0364120332e-03 -2.4838802416e-03 
          2.4175137457e-04 -1.2491010529e-03 -2.5907777984e-03 
          -4.0621818985e-05 -1.1930464370e-03 -2.4080739056e-03 
          2.6431663028e-04 -1.4394966303e-03 -2.7890054201e-03 
          -3.5095580784e-05 -1.5010468374e-03 -2.6065464530e-03 
          6.0609483473e-05 -1.2202966546e-03 -2.4345725472e-03 
          -2.4457853888e-05 -1.1293823905e-03 -2.3130883467e-03 
          2.3813206869e-04 -1.0740851435e-03 -2.4969605759e-03 
          3.8206537561e-04 -1.4967657426e-03 -2.6680109440e-03 
          8.9840316285e-05 -1.1903976210e-03 -2.4870404111e-03 
          1.5797805318e-04 -1.4065415609e-03 -2.7681094808e-03 
          -3.9825009718e-05 -1.5555714028e-03 -2.6485046114e-03 
          2.6124275117e-04 -1.6282243823e-03 -2.8321417640e-03 
          -2.0769459337e-05 -1.0953012130e-03 -1.9376132669e-03 
          -3.7418667299e-05 -1.4060492434e-03 -2.3109222588e-03 
          -2.3095610825e-05 -1.0720774943e-03 -1.8758693603e-03 
          -2.4800591539e-05 -1.4672073257e-03 -2.4065359885e-03 
          -4.0829638854e-05 -1.7983875658e-03 -2.6089656590e-03 
          -2.4270264929e-04 -1.0011373440e-03 -2.0812916760e-03 
          -2.9079397678e-05 -1.1999992957e-03 -2.3450284261e-03 
          -3.2460934669e-05 -1.3662732011e-03 -2.3654908607e-03 
          -1.5756220613e-04 -1.4713080774e-03 -2.4854922865e-03 
          -3.5091043221e-05 -1.5042734606e-03 -2.6344528968e-03 
          -4.5397219419e-05 -1.8551377905e-03 -2.6529505895e-03 
          4.3812666505e-07 -1.9049547294e-03 -2.7160854155e-03 
          2.8834949953e-05 -1.8232602814e-03 -2.7209441374e-03 
          1.4293829908e-05 -1.9849508717e-03 -2.7256143451e-03 
          2.0689008615e-04 -1.1234186556e-03 -2.1034057658e-03 
          2.2760355371e-04 -1.3517605201e-03 -2.4845042136e-03 
          5.8006746010e-05 -1.1086686553e-03 -1.9302290743e-03 
          2.5732708656e-04 -1.5242234911e-03 -2.5831493662e-03 
          2.5752156449e-04 -1.7354521848e-03 -2.7932881970e-03 
          -7.7768318715e-06 -1.4962132971e-03 -2.2525737371e-03 
          -6.2103674950e-05 -1.3133721600e-03 -2.4747391953e-03 
          7.7085401101e-05 -1.4959558887e-03 -2.4277897486e-03 
          1.3362482133e-04 -1.7915992903e-03 -2.6657964439e-03 
          7.4731800167e-05 -1.6983713063e-03 -2.7740663560e-03 
          2.5295488245e-04 -1.9310703098e-03 -2.8398410108e-03 
          2.0338119930e-04 -1.0563335776e-03 -2.0373857840e-03 
          2.2492928588e-04 -1.3342524498e-03 -2.5298418469e-03 
          2.4928119068e-04 -1.4774552964e-03 -2.5445122299e-03 
          2.6066786139e-04 -1.6499729399e-03 -2.8164487130e-03 
          2.0480392852e-04 -1.7207298457e-03 -2.8675967677e-03 
          1.7650731844e-04 -1.8183684627e-03 -2.8201481837e-03 
          1.7806480787e-04 -1.9805036720e-03 -2.8233142130e-03 
          7.7734512669e-04 -1.5443613867e-03 -3.6728777468e-03 
          5.3149071063e-04 -1.7734074633e-03 -3.2069882892e-03 
          5.7375833706e-04 -1.6229268923e-03 -3.2107696853e-03 
          -5.5222914633e-04 -1.6897948925e-03 -2.8394261060e-03 
          -3.1864043469e-04 -1.7251278588e-03 -2.6921535174e-03 
          -3.2352534553e-04 -1.7363116039e-03 -2.6958167077e-03 
          -3.1866850569e-04 -1.5900031791e-03 -2.6951132669e-03 
          -3.2342892458e-04 -1.6042127717e-03 -2.6987581209e-03 
          5.3142587792e-04 -1.6336284027e-03 -3.1900104517e-03 
          5.7375758007e-04 -1.5066953978e-03 -3.1934901861e-03 
          7.0990376495e-04 -1.1716737237e-03 -3.3807897206e-03 
          5.5883020931e-04 -1.3765915501e-03 -2.9037752093e-03 
          5.3965579285e-04 -1.2408429892e-03 -2.9073465739e-03 
          -4.9603982005e-04 -1.3094327244e-03 -2.5911171239e-03 
          -4.6411484955e-04 -1.2791328979e-03 -2.4260661700e-03 
          -4.1904601083e-04 -1.3135912821e-03 -2.4298993391e-03 
          -4.6417921939e-04 -1.2566714634e-03 -2.4163902722e-03 
          -4.1904105508e-04 -1.2659464657e-03 -2.4198464197e-03 
          5.5886255130e-04 -1.2856441334e-03 -2.9076352189e-03 
          5.3976624862e-04 -1.1418566845e-03 -2.9113045307e-03 
          6.4165382411e-04 -8.0250090192e-04 -2.8321612554e-03 
          5.0484760394e-04 -9.9684478668e-04 -2.3757470019e-03 
          5.7188100695e-04 -8.3756457961e-04 -2.3796428601e-03 
          -4.5675458360e-04 -9.1586105219e-04 -2.0496905217e-03 
          -3.7452024664e-04 -8.9975438350e-04 -1.8765702619e-03 
          -3.8062937764e-04 -9.1685829929e-04 -1.8802441436e-03 
          -3.7471903508e-04 -8.5502974617e-04 -1.8989024520e-03 
          -3.8053308056e-04 -8.7610436755e-04 -1.9024884830e-03 
          5.0484376185e-04 -9.2547350685e-04 -2.3418937838e-03 
          5.7191462415e-04 -8.0656986288e-04 -2.3452904651e-03 
          1.3086171149e-04 -1.9531805229e-03 -2.7888259224e-03 
          -2.2208595574e-05 -1.7421556663e-03 -2.8098735839e-03 
          1.0141926792e-04 -2.0411060138e-03 -2.7652976443e-03 
          1.0148277550e-04 -2.0571016145e-03 -2.7749210727e-03 
          1.2140868661e-04 -2.0569894920e-03 -2.7905021326e-03 
          1.2134500059e-04 -2.0410553215e-03 -2.7794526702e-03 
          -2.9794373813e-03 2.7207310929e-05 -9.9547879737e-04 
          2.3071574439e-04 -1.0857110997e-04 -1.1626369475e-03 
          1.3733353579e-03 -2.5851525624e-04 -1.2172839747e-03 
          -1.5133895988e-04 5.6612352070e-03 -3.6870222727e-04 
          -1.3984352861e-04 8.7704992204e-03 -4.4886746479e-04 
          -1.0252253377e-04 -1.7758775734e-03 -1.4476314457e-03 
          -1.7992192547e-03 -7.1775147101e-05 -5.9796962245e-04 
          5.4745966007e-04 -2.1657534018e-04 -1.2951276986e-03 
          7.0815644792e-04 -3.9027507751e-04 -1.2583339805e-03 
          1.7264500549e-05 2.2294198276e-03 -8.4746460902e-04 
          6.5713128890e-05 -3.1161049643e-04 -1.4978664898e-03 
          1.1309876226e-04 2.0417527238e-03 -1.3200844068e-03 
          1.9306315372e-03 -4.0672201796e-04 -1.3921520817e-03 
          1.1814446598e-03 -5.4779321346e-04 -1.5976690330e-03 
          3.7342379804e-04 -6.7371634406e-04 -1.8424642825e-03 
          -7.2156207989e-05 -2.2190042887e-03 -1.3699931046e-03 
          -4.8943798275e-05 -1.8346848687e-03 -1.7611336280e-03 
          -3.0729163321e-05 -1.1340697840e-03 -1.7358942208e-03 
          -1.3925313656e-03 -5.7131133044e-04 -1.4382013773e-03 
          -5.8203456572e-04 -7.4403322009e-04 -1.5797686350e-03 
          -1.8823974383e-04 -9.0287171392e-04 -1.8421678483e-03 
          1.5083475812e-04 2.8357065569e-04 -1.7746881115e-03 
          1.7861569331e-04 -1.0918139940e-04 -1.7081667474e-03 
          1.9246716849e-04 -5.4836806523e-04 -1.9567991568e-03 
        </DataArray>
        <DataArray type="Float64" Name="Reaction" NumberOfComponents="3" format="ascii">
          -9.2537810839e+03 8.3613355879e+03 1.2771484850e+05 
          1.1092206850e+02 3.0194577316e+02 1.2340866530e-01 
          -7.6881341532e+03 -9.2332027533e+03 1.1645078000e+05 
          -3.6497172619e+02 5.0594619353e+02 -1.4854487486e+02 
          -4.5819067068e+02 5.6960598455e+02 -6.8001791244e+01 
          1.0919327102e+02 -1.5064384449e+02 -2.5572576255e-02 
          -4.1021543486e+02 1.2498666550e+01 -1.2803721925e-01 
          1.8896382053e+02 -8.9205370139e+01 -6.6500547466e-02 
          1.5277625968e+02 -3.3863082122e+01 2.7251635388e-02 
          -3.7896588398e+02 2.1126970655e+02 1.4545686131e+00 
          1.0648021686e+04 -8.8057315251e+03 1.2112646457e+05 
          -7.3784773633e+02 -1.0056780303e+02 -1.3018759688e+02 
          -1.6722552233e+02 2.2880711943e+02 -5.3433298175e-01 
          3.4269584465e+02 -6.7256715958e+01 -8.4392270474e-01 
          -1.8664177730e+02 -1.2270273031e+02 4.6106954091e-01 
          -6.5721795612e+01 -3.9922419679e+01 1.9281694001e-01 
          9.2593395400e+03 9.4291870762e+03 1.2871555249e+05 
          -4.7670091644e+02 8.2395762062e+01 -2.1491076920e+02 
          1.8972711018e+02 -1.3994441228e+02 -3.0792374606e-01 
          -4.7066220552e+02 -9.9578792509e+01 -3.2177649935e-01 
          1.0652808882e+02 -8.3866715653e+01 2.4450013298e-01 
          -1.7300122284e+02 4.5009091726e+02 4.1311635456e+00 
          2.3482633221e+02 4.6194145756e+02 -1.7650036427e+00 
          1.6489743512e+02 3.6007110085e+02 -3.0572300211e+00 
          8.2444106028e+02 -1.2779284945e+03 -1.1617849820e+03 
          2.9528401550e+03 9.4064313760e+02 -5.7307946240e+02 
          -5.6484173167e+02 -7.3497436481e+02 5.1335596407e+02 
          2.2032978790e+03 1.6666099609e+02 1.4532389160e+03 
          1.1147839825e+03 -8.4025012042e+02 3.5498262626e+02 
          -1.8392068861e+03 6.5386315704e+02 -7.3062092932e+00 
          -2.1119492072e+03 1.1454466970e+03 -1.0472455570e+03 
          -2.2328611427e+03 1.7364150739e+02 1.5036409654e+03 
          2.1151306271e+03 3.7171014018e+02 -1.3728976297e+01 
          -3.3938141567e+03 -1.1769870458e+03 -5.7878836722e+02 
          1.0074069181e+03 -6.6023796073e+01 5.9311536099e+02 
          -1.3602258674e+03 -6.2585399664e+02 3.6963606865e+02 
          1.6071623962e+03 3.5663707657e+02 2.2901747358e+01 
          2.0212245290e+01 -7.0400350442e+02 3.8194256819e+01 
          -4.1971017116e+02 -4.3758093069e+02 9.3684434129e+01 
          3.6683111163e+02 3.3219184697e+02 7.0974244575e+01 
          1.0518723459e+02 1.8967271922e+02 2.1236670456e+01 
          9.1798815422e+00 -3.7155840177e+00 1.5211418161e+01 
          -1.6253439344e+03 -1.8959837579e+00 -2.3116671603e+01 
          5.2470661588e+02 -1.2063387935e+02 7.3452854717e+01 
          -8.9578890112e+01 1.3749055489e+02 2.0375201579e+01 
          2.9907082277e+02 -3.5151351708e+02 5.1812701738e-01 
          -2.3667997743e+01 2.2745511479e+02 4.0044604983e+01 
          6.5417459974e+01 -1.6992454461e+01 1.3137471250e+01 
          -6.7575476126e+01 4.6582220666e+01 3.0474121416e-02 
          -1.3595151545e+01 7.4273176773e+00 1.7438847530e-01 
          3.6351372439e+01 3.7984716092e+01 -3.4451224960e-01 
          -3.4768515522e+01 -2.2540096894e+01 -2.0984308483e+00 
          -8.8873024981e+01 4.6593162848e+01 -1.0997535455e+00 
          -5.6906618736e+00 4.9960278966e+00 1.4964599174e-01 
          9.4087208985e+01 -1.0882209814e+01 1.6267079241e-02 
          2.1777130628e+01 -4.3344279841e+00 1.5307743020e-01 
          1.1015207930e+02 7.2927673565e+01 4.8111084634e-03 
          -5.2347576321e+01 2.0283459233e+02 4.8264896904e-01 
          -1.3009155744e+02 -8.3064776326e+00 -6.1627220514e-01 
          2.0001190010e+01 2.5592530749e+01 2.4603558416e+00 
          -4.2833310161e+01 -3.9211638694e+01 6.5801300021e-01 
          2.3412098072e+01 1.2166381382e+02 1.6740571971e+00 
          1.9942626929e+02 -1.8836750999e+00 2.4583947511e+00 
          -2.8396406760e+01 4.2177684148e+01 1.6378082933e-01 
          -1.0362129794e+02 -1.7016377604e+02 -1.1477269166e+00 
          1.7456673640e+02 6.6247205111e+00 -1.7049144975e+00 
          -2.7542117544e+01 1.9382624219e+01 3.2861470214e-01 
          -1.9409232974e+01 1.1367193793e+02 3.0315125920e+00 
          -1.0276117283e+01 6.4666688732e+01 -7.9584585041e-02 
          1.8405327030e+01 2.9263804913e+01 1.2181070624e-01 
          1.7157803244e+01 1.4292916584e+02 1.3554856780e-01 
          -2.1846535879e+01 -1.0864477774e+02 -2.0446025535e+00 
          -1.1982729326e+01 -1.7309360274e+02 -2.1653598169e+00 
          2.3011061984e+01 -1.1709693748e+02 -2.2752356570e+00 
          -1.8395354385e+01 1.0532417159e+02 2.0303182502e+00 
          3.0665094686e+01 5.9347775066e-01 -5.7421350637e-01 
          3.9807024560e+01 -1.0056685457e+02 2.9865304281e-01 
          1.3838288316e+02 -1.7548676670e+01 -2.0045560263e+00 
          1.9250539069e+02 -4.1686787299e+01 8.5109216057e+00 
          -3.2564546974e+02 1.8919259563e+01 3.1201801409e+00 
          -7.6695862086e+01 5.7812112992e+00 -2.9905747605e-02 
          -1.0996360438e+02 7.4656881874e+00 -4.9496872480e-01 
          -1.2014683750e+01 2.6618930296e+01 -4.3606073196e-01 
          8.2739516733e+01 2.8689232280e+01 -1.5131983376e-01 
          1.1007283413e+02 6.8527417716e+01 7.3709468078e-01 
          -9.2219577314e+01 1.2768021825e+02 1.3957902243e-02 
          -5.2815659268e+01 1.4904521632e+00 -5.6127901847e-01 
          -1.0625657183e+02 4.0374630390e+01 -3.9746918408e-01 
          5.4375133203e+01 -2.7459739346e+01 9.7560227127e-01 
          4.9268465594e+01 3.0071224120e+01 3.0260922971e-01 
          3.2050288136e+01 -1.1314741052e+02 -9.3949411481e-01 
          -8.9368471343e+01 -1.9566711565e+02 -2.0952124132e-01 
          -4.5093563339e+01 -1.1625269428e+02 -8.3652102707e-01 
          9.6337274237e+01 -1.4458509490e+02 -3.1690831758e+00 
          2.8639928000e+01 -5.9698645035e+01 -1.3441921703e+00 
          7.2614597238e+01 2.8229697655e+02 -2.2559005159e+00 
          -7.7127830297e+01 -2.8631175641e+01 4.8529955534e+00 
          -8.6114199422e+01 -7.8412139703e+01 3.9237659804e+00 
          3.3415703967e+01 9.6259815626e+01 -8.7552441515e-01 
          -2.2268411857e+01 -3.2062946821e+01 2.8598199012e-01 
          6.3831374644e+01 4.4841031858e+01 -2.0721198156e-01 
          -7.3757061251e+01 7.5357973135e+01 -4.3807612680e-01 
          1.2531663626e+01 3.4627110958e+01 4.4660616367e-01 
          -2.7366311116e+01 6.9485837328e+01 -2.8419384191e-01 
          9.2000063836e+00 1.3059958332e+01 6.0619666981e-01 
          -2.9801920978e+01 4.6655890664e+01 -2.9824806019e-01 
          -3.0854309864e+01 5.2183222852e+01 8.8254264712e-01 
          6.9200358103e+01 5.7594023288e+01 -5.0514380007e-01 
          -5.8218749909e+00 -4.7264372999e+01 -5.0043846041e-01 
          7.0072306923e+01 1.3999211520e+01 1.4465933704e+00 
          -2.1102344647e+01 -1.5180936217e+01 -1.2900656302e+00 
          8.9429356205e+01 3.7682431937e+01 -1.7729492116e-01 
          -1.5395622243e+02 1.1392987260e+02 1.9713072532e+00 
          2.4315226023e+00 4.2166263730e+01 -1.9080850664e+00 
          -1.4978507225e+02 -2.7096504465e+01 1.2127676399e+00 
          -1.4126353890e+00 8.8123521451e+00 -1.2420550091e+00 
          7.8655260627e+01 -2.6155044376e+01 1.1813473200e+00 
          -1.5871583398e+01 -1.8071998060e+01 -8.8256916560e-01 
          1.2524213076e+02 -6.2413156224e+00 -8.0584567921e-02 
          -1.7123425208e+01 -8.7533771319e+00 3.1354061680e+00 
          1.2577764227e+02 1.2328592612e+01 -3.1136644595e+00 
          2.5199410582e+01 8.5994705758e+01 -1.0838028224e-01 
          -7.6712867215e+01 5.1241928301e+01 2.1665466364e-01 
          -5.4502364748e+01 6.4534373812e+01 -2.6651302334e-01 
          -7.5875423065e+01 4.0951098087e+01 3.1158217921e-01 
          -4.4723634960e+01 3.9522160557e+01 -2.8501680353e-01 
          -7.6644097282e+00 6.3022876269e+00 3.4591788459e+00 
          1.1704617123e+02 -2.2066115737e+01 -3.4420990760e+00 
          -7.0589999230e+01 -1.2425078939e+02 -1.7770646288e+00 
          -2.4149816695e+02 6.8618401115e+00 -7.1060171808e+00 
          7.1926482711e+00 1.4805807803e+01 1.2939766002e-01 
          3.4313047034e+00 1.9069843120e+01 2.5116223839e-01 
          9.5825031564e+00 1.7310997955e+01 5.8088308263e-01 
          1.0788192218e+01 1.4234902020e+01 4.3440160202e-01 
          -3.7549862727e+02 4.2308195786e+01 -5.6093376448e+00 
          3.9134891532e+02 -3.9228649242e+00 6.2211337557e+00 
          3.2661379061e+02 -3.9669500223e+01 -7.1074587327e+00 
          -7.7692073768e+01 8.4662748468e+02 -3.7351387834e+01 
          -2.0062033630e+02 2.1189496026e+03 -5.9638352012e+02 
          -1.5056108536e+01 -5.1529611109e+02 -7.9769405435e+00 
          -5.1857931517e+02 -4.4286902760e+01 -1.0101849046e+01 
          -1.5266049576e+02 -4.8242987490e+01 8.6918559199e+00 
          2.5705544055e+02 -8.0104418639e+00 -1.4464992280e+01 
          -8.8440218983e+01 4.4552766331e+02 -4.8764732314e+01 
          -1.3094051650e+02 -2.2693437158e+02 -2.7952878907e+02 
          -4.2775061556e+01 5.5891501824e+02 -1.3303146923e+02 
          4.1310875725e+02 -4.4693535756e+01 -2.6441319919e+01 
          3.1062989348e+02 -3.3249130613e+01 -2.0039223509e+01 
          6.0586520653e+01 1.2629862315e+00 -1.5226993863e+00 
          -2.0942002553e+00 -3.2766437811e+02 -1.0457642242e+01 
          -6.0650920719e+00 -3.1987947415e+02 -4.2315332483e+00 
          1.3607497068e+01 -6.3203646423e+01 -9.8287298336e+00 
          -3.4934361602e+02 -6.2071406188e+01 -8.0326115128e+00 
          -7.5862299944e+01 -6.8407086373e+00 -1.0195646386e+01 
          -8.2419530493e+01 5.7421989044e+00 -3.9395599771e-01 
          6.4670524610e+00 -3.8362683622e+01 -6.5436986677e+00 
          5.8214194291e+01 1.6107806721e+01 1.3892839015e+00 
          2.6217747169e+01 7.4251608493e+01 -6.2435643592e+00 
        </DataArray>
        <DataArray type="Float64" Name="UnbalancedLoad" NumberOfComponents="3" format="ascii">
          0.0000000000e+00 0.0000000000e+00 -9.1750043486e+03 
          0.0000000000e+00 0.0000000000e+00 -9.4016327938e+03 
          0.0000000000e+00 0.0000000000e+00 -9.1746470549e+03 
          0.0000000000e+00 0.0000000000e+00 -1.4814023927e+04 
          0.0000000000e+00 0.0000000000e+00 -1.4813798234e+04 
          0.0000000000e+00 0.0000000000e+00 -1.0023718044e+04 
          0.0000000000e+00 0.0000000000e+00 -1.0025068990e+04 
          0.0000000000e+00 0.0000000000e+00 -7.5000713513e+03 
          0.0000000000e+00 0.0000000000e+00 -7.5011966118e+03 
          0.0000000000e+00 0.0000000000e+00 -9.4012754921e+03 
          0.0000000000e+00 0.0000000000e+00 -9.1750043486e+03 
          0.0000000000e+00 0.0000000000e+00 -1.4814023927e+04 
          0.0000000000e+00 0.0000000000e+00 -1.0025068990e+04 
          0.0000000000e+00 0.0000000000e+00 -1.0025068990e+04 
          0.0000000000e+00 0.0000000000e+00 -7.5011966118e+03 
          0.0000000000e+00 0.0000000000e+00 -9.4012754921e+03 
          0.0000000000e+00 0.0000000000e+00 -9.1750043486e+03 
          0.0000000000e+00 0.0000000000e+00 -1.4814023927e+04 
          0.0000000000e+00 0.0000000000e+00 -1.0025068990e+04 
          0.0000000000e+00 0.0000000000e+00 -1.0025068990e+04 
          0.0000000000e+00 0.0000000000e+00 -7.5011966118e+03 
          0.0000000000e+00 0.0000000000e+00 -9.4012754921e+03 
          0.0000000000e+00 0.0000000000e+00 -1.0025068990e+04 
          0.0000000000e+00 0.0000000000e+00 -1.0025068990e+04 
          0.0000000000e+00 0.0000000000e+00 -4.9974609571e+03 
          0.0000000000e+00 0.0000000000e+00 -4.9974609571e+03 
          0.0000000000e+00 0.0000000000e+00 -4.5137774574e+03 
          0.0000000000e+00 0.0000000000e+00 -4.5137774574e+03 
          0.0000000000e+00 0.0000000000e+00 -3.7157136344e+03 
          0.0000000000e+00 0.0000000000e+00 -3.7157136344e+03 
          0.0000000000e+00 0.0000000000e+00 -4.9974609571e+03 
          0.0000000000e+00 0.0000000000e+00 -4.5137774574e+03 
          0.0000000000e+00 0.0000000000e+00 -3.7157136344e+03 
          0.0000000000e+00 0.0000000000e+00 -4.9974609571e+03 
          0.0000000000e+00 0.0000000000e+00 -4.5137774574e+03 
          0.0000000000e+00 0.0000000000e+00 -3.7157136344e+03 
          0.0000000000e+00 0.0000000000e+00 -2.9920567468e+03 
          0.0000000000e+00 0.0000000000e+00 -2.9920567468e+03 
          0.0000000000e+00 0.0000000000e+00 -2.7071063916e+03 
          0.0000000000e+00 0.0000000000e+00 -2.7071063916e+03 
          0.0000000000e+00 0.0000000000e+00 -3.6889251069e+03 
          0.0000000000e+00 0.0000000000e+00 -3.6889251069e+03 
          0.0000000000e+00 0.0000000000e+00 -2.9920567468e+03 
          0.0000000000e+00 0.0000000000e+00 -2.7071063916e+03 
          0.0000000000e+00 0.0000000000e+00 -3.6889251069e+03 
          0.0000000000e+00 0.0000000000e+00 -2.9920567468e+03 
          0.0000000000e+00 0.0000000000e+00 -2.7071063916e+03 
          0.0000000000e+00 0.0000000000e+00 -3.6889251069e+03 
          0.0000000000e+00 0.0000000000e+00 -1.7015796784e+03 
          0.0000000000e+00 0.0000000000e+00 -1.7015796784e+03 
          0.0000000000e+00 0.0000000000e+00 -2.1274966133e+03 
          0.0000000000e+00 0.0000000000e+00 -1.7458184571e+03 
          0.0000000000e+00 0.0000000000e+00 -1.7458184571e+03 
          0.0000000000e+00 0.0000000000e+00 -9.7051501718e+02 
          0.0000000000e+00 0.0000000000e+00 -1.3084644697e+03 
          0.0000000000e+00 0.0000000000e+00 -1.3084644697e+03 
          0.0000000000e+00 0.0000000000e+00 -3.4770057988e+03 
          0.0000000000e+00 0.0000000000e+00 -3.4770057988e+03 
          0.0000000000e+00 0.0000000000e+00 -1.7343814047e+03 
          0.0000000000e+00 0.0000000000e+00 -3.1855703618e+03 
          0.0000000000e+00 0.0000000000e+00 -3.1855703618e+03 
          0.0000000000e+00 0.0000000000e+00 -1.7458184571e+03 
          0.0000000000e+00 0.0000000000e+00 -1.7458184571e+03 
          0.0000000000e+00 0.0000000000e+00 -9.7051501718e+02 
          0.0000000000e+00 0.0000000000e+00 -3.3265257762e+03 
          0.0000000000e+00 0.0000000000e+00 -3.3265257762e+03 
          0.0000000000e+00 0.0000000000e+00 -1.7015796784e+03 
          0.0000000000e+00 0.0000000000e+00 -3.1855703618e+03 
          0.0000000000e+00 0.0000000000e+00 -2.1274966133e+03 
          0.0000000000e+00 0.0000000000e+00 -1.3084644697e+03 
          0.0000000000e+00 0.0000000000e+00 -3.4770057988e+03 
          0.0000000000e+00 0.0000000000e+00 -1.7458184571e+03 
          0.0000000000e+00 0.0000000000e+00 -9.7051501718e+02 
          0.0000000000e+00 0.0000000000e+00 -1.7343814047e+03 
          0.0000000000e+00 0.0000000000e+00 -1.7458184571e+03 
          0.0000000000e+00 0.0000000000e+00 -9.7051501718e+02 
          0.0000000000e+00 0.0000000000e+00 -3.3265257762e+03 
          0.0000000000e+00 0.0000000000e+00 -9.2328802850e+02 
          0.0000000000e+00 0.0000000000e+00 -1.1156992676e+03 
          0.0000000000e+00 0.0000000000e+00 -1.1156992676e+03 
          0.0000000000e+00 0.0000000000e+00 -1.7015796784e+03 
          0.0000000000e+00 0.0000000000e+00 -3.1855703618e+03 
          0.0000000000e+00 0.0000000000e+00 -2.1274966133e+03 
          0.0000000000e+00 0.0000000000e+00 -1.3084644697e+03 
          0.0000000000e+00 0.0000000000e+00 -3.4770057988e+03 
          0.0000000000e+00 0.0000000000e+00 -1.7458184571e+03 
          0.0000000000e+00 0.0000000000e+00 -9.7051501718e+02 
          0.0000000000e+00 0.0000000000e+00 -1.7343814047e+03 
          0.0000000000e+00 0.0000000000e+00 -1.7458184571e+03 
          0.0000000000e+00 0.0000000000e+00 -9.7051501718e+02 
          0.0000000000e+00 0.0000000000e+00 -3.3265257762e+03 
          0.0000000000e+00 0.0000000000e+00 -2.1274966133e+03 
          0.0000000000e+00 0.0000000000e+00 -9.7051501718e+02 
          0.0000000000e+00 0.0000000000e+00 -1.7343814047e+03 
          0.0000000000e+00 0.0000000000e+00 -9.7051501718e+02 
          0.0000000000e+00 0.0000000000e+00 -9.2328802850e+02 
          0.0000000000e+00 0.0000000000e+00 -1.1156992676e+03 
          0.0000000000e+00 0.0000000000e+00 -1.1156992676e+03 
          0.0000000000e+00 0.0000000000e+00 -1.4425499068e+03 
          0.0000000000e+00 0.0000000000e+00 -1.4425605124e+03 
          0.0000000000e+00 0.0000000000e+00 -1.0239625947e+03 
          0.0000000000e+00 0.0000000000e+00 -1.4425499068e+03 
          0.0000000000e+00 0.0000000000e+00 -1.4425605124e+03 
          0.0000000000e+00 0.0000000000e+00 -1.0239625947e+03 
          0.0000000000e+00 0.0000000000e+00 -1.4425605124e+03 
          0.0000000000e+00 0.0000000000e+00 -1.0239625947e+03 
          0.0000000000e+00 0.0000000000e+00 -1.4425605124e+03 
          0.0000000000e+00 0.0000000000e+00 -1.0239625947e+03 
          0.0000000000e+00 0.0000000000e+00 -1.4425499068e+03 
          0.0000000000e+00 0.0000000000e+00 -1.4425605124e+03 
          0.0000000000e+00 0.0000000000e+00 -1.0239625947e+03 
          0.0000000000e+00 0.0000000000e+00 -1.4425499068e+03 
          0.0000000000e+00 0.0000000000e+00 -1.4425605124e+03 
          0.0000000000e+00 0.0000000000e+00 -1.0239625947e+03 
          0.0000000000e+00 0.0000000000e+00 -1.4425605124e+03 
          0.0000000000e+00 0.0000000000e+00 -1.0239625947e+03 
          0.0000000000e+00 0.0000000000e+00 -1.4425605124e+03 
          0.0000000000e+00 0.0000000000e+00 -1.0239625947e+03 
          0.0000000000e+00 0.0000000000e+00 -1.4425499068e+03 
          0.0000000000e+00 0.0000000000e+00 -1.4425605124e+03 
          0.0000000000e+00 0.0000000000e+00 -1.0239625947e+03 
          0.0000000000e+00 0.0000000000e+00 -1.4425499068e+03 
          0.0000000000e+00 0.0000000000e+00 -1.4425605124e+03 
          0.0000000000e+00 0.0000000000e+00 -1.0239625947e+03 
          0.0000000000e+00 0.0000000000e+00 -1.4425605124e+03 
          0.0000000000e+00 0.0000000000e+00 -1.0239625947e+03 
          0.0000000000e+00 0.0000000000e+00 -1.4425605124e+03 
          0.0000000000e+00 0.0000000000e+00 -1.0239625947e+03 
          0.0000000000e+00 0.0000000000e+00 -9.2548772843e+02 
          0.0000000000e+00 0.0000000000e+00 -9.2548772843e+02 
          0.0000000000e+00 0.0000000000e+00 -2.5299322935e+02 
          0.0000000000e+00 0.0000000000e+00 -2.5299322935e+02 
          0.0000000000e+00 0.0000000000e+00 -2.5299322935e+02 
          0.0000000000e+00 0.0000000000e+00 -2.5299322935e+02 
          0.0000000000e+00 0.0000000000e+00 -1.2310053997e+03 
          0.0000000000e+00 0.0000000000e+00 -1.1119534223e+03 
          0.0000000000e+00 0.0000000000e+00 -1.0024773391e+03 
          0.0000000000e+00 0.0000000000e+00 -1.2310053997e+03 
          0.0000000000e+00 0.0000000000e+00 -1.1119534223e+03 
          0.0000000000e+00 0.0000000000e+00 -1.0024773391e+03 
          0.0000000000e+00 0.0000000000e+00 -1.2310053997e+03 
          0.0000000000e+00 0.0000000000e+00 -1.1119534223e+03 
          0.0000000000e+00 0.0000000000e+00 -1.0024773391e+03 
          0.0000000000e+00 0.0000000000e+00 -1.2310053997e+03 
          0.0000000000e+00 0.0000000000e+00 -1.1119534223e+03 
          0.0000000000e+00 0.0000000000e+00 -1.0024773391e+03 
          0.0000000000e+00 0.0000000000e+00 -9.0394345637e+02 
          0.0000000000e+00 0.0000000000e+00 -8.1356415533e+02 
          0.0000000000e+00 0.0000000000e+00 -7.3745815826e+02 
          0.0000000000e+00 0.0000000000e+00 -9.0394345637e+02 
          0.0000000000e+00 0.0000000000e+00 -8.1356415533e+02 
          0.0000000000e+00 0.0000000000e+00 -7.3745815826e+02 
          0.0000000000e+00 0.0000000000e+00 -9.0394345637e+02 
          0.0000000000e+00 0.0000000000e+00 -8.1356415533e+02 
          0.0000000000e+00 0.0000000000e+00 -7.3745815826e+02 
          0.0000000000e+00 0.0000000000e+00 -9.0394345637e+02 
          0.0000000000e+00 0.0000000000e+00 -8.1356415533e+02 
          0.0000000000e+00 0.0000000000e+00 -7.3745815826e+02 
        </DataArray>
      </PointData>
      <CellData>
        <DataArray type="Int64" Name="ElementTag" format="ascii">
          0
        </DataArray>
      </CellData>
    </Piece>
  </UnstructuredGrid>
</VTKFile>
