<?xml version="1.0"?>
<VTKFile type="UnstructuredGrid" version="1.0" byte_order="LittleEndian" compressor="vtkZLibDataCompressor">
  <UnstructuredGrid>
    <Piece NumberOfPoints="158" NumberOfCells="1">
      <Points>
        <DataArray type="Float64" Name="Points" NumberOfComponents="3" format="ascii">
          1.7550000000e+00 -1.7550000000e+00 0.0000000000e+00 
          1.4140000000e+00 0.0000000000e+00 5.2300000000e+00 
          1.7550000000e+00 1.7550000000e+00 -0.0000000000e+00 
          1.4140000000e+00 -1.4140000000e+00 5.2300000000e+00 
          1.4140000000e+00 1.4140000000e+00 5.2300000000e+00 
          1.5840000000e+00 8.7800000000e-01 2.6150000000e+00 
          1.5840000000e+00 -8.7700000000e-01 2.6150000000e+00 
          1.5840000000e+00 1.5840000000e+00 2.6150000000e+00 
          1.5840000000e+00 -1.5840000000e+00 2.6150000000e+00 
          -0.0000000000e+00 1.4140000000e+00 5.2300000000e+00 
          -1.7550000000e+00 1.7550000000e+00 -0.0000000000e+00 
          -1.4140000000e+00 1.4140000000e+00 5.2300000000e+00 
          -8.7700000000e-01 1.5840000000e+00 2.6150000000e+00 
          8.7700000000e-01 1.5840000000e+00 2.6150000000e+00 
          -1.5840000000e+00 1.5840000000e+00 2.6150000000e+00 
          -1.4140000000e+00 -0.0000000000e+00 5.2300000000e+00 
          -1.7550000000e+00 -1.7550000000e+00 -0.0000000000e+00 
          -1.4140000000e+00 -1.4140000000e+00 5.2300000000e+00 
          -1.5840000000e+00 -8.7700000000e-01 2.6150000000e+00 
          -1.5840000000e+00 8.7700000000e-01 2.6150000000e+00 
          -1.5840000000e+00 -1.5840000000e+00 2.6150000000e+00 
          0.0000000000e+00 -1.4140000000e+00 5.2300000000e+00 
          8.7700000000e-01 -1.5840000000e+00 2.6150000000e+00 
          -8.7700000000e-01 -1.5840000000e+00 2.6150000000e+00 
          1.2750000000e+00 1.2750000000e+00 7.3500000000e+00 
          1.2750000000e+00 -1.2750000000e+00 7.3500000000e+00 
          1.1500000000e+00 -1.1500000000e+00 9.2700000000e+00 
          1.1500000000e+00 1.1500000000e+00 9.2700000000e+00 
          1.0370000000e+00 -1.0370000000e+00 1.1000000000e+01 
          1.0370000000e+00 1.0370000000e+00 1.1000000000e+01 
          -1.2750000000e+00 1.2750000000e+00 7.3500000000e+00 
          -1.1500000000e+00 1.1500000000e+00 9.2700000000e+00 
          -1.0370000000e+00 1.0370000000e+00 1.1000000000e+01 
          -1.2750000000e+00 -1.2750000000e+00 7.3500000000e+00 
          -1.1500000000e+00 -1.1500000000e+00 9.2700000000e+00 
          -1.0370000000e+00 -1.0370000000e+00 1.1000000000e+01 
          9.3500000000e-01 9.3500000000e-01 1.2560000000e+01 
          9.3500000000e-01 -9.3500000000e-01 1.2560000000e+01 
          8.4300000000e-01 8.4300000000e-01 1.3960000000e+01 
          8.4300000000e-01 -8.4300000000e-01 1.3960000000e+01 
          7.6000000000e-01 7.6000000000e-01 1.5240000000e+01 
          7.6000000000e-01 -7.6000000000e-01 1.5240000000e+01 
          -9.3500000000e-01 9.3500000000e-01 1.2560000000e+01 
          -8.4300000000e-01 8.4300000000e-01 1.3960000000e+01 
          -7.6000000000e-01 7.6000000000e-01 1.5240000000e+01 
          -9.3500000000e-01 -9.3500000000e-01 1.2560000000e+01 
          -8.4300000000e-01 -8.4300000000e-01 1.3960000000e+01 
          -7.6000000000e-01 -7.6000000000e-01 1.5240000000e+01 
          7.6000000000e-01 -7.6000000000e-01 1.6240000000e+01 
          7.6000000000e-01 7.6000000000e-01 1.6240000000e+01 
          7.6000000000e-01 0.0000000000e+00 1.6240000000e+01 
          7.6000000000e-01 7.6000000000e-01 1.7340000000e+01 
          7.6000000000e-01 -7.6000000000e-01 1.7340000000e+01 
          7.6000000000e-01 0.0000000000e+00 1.7890000000e+01 
          7.6000000000e-01 -7.6000000000e-01 1.9440000000e+01 
          7.6000000000e-01 7.6000000000e-01 1.9440000000e+01 
          7.6000000000e-01 -7.6000000000e-01 2.1640000000e+01 
          7.6000000000e-01 7.6000000000e-01 2.1640000000e+01 
          7.6000000000e-01 0.0000000000e+00 1.9440000000e+01 
          7.6000000000e-01 7.6000000000e-01 1.8440000000e+01 
          7.6000000000e-01 -7.6000000000e-01 1.8440000000e+01 
          7.6000000000e-01 -7.6000000000e-01 2.0540000000e+01 
          7.6000000000e-01 7.6000000000e-01 2.0540000000e+01 
          7.6000000000e-01 0.0000000000e+00 2.1090000000e+01 
          7.6000000000e-01 7.6000000000e-01 2.2640000000e+01 
          7.6000000000e-01 -7.6000000000e-01 2.2640000000e+01 
          -7.6000000000e-01 7.6000000000e-01 1.6240000000e+01 
          -7.6000000000e-01 7.6000000000e-01 1.8440000000e+01 
          -0.0000000000e+00 7.6000000000e-01 1.6240000000e+01 
          -7.6000000000e-01 7.6000000000e-01 1.9440000000e+01 
          -7.6000000000e-01 7.6000000000e-01 2.1640000000e+01 
          -7.6000000000e-01 7.6000000000e-01 1.7340000000e+01 
          -0.0000000000e+00 7.6000000000e-01 1.7890000000e+01 
          -0.0000000000e+00 7.6000000000e-01 1.9440000000e+01 
          -7.6000000000e-01 7.6000000000e-01 2.0540000000e+01 
          0.0000000000e+00 7.6000000000e-01 2.1090000000e+01 
          -7.6000000000e-01 7.6000000000e-01 2.2640000000e+01 
          -0.0000000000e+00 5.2600000000e-01 2.3499000000e+01 
          3.9900000000e-01 4.0400000000e-01 2.3950000000e+01 
          -3.9900000000e-01 4.0400000000e-01 2.3950000000e+01 
          -7.6000000000e-01 -7.6000000000e-01 1.6240000000e+01 
          -7.6000000000e-01 -7.6000000000e-01 1.8440000000e+01 
          -7.6000000000e-01 -0.0000000000e+00 1.6240000000e+01 
          -7.6000000000e-01 -7.6000000000e-01 1.9440000000e+01 
          -7.6000000000e-01 -7.6000000000e-01 2.1640000000e+01 
          -7.6000000000e-01 -7.6000000000e-01 1.7340000000e+01 
          -7.6000000000e-01 0.0000000000e+00 1.7890000000e+01 
          -7.6000000000e-01 -0.0000000000e+00 1.9440000000e+01 
          -7.6000000000e-01 -7.6000000000e-01 2.0540000000e+01 
          -7.6000000000e-01 -0.0000000000e+00 2.1090000000e+01 
          -7.6000000000e-01 -7.6000000000e-01 2.2640000000e+01 
          0.0000000000e+00 -7.6000000000e-01 1.6240000000e+01 
          0.0000000000e+00 -7.6000000000e-01 1.7890000000e+01 
          0.0000000000e+00 -7.6000000000e-01 1.9440000000e+01 
          0.0000000000e+00 -7.6000000000e-01 2.1090000000e+01 
          0.0000000000e+00 -5.2600000000e-01 2.3499000000e+01 
          3.9900000000e-01 -4.0400000000e-01 2.3950000000e+01 
          -3.9900000000e-01 -4.0400000000e-01 2.3950000000e+01 
          -0.0000000000e+00 -3.3500000000e+00 2.1640000000e+01 
          -3.8000000000e-01 -2.0550000000e+00 2.2140000000e+01 
          -3.8000000000e-01 -2.0550000000e+00 2.1640000000e+01 
          0.0000000000e+00 3.3500000000e+00 2.1640000000e+01 
          -3.8000000000e-01 2.0550000000e+00 2.2140000000e+01 
          -3.8000000000e-01 2.0550000000e+00 2.1640000000e+01 
          3.8000000000e-01 2.0550000000e+00 2.2140000000e+01 
          3.8000000000e-01 2.0550000000e+00 2.1640000000e+01 
          3.8000000000e-01 -2.0550000000e+00 2.2140000000e+01 
          3.8000000000e-01 -2.0550000000e+00 2.1640000000e+01 
          -0.0000000000e+00 -3.3500000000e+00 1.8440000000e+01 
          -3.8000000000e-01 -2.0550000000e+00 1.8940000000e+01 
          -3.8000000000e-01 -2.0550000000e+00 1.8440000000e+01 
          -0.0000000000e+00 3.3500000000e+00 1.8440000000e+01 
          -3.8000000000e-01 2.0550000000e+00 1.8940000000e+01 
          -3.8000000000e-01 2.0550000000e+00 1.8440000000e+01 
          3.8000000000e-01 2.0550000000e+00 1.8940000000e+01 
          3.8000000000e-01 2.0550000000e+00 1.8440000000e+01 
          3.8000000000e-01 -2.0550000000e+00 1.8940000000e+01 
          3.8000000000e-01 -2.0550000000e+00 1.8440000000e+01 
          -0.0000000000e+00 -3.3500000000e+00 1.5240000000e+01 
          -3.8000000000e-01 -2.0550000000e+00 1.5740000000e+01 
          -3.8000000000e-01 -2.0550000000e+00 1.5240000000e+01 
          -0.0000000000e+00 3.3500000000e+00 1.5240000000e+01 
          -3.8000000000e-01 2.0550000000e+00 1.5740000000e+01 
          -3.8000000000e-01 2.0550000000e+00 1.5240000000e+01 
          3.8000000000e-01 2.0550000000e+00 1.5740000000e+01 
          3.8000000000e-01 2.0550000000e+00 1.5240000000e+01 
          3.8000000000e-01 -2.0550000000e+00 1.5740000000e+01 
          3.8000000000e-01 -2.0550000000e+00 1.5240000000e+01 
          -5.2400000000e-01 0.0000000000e+00 2.3496000000e+01 
          5.2400000000e-01 0.0000000000e+00 2.3496000000e+01 
          4.0000000000e-02 5.0000000000e-02 2.5250000000e+01 
          -4.0000000000e-02 5.0000000000e-02 2.5250000000e+01 
          -4.0000000000e-02 -5.0000000000e-02 2.5250000000e+01 
          4.0000000000e-02 -5.0000000000e-02 2.5250000000e+01 
          1.3410000000e+00 0.0000000000e+00 6.3450000000e+00 
          1.2090000000e+00 0.0000000000e+00 8.3600000000e+00 
          1.0900000000e+00 -0.0000000000e+00 1.0180000000e+01 
          -0.0000000000e+00 1.3410000000e+00 6.3450000000e+00 
          0.0000000000e+00 1.2090000000e+00 8.3600000000e+00 
          -0.0000000000e+00 1.0900000000e+00 1.0180000000e+01 
          -1.3410000000e+00 0.0000000000e+00 6.3450000000e+00 
          -1.2090000000e+00 0.0000000000e+00 8.3600000000e+00 
          -1.0900000000e+00 -0.0000000000e+00 1.0180000000e+01 
          -0.0000000000e+00 -1.3410000000e+00 6.3450000000e+00 
          0.0000000000e+00 -1.2090000000e+00 8.3600000000e+00 
          0.0000000000e+00 -1.0900000000e+00 1.0180000000e+01 
          9.8300000000e-01 0.0000000000e+00 1.1820000000e+01 
          8.8700000000e-01 0.0000000000e+00 1.3296000000e+01 
          8.0000000000e-01 -0.0000000000e+00 1.4633000000e+01 
          0.0000000000e+00 9.8300000000e-01 1.1820000000e+01 
          -0.0000000000e+00 8.8700000000e-01 1.3296000000e+01 
          0.0000000000e+00 8.0000000000e-01 1.4633000000e+01 
          -9.8300000000e-01 0.0000000000e+00 1.1820000000e+01 
          -8.8700000000e-01 0.0000000000e+00 1.3296000000e+01 
          -8.0000000000e-01 0.0000000000e+00 1.4633000000e+01 
          0.0000000000e+00 -9.8300000000e-01 1.1820000000e+01 
          0.0000000000e+00 -8.8700000000e-01 1.3296000000e+01 
          0.0000000000e+00 -8.0000000000e-01 1.4633000000e+01 
        </DataArray>
      </Points>
      <Cells>
        <DataArray type="Int64" Name="connectivity" format="ascii">
          0
          1
          2
          3
          4
          5
          6
          7
          8
          9
          10
          11
          12
          13
          14
          15
          16
          17
          18
          19
          20
          21
          22
          23
          24
          25
          26
          27
          28
          29
          30
          31
          32
          33
          34
          35
          36
          37
          38
          39
          40
          41
          42
          43
          44
          45
          46
          47
          48
          49
          50
          51
          52
          53
          54
          55
          56
          57
          58
          59
          60
          61
          62
          63
          64
          65
          66
          67
          68
          69
          70
          71
          72
          73
          74
          75
          76
          77
          78
          79
          80
          81
          82
          83
          84
          85
          86
          87
          88
          89
          90
          91
          92
          93
          94
          95
          96
          97
          98
          99
          100
          101
          102
          103
          104
          105
          106
          107
          108
          109
          110
          111
          112
          113
          114
          115
          116
          117
          118
          119
          120
          121
          122
          123
          124
          125
          126
          127
          128
          129
          130
          131
          132
          133
          134
          135
          136
          137
          138
          139
          140
          141
          142
          143
          144
          145
          146
          147
          148
          149
          150
          151
          152
          153
          154
          155
          156
          157
        </DataArray>
        <DataArray type="Int64" Name="offsets" format="ascii">
          158
        </DataArray>
        <DataArray type="Int64" Name="types" format="ascii">
          2
        </DataArray>
      </Cells>
      <PointData>
        <DataArray type="Int64" Name="NodeTag" format="ascii">
          1
          2
          3
          4
          5
          6
          7
          8
          9
          10
          11
          12
          13
          14
          15
          16
          17
          18
          19
          20
          21
          22
          23
          24
          25
          26
          27
          28
          29
          30
          31
          32
          33
          34
          35
          36
          37
          38
          39
          40
          41
          42
          43
          44
          45
          46
          47
          48
          49
          50
          51
          52
          53
          54
          55
          56
          57
          58
          59
          60
          61
          62
          63
          64
          65
          66
          67
          68
          69
          70
          71
          72
          73
          74
          75
          76
          77
          78
          79
          80
          81
          82
          83
          84
          85
          86
          87
          88
          89
          90
          91
          92
          93
          94
          95
          96
          97
          98
          99
          100
          101
          102
          103
          104
          105
          106
          107
          108
          109
          110
          111
          112
          113
          114
          115
          116
          117
          118
          119
          120
          121
          122
          123
          124
          125
          126
          127
          128
          129
          130
          131
          132
          133
          134
          135
          136
          137
          138
          139
          140
          141
          142
          143
          144
          145
          146
          147
          148
          149
          150
          151
          152
          153
          154
          155
          156
          157
          158
        </DataArray>
        <DataArray type="Float64" Name="Displacement" NumberOfComponents="3" format="ascii">
          0.0000000000e+00 0.0000000000e+00 0.0000000000e+00 
          6.6483923601e-15 -1.5875018138e-15 4.3709742960e-16 
          0.0000000000e+00 0.0000000000e+00 0.0000000000e+00 
          2.1755745619e-15 -1.6034649934e-15 -7.6906330838e-16 
          1.9656556093e-15 -1.6426399929e-15 9.9769370685e-17 
          1.8904967196e-15 -1.3758209640e-15 -5.6394180931e-17 
          1.2372687954e-15 5.3276525949e-16 -3.7978301474e-16 
          1.4279361619e-15 -1.3878739216e-15 -5.7403454556e-17 
          -6.2897159617e-17 5.3067021114e-16 -6.4495832383e-16 
          1.8896801091e-15 -3.3443337006e-15 -1.3346281428e-16 
          0.0000000000e+00 0.0000000000e+00 0.0000000000e+00 
          1.9680160218e-15 -2.2975873298e-15 6.4829675865e-16 
          2.1131700110e-17 -1.0857100721e-15 1.8976625942e-16 
          1.4344591868e-15 -2.9237871053e-15 1.6248459360e-16 
          -2.9001422469e-18 -6.3831582886e-16 5.3689243165e-16 
          5.1947794166e-15 -2.2210839434e-15 -2.4494810306e-16 
          0.0000000000e+00 0.0000000000e+00 0.0000000000e+00 
          2.2005860254e-15 -2.2233015341e-15 -1.5966409639e-16 
          2.7432344961e-15 -1.4493681954e-15 -4.4194805996e-17 
          -9.8444461243e-16 -6.2238300084e-16 3.5437336677e-16 
          1.8749227651e-15 -1.4604502028e-15 5.6591551697e-17 
          2.1156786364e-15 -4.3009890981e-16 -3.4939291262e-17 
          -6.4822519839e-17 4.0323670172e-16 -3.4901049463e-16 
          1.8985000388e-15 -1.1448894239e-15 -3.7754515456e-16 
          3.0034320897e-15 -2.9466493655e-15 2.8784044835e-16 
          3.1117777213e-15 -3.3510463790e-15 -1.0391197119e-15 
          3.5244088317e-15 -4.6648454412e-15 -1.2637207049e-15 
          4.8333405786e-15 -4.7323030026e-15 4.8305779525e-16 
          4.5838312040e-15 -6.4644929570e-15 -1.3035268423e-15 
          5.3364291250e-15 -6.5976442753e-15 6.0716055643e-16 
          3.6267222632e-15 -3.4024442842e-15 1.0370997385e-15 
          4.3296316595e-15 -4.4328458230e-15 1.3486874225e-15 
          6.2483120968e-15 -6.0494569079e-15 1.4613933631e-15 
          2.5447508096e-15 -3.2135295515e-15 -2.3473000279e-16 
          3.6825512829e-15 -4.3744927099e-15 -3.4538836887e-16 
          4.3322213926e-15 -5.7006014551e-15 -4.0850149148e-16 
          6.9070685660e-15 -8.4676613998e-15 8.6820427400e-16 
          5.5617488727e-15 -8.4567746354e-15 -1.3062636521e-15 
          7.8483961169e-15 -1.0378431068e-14 1.0713933046e-15 
          6.3678575863e-15 -1.0421236953e-14 -1.2157962460e-15 
          8.8426529246e-15 -1.2586034314e-14 1.2761337878e-15 
          7.0735989647e-15 -1.2366400437e-14 -1.0322018030e-15 
          6.9428710718e-15 -7.5654978517e-15 1.6506870904e-15 
          8.0806942727e-15 -9.5885897622e-15 1.6251918534e-15 
          8.8300063770e-15 -1.1557087645e-14 1.5133034150e-15 
          5.3853692675e-15 -7.7212953340e-15 -5.2137976836e-16 
          6.4738620452e-15 -9.5502092775e-15 -6.7748121106e-16 
          6.9777154444e-15 -1.1607676538e-14 -7.9619313606e-16 
          7.2036249394e-15 -1.4192868076e-14 -8.8111817617e-16 
          9.2175236633e-15 -1.4148234310e-14 1.7998409023e-15 
          7.1528550943e-15 -1.4179375818e-14 3.9285432787e-16 
          8.2342440685e-15 -1.7196179131e-14 2.4320567714e-15 
          6.5355759162e-15 -1.6232708523e-14 -6.8158767846e-16 
          6.4498188909e-15 -1.7923581439e-14 1.5013693010e-15 
          3.7049261820e-15 -2.1933123520e-14 -9.8290372463e-17 
          5.7420135293e-15 -2.1810155244e-14 3.6132727730e-15 
          -2.0981028034e-15 -2.8212003808e-14 6.1752342248e-16 
          -9.5929163219e-18 -2.8049228761e-14 4.4798346935e-15 
          5.7579157714e-15 -2.1888343047e-14 1.5683472093e-15 
          7.3614801430e-15 -1.9262720781e-14 3.2263423392e-15 
          5.2007505238e-15 -1.9336426307e-14 -3.3981380637e-16 
          1.0688327199e-15 -2.4587758829e-14 1.8638977464e-16 
          2.9556704620e-15 -2.5590961812e-14 4.0847113751e-15 
          1.3056248022e-15 -2.6621883412e-14 2.7212847759e-15 
          -3.1024348698e-15 -3.0805552603e-14 4.5602047422e-15 
          -5.2082731136e-15 -3.0648231233e-14 8.5646295017e-16 
          9.2576497948e-15 -1.3207301487e-14 1.3598564659e-15 
          7.3338774937e-15 -1.7243453974e-14 8.6108295921e-16 
          9.2375753656e-15 -1.4134424338e-14 1.4767148244e-15 
          5.7098888121e-15 -1.9518745093e-14 6.6947385223e-16 
          -1.4157081260e-17 -2.4879635604e-14 9.1766433187e-17 
          8.9271967162e-15 -1.4487910598e-14 1.1502211849e-15 
          8.1646477513e-15 -1.6690350397e-14 2.1863481681e-15 
          5.7333297347e-15 -2.0564964148e-14 2.1247853138e-15 
          3.1000695356e-15 -2.1713310834e-14 4.0781584008e-16 
          1.6399081103e-15 -2.5919795370e-14 2.3124077569e-15 
          -3.1211340692e-15 -2.7325644666e-14 -2.8495468667e-17 
          -6.3688626877e-15 -3.1006954757e-14 1.7542884717e-15 
          -7.9089966897e-15 -3.3312764196e-14 2.4178296107e-15 
          -8.1343483241e-15 -3.1087096878e-14 2.4088755181e-16 
          7.2061769302e-15 -1.3218085580e-14 -1.2355091611e-15 
          5.1742951976e-15 -1.7144445242e-14 -2.4054290486e-15 
          7.8467886570e-15 -1.3186064743e-14 2.4982301509e-16 
          3.6805393836e-15 -1.9393824276e-14 -2.7950214463e-15 
          -2.0471704248e-15 -2.4765562142e-14 -3.6655227118e-15 
          6.2936113141e-15 -1.5675536074e-14 -1.7069351213e-15 
          8.5859689881e-15 -1.6063200888e-14 -9.8658390180e-16 
          6.6986212296e-15 -1.9436199940e-14 -9.7118803086e-16 
          8.3744762387e-16 -2.2551504396e-14 -3.2421370488e-15 
          1.1537785314e-15 -2.3460798848e-14 -1.9486352022e-15 
          -5.1566590403e-15 -2.7405502076e-14 -3.7703488178e-15 
          7.1990827136e-15 -1.4158645290e-14 -1.0268752662e-15 
          5.9921174038e-15 -1.9135887958e-14 -1.3381818019e-15 
          3.6820486469e-15 -2.1981968409e-14 -1.3929740848e-15 
          -4.0223283815e-16 -2.5148361306e-14 -1.6220998777e-15 
          -7.4124110145e-15 -3.6558932718e-14 6.6530933072e-16 
          -8.6738448635e-15 -3.3272169088e-14 8.3804644049e-16 
          -8.6129783781e-15 -3.1058819286e-14 -1.8400644918e-15 
          -7.7890627443e-15 -2.6553399159e-14 -7.6820185123e-15 
          -4.0707607857e-15 -2.6132083393e-14 -6.2697247590e-15 
          -6.1112640406e-16 -2.4401835451e-14 -6.2898200373e-15 
          5.8561132757e-15 -2.6372749661e-14 9.6686994105e-15 
          -9.4720262191e-16 -2.6354779503e-14 4.2916236762e-15 
          3.5597744387e-15 -2.5803065685e-14 4.2782042401e-15 
          -9.6102465391e-16 -2.9232382579e-14 7.4033320054e-15 
          3.5763035730e-15 -2.7034833000e-14 7.4238683460e-15 
          -4.1332239586e-15 -2.9300827944e-14 -3.2024990402e-15 
          -5.6091853568e-16 -2.8669161415e-14 -3.1862447339e-15 
          8.2811541993e-16 -1.8008757244e-14 -8.6068142365e-15 
          4.3049893168e-15 -1.8390119007e-14 -4.7971402273e-15 
          5.8810787232e-15 -1.6723016212e-14 -4.7874115973e-15 
          1.0542047898e-14 -1.8431238292e-14 7.6400762876e-15 
          8.6939477838e-15 -1.9017588737e-14 4.6380849173e-15 
          1.0372107466e-14 -1.8279272703e-14 4.6516740592e-15 
          8.7204348273e-15 -1.9799484837e-14 6.0855268673e-15 
          1.0351726731e-14 -1.8420448235e-14 6.0915753255e-15 
          4.3438674999e-15 -2.0677051298e-14 -4.0062778231e-15 
          5.8411322355e-15 -1.9479840613e-14 -3.9937003692e-15 
          6.0646001676e-15 -1.1820605483e-14 -6.3789906897e-15 
          5.5842070642e-15 -1.3023950718e-14 -3.3085090239e-15 
          5.7738840640e-15 -1.1927141665e-14 -3.3081286311e-15 
          1.0660110124e-14 -1.2173626818e-14 5.2835311871e-15 
          4.9023574093e-15 -1.1164626658e-14 3.5405076900e-15 
          4.7486797147e-15 -1.0421189566e-14 3.5444498132e-15 
          4.8840608013e-15 -1.4642902524e-14 3.4766267249e-15 
          4.7618052262e-15 -1.3825648784e-14 3.4725767106e-15 
          5.6034286836e-15 -1.2818416363e-14 -3.3359264349e-15 
          5.7592881640e-15 -1.1847473642e-14 -3.3337162129e-15 
          -2.4067621044e-15 -2.9806880125e-14 -2.4493700393e-15 
          -9.4171006216e-15 -3.2515421956e-14 1.2784454811e-15 
          -1.2281344989e-14 -3.3873447641e-14 8.0711865962e-16 
          -1.2283004567e-14 -3.3880034759e-14 6.3560344770e-16 
          -1.2442003072e-14 -3.3862630837e-14 1.8605737137e-17 
          -1.2443019895e-14 -3.3890139664e-14 1.7025694755e-16 
          8.5189034743e-15 -2.3191572811e-15 1.8391697246e-16 
          3.6736457797e-15 -3.8734881219e-15 -5.2968071821e-16 
          1.0120946555e-14 -5.5869121663e-15 -2.9709711833e-17 
          2.6239359231e-15 -7.3450717616e-16 4.4789504651e-16 
          3.9557101499e-15 -9.0022434994e-15 8.2094649698e-16 
          5.2060358973e-15 -7.8417180154e-15 3.6307330207e-16 
          7.6870639994e-15 -2.6924107509e-15 -2.7133106470e-17 
          3.5592689095e-15 -3.7779276503e-15 4.9508514150e-16 
          7.7929528651e-15 -5.0866253244e-15 2.1463610698e-16 
          2.4606466167e-15 1.4720762816e-15 -6.2478419262e-16 
          3.1929335522e-15 -8.9637300841e-15 -6.2608523340e-16 
          4.0288033624e-15 -7.4186592516e-15 -5.6594518581e-16 
          9.6791291464e-15 -7.4666781299e-15 3.2856315672e-17 
          8.6374043619e-15 -9.4208194563e-15 7.9962189004e-18 
          6.7903611297e-15 -1.1444754085e-14 -9.7971788658e-17 
          6.3891020077e-15 -7.7681222591e-15 1.3739911443e-15 
          7.5016700268e-15 -1.0654736696e-14 1.1378663081e-15 
          8.4830608243e-15 -1.2046656096e-14 1.3849801620e-15 
          9.2167635560e-15 -6.7019159363e-15 4.8422975658e-16 
          9.1460421785e-15 -8.5801046049e-15 3.0606086954e-16 
          8.5524041123e-15 -1.0570755565e-14 3.8860607618e-16 
          4.9885293323e-15 -7.3281312845e-15 -8.8440398797e-16 
          6.0027246316e-15 -9.5556883902e-15 -9.9106957746e-16 
          6.7925800153e-15 -1.2043875624e-14 -7.9924379121e-16 
        </DataArray>
        <DataArray type="Float64" Name="Reaction" NumberOfComponents="3" format="ascii">
          -2.1633368301e-08 3.5563950028e-08 2.4868531488e-07 
          1.2562915168e-08 -1.7539823652e-09 3.1374866662e-09 
          1.2414893589e-09 1.5213642573e-08 -1.6300525693e-08 
          1.0735103928e-09 -1.2905604068e-09 -7.4090689887e-10 
          -1.1580182971e-08 -4.3707954737e-09 2.2519301051e-09 
          1.8854411850e-08 4.6115749667e-09 3.7939681179e-09 
          1.5730091868e-08 2.4048895419e-10 4.5692487469e-09 
          -1.1234892198e-08 3.4534742252e-09 -7.9784252444e-09 
          -5.2601006376e-09 8.1319036904e-10 9.4913026685e-10 
          -5.3903483519e-09 -5.9959181373e-09 1.3104714333e-09 
          -2.5411591581e-08 4.8481954187e-08 -2.7723767019e-07 
          -1.3078813797e-09 -1.4582804136e-08 -5.3968691157e-09 
          1.4153860484e-08 -8.7895266254e-09 -1.0761827722e-08 
          -9.3218287279e-09 -1.7939088886e-08 7.8237047227e-09 
          8.0859676375e-09 -2.7283530091e-09 -2.8849302656e-09 
          8.4423364321e-09 -7.7717904105e-09 -1.6242987300e-09 
          2.0466086457e-10 2.3714006038e-08 1.3080953794e-08 
          3.4643545950e-09 -7.4980369990e-09 -6.4319443144e-09 
          -8.2204739145e-09 4.9924198454e-09 -3.0153399241e-09 
          -2.4981524672e-08 -2.5522293760e-09 1.8678665100e-09 
          7.5691297874e-09 2.0728446172e-09 -1.0168294216e-09 
          1.7574853456e-09 1.9091844016e-09 3.8846383378e-10 
          -7.4044192073e-09 -1.1974460884e-09 -3.1632371408e-09 
          7.5815197965e-09 -1.3800893400e-08 -6.5931727963e-09 
          2.3391029289e-09 3.2216432078e-09 1.3099545734e-09 
          1.0989758056e-09 -8.3441484908e-09 -2.9527298483e-10 
          -4.5647531553e-09 -1.7449556852e-09 -2.2071211294e-10 
          2.6828419357e-09 -1.6525801706e-09 8.3816171826e-10 
          -4.8959640719e-09 2.1055088819e-09 5.1522871010e-10 
          -1.6621695662e-09 -4.0120070270e-09 -2.6126950244e-10 
          2.7858612363e-09 -5.5268775986e-09 -7.1756475532e-10 
          7.7309494510e-10 -2.3332981796e-09 -7.3360789761e-10 
          3.0048176894e-09 1.8841449912e-09 -2.7640743526e-10 
          5.5797063170e-10 -4.1958381560e-09 3.3535129958e-10 
          1.3028192303e-09 8.5974962725e-10 3.5653923882e-10 
          -2.1511334051e-09 3.5206993735e-09 1.3398922520e-09 
          -3.3736088406e-09 -1.7094376458e-10 1.4645046537e-10 
          -2.4847696474e-09 -4.2547759216e-09 6.4037041595e-10 
          2.0778636451e-10 -3.1254839858e-09 3.2852493912e-10 
          -1.6275954813e-09 5.2721841655e-11 3.6166758732e-10 
          7.4652086961e-09 -1.9543662420e-09 1.2831863414e-09 
          6.7632447926e-09 -3.0719024762e-09 2.1099300116e-09 
          -7.2759662247e-10 3.3675229461e-09 2.0313310104e-09 
          -9.2292530332e-10 4.4748382828e-10 2.7692401943e-09 
          4.1359497622e-09 -2.4991593165e-09 3.5517648957e-09 
          -4.4514366023e-09 1.7488808054e-09 2.1089237856e-09 
          5.4911106830e-11 1.5685471516e-09 2.0030234260e-09 
          3.3068833895e-09 1.5936867912e-09 2.5328446832e-09 
          8.4978048437e-10 -1.4014578303e-09 9.5301468967e-10 
          2.0695814279e-09 -7.1337744764e-10 -1.5060919973e-11 
          8.2980333907e-11 -1.5491163660e-09 1.0179150496e-09 
          2.5910552760e-09 -3.3274050376e-10 -5.9249004880e-11 
          6.7528424635e-10 2.4802793973e-10 1.1167947989e-09 
          -7.1392524506e-10 9.6985843263e-11 2.9803706326e-10 
          2.4397969821e-10 -3.6344645639e-10 1.2940115127e-10 
          9.1484712751e-10 -6.2426206321e-10 -6.0386056464e-10 
          -1.4077240333e-09 -4.3978355144e-09 2.5485936146e-09 
          3.0800024085e-09 -5.3299283902e-09 -3.3980922561e-10 
          5.7466176643e-10 -5.3751110850e-10 -6.5781555988e-10 
          4.8180621638e-09 1.5695052536e-09 -3.2705745819e-10 
          2.0849142695e-09 1.2661260407e-10 9.7395202216e-10 
          -1.0673973715e-10 -6.9033630231e-10 3.4670895710e-10 
          -1.0971332192e-09 -1.3270795596e-09 -4.3968534025e-10 
          -8.0778025251e-10 -1.1126674223e-09 3.0742084070e-10 
          -1.1012839472e-10 -5.5827285978e-09 1.0930618474e-09 
          -2.0167133639e-09 -3.4156569804e-09 6.4613212195e-10 
          2.0295405292e-09 -6.5626880459e-10 9.1387198678e-10 
          3.9014831574e-09 3.7337699733e-09 -2.5623261163e-10 
          2.9976682280e-09 -1.1576255562e-09 1.5481709164e-09 
          4.8185752741e-10 1.2494341611e-09 7.5903496580e-11 
          1.3395316564e-09 -1.2297271311e-09 -3.9727943932e-10 
          3.3933648532e-09 2.6652409163e-09 5.8490279788e-10 
          1.5047006830e-09 -6.8515495823e-10 2.2072440588e-11 
          8.2051116943e-10 4.6168098472e-10 -2.2097588557e-09 
          8.4901271465e-10 1.0207344249e-09 -2.9471788914e-10 
          4.4440012646e-10 8.0784368292e-10 3.0978277657e-10 
          -4.7506659151e-10 -1.2969553194e-09 6.9842736240e-10 
          -5.3899618587e-10 -4.1183347825e-09 -2.3531853737e-09 
          -3.5325313345e-10 2.6215172621e-09 -1.0770140211e-09 
          2.8817357519e-10 -1.2354160910e-09 7.8518003687e-10 
          1.2732581167e-09 -9.2426986315e-10 1.0102630934e-09 
          1.8174089687e-09 5.4429807835e-09 1.9086587393e-09 
          1.2111231099e-10 -7.6953918826e-10 3.0715083764e-09 
          -5.3060290099e-10 1.8135441795e-09 6.1189733619e-10 
          1.2605367709e-09 1.3791317552e-09 -8.2962208970e-11 
          9.0043618611e-10 -2.0695048478e-10 2.0484118556e-09 
          8.3146868858e-10 1.2035462680e-09 -1.3034186483e-10 
          4.7541053071e-09 1.9990232136e-09 3.7624076189e-10 
          -2.9349079029e-09 9.8570552736e-10 -8.5244393091e-12 
          5.2596269972e-10 2.1779025539e-10 -6.5595126430e-10 
          -3.3501700328e-09 -2.3176714315e-09 2.0518208148e-09 
          1.1725331301e-09 1.2579645184e-09 2.1738907168e-09 
          5.5126676114e-10 -2.4726027843e-09 7.0033893435e-10 
          -2.8265029534e-10 -2.7582173928e-09 3.3196135919e-10 
          -2.8938636133e-10 6.0865969708e-11 -3.6651539674e-10 
          -7.8057863372e-10 -9.9575024445e-09 3.7635853672e-09 
          -3.4518570228e-09 -1.5556527712e-09 1.7758854799e-10 
          2.0248636894e-09 1.3493821174e-09 1.8873242802e-09 
          -4.2412475192e-09 1.2618931569e-09 -2.2441017595e-09 
          4.8556861849e-09 2.5746786760e-09 -7.2086710174e-10 
          -1.6027400033e-10 3.6122121861e-10 -5.5630401110e-10 
          2.9592969025e-09 2.9448029351e-10 1.5776041042e-09 
          -9.5007629467e-10 7.3205606611e-10 1.9579763223e-09 
          -1.5173014331e-09 7.4485351763e-10 1.3523431421e-09 
          -9.3758169808e-10 -1.7731868771e-09 1.8539724423e-09 
          -8.7145205398e-10 -1.1886635565e-09 1.4296773405e-09 
          2.9439713916e-09 -1.7921737322e-09 1.5458183143e-09 
          -1.9529534821e-10 -4.3255122324e-10 1.2483782039e-09 
          -7.5406526862e-09 8.0551744164e-10 3.9875228851e-10 
          -8.7266300776e-10 1.7568222303e-09 -3.5954541956e-10 
          2.5514794358e-09 2.7009079023e-09 -1.9043492472e-10 
          -3.4092741107e-10 9.3475913389e-10 -2.2289055872e-10 
          -3.6444299057e-09 2.5794187111e-09 -3.7970427542e-10 
          9.9876660739e-10 3.8497377454e-10 -2.9147247150e-10 
          -3.6268462116e-09 -1.1732236736e-09 9.8532714590e-10 
          1.1828593786e-09 1.2583676325e-09 7.7924513569e-10 
          -6.9877868507e-10 -3.9500082324e-10 7.9075164081e-10 
          2.6669202013e-09 -7.3792965007e-10 6.9479879550e-10 
          1.1057363350e-09 6.9899999386e-10 -3.6578807415e-09 
          -1.9217603005e-09 -1.0094400827e-09 -1.4844946929e-09 
          3.1635975199e-09 1.9590857920e-09 -1.1198629500e-09 
          2.6715644371e-09 -2.3111458268e-09 -2.3352548943e-09 
          -5.7960349296e-09 1.6039142416e-09 -1.7837824575e-10 
          -2.1141440967e-10 -1.3839457742e-09 -1.7962654098e-10 
          -6.0549607398e-09 -2.7760306946e-09 6.5965139390e-10 
          -8.9953967663e-11 -2.3535500927e-09 4.7916046386e-10 
          -2.4293527251e-09 -1.9697245646e-10 1.2627897671e-09 
          3.3093810313e-09 -4.3172715371e-10 1.1361673172e-09 
          9.3087840351e-11 9.8343378351e-10 2.1889609742e-09 
          -1.1249296019e-08 3.4536968175e-10 -3.7371940165e-09 
          5.1398970036e-10 2.4054390128e-09 1.3077113099e-09 
          -5.4385741910e-10 1.1689622837e-09 3.8092396649e-10 
          1.7557765553e-09 1.3577625800e-09 -1.3558572780e-09 
          6.9356221932e-10 2.2270593052e-09 -2.8870395201e-10 
          1.1643762074e-09 -6.3324438915e-10 4.6404924549e-10 
          3.0251174484e-10 -4.4262713104e-10 -9.6937203148e-10 
          1.9636884095e-09 -4.9020224189e-10 -6.2226908344e-11 
          -1.0512027915e-10 5.6723620245e-10 4.3018143034e-10 
          5.7777644729e-10 -1.7449342642e-09 3.9040528726e-10 
          7.8132796043e-11 -9.6385446531e-10 -6.2268028630e-10 
          1.2884053336e-09 -1.3996659654e-09 1.1985617000e-09 
          2.0310048973e-10 -5.1920256094e-10 1.0388801340e-10 
          1.4266112540e-09 3.0014455839e-10 -2.6005882039e-10 
          -2.8836129776e-10 7.4177405444e-10 4.3386811404e-10 
          7.8721189013e-11 -1.6633370384e-09 -4.8671879740e-10 
          -7.3300739573e-10 -1.0226253444e-09 1.4516632551e-10 
          2.1437246896e-09 -5.0371799677e-10 9.5252784690e-10 
          1.7141708889e-09 -4.9450611152e-10 -3.8524365957e-10 
          -2.6756821667e-10 -5.0592792674e-10 2.1890507550e-10 
          -4.6112104515e-10 -1.9057596394e-10 2.3653791724e-10 
          -3.0278892672e-10 -1.5607232322e-09 6.8401704017e-10 
          6.5945697247e-10 -8.3744153349e-10 4.5332943098e-10 
          2.3272979550e-09 8.3265905002e-10 4.1096271710e-10 
          8.6029113013e-10 6.6465286620e-10 3.3697001169e-10 
          3.7330487860e-10 1.2558154194e-10 6.1087333145e-10 
          -1.1373892585e-09 -2.2671274006e-10 1.3576153444e-09 
          -5.5539531620e-10 -4.3147463166e-10 1.4170187880e-10 
          5.0429217032e-10 -6.5652096155e-10 5.1137836502e-10 
        </DataArray>
        <DataArray type="Float64" Name="UnbalancedLoad" NumberOfComponents="3" format="ascii">
          0.0000000000e+00 0.0000000000e+00 0.0000000000e+00 
          0.0000000000e+00 0.0000000000e+00 0.0000000000e+00 
          0.0000000000e+00 0.0000000000e+00 0.0000000000e+00 
          0.0000000000e+00 0.0000000000e+00 0.0000000000e+00 
          0.0000000000e+00 0.0000000000e+00 0.0000000000e+00 
          0.0000000000e+00 0.0000000000e+00 0.0000000000e+00 
          0.0000000000e+00 0.0000000000e+00 0.0000000000e+00 
          0.0000000000e+00 0.0000000000e+00 0.0000000000e+00 
          0.0000000000e+00 0.0000000000e+00 0.0000000000e+00 
          0.0000000000e+00 0.0000000000e+00 0.0000000000e+00 
          0.0000000000e+00 0.0000000000e+00 0.0000000000e+00 
          0.0000000000e+00 0.0000000000e+00 0.0000000000e+00 
          0.0000000000e+00 0.0000000000e+00 0.0000000000e+00 
          0.0000000000e+00 0.0000000000e+00 0.0000000000e+00 
          0.0000000000e+00 0.0000000000e+00 0.0000000000e+00 
          0.0000000000e+00 0.0000000000e+00 0.0000000000e+00 
          0.0000000000e+00 0.0000000000e+00 0.0000000000e+00 
          0.0000000000e+00 0.0000000000e+00 0.0000000000e+00 
          0.0000000000e+00 0.0000000000e+00 0.0000000000e+00 
          0.0000000000e+00 0.0000000000e+00 0.0000000000e+00 
          0.0000000000e+00 0.0000000000e+00 0.0000000000e+00 
          0.0000000000e+00 0.0000000000e+00 0.0000000000e+00 
          0.0000000000e+00 0.0000000000e+00 0.0000000000e+00 
          0.0000000000e+00 0.0000000000e+00 0.0000000000e+00 
          0.0000000000e+00 0.0000000000e+00 0.0000000000e+00 
          0.0000000000e+00 0.0000000000e+00 0.0000000000e+00 
          0.0000000000e+00 0.0000000000e+00 0.0000000000e+00 
          0.0000000000e+00 0.0000000000e+00 0.0000000000e+00 
          0.0000000000e+00 0.0000000000e+00 0.0000000000e+00 
          0.0000000000e+00 0.0000000000e+00 0.0000000000e+00 
          0.0000000000e+00 0.0000000000e+00 0.0000000000e+00 
          0.0000000000e+00 0.0000000000e+00 0.0000000000e+00 
          0.0000000000e+00 0.0000000000e+00 0.0000000000e+00 
          0.0000000000e+00 0.0000000000e+00 0.0000000000e+00 
          0.0000000000e+00 0.0000000000e+00 0.0000000000e+00 
          0.0000000000e+00 0.0000000000e+00 0.0000000000e+00 
          0.0000000000e+00 0.0000000000e+00 0.0000000000e+00 
          0.0000000000e+00 0.0000000000e+00 0.0000000000e+00 
          0.0000000000e+00 0.0000000000e+00 0.0000000000e+00 
          0.0000000000e+00 0.0000000000e+00 0.0000000000e+00 
          0.0000000000e+00 0.0000000000e+00 0.0000000000e+00 
          0.0000000000e+00 0.0000000000e+00 0.0000000000e+00 
          0.0000000000e+00 0.0000000000e+00 0.0000000000e+00 
          0.0000000000e+00 0.0000000000e+00 0.0000000000e+00 
          0.0000000000e+00 0.0000000000e+00 0.0000000000e+00 
          0.0000000000e+00 0.0000000000e+00 0.0000000000e+00 
          0.0000000000e+00 0.0000000000e+00 0.0000000000e+00 
          0.0000000000e+00 0.0000000000e+00 0.0000000000e+00 
          0.0000000000e+00 0.0000000000e+00 0.0000000000e+00 
          0.0000000000e+00 0.0000000000e+00 0.0000000000e+00 
          0.0000000000e+00 0.0000000000e+00 0.0000000000e+00 
          0.0000000000e+00 0.0000000000e+00 0.0000000000e+00 
          0.0000000000e+00 0.0000000000e+00 0.0000000000e+00 
          0.0000000000e+00 0.0000000000e+00 0.0000000000e+00 
          0.0000000000e+00 0.0000000000e+00 0.0000000000e+00 
          0.0000000000e+00 0.0000000000e+00 0.0000000000e+00 
          0.0000000000e+00 0.0000000000e+00 0.0000000000e+00 
          0.0000000000e+00 0.0000000000e+00 0.0000000000e+00 
          0.0000000000e+00 0.0000000000e+00 0.0000000000e+00 
          0.0000000000e+00 0.0000000000e+00 0.0000000000e+00 
          0.0000000000e+00 0.0000000000e+00 0.0000000000e+00 
          0.0000000000e+00 0.0000000000e+00 0.0000000000e+00 
          0.0000000000e+00 0.0000000000e+00 0.0000000000e+00 
          0.0000000000e+00 0.0000000000e+00 0.0000000000e+00 
          0.0000000000e+00 0.0000000000e+00 0.0000000000e+00 
          0.0000000000e+00 0.0000000000e+00 0.0000000000e+00 
          0.0000000000e+00 0.0000000000e+00 0.0000000000e+00 
          0.0000000000e+00 0.0000000000e+00 0.0000000000e+00 
          0.0000000000e+00 0.0000000000e+00 0.0000000000e+00 
          0.0000000000e+00 0.0000000000e+00 0.0000000000e+00 
          0.0000000000e+00 0.0000000000e+00 0.0000000000e+00 
          0.0000000000e+00 0.0000000000e+00 0.0000000000e+00 
          0.0000000000e+00 0.0000000000e+00 0.0000000000e+00 
          0.0000000000e+00 0.0000000000e+00 0.0000000000e+00 
          0.0000000000e+00 0.0000000000e+00 0.0000000000e+00 
          0.0000000000e+00 0.0000000000e+00 0.0000000000e+00 
          0.0000000000e+00 0.0000000000e+00 0.0000000000e+00 
          0.0000000000e+00 0.0000000000e+00 0.0000000000e+00 
          0.0000000000e+00 0.0000000000e+00 0.0000000000e+00 
          0.0000000000e+00 0.0000000000e+00 0.0000000000e+00 
          0.0000000000e+00 0.0000000000e+00 0.0000000000e+00 
          0.0000000000e+00 0.0000000000e+00 0.0000000000e+00 
          0.0000000000e+00 0.0000000000e+00 0.0000000000e+00 
          0.0000000000e+00 0.0000000000e+00 0.0000000000e+00 
          0.0000000000e+00 0.0000000000e+00 0.0000000000e+00 
          0.0000000000e+00 0.0000000000e+00 0.0000000000e+00 
          0.0000000000e+00 0.0000000000e+00 0.0000000000e+00 
          0.0000000000e+00 0.0000000000e+00 0.0000000000e+00 
          0.0000000000e+00 0.0000000000e+00 0.0000000000e+00 
          0.0000000000e+00 0.0000000000e+00 0.0000000000e+00 
          0.0000000000e+00 0.0000000000e+00 0.0000000000e+00 
          0.0000000000e+00 0.0000000000e+00 0.0000000000e+00 
          0.0000000000e+00 0.0000000000e+00 0.0000000000e+00 
          0.0000000000e+00 0.0000000000e+00 0.0000000000e+00 
          0.0000000000e+00 0.0000000000e+00 0.0000000000e+00 
          0.0000000000e+00 0.0000000000e+00 0.0000000000e+00 
          0.0000000000e+00 0.0000000000e+00 0.0000000000e+00 
          0.0000000000e+00 0.0000000000e+00 0.0000000000e+00 
          0.0000000000e+00 0.0000000000e+00 0.0000000000e+00 
          0.0000000000e+00 0.0000000000e+00 0.0000000000e+00 
          0.0000000000e+00 0.0000000000e+00 0.0000000000e+00 
          0.0000000000e+00 0.0000000000e+00 0.0000000000e+00 
          0.0000000000e+00 0.0000000000e+00 0.0000000000e+00 
          0.0000000000e+00 0.0000000000e+00 0.0000000000e+00 
          0.0000000000e+00 0.0000000000e+00 0.0000000000e+00 
          0.0000000000e+00 0.0000000000e+00 0.0000000000e+00 
          0.0000000000e+00 0.0000000000e+00 0.0000000000e+00 
          0.0000000000e+00 0.0000000000e+00 0.0000000000e+00 
          0.0000000000e+00 0.0000000000e+00 0.0000000000e+00 
          0.0000000000e+00 0.0000000000e+00 0.0000000000e+00 
          0.0000000000e+00 0.0000000000e+00 0.0000000000e+00 
          0.0000000000e+00 0.0000000000e+00 0.0000000000e+00 
          0.0000000000e+00 0.0000000000e+00 0.0000000000e+00 
          0.0000000000e+00 0.0000000000e+00 0.0000000000e+00 
          0.0000000000e+00 0.0000000000e+00 0.0000000000e+00 
          0.0000000000e+00 0.0000000000e+00 0.0000000000e+00 
          0.0000000000e+00 0.0000000000e+00 0.0000000000e+00 
          0.0000000000e+00 0.0000000000e+00 0.0000000000e+00 
          0.0000000000e+00 0.0000000000e+00 0.0000000000e+00 
          0.0000000000e+00 0.0000000000e+00 0.0000000000e+00 
          0.0000000000e+00 0.0000000000e+00 0.0000000000e+00 
          0.0000000000e+00 0.0000000000e+00 0.0000000000e+00 
          0.0000000000e+00 0.0000000000e+00 0.0000000000e+00 
          0.0000000000e+00 0.0000000000e+00 0.0000000000e+00 
          0.0000000000e+00 0.0000000000e+00 0.0000000000e+00 
          0.0000000000e+00 0.0000000000e+00 0.0000000000e+00 
          0.0000000000e+00 0.0000000000e+00 0.0000000000e+00 
          0.0000000000e+00 0.0000000000e+00 0.0000000000e+00 
          0.0000000000e+00 0.0000000000e+00 0.0000000000e+00 
          0.0000000000e+00 0.0000000000e+00 0.0000000000e+00 
          0.0000000000e+00 0.0000000000e+00 0.0000000000e+00 
          0.0000000000e+00 0.0000000000e+00 0.0000000000e+00 
          0.0000000000e+00 0.0000000000e+00 0.0000000000e+00 
          0.0000000000e+00 0.0000000000e+00 0.0000000000e+00 
          0.0000000000e+00 0.0000000000e+00 0.0000000000e+00 
          0.0000000000e+00 0.0000000000e+00 0.0000000000e+00 
          0.0000000000e+00 0.0000000000e+00 0.0000000000e+00 
          0.0000000000e+00 0.0000000000e+00 0.0000000000e+00 
          0.0000000000e+00 0.0000000000e+00 0.0000000000e+00 
          0.0000000000e+00 0.0000000000e+00 0.0000000000e+00 
          0.0000000000e+00 0.0000000000e+00 0.0000000000e+00 
          0.0000000000e+00 0.0000000000e+00 0.0000000000e+00 
          0.0000000000e+00 0.0000000000e+00 0.0000000000e+00 
          0.0000000000e+00 0.0000000000e+00 0.0000000000e+00 
          0.0000000000e+00 0.0000000000e+00 0.0000000000e+00 
          0.0000000000e+00 0.0000000000e+00 0.0000000000e+00 
          0.0000000000e+00 0.0000000000e+00 0.0000000000e+00 
          0.0000000000e+00 0.0000000000e+00 0.0000000000e+00 
          0.0000000000e+00 0.0000000000e+00 0.0000000000e+00 
          0.0000000000e+00 0.0000000000e+00 0.0000000000e+00 
          0.0000000000e+00 0.0000000000e+00 0.0000000000e+00 
          0.0000000000e+00 0.0000000000e+00 0.0000000000e+00 
          0.0000000000e+00 0.0000000000e+00 0.0000000000e+00 
          0.0000000000e+00 0.0000000000e+00 0.0000000000e+00 
          0.0000000000e+00 0.0000000000e+00 0.0000000000e+00 
          0.0000000000e+00 0.0000000000e+00 0.0000000000e+00 
          0.0000000000e+00 0.0000000000e+00 0.0000000000e+00 
          0.0000000000e+00 0.0000000000e+00 0.0000000000e+00 
        </DataArray>
      </PointData>
      <CellData>
        <DataArray type="Int64" Name="ElementTag" format="ascii">
          0
        </DataArray>
      </CellData>
    </Piece>
  </UnstructuredGrid>
</VTKFile>
