<?xml version="1.0"?>
<VTKFile type="UnstructuredGrid" version="1.0" byte_order="LittleEndian" compressor="vtkZLibDataCompressor">
  <UnstructuredGrid>
    <Piece NumberOfPoints="158" NumberOfCells="1">
      <Points>
        <DataArray type="Float64" Name="Points" NumberOfComponents="3" format="ascii">
          1.7550000000e+00 -1.7550000000e+00 0.0000000000e+00 
          1.4140000000e+00 0.0000000000e+00 5.2300000000e+00 
          1.7550000000e+00 1.7550000000e+00 -0.0000000000e+00 
          1.4140000000e+00 -1.4140000000e+00 5.2300000000e+00 
          1.4140000000e+00 1.4140000000e+00 5.2300000000e+00 
          1.5840000000e+00 8.7800000000e-01 2.6150000000e+00 
          1.5840000000e+00 -8.7700000000e-01 2.6150000000e+00 
          1.5840000000e+00 1.5840000000e+00 2.6150000000e+00 
          1.5840000000e+00 -1.5840000000e+00 2.6150000000e+00 
          -0.0000000000e+00 1.4140000000e+00 5.2300000000e+00 
          -1.7550000000e+00 1.7550000000e+00 -0.0000000000e+00 
          -1.4140000000e+00 1.4140000000e+00 5.2300000000e+00 
          -8.7700000000e-01 1.5840000000e+00 2.6150000000e+00 
          8.7700000000e-01 1.5840000000e+00 2.6150000000e+00 
          -1.5840000000e+00 1.5840000000e+00 2.6150000000e+00 
          -1.4140000000e+00 -0.0000000000e+00 5.2300000000e+00 
          -1.7550000000e+00 -1.7550000000e+00 -0.0000000000e+00 
          -1.4140000000e+00 -1.4140000000e+00 5.2300000000e+00 
          -1.5840000000e+00 -8.7700000000e-01 2.6150000000e+00 
          -1.5840000000e+00 8.7700000000e-01 2.6150000000e+00 
          -1.5840000000e+00 -1.5840000000e+00 2.6150000000e+00 
          0.0000000000e+00 -1.4140000000e+00 5.2300000000e+00 
          8.7700000000e-01 -1.5840000000e+00 2.6150000000e+00 
          -8.7700000000e-01 -1.5840000000e+00 2.6150000000e+00 
          1.2750000000e+00 1.2750000000e+00 7.3500000000e+00 
          1.2750000000e+00 -1.2750000000e+00 7.3500000000e+00 
          1.1500000000e+00 -1.1500000000e+00 9.2700000000e+00 
          1.1500000000e+00 1.1500000000e+00 9.2700000000e+00 
          1.0370000000e+00 -1.0370000000e+00 1.1000000000e+01 
          1.0370000000e+00 1.0370000000e+00 1.1000000000e+01 
          -1.2750000000e+00 1.2750000000e+00 7.3500000000e+00 
          -1.1500000000e+00 1.1500000000e+00 9.2700000000e+00 
          -1.0370000000e+00 1.0370000000e+00 1.1000000000e+01 
          -1.2750000000e+00 -1.2750000000e+00 7.3500000000e+00 
          -1.1500000000e+00 -1.1500000000e+00 9.2700000000e+00 
          -1.0370000000e+00 -1.0370000000e+00 1.1000000000e+01 
          9.3500000000e-01 9.3500000000e-01 1.2560000000e+01 
          9.3500000000e-01 -9.3500000000e-01 1.2560000000e+01 
          8.4300000000e-01 8.4300000000e-01 1.3960000000e+01 
          8.4300000000e-01 -8.4300000000e-01 1.3960000000e+01 
          7.6000000000e-01 7.6000000000e-01 1.5240000000e+01 
          7.6000000000e-01 -7.6000000000e-01 1.5240000000e+01 
          -9.3500000000e-01 9.3500000000e-01 1.2560000000e+01 
          -8.4300000000e-01 8.4300000000e-01 1.3960000000e+01 
          -7.6000000000e-01 7.6000000000e-01 1.5240000000e+01 
          -9.3500000000e-01 -9.3500000000e-01 1.2560000000e+01 
          -8.4300000000e-01 -8.4300000000e-01 1.3960000000e+01 
          -7.6000000000e-01 -7.6000000000e-01 1.5240000000e+01 
          7.6000000000e-01 -7.6000000000e-01 1.6240000000e+01 
          7.6000000000e-01 7.6000000000e-01 1.6240000000e+01 
          7.6000000000e-01 0.0000000000e+00 1.6240000000e+01 
          7.6000000000e-01 7.6000000000e-01 1.7340000000e+01 
          7.6000000000e-01 -7.6000000000e-01 1.7340000000e+01 
          7.6000000000e-01 0.0000000000e+00 1.7890000000e+01 
          7.6000000000e-01 -7.6000000000e-01 1.9440000000e+01 
          7.6000000000e-01 7.6000000000e-01 1.9440000000e+01 
          7.6000000000e-01 -7.6000000000e-01 2.1640000000e+01 
          7.6000000000e-01 7.6000000000e-01 2.1640000000e+01 
          7.6000000000e-01 0.0000000000e+00 1.9440000000e+01 
          7.6000000000e-01 7.6000000000e-01 1.8440000000e+01 
          7.6000000000e-01 -7.6000000000e-01 1.8440000000e+01 
          7.6000000000e-01 -7.6000000000e-01 2.0540000000e+01 
          7.6000000000e-01 7.6000000000e-01 2.0540000000e+01 
          7.6000000000e-01 0.0000000000e+00 2.1090000000e+01 
          7.6000000000e-01 7.6000000000e-01 2.2640000000e+01 
          7.6000000000e-01 -7.6000000000e-01 2.2640000000e+01 
          -7.6000000000e-01 7.6000000000e-01 1.6240000000e+01 
          -7.6000000000e-01 7.6000000000e-01 1.8440000000e+01 
          -0.0000000000e+00 7.6000000000e-01 1.6240000000e+01 
          -7.6000000000e-01 7.6000000000e-01 1.9440000000e+01 
          -7.6000000000e-01 7.6000000000e-01 2.1640000000e+01 
          -7.6000000000e-01 7.6000000000e-01 1.7340000000e+01 
          -0.0000000000e+00 7.6000000000e-01 1.7890000000e+01 
          -0.0000000000e+00 7.6000000000e-01 1.9440000000e+01 
          -7.6000000000e-01 7.6000000000e-01 2.0540000000e+01 
          0.0000000000e+00 7.6000000000e-01 2.1090000000e+01 
          -7.6000000000e-01 7.6000000000e-01 2.2640000000e+01 
          -0.0000000000e+00 5.2600000000e-01 2.3499000000e+01 
          3.9900000000e-01 4.0400000000e-01 2.3950000000e+01 
          -3.9900000000e-01 4.0400000000e-01 2.3950000000e+01 
          -7.6000000000e-01 -7.6000000000e-01 1.6240000000e+01 
          -7.6000000000e-01 -7.6000000000e-01 1.8440000000e+01 
          -7.6000000000e-01 -0.0000000000e+00 1.6240000000e+01 
          -7.6000000000e-01 -7.6000000000e-01 1.9440000000e+01 
          -7.6000000000e-01 -7.6000000000e-01 2.1640000000e+01 
          -7.6000000000e-01 -7.6000000000e-01 1.7340000000e+01 
          -7.6000000000e-01 0.0000000000e+00 1.7890000000e+01 
          -7.6000000000e-01 -0.0000000000e+00 1.9440000000e+01 
          -7.6000000000e-01 -7.6000000000e-01 2.0540000000e+01 
          -7.6000000000e-01 -0.0000000000e+00 2.1090000000e+01 
          -7.6000000000e-01 -7.6000000000e-01 2.2640000000e+01 
          0.0000000000e+00 -7.6000000000e-01 1.6240000000e+01 
          0.0000000000e+00 -7.6000000000e-01 1.7890000000e+01 
          0.0000000000e+00 -7.6000000000e-01 1.9440000000e+01 
          0.0000000000e+00 -7.6000000000e-01 2.1090000000e+01 
          0.0000000000e+00 -5.2600000000e-01 2.3499000000e+01 
          3.9900000000e-01 -4.0400000000e-01 2.3950000000e+01 
          -3.9900000000e-01 -4.0400000000e-01 2.3950000000e+01 
          -0.0000000000e+00 -3.3500000000e+00 2.1640000000e+01 
          -3.8000000000e-01 -2.0550000000e+00 2.2140000000e+01 
          -3.8000000000e-01 -2.0550000000e+00 2.1640000000e+01 
          0.0000000000e+00 3.3500000000e+00 2.1640000000e+01 
          -3.8000000000e-01 2.0550000000e+00 2.2140000000e+01 
          -3.8000000000e-01 2.0550000000e+00 2.1640000000e+01 
          3.8000000000e-01 2.0550000000e+00 2.2140000000e+01 
          3.8000000000e-01 2.0550000000e+00 2.1640000000e+01 
          3.8000000000e-01 -2.0550000000e+00 2.2140000000e+01 
          3.8000000000e-01 -2.0550000000e+00 2.1640000000e+01 
          -0.0000000000e+00 -3.3500000000e+00 1.8440000000e+01 
          -3.8000000000e-01 -2.0550000000e+00 1.8940000000e+01 
          -3.8000000000e-01 -2.0550000000e+00 1.8440000000e+01 
          -0.0000000000e+00 3.3500000000e+00 1.8440000000e+01 
          -3.8000000000e-01 2.0550000000e+00 1.8940000000e+01 
          -3.8000000000e-01 2.0550000000e+00 1.8440000000e+01 
          3.8000000000e-01 2.0550000000e+00 1.8940000000e+01 
          3.8000000000e-01 2.0550000000e+00 1.8440000000e+01 
          3.8000000000e-01 -2.0550000000e+00 1.8940000000e+01 
          3.8000000000e-01 -2.0550000000e+00 1.8440000000e+01 
          -0.0000000000e+00 -3.3500000000e+00 1.5240000000e+01 
          -3.8000000000e-01 -2.0550000000e+00 1.5740000000e+01 
          -3.8000000000e-01 -2.0550000000e+00 1.5240000000e+01 
          -0.0000000000e+00 3.3500000000e+00 1.5240000000e+01 
          -3.8000000000e-01 2.0550000000e+00 1.5740000000e+01 
          -3.8000000000e-01 2.0550000000e+00 1.5240000000e+01 
          3.8000000000e-01 2.0550000000e+00 1.5740000000e+01 
          3.8000000000e-01 2.0550000000e+00 1.5240000000e+01 
          3.8000000000e-01 -2.0550000000e+00 1.5740000000e+01 
          3.8000000000e-01 -2.0550000000e+00 1.5240000000e+01 
          -5.2400000000e-01 0.0000000000e+00 2.3496000000e+01 
          5.2400000000e-01 0.0000000000e+00 2.3496000000e+01 
          4.0000000000e-02 5.0000000000e-02 2.5250000000e+01 
          -4.0000000000e-02 5.0000000000e-02 2.5250000000e+01 
          -4.0000000000e-02 -5.0000000000e-02 2.5250000000e+01 
          4.0000000000e-02 -5.0000000000e-02 2.5250000000e+01 
          1.3410000000e+00 0.0000000000e+00 6.3450000000e+00 
          1.2090000000e+00 0.0000000000e+00 8.3600000000e+00 
          1.0900000000e+00 -0.0000000000e+00 1.0180000000e+01 
          -0.0000000000e+00 1.3410000000e+00 6.3450000000e+00 
          0.0000000000e+00 1.2090000000e+00 8.3600000000e+00 
          -0.0000000000e+00 1.0900000000e+00 1.0180000000e+01 
          -1.3410000000e+00 0.0000000000e+00 6.3450000000e+00 
          -1.2090000000e+00 0.0000000000e+00 8.3600000000e+00 
          -1.0900000000e+00 -0.0000000000e+00 1.0180000000e+01 
          -0.0000000000e+00 -1.3410000000e+00 6.3450000000e+00 
          0.0000000000e+00 -1.2090000000e+00 8.3600000000e+00 
          0.0000000000e+00 -1.0900000000e+00 1.0180000000e+01 
          9.8300000000e-01 0.0000000000e+00 1.1820000000e+01 
          8.8700000000e-01 0.0000000000e+00 1.3296000000e+01 
          8.0000000000e-01 -0.0000000000e+00 1.4633000000e+01 
          0.0000000000e+00 9.8300000000e-01 1.1820000000e+01 
          -0.0000000000e+00 8.8700000000e-01 1.3296000000e+01 
          0.0000000000e+00 8.0000000000e-01 1.4633000000e+01 
          -9.8300000000e-01 0.0000000000e+00 1.1820000000e+01 
          -8.8700000000e-01 0.0000000000e+00 1.3296000000e+01 
          -8.0000000000e-01 0.0000000000e+00 1.4633000000e+01 
          0.0000000000e+00 -9.8300000000e-01 1.1820000000e+01 
          0.0000000000e+00 -8.8700000000e-01 1.3296000000e+01 
          0.0000000000e+00 -8.0000000000e-01 1.4633000000e+01 
        </DataArray>
      </Points>
      <Cells>
        <DataArray type="Int64" Name="connectivity" format="ascii">
          0
          1
          2
          3
          4
          5
          6
          7
          8
          9
          10
          11
          12
          13
          14
          15
          16
          17
          18
          19
          20
          21
          22
          23
          24
          25
          26
          27
          28
          29
          30
          31
          32
          33
          34
          35
          36
          37
          38
          39
          40
          41
          42
          43
          44
          45
          46
          47
          48
          49
          50
          51
          52
          53
          54
          55
          56
          57
          58
          59
          60
          61
          62
          63
          64
          65
          66
          67
          68
          69
          70
          71
          72
          73
          74
          75
          76
          77
          78
          79
          80
          81
          82
          83
          84
          85
          86
          87
          88
          89
          90
          91
          92
          93
          94
          95
          96
          97
          98
          99
          100
          101
          102
          103
          104
          105
          106
          107
          108
          109
          110
          111
          112
          113
          114
          115
          116
          117
          118
          119
          120
          121
          122
          123
          124
          125
          126
          127
          128
          129
          130
          131
          132
          133
          134
          135
          136
          137
          138
          139
          140
          141
          142
          143
          144
          145
          146
          147
          148
          149
          150
          151
          152
          153
          154
          155
          156
          157
        </DataArray>
        <DataArray type="Int64" Name="offsets" format="ascii">
          158
        </DataArray>
        <DataArray type="Int64" Name="types" format="ascii">
          2
        </DataArray>
      </Cells>
      <PointData>
        <DataArray type="Int64" Name="NodeTag" format="ascii">
          1
          2
          3
          4
          5
          6
          7
          8
          9
          10
          11
          12
          13
          14
          15
          16
          17
          18
          19
          20
          21
          22
          23
          24
          25
          26
          27
          28
          29
          30
          31
          32
          33
          34
          35
          36
          37
          38
          39
          40
          41
          42
          43
          44
          45
          46
          47
          48
          49
          50
          51
          52
          53
          54
          55
          56
          57
          58
          59
          60
          61
          62
          63
          64
          65
          66
          67
          68
          69
          70
          71
          72
          73
          74
          75
          76
          77
          78
          79
          80
          81
          82
          83
          84
          85
          86
          87
          88
          89
          90
          91
          92
          93
          94
          95
          96
          97
          98
          99
          100
          101
          102
          103
          104
          105
          106
          107
          108
          109
          110
          111
          112
          113
          114
          115
          116
          117
          118
          119
          120
          121
          122
          123
          124
          125
          126
          127
          128
          129
          130
          131
          132
          133
          134
          135
          136
          137
          138
          139
          140
          141
          142
          143
          144
          145
          146
          147
          148
          149
          150
          151
          152
          153
          154
          155
          156
          157
          158
        </DataArray>
        <DataArray type="Float64" Name="Displacement" NumberOfComponents="3" format="ascii">
          0.0000000000e+00 0.0000000000e+00 0.0000000000e+00 
          1.3815353527e-15 -9.5033844845e-16 -3.6104198410e-17 
          0.0000000000e+00 0.0000000000e+00 0.0000000000e+00 
          1.6464332605e-15 -9.7278253058e-16 1.0919290176e-17 
          1.0342173587e-15 -9.6875385184e-16 -1.9575034710e-16 
          -3.4729222694e-17 -9.8765970498e-16 -2.8434114565e-16 
          2.3671610839e-15 -9.2554586305e-16 1.4896312008e-16 
          1.4526865391e-16 -9.8087238010e-16 -1.1888423534e-16 
          1.1688235505e-15 -9.3909930583e-16 9.5534739791e-17 
          1.0059188957e-15 -2.3079797161e-15 -6.6473626532e-17 
          0.0000000000e+00 0.0000000000e+00 0.0000000000e+00 
          1.0388908140e-15 -1.5701791046e-15 -7.4660353494e-17 
          9.3368190622e-16 -1.3943850752e-15 -1.7737109592e-16 
          1.5967222422e-16 -1.6544432885e-15 -1.2549089999e-16 
          9.3822871671e-16 -1.3774583666e-15 -7.6142223126e-17 
          3.8955358195e-15 -1.5375232738e-15 -1.9895354612e-16 
          0.0000000000e+00 0.0000000000e+00 0.0000000000e+00 
          1.7296395105e-15 -1.5651812044e-15 1.9427177199e-16 
          2.3918824658e-15 -1.5887065068e-15 1.3597261001e-16 
          1.1181770257e-15 -1.3731934112e-15 -2.1324381453e-16 
          7.3364293425e-16 -1.5981105298e-15 3.4551444786e-16 
          1.6370947246e-15 -1.1374440312e-15 -6.3914368586e-17 
          1.1696146720e-15 -1.0926242743e-15 1.1791084177e-16 
          7.4219886103e-16 -1.9538885460e-15 -7.5275513223e-17 
          1.6747871070e-15 -1.0694309392e-15 -1.6601879982e-16 
          2.2763202187e-15 -1.1698341193e-15 -6.6141569220e-17 
          2.2525946609e-15 -1.0163794621e-15 -1.6286264060e-16 
          2.4292343597e-15 -1.1762531460e-15 -1.0377453493e-16 
          2.7633551094e-15 -1.1840396735e-15 -1.6444633038e-16 
          2.4475104663e-15 -1.0593565951e-15 -6.7050833061e-17 
          1.9736980279e-15 -1.7538017256e-15 5.5973625671e-17 
          2.0550888882e-15 -1.2399201411e-15 2.1167331252e-16 
          2.6515525630e-15 -1.5444761953e-15 2.3790008422e-16 
          1.7165651999e-15 -1.1229610177e-15 1.8878332009e-16 
          2.4959091623e-15 -1.5555669016e-15 1.6455766713e-16 
          2.8472907171e-15 -1.5223033884e-15 1.2460333014e-16 
          2.8457507839e-15 -1.3273105273e-15 2.3428141124e-18 
          3.4109291488e-15 -1.3192698313e-15 -1.5850491199e-16 
          3.5048110184e-15 -1.5982375831e-15 8.7265161561e-17 
          3.3600877100e-15 -1.5905477114e-15 -1.3711144763e-16 
          3.7883111297e-15 -1.8887345363e-15 1.4954820955e-16 
          3.6608400756e-15 -1.8507165658e-15 -5.4379476427e-17 
          3.1251400857e-15 -1.9470080749e-15 2.9446773063e-16 
          3.3287936691e-15 -1.9275789914e-15 3.2122103835e-16 
          3.8224014551e-15 -2.2413154602e-15 2.4733534824e-16 
          3.0576509683e-15 -1.6535942249e-15 8.7313128781e-17 
          3.6277826218e-15 -2.1894490929e-15 4.5992047775e-17 
          3.6310114640e-15 -2.3214433879e-15 9.5052449239e-18 
          3.6873498004e-15 -2.1487374535e-15 8.4255475337e-17 
          3.8861476325e-15 -2.1512746846e-15 2.6834046900e-16 
          2.5785220749e-15 -2.1410637165e-15 1.2895716035e-16 
          3.6050208856e-15 -2.4648941780e-15 3.7988358972e-16 
          3.3135233964e-15 -2.1294877374e-15 2.5112243164e-16 
          3.5857769127e-15 -2.3602142178e-15 5.4440838967e-16 
          2.6059543311e-15 -2.4505844061e-15 6.7735473442e-16 
          2.8153142203e-15 -2.3932653333e-15 5.4438644681e-16 
          9.2924571615e-16 -2.1687038517e-15 1.2032560515e-15 
          1.1387888530e-15 -2.1351540517e-15 6.4686884399e-16 
          2.6189218578e-15 -2.4346724172e-15 5.2240529341e-16 
          3.2598110046e-15 -2.3327014072e-15 5.0097629159e-16 
          2.9948975469e-15 -2.4272329130e-15 4.9841580220e-16 
          1.7360284999e-15 -2.2221180553e-15 8.6645699351e-16 
          2.1852806504e-15 -2.5365500103e-15 6.0214402116e-16 
          2.5103869754e-15 -2.3218074048e-15 9.2916516195e-16 
          1.0323600932e-16 -1.7125383206e-15 6.7261299800e-16 
          -1.5981565045e-16 -1.6055918620e-15 1.3803872012e-15 
          3.9016353964e-15 -2.5885831832e-15 1.5436005567e-16 
          3.2263277560e-15 -2.8877217796e-15 -2.0433420837e-16 
          3.8917657720e-15 -2.4021428564e-15 1.9412380338e-16 
          2.7992329943e-15 -2.8846464700e-15 -3.5634222703e-16 
          1.1223025345e-15 -1.9365484516e-15 -8.3713423865e-16 
          3.6490992829e-15 -2.6005862398e-15 1.2097808303e-17 
          3.4962484492e-15 -2.5556113640e-15 2.0921089932e-16 
          2.8169498231e-15 -2.3815185287e-15 1.1638429135e-16 
          1.9630170420e-15 -2.2487436575e-15 -5.8059185786e-16 
          1.6580402925e-15 -2.8632521611e-15 -1.1186559038e-16 
          1.0816029260e-16 -1.3754913144e-15 -9.5317947977e-16 
          -8.7926616255e-16 4.9772719026e-16 4.6773719972e-16 
          -1.3065296629e-15 -9.3969521343e-16 4.6506835646e-16 
          -1.5429028124e-15 -8.2100528300e-16 -4.5540680660e-16 
          3.6718467501e-15 -2.5560816702e-15 -4.7504163902e-17 
          3.0224528842e-15 -2.8287609906e-15 -1.5845533531e-16 
          3.2272565343e-15 -2.5658719322e-15 6.6455243638e-17 
          2.5976829453e-15 -2.7705080761e-15 -1.4598212998e-16 
          9.3167064295e-16 -1.9112507851e-15 -2.3925870519e-16 
          3.4904871686e-15 -2.9343451023e-15 -1.3144943927e-16 
          3.8229595562e-15 -2.8481507627e-15 -2.7467956476e-16 
          3.1590489678e-15 -2.8070131080e-15 -2.5364634912e-16 
          2.0082385903e-15 -2.4957103716e-15 -1.6268080049e-16 
          1.4268332966e-15 -2.1807502411e-15 -5.6598894672e-16 
          -1.3501938474e-16 -1.4625390514e-15 -2.7714976708e-16 
          3.6799303807e-15 -2.5022793420e-15 -1.9526802380e-17 
          3.2568157354e-15 -3.3872626752e-15 1.6901771688e-16 
          2.6016542569e-15 -2.9117163177e-15 2.2634708645e-16 
          1.4797050652e-15 -1.4857982814e-15 5.1122965403e-16 
          -1.1158095200e-15 -2.4463008002e-15 7.9865230420e-16 
          -1.7076528962e-15 -8.8839265131e-16 8.6599765566e-16 
          -1.5770029763e-15 -8.1297311753e-16 -5.7189681944e-17 
          9.6372323974e-16 -2.2284010077e-15 2.8413972312e-15 
          -2.1477391477e-15 -2.3460354104e-15 4.8525323854e-16 
          4.2484600434e-16 -2.2183603803e-15 4.6735189080e-16 
          2.0467333054e-15 -1.9639703972e-15 -1.1550090671e-15 
          -3.9736249748e-16 -1.3710694817e-15 -1.5871176549e-15 
          2.8055018289e-15 -2.2881741476e-15 -1.6055940856e-15 
          -4.0890400099e-16 -2.2343419313e-15 -8.3065843396e-17 
          2.8228883466e-15 -1.7060196852e-15 -7.6039003660e-17 
          -2.1808404883e-15 -1.0699175487e-15 1.9948452934e-15 
          4.5557755737e-16 -2.0662958530e-15 2.0064854481e-15 
          3.3724424216e-15 -2.6291410026e-15 3.5634473721e-16 
          3.1875521987e-15 -2.6542003037e-15 1.8398253044e-16 
          3.3889053883e-15 -2.6700260233e-15 1.8606510165e-16 
          1.7929209607e-15 -2.6332408867e-15 1.7801534911e-16 
          3.6929084802e-15 -3.1343396795e-15 1.0135919616e-16 
          3.3542235819e-15 -3.0236662229e-15 1.0670540308e-16 
          3.6907480578e-15 -2.0926149476e-15 3.7437984420e-16 
          3.3582388176e-15 -2.2350296760e-15 3.7418879674e-16 
          3.1944244610e-15 -2.5671769157e-15 4.4173739029e-16 
          3.3848541084e-15 -2.5847852202e-15 4.4386716536e-16 
          4.5372451394e-15 -2.1462280073e-15 -4.0229801633e-16 
          5.0022251516e-15 -2.0731978192e-15 -2.5203175231e-16 
          3.5861473876e-15 -2.3866274209e-15 -2.4916521047e-16 
          3.2461630204e-15 -1.9137287185e-15 1.7855127846e-15 
          4.1327708997e-15 -2.5095442025e-15 7.8002691761e-16 
          3.2611475786e-15 -1.9948461442e-15 7.8391368852e-16 
          4.1123062993e-15 -2.0216136736e-15 6.2548060352e-16 
          3.2810836847e-15 -1.9544177841e-15 6.2211930804e-16 
          5.0072799841e-15 -2.3289038818e-15 -4.3809351712e-16 
          3.5863186305e-15 -1.8384493214e-15 -4.4387636681e-16 
          1.8045897825e-15 -1.0495677669e-15 -1.1814754580e-15 
          -1.7981246084e-15 -1.2139908629e-15 5.5488804714e-16 
          -3.4240601886e-15 5.7719513982e-16 3.2372767245e-16 
          -3.4339145060e-15 6.0909097989e-16 3.9646302878e-16 
          -3.4924257522e-15 6.1242228151e-16 8.3976520093e-17 
          -3.5020027440e-15 5.7417851109e-16 1.3366757836e-17 
          3.7838660015e-15 -1.0332337674e-15 6.9860947447e-17 
          2.2153603898e-15 -1.0874243605e-15 -1.9968744371e-16 
          7.7699130128e-16 -1.0941104584e-15 -1.4245533520e-16 
          1.4301947506e-15 -1.5936450103e-15 -2.1302936729e-16 
          2.0368305800e-15 -6.5079667722e-15 -1.2538960947e-16 
          2.3959675809e-15 -3.6751493665e-15 -2.6705436645e-16 
          2.2136136383e-15 -1.4677874434e-15 -1.5676671648e-16 
          3.2060729531e-15 -1.3889695308e-15 3.8712680798e-16 
          -4.4514001609e-16 -1.4516910332e-15 2.7829406739e-16 
          1.8265551924e-15 4.2682944388e-16 2.0048956907e-16 
          2.1825622928e-15 -6.3670010312e-15 1.1445527698e-16 
          2.5993974888e-15 -3.3273327259e-15 1.6278372592e-16 
          4.7170709116e-15 -1.2085371079e-15 -1.2458540157e-17 
          2.4902127195e-15 -1.4575311033e-15 -9.7851712663e-17 
          3.5110018149e-15 -1.7406946826e-15 -7.1270395335e-19 
          2.7709647811e-15 2.7603365807e-15 3.5740195844e-16 
          3.2209088956e-15 -6.4281948308e-16 3.9147132548e-16 
          3.6434621021e-15 -2.2286814373e-15 1.1654199346e-16 
          4.5184775006e-15 -1.6480551288e-15 -1.2832390831e-17 
          3.0110083034e-15 -1.9232299032e-15 3.8753240965e-16 
          3.9550862563e-15 -2.1719105732e-15 8.2195095571e-17 
          3.0346472508e-15 2.6989078731e-15 -1.5335738743e-16 
          3.3849027976e-15 -1.2771608179e-15 -2.6948853352e-16 
          3.5945087358e-15 -2.5228303664e-15 9.0144483852e-17 
        </DataArray>
        <DataArray type="Float64" Name="Reaction" NumberOfComponents="3" format="ascii">
          -2.7118891826e-08 3.0987945188e-08 1.3705935523e-07 
          -7.2506268021e-09 -5.3204547866e-10 -1.4901797467e-10 
          -2.7038580058e-09 -2.7628440291e-10 1.8635725384e-08 
          6.8856520497e-09 -1.0336880985e-09 -2.3595712150e-09 
          -9.7371764653e-11 -9.4260465860e-10 -1.0730283694e-10 
          -1.1422784979e-08 -1.3584890479e-10 -1.0795464915e-09 
          3.8468542541e-09 -3.3811848290e-09 -4.2108084475e-09 
          1.7324151285e-09 -6.8042050369e-11 -1.5595270063e-09 
          2.7161541529e-09 -2.7868005503e-09 2.7204597706e-09 
          -2.0481450753e-09 -3.5560452392e-10 2.4309603170e-10 
          -2.1146118411e-08 2.7799453720e-08 -1.2154659454e-07 
          -4.1024470085e-09 -5.9955985415e-09 -4.9418660181e-09 
          5.2815256515e-09 -5.2992181715e-10 -2.9002773229e-09 
          4.9522697775e-09 2.0079420460e-09 2.7053820394e-09 
          3.4495467258e-09 -3.7800585568e-09 3.6433944925e-10 
          -7.0536752954e-10 -3.6582233050e-09 4.8017836598e-10 
          7.2552772874e-09 1.4515756717e-08 -2.7856969709e-08 
          7.0840313323e-09 -8.0138194284e-09 -2.4419709769e-09 
          1.8540242173e-08 5.4131233619e-09 -1.5561149660e-09 
          2.2483672684e-09 -6.6633726935e-09 -5.7264557099e-09 
          -9.3792485741e-09 4.4385712419e-09 -2.4427626633e-09 
          4.3957208005e-09 -6.7691018746e-09 6.6411795811e-11 
          3.6593037598e-09 -9.0852538037e-09 -9.1491703226e-10 
          -1.1750532961e-08 -1.5500005712e-08 -3.3225948356e-11 
          5.4388757188e-09 -1.4925089964e-09 2.5266508303e-10 
          3.8211437849e-09 -5.6178751328e-10 2.9168105603e-10 
          -3.0952808622e-09 -8.6483796950e-10 -1.3325513367e-10 
          4.5372296182e-09 3.9189345308e-10 8.1855570167e-10 
          -1.6578002332e-09 -4.1144920609e-10 -5.3404652793e-11 
          -3.1766514821e-10 -3.6665086810e-10 4.4876331664e-10 
          5.9579310528e-09 -3.0271208306e-09 -1.4814671858e-09 
          4.6341968765e-09 1.2989872130e-09 -9.8256846507e-10 
          -3.0675602196e-10 4.0543763589e-10 -6.7556260752e-10 
          -1.8630899698e-09 5.6607750855e-09 2.8337421601e-10 
          1.7336890044e-09 6.2202271629e-10 -1.1683480579e-10 
          9.3699364869e-10 -1.2430991203e-09 -2.8743687251e-10 
          -1.5300293617e-09 -1.1932133166e-09 1.5783023605e-11 
          4.4800307453e-09 1.2495186402e-09 3.0750185298e-10 
          1.4319856793e-09 -3.9061780405e-10 1.2249500892e-10 
          2.9768790311e-10 -1.0208413952e-09 2.2529532526e-10 
          2.9081723529e-10 -6.1594144938e-10 -7.6027125476e-11 
          2.9746145608e-10 -1.4985126015e-09 2.4092846195e-10 
          1.0165472817e-09 -3.3789223019e-09 -5.4131617762e-10 
          -5.9825928128e-10 1.2327797699e-09 -2.7467517585e-11 
          -8.7726531941e-10 3.9339841811e-10 -2.1928831377e-10 
          -5.8331573451e-10 2.3856819121e-09 -4.1108369182e-10 
          2.2733774868e-09 -1.3815966797e-09 -3.7386688194e-10 
          -1.7978183140e-09 -9.5147725771e-11 -5.9186726997e-10 
          1.6579544691e-10 -9.7107252106e-11 1.0018816156e-11 
          6.7271269437e-10 -4.7602347474e-10 2.3808961508e-10 
          -3.2837454026e-09 -1.6715359044e-10 8.8861088765e-11 
          -1.4528932951e-09 7.3616387618e-11 7.3490685710e-10 
          1.2747092983e-10 1.8292486475e-10 5.1826737968e-10 
          -5.7951286107e-11 -1.4892145790e-10 4.2647416659e-10 
          -2.9599048057e-10 -1.3097747474e-10 7.3531494948e-10 
          -1.2368153478e-09 -1.4846864667e-10 7.6716232550e-10 
          2.4530902440e-09 -1.3084884677e-10 2.4973608153e-09 
          1.8139260989e-09 -6.9054447212e-10 -1.8248251822e-11 
          -6.2340871715e-10 -3.2884414408e-10 7.5850214021e-10 
          -2.0275083388e-09 -3.6079079864e-10 1.8255910414e-09 
          -8.1072341556e-10 -1.0745920278e-09 1.5625816205e-09 
          1.6569770482e-10 -8.0848931245e-10 4.0814662147e-10 
          -7.2313006676e-11 9.7616135672e-10 3.2666550617e-10 
          1.8522006836e-10 -3.2746972777e-10 -1.2718335497e-10 
          2.4403000048e-09 4.0231124556e-10 5.9386156195e-10 
          1.9711769471e-10 -6.7102554856e-10 2.2273142791e-09 
          4.8689543163e-10 -2.0981021305e-10 -1.6389359041e-10 
          -2.4287364028e-09 -1.9400217834e-09 -5.4052905742e-10 
          5.7648426223e-10 1.7649270739e-09 2.2032676509e-10 
          -1.1068413459e-09 -3.3959146250e-11 1.2693326306e-10 
          7.3269441129e-10 -6.5629128618e-10 1.1671978625e-09 
          7.5196859208e-10 -1.4227434004e-10 -3.8181620332e-10 
          -5.1061422279e-10 -1.1645763320e-09 5.9053171141e-10 
          -1.4534545621e-09 5.2976170770e-10 1.4683348793e-10 
          -5.2405910715e-11 5.4883804537e-10 3.9009299137e-10 
          7.0254417452e-11 -3.0567490566e-10 2.7731280370e-10 
          1.0949600770e-09 -2.2793009905e-09 4.4199775122e-10 
          -2.4398895010e-10 5.7951177665e-10 5.3602084702e-10 
          -1.8307447580e-10 -2.6517765983e-10 1.3467119636e-09 
          1.0624730592e-09 -1.6796202508e-10 -1.1066593103e-09 
          -5.8116658491e-11 -1.2607263100e-10 -1.4957700598e-10 
          -6.9477801467e-10 -9.9021836833e-10 -5.8510594610e-10 
          -1.7212052456e-09 -1.9380542396e-10 -4.6246673626e-10 
          -4.9351932798e-10 -1.1751808001e-10 2.5597308229e-10 
          3.1271762016e-09 -1.1360838892e-09 4.7217281511e-10 
          -2.2032006039e-10 -9.1303942754e-10 -3.7569524058e-10 
          -1.3279699163e-09 -4.2564887342e-10 -7.4395709360e-10 
          -1.2068146994e-10 -9.6687344007e-11 -1.6698883863e-10 
          1.7686701207e-09 6.5271445421e-10 4.2193522598e-10 
          -7.4342378249e-10 7.1219965024e-11 2.9670028061e-10 
          2.5276604308e-10 -1.7384500810e-09 7.6979830019e-11 
          2.2650537213e-10 5.8228150148e-10 4.0256641525e-10 
          -1.1841834861e-10 -2.0437248522e-10 2.0567774931e-10 
          -3.8011340242e-10 -2.9946127311e-10 -1.4078703660e-10 
          6.5270318663e-10 6.7483981902e-10 6.9754537695e-10 
          -9.2372172511e-10 8.5067035903e-10 -2.0932474022e-10 
          -7.2503906901e-10 2.1946666863e-09 1.7678972308e-09 
          -5.3558660727e-10 -7.0961487313e-10 -8.0146498120e-10 
          4.1449183281e-09 -3.7822767463e-10 2.1953880510e-09 
          -3.8007218528e-09 -9.7315471943e-10 -1.1179573351e-09 
          2.3085086984e-09 6.1927382190e-11 -7.1066070361e-10 
          3.6857510100e-10 4.2690965872e-10 -2.0385492584e-10 
          -1.4476983190e-09 5.5970931232e-10 -8.2835498498e-10 
          1.9739934007e-09 -6.9647458125e-10 -5.3649661931e-10 
          -7.1640073731e-10 2.9634785322e-11 -1.6917180456e-09 
          1.8407498035e-09 5.5242904247e-10 -1.2609797713e-09 
          -2.4772719338e-09 1.6874621929e-09 1.0629796400e-09 
          2.1454435909e-09 2.4721647847e-10 7.6827437294e-10 
          -2.0353350226e-09 -6.8380482198e-10 6.6816377132e-10 
          8.8528718326e-10 5.4685723904e-10 -6.9291170566e-10 
          -1.6184922851e-09 -5.4333971513e-10 -4.6081073893e-10 
          -3.7316159895e-09 -2.8695577998e-10 1.5333310338e-10 
          -4.8913406700e-10 -1.4666096025e-09 -5.1839998052e-10 
          -1.4819867629e-09 -3.4502250853e-10 -2.8864064832e-10 
          2.1157676331e-10 4.0521800033e-10 6.3887054726e-10 
          -1.9681685588e-09 -3.6966522215e-10 5.0816878055e-10 
          1.7616549968e-09 -5.8592869803e-10 2.4920503689e-10 
          -1.6307541342e-09 1.3763562063e-10 2.4001445470e-10 
          -6.0338513296e-11 -1.0264228802e-09 1.5833864575e-09 
          1.2256368464e-09 3.3543309337e-10 -1.1331386881e-09 
          1.6057357444e-10 -2.8556381946e-10 -8.4029126569e-10 
          2.5573056912e-09 1.0585943583e-09 4.1142489113e-09 
          -4.5059072048e-10 3.3453893391e-11 -5.9078225621e-10 
          -1.1989430901e-10 7.1184903412e-10 -3.9878420534e-10 
          -1.5378063886e-10 -9.3116319068e-10 9.8103264182e-10 
          -3.5430687301e-11 9.1787401850e-11 7.3221958595e-10 
          1.7317506725e-09 -1.1664660098e-09 1.0337853008e-10 
          4.1279009300e-10 -6.7449116895e-10 1.0589842744e-10 
          4.6911534784e-09 -1.2735580882e-10 -1.8689563833e-09 
          -2.7070364435e-09 7.3649158486e-10 1.8413315899e-10 
          8.9106025520e-10 1.3527404519e-09 -2.7174109404e-10 
          -3.4777403539e-09 -5.8864833013e-10 3.0174407534e-10 
          2.6140629102e-09 8.5830736549e-10 6.5695246398e-10 
          -1.7554807344e-09 -1.0358080709e-10 3.6678959172e-11 
          4.1235443307e-10 -3.6916195701e-10 3.0658795417e-10 
          2.9679114708e-10 -2.7729617715e-11 2.6394321392e-10 
          -5.0629071278e-10 -1.0008802745e-10 -5.0812394955e-11 
          6.8250009327e-10 2.9495137449e-10 -4.7955114400e-10 
          1.3514341463e-09 -1.3357380466e-09 -3.4895032402e-10 
          3.9096125998e-10 -1.0464640567e-09 3.2294729104e-11 
          2.1704104744e-10 -2.8447651321e-10 -4.2167734601e-10 
          4.1822356116e-10 2.7551098959e-10 7.1761336940e-10 
          -8.5036144927e-10 3.3290206697e-11 -1.0418790467e-10 
          3.1792831024e-10 4.5136869743e-10 1.3315150070e-09 
          5.3924878577e-11 -1.4369798662e-09 -4.2371462712e-11 
          -1.4951281864e-10 -1.0593164204e-09 -1.1008323791e-10 
          1.3659280006e-09 -3.3247814703e-11 -7.7552930958e-11 
          -4.1118793621e-10 -1.7494171619e-10 2.2254293647e-10 
          4.4704596330e-10 -1.8033047578e-10 -1.0403469993e-10 
          -1.7754728420e-10 2.1410068703e-09 -1.6832262043e-10 
          -3.4084512589e-12 5.0798045507e-10 5.1363127332e-10 
          8.7192880473e-11 -4.7468399742e-10 -6.5987607834e-11 
          1.2182124215e-09 -7.2736082708e-11 -1.0125324002e-09 
          -1.8106946856e-10 -1.2090680642e-10 6.5763518566e-10 
          4.5524193664e-10 8.4839760607e-11 -1.2490902484e-10 
          3.0421948008e-10 2.2049111546e-09 4.0856868157e-10 
          4.4060040559e-10 3.0497551662e-10 -5.1557219477e-10 
          8.8430889061e-11 -3.4356233149e-10 2.3217691857e-10 
        </DataArray>
        <DataArray type="Float64" Name="UnbalancedLoad" NumberOfComponents="3" format="ascii">
          0.0000000000e+00 0.0000000000e+00 0.0000000000e+00 
          0.0000000000e+00 0.0000000000e+00 0.0000000000e+00 
          0.0000000000e+00 0.0000000000e+00 0.0000000000e+00 
          0.0000000000e+00 0.0000000000e+00 0.0000000000e+00 
          0.0000000000e+00 0.0000000000e+00 0.0000000000e+00 
          0.0000000000e+00 0.0000000000e+00 0.0000000000e+00 
          0.0000000000e+00 0.0000000000e+00 0.0000000000e+00 
          0.0000000000e+00 0.0000000000e+00 0.0000000000e+00 
          0.0000000000e+00 0.0000000000e+00 0.0000000000e+00 
          0.0000000000e+00 0.0000000000e+00 0.0000000000e+00 
          0.0000000000e+00 0.0000000000e+00 0.0000000000e+00 
          0.0000000000e+00 0.0000000000e+00 0.0000000000e+00 
          0.0000000000e+00 0.0000000000e+00 0.0000000000e+00 
          0.0000000000e+00 0.0000000000e+00 0.0000000000e+00 
          0.0000000000e+00 0.0000000000e+00 0.0000000000e+00 
          0.0000000000e+00 0.0000000000e+00 0.0000000000e+00 
          0.0000000000e+00 0.0000000000e+00 0.0000000000e+00 
          0.0000000000e+00 0.0000000000e+00 0.0000000000e+00 
          0.0000000000e+00 0.0000000000e+00 0.0000000000e+00 
          0.0000000000e+00 0.0000000000e+00 0.0000000000e+00 
          0.0000000000e+00 0.0000000000e+00 0.0000000000e+00 
          0.0000000000e+00 0.0000000000e+00 0.0000000000e+00 
          0.0000000000e+00 0.0000000000e+00 0.0000000000e+00 
          0.0000000000e+00 0.0000000000e+00 0.0000000000e+00 
          0.0000000000e+00 0.0000000000e+00 0.0000000000e+00 
          0.0000000000e+00 0.0000000000e+00 0.0000000000e+00 
          0.0000000000e+00 0.0000000000e+00 0.0000000000e+00 
          0.0000000000e+00 0.0000000000e+00 0.0000000000e+00 
          0.0000000000e+00 0.0000000000e+00 0.0000000000e+00 
          0.0000000000e+00 0.0000000000e+00 0.0000000000e+00 
          0.0000000000e+00 0.0000000000e+00 0.0000000000e+00 
          0.0000000000e+00 0.0000000000e+00 0.0000000000e+00 
          0.0000000000e+00 0.0000000000e+00 0.0000000000e+00 
          0.0000000000e+00 0.0000000000e+00 0.0000000000e+00 
          0.0000000000e+00 0.0000000000e+00 0.0000000000e+00 
          0.0000000000e+00 0.0000000000e+00 0.0000000000e+00 
          0.0000000000e+00 0.0000000000e+00 0.0000000000e+00 
          0.0000000000e+00 0.0000000000e+00 0.0000000000e+00 
          0.0000000000e+00 0.0000000000e+00 0.0000000000e+00 
          0.0000000000e+00 0.0000000000e+00 0.0000000000e+00 
          0.0000000000e+00 0.0000000000e+00 0.0000000000e+00 
          0.0000000000e+00 0.0000000000e+00 0.0000000000e+00 
          0.0000000000e+00 0.0000000000e+00 0.0000000000e+00 
          0.0000000000e+00 0.0000000000e+00 0.0000000000e+00 
          0.0000000000e+00 0.0000000000e+00 0.0000000000e+00 
          0.0000000000e+00 0.0000000000e+00 0.0000000000e+00 
          0.0000000000e+00 0.0000000000e+00 0.0000000000e+00 
          0.0000000000e+00 0.0000000000e+00 0.0000000000e+00 
          0.0000000000e+00 0.0000000000e+00 0.0000000000e+00 
          0.0000000000e+00 0.0000000000e+00 0.0000000000e+00 
          0.0000000000e+00 0.0000000000e+00 0.0000000000e+00 
          0.0000000000e+00 0.0000000000e+00 0.0000000000e+00 
          0.0000000000e+00 0.0000000000e+00 0.0000000000e+00 
          0.0000000000e+00 0.0000000000e+00 0.0000000000e+00 
          0.0000000000e+00 0.0000000000e+00 0.0000000000e+00 
          0.0000000000e+00 0.0000000000e+00 0.0000000000e+00 
          0.0000000000e+00 0.0000000000e+00 0.0000000000e+00 
          0.0000000000e+00 0.0000000000e+00 0.0000000000e+00 
          0.0000000000e+00 0.0000000000e+00 0.0000000000e+00 
          0.0000000000e+00 0.0000000000e+00 0.0000000000e+00 
          0.0000000000e+00 0.0000000000e+00 0.0000000000e+00 
          0.0000000000e+00 0.0000000000e+00 0.0000000000e+00 
          0.0000000000e+00 0.0000000000e+00 0.0000000000e+00 
          0.0000000000e+00 0.0000000000e+00 0.0000000000e+00 
          0.0000000000e+00 0.0000000000e+00 0.0000000000e+00 
          0.0000000000e+00 0.0000000000e+00 0.0000000000e+00 
          0.0000000000e+00 0.0000000000e+00 0.0000000000e+00 
          0.0000000000e+00 0.0000000000e+00 0.0000000000e+00 
          0.0000000000e+00 0.0000000000e+00 0.0000000000e+00 
          0.0000000000e+00 0.0000000000e+00 0.0000000000e+00 
          0.0000000000e+00 0.0000000000e+00 0.0000000000e+00 
          0.0000000000e+00 0.0000000000e+00 0.0000000000e+00 
          0.0000000000e+00 0.0000000000e+00 0.0000000000e+00 
          0.0000000000e+00 0.0000000000e+00 0.0000000000e+00 
          0.0000000000e+00 0.0000000000e+00 0.0000000000e+00 
          0.0000000000e+00 0.0000000000e+00 0.0000000000e+00 
          0.0000000000e+00 0.0000000000e+00 0.0000000000e+00 
          0.0000000000e+00 0.0000000000e+00 0.0000000000e+00 
          0.0000000000e+00 0.0000000000e+00 0.0000000000e+00 
          0.0000000000e+00 0.0000000000e+00 0.0000000000e+00 
          0.0000000000e+00 0.0000000000e+00 0.0000000000e+00 
          0.0000000000e+00 0.0000000000e+00 0.0000000000e+00 
          0.0000000000e+00 0.0000000000e+00 0.0000000000e+00 
          0.0000000000e+00 0.0000000000e+00 0.0000000000e+00 
          0.0000000000e+00 0.0000000000e+00 0.0000000000e+00 
          0.0000000000e+00 0.0000000000e+00 0.0000000000e+00 
          0.0000000000e+00 0.0000000000e+00 0.0000000000e+00 
          0.0000000000e+00 0.0000000000e+00 0.0000000000e+00 
          0.0000000000e+00 0.0000000000e+00 0.0000000000e+00 
          0.0000000000e+00 0.0000000000e+00 0.0000000000e+00 
          0.0000000000e+00 0.0000000000e+00 0.0000000000e+00 
          0.0000000000e+00 0.0000000000e+00 0.0000000000e+00 
          0.0000000000e+00 0.0000000000e+00 0.0000000000e+00 
          0.0000000000e+00 0.0000000000e+00 0.0000000000e+00 
          0.0000000000e+00 0.0000000000e+00 0.0000000000e+00 
          0.0000000000e+00 0.0000000000e+00 0.0000000000e+00 
          0.0000000000e+00 0.0000000000e+00 0.0000000000e+00 
          0.0000000000e+00 0.0000000000e+00 0.0000000000e+00 
          0.0000000000e+00 0.0000000000e+00 0.0000000000e+00 
          0.0000000000e+00 0.0000000000e+00 0.0000000000e+00 
          0.0000000000e+00 0.0000000000e+00 0.0000000000e+00 
          0.0000000000e+00 0.0000000000e+00 0.0000000000e+00 
          0.0000000000e+00 0.0000000000e+00 0.0000000000e+00 
          0.0000000000e+00 0.0000000000e+00 0.0000000000e+00 
          0.0000000000e+00 0.0000000000e+00 0.0000000000e+00 
          0.0000000000e+00 0.0000000000e+00 0.0000000000e+00 
          0.0000000000e+00 0.0000000000e+00 0.0000000000e+00 
          0.0000000000e+00 0.0000000000e+00 0.0000000000e+00 
          0.0000000000e+00 0.0000000000e+00 0.0000000000e+00 
          0.0000000000e+00 0.0000000000e+00 0.0000000000e+00 
          0.0000000000e+00 0.0000000000e+00 0.0000000000e+00 
          0.0000000000e+00 0.0000000000e+00 0.0000000000e+00 
          0.0000000000e+00 0.0000000000e+00 0.0000000000e+00 
          0.0000000000e+00 0.0000000000e+00 0.0000000000e+00 
          0.0000000000e+00 0.0000000000e+00 0.0000000000e+00 
          0.0000000000e+00 0.0000000000e+00 0.0000000000e+00 
          0.0000000000e+00 0.0000000000e+00 0.0000000000e+00 
          0.0000000000e+00 0.0000000000e+00 0.0000000000e+00 
          0.0000000000e+00 0.0000000000e+00 0.0000000000e+00 
          0.0000000000e+00 0.0000000000e+00 0.0000000000e+00 
          0.0000000000e+00 0.0000000000e+00 0.0000000000e+00 
          0.0000000000e+00 0.0000000000e+00 0.0000000000e+00 
          0.0000000000e+00 0.0000000000e+00 0.0000000000e+00 
          0.0000000000e+00 0.0000000000e+00 0.0000000000e+00 
          0.0000000000e+00 0.0000000000e+00 0.0000000000e+00 
          0.0000000000e+00 0.0000000000e+00 0.0000000000e+00 
          0.0000000000e+00 0.0000000000e+00 0.0000000000e+00 
          0.0000000000e+00 0.0000000000e+00 0.0000000000e+00 
          0.0000000000e+00 0.0000000000e+00 0.0000000000e+00 
          0.0000000000e+00 0.0000000000e+00 0.0000000000e+00 
          0.0000000000e+00 0.0000000000e+00 0.0000000000e+00 
          0.0000000000e+00 0.0000000000e+00 0.0000000000e+00 
          0.0000000000e+00 0.0000000000e+00 0.0000000000e+00 
          0.0000000000e+00 0.0000000000e+00 0.0000000000e+00 
          0.0000000000e+00 0.0000000000e+00 0.0000000000e+00 
          0.0000000000e+00 0.0000000000e+00 0.0000000000e+00 
          0.0000000000e+00 0.0000000000e+00 0.0000000000e+00 
          0.0000000000e+00 0.0000000000e+00 0.0000000000e+00 
          0.0000000000e+00 0.0000000000e+00 0.0000000000e+00 
          0.0000000000e+00 0.0000000000e+00 0.0000000000e+00 
          0.0000000000e+00 0.0000000000e+00 0.0000000000e+00 
          0.0000000000e+00 0.0000000000e+00 0.0000000000e+00 
          0.0000000000e+00 0.0000000000e+00 0.0000000000e+00 
          0.0000000000e+00 0.0000000000e+00 0.0000000000e+00 
          0.0000000000e+00 0.0000000000e+00 0.0000000000e+00 
          0.0000000000e+00 0.0000000000e+00 0.0000000000e+00 
          0.0000000000e+00 0.0000000000e+00 0.0000000000e+00 
          0.0000000000e+00 0.0000000000e+00 0.0000000000e+00 
          0.0000000000e+00 0.0000000000e+00 0.0000000000e+00 
          0.0000000000e+00 0.0000000000e+00 0.0000000000e+00 
          0.0000000000e+00 0.0000000000e+00 0.0000000000e+00 
          0.0000000000e+00 0.0000000000e+00 0.0000000000e+00 
          0.0000000000e+00 0.0000000000e+00 0.0000000000e+00 
          0.0000000000e+00 0.0000000000e+00 0.0000000000e+00 
          0.0000000000e+00 0.0000000000e+00 0.0000000000e+00 
          0.0000000000e+00 0.0000000000e+00 0.0000000000e+00 
          0.0000000000e+00 0.0000000000e+00 0.0000000000e+00 
          0.0000000000e+00 0.0000000000e+00 0.0000000000e+00 
        </DataArray>
      </PointData>
      <CellData>
        <DataArray type="Int64" Name="ElementTag" format="ascii">
          0
        </DataArray>
      </CellData>
    </Piece>
  </UnstructuredGrid>
</VTKFile>
