<?xml version="1.0"?>
<VTKFile type="UnstructuredGrid" version="1.0" byte_order="LittleEndian" compressor="vtkZLibDataCompressor">
  <UnstructuredGrid>
    <Piece NumberOfPoints="158" NumberOfCells="1">
      <Points>
        <DataArray type="Float64" Name="Points" NumberOfComponents="3" format="ascii">
          1.7550000000e+00 -1.7550000000e+00 0.0000000000e+00 
          1.4140000000e+00 0.0000000000e+00 5.2300000000e+00 
          1.7550000000e+00 1.7550000000e+00 -0.0000000000e+00 
          1.4140000000e+00 -1.4140000000e+00 5.2300000000e+00 
          1.4140000000e+00 1.4140000000e+00 5.2300000000e+00 
          1.5840000000e+00 8.7800000000e-01 2.6150000000e+00 
          1.5840000000e+00 -8.7700000000e-01 2.6150000000e+00 
          1.5840000000e+00 1.5840000000e+00 2.6150000000e+00 
          1.5840000000e+00 -1.5840000000e+00 2.6150000000e+00 
          -0.0000000000e+00 1.4140000000e+00 5.2300000000e+00 
          -1.7550000000e+00 1.7550000000e+00 -0.0000000000e+00 
          -1.4140000000e+00 1.4140000000e+00 5.2300000000e+00 
          -8.7700000000e-01 1.5840000000e+00 2.6150000000e+00 
          8.7700000000e-01 1.5840000000e+00 2.6150000000e+00 
          -1.5840000000e+00 1.5840000000e+00 2.6150000000e+00 
          -1.4140000000e+00 -0.0000000000e+00 5.2300000000e+00 
          -1.7550000000e+00 -1.7550000000e+00 -0.0000000000e+00 
          -1.4140000000e+00 -1.4140000000e+00 5.2300000000e+00 
          -1.5840000000e+00 -8.7700000000e-01 2.6150000000e+00 
          -1.5840000000e+00 8.7700000000e-01 2.6150000000e+00 
          -1.5840000000e+00 -1.5840000000e+00 2.6150000000e+00 
          0.0000000000e+00 -1.4140000000e+00 5.2300000000e+00 
          8.7700000000e-01 -1.5840000000e+00 2.6150000000e+00 
          -8.7700000000e-01 -1.5840000000e+00 2.6150000000e+00 
          1.2750000000e+00 1.2750000000e+00 7.3500000000e+00 
          1.2750000000e+00 -1.2750000000e+00 7.3500000000e+00 
          1.1500000000e+00 -1.1500000000e+00 9.2700000000e+00 
          1.1500000000e+00 1.1500000000e+00 9.2700000000e+00 
          1.0370000000e+00 -1.0370000000e+00 1.1000000000e+01 
          1.0370000000e+00 1.0370000000e+00 1.1000000000e+01 
          -1.2750000000e+00 1.2750000000e+00 7.3500000000e+00 
          -1.1500000000e+00 1.1500000000e+00 9.2700000000e+00 
          -1.0370000000e+00 1.0370000000e+00 1.1000000000e+01 
          -1.2750000000e+00 -1.2750000000e+00 7.3500000000e+00 
          -1.1500000000e+00 -1.1500000000e+00 9.2700000000e+00 
          -1.0370000000e+00 -1.0370000000e+00 1.1000000000e+01 
          9.3500000000e-01 9.3500000000e-01 1.2560000000e+01 
          9.3500000000e-01 -9.3500000000e-01 1.2560000000e+01 
          8.4300000000e-01 8.4300000000e-01 1.3960000000e+01 
          8.4300000000e-01 -8.4300000000e-01 1.3960000000e+01 
          7.6000000000e-01 7.6000000000e-01 1.5240000000e+01 
          7.6000000000e-01 -7.6000000000e-01 1.5240000000e+01 
          -9.3500000000e-01 9.3500000000e-01 1.2560000000e+01 
          -8.4300000000e-01 8.4300000000e-01 1.3960000000e+01 
          -7.6000000000e-01 7.6000000000e-01 1.5240000000e+01 
          -9.3500000000e-01 -9.3500000000e-01 1.2560000000e+01 
          -8.4300000000e-01 -8.4300000000e-01 1.3960000000e+01 
          -7.6000000000e-01 -7.6000000000e-01 1.5240000000e+01 
          7.6000000000e-01 -7.6000000000e-01 1.6240000000e+01 
          7.6000000000e-01 7.6000000000e-01 1.6240000000e+01 
          7.6000000000e-01 0.0000000000e+00 1.6240000000e+01 
          7.6000000000e-01 7.6000000000e-01 1.7340000000e+01 
          7.6000000000e-01 -7.6000000000e-01 1.7340000000e+01 
          7.6000000000e-01 0.0000000000e+00 1.7890000000e+01 
          7.6000000000e-01 -7.6000000000e-01 1.9440000000e+01 
          7.6000000000e-01 7.6000000000e-01 1.9440000000e+01 
          7.6000000000e-01 -7.6000000000e-01 2.1640000000e+01 
          7.6000000000e-01 7.6000000000e-01 2.1640000000e+01 
          7.6000000000e-01 0.0000000000e+00 1.9440000000e+01 
          7.6000000000e-01 7.6000000000e-01 1.8440000000e+01 
          7.6000000000e-01 -7.6000000000e-01 1.8440000000e+01 
          7.6000000000e-01 -7.6000000000e-01 2.0540000000e+01 
          7.6000000000e-01 7.6000000000e-01 2.0540000000e+01 
          7.6000000000e-01 0.0000000000e+00 2.1090000000e+01 
          7.6000000000e-01 7.6000000000e-01 2.2640000000e+01 
          7.6000000000e-01 -7.6000000000e-01 2.2640000000e+01 
          -7.6000000000e-01 7.6000000000e-01 1.6240000000e+01 
          -7.6000000000e-01 7.6000000000e-01 1.8440000000e+01 
          -0.0000000000e+00 7.6000000000e-01 1.6240000000e+01 
          -7.6000000000e-01 7.6000000000e-01 1.9440000000e+01 
          -7.6000000000e-01 7.6000000000e-01 2.1640000000e+01 
          -7.6000000000e-01 7.6000000000e-01 1.7340000000e+01 
          -0.0000000000e+00 7.6000000000e-01 1.7890000000e+01 
          -0.0000000000e+00 7.6000000000e-01 1.9440000000e+01 
          -7.6000000000e-01 7.6000000000e-01 2.0540000000e+01 
          0.0000000000e+00 7.6000000000e-01 2.1090000000e+01 
          -7.6000000000e-01 7.6000000000e-01 2.2640000000e+01 
          -0.0000000000e+00 5.2600000000e-01 2.3499000000e+01 
          3.9900000000e-01 4.0400000000e-01 2.3950000000e+01 
          -3.9900000000e-01 4.0400000000e-01 2.3950000000e+01 
          -7.6000000000e-01 -7.6000000000e-01 1.6240000000e+01 
          -7.6000000000e-01 -7.6000000000e-01 1.8440000000e+01 
          -7.6000000000e-01 -0.0000000000e+00 1.6240000000e+01 
          -7.6000000000e-01 -7.6000000000e-01 1.9440000000e+01 
          -7.6000000000e-01 -7.6000000000e-01 2.1640000000e+01 
          -7.6000000000e-01 -7.6000000000e-01 1.7340000000e+01 
          -7.6000000000e-01 0.0000000000e+00 1.7890000000e+01 
          -7.6000000000e-01 -0.0000000000e+00 1.9440000000e+01 
          -7.6000000000e-01 -7.6000000000e-01 2.0540000000e+01 
          -7.6000000000e-01 -0.0000000000e+00 2.1090000000e+01 
          -7.6000000000e-01 -7.6000000000e-01 2.2640000000e+01 
          0.0000000000e+00 -7.6000000000e-01 1.6240000000e+01 
          0.0000000000e+00 -7.6000000000e-01 1.7890000000e+01 
          0.0000000000e+00 -7.6000000000e-01 1.9440000000e+01 
          0.0000000000e+00 -7.6000000000e-01 2.1090000000e+01 
          0.0000000000e+00 -5.2600000000e-01 2.3499000000e+01 
          3.9900000000e-01 -4.0400000000e-01 2.3950000000e+01 
          -3.9900000000e-01 -4.0400000000e-01 2.3950000000e+01 
          -0.0000000000e+00 -3.3500000000e+00 2.1640000000e+01 
          -3.8000000000e-01 -2.0550000000e+00 2.2140000000e+01 
          -3.8000000000e-01 -2.0550000000e+00 2.1640000000e+01 
          0.0000000000e+00 3.3500000000e+00 2.1640000000e+01 
          -3.8000000000e-01 2.0550000000e+00 2.2140000000e+01 
          -3.8000000000e-01 2.0550000000e+00 2.1640000000e+01 
          3.8000000000e-01 2.0550000000e+00 2.2140000000e+01 
          3.8000000000e-01 2.0550000000e+00 2.1640000000e+01 
          3.8000000000e-01 -2.0550000000e+00 2.2140000000e+01 
          3.8000000000e-01 -2.0550000000e+00 2.1640000000e+01 
          -0.0000000000e+00 -3.3500000000e+00 1.8440000000e+01 
          -3.8000000000e-01 -2.0550000000e+00 1.8940000000e+01 
          -3.8000000000e-01 -2.0550000000e+00 1.8440000000e+01 
          -0.0000000000e+00 3.3500000000e+00 1.8440000000e+01 
          -3.8000000000e-01 2.0550000000e+00 1.8940000000e+01 
          -3.8000000000e-01 2.0550000000e+00 1.8440000000e+01 
          3.8000000000e-01 2.0550000000e+00 1.8940000000e+01 
          3.8000000000e-01 2.0550000000e+00 1.8440000000e+01 
          3.8000000000e-01 -2.0550000000e+00 1.8940000000e+01 
          3.8000000000e-01 -2.0550000000e+00 1.8440000000e+01 
          -0.0000000000e+00 -3.3500000000e+00 1.5240000000e+01 
          -3.8000000000e-01 -2.0550000000e+00 1.5740000000e+01 
          -3.8000000000e-01 -2.0550000000e+00 1.5240000000e+01 
          -0.0000000000e+00 3.3500000000e+00 1.5240000000e+01 
          -3.8000000000e-01 2.0550000000e+00 1.5740000000e+01 
          -3.8000000000e-01 2.0550000000e+00 1.5240000000e+01 
          3.8000000000e-01 2.0550000000e+00 1.5740000000e+01 
          3.8000000000e-01 2.0550000000e+00 1.5240000000e+01 
          3.8000000000e-01 -2.0550000000e+00 1.5740000000e+01 
          3.8000000000e-01 -2.0550000000e+00 1.5240000000e+01 
          -5.2400000000e-01 0.0000000000e+00 2.3496000000e+01 
          5.2400000000e-01 0.0000000000e+00 2.3496000000e+01 
          4.0000000000e-02 5.0000000000e-02 2.5250000000e+01 
          -4.0000000000e-02 5.0000000000e-02 2.5250000000e+01 
          -4.0000000000e-02 -5.0000000000e-02 2.5250000000e+01 
          4.0000000000e-02 -5.0000000000e-02 2.5250000000e+01 
          1.3410000000e+00 0.0000000000e+00 6.3450000000e+00 
          1.2090000000e+00 0.0000000000e+00 8.3600000000e+00 
          1.0900000000e+00 -0.0000000000e+00 1.0180000000e+01 
          -0.0000000000e+00 1.3410000000e+00 6.3450000000e+00 
          0.0000000000e+00 1.2090000000e+00 8.3600000000e+00 
          -0.0000000000e+00 1.0900000000e+00 1.0180000000e+01 
          -1.3410000000e+00 0.0000000000e+00 6.3450000000e+00 
          -1.2090000000e+00 0.0000000000e+00 8.3600000000e+00 
          -1.0900000000e+00 -0.0000000000e+00 1.0180000000e+01 
          -0.0000000000e+00 -1.3410000000e+00 6.3450000000e+00 
          0.0000000000e+00 -1.2090000000e+00 8.3600000000e+00 
          0.0000000000e+00 -1.0900000000e+00 1.0180000000e+01 
          9.8300000000e-01 0.0000000000e+00 1.1820000000e+01 
          8.8700000000e-01 0.0000000000e+00 1.3296000000e+01 
          8.0000000000e-01 -0.0000000000e+00 1.4633000000e+01 
          0.0000000000e+00 9.8300000000e-01 1.1820000000e+01 
          -0.0000000000e+00 8.8700000000e-01 1.3296000000e+01 
          0.0000000000e+00 8.0000000000e-01 1.4633000000e+01 
          -9.8300000000e-01 0.0000000000e+00 1.1820000000e+01 
          -8.8700000000e-01 0.0000000000e+00 1.3296000000e+01 
          -8.0000000000e-01 0.0000000000e+00 1.4633000000e+01 
          0.0000000000e+00 -9.8300000000e-01 1.1820000000e+01 
          0.0000000000e+00 -8.8700000000e-01 1.3296000000e+01 
          0.0000000000e+00 -8.0000000000e-01 1.4633000000e+01 
        </DataArray>
      </Points>
      <Cells>
        <DataArray type="Int64" Name="connectivity" format="ascii">
          0
          1
          2
          3
          4
          5
          6
          7
          8
          9
          10
          11
          12
          13
          14
          15
          16
          17
          18
          19
          20
          21
          22
          23
          24
          25
          26
          27
          28
          29
          30
          31
          32
          33
          34
          35
          36
          37
          38
          39
          40
          41
          42
          43
          44
          45
          46
          47
          48
          49
          50
          51
          52
          53
          54
          55
          56
          57
          58
          59
          60
          61
          62
          63
          64
          65
          66
          67
          68
          69
          70
          71
          72
          73
          74
          75
          76
          77
          78
          79
          80
          81
          82
          83
          84
          85
          86
          87
          88
          89
          90
          91
          92
          93
          94
          95
          96
          97
          98
          99
          100
          101
          102
          103
          104
          105
          106
          107
          108
          109
          110
          111
          112
          113
          114
          115
          116
          117
          118
          119
          120
          121
          122
          123
          124
          125
          126
          127
          128
          129
          130
          131
          132
          133
          134
          135
          136
          137
          138
          139
          140
          141
          142
          143
          144
          145
          146
          147
          148
          149
          150
          151
          152
          153
          154
          155
          156
          157
        </DataArray>
        <DataArray type="Int64" Name="offsets" format="ascii">
          158
        </DataArray>
        <DataArray type="Int64" Name="types" format="ascii">
          2
        </DataArray>
      </Cells>
      <PointData>
        <DataArray type="Int64" Name="NodeTag" format="ascii">
          1
          2
          3
          4
          5
          6
          7
          8
          9
          10
          11
          12
          13
          14
          15
          16
          17
          18
          19
          20
          21
          22
          23
          24
          25
          26
          27
          28
          29
          30
          31
          32
          33
          34
          35
          36
          37
          38
          39
          40
          41
          42
          43
          44
          45
          46
          47
          48
          49
          50
          51
          52
          53
          54
          55
          56
          57
          58
          59
          60
          61
          62
          63
          64
          65
          66
          67
          68
          69
          70
          71
          72
          73
          74
          75
          76
          77
          78
          79
          80
          81
          82
          83
          84
          85
          86
          87
          88
          89
          90
          91
          92
          93
          94
          95
          96
          97
          98
          99
          100
          101
          102
          103
          104
          105
          106
          107
          108
          109
          110
          111
          112
          113
          114
          115
          116
          117
          118
          119
          120
          121
          122
          123
          124
          125
          126
          127
          128
          129
          130
          131
          132
          133
          134
          135
          136
          137
          138
          139
          140
          141
          142
          143
          144
          145
          146
          147
          148
          149
          150
          151
          152
          153
          154
          155
          156
          157
          158
        </DataArray>
        <DataArray type="Float64" Name="Displacement" NumberOfComponents="3" format="ascii">
          0.0000000000e+00 0.0000000000e+00 0.0000000000e+00 
          -6.4521182023e-05 -1.6562737428e-04 -6.8112745375e-05 
          0.0000000000e+00 0.0000000000e+00 0.0000000000e+00 
          -2.0826825674e-05 -1.6928492782e-04 -4.5536528938e-04 
          5.8444328559e-05 -1.6986388794e-04 -4.5475561222e-04 
          -1.0556503393e-03 -8.8682244067e-04 -3.8394986858e-04 
          -6.4030633716e-04 6.4842592126e-04 -3.3169908032e-04 
          -6.7991335293e-04 -8.8601327262e-04 -3.3637028260e-04 
          -8.1962361685e-04 6.4785066404e-04 -3.3928266790e-04 
          5.7441550244e-05 -6.9363642371e-05 -7.4807134951e-05 
          0.0000000000e+00 0.0000000000e+00 0.0000000000e+00 
          5.9203819646e-05 -1.1947924405e-04 -4.7202514332e-04 
          8.0337664526e-04 -8.2631492363e-04 -3.6454303598e-04 
          -6.8098651412e-04 -4.9613942912e-04 -3.2199400671e-04 
          8.0221248591e-04 -8.7390870819e-04 -3.4994513316e-04 
          2.4856692387e-04 -1.1377221915e-04 -8.0322092255e-05 
          0.0000000000e+00 0.0000000000e+00 0.0000000000e+00 
          -1.3829844967e-05 -1.1268664738e-04 -4.5670915316e-04 
          5.1745594043e-04 6.8481008348e-04 -3.2891304034e-04 
          7.9595189955e-04 -8.7477405220e-04 -3.7065997499e-04 
          7.8812498394e-04 6.8407424199e-04 -3.3948320981e-04 
          -1.7236495656e-05 2.4931057120e-05 -6.0917969941e-05 
          -8.1988451399e-04 8.8033725142e-04 -3.6898414840e-04 
          7.8851668371e-04 1.0138813224e-03 -3.7357502438e-04 
          9.2725843574e-05 -1.1890153166e-04 -6.1051893649e-04 
          5.6972608616e-05 -2.8971669630e-04 -6.0099627307e-04 
          -3.9728937301e-05 -2.4663120055e-04 -7.4666227734e-04 
          1.2632452036e-04 -1.5096986745e-04 -7.5372840248e-04 
          -3.3356672275e-05 -2.0879840765e-04 -8.5829880384e-04 
          5.2652962356e-06 -1.5726344579e-04 -8.7632898501e-04 
          1.7754130461e-06 -6.5443530691e-05 -6.2917283106e-04 
          -7.4882206696e-05 -4.3204317515e-05 -7.6485846021e-04 
          1.7087604916e-05 -2.6259671577e-05 -8.8171755585e-04 
          -1.4580380377e-04 -1.8240709076e-04 -6.0262978937e-04 
          -9.9787945391e-05 -1.5074843736e-04 -7.3824593287e-04 
          -1.1541535065e-04 -8.4657810114e-05 -8.4337641986e-04 
          7.8175646368e-05 -1.1536802362e-04 -9.9024540655e-04 
          -2.1007611661e-05 -2.2514625165e-04 -9.7635359246e-04 
          4.3871588561e-05 -1.1714695268e-04 -1.0973323663e-03 
          -4.8327190159e-07 -2.0241747174e-04 -1.0786812018e-03 
          4.0090766975e-05 -1.5705518467e-04 -1.1818836024e-03 
          -2.7225169674e-06 -1.4487339332e-04 -1.1636468495e-03 
          -6.1028240294e-05 3.1154647425e-05 -9.8768678662e-04 
          -1.5415164585e-05 7.9699632272e-05 -1.0846350982e-03 
          1.4353054930e-05 6.4286244610e-05 -1.1618532983e-03 
          -1.0489404310e-04 -5.1830693817e-05 -9.5470754567e-04 
          -8.1747044137e-05 -1.2130721458e-05 -1.0521470590e-03 
          -2.6890226972e-05 8.0364016124e-05 -1.1375284545e-03 
          -1.1730197429e-06 -1.5430874013e-04 -1.2659950871e-03 
          4.7609041506e-05 -1.3611242061e-04 -1.2887281133e-03 
          6.9269954856e-06 -1.4611481012e-04 -1.2206281192e-03 
          2.3263460569e-04 1.7815694071e-05 -1.3883832185e-03 
          1.5756375282e-04 -3.0829873426e-04 -1.3616279613e-03 
          3.3789389915e-04 -1.4197527041e-04 -1.5765186008e-03 
          7.4037627487e-05 -1.3114916700e-04 -1.5602608971e-03 
          1.8756188127e-04 -9.6464449848e-05 -1.6151752960e-03 
          1.5117299422e-04 6.1867064285e-06 -1.6780079210e-03 
          3.2209527187e-04 -3.3028368577e-05 -1.7614729935e-03 
          7.0924033998e-04 -1.1327775537e-04 -1.5464985050e-03 
          1.4597900274e-04 -1.5056782572e-04 -1.5461344864e-03 
          5.3920897194e-05 -1.1586936665e-04 -1.5045867108e-03 
          1.8145131347e-04 -1.6674888133e-04 -1.6058579068e-03 
          3.4350590585e-04 3.1420973002e-05 -1.6755362798e-03 
          4.9696670661e-04 -4.3108726063e-05 -1.7641802987e-03 
          3.8057055632e-04 6.8604502120e-05 -1.7928003272e-03 
          1.8854744612e-04 2.1782637124e-05 -1.7033523979e-03 
          5.2278904867e-05 1.0017334148e-04 -1.2567024053e-03 
          1.3385767113e-04 1.0554047586e-04 -1.4859492979e-03 
          4.9878573115e-05 1.4218124846e-04 -1.2308290806e-03 
          1.9125356295e-04 1.6286072994e-04 -1.5483623834e-03 
          3.1829251884e-04 2.2359169650e-04 -1.6826939965e-03 
          -4.5806684910e-05 2.5734281580e-04 -1.3431450671e-03 
          1.1386082686e-04 -1.5247548114e-04 -1.5347393328e-03 
          1.8962686479e-04 -3.4766580796e-04 -1.5537698572e-03 
          1.6992882768e-04 2.8877149501e-04 -1.6011161204e-03 
          2.8772505674e-04 -2.0405099805e-04 -1.7414581917e-03 
          3.7445506821e-04 3.1822929142e-04 -1.7120113030e-03 
          3.8602498283e-04 1.9396077546e-04 -1.7625038253e-03 
          3.9196530049e-04 1.7111126304e-04 -1.7752816790e-03 
          3.8961637338e-04 3.0918599819e-04 -1.7302354441e-03 
          3.9663127338e-06 8.1296020641e-05 -1.2344496534e-03 
          4.6346003124e-05 1.4208536504e-04 -1.4575940790e-03 
          1.1160590932e-04 9.0639778816e-05 -1.1910982970e-03 
          7.7315286128e-05 1.2710627519e-04 -1.5098760911e-03 
          1.4620579361e-04 2.6370944835e-04 -1.6196673492e-03 
          -1.1070643551e-04 -4.6258619434e-05 -1.3224419202e-03 
          -1.6668758767e-04 1.1325931410e-04 -1.5215509705e-03 
          -5.5130067086e-04 1.4597955448e-04 -1.4881134242e-03 
          3.9386483025e-05 9.6957655013e-05 -1.5509904034e-03 
          -1.0140505894e-04 2.1591613630e-04 -1.6956859994e-03 
          1.8553372061e-04 2.7075456817e-04 -1.6439396619e-03 
          1.0628364273e-06 -4.2140155131e-05 -1.2097390039e-03 
          3.5452599194e-05 8.0792994314e-05 -1.5034883911e-03 
          7.6016087094e-05 2.1098152191e-04 -1.5108123450e-03 
          1.2896012253e-04 2.3060696761e-04 -1.6637517314e-03 
          2.5979136615e-04 2.6737504524e-04 -1.7153459272e-03 
          2.9602543586e-04 1.7408055418e-04 -1.7238019723e-03 
          2.9730550240e-04 3.1229065684e-04 -1.6962235531e-03 
          -2.8754820457e-04 1.6111937581e-04 -1.8556259365e-03 
          -6.1653492239e-05 1.8949106998e-04 -1.7242114421e-03 
          -4.8217542766e-05 2.1937326080e-04 -1.7266573242e-03 
          7.6405273186e-04 6.9291128527e-05 -2.2171853044e-03 
          5.7763898961e-04 2.1772419337e-04 -1.9314296697e-03 
          5.6288382110e-04 1.3992515655e-04 -1.9338109316e-03 
          5.7754437130e-04 9.7083046717e-05 -1.9683839705e-03 
          5.6273028157e-04 2.3546976327e-05 -1.9706165225e-03 
          -6.1850646445e-05 6.8169597827e-05 -1.7412610101e-03 
          -4.8284092490e-05 7.7936687541e-05 -1.7434222850e-03 
          -3.9334594934e-04 3.8556606230e-05 -1.7866253297e-03 
          -1.3302773215e-04 5.9317585592e-05 -1.6028525531e-03 
          -1.4051720166e-04 1.0010320192e-04 -1.6051992862e-03 
          5.8516483039e-04 -4.9615193618e-05 -1.9410159340e-03 
          3.5248255132e-04 9.7368832041e-05 -1.6999202379e-03 
          3.5029102593e-04 3.0349329716e-05 -1.7022605469e-03 
          3.5155265870e-04 -4.8342887887e-05 -1.7191415205e-03 
          3.5012396272e-04 -1.0488726015e-04 -1.7213220903e-03 
          -1.3371259583e-04 -8.4056905483e-05 -1.6276613660e-03 
          -1.4056065199e-04 -4.7279968412e-05 -1.6298555931e-03 
          -4.0556307434e-04 -2.7959656968e-06 -1.4840054002e-03 
          -2.7550612382e-04 -2.3445432874e-05 -1.2884322120e-03 
          -2.6131255958e-04 2.6028217094e-05 -1.2908455885e-03 
          4.2288399225e-04 -7.4220435580e-05 -1.5659291688e-03 
          2.3005072818e-04 5.0047247730e-05 -1.3560393160e-03 
          2.4725184349e-04 -1.3226127313e-05 -1.3583872451e-03 
          2.3018549269e-04 -6.2533138944e-05 -1.3458295579e-03 
          2.4738245682e-04 -1.1094000483e-04 -1.3480299246e-03 
          -2.7561363581e-04 -9.5930586465e-05 -1.3065956760e-03 
          -2.6129321463e-04 -5.6929202031e-05 -1.3087275350e-03 
          3.8342735361e-04 3.0525843875e-04 -1.7276380151e-03 
          3.2051868579e-04 1.2785132687e-04 -1.7593664974e-03 
          4.3445738055e-04 3.2026815292e-04 -1.7280445970e-03 
          4.3450195608e-04 3.2973731109e-04 -1.7399217613e-03 
          4.2274525354e-04 3.2983499653e-04 -1.7386241672e-03 
          4.2270862313e-04 3.2026848977e-04 -1.7295646651e-03 
          -6.3335100316e-04 -1.9021066816e-04 -5.3175696515e-04 
          -8.6691032179e-04 -2.0315408676e-04 -7.6848721541e-04 
          -2.1026207823e-04 -1.9137210784e-04 -8.4389133037e-04 
          5.3702019307e-05 -6.0646100180e-03 -9.1268072750e-04 
          3.5543078393e-05 -1.3810776047e-03 -7.4574544760e-04 
          1.7377782682e-05 -6.7088297613e-04 -9.2981558530e-04 
          6.5081503547e-03 -1.2249672657e-04 -9.3718745267e-04 
          1.5426831031e-03 -1.1193670857e-04 -7.9920964847e-04 
          -7.9597175364e-05 -7.6784625932e-05 -8.2798657125e-04 
          -3.2548222285e-05 -3.7830881638e-03 -2.3692356339e-04 
          -5.9872271642e-05 -3.3733580426e-03 -5.1837478798e-04 
          -7.4497532824e-05 -5.4871819602e-04 -7.7155900967e-04 
          1.1746020646e-04 -1.7656480916e-04 -9.0511046076e-04 
          1.3821053755e-05 -1.6532203172e-04 -1.0476404592e-03 
          1.3406287884e-04 -1.5538979257e-04 -1.1576218674e-03 
          8.4816731755e-06 -5.4209792542e-04 -9.2320619195e-04 
          1.0229159750e-05 -5.2831917508e-04 -1.1012637803e-03 
          1.9851939207e-05 2.4370455035e-05 -1.1422015375e-03 
          -3.9427640506e-04 -3.2448751636e-05 -8.9317271106e-04 
          -2.5862408926e-04 1.2747871977e-05 -1.0079587662e-03 
          -1.9653981178e-04 5.4954216179e-05 -1.1357326668e-03 
          -7.0997107144e-05 9.1880651317e-06 -9.2268266812e-04 
          -5.3456578058e-05 -2.0095227280e-04 -1.0150450009e-03 
          -2.8505700676e-05 -7.5579102944e-05 -1.1290276830e-03 
        </DataArray>
        <DataArray type="Float64" Name="Reaction" NumberOfComponents="3" format="ascii">
          -5.5165939651e+03 7.4549299338e+03 8.1559020030e+04 
          4.2971040948e+01 -3.3542957427e+02 4.4456893049e+00 
          -6.2535083053e+03 -4.0245408622e+03 7.3696998667e+04 
          2.0067871848e+02 -8.4818588375e+02 -3.8663194771e+02 
          6.3290945784e+02 -1.3056508234e+02 -5.0666494605e+02 
          -1.7724658728e+02 -2.3891826524e+02 -3.5061292473e+00 
          1.0046986184e+02 -3.1474678254e+01 -2.5443283827e+00 
          3.7611496203e+02 -9.9906170396e+01 4.1082336059e-01 
          -2.9581029702e+02 -1.4691325149e+02 6.9006943707e-01 
          4.6219800278e+01 5.4610637810e+02 3.1538531453e+00 
          5.1212424601e+03 -4.1838555358e+03 7.2685617239e+04 
          -3.6577944259e+02 -7.3962797434e+02 -3.4106427735e+02 
          -5.9097747611e+01 2.0928050366e+02 -2.4386046737e+00 
          3.0199566815e+02 4.7559360372e+02 -4.1556582889e+00 
          -2.3374390773e+01 -2.7147106465e+02 1.0683331028e-01 
          5.9136172177e+02 -4.0187464550e+02 8.7774844118e+00 
          5.9163451556e+03 6.9839022979e+03 8.1418596053e+04 
          -4.3101010319e+02 -5.3437996273e+02 -1.9996892174e+02 
          -1.6662319100e+02 -1.7222795431e+02 -7.7606250706e+00 
          -3.1227597307e+02 -4.5128141456e+02 -2.0790624736e+00 
          1.5338751982e+02 -3.0551240668e+02 7.5432338119e-01 
          -1.5515647156e+02 9.2693986593e+02 3.4175011698e+00 
          -5.0981128820e+02 1.7848150942e+02 -1.5911088130e+00 
          4.2992986842e+02 3.6145138446e+02 -6.9294045222e+00 
          -3.2746436312e+00 -3.9457765061e+02 4.1302099437e+02 
          4.2498411386e+02 -1.1649891858e+02 3.7609825012e+02 
          3.2182717220e+02 -3.7441842459e+02 1.1827219568e+02 
          1.2764595590e+03 3.8856484130e+02 2.4621557936e+02 
          -3.7579021437e+02 5.3374529302e+02 1.8140262883e+00 
          -6.8005098716e+02 -2.9000479232e+02 3.6877980677e+01 
          5.7236795570e+01 -5.7383354558e+02 1.5817971172e+02 
          -1.3625342897e+03 3.0730392977e+02 2.6053232327e+02 
          3.9392526049e+02 -2.0455770344e+02 3.3801443719e+01 
          -6.5265240096e+02 2.1795573121e+02 1.4708751406e+02 
          -8.0061151032e+02 -4.1370857242e+02 1.2599187839e+02 
          4.1328003493e+01 2.1862477188e+02 1.5125734472e+00 
          1.4266138357e+02 4.4159388242e+02 -1.2356158439e+00 
          3.9381827931e+01 -1.6983774040e+02 6.6953324991e+00 
          -3.1580725417e+01 -2.7872773232e+01 3.0503735812e+00 
          7.3540062429e+00 2.6636200475e+02 -2.5424892543e+00 
          -7.4941252100e+01 2.2518727321e+02 5.0523954293e-01 
          7.4153523135e+01 1.3131298802e+02 2.1470900467e+00 
          -2.2295288297e+02 1.8168151057e+02 1.2929918738e+00 
          -3.6525319694e+01 1.0755757606e+02 7.1647662824e+00 
          -9.9964231049e+01 1.9742054969e+02 7.6264333350e-01 
          -1.8251669953e+02 -1.6787432870e+01 6.2369433847e+00 
          -3.9792607993e+01 1.5842892229e+02 5.4731210382e-01 
          4.4943364393e+01 1.1895758613e+02 -9.6577259812e-01 
          4.9583479942e+01 3.5533692385e+01 -8.6251024027e-01 
          -2.2050932117e+01 4.3285421117e+01 -7.7781144631e-01 
          -5.2995118261e+01 2.1208014609e+01 -1.3989359122e+00 
          -5.9254749539e+01 -2.3762547639e+01 7.7142874913e+00 
          -1.4977936465e+01 6.0961938883e+01 1.2640789294e+00 
          2.5463333592e+02 -5.6984387194e+00 -2.9466760604e-01 
          3.8613710958e+01 -9.8256369883e+01 7.9391435298e-01 
          2.0330539282e+01 2.5935287013e+01 8.2749354043e-01 
          -5.5075071269e+01 -1.3837257819e+01 2.1561454844e+00 
          9.7159787255e+01 3.5046631094e+01 1.1853846886e+00 
          1.1535743684e+03 -3.5641285538e+01 6.6377106309e+00 
          -1.6538728383e+01 -2.5228714865e+01 -1.4674313368e+01 
          4.4243052940e+01 -1.5473850451e+02 -3.0166139840e+01 
          -5.9520819918e+01 4.6993741711e+01 1.5479408796e+01 
          8.6971473459e+01 -7.3894810601e+01 2.1020987995e+00 
          2.5835713686e+02 6.2089320308e-01 7.5618961418e-01 
          7.6504493644e+01 7.3435156816e+01 2.1219441965e+00 
          -3.1485695398e+01 9.2726713257e+01 2.7142322641e-01 
          -6.2751419431e+01 9.8190696540e+01 -9.4700719761e-01 
          -6.7815164706e+01 -3.0905658334e+01 -2.8894361783e+01 
          -3.1229414632e+01 5.8181575332e+02 -9.6090251371e+00 
          -3.3307309233e+01 4.6750922226e+01 7.9452192242e-01 
          7.7345233357e+01 6.8445165593e+01 6.7720920092e+00 
          -3.8420627343e+01 -2.0814317989e+00 6.6708256721e+00 
          -2.8415412996e+01 -2.4637509243e+02 1.7166836471e+00 
          4.7279950527e+01 -3.4907457603e+02 8.5077452452e+00 
          1.6708253082e+01 6.5181878940e+01 1.5125298745e+01 
          2.9390134463e+01 -3.6524799071e+02 7.1140225223e+00 
          8.8349107072e+01 2.2899501950e+02 -7.9449295595e-01 
          2.0210636054e+01 6.4769272703e+01 1.4622380514e-02 
          1.1918634699e+01 1.0936462182e+02 1.4732376910e+00 
          2.0735733597e+01 1.0352257380e+02 1.5034239489e+00 
          6.4040210692e+01 5.8722502130e+01 -4.9099185068e-01 
          3.6141618727e+01 -4.2808615144e+01 -3.7392868250e+01 
          2.9201695772e+02 1.3755097323e+02 1.1934529676e-01 
          -6.6219833261e+01 -7.3810494489e+01 9.9248616443e-01 
          -5.4867956532e+01 9.0728442839e+01 -2.7042977499e-01 
          3.5754737012e+01 3.0182493693e+01 2.3794840477e+00 
          -2.2097683450e+02 4.2453669381e-01 -2.6965237803e-01 
          -1.4295235997e+03 -6.8206892340e+01 -2.3138901090e+00 
          2.4830996867e+00 -1.0056699084e+02 2.5028488614e+01 
          -3.0381171303e+02 5.2963518662e-01 -1.3991968050e+00 
          9.2334470325e-02 1.7073221914e+02 -1.3711625832e+00 
          4.1999383370e+01 1.3539650523e+02 -1.5645861529e+00 
          1.7332310957e+01 1.8693785897e+02 -2.7468672967e+00 
          5.2358796850e+01 5.4436793969e+00 2.3849052200e+01 
          -1.5275885922e+01 1.2058256878e+02 -1.2553800576e+00 
          2.0678191093e+01 8.0490904137e+01 -5.4679822618e-01 
          1.8974674409e+01 1.0396864933e+02 2.3886063905e+00 
          1.8068428702e+01 9.9955696556e+01 1.9698259157e+00 
          -8.4515164657e+01 6.5443725074e+00 -1.3321662809e+00 
          -3.7332926285e+01 5.8009796740e+01 1.7531061646e+00 
          1.1217808576e+01 3.2462106125e+01 -1.1348652347e+00 
          1.1483843020e+02 1.4915210220e+01 -5.8181154229e-01 
          3.2555304225e+01 7.9136791550e+01 1.1386712561e+00 
          1.1090832203e+01 2.4706171083e+01 -7.1185532841e-01 
          3.4037159832e+01 3.1385836122e+01 1.1777226835e+00 
          9.6851265336e+00 -4.0564638708e+00 -8.5998062397e-01 
          -4.0170487356e+01 3.8191370102e+01 1.2297393523e+00 
          1.7781752970e+01 -8.0412270912e+00 -5.9114496731e-01 
          -2.6369547403e+01 -5.0373065641e+01 -9.1664927707e-01 
          7.4807050647e+00 -2.9780929340e+01 1.9059430415e+00 
          -1.1013258898e+01 -2.0918383990e+01 -1.3746176633e+00 
          4.2072881093e+01 2.7664681636e+01 -9.0715568243e-01 
          -1.9364000890e+00 -1.5643983396e+01 1.9072578081e+00 
          3.8614181163e+00 3.9841537401e+00 -1.2867777578e+00 
          -9.3421883376e+00 -3.0595698575e+01 1.9765510187e+00 
          2.8495402062e+00 6.7539836952e+00 -1.5363740217e+00 
          -1.4094869514e+01 -3.2567394177e+01 1.7457652617e+00 
          -8.0193874695e+00 -4.7726393525e+01 -1.4834770394e+00 
          2.8321217894e+01 4.3503975757e+01 -2.5313664167e-01 
          -7.3574376759e+01 1.5730308501e+01 7.7724856757e-01 
          -2.6064407791e+00 2.5503387447e+01 -5.8064412900e-01 
          6.5776725010e+01 7.5388286216e+01 -3.4335298024e-01 
          2.1890680796e+01 5.9886672141e+01 5.1122970711e-01 
          1.8853222218e+01 4.9706276742e+01 -3.1322859571e-01 
          1.8145787065e+01 7.0469409042e+01 8.1149993508e-01 
          1.8709697018e+01 6.0823248203e+01 -5.7232162167e-01 
          -7.4264119085e+01 6.7028870410e+01 4.3377208724e-01 
          -1.6805316478e+00 4.2867433840e+01 -3.3861049668e-01 
          6.1501409708e+01 7.3924896234e+01 2.0111411363e-01 
          7.8876938737e+01 7.0976443637e+01 8.2752325827e-02 
          1.2140528857e+01 2.8932442915e+01 5.5627489219e-01 
          1.0755639821e+01 2.9677070845e+01 3.4028162478e-01 
          1.0569748144e+01 2.6217978578e+01 4.1007506481e-01 
          1.1692813474e+01 2.6617380361e+01 7.0881959095e-01 
          -1.2200208553e+02 -8.3722886210e+01 -1.0471945846e+02 
          -1.3223501169e+02 -3.1737438798e+01 3.6918513149e-01 
          -5.1962288456e+00 1.5664006712e+01 -3.6368897247e+00 
          3.8976022597e+01 -1.1590567563e+03 -1.2607640645e+02 
          8.3908325564e+00 -2.1583103723e+02 -1.1785976386e+02 
          -2.1687734542e+01 -8.3518469047e+01 -4.4021386048e+00 
          1.1543871552e+03 -5.3668556145e+01 -2.5400435565e-01 
          1.4114853980e+02 -4.9497911356e+00 4.2783859993e+00 
          -8.9957827554e+01 -1.2441287217e+01 -5.7025165807e+00 
          -5.8105231033e+01 -3.9054165829e+02 -9.1851334164e+01 
          3.4269243051e+00 -4.8759170109e+02 -3.0347536087e+01 
          -5.2074796351e+01 -1.5193620567e+00 -2.9909618542e+00 
          3.8721920514e+01 3.6246764020e+01 1.0340009164e+00 
          -3.9771666600e+01 3.5843048188e+01 2.1553522865e-01 
          1.0877163122e+02 3.8642530825e+01 -9.9745801684e-02 
          -2.0985312719e+01 -5.3745443098e+01 -1.7873380374e+00 
          -6.9163253165e+00 -1.8267154490e+02 4.2724692783e-01 
          -2.2989277334e+01 1.6184782949e+02 -1.6304369607e+00 
          -1.1377190386e+02 9.4399329742e+00 2.2761742151e+00 
          -6.6683281238e+01 3.0825972483e+01 -2.9562520608e+00 
          -1.5265224141e+02 2.9972175132e+01 -8.0404109211e-01 
          -2.8516016283e+01 4.4319322228e+01 -3.5214367483e+00 
          -8.9748409429e+00 -9.7712890858e+01 -1.0349822744e-01 
          6.7864389860e+00 -3.2195103756e+01 6.2974859324e-01 
        </DataArray>
        <DataArray type="Float64" Name="UnbalancedLoad" NumberOfComponents="3" format="ascii">
          0.0000000000e+00 0.0000000000e+00 -5.7460566949e+03 
          0.0000000000e+00 0.0000000000e+00 -5.8879879513e+03 
          0.0000000000e+00 0.0000000000e+00 -5.7458329315e+03 
          0.0000000000e+00 0.0000000000e+00 -9.2776219096e+03 
          0.0000000000e+00 0.0000000000e+00 -9.2774805638e+03 
          0.0000000000e+00 0.0000000000e+00 -6.2775830928e+03 
          0.0000000000e+00 0.0000000000e+00 -6.2784291537e+03 
          0.0000000000e+00 0.0000000000e+00 -4.6970915286e+03 
          0.0000000000e+00 0.0000000000e+00 -4.6977962487e+03 
          0.0000000000e+00 0.0000000000e+00 -5.8877641830e+03 
          0.0000000000e+00 0.0000000000e+00 -5.7460566949e+03 
          0.0000000000e+00 0.0000000000e+00 -9.2776219096e+03 
          0.0000000000e+00 0.0000000000e+00 -6.2784291537e+03 
          0.0000000000e+00 0.0000000000e+00 -6.2784291537e+03 
          0.0000000000e+00 0.0000000000e+00 -4.6977962487e+03 
          0.0000000000e+00 0.0000000000e+00 -5.8877641830e+03 
          0.0000000000e+00 0.0000000000e+00 -5.7460566949e+03 
          0.0000000000e+00 0.0000000000e+00 -9.2776219096e+03 
          0.0000000000e+00 0.0000000000e+00 -6.2784291537e+03 
          0.0000000000e+00 0.0000000000e+00 -6.2784291537e+03 
          0.0000000000e+00 0.0000000000e+00 -4.6977962487e+03 
          0.0000000000e+00 0.0000000000e+00 -5.8877641830e+03 
          0.0000000000e+00 0.0000000000e+00 -6.2784291537e+03 
          0.0000000000e+00 0.0000000000e+00 -6.2784291537e+03 
          0.0000000000e+00 0.0000000000e+00 -3.1297744284e+03 
          0.0000000000e+00 0.0000000000e+00 -3.1297744284e+03 
          0.0000000000e+00 0.0000000000e+00 -2.8268565543e+03 
          0.0000000000e+00 0.0000000000e+00 -2.8268565543e+03 
          0.0000000000e+00 0.0000000000e+00 -2.3270507995e+03 
          0.0000000000e+00 0.0000000000e+00 -2.3270507995e+03 
          0.0000000000e+00 0.0000000000e+00 -3.1297744284e+03 
          0.0000000000e+00 0.0000000000e+00 -2.8268565543e+03 
          0.0000000000e+00 0.0000000000e+00 -2.3270507995e+03 
          0.0000000000e+00 0.0000000000e+00 -3.1297744284e+03 
          0.0000000000e+00 0.0000000000e+00 -2.8268565543e+03 
          0.0000000000e+00 0.0000000000e+00 -2.3270507995e+03 
          0.0000000000e+00 0.0000000000e+00 -1.8738440929e+03 
          0.0000000000e+00 0.0000000000e+00 -1.8738440929e+03 
          0.0000000000e+00 0.0000000000e+00 -1.6953874041e+03 
          0.0000000000e+00 0.0000000000e+00 -1.6953874041e+03 
          0.0000000000e+00 0.0000000000e+00 -2.3102738704e+03 
          0.0000000000e+00 0.0000000000e+00 -2.3102738704e+03 
          0.0000000000e+00 0.0000000000e+00 -1.8738440929e+03 
          0.0000000000e+00 0.0000000000e+00 -1.6953874041e+03 
          0.0000000000e+00 0.0000000000e+00 -2.3102738704e+03 
          0.0000000000e+00 0.0000000000e+00 -1.8738440929e+03 
          0.0000000000e+00 0.0000000000e+00 -1.6953874041e+03 
          0.0000000000e+00 0.0000000000e+00 -2.3102738704e+03 
          0.0000000000e+00 0.0000000000e+00 -1.0656532609e+03 
          0.0000000000e+00 0.0000000000e+00 -1.0656532609e+03 
          0.0000000000e+00 0.0000000000e+00 -1.3323935002e+03 
          0.0000000000e+00 0.0000000000e+00 -1.0933588097e+03 
          0.0000000000e+00 0.0000000000e+00 -1.0933588097e+03 
          0.0000000000e+00 0.0000000000e+00 -6.0780726636e+02 
          0.0000000000e+00 0.0000000000e+00 -8.1945585425e+02 
          0.0000000000e+00 0.0000000000e+00 -8.1945585425e+02 
          0.0000000000e+00 0.0000000000e+00 -2.1775545481e+03 
          0.0000000000e+00 0.0000000000e+00 -2.1775545481e+03 
          0.0000000000e+00 0.0000000000e+00 -1.0861960936e+03 
          0.0000000000e+00 0.0000000000e+00 -1.9950364282e+03 
          0.0000000000e+00 0.0000000000e+00 -1.9950364282e+03 
          0.0000000000e+00 0.0000000000e+00 -1.0933588097e+03 
          0.0000000000e+00 0.0000000000e+00 -1.0933588097e+03 
          0.0000000000e+00 0.0000000000e+00 -6.0780726636e+02 
          0.0000000000e+00 0.0000000000e+00 -2.0833129861e+03 
          0.0000000000e+00 0.0000000000e+00 -2.0833129861e+03 
          0.0000000000e+00 0.0000000000e+00 -1.0656532609e+03 
          0.0000000000e+00 0.0000000000e+00 -1.9950364282e+03 
          0.0000000000e+00 0.0000000000e+00 -1.3323935002e+03 
          0.0000000000e+00 0.0000000000e+00 -8.1945585425e+02 
          0.0000000000e+00 0.0000000000e+00 -2.1775545481e+03 
          0.0000000000e+00 0.0000000000e+00 -1.0933588097e+03 
          0.0000000000e+00 0.0000000000e+00 -6.0780726636e+02 
          0.0000000000e+00 0.0000000000e+00 -1.0861960936e+03 
          0.0000000000e+00 0.0000000000e+00 -1.0933588097e+03 
          0.0000000000e+00 0.0000000000e+00 -6.0780726636e+02 
          0.0000000000e+00 0.0000000000e+00 -2.0833129861e+03 
          0.0000000000e+00 0.0000000000e+00 -5.7823028262e+02 
          0.0000000000e+00 0.0000000000e+00 -6.9873222971e+02 
          0.0000000000e+00 0.0000000000e+00 -6.9873222971e+02 
          0.0000000000e+00 0.0000000000e+00 -1.0656532609e+03 
          0.0000000000e+00 0.0000000000e+00 -1.9950364282e+03 
          0.0000000000e+00 0.0000000000e+00 -1.3323935002e+03 
          0.0000000000e+00 0.0000000000e+00 -8.1945585425e+02 
          0.0000000000e+00 0.0000000000e+00 -2.1775545481e+03 
          0.0000000000e+00 0.0000000000e+00 -1.0933588097e+03 
          0.0000000000e+00 0.0000000000e+00 -6.0780726636e+02 
          0.0000000000e+00 0.0000000000e+00 -1.0861960936e+03 
          0.0000000000e+00 0.0000000000e+00 -1.0933588097e+03 
          0.0000000000e+00 0.0000000000e+00 -6.0780726636e+02 
          0.0000000000e+00 0.0000000000e+00 -2.0833129861e+03 
          0.0000000000e+00 0.0000000000e+00 -1.3323935002e+03 
          0.0000000000e+00 0.0000000000e+00 -6.0780726636e+02 
          0.0000000000e+00 0.0000000000e+00 -1.0861960936e+03 
          0.0000000000e+00 0.0000000000e+00 -6.0780726636e+02 
          0.0000000000e+00 0.0000000000e+00 -5.7823028262e+02 
          0.0000000000e+00 0.0000000000e+00 -6.9873222971e+02 
          0.0000000000e+00 0.0000000000e+00 -6.9873222971e+02 
          0.0000000000e+00 0.0000000000e+00 -9.0342993145e+02 
          0.0000000000e+00 0.0000000000e+00 -9.0343657348e+02 
          0.0000000000e+00 0.0000000000e+00 -6.4128003637e+02 
          0.0000000000e+00 0.0000000000e+00 -9.0342993145e+02 
          0.0000000000e+00 0.0000000000e+00 -9.0343657348e+02 
          0.0000000000e+00 0.0000000000e+00 -6.4128003637e+02 
          0.0000000000e+00 0.0000000000e+00 -9.0343657348e+02 
          0.0000000000e+00 0.0000000000e+00 -6.4128003637e+02 
          0.0000000000e+00 0.0000000000e+00 -9.0343657348e+02 
          0.0000000000e+00 0.0000000000e+00 -6.4128003637e+02 
          0.0000000000e+00 0.0000000000e+00 -9.0342993145e+02 
          0.0000000000e+00 0.0000000000e+00 -9.0343657348e+02 
          0.0000000000e+00 0.0000000000e+00 -6.4128003637e+02 
          0.0000000000e+00 0.0000000000e+00 -9.0342993145e+02 
          0.0000000000e+00 0.0000000000e+00 -9.0343657348e+02 
          0.0000000000e+00 0.0000000000e+00 -6.4128003637e+02 
          0.0000000000e+00 0.0000000000e+00 -9.0343657348e+02 
          0.0000000000e+00 0.0000000000e+00 -6.4128003637e+02 
          0.0000000000e+00 0.0000000000e+00 -9.0343657348e+02 
          0.0000000000e+00 0.0000000000e+00 -6.4128003637e+02 
          0.0000000000e+00 0.0000000000e+00 -9.0342993145e+02 
          0.0000000000e+00 0.0000000000e+00 -9.0343657348e+02 
          0.0000000000e+00 0.0000000000e+00 -6.4128003637e+02 
          0.0000000000e+00 0.0000000000e+00 -9.0342993145e+02 
          0.0000000000e+00 0.0000000000e+00 -9.0343657348e+02 
          0.0000000000e+00 0.0000000000e+00 -6.4128003637e+02 
          0.0000000000e+00 0.0000000000e+00 -9.0343657348e+02 
          0.0000000000e+00 0.0000000000e+00 -6.4128003637e+02 
          0.0000000000e+00 0.0000000000e+00 -9.0343657348e+02 
          0.0000000000e+00 0.0000000000e+00 -6.4128003637e+02 
          0.0000000000e+00 0.0000000000e+00 -5.7960789510e+02 
          0.0000000000e+00 0.0000000000e+00 -5.7960789510e+02 
          0.0000000000e+00 0.0000000000e+00 -1.5844280657e+02 
          0.0000000000e+00 0.0000000000e+00 -1.5844280657e+02 
          0.0000000000e+00 0.0000000000e+00 -1.5844280657e+02 
          0.0000000000e+00 0.0000000000e+00 -1.5844280657e+02 
          0.0000000000e+00 0.0000000000e+00 -7.7094533688e+02 
          0.0000000000e+00 0.0000000000e+00 -6.9638630828e+02 
          0.0000000000e+00 0.0000000000e+00 -6.2782440283e+02 
          0.0000000000e+00 0.0000000000e+00 -7.7094533688e+02 
          0.0000000000e+00 0.0000000000e+00 -6.9638630828e+02 
          0.0000000000e+00 0.0000000000e+00 -6.2782440283e+02 
          0.0000000000e+00 0.0000000000e+00 -7.7094533688e+02 
          0.0000000000e+00 0.0000000000e+00 -6.9638630828e+02 
          0.0000000000e+00 0.0000000000e+00 -6.2782440283e+02 
          0.0000000000e+00 0.0000000000e+00 -7.7094533688e+02 
          0.0000000000e+00 0.0000000000e+00 -6.9638630828e+02 
          0.0000000000e+00 0.0000000000e+00 -6.2782440283e+02 
          0.0000000000e+00 0.0000000000e+00 -5.6611530108e+02 
          0.0000000000e+00 0.0000000000e+00 -5.0951319300e+02 
          0.0000000000e+00 0.0000000000e+00 -4.6185006857e+02 
          0.0000000000e+00 0.0000000000e+00 -5.6611530108e+02 
          0.0000000000e+00 0.0000000000e+00 -5.0951319300e+02 
          0.0000000000e+00 0.0000000000e+00 -4.6185006857e+02 
          0.0000000000e+00 0.0000000000e+00 -5.6611530108e+02 
          0.0000000000e+00 0.0000000000e+00 -5.0951319300e+02 
          0.0000000000e+00 0.0000000000e+00 -4.6185006857e+02 
          0.0000000000e+00 0.0000000000e+00 -5.6611530108e+02 
          0.0000000000e+00 0.0000000000e+00 -5.0951319300e+02 
          0.0000000000e+00 0.0000000000e+00 -4.6185006857e+02 
        </DataArray>
      </PointData>
      <CellData>
        <DataArray type="Int64" Name="ElementTag" format="ascii">
          0
        </DataArray>
      </CellData>
    </Piece>
  </UnstructuredGrid>
</VTKFile>
