<?xml version="1.0"?>
<VTKFile type="UnstructuredGrid" version="1.0" byte_order="LittleEndian" compressor="vtkZLibDataCompressor">
  <UnstructuredGrid>
    <Piece NumberOfPoints="158" NumberOfCells="1">
      <Points>
        <DataArray type="Float64" Name="Points" NumberOfComponents="3" format="ascii">
          1.7550000000e+00 -1.7550000000e+00 0.0000000000e+00 
          1.4140000000e+00 0.0000000000e+00 5.2300000000e+00 
          1.7550000000e+00 1.7550000000e+00 -0.0000000000e+00 
          1.4140000000e+00 -1.4140000000e+00 5.2300000000e+00 
          1.4140000000e+00 1.4140000000e+00 5.2300000000e+00 
          1.5840000000e+00 8.7800000000e-01 2.6150000000e+00 
          1.5840000000e+00 -8.7700000000e-01 2.6150000000e+00 
          1.5840000000e+00 1.5840000000e+00 2.6150000000e+00 
          1.5840000000e+00 -1.5840000000e+00 2.6150000000e+00 
          -0.0000000000e+00 1.4140000000e+00 5.2300000000e+00 
          -1.7550000000e+00 1.7550000000e+00 -0.0000000000e+00 
          -1.4140000000e+00 1.4140000000e+00 5.2300000000e+00 
          -8.7700000000e-01 1.5840000000e+00 2.6150000000e+00 
          8.7700000000e-01 1.5840000000e+00 2.6150000000e+00 
          -1.5840000000e+00 1.5840000000e+00 2.6150000000e+00 
          -1.4140000000e+00 -0.0000000000e+00 5.2300000000e+00 
          -1.7550000000e+00 -1.7550000000e+00 -0.0000000000e+00 
          -1.4140000000e+00 -1.4140000000e+00 5.2300000000e+00 
          -1.5840000000e+00 -8.7700000000e-01 2.6150000000e+00 
          -1.5840000000e+00 8.7700000000e-01 2.6150000000e+00 
          -1.5840000000e+00 -1.5840000000e+00 2.6150000000e+00 
          0.0000000000e+00 -1.4140000000e+00 5.2300000000e+00 
          8.7700000000e-01 -1.5840000000e+00 2.6150000000e+00 
          -8.7700000000e-01 -1.5840000000e+00 2.6150000000e+00 
          1.2750000000e+00 1.2750000000e+00 7.3500000000e+00 
          1.2750000000e+00 -1.2750000000e+00 7.3500000000e+00 
          1.1500000000e+00 -1.1500000000e+00 9.2700000000e+00 
          1.1500000000e+00 1.1500000000e+00 9.2700000000e+00 
          1.0370000000e+00 -1.0370000000e+00 1.1000000000e+01 
          1.0370000000e+00 1.0370000000e+00 1.1000000000e+01 
          -1.2750000000e+00 1.2750000000e+00 7.3500000000e+00 
          -1.1500000000e+00 1.1500000000e+00 9.2700000000e+00 
          -1.0370000000e+00 1.0370000000e+00 1.1000000000e+01 
          -1.2750000000e+00 -1.2750000000e+00 7.3500000000e+00 
          -1.1500000000e+00 -1.1500000000e+00 9.2700000000e+00 
          -1.0370000000e+00 -1.0370000000e+00 1.1000000000e+01 
          9.3500000000e-01 9.3500000000e-01 1.2560000000e+01 
          9.3500000000e-01 -9.3500000000e-01 1.2560000000e+01 
          8.4300000000e-01 8.4300000000e-01 1.3960000000e+01 
          8.4300000000e-01 -8.4300000000e-01 1.3960000000e+01 
          7.6000000000e-01 7.6000000000e-01 1.5240000000e+01 
          7.6000000000e-01 -7.6000000000e-01 1.5240000000e+01 
          -9.3500000000e-01 9.3500000000e-01 1.2560000000e+01 
          -8.4300000000e-01 8.4300000000e-01 1.3960000000e+01 
          -7.6000000000e-01 7.6000000000e-01 1.5240000000e+01 
          -9.3500000000e-01 -9.3500000000e-01 1.2560000000e+01 
          -8.4300000000e-01 -8.4300000000e-01 1.3960000000e+01 
          -7.6000000000e-01 -7.6000000000e-01 1.5240000000e+01 
          7.6000000000e-01 -7.6000000000e-01 1.6240000000e+01 
          7.6000000000e-01 7.6000000000e-01 1.6240000000e+01 
          7.6000000000e-01 0.0000000000e+00 1.6240000000e+01 
          7.6000000000e-01 7.6000000000e-01 1.7340000000e+01 
          7.6000000000e-01 -7.6000000000e-01 1.7340000000e+01 
          7.6000000000e-01 0.0000000000e+00 1.7890000000e+01 
          7.6000000000e-01 -7.6000000000e-01 1.9440000000e+01 
          7.6000000000e-01 7.6000000000e-01 1.9440000000e+01 
          7.6000000000e-01 -7.6000000000e-01 2.1640000000e+01 
          7.6000000000e-01 7.6000000000e-01 2.1640000000e+01 
          7.6000000000e-01 0.0000000000e+00 1.9440000000e+01 
          7.6000000000e-01 7.6000000000e-01 1.8440000000e+01 
          7.6000000000e-01 -7.6000000000e-01 1.8440000000e+01 
          7.6000000000e-01 -7.6000000000e-01 2.0540000000e+01 
          7.6000000000e-01 7.6000000000e-01 2.0540000000e+01 
          7.6000000000e-01 0.0000000000e+00 2.1090000000e+01 
          7.6000000000e-01 7.6000000000e-01 2.2640000000e+01 
          7.6000000000e-01 -7.6000000000e-01 2.2640000000e+01 
          -7.6000000000e-01 7.6000000000e-01 1.6240000000e+01 
          -7.6000000000e-01 7.6000000000e-01 1.8440000000e+01 
          -0.0000000000e+00 7.6000000000e-01 1.6240000000e+01 
          -7.6000000000e-01 7.6000000000e-01 1.9440000000e+01 
          -7.6000000000e-01 7.6000000000e-01 2.1640000000e+01 
          -7.6000000000e-01 7.6000000000e-01 1.7340000000e+01 
          -0.0000000000e+00 7.6000000000e-01 1.7890000000e+01 
          -0.0000000000e+00 7.6000000000e-01 1.9440000000e+01 
          -7.6000000000e-01 7.6000000000e-01 2.0540000000e+01 
          0.0000000000e+00 7.6000000000e-01 2.1090000000e+01 
          -7.6000000000e-01 7.6000000000e-01 2.2640000000e+01 
          -0.0000000000e+00 5.2600000000e-01 2.3499000000e+01 
          3.9900000000e-01 4.0400000000e-01 2.3950000000e+01 
          -3.9900000000e-01 4.0400000000e-01 2.3950000000e+01 
          -7.6000000000e-01 -7.6000000000e-01 1.6240000000e+01 
          -7.6000000000e-01 -7.6000000000e-01 1.8440000000e+01 
          -7.6000000000e-01 -0.0000000000e+00 1.6240000000e+01 
          -7.6000000000e-01 -7.6000000000e-01 1.9440000000e+01 
          -7.6000000000e-01 -7.6000000000e-01 2.1640000000e+01 
          -7.6000000000e-01 -7.6000000000e-01 1.7340000000e+01 
          -7.6000000000e-01 0.0000000000e+00 1.7890000000e+01 
          -7.6000000000e-01 -0.0000000000e+00 1.9440000000e+01 
          -7.6000000000e-01 -7.6000000000e-01 2.0540000000e+01 
          -7.6000000000e-01 -0.0000000000e+00 2.1090000000e+01 
          -7.6000000000e-01 -7.6000000000e-01 2.2640000000e+01 
          0.0000000000e+00 -7.6000000000e-01 1.6240000000e+01 
          0.0000000000e+00 -7.6000000000e-01 1.7890000000e+01 
          0.0000000000e+00 -7.6000000000e-01 1.9440000000e+01 
          0.0000000000e+00 -7.6000000000e-01 2.1090000000e+01 
          0.0000000000e+00 -5.2600000000e-01 2.3499000000e+01 
          3.9900000000e-01 -4.0400000000e-01 2.3950000000e+01 
          -3.9900000000e-01 -4.0400000000e-01 2.3950000000e+01 
          -0.0000000000e+00 -3.3500000000e+00 2.1640000000e+01 
          -3.8000000000e-01 -2.0550000000e+00 2.2140000000e+01 
          -3.8000000000e-01 -2.0550000000e+00 2.1640000000e+01 
          0.0000000000e+00 3.3500000000e+00 2.1640000000e+01 
          -3.8000000000e-01 2.0550000000e+00 2.2140000000e+01 
          -3.8000000000e-01 2.0550000000e+00 2.1640000000e+01 
          3.8000000000e-01 2.0550000000e+00 2.2140000000e+01 
          3.8000000000e-01 2.0550000000e+00 2.1640000000e+01 
          3.8000000000e-01 -2.0550000000e+00 2.2140000000e+01 
          3.8000000000e-01 -2.0550000000e+00 2.1640000000e+01 
          -0.0000000000e+00 -3.3500000000e+00 1.8440000000e+01 
          -3.8000000000e-01 -2.0550000000e+00 1.8940000000e+01 
          -3.8000000000e-01 -2.0550000000e+00 1.8440000000e+01 
          -0.0000000000e+00 3.3500000000e+00 1.8440000000e+01 
          -3.8000000000e-01 2.0550000000e+00 1.8940000000e+01 
          -3.8000000000e-01 2.0550000000e+00 1.8440000000e+01 
          3.8000000000e-01 2.0550000000e+00 1.8940000000e+01 
          3.8000000000e-01 2.0550000000e+00 1.8440000000e+01 
          3.8000000000e-01 -2.0550000000e+00 1.8940000000e+01 
          3.8000000000e-01 -2.0550000000e+00 1.8440000000e+01 
          -0.0000000000e+00 -3.3500000000e+00 1.5240000000e+01 
          -3.8000000000e-01 -2.0550000000e+00 1.5740000000e+01 
          -3.8000000000e-01 -2.0550000000e+00 1.5240000000e+01 
          -0.0000000000e+00 3.3500000000e+00 1.5240000000e+01 
          -3.8000000000e-01 2.0550000000e+00 1.5740000000e+01 
          -3.8000000000e-01 2.0550000000e+00 1.5240000000e+01 
          3.8000000000e-01 2.0550000000e+00 1.5740000000e+01 
          3.8000000000e-01 2.0550000000e+00 1.5240000000e+01 
          3.8000000000e-01 -2.0550000000e+00 1.5740000000e+01 
          3.8000000000e-01 -2.0550000000e+00 1.5240000000e+01 
          -5.2400000000e-01 0.0000000000e+00 2.3496000000e+01 
          5.2400000000e-01 0.0000000000e+00 2.3496000000e+01 
          4.0000000000e-02 5.0000000000e-02 2.5250000000e+01 
          -4.0000000000e-02 5.0000000000e-02 2.5250000000e+01 
          -4.0000000000e-02 -5.0000000000e-02 2.5250000000e+01 
          4.0000000000e-02 -5.0000000000e-02 2.5250000000e+01 
          1.3410000000e+00 0.0000000000e+00 6.3450000000e+00 
          1.2090000000e+00 0.0000000000e+00 8.3600000000e+00 
          1.0900000000e+00 -0.0000000000e+00 1.0180000000e+01 
          -0.0000000000e+00 1.3410000000e+00 6.3450000000e+00 
          0.0000000000e+00 1.2090000000e+00 8.3600000000e+00 
          -0.0000000000e+00 1.0900000000e+00 1.0180000000e+01 
          -1.3410000000e+00 0.0000000000e+00 6.3450000000e+00 
          -1.2090000000e+00 0.0000000000e+00 8.3600000000e+00 
          -1.0900000000e+00 -0.0000000000e+00 1.0180000000e+01 
          -0.0000000000e+00 -1.3410000000e+00 6.3450000000e+00 
          0.0000000000e+00 -1.2090000000e+00 8.3600000000e+00 
          0.0000000000e+00 -1.0900000000e+00 1.0180000000e+01 
          9.8300000000e-01 0.0000000000e+00 1.1820000000e+01 
          8.8700000000e-01 0.0000000000e+00 1.3296000000e+01 
          8.0000000000e-01 -0.0000000000e+00 1.4633000000e+01 
          0.0000000000e+00 9.8300000000e-01 1.1820000000e+01 
          -0.0000000000e+00 8.8700000000e-01 1.3296000000e+01 
          0.0000000000e+00 8.0000000000e-01 1.4633000000e+01 
          -9.8300000000e-01 0.0000000000e+00 1.1820000000e+01 
          -8.8700000000e-01 0.0000000000e+00 1.3296000000e+01 
          -8.0000000000e-01 0.0000000000e+00 1.4633000000e+01 
          0.0000000000e+00 -9.8300000000e-01 1.1820000000e+01 
          0.0000000000e+00 -8.8700000000e-01 1.3296000000e+01 
          0.0000000000e+00 -8.0000000000e-01 1.4633000000e+01 
        </DataArray>
      </Points>
      <Cells>
        <DataArray type="Int64" Name="connectivity" format="ascii">
          0
          1
          2
          3
          4
          5
          6
          7
          8
          9
          10
          11
          12
          13
          14
          15
          16
          17
          18
          19
          20
          21
          22
          23
          24
          25
          26
          27
          28
          29
          30
          31
          32
          33
          34
          35
          36
          37
          38
          39
          40
          41
          42
          43
          44
          45
          46
          47
          48
          49
          50
          51
          52
          53
          54
          55
          56
          57
          58
          59
          60
          61
          62
          63
          64
          65
          66
          67
          68
          69
          70
          71
          72
          73
          74
          75
          76
          77
          78
          79
          80
          81
          82
          83
          84
          85
          86
          87
          88
          89
          90
          91
          92
          93
          94
          95
          96
          97
          98
          99
          100
          101
          102
          103
          104
          105
          106
          107
          108
          109
          110
          111
          112
          113
          114
          115
          116
          117
          118
          119
          120
          121
          122
          123
          124
          125
          126
          127
          128
          129
          130
          131
          132
          133
          134
          135
          136
          137
          138
          139
          140
          141
          142
          143
          144
          145
          146
          147
          148
          149
          150
          151
          152
          153
          154
          155
          156
          157
        </DataArray>
        <DataArray type="Int64" Name="offsets" format="ascii">
          158
        </DataArray>
        <DataArray type="Int64" Name="types" format="ascii">
          2
        </DataArray>
      </Cells>
      <PointData>
        <DataArray type="Int64" Name="NodeTag" format="ascii">
          1
          2
          3
          4
          5
          6
          7
          8
          9
          10
          11
          12
          13
          14
          15
          16
          17
          18
          19
          20
          21
          22
          23
          24
          25
          26
          27
          28
          29
          30
          31
          32
          33
          34
          35
          36
          37
          38
          39
          40
          41
          42
          43
          44
          45
          46
          47
          48
          49
          50
          51
          52
          53
          54
          55
          56
          57
          58
          59
          60
          61
          62
          63
          64
          65
          66
          67
          68
          69
          70
          71
          72
          73
          74
          75
          76
          77
          78
          79
          80
          81
          82
          83
          84
          85
          86
          87
          88
          89
          90
          91
          92
          93
          94
          95
          96
          97
          98
          99
          100
          101
          102
          103
          104
          105
          106
          107
          108
          109
          110
          111
          112
          113
          114
          115
          116
          117
          118
          119
          120
          121
          122
          123
          124
          125
          126
          127
          128
          129
          130
          131
          132
          133
          134
          135
          136
          137
          138
          139
          140
          141
          142
          143
          144
          145
          146
          147
          148
          149
          150
          151
          152
          153
          154
          155
          156
          157
          158
        </DataArray>
        <DataArray type="Float64" Name="Displacement" NumberOfComponents="3" format="ascii">
          0.0000000000e+00 0.0000000000e+00 0.0000000000e+00 
          -3.7598833740e-04 -5.3834589870e-05 -2.3911721385e-04 
          0.0000000000e+00 0.0000000000e+00 0.0000000000e+00 
          -1.3741845921e-06 -4.6935951653e-05 -1.2272479178e-03 
          -5.8295590567e-07 -6.2936106282e-05 -1.1362853749e-03 
          -1.7545405174e-03 -1.8522327751e-03 -8.7529192971e-04 
          -1.8981352917e-03 1.9311981475e-03 -9.3158620468e-04 
          -1.8040125152e-03 -1.8491318953e-03 -8.4369187058e-04 
          -1.9593311176e-03 1.9276825809e-03 -9.0855302798e-04 
          7.4805755869e-06 -4.2189772462e-04 -2.3777753578e-04 
          0.0000000000e+00 0.0000000000e+00 0.0000000000e+00 
          1.5882746144e-05 -6.1378895071e-05 -1.1373692827e-03 
          1.8206568973e-03 -1.7932344679e-03 -8.7256979502e-04 
          -1.8071076886e-03 -1.7952185876e-03 -8.7083593255e-04 
          1.8175873850e-03 -1.8474394995e-03 -8.4458953816e-04 
          3.9133061727e-04 -5.2264322779e-05 -2.4051859130e-04 
          0.0000000000e+00 0.0000000000e+00 0.0000000000e+00 
          1.3721732907e-05 -4.5369558412e-05 -1.2269609925e-03 
          1.9072260299e-03 1.9301569105e-03 -9.3169707352e-04 
          1.7687987942e-03 -1.8505261536e-03 -8.7597166535e-04 
          1.9675176126e-03 1.9266522208e-03 -9.0845335761e-04 
          6.0221440275e-06 3.4402227281e-04 -2.4246959709e-04 
          -1.9628702054e-03 1.8710982685e-03 -9.3529905337e-04 
          1.9710392915e-03 1.8696973907e-03 -9.3585002376e-04 
          2.6135886432e-04 1.0360319754e-04 -1.5358889050e-03 
          2.9558462912e-04 -4.4131431804e-04 -1.6643589198e-03 
          6.5326439129e-05 -3.4790938507e-04 -2.0866272848e-03 
          5.6375354712e-05 -2.6287032281e-04 -1.9296554622e-03 
          1.8096233422e-04 -6.2503350460e-04 -2.3826403632e-03 
          1.5834429819e-04 -2.8467823571e-04 -2.2106414027e-03 
          -2.4282693694e-04 1.0647233465e-04 -1.5368112953e-03 
          -3.6236723797e-05 -2.5873987416e-04 -1.9307399910e-03 
          -1.3822453207e-04 -2.8005121042e-04 -2.2121416611e-03 
          -2.7620254535e-04 -4.3809132203e-04 -1.6641964816e-03 
          -4.0986790309e-05 -3.4421221835e-04 -2.0870279848e-03 
          -1.5395459835e-04 -6.2103796940e-04 -2.3838445835e-03 
          9.4691366446e-05 -5.4517496835e-04 -2.5398432040e-03 
          1.0946282101e-04 -6.8532831199e-04 -2.7281854956e-03 
          1.1887026372e-04 -6.2995584933e-04 -2.8003781471e-03 
          1.3722516523e-04 -9.3132781725e-04 -2.9954806337e-03 
          3.7623135713e-05 -9.6962568225e-04 -3.0363211052e-03 
          4.6218670764e-05 -9.2756331357e-04 -3.2326155520e-03 
          -7.6248724293e-05 -5.4057968610e-04 -2.5420896536e-03 
          -1.0399418360e-04 -6.2559555121e-04 -2.8034372426e-03 
          -2.8208982450e-05 -9.6609806029e-04 -3.0401851026e-03 
          -8.1904659323e-05 -6.8156869321e-04 -2.7304803873e-03 
          -1.1171103146e-04 -9.2801247699e-04 -2.9987886484e-03 
          -2.5091389000e-05 -9.2438057873e-04 -3.2367570745e-03 
          1.6517610859e-06 -1.1152076694e-03 -3.5206165285e-03 
          -4.1482570774e-06 -1.0661036892e-03 -3.2975221087e-03 
          3.1103991255e-05 -1.0906105552e-03 -3.2607787426e-03 
          3.5409688438e-04 -8.5958355537e-04 -3.5391686057e-03 
          3.9419535909e-04 -1.7163162102e-03 -3.7925423810e-03 
          1.9019359335e-04 -1.3839050855e-03 -4.1969542267e-03 
          -2.3716793199e-05 -1.7284785995e-03 -4.3731562651e-03 
          -3.0620530466e-05 -1.6320191064e-03 -4.0852759987e-03 
          -2.3695522818e-05 -2.0723955237e-03 -4.7292150770e-03 
          -2.8842921335e-05 -2.1775006364e-03 -4.4264201629e-03 
          6.2207514097e-06 -1.6803002879e-03 -4.1192343361e-03 
          3.1261819103e-06 -1.5351862640e-03 -3.9249211142e-03 
          8.0625110604e-06 -1.4436113681e-03 -4.2045372105e-03 
          1.9385207474e-04 -2.1682003201e-03 -4.5155454824e-03 
          1.7677609544e-04 -1.6387054786e-03 -4.2181365716e-03 
          7.9990259616e-05 -2.0132027616e-03 -4.6969715387e-03 
          -3.8290769874e-05 -2.2617514898e-03 -4.5026712133e-03 
          -3.2524470900e-05 -2.3904232351e-03 -4.8062310697e-03 
          8.5035397270e-06 -1.0631478722e-03 -3.3034069469e-03 
          -2.3931344602e-05 -1.5328300764e-03 -3.9350964030e-03 
          2.1572702204e-06 -1.0444968840e-03 -3.1950929709e-03 
          -4.1549278276e-06 -1.6296550634e-03 -4.0965984839e-03 
          -4.3451895084e-05 -2.1763867380e-03 -4.4397297489e-03 
          -3.6146137883e-04 -8.5434915823e-04 -3.5469534857e-03 
          -6.6120389581e-06 -1.1993891740e-03 -3.9795138487e-03 
          -1.7394705037e-05 -1.6257889327e-03 -4.0236905419e-03 
          -2.3005439885e-04 -1.6351190049e-03 -4.2304517099e-03 
          -3.1216939499e-05 -1.9119832302e-03 -4.4705991312e-03 
          -5.1687893601e-05 -2.2608977790e-03 -4.5162771007e-03 
          -5.2715543731e-05 -2.5767965858e-03 -4.6226164057e-03 
          -5.7714173707e-05 -2.5940434934e-03 -4.6279332793e-03 
          -5.6164647608e-05 -2.5926073116e-03 -4.6349901085e-03 
          1.4295447306e-05 -1.1122389094e-03 -3.5266354341e-03 
          -1.5565753963e-05 -1.4411108879e-03 -4.2147451511e-03 
          -2.0367801473e-05 -1.0876461946e-03 -3.2658709275e-03 
          2.6518208902e-06 -1.7261053046e-03 -4.3847734238e-03 
          -3.6030838228e-05 -2.0709284419e-03 -4.7435915061e-03 
          -3.8893568398e-04 -1.7161764730e-03 -3.8003099500e-03 
          -1.9660958638e-04 -1.3813321230e-03 -4.2077261649e-03 
          -3.2945889452e-05 -1.6779138827e-03 -4.1300526302e-03 
          -2.3367328594e-04 -2.1678195868e-03 -4.5284168842e-03 
          -1.3493862971e-04 -2.0114648947e-03 -4.7114036560e-03 
          -4.7033210804e-05 -2.3900501276e-03 -4.8214185108e-03 
          7.9874733503e-06 -1.1462548559e-03 -3.4095112443e-03 
          -1.1294643963e-07 -1.5830296021e-03 -4.2702291177e-03 
          -1.0525129572e-05 -1.7497593198e-03 -4.3081592532e-03 
          -2.4605697530e-05 -2.1247469117e-03 -4.7789353405e-03 
          -4.8385570648e-05 -2.4410815290e-03 -4.8276006576e-03 
          -5.3710607863e-05 -2.5854541804e-03 -4.7889807677e-03 
          -5.2955852526e-05 -2.5840852867e-03 -4.7978806560e-03 
          -3.1071582149e-05 -2.0042067303e-03 -6.1982041376e-03 
          -3.2371244653e-05 -2.2630701301e-03 -5.4287851365e-03 
          -2.4817586538e-05 -2.0342801426e-03 -5.4352674080e-03 
          -3.4509094811e-05 -2.2460954501e-03 -4.8590028369e-03 
          -4.3513910835e-05 -2.1846680332e-03 -4.6041922066e-03 
          -3.5555646436e-05 -2.2130490272e-03 -4.6107385681e-03 
          -4.3884938219e-05 -2.1873526789e-03 -4.5967630903e-03 
          -3.5251084496e-05 -2.2136894954e-03 -4.6032579371e-03 
          -3.3038109944e-05 -2.2653229498e-03 -5.4196904968e-03 
          -2.4131499006e-05 -2.0384916329e-03 -5.4261393004e-03 
          -6.9887940659e-06 -1.3739389964e-03 -5.6925256182e-03 
          -5.1727056711e-06 -1.6360633234e-03 -4.9130323670e-03 
          2.8417782366e-08 -1.4035100670e-03 -4.9195079785e-03 
          -6.4353645167e-06 -1.6047730492e-03 -4.4278333676e-03 
          -1.3586598680e-05 -1.5299618348e-03 -4.1371196424e-03 
          -7.7348727526e-06 -1.5717064404e-03 -4.1436560920e-03 
          -1.3957060164e-05 -1.5322421067e-03 -4.1311936264e-03 
          -7.4396247262e-06 -1.5724184931e-03 -4.1376968987e-03 
          -6.0394655776e-06 -1.6392495312e-03 -4.9065813487e-03 
          8.7951098116e-07 -1.4081408347e-03 -4.9130301033e-03 
          6.5442433679e-06 -8.5080106038e-04 -4.5984575669e-03 
          1.0337593270e-05 -1.0894961343e-03 -3.8781056916e-03 
          1.3431710594e-05 -8.8034011576e-04 -3.8845882734e-03 
          1.0864456348e-05 -1.0438886818e-03 -3.6455700633e-03 
          7.0328007860e-06 -9.4869308295e-04 -3.2998085164e-03 
          1.0709059854e-05 -1.0112977429e-03 -3.3063409536e-03 
          6.6474113700e-06 -9.5016272413e-04 -3.2970326830e-03 
          1.1069359329e-05 -1.0112716185e-03 -3.3035330384e-03 
          9.5244179064e-06 -1.0927374684e-03 -3.8743950563e-03 
          1.4275536728e-05 -8.8499608847e-04 -3.8808559084e-03 
          3.1842671980e-05 -2.4971323907e-03 -4.7495604072e-03 
          -1.2664534988e-04 -2.4984711327e-03 -4.7374826602e-03 
          -5.9385046250e-05 -2.8543651111e-03 -4.7069310738e-03 
          -5.9280455728e-05 -2.8539935020e-03 -4.7131040505e-03 
          -5.9252150407e-05 -2.8542137139e-03 -4.7320206976e-03 
          -5.9374395539e-05 -2.8538594706e-03 -4.7258871925e-03 
          -4.8511216540e-04 -1.0487292312e-04 -1.2819338481e-03 
          -2.5831830695e-04 -2.3252068101e-04 -1.9970216785e-03 
          -1.6163390586e-04 -3.7759770537e-04 -2.1071911135e-03 
          8.5298669818e-06 -8.2436660307e-04 -1.2548259604e-03 
          9.7779384887e-06 -5.8520337623e-04 -1.9160803440e-03 
          1.0195556799e-05 -6.0561368034e-04 -2.0457142702e-03 
          5.3714407147e-04 -1.0252446497e-04 -1.2847561884e-03 
          2.9097968758e-04 -2.2898072034e-04 -1.9981233255e-03 
          1.9608935599e-04 -3.7342978387e-04 -2.1089239821e-03 
          8.0641864418e-06 3.2592787391e-04 -1.3250723269e-03 
          1.1137858332e-05 -2.8113753885e-05 -2.0658536016e-03 
          1.3068325396e-05 -2.5615799131e-04 -2.1952385319e-03 
          -5.0698978346e-05 -5.3241382931e-04 -2.5548539902e-03 
          -1.0184240442e-05 -6.9698560488e-04 -2.7339795141e-03 
          6.9505511498e-06 -8.6482403792e-04 -3.1387192144e-03 
          9.8182673222e-06 -6.4828539354e-04 -2.4451683874e-03 
          8.5077503921e-06 -7.3360072636e-04 -2.6759160061e-03 
          6.2358495993e-06 -9.1115685973e-04 -2.9858638900e-03 
          8.4724641053e-05 -5.2813131078e-04 -2.5573022143e-03 
          3.4772491582e-05 -6.9296888350e-04 -2.7368354630e-03 
          1.3114860355e-05 -8.6125202839e-04 -3.1426913783e-03 
          1.3923394616e-05 -5.0203321678e-04 -2.6253315436e-03 
          1.3520084294e-05 -7.1850203784e-04 -2.8620453312e-03 
          1.1862044821e-05 -8.6087142302e-04 -3.1853419530e-03 
        </DataArray>
        <DataArray type="Float64" Name="Reaction" NumberOfComponents="3" format="ascii">
          -1.8049576479e+04 1.8380946433e+04 2.2348524621e+05 
          -8.3404811119e-01 4.5982793183e-01 3.1150765305e-01 
          -1.6904801377e+04 -1.6422812409e+04 2.0721221195e+05 
          -1.7627183181e+01 3.3806556239e+00 4.7753313348e-01 
          1.1658765626e+01 -2.9193371500e+00 -4.8503087336e-01 
          -3.2799024446e+00 4.6521251685e+00 -1.2882460082e-01 
          4.9796126563e+00 4.3085276783e+00 -2.7591534766e-01 
          2.9956757189e-01 3.3594406444e+00 -2.0677571339e-02 
          -1.2541025470e+00 3.3329327920e+00 -3.4129585072e-02 
          6.5880637289e+00 3.3601280141e+00 1.2503194239e-01 
          1.6701856116e+04 -1.6372202976e+04 2.0663612837e+05 
          1.2882855402e+01 4.3003602435e-01 -5.3464419701e-01 
          1.2449736543e+01 -1.8026991511e+00 -9.4816032317e-02 
          7.5443697484e-01 5.8048770175e+00 -1.0665298695e-01 
          9.7084410183e+00 -3.2154888275e+00 -4.4207505738e-02 
          1.0784667775e+00 -4.0501954152e+00 2.6674850716e-01 
          1.7885728809e+04 1.8335888258e+04 2.2292495475e+05 
          -1.0954567019e+01 -1.0578325580e+01 5.7954391516e-01 
          -1.6200128121e+00 4.0061794672e+00 -3.0803990744e-01 
          1.4264317267e+01 -3.9901138273e+00 -1.0208524373e-01 
          -4.1252771853e+00 3.1872599433e+00 -7.3626759101e-02 
          -7.8268868539e+00 4.7283472631e+00 3.7854379409e-01 
          -1.9081069200e+00 6.7542913456e+00 -2.3915848813e-01 
          -5.7647937112e+00 7.6133856726e+00 -2.9538919587e-01 
          7.1451973058e+00 -5.1982463106e+00 2.4951987683e-01 
          1.0138601972e+00 -4.5655713775e+00 -1.5183350888e-01 
          3.8127705714e+00 1.4104205062e+00 -1.9348932849e-01 
          4.8244692831e+00 -1.3176015418e+00 -1.8814772944e-01 
          -7.5207507106e+00 3.3633755634e-01 -6.2712428711e-02 
          5.8423381762e+00 -6.2365519043e+00 -9.1831124554e-02 
          5.3473458417e+00 -1.2313626101e+00 2.2866891623e-01 
          3.6304736802e+00 1.1465101431e+00 -1.7738122273e-01 
          3.7501549702e+00 6.2639487223e-01 -1.1619361239e-01 
          -8.2579609208e-01 -1.6190778185e+00 -1.2568186103e-01 
          -6.7076188126e+00 -3.8695202364e-01 -2.0279400113e-01 
          3.6056612153e+00 3.4857003934e-01 -5.5231326255e-02 
          3.7659622672e+00 -6.1456413022e-01 -2.1522443399e-01 
          4.4490265956e+00 2.5984586455e+00 -2.3109214959e-01 
          1.8110482869e+00 -2.5877407422e-01 -2.5452688533e-01 
          -5.4934155706e-01 -3.6389116437e+00 -1.8226176363e-01 
          2.6817748919e+00 -6.3697678888e+00 1.3217224669e-01 
          1.5245119300e+00 -5.6217303185e+00 5.8402254827e-02 
          1.0307342344e+00 3.3541951896e-01 -2.1998100217e-01 
          2.4178586513e+00 -1.5822240614e+00 -2.8129649684e-01 
          2.2391510916e+00 -5.1967509182e+00 8.3320883469e-02 
          -4.4524054672e+00 -1.5863902703e+00 -2.2353123171e-01 
          2.3591859784e+00 -2.6028694498e+00 -1.7445769420e-01 
          7.2413293807e-01 -4.8026252622e+00 2.7913014750e-02 
          4.1979282517e-01 -3.9533605018e+00 -1.5336501369e-01 
          9.5218225178e-01 -2.9431709915e+00 -1.3990778189e-01 
          -9.7866688640e-01 -4.2356740130e+00 -4.4192678789e-01 
          8.9735739941e-01 -2.6335656422e+00 3.1511712566e-01 
          6.0652419179e-01 -5.1865282948e+00 4.5391127139e-01 
          -6.2021063953e-01 -2.3959926866e+00 -1.5003878932e-01 
          -1.5744215681e-01 -3.8348450435e+00 1.4346772698e-01 
          -1.1148965812e+00 -3.7173279931e+00 1.3031147654e-01 
          1.9618467715e+00 -1.3246988732e+01 -2.3239903518e-01 
          -3.4437057130e+00 -1.2078373311e+01 -1.1687388874e-01 
          -5.3279598999e-02 -5.0139830904e+00 -2.1466203484e-01 
          -1.2752357986e+00 -7.8026148708e+00 -6.5571325825e-01 
          -3.5138731080e-01 -8.1260707113e+00 -7.6466342830e-01 
          9.2465631409e-01 -7.3944164079e+00 6.2480919688e-01 
          -1.1787247187e+00 -4.3023572884e+00 4.7121639827e-01 
          -4.2716883981e-01 -3.5336913116e+00 -3.5192320125e-02 
          -2.5273588666e+00 -1.1070260674e+01 -2.9827046224e-02 
          2.2046057739e+00 -1.4502546600e+01 1.2057563607e-01 
          7.0049993811e-01 -2.4722557100e+00 -1.0123429096e-01 
          -1.9792742139e+00 -6.3551947084e+00 -7.0702809981e-01 
          9.9593881615e-01 -2.3033097867e+00 -2.8616314235e-01 
          -1.5212714698e+00 -2.8604662517e+00 1.4601932462e-01 
          -4.6652825036e+00 -7.6862750814e+00 -1.9842348304e-01 
          -9.8901498516e-01 -1.7144227969e+00 1.1046748457e-01 
          -2.3111260275e-01 -1.9840696980e+00 1.4452610071e-02 
          -1.7033313017e+00 -5.4082251666e+00 -9.2933969163e-02 
          -2.8748928015e+00 -2.4028649292e+00 3.4157564852e-01 
          -1.1619920530e+00 -3.2276138935e+00 4.0260152224e-02 
          -4.8088933763e+00 -7.0991694063e+00 -6.1554720183e-02 
          -1.5995754891e+00 -3.1805857939e+00 2.6334416149e-01 
          -1.1366162970e+00 -3.5333215598e+00 1.1705297673e+00 
          -1.1465331741e+00 -1.9348846722e+00 1.1544359615e+00 
          1.5584837426e-01 -3.4839157470e+00 -2.0091112327e-01 
          -1.2983399882e+00 -6.3956720903e+00 -8.7232181151e-01 
          -8.8214824363e-01 -3.5532789710e+00 -4.4509657447e-01 
          -5.7664156573e-01 -2.9669679459e+00 1.0752346727e-01 
          5.8767383596e-01 -8.7033122545e+00 -3.1546539718e-01 
          -9.4387359699e-01 -4.7976017137e+00 5.6488540690e-01 
          -5.9896149033e-01 -2.0590605613e+00 -1.4323871565e-01 
          -1.2026304743e-02 -3.7342627190e+00 -2.2050896822e-01 
          -6.3689126293e-01 -5.4013680880e+00 6.0063576955e-01 
          -3.8578586491e-01 -2.3186945320e+00 -3.9437938666e-02 
          -7.9720890821e-02 -1.0380279626e+01 -5.5611823118e-02 
          3.8276794952e-01 -2.2873095452e+00 -3.5029918097e-01 
          -2.4733360311e-01 -1.8616687761e+00 2.4653378145e-02 
          -4.4713970890e-01 -5.3917866529e+00 -1.1355601007e-01 
          2.1476815895e-01 -3.1600650259e+00 3.9150008688e-02 
          -1.1849090814e-01 -3.1415404748e+00 2.1789752672e-01 
          5.4812500381e-01 -5.9658161167e+00 1.1932168887e+00 
          5.3555291360e-01 -4.3142314785e+00 1.1183371793e+00 
          -3.2603688583e+00 -7.2753766730e+00 -5.6590215781e-01 
          -1.7449837958e+00 -4.9999389173e+00 1.1488396389e+00 
          -2.3841662266e+00 -3.1051185993e+00 -8.6575305412e-01 
          8.7506636673e-01 -1.6522724473e+00 -5.2123693037e-01 
          1.8595297295e+00 -3.9131952168e+00 1.1030574548e+00 
          2.1038330721e-01 -2.9629098156e+00 -8.3580958541e-01 
          1.4969738528e+00 -3.9848728057e+00 1.0596773823e+00 
          1.9794255430e-01 -3.2696793728e+00 -8.2033387195e-01 
          -2.1259418584e+00 -5.2868150761e+00 1.1625494800e+00 
          -2.4102841331e+00 -2.9847362207e+00 -8.8096505660e-01 
          -1.7192651198e+00 -5.9597539459e+00 -5.1135976250e-01 
          -1.4083789423e+00 -3.9389752904e+00 1.0513087106e+00 
          -1.8168542943e+00 -2.4631311050e+00 -7.8432430902e-01 
          5.2023961038e-01 -7.5074354174e-01 -4.6699904180e-01 
          2.0836951990e+00 -3.3774031716e+00 1.0041897010e+00 
          6.6783017973e-01 -2.4127345535e+00 -7.5674948166e-01 
          1.7822203490e+00 -2.6225949039e+00 9.5707694791e-01 
          6.5732675348e-01 -2.1814305786e+00 -7.3807348107e-01 
          -1.7268263520e+00 -4.0153160116e+00 1.0675817869e+00 
          -1.8432031261e+00 -2.1415804827e+00 -8.0274371427e-01 
          -3.2872166996e-01 -3.7468509238e+00 -2.9332006946e-01 
          -1.4461864265e+00 -2.9549154698e+00 6.2331275531e-01 
          -1.5450572943e+00 -1.9219669400e+00 -4.5028624210e-01 
          1.8768078289e+00 -8.9477097886e-01 -2.6001827164e-01 
          3.2282286744e+00 -2.6856552411e+00 5.7557551065e-01 
          1.7398298114e+00 -1.7456569391e+00 -4.2369452277e-01 
          3.0967746234e+00 -1.9610845152e+00 5.4646332659e-01 
          1.7247159638e+00 -1.4601564014e+00 -4.1446961269e-01 
          -1.5731055358e+00 -2.1644111991e+00 6.2500326237e-01 
          -1.5652020911e+00 -1.1272407808e+00 -4.5718910280e-01 
          -2.2777287743e-01 -2.5153109725e+00 -9.3816478928e-03 
          -2.8172176290e-01 -3.9162622883e+00 1.2625278412e-02 
          -1.9237268018e-01 -5.0808170779e-01 4.6093909260e-01 
          6.1612309192e-02 -6.2779267206e-01 4.7861495604e-01 
          5.4598346955e-02 -1.2304286957e+00 4.8628631457e-01 
          -2.0279948783e-01 -1.3170910190e+00 4.5293744106e-01 
          9.7151303134e-01 -7.6724131767e-01 -2.3662035711e-02 
          -5.1570787932e-01 -5.1061729343e-01 -3.2340431323e-02 
          3.9677974799e-01 -1.3047238694e-01 -3.7901431581e-02 
          6.7767324429e-01 -2.7895010116e+01 2.7601665095e-01 
          1.1162016307e+00 -2.0498205738e+00 6.4809892141e-02 
          1.0614449434e+00 -6.2055880280e-01 3.0053129385e-02 
          9.8137959798e-01 -4.0249465031e-01 -2.8859013217e-02 
          -5.5781856675e-01 -4.2619081435e-02 -2.9868206063e-02 
          2.5978301485e-01 1.5847547240e-01 -3.9733373661e-02 
          -1.6887330486e-01 -1.3306157416e+00 1.8232238922e-02 
          1.7283886710e-02 -1.7849063560e+00 4.3253898241e-02 
          -4.9109748991e-01 -3.8244220589e-01 9.1354925140e-03 
          1.1308877182e+00 7.9234993792e-02 -5.6383819017e-02 
          -6.7130439626e-01 -1.1460800006e-01 -5.7301238527e-02 
          -4.6129150054e-01 -9.0297852346e-01 -5.7598833850e-02 
          9.0750756710e-01 -1.1593592421e+00 4.3148320374e-02 
          6.5073983288e-01 -3.3134911081e-01 2.4112729385e-02 
          5.2585858644e-01 -1.7148488740e-01 2.6340585280e-02 
          1.0910970877e+00 -3.8147927219e-03 -5.5416694602e-02 
          -6.1237157624e-01 -3.6876463220e-01 -5.7898570657e-02 
          -7.3849478520e-01 -8.0532811026e-01 -5.5896901960e-02 
          -2.3985278815e-01 -1.2633829312e+00 3.1190460541e-02 
          1.4337488041e-01 -2.3094526310e-01 1.1599310934e-02 
          2.1878132520e-01 2.3900816043e-02 1.2713472563e-02 
        </DataArray>
        <DataArray type="Float64" Name="UnbalancedLoad" NumberOfComponents="3" format="ascii">
          0.0000000000e+00 0.0000000000e+00 -1.5976840566e+04 
          0.0000000000e+00 0.0000000000e+00 -1.6371478694e+04 
          0.0000000000e+00 0.0000000000e+00 -1.5976218395e+04 
          0.0000000000e+00 0.0000000000e+00 -2.5796314578e+04 
          0.0000000000e+00 0.0000000000e+00 -2.5795921568e+04 
          0.0000000000e+00 0.0000000000e+00 -1.7454743234e+04 
          0.0000000000e+00 0.0000000000e+00 -1.7457095696e+04 
          0.0000000000e+00 0.0000000000e+00 -1.3060205714e+04 
          0.0000000000e+00 0.0000000000e+00 -1.3062165179e+04 
          0.0000000000e+00 0.0000000000e+00 -1.6370856509e+04 
          0.0000000000e+00 0.0000000000e+00 -1.5976840566e+04 
          0.0000000000e+00 0.0000000000e+00 -2.5796314578e+04 
          0.0000000000e+00 0.0000000000e+00 -1.7457095696e+04 
          0.0000000000e+00 0.0000000000e+00 -1.7457095696e+04 
          0.0000000000e+00 0.0000000000e+00 -1.3062165179e+04 
          0.0000000000e+00 0.0000000000e+00 -1.6370856509e+04 
          0.0000000000e+00 0.0000000000e+00 -1.5976840566e+04 
          0.0000000000e+00 0.0000000000e+00 -2.5796314578e+04 
          0.0000000000e+00 0.0000000000e+00 -1.7457095696e+04 
          0.0000000000e+00 0.0000000000e+00 -1.7457095696e+04 
          0.0000000000e+00 0.0000000000e+00 -1.3062165179e+04 
          0.0000000000e+00 0.0000000000e+00 -1.6370856509e+04 
          0.0000000000e+00 0.0000000000e+00 -1.7457095696e+04 
          0.0000000000e+00 0.0000000000e+00 -1.7457095696e+04 
          0.0000000000e+00 0.0000000000e+00 -8.7022996300e+03 
          0.0000000000e+00 0.0000000000e+00 -8.7022996300e+03 
          0.0000000000e+00 0.0000000000e+00 -7.8600401753e+03 
          0.0000000000e+00 0.0000000000e+00 -7.8600401753e+03 
          0.0000000000e+00 0.0000000000e+00 -6.4703363694e+03 
          0.0000000000e+00 0.0000000000e+00 -6.4703363694e+03 
          0.0000000000e+00 0.0000000000e+00 -8.7022996300e+03 
          0.0000000000e+00 0.0000000000e+00 -7.8600401753e+03 
          0.0000000000e+00 0.0000000000e+00 -6.4703363694e+03 
          0.0000000000e+00 0.0000000000e+00 -8.7022996300e+03 
          0.0000000000e+00 0.0000000000e+00 -7.8600401753e+03 
          0.0000000000e+00 0.0000000000e+00 -6.4703363694e+03 
          0.0000000000e+00 0.0000000000e+00 -5.2102006486e+03 
          0.0000000000e+00 0.0000000000e+00 -5.2102006486e+03 
          0.0000000000e+00 0.0000000000e+00 -4.7140040018e+03 
          0.0000000000e+00 0.0000000000e+00 -4.7140040018e+03 
          0.0000000000e+00 0.0000000000e+00 -6.4236883226e+03 
          0.0000000000e+00 0.0000000000e+00 -6.4236883226e+03 
          0.0000000000e+00 0.0000000000e+00 -5.2102006486e+03 
          0.0000000000e+00 0.0000000000e+00 -4.7140040018e+03 
          0.0000000000e+00 0.0000000000e+00 -6.4236883226e+03 
          0.0000000000e+00 0.0000000000e+00 -5.2102006486e+03 
          0.0000000000e+00 0.0000000000e+00 -4.7140040018e+03 
          0.0000000000e+00 0.0000000000e+00 -6.4236883226e+03 
          0.0000000000e+00 0.0000000000e+00 -2.9630358961e+03 
          0.0000000000e+00 0.0000000000e+00 -2.9630358961e+03 
          0.0000000000e+00 0.0000000000e+00 -3.7047038786e+03 
          0.0000000000e+00 0.0000000000e+00 -3.0400708367e+03 
          0.0000000000e+00 0.0000000000e+00 -3.0400708367e+03 
          0.0000000000e+00 0.0000000000e+00 -1.6900006918e+03 
          0.0000000000e+00 0.0000000000e+00 -2.2784870094e+03 
          0.0000000000e+00 0.0000000000e+00 -2.2784870094e+03 
          0.0000000000e+00 0.0000000000e+00 -6.0546638655e+03 
          0.0000000000e+00 0.0000000000e+00 -6.0546638655e+03 
          0.0000000000e+00 0.0000000000e+00 -3.0201549919e+03 
          0.0000000000e+00 0.0000000000e+00 -5.5471744589e+03 
          0.0000000000e+00 0.0000000000e+00 -5.5471744589e+03 
          0.0000000000e+00 0.0000000000e+00 -3.0400708367e+03 
          0.0000000000e+00 0.0000000000e+00 -3.0400708367e+03 
          0.0000000000e+00 0.0000000000e+00 -1.6900006918e+03 
          0.0000000000e+00 0.0000000000e+00 -5.7926263516e+03 
          0.0000000000e+00 0.0000000000e+00 -5.7926263516e+03 
          0.0000000000e+00 0.0000000000e+00 -2.9630358961e+03 
          0.0000000000e+00 0.0000000000e+00 -5.5471744589e+03 
          0.0000000000e+00 0.0000000000e+00 -3.7047038786e+03 
          0.0000000000e+00 0.0000000000e+00 -2.2784870094e+03 
          0.0000000000e+00 0.0000000000e+00 -6.0546638655e+03 
          0.0000000000e+00 0.0000000000e+00 -3.0400708367e+03 
          0.0000000000e+00 0.0000000000e+00 -1.6900006918e+03 
          0.0000000000e+00 0.0000000000e+00 -3.0201549919e+03 
          0.0000000000e+00 0.0000000000e+00 -3.0400708367e+03 
          0.0000000000e+00 0.0000000000e+00 -1.6900006918e+03 
          0.0000000000e+00 0.0000000000e+00 -5.7926263516e+03 
          0.0000000000e+00 0.0000000000e+00 -1.6077622492e+03 
          0.0000000000e+00 0.0000000000e+00 -1.9428164436e+03 
          0.0000000000e+00 0.0000000000e+00 -1.9428164436e+03 
          0.0000000000e+00 0.0000000000e+00 -2.9630358961e+03 
          0.0000000000e+00 0.0000000000e+00 -5.5471744589e+03 
          0.0000000000e+00 0.0000000000e+00 -3.7047038786e+03 
          0.0000000000e+00 0.0000000000e+00 -2.2784870094e+03 
          0.0000000000e+00 0.0000000000e+00 -6.0546638655e+03 
          0.0000000000e+00 0.0000000000e+00 -3.0400708367e+03 
          0.0000000000e+00 0.0000000000e+00 -1.6900006918e+03 
          0.0000000000e+00 0.0000000000e+00 -3.0201549919e+03 
          0.0000000000e+00 0.0000000000e+00 -3.0400708367e+03 
          0.0000000000e+00 0.0000000000e+00 -1.6900006918e+03 
          0.0000000000e+00 0.0000000000e+00 -5.7926263516e+03 
          0.0000000000e+00 0.0000000000e+00 -3.7047038786e+03 
          0.0000000000e+00 0.0000000000e+00 -1.6900006918e+03 
          0.0000000000e+00 0.0000000000e+00 -3.0201549919e+03 
          0.0000000000e+00 0.0000000000e+00 -1.6900006918e+03 
          0.0000000000e+00 0.0000000000e+00 -1.6077622492e+03 
          0.0000000000e+00 0.0000000000e+00 -1.9428164436e+03 
          0.0000000000e+00 0.0000000000e+00 -1.9428164436e+03 
          0.0000000000e+00 0.0000000000e+00 -2.5119759069e+03 
          0.0000000000e+00 0.0000000000e+00 -2.5119943750e+03 
          0.0000000000e+00 0.0000000000e+00 -1.7830713206e+03 
          0.0000000000e+00 0.0000000000e+00 -2.5119759069e+03 
          0.0000000000e+00 0.0000000000e+00 -2.5119943750e+03 
          0.0000000000e+00 0.0000000000e+00 -1.7830713206e+03 
          0.0000000000e+00 0.0000000000e+00 -2.5119943750e+03 
          0.0000000000e+00 0.0000000000e+00 -1.7830713206e+03 
          0.0000000000e+00 0.0000000000e+00 -2.5119943750e+03 
          0.0000000000e+00 0.0000000000e+00 -1.7830713206e+03 
          0.0000000000e+00 0.0000000000e+00 -2.5119759069e+03 
          0.0000000000e+00 0.0000000000e+00 -2.5119943750e+03 
          0.0000000000e+00 0.0000000000e+00 -1.7830713206e+03 
          0.0000000000e+00 0.0000000000e+00 -2.5119759069e+03 
          0.0000000000e+00 0.0000000000e+00 -2.5119943750e+03 
          0.0000000000e+00 0.0000000000e+00 -1.7830713206e+03 
          0.0000000000e+00 0.0000000000e+00 -2.5119943750e+03 
          0.0000000000e+00 0.0000000000e+00 -1.7830713206e+03 
          0.0000000000e+00 0.0000000000e+00 -2.5119943750e+03 
          0.0000000000e+00 0.0000000000e+00 -1.7830713206e+03 
          0.0000000000e+00 0.0000000000e+00 -2.5119759069e+03 
          0.0000000000e+00 0.0000000000e+00 -2.5119943750e+03 
          0.0000000000e+00 0.0000000000e+00 -1.7830713206e+03 
          0.0000000000e+00 0.0000000000e+00 -2.5119759069e+03 
          0.0000000000e+00 0.0000000000e+00 -2.5119943750e+03 
          0.0000000000e+00 0.0000000000e+00 -1.7830713206e+03 
          0.0000000000e+00 0.0000000000e+00 -2.5119943750e+03 
          0.0000000000e+00 0.0000000000e+00 -1.7830713206e+03 
          0.0000000000e+00 0.0000000000e+00 -2.5119943750e+03 
          0.0000000000e+00 0.0000000000e+00 -1.7830713206e+03 
          0.0000000000e+00 0.0000000000e+00 -1.6115926839e+03 
          0.0000000000e+00 0.0000000000e+00 -1.6115926839e+03 
          0.0000000000e+00 0.0000000000e+00 -4.4054829143e+02 
          0.0000000000e+00 0.0000000000e+00 -4.4054829143e+02 
          0.0000000000e+00 0.0000000000e+00 -4.4054829143e+02 
          0.0000000000e+00 0.0000000000e+00 -4.4054829143e+02 
          0.0000000000e+00 0.0000000000e+00 -2.1436041074e+03 
          0.0000000000e+00 0.0000000000e+00 -1.9362936376e+03 
          0.0000000000e+00 0.0000000000e+00 -1.7456580957e+03 
          0.0000000000e+00 0.0000000000e+00 -2.1436041074e+03 
          0.0000000000e+00 0.0000000000e+00 -1.9362936376e+03 
          0.0000000000e+00 0.0000000000e+00 -1.7456580957e+03 
          0.0000000000e+00 0.0000000000e+00 -2.1436041074e+03 
          0.0000000000e+00 0.0000000000e+00 -1.9362936376e+03 
          0.0000000000e+00 0.0000000000e+00 -1.7456580957e+03 
          0.0000000000e+00 0.0000000000e+00 -2.1436041074e+03 
          0.0000000000e+00 0.0000000000e+00 -1.9362936376e+03 
          0.0000000000e+00 0.0000000000e+00 -1.7456580957e+03 
          0.0000000000e+00 0.0000000000e+00 -1.5740766908e+03 
          0.0000000000e+00 0.0000000000e+00 -1.4166952196e+03 
          0.0000000000e+00 0.0000000000e+00 -1.2841684833e+03 
          0.0000000000e+00 0.0000000000e+00 -1.5740766908e+03 
          0.0000000000e+00 0.0000000000e+00 -1.4166952196e+03 
          0.0000000000e+00 0.0000000000e+00 -1.2841684833e+03 
          0.0000000000e+00 0.0000000000e+00 -1.5740766908e+03 
          0.0000000000e+00 0.0000000000e+00 -1.4166952196e+03 
          0.0000000000e+00 0.0000000000e+00 -1.2841684833e+03 
          0.0000000000e+00 0.0000000000e+00 -1.5740766908e+03 
          0.0000000000e+00 0.0000000000e+00 -1.4166952196e+03 
          0.0000000000e+00 0.0000000000e+00 -1.2841684833e+03 
        </DataArray>
      </PointData>
      <CellData>
        <DataArray type="Int64" Name="ElementTag" format="ascii">
          0
        </DataArray>
      </CellData>
    </Piece>
  </UnstructuredGrid>
</VTKFile>
