<?xml version="1.0"?>
<VTKFile type="UnstructuredGrid" version="1.0" byte_order="LittleEndian" compressor="vtkZLibDataCompressor">
  <UnstructuredGrid>
    <Piece NumberOfPoints="158" NumberOfCells="1">
      <Points>
        <DataArray type="Float64" Name="Points" NumberOfComponents="3" format="ascii">
          1.7550000000e+00 -1.7550000000e+00 0.0000000000e+00 
          1.4140000000e+00 0.0000000000e+00 5.2300000000e+00 
          1.7550000000e+00 1.7550000000e+00 -0.0000000000e+00 
          1.4140000000e+00 -1.4140000000e+00 5.2300000000e+00 
          1.4140000000e+00 1.4140000000e+00 5.2300000000e+00 
          1.5840000000e+00 8.7800000000e-01 2.6150000000e+00 
          1.5840000000e+00 -8.7700000000e-01 2.6150000000e+00 
          1.5840000000e+00 1.5840000000e+00 2.6150000000e+00 
          1.5840000000e+00 -1.5840000000e+00 2.6150000000e+00 
          -0.0000000000e+00 1.4140000000e+00 5.2300000000e+00 
          -1.7550000000e+00 1.7550000000e+00 -0.0000000000e+00 
          -1.4140000000e+00 1.4140000000e+00 5.2300000000e+00 
          -8.7700000000e-01 1.5840000000e+00 2.6150000000e+00 
          8.7700000000e-01 1.5840000000e+00 2.6150000000e+00 
          -1.5840000000e+00 1.5840000000e+00 2.6150000000e+00 
          -1.4140000000e+00 -0.0000000000e+00 5.2300000000e+00 
          -1.7550000000e+00 -1.7550000000e+00 -0.0000000000e+00 
          -1.4140000000e+00 -1.4140000000e+00 5.2300000000e+00 
          -1.5840000000e+00 -8.7700000000e-01 2.6150000000e+00 
          -1.5840000000e+00 8.7700000000e-01 2.6150000000e+00 
          -1.5840000000e+00 -1.5840000000e+00 2.6150000000e+00 
          0.0000000000e+00 -1.4140000000e+00 5.2300000000e+00 
          8.7700000000e-01 -1.5840000000e+00 2.6150000000e+00 
          -8.7700000000e-01 -1.5840000000e+00 2.6150000000e+00 
          1.2750000000e+00 1.2750000000e+00 7.3500000000e+00 
          1.2750000000e+00 -1.2750000000e+00 7.3500000000e+00 
          1.1500000000e+00 -1.1500000000e+00 9.2700000000e+00 
          1.1500000000e+00 1.1500000000e+00 9.2700000000e+00 
          1.0370000000e+00 -1.0370000000e+00 1.1000000000e+01 
          1.0370000000e+00 1.0370000000e+00 1.1000000000e+01 
          -1.2750000000e+00 1.2750000000e+00 7.3500000000e+00 
          -1.1500000000e+00 1.1500000000e+00 9.2700000000e+00 
          -1.0370000000e+00 1.0370000000e+00 1.1000000000e+01 
          -1.2750000000e+00 -1.2750000000e+00 7.3500000000e+00 
          -1.1500000000e+00 -1.1500000000e+00 9.2700000000e+00 
          -1.0370000000e+00 -1.0370000000e+00 1.1000000000e+01 
          9.3500000000e-01 9.3500000000e-01 1.2560000000e+01 
          9.3500000000e-01 -9.3500000000e-01 1.2560000000e+01 
          8.4300000000e-01 8.4300000000e-01 1.3960000000e+01 
          8.4300000000e-01 -8.4300000000e-01 1.3960000000e+01 
          7.6000000000e-01 7.6000000000e-01 1.5240000000e+01 
          7.6000000000e-01 -7.6000000000e-01 1.5240000000e+01 
          -9.3500000000e-01 9.3500000000e-01 1.2560000000e+01 
          -8.4300000000e-01 8.4300000000e-01 1.3960000000e+01 
          -7.6000000000e-01 7.6000000000e-01 1.5240000000e+01 
          -9.3500000000e-01 -9.3500000000e-01 1.2560000000e+01 
          -8.4300000000e-01 -8.4300000000e-01 1.3960000000e+01 
          -7.6000000000e-01 -7.6000000000e-01 1.5240000000e+01 
          7.6000000000e-01 -7.6000000000e-01 1.6240000000e+01 
          7.6000000000e-01 7.6000000000e-01 1.6240000000e+01 
          7.6000000000e-01 0.0000000000e+00 1.6240000000e+01 
          7.6000000000e-01 7.6000000000e-01 1.7340000000e+01 
          7.6000000000e-01 -7.6000000000e-01 1.7340000000e+01 
          7.6000000000e-01 0.0000000000e+00 1.7890000000e+01 
          7.6000000000e-01 -7.6000000000e-01 1.9440000000e+01 
          7.6000000000e-01 7.6000000000e-01 1.9440000000e+01 
          7.6000000000e-01 -7.6000000000e-01 2.1640000000e+01 
          7.6000000000e-01 7.6000000000e-01 2.1640000000e+01 
          7.6000000000e-01 0.0000000000e+00 1.9440000000e+01 
          7.6000000000e-01 7.6000000000e-01 1.8440000000e+01 
          7.6000000000e-01 -7.6000000000e-01 1.8440000000e+01 
          7.6000000000e-01 -7.6000000000e-01 2.0540000000e+01 
          7.6000000000e-01 7.6000000000e-01 2.0540000000e+01 
          7.6000000000e-01 0.0000000000e+00 2.1090000000e+01 
          7.6000000000e-01 7.6000000000e-01 2.2640000000e+01 
          7.6000000000e-01 -7.6000000000e-01 2.2640000000e+01 
          -7.6000000000e-01 7.6000000000e-01 1.6240000000e+01 
          -7.6000000000e-01 7.6000000000e-01 1.8440000000e+01 
          -0.0000000000e+00 7.6000000000e-01 1.6240000000e+01 
          -7.6000000000e-01 7.6000000000e-01 1.9440000000e+01 
          -7.6000000000e-01 7.6000000000e-01 2.1640000000e+01 
          -7.6000000000e-01 7.6000000000e-01 1.7340000000e+01 
          -0.0000000000e+00 7.6000000000e-01 1.7890000000e+01 
          -0.0000000000e+00 7.6000000000e-01 1.9440000000e+01 
          -7.6000000000e-01 7.6000000000e-01 2.0540000000e+01 
          0.0000000000e+00 7.6000000000e-01 2.1090000000e+01 
          -7.6000000000e-01 7.6000000000e-01 2.2640000000e+01 
          -0.0000000000e+00 5.2600000000e-01 2.3499000000e+01 
          3.9900000000e-01 4.0400000000e-01 2.3950000000e+01 
          -3.9900000000e-01 4.0400000000e-01 2.3950000000e+01 
          -7.6000000000e-01 -7.6000000000e-01 1.6240000000e+01 
          -7.6000000000e-01 -7.6000000000e-01 1.8440000000e+01 
          -7.6000000000e-01 -0.0000000000e+00 1.6240000000e+01 
          -7.6000000000e-01 -7.6000000000e-01 1.9440000000e+01 
          -7.6000000000e-01 -7.6000000000e-01 2.1640000000e+01 
          -7.6000000000e-01 -7.6000000000e-01 1.7340000000e+01 
          -7.6000000000e-01 0.0000000000e+00 1.7890000000e+01 
          -7.6000000000e-01 -0.0000000000e+00 1.9440000000e+01 
          -7.6000000000e-01 -7.6000000000e-01 2.0540000000e+01 
          -7.6000000000e-01 -0.0000000000e+00 2.1090000000e+01 
          -7.6000000000e-01 -7.6000000000e-01 2.2640000000e+01 
          0.0000000000e+00 -7.6000000000e-01 1.6240000000e+01 
          0.0000000000e+00 -7.6000000000e-01 1.7890000000e+01 
          0.0000000000e+00 -7.6000000000e-01 1.9440000000e+01 
          0.0000000000e+00 -7.6000000000e-01 2.1090000000e+01 
          0.0000000000e+00 -5.2600000000e-01 2.3499000000e+01 
          3.9900000000e-01 -4.0400000000e-01 2.3950000000e+01 
          -3.9900000000e-01 -4.0400000000e-01 2.3950000000e+01 
          -0.0000000000e+00 -3.3500000000e+00 2.1640000000e+01 
          -3.8000000000e-01 -2.0550000000e+00 2.2140000000e+01 
          -3.8000000000e-01 -2.0550000000e+00 2.1640000000e+01 
          0.0000000000e+00 3.3500000000e+00 2.1640000000e+01 
          -3.8000000000e-01 2.0550000000e+00 2.2140000000e+01 
          -3.8000000000e-01 2.0550000000e+00 2.1640000000e+01 
          3.8000000000e-01 2.0550000000e+00 2.2140000000e+01 
          3.8000000000e-01 2.0550000000e+00 2.1640000000e+01 
          3.8000000000e-01 -2.0550000000e+00 2.2140000000e+01 
          3.8000000000e-01 -2.0550000000e+00 2.1640000000e+01 
          -0.0000000000e+00 -3.3500000000e+00 1.8440000000e+01 
          -3.8000000000e-01 -2.0550000000e+00 1.8940000000e+01 
          -3.8000000000e-01 -2.0550000000e+00 1.8440000000e+01 
          -0.0000000000e+00 3.3500000000e+00 1.8440000000e+01 
          -3.8000000000e-01 2.0550000000e+00 1.8940000000e+01 
          -3.8000000000e-01 2.0550000000e+00 1.8440000000e+01 
          3.8000000000e-01 2.0550000000e+00 1.8940000000e+01 
          3.8000000000e-01 2.0550000000e+00 1.8440000000e+01 
          3.8000000000e-01 -2.0550000000e+00 1.8940000000e+01 
          3.8000000000e-01 -2.0550000000e+00 1.8440000000e+01 
          -0.0000000000e+00 -3.3500000000e+00 1.5240000000e+01 
          -3.8000000000e-01 -2.0550000000e+00 1.5740000000e+01 
          -3.8000000000e-01 -2.0550000000e+00 1.5240000000e+01 
          -0.0000000000e+00 3.3500000000e+00 1.5240000000e+01 
          -3.8000000000e-01 2.0550000000e+00 1.5740000000e+01 
          -3.8000000000e-01 2.0550000000e+00 1.5240000000e+01 
          3.8000000000e-01 2.0550000000e+00 1.5740000000e+01 
          3.8000000000e-01 2.0550000000e+00 1.5240000000e+01 
          3.8000000000e-01 -2.0550000000e+00 1.5740000000e+01 
          3.8000000000e-01 -2.0550000000e+00 1.5240000000e+01 
          -5.2400000000e-01 0.0000000000e+00 2.3496000000e+01 
          5.2400000000e-01 0.0000000000e+00 2.3496000000e+01 
          4.0000000000e-02 5.0000000000e-02 2.5250000000e+01 
          -4.0000000000e-02 5.0000000000e-02 2.5250000000e+01 
          -4.0000000000e-02 -5.0000000000e-02 2.5250000000e+01 
          4.0000000000e-02 -5.0000000000e-02 2.5250000000e+01 
          1.3410000000e+00 0.0000000000e+00 6.3450000000e+00 
          1.2090000000e+00 0.0000000000e+00 8.3600000000e+00 
          1.0900000000e+00 -0.0000000000e+00 1.0180000000e+01 
          -0.0000000000e+00 1.3410000000e+00 6.3450000000e+00 
          0.0000000000e+00 1.2090000000e+00 8.3600000000e+00 
          -0.0000000000e+00 1.0900000000e+00 1.0180000000e+01 
          -1.3410000000e+00 0.0000000000e+00 6.3450000000e+00 
          -1.2090000000e+00 0.0000000000e+00 8.3600000000e+00 
          -1.0900000000e+00 -0.0000000000e+00 1.0180000000e+01 
          -0.0000000000e+00 -1.3410000000e+00 6.3450000000e+00 
          0.0000000000e+00 -1.2090000000e+00 8.3600000000e+00 
          0.0000000000e+00 -1.0900000000e+00 1.0180000000e+01 
          9.8300000000e-01 0.0000000000e+00 1.1820000000e+01 
          8.8700000000e-01 0.0000000000e+00 1.3296000000e+01 
          8.0000000000e-01 -0.0000000000e+00 1.4633000000e+01 
          0.0000000000e+00 9.8300000000e-01 1.1820000000e+01 
          -0.0000000000e+00 8.8700000000e-01 1.3296000000e+01 
          0.0000000000e+00 8.0000000000e-01 1.4633000000e+01 
          -9.8300000000e-01 0.0000000000e+00 1.1820000000e+01 
          -8.8700000000e-01 0.0000000000e+00 1.3296000000e+01 
          -8.0000000000e-01 0.0000000000e+00 1.4633000000e+01 
          0.0000000000e+00 -9.8300000000e-01 1.1820000000e+01 
          0.0000000000e+00 -8.8700000000e-01 1.3296000000e+01 
          0.0000000000e+00 -8.0000000000e-01 1.4633000000e+01 
        </DataArray>
      </Points>
      <Cells>
        <DataArray type="Int64" Name="connectivity" format="ascii">
          0
          1
          2
          3
          4
          5
          6
          7
          8
          9
          10
          11
          12
          13
          14
          15
          16
          17
          18
          19
          20
          21
          22
          23
          24
          25
          26
          27
          28
          29
          30
          31
          32
          33
          34
          35
          36
          37
          38
          39
          40
          41
          42
          43
          44
          45
          46
          47
          48
          49
          50
          51
          52
          53
          54
          55
          56
          57
          58
          59
          60
          61
          62
          63
          64
          65
          66
          67
          68
          69
          70
          71
          72
          73
          74
          75
          76
          77
          78
          79
          80
          81
          82
          83
          84
          85
          86
          87
          88
          89
          90
          91
          92
          93
          94
          95
          96
          97
          98
          99
          100
          101
          102
          103
          104
          105
          106
          107
          108
          109
          110
          111
          112
          113
          114
          115
          116
          117
          118
          119
          120
          121
          122
          123
          124
          125
          126
          127
          128
          129
          130
          131
          132
          133
          134
          135
          136
          137
          138
          139
          140
          141
          142
          143
          144
          145
          146
          147
          148
          149
          150
          151
          152
          153
          154
          155
          156
          157
        </DataArray>
        <DataArray type="Int64" Name="offsets" format="ascii">
          158
        </DataArray>
        <DataArray type="Int64" Name="types" format="ascii">
          2
        </DataArray>
      </Cells>
      <PointData>
        <DataArray type="Int64" Name="NodeTag" format="ascii">
          1
          2
          3
          4
          5
          6
          7
          8
          9
          10
          11
          12
          13
          14
          15
          16
          17
          18
          19
          20
          21
          22
          23
          24
          25
          26
          27
          28
          29
          30
          31
          32
          33
          34
          35
          36
          37
          38
          39
          40
          41
          42
          43
          44
          45
          46
          47
          48
          49
          50
          51
          52
          53
          54
          55
          56
          57
          58
          59
          60
          61
          62
          63
          64
          65
          66
          67
          68
          69
          70
          71
          72
          73
          74
          75
          76
          77
          78
          79
          80
          81
          82
          83
          84
          85
          86
          87
          88
          89
          90
          91
          92
          93
          94
          95
          96
          97
          98
          99
          100
          101
          102
          103
          104
          105
          106
          107
          108
          109
          110
          111
          112
          113
          114
          115
          116
          117
          118
          119
          120
          121
          122
          123
          124
          125
          126
          127
          128
          129
          130
          131
          132
          133
          134
          135
          136
          137
          138
          139
          140
          141
          142
          143
          144
          145
          146
          147
          148
          149
          150
          151
          152
          153
          154
          155
          156
          157
          158
        </DataArray>
        <DataArray type="Float64" Name="Displacement" NumberOfComponents="3" format="ascii">
          0.0000000000e+00 0.0000000000e+00 0.0000000000e+00 
          -4.6994816321e-05 -1.4569072669e-04 -5.2505319150e-05 
          0.0000000000e+00 0.0000000000e+00 0.0000000000e+00 
          5.5937433740e-05 -1.4681019833e-04 -2.7480894994e-04 
          -2.6562445919e-05 -1.5132971191e-04 -2.4299534946e-04 
          -4.3665368895e-04 -4.7880250132e-04 -1.9937489836e-04 
          -3.2071984029e-04 3.4030944398e-04 -1.9510678200e-04 
          -4.2706492875e-04 -4.7784084036e-04 -1.8345372853e-04 
          -3.5889715750e-04 3.3945025583e-04 -1.9851102909e-04 
          -2.2755267048e-05 -1.9166391446e-04 -4.9733635286e-05 
          0.0000000000e+00 0.0000000000e+00 0.0000000000e+00 
          -1.9463948201e-05 -6.1650131801e-05 -2.3562642135e-04 
          3.7596114884e-04 -4.0278056979e-04 -1.8109718703e-04 
          -4.2668583365e-04 -4.5733319468e-04 -1.9087171572e-04 
          3.7577985475e-04 -4.1488169758e-04 -1.7673845683e-04 
          1.1034233682e-04 -5.7829504722e-05 -5.3982167913e-05 
          0.0000000000e+00 0.0000000000e+00 0.0000000000e+00 
          6.2258711863e-05 -5.7072431441e-05 -2.9947807252e-04 
          4.7876476982e-04 4.4697945058e-04 -2.2276848067e-04 
          3.7611289836e-04 -4.1555297164e-04 -1.8688112137e-04 
          5.0419989042e-04 4.4644344365e-04 -2.2066832627e-04 
          5.8071763708e-05 4.4835146292e-06 -6.1315266148e-05 
          -3.6112291093e-04 3.3111008335e-04 -2.0141036011e-04 
          5.0559935793e-04 4.4071325608e-04 -2.3201767448e-04 
          2.9326238641e-05 -1.1903724173e-04 -3.1793758345e-04 
          3.0826999036e-04 -3.6737862560e-04 -3.7828707586e-04 
          -1.1198622247e-04 -2.7708209281e-04 -5.1336088686e-04 
          -2.9905229665e-05 -3.8169309700e-04 -4.0554694173e-04 
          2.4421285825e-04 -5.0247126368e-04 -5.5682446150e-04 
          1.1103236972e-05 -3.3205121852e-04 -4.5250208802e-04 
          -7.8783134228e-05 -7.9843586054e-05 -3.1514372737e-04 
          -2.3696196392e-05 -2.2720747499e-04 -3.9599715862e-04 
          -6.7100209289e-05 -2.9321217653e-04 -4.5039162748e-04 
          -1.9461469491e-04 -2.1042880789e-04 -4.0005022331e-04 
          2.2876904877e-04 -2.4235350618e-04 -5.2653542275e-04 
          -1.2918942771e-04 -3.6696537784e-04 -5.7802653105e-04 
          -2.0421832997e-05 -5.3128883131e-04 -5.2343798546e-04 
          -1.1056503062e-05 -5.0221069199e-04 -6.6750875449e-04 
          3.4628432572e-07 -5.8356542038e-04 -5.6736726442e-04 
          1.1877266024e-04 -6.7787578964e-04 -7.2032729273e-04 
          -1.7906032198e-05 -7.6631558587e-04 -6.1340728935e-04 
          3.1179064987e-05 -7.5400362246e-04 -7.8901819816e-04 
          -2.9138980019e-05 -4.2316574215e-04 -5.1627653606e-04 
          -4.5996290886e-05 -5.3623329931e-04 -5.6674970321e-04 
          -2.6950661446e-05 -7.2190370378e-04 -6.1481275217e-04 
          1.1735091335e-04 -4.5905490830e-04 -6.8488902444e-04 
          -3.6991934294e-05 -6.0451156172e-04 -7.4301748751e-04 
          1.9426443827e-05 -7.1286126104e-04 -8.0927153624e-04 
          7.8332865860e-06 -8.9471172477e-04 -8.7314054879e-04 
          -2.3398059457e-05 -8.8367753168e-04 -6.4830500320e-04 
          -4.9044973716e-06 -8.8967781011e-04 -7.2807329345e-04 
          2.0598647985e-05 -1.0228283850e-03 -6.7636276877e-04 
          1.0567061782e-04 -1.2080086566e-03 -9.5588243927e-04 
          1.6254890412e-06 -1.2253083960e-03 -9.3139178633e-04 
          -4.9378219821e-05 -1.6012788869e-03 -1.1095703801e-03 
          -6.3586487362e-05 -1.5758035532e-03 -7.6921238573e-04 
          -9.9668931084e-05 -2.1108713010e-03 -1.1952000485e-03 
          -1.0294476428e-04 -2.1339102374e-03 -8.3555624285e-04 
          -3.8069057363e-05 -1.5872835058e-03 -9.1585724156e-04 
          -4.2030358450e-05 -1.3625771856e-03 -7.3936732373e-04 
          -2.7410312141e-05 -1.3434530209e-03 -1.0679324411e-03 
          -1.8700311230e-05 -1.9140730008e-03 -1.1457732654e-03 
          -4.1789345291e-05 -1.8007190001e-03 -7.9216713015e-04 
          -8.4994997423e-05 -1.9888335560e-03 -1.0405342854e-03 
          -1.2489374322e-04 -2.3465173008e-03 -8.5273113015e-04 
          -1.2367284497e-04 -2.3752581682e-03 -1.2123698474e-03 
          -2.0458388184e-05 -8.5117552219e-04 -6.5650175611e-04 
          -5.1189916106e-05 -1.3416451230e-03 -7.6083104675e-04 
          -2.2123961190e-05 -8.2882339778e-04 -6.3526222359e-04 
          -5.8092185051e-05 -1.5564034466e-03 -7.9409330670e-04 
          -1.0737788343e-04 -2.1219317430e-03 -8.6672340479e-04 
          -8.7678349289e-05 -9.9107763420e-04 -6.9108434794e-04 
          -3.8889364868e-05 -1.1748729901e-03 -7.5254030003e-04 
          -6.1078645445e-05 -1.4809638357e-03 -7.6822464467e-04 
          -1.2423494703e-04 -1.7791121639e-03 -8.2039199151e-04 
          -9.3584424563e-05 -2.0138879076e-03 -8.5716752574e-04 
          -1.2765870658e-04 -2.3355391893e-03 -8.8439034372e-04 
          -1.4602541752e-04 -2.5912603632e-03 -9.4273934569e-04 
          -1.5590970223e-04 -2.6723883797e-03 -9.5718162751e-04 
          -1.5618868433e-04 -2.6649304056e-03 -9.7271407396e-04 
          1.0578920919e-05 -8.6226053355e-04 -8.9527547836e-04 
          -2.9802213779e-05 -1.3218007954e-03 -1.0956872693e-03 
          -1.5761799750e-05 -8.5740570713e-04 -7.4184418717e-04 
          -4.4393439735e-05 -1.5816049659e-03 -1.1399970986e-03 
          -1.0061047656e-04 -2.0974859385e-03 -1.2312565977e-03 
          -1.2481248470e-04 -1.1884313948e-03 -9.8038317593e-04 
          -8.9415154925e-05 -1.2025026803e-03 -9.5789578664e-04 
          -4.2042785734e-05 -1.5681385732e-03 -9.4139876817e-04 
          -1.2760660455e-04 -1.9045978232e-03 -1.1793186921e-03 
          -1.3463439141e-04 -1.9748372591e-03 -1.0773960986e-03 
          -1.2705080026e-04 -2.3648309207e-03 -1.2484690176e-03 
          9.4061308980e-06 -8.5149466303e-04 -8.4979282310e-04 
          -1.8531619005e-05 -1.2628549387e-03 -1.1045684660e-03 
          -4.7072218347e-05 -2.0180502310e-03 -1.1066471918e-03 
          -8.6171917443e-05 -2.0661490739e-03 -1.2265497988e-03 
          -1.4453817703e-04 -2.5606122346e-03 -1.1845006607e-03 
          -1.5418088174e-04 -2.6705454740e-03 -1.1473760682e-03 
          -1.5458587639e-04 -2.6629191133e-03 -1.1665174920e-03 
          -1.2178062059e-04 -2.0901848129e-03 -2.0400140897e-03 
          -1.3576163582e-04 -2.2453484177e-03 -1.6280721636e-03 
          -1.2458252914e-04 -2.0975745895e-03 -1.6295101108e-03 
          -8.2609419861e-05 -2.1451915135e-03 -4.5107593599e-04 
          -7.1696975541e-05 -2.2338366368e-03 -6.4673550171e-04 
          -6.0316716120e-05 -2.1439800106e-03 -6.4821164579e-04 
          -7.1579655664e-05 -2.2201599709e-03 -6.3066005836e-04 
          -6.0509546272e-05 -2.1304593877e-03 -6.3211120141e-04 
          -1.3608569536e-04 -2.2440728091e-03 -1.6083147971e-03 
          -1.2419286620e-04 -2.0964518907e-03 -1.6097631625e-03 
          -6.5386121289e-05 -1.3182783631e-03 -1.9180905905e-03 
          -8.9991181210e-05 -1.4796665642e-03 -1.4998336889e-03 
          -8.0952287311e-05 -1.3294717795e-03 -1.5012647362e-03 
          -9.3750122895e-06 -1.3694004712e-03 -3.6666802976e-04 
          -6.0792381941e-06 -1.4519910214e-03 -5.5241128445e-04 
          3.1967039043e-06 -1.3653099849e-03 -5.5388375789e-04 
          -5.8052816515e-06 -1.4449247450e-03 -5.4077188278e-04 
          2.9457107518e-06 -1.3577474640e-03 -5.4222518149e-04 
          -9.0509653988e-05 -1.4699190296e-03 -1.4840738423e-03 
          -8.0448365370e-05 -1.3205773234e-03 -1.4855254760e-03 
          -3.7503385866e-05 -7.1599297713e-04 -1.3907962712e-03 
          -6.6881898266e-05 -8.3159288567e-04 -1.0937857673e-03 
          -6.1305390086e-05 -7.2917227514e-04 -1.0952033415e-03 
          4.5396246789e-05 -7.5958466869e-04 -4.6611538787e-04 
          3.0984625337e-05 -7.8906707210e-04 -5.2766084642e-04 
          3.7085708109e-05 -7.4879477695e-04 -5.2919785580e-04 
          3.1186268929e-05 -7.9806070776e-04 -5.3269695349e-04 
          3.7101384157e-05 -7.5593047383e-04 -5.3409340847e-04 
          -6.7369235440e-05 -8.1936152988e-04 -1.0770935241e-03 
          -6.1077444946e-05 -7.1756124601e-04 -1.0785908963e-03 
          -1.2409222728e-04 -2.5552989365e-03 -1.0804353040e-03 
          -1.6019692166e-04 -2.5642227094e-03 -1.0556574853e-03 
          -1.6701990777e-04 -2.9801948137e-03 -1.0470437267e-03 
          -1.6693773158e-04 -2.9796541313e-03 -1.0557265992e-03 
          -1.6699028134e-04 -2.9801273131e-03 -1.0782155279e-03 
          -1.6695975985e-04 -2.9796531260e-03 -1.0695940363e-03 
          -3.9024801337e-03 -1.8941954940e-04 -4.9109030764e-04 
          -6.2692266223e-05 -2.8253676582e-04 -5.2693978747e-04 
          1.6629373012e-05 -3.7031026191e-04 -4.0030753697e-04 
          -2.3662072060e-05 -2.3536881171e-03 -3.9475956393e-04 
          -2.5688584155e-05 -4.0368483812e-04 -4.1252347212e-04 
          -2.7591925110e-05 -2.4660616731e-04 -3.9934469672e-04 
          2.9477668340e-03 -9.6427945853e-05 -4.7194278649e-04 
          5.4225704966e-05 -1.8611760808e-04 -4.5488457780e-04 
          8.8963173405e-05 -2.7909573563e-04 -4.7882880504e-04 
          5.7317637376e-05 -4.4727951459e-03 9.6100647593e-05 
          5.7945792247e-05 -2.8759575228e-04 -7.2455793439e-04 
          5.8522802865e-05 -2.5361847897e-04 -3.2954940488e-04 
          -1.3404328940e-05 -4.6207339755e-04 -6.2023509755e-04 
          1.8545186995e-07 -5.7047469896e-04 -5.8494277845e-04 
          -8.7471253283e-07 -6.9156886308e-04 -7.0993104616e-04 
          -2.6489362373e-05 -3.7527956190e-04 -5.0939538128e-04 
          -2.3222586300e-05 -2.8852318370e-04 -5.1912837768e-04 
          -2.2163047189e-05 -8.6891057488e-04 -6.1815735582e-04 
          2.1187207917e-05 -3.8009547482e-04 -5.7575295280e-04 
          4.9817288782e-06 -5.0232969127e-04 -6.2010566634e-04 
          3.4260923899e-05 -6.4060947930e-04 -7.1362466499e-04 
          5.6120661086e-05 -3.3422331034e-04 -7.8965790011e-04 
          4.7834296693e-05 -3.0470099423e-04 -6.3471578447e-04 
          3.3038829515e-05 -8.5225059903e-04 -8.0086634050e-04 
        </DataArray>
        <DataArray type="Float64" Name="Reaction" NumberOfComponents="3" format="ascii">
          -6.1260027499e+03 6.2275141955e+03 6.0946050808e+04 
          1.5556719280e+02 -2.4578723352e+02 3.5256202877e+00 
          -2.3426738119e+03 -1.8728819203e+03 3.7104277564e+04 
          1.5084121844e+03 -1.0075034172e+03 -1.7503975215e+03 
          -6.0561853881e+00 7.1935080365e+01 -5.5110402685e+02 
          -7.3275944099e+02 -3.6268455900e+01 -1.2245601333e+00 
          8.6646015523e+02 -1.7497337247e+02 -6.0749755361e-01 
          -3.1575186927e+02 -2.2852036627e+01 1.1598860853e+00 
          4.9527911220e+02 -1.2396671443e+02 1.0167528551e+00 
          -6.6168991066e+01 -1.2917333017e+02 9.6386728060e-01 
          3.2960761614e+03 -2.9203051771e+03 4.1763053672e+04 
          -1.7724500843e+02 7.3338286906e-01 -7.9355566123e+01 
          1.7334035201e+02 1.8349307275e+01 -8.2041778980e-01 
          -4.0533803541e+02 2.6477757013e+02 1.3473028587e-01 
          1.3734849539e+02 4.1241549717e+01 -3.6223466665e-01 
          3.1411577132e+01 -1.3967283010e+01 6.1460493174e-01 
          4.1124945547e+03 4.6163968734e+03 5.3849644529e+04 
          -1.6419593765e+03 -5.3276841822e+01 -1.2893925088e+03 
          -3.1032185929e+02 1.1187858996e+02 -5.9529128435e-01 
          2.7890841021e+02 6.0767636008e+01 -8.6326164592e-01 
          -1.0140859292e+02 9.0999354224e+01 -3.1300657124e-01 
          6.9389209700e+01 1.6393555109e+02 2.1453349251e+00 
          6.3814785519e+02 4.7282110803e+01 -9.5980818238e-01 
          -1.3090463961e+02 3.1056062656e+02 -8.3165683948e-01 
          2.6538770137e+02 9.9155116377e+02 6.8003260672e+02 
          3.8577751465e+03 -1.6395725555e+03 2.1555841269e+03 
          -1.7866068765e+03 3.3640850844e+02 3.6435397370e+00 
          -1.6520802616e+02 -7.8752664462e+02 -5.4887486280e+00 
          1.1519603259e+03 -4.3290913557e+02 9.5732376864e+00 
          1.9324125588e+01 2.3425021997e+02 6.5895664807e+00 
          -2.7549960099e+02 2.6782161515e+01 9.2744778017e+01 
          9.5988953316e+01 -1.6395311884e+02 1.0811600252e+00 
          -2.2321828079e+02 -1.1713792027e+02 -1.2635770845e+00 
          -3.9440957244e+03 -8.2682799950e+01 1.5656743310e+03 
          1.8411480807e+03 -1.0504236856e+02 -1.7477130135e+00 
          -1.0695798331e+03 6.8290237994e+01 1.2932198111e+01 
          -1.4264543680e+02 -2.3700157634e+02 -7.1420883137e+00 
          -4.3802621319e+02 1.7430353236e+02 9.1649032147e+00 
          3.4308533705e+01 1.0410812161e+02 1.8334767099e+00 
          2.7251483311e+02 -2.9971607358e+01 1.5635706115e+00 
          4.6523080842e+01 1.9915390311e+02 4.5315630145e+00 
          5.8763362465e+01 2.0397321905e+02 6.4286156538e+00 
          1.4044542373e+02 9.1793197870e+01 6.0485505216e-01 
          -8.3445378856e+01 1.4497509975e+02 -2.1852172568e+00 
          7.9590119408e+00 2.3589204584e+02 6.0587571712e+00 
          7.2151242496e+02 1.3050130224e+01 5.9360137883e+00 
          -1.7055098348e+02 1.1526035498e+02 3.2934750367e+00 
          4.4844372744e+01 2.5548197518e+02 5.7942450317e+00 
          1.7013690413e+01 1.2265379917e+02 4.3986759676e-01 
          1.2176232182e+01 1.2241656023e+02 4.5143062719e-01 
          -2.8894638162e+01 1.5116777835e+02 3.0967045542e-01 
          -3.1683605621e+01 2.4384331569e+01 -4.3409727948e-02 
          -6.8200776470e+00 1.3759749560e+02 1.3416445285e-01 
          -3.6749700866e+01 3.8169657295e+01 5.2429687972e-02 
          1.5374724363e+02 -2.3785264773e+01 -1.2707579644e-01 
          5.9714871571e+01 -3.1964892492e+01 -6.7739574893e-02 
          -4.8401421054e+00 -6.7284745657e+01 1.3153361610e+00 
          -4.3099162595e+01 -1.6191605358e+01 1.1153303735e+00 
          3.7737277472e+01 -2.1205266347e+01 -1.9984056849e-01 
          1.8694020131e+01 8.7582860015e+01 -1.6076456038e+01 
          7.1449758575e+01 3.7410593748e+00 -2.6355637448e+01 
          7.6027774344e+01 1.0448710824e+02 3.1958414457e+01 
          4.4974358206e+01 -1.4660431903e+02 9.4398789008e+00 
          -5.4954419189e+01 -6.3976236409e+00 -5.3895733186e-02 
          -4.9951169571e+01 -2.7377039629e+01 1.0936347357e-01 
          -7.8752638067e+01 -1.7066186419e+00 1.5768200764e-01 
          9.3841631472e+00 9.6297214740e+01 3.3211384470e-01 
          -5.0102165807e+01 4.4810294316e+01 -1.6170862749e+01 
          1.2757242943e+01 2.5255465904e+02 1.6410364246e+00 
          -5.1633539665e+01 -7.6830197850e+00 -4.3958068144e-02 
          4.4360702411e+00 -7.3831408948e+01 5.6793327908e-01 
          -1.8463082719e+01 3.9316711459e+01 -3.1068366467e-02 
          -1.0035002486e+01 1.8985058984e+01 -4.7186332293e-01 
          -1.0747461551e+01 3.1436999133e+02 1.2653728829e+01 
          -6.3919455125e+01 -3.5970994292e+01 9.9505584197e+00 
          -9.9097339394e+00 -1.4099000521e+02 -1.6966663659e+00 
          -4.6108860064e+01 -4.0841248700e+01 -2.2543407867e-01 
          -1.0627246810e+01 -3.9216886637e+00 2.7483280144e-01 
          -4.3115356839e+00 -1.6758036482e+01 5.5151454926e-01 
          -2.7198874952e+01 1.6840968340e+01 4.4844429754e-01 
          1.4007634958e+01 9.6861762575e+01 4.3807243280e-01 
          7.6269578654e-01 4.3914816257e+01 -2.6322868116e+01 
          -2.4244884892e+01 1.1847855273e+02 2.4205407325e-01 
          -4.9600504520e+01 -3.3478385711e+01 1.0943380750e-02 
          1.9450879981e+01 -4.6450154429e+01 9.5242173412e-01 
          -2.4014064116e+01 6.2677303318e+01 1.3927347957e-02 
          -4.6832126549e+01 1.7632914352e+01 -2.4996994726e-02 
          5.8781369347e+01 -2.2877378785e+01 -1.3338438390e-01 
          -4.6842803549e+00 -4.3930931193e+01 3.0499860858e+01 
          -5.6500951600e+01 -2.3778281017e+01 -6.1015107728e-02 
          -5.2103640372e+01 -5.7614707079e+01 -2.1208698211e-01 
          1.6135364438e+01 2.5249729154e+02 1.6200901676e+00 
          -1.4790104476e+01 1.3193309440e+01 -3.9448141759e-01 
          3.6423876326e+01 -1.4951768909e+03 -1.0178439859e+01 
          5.1669242130e+00 -1.5314761598e+02 -1.9607532572e+00 
          -1.8185483818e+01 -6.3149505974e-01 2.5265894294e-01 
          -3.5875649671e+00 -2.0891520617e+01 5.3722014847e-01 
          -2.8480987240e+01 1.3090928539e+01 4.8298121140e-01 
          1.2294318179e+00 -1.2175797637e+01 -2.7998305166e-01 
          -1.1703082153e+01 -2.1039934974e+01 6.5209624489e-01 
          -1.6676942535e+01 -1.5560928765e+01 -4.6927252890e-01 
          2.6678431665e+01 -3.3371818165e+01 -3.0305048368e-01 
          3.1484370863e+01 -2.6877540067e+01 5.9275638530e-01 
          1.4267395449e+01 -2.8254592848e+01 -4.2624007487e-01 
          3.4438923450e+01 1.9488493500e+00 6.4712575922e-01 
          1.2903963295e+01 -1.3315788812e+01 -4.9296312898e-01 
          -1.0680379940e+01 -1.5710794749e+01 5.0195408708e-01 
          -1.6904935321e+01 -5.0089506326e+00 -4.0589869374e-01 
          -1.0569832329e+01 2.5949975310e+01 -1.2876408079e-01 
          -3.6909591195e+01 -7.3587902848e+00 1.9742987943e-01 
          -1.9187592130e+01 8.4566732459e-01 -1.5013334124e-01 
          1.7457641303e+01 2.2598835256e+01 -1.4023125398e-01 
          1.8725721709e+01 -2.1759094660e+01 2.8602567712e-01 
          1.9572625067e+01 2.1113852892e+01 -2.0936962316e-01 
          2.4640828462e+01 2.2187848959e+01 2.9860446858e-01 
          1.8428400657e+01 9.9606041910e+00 -2.2459035734e-01 
          -3.2093497160e+01 3.2829741552e+00 2.4137818485e-01 
          -2.0318822218e+01 3.3620255591e+01 -1.5903222368e-01 
          5.4691766569e+01 9.6538653743e+01 -3.5791929794e-01 
          -4.2030156642e+01 7.4273247234e+01 5.6221280501e-01 
          -3.3277495780e+01 5.3917366518e+01 -4.3612756293e-01 
          -1.7560344523e+01 8.6972979421e+01 -2.5635057253e-01 
          1.8598939815e+01 8.5499789475e+01 5.2727928226e-01 
          9.7503910506e+00 5.9811950150e+01 -4.1038891784e-01 
          1.6275727337e+01 8.9702699371e+01 5.0748731366e-01 
          1.0454018801e+01 6.1084522854e+01 -4.1289088724e-01 
          -4.4726718504e+01 1.1038337623e+02 6.1990681330e-01 
          -3.4595763612e+01 8.2071081227e+01 -4.2161244124e-01 
          4.2929099528e+00 4.1338164756e+00 -5.5871413655e-02 
          1.8262451329e+00 -1.4798594019e+01 -9.8537732786e-03 
          1.9869239389e+01 6.0600512089e-01 2.4425543563e-01 
          2.0762855868e+01 5.2361503459e+00 3.3086589478e-01 
          1.9790785344e+01 -4.4368472650e-03 3.5548781995e-01 
          2.0632131184e+01 5.6574979717e+00 2.9225422990e-01 
          -8.5621183163e+02 3.0359801003e+01 -2.7302984799e+02 
          -3.3292637988e+00 -7.1270107830e+01 -4.2270885354e+00 
          1.5358063694e+01 -3.6377651267e+01 4.0883730704e-02 
          7.4462228379e+00 -4.4372900739e+02 -2.5808165970e+01 
          -2.2274921231e+00 -1.0926359796e+01 -1.3850396828e-01 
          -2.2481138119e+01 6.8239850316e+01 7.5393885787e-01 
          6.2399044351e+02 -1.2255972629e+01 -5.4327436006e-01 
          -1.4222883494e+01 -2.1573126257e+01 2.9396437710e+00 
          1.2759787220e+01 -1.9914762063e+01 6.1637690127e-01 
          8.7035809301e+01 -9.9024967169e+02 -5.7687205456e+02 
          2.1500070962e+01 -1.3098786412e+01 -4.7605569051e-01 
          1.7990520800e+00 2.6111769433e+01 6.4159601852e-02 
          -1.3547072072e+01 -1.3276787142e+01 1.3996317150e+00 
          -2.7772793055e-01 -8.8670874152e-01 2.1230065481e-01 
          -1.6034808641e+01 2.8416109134e+01 4.1963609042e-01 
          -1.4115211787e+01 5.5463959891e+01 -6.3590999506e-01 
          -5.0021896307e+00 2.1267925815e+02 3.0613449965e+00 
          5.7801639780e-01 -1.7870162211e+02 -6.1300771417e+00 
          -4.7746799638e+00 8.0815725904e+00 -3.7308536067e-01 
          -1.6418479019e+01 2.7713647123e+01 5.1892911363e-01 
          3.5965564570e+01 4.4704244646e+01 2.1513416257e-01 
          2.6479518948e+01 6.8624770832e+01 -8.8693034638e-01 
          2.7377668080e+01 1.9091346798e+02 1.6980511168e+00 
          1.2794616439e+01 -1.7091237258e+02 -6.2237593706e+00 
        </DataArray>
        <DataArray type="Float64" Name="UnbalancedLoad" NumberOfComponents="3" format="ascii">
          0.0000000000e+00 0.0000000000e+00 -3.5971249228e+03 
          0.0000000000e+00 0.0000000000e+00 -3.6859761972e+03 
          0.0000000000e+00 0.0000000000e+00 -3.5969848433e+03 
          0.0000000000e+00 0.0000000000e+00 -5.8079421711e+03 
          0.0000000000e+00 0.0000000000e+00 -5.8078536863e+03 
          0.0000000000e+00 0.0000000000e+00 -3.9298690906e+03 
          0.0000000000e+00 0.0000000000e+00 -3.9303987385e+03 
          0.0000000000e+00 0.0000000000e+00 -2.9404556724e+03 
          0.0000000000e+00 0.0000000000e+00 -2.9408968386e+03 
          0.0000000000e+00 0.0000000000e+00 -3.6858361145e+03 
          0.0000000000e+00 0.0000000000e+00 -3.5971249228e+03 
          0.0000000000e+00 0.0000000000e+00 -5.8079421711e+03 
          0.0000000000e+00 0.0000000000e+00 -3.9303987385e+03 
          0.0000000000e+00 0.0000000000e+00 -3.9303987385e+03 
          0.0000000000e+00 0.0000000000e+00 -2.9408968386e+03 
          0.0000000000e+00 0.0000000000e+00 -3.6858361145e+03 
          0.0000000000e+00 0.0000000000e+00 -3.5971249228e+03 
          0.0000000000e+00 0.0000000000e+00 -5.8079421711e+03 
          0.0000000000e+00 0.0000000000e+00 -3.9303987385e+03 
          0.0000000000e+00 0.0000000000e+00 -3.9303987385e+03 
          0.0000000000e+00 0.0000000000e+00 -2.9408968386e+03 
          0.0000000000e+00 0.0000000000e+00 -3.6858361145e+03 
          0.0000000000e+00 0.0000000000e+00 -3.9303987385e+03 
          0.0000000000e+00 0.0000000000e+00 -3.9303987385e+03 
          0.0000000000e+00 0.0000000000e+00 -1.9592896828e+03 
          0.0000000000e+00 0.0000000000e+00 -1.9592896828e+03 
          0.0000000000e+00 0.0000000000e+00 -1.7696581681e+03 
          0.0000000000e+00 0.0000000000e+00 -1.7696581681e+03 
          0.0000000000e+00 0.0000000000e+00 -1.4567716387e+03 
          0.0000000000e+00 0.0000000000e+00 -1.4567716387e+03 
          0.0000000000e+00 0.0000000000e+00 -1.9592896828e+03 
          0.0000000000e+00 0.0000000000e+00 -1.7696581681e+03 
          0.0000000000e+00 0.0000000000e+00 -1.4567716387e+03 
          0.0000000000e+00 0.0000000000e+00 -1.9592896828e+03 
          0.0000000000e+00 0.0000000000e+00 -1.7696581681e+03 
          0.0000000000e+00 0.0000000000e+00 -1.4567716387e+03 
          0.0000000000e+00 0.0000000000e+00 -1.1730568712e+03 
          0.0000000000e+00 0.0000000000e+00 -1.1730568712e+03 
          0.0000000000e+00 0.0000000000e+00 -1.0613400823e+03 
          0.0000000000e+00 0.0000000000e+00 -1.0613400823e+03 
          0.0000000000e+00 0.0000000000e+00 -1.4462690083e+03 
          0.0000000000e+00 0.0000000000e+00 -1.4462690083e+03 
          0.0000000000e+00 0.0000000000e+00 -1.1730568712e+03 
          0.0000000000e+00 0.0000000000e+00 -1.0613400823e+03 
          0.0000000000e+00 0.0000000000e+00 -1.4462690083e+03 
          0.0000000000e+00 0.0000000000e+00 -1.1730568712e+03 
          0.0000000000e+00 0.0000000000e+00 -1.0613400823e+03 
          0.0000000000e+00 0.0000000000e+00 -1.4462690083e+03 
          0.0000000000e+00 0.0000000000e+00 -6.6711626901e+02 
          0.0000000000e+00 0.0000000000e+00 -6.6711626901e+02 
          0.0000000000e+00 0.0000000000e+00 -8.3409999607e+02 
          0.0000000000e+00 0.0000000000e+00 -6.8446039306e+02 
          0.0000000000e+00 0.0000000000e+00 -6.8446039306e+02 
          0.0000000000e+00 0.0000000000e+00 -3.8049723178e+02 
          0.0000000000e+00 0.0000000000e+00 -5.1299268925e+02 
          0.0000000000e+00 0.0000000000e+00 -5.1299268925e+02 
          0.0000000000e+00 0.0000000000e+00 -1.3631845545e+03 
          0.0000000000e+00 0.0000000000e+00 -1.3631845545e+03 
          0.0000000000e+00 0.0000000000e+00 -6.7997641630e+02 
          0.0000000000e+00 0.0000000000e+00 -1.2489252437e+03 
          0.0000000000e+00 0.0000000000e+00 -1.2489252437e+03 
          0.0000000000e+00 0.0000000000e+00 -6.8446039306e+02 
          0.0000000000e+00 0.0000000000e+00 -6.8446039306e+02 
          0.0000000000e+00 0.0000000000e+00 -3.8049723178e+02 
          0.0000000000e+00 0.0000000000e+00 -1.3041878043e+03 
          0.0000000000e+00 0.0000000000e+00 -1.3041878043e+03 
          0.0000000000e+00 0.0000000000e+00 -6.6711626901e+02 
          0.0000000000e+00 0.0000000000e+00 -1.2489252437e+03 
          0.0000000000e+00 0.0000000000e+00 -8.3409999607e+02 
          0.0000000000e+00 0.0000000000e+00 -5.1299268925e+02 
          0.0000000000e+00 0.0000000000e+00 -1.3631845545e+03 
          0.0000000000e+00 0.0000000000e+00 -6.8446039306e+02 
          0.0000000000e+00 0.0000000000e+00 -3.8049723178e+02 
          0.0000000000e+00 0.0000000000e+00 -6.7997641630e+02 
          0.0000000000e+00 0.0000000000e+00 -6.8446039306e+02 
          0.0000000000e+00 0.0000000000e+00 -3.8049723178e+02 
          0.0000000000e+00 0.0000000000e+00 -1.3041878043e+03 
          0.0000000000e+00 0.0000000000e+00 -3.6198155904e+02 
          0.0000000000e+00 0.0000000000e+00 -4.3741773730e+02 
          0.0000000000e+00 0.0000000000e+00 -4.3741773730e+02 
          0.0000000000e+00 0.0000000000e+00 -6.6711626901e+02 
          0.0000000000e+00 0.0000000000e+00 -1.2489252437e+03 
          0.0000000000e+00 0.0000000000e+00 -8.3409999607e+02 
          0.0000000000e+00 0.0000000000e+00 -5.1299268925e+02 
          0.0000000000e+00 0.0000000000e+00 -1.3631845545e+03 
          0.0000000000e+00 0.0000000000e+00 -6.8446039306e+02 
          0.0000000000e+00 0.0000000000e+00 -3.8049723178e+02 
          0.0000000000e+00 0.0000000000e+00 -6.7997641630e+02 
          0.0000000000e+00 0.0000000000e+00 -6.8446039306e+02 
          0.0000000000e+00 0.0000000000e+00 -3.8049723178e+02 
          0.0000000000e+00 0.0000000000e+00 -1.3041878043e+03 
          0.0000000000e+00 0.0000000000e+00 -8.3409999607e+02 
          0.0000000000e+00 0.0000000000e+00 -3.8049723178e+02 
          0.0000000000e+00 0.0000000000e+00 -6.7997641630e+02 
          0.0000000000e+00 0.0000000000e+00 -3.8049723178e+02 
          0.0000000000e+00 0.0000000000e+00 -3.6198155904e+02 
          0.0000000000e+00 0.0000000000e+00 -4.3741773730e+02 
          0.0000000000e+00 0.0000000000e+00 -4.3741773730e+02 
          0.0000000000e+00 0.0000000000e+00 -5.6556182700e+02 
          0.0000000000e+00 0.0000000000e+00 -5.6556598502e+02 
          0.0000000000e+00 0.0000000000e+00 -4.0145173008e+02 
          0.0000000000e+00 0.0000000000e+00 -5.6556182700e+02 
          0.0000000000e+00 0.0000000000e+00 -5.6556598502e+02 
          0.0000000000e+00 0.0000000000e+00 -4.0145173008e+02 
          0.0000000000e+00 0.0000000000e+00 -5.6556598502e+02 
          0.0000000000e+00 0.0000000000e+00 -4.0145173008e+02 
          0.0000000000e+00 0.0000000000e+00 -5.6556598502e+02 
          0.0000000000e+00 0.0000000000e+00 -4.0145173008e+02 
          0.0000000000e+00 0.0000000000e+00 -5.6556182700e+02 
          0.0000000000e+00 0.0000000000e+00 -5.6556598502e+02 
          0.0000000000e+00 0.0000000000e+00 -4.0145173008e+02 
          0.0000000000e+00 0.0000000000e+00 -5.6556182700e+02 
          0.0000000000e+00 0.0000000000e+00 -5.6556598502e+02 
          0.0000000000e+00 0.0000000000e+00 -4.0145173008e+02 
          0.0000000000e+00 0.0000000000e+00 -5.6556598502e+02 
          0.0000000000e+00 0.0000000000e+00 -4.0145173008e+02 
          0.0000000000e+00 0.0000000000e+00 -5.6556598502e+02 
          0.0000000000e+00 0.0000000000e+00 -4.0145173008e+02 
          0.0000000000e+00 0.0000000000e+00 -5.6556182700e+02 
          0.0000000000e+00 0.0000000000e+00 -5.6556598502e+02 
          0.0000000000e+00 0.0000000000e+00 -4.0145173008e+02 
          0.0000000000e+00 0.0000000000e+00 -5.6556182700e+02 
          0.0000000000e+00 0.0000000000e+00 -5.6556598502e+02 
          0.0000000000e+00 0.0000000000e+00 -4.0145173008e+02 
          0.0000000000e+00 0.0000000000e+00 -5.6556598502e+02 
          0.0000000000e+00 0.0000000000e+00 -4.0145173008e+02 
          0.0000000000e+00 0.0000000000e+00 -5.6556598502e+02 
          0.0000000000e+00 0.0000000000e+00 -4.0145173008e+02 
          0.0000000000e+00 0.0000000000e+00 -3.6284396685e+02 
          0.0000000000e+00 0.0000000000e+00 -3.6284396685e+02 
          0.0000000000e+00 0.0000000000e+00 -9.9187773216e+01 
          0.0000000000e+00 0.0000000000e+00 -9.9187773216e+01 
          0.0000000000e+00 0.0000000000e+00 -9.9187773216e+01 
          0.0000000000e+00 0.0000000000e+00 -9.9187773216e+01 
          0.0000000000e+00 0.0000000000e+00 -4.8262431658e+02 
          0.0000000000e+00 0.0000000000e+00 -4.3594915234e+02 
          0.0000000000e+00 0.0000000000e+00 -3.9302828470e+02 
          0.0000000000e+00 0.0000000000e+00 -4.8262431658e+02 
          0.0000000000e+00 0.0000000000e+00 -4.3594915234e+02 
          0.0000000000e+00 0.0000000000e+00 -3.9302828470e+02 
          0.0000000000e+00 0.0000000000e+00 -4.8262431658e+02 
          0.0000000000e+00 0.0000000000e+00 -4.3594915234e+02 
          0.0000000000e+00 0.0000000000e+00 -3.9302828470e+02 
          0.0000000000e+00 0.0000000000e+00 -4.8262431658e+02 
          0.0000000000e+00 0.0000000000e+00 -4.3594915234e+02 
          0.0000000000e+00 0.0000000000e+00 -3.9302828470e+02 
          0.0000000000e+00 0.0000000000e+00 -3.5439738361e+02 
          0.0000000000e+00 0.0000000000e+00 -3.1896354358e+02 
          0.0000000000e+00 0.0000000000e+00 -2.8912565268e+02 
          0.0000000000e+00 0.0000000000e+00 -3.5439738361e+02 
          0.0000000000e+00 0.0000000000e+00 -3.1896354358e+02 
          0.0000000000e+00 0.0000000000e+00 -2.8912565268e+02 
          0.0000000000e+00 0.0000000000e+00 -3.5439738361e+02 
          0.0000000000e+00 0.0000000000e+00 -3.1896354358e+02 
          0.0000000000e+00 0.0000000000e+00 -2.8912565268e+02 
          0.0000000000e+00 0.0000000000e+00 -3.5439738361e+02 
          0.0000000000e+00 0.0000000000e+00 -3.1896354358e+02 
          0.0000000000e+00 0.0000000000e+00 -2.8912565268e+02 
        </DataArray>
      </PointData>
      <CellData>
        <DataArray type="Int64" Name="ElementTag" format="ascii">
          0
        </DataArray>
      </CellData>
    </Piece>
  </UnstructuredGrid>
</VTKFile>
