<?xml version="1.0"?>
<VTKFile type="UnstructuredGrid" version="1.0" byte_order="LittleEndian" compressor="vtkZLibDataCompressor">
  <UnstructuredGrid>
    <Piece NumberOfPoints="158" NumberOfCells="1">
      <Points>
        <DataArray type="Float64" Name="Points" NumberOfComponents="3" format="ascii">
          1.7550000000e+00 -1.7550000000e+00 0.0000000000e+00 
          1.4140000000e+00 0.0000000000e+00 5.2300000000e+00 
          1.7550000000e+00 1.7550000000e+00 -0.0000000000e+00 
          1.4140000000e+00 -1.4140000000e+00 5.2300000000e+00 
          1.4140000000e+00 1.4140000000e+00 5.2300000000e+00 
          1.5840000000e+00 8.7800000000e-01 2.6150000000e+00 
          1.5840000000e+00 -8.7700000000e-01 2.6150000000e+00 
          1.5840000000e+00 1.5840000000e+00 2.6150000000e+00 
          1.5840000000e+00 -1.5840000000e+00 2.6150000000e+00 
          -0.0000000000e+00 1.4140000000e+00 5.2300000000e+00 
          -1.7550000000e+00 1.7550000000e+00 -0.0000000000e+00 
          -1.4140000000e+00 1.4140000000e+00 5.2300000000e+00 
          -8.7700000000e-01 1.5840000000e+00 2.6150000000e+00 
          8.7700000000e-01 1.5840000000e+00 2.6150000000e+00 
          -1.5840000000e+00 1.5840000000e+00 2.6150000000e+00 
          -1.4140000000e+00 -0.0000000000e+00 5.2300000000e+00 
          -1.7550000000e+00 -1.7550000000e+00 -0.0000000000e+00 
          -1.4140000000e+00 -1.4140000000e+00 5.2300000000e+00 
          -1.5840000000e+00 -8.7700000000e-01 2.6150000000e+00 
          -1.5840000000e+00 8.7700000000e-01 2.6150000000e+00 
          -1.5840000000e+00 -1.5840000000e+00 2.6150000000e+00 
          0.0000000000e+00 -1.4140000000e+00 5.2300000000e+00 
          8.7700000000e-01 -1.5840000000e+00 2.6150000000e+00 
          -8.7700000000e-01 -1.5840000000e+00 2.6150000000e+00 
          1.2750000000e+00 1.2750000000e+00 7.3500000000e+00 
          1.2750000000e+00 -1.2750000000e+00 7.3500000000e+00 
          1.1500000000e+00 -1.1500000000e+00 9.2700000000e+00 
          1.1500000000e+00 1.1500000000e+00 9.2700000000e+00 
          1.0370000000e+00 -1.0370000000e+00 1.1000000000e+01 
          1.0370000000e+00 1.0370000000e+00 1.1000000000e+01 
          -1.2750000000e+00 1.2750000000e+00 7.3500000000e+00 
          -1.1500000000e+00 1.1500000000e+00 9.2700000000e+00 
          -1.0370000000e+00 1.0370000000e+00 1.1000000000e+01 
          -1.2750000000e+00 -1.2750000000e+00 7.3500000000e+00 
          -1.1500000000e+00 -1.1500000000e+00 9.2700000000e+00 
          -1.0370000000e+00 -1.0370000000e+00 1.1000000000e+01 
          9.3500000000e-01 9.3500000000e-01 1.2560000000e+01 
          9.3500000000e-01 -9.3500000000e-01 1.2560000000e+01 
          8.4300000000e-01 8.4300000000e-01 1.3960000000e+01 
          8.4300000000e-01 -8.4300000000e-01 1.3960000000e+01 
          7.6000000000e-01 7.6000000000e-01 1.5240000000e+01 
          7.6000000000e-01 -7.6000000000e-01 1.5240000000e+01 
          -9.3500000000e-01 9.3500000000e-01 1.2560000000e+01 
          -8.4300000000e-01 8.4300000000e-01 1.3960000000e+01 
          -7.6000000000e-01 7.6000000000e-01 1.5240000000e+01 
          -9.3500000000e-01 -9.3500000000e-01 1.2560000000e+01 
          -8.4300000000e-01 -8.4300000000e-01 1.3960000000e+01 
          -7.6000000000e-01 -7.6000000000e-01 1.5240000000e+01 
          7.6000000000e-01 -7.6000000000e-01 1.6240000000e+01 
          7.6000000000e-01 7.6000000000e-01 1.6240000000e+01 
          7.6000000000e-01 0.0000000000e+00 1.6240000000e+01 
          7.6000000000e-01 7.6000000000e-01 1.7340000000e+01 
          7.6000000000e-01 -7.6000000000e-01 1.7340000000e+01 
          7.6000000000e-01 0.0000000000e+00 1.7890000000e+01 
          7.6000000000e-01 -7.6000000000e-01 1.9440000000e+01 
          7.6000000000e-01 7.6000000000e-01 1.9440000000e+01 
          7.6000000000e-01 -7.6000000000e-01 2.1640000000e+01 
          7.6000000000e-01 7.6000000000e-01 2.1640000000e+01 
          7.6000000000e-01 0.0000000000e+00 1.9440000000e+01 
          7.6000000000e-01 7.6000000000e-01 1.8440000000e+01 
          7.6000000000e-01 -7.6000000000e-01 1.8440000000e+01 
          7.6000000000e-01 -7.6000000000e-01 2.0540000000e+01 
          7.6000000000e-01 7.6000000000e-01 2.0540000000e+01 
          7.6000000000e-01 0.0000000000e+00 2.1090000000e+01 
          7.6000000000e-01 7.6000000000e-01 2.2640000000e+01 
          7.6000000000e-01 -7.6000000000e-01 2.2640000000e+01 
          -7.6000000000e-01 7.6000000000e-01 1.6240000000e+01 
          -7.6000000000e-01 7.6000000000e-01 1.8440000000e+01 
          -0.0000000000e+00 7.6000000000e-01 1.6240000000e+01 
          -7.6000000000e-01 7.6000000000e-01 1.9440000000e+01 
          -7.6000000000e-01 7.6000000000e-01 2.1640000000e+01 
          -7.6000000000e-01 7.6000000000e-01 1.7340000000e+01 
          -0.0000000000e+00 7.6000000000e-01 1.7890000000e+01 
          -0.0000000000e+00 7.6000000000e-01 1.9440000000e+01 
          -7.6000000000e-01 7.6000000000e-01 2.0540000000e+01 
          0.0000000000e+00 7.6000000000e-01 2.1090000000e+01 
          -7.6000000000e-01 7.6000000000e-01 2.2640000000e+01 
          -0.0000000000e+00 5.2600000000e-01 2.3499000000e+01 
          3.9900000000e-01 4.0400000000e-01 2.3950000000e+01 
          -3.9900000000e-01 4.0400000000e-01 2.3950000000e+01 
          -7.6000000000e-01 -7.6000000000e-01 1.6240000000e+01 
          -7.6000000000e-01 -7.6000000000e-01 1.8440000000e+01 
          -7.6000000000e-01 -0.0000000000e+00 1.6240000000e+01 
          -7.6000000000e-01 -7.6000000000e-01 1.9440000000e+01 
          -7.6000000000e-01 -7.6000000000e-01 2.1640000000e+01 
          -7.6000000000e-01 -7.6000000000e-01 1.7340000000e+01 
          -7.6000000000e-01 0.0000000000e+00 1.7890000000e+01 
          -7.6000000000e-01 -0.0000000000e+00 1.9440000000e+01 
          -7.6000000000e-01 -7.6000000000e-01 2.0540000000e+01 
          -7.6000000000e-01 -0.0000000000e+00 2.1090000000e+01 
          -7.6000000000e-01 -7.6000000000e-01 2.2640000000e+01 
          0.0000000000e+00 -7.6000000000e-01 1.6240000000e+01 
          0.0000000000e+00 -7.6000000000e-01 1.7890000000e+01 
          0.0000000000e+00 -7.6000000000e-01 1.9440000000e+01 
          0.0000000000e+00 -7.6000000000e-01 2.1090000000e+01 
          0.0000000000e+00 -5.2600000000e-01 2.3499000000e+01 
          3.9900000000e-01 -4.0400000000e-01 2.3950000000e+01 
          -3.9900000000e-01 -4.0400000000e-01 2.3950000000e+01 
          -0.0000000000e+00 -3.3500000000e+00 2.1640000000e+01 
          -3.8000000000e-01 -2.0550000000e+00 2.2140000000e+01 
          -3.8000000000e-01 -2.0550000000e+00 2.1640000000e+01 
          0.0000000000e+00 3.3500000000e+00 2.1640000000e+01 
          -3.8000000000e-01 2.0550000000e+00 2.2140000000e+01 
          -3.8000000000e-01 2.0550000000e+00 2.1640000000e+01 
          3.8000000000e-01 2.0550000000e+00 2.2140000000e+01 
          3.8000000000e-01 2.0550000000e+00 2.1640000000e+01 
          3.8000000000e-01 -2.0550000000e+00 2.2140000000e+01 
          3.8000000000e-01 -2.0550000000e+00 2.1640000000e+01 
          -0.0000000000e+00 -3.3500000000e+00 1.8440000000e+01 
          -3.8000000000e-01 -2.0550000000e+00 1.8940000000e+01 
          -3.8000000000e-01 -2.0550000000e+00 1.8440000000e+01 
          -0.0000000000e+00 3.3500000000e+00 1.8440000000e+01 
          -3.8000000000e-01 2.0550000000e+00 1.8940000000e+01 
          -3.8000000000e-01 2.0550000000e+00 1.8440000000e+01 
          3.8000000000e-01 2.0550000000e+00 1.8940000000e+01 
          3.8000000000e-01 2.0550000000e+00 1.8440000000e+01 
          3.8000000000e-01 -2.0550000000e+00 1.8940000000e+01 
          3.8000000000e-01 -2.0550000000e+00 1.8440000000e+01 
          -0.0000000000e+00 -3.3500000000e+00 1.5240000000e+01 
          -3.8000000000e-01 -2.0550000000e+00 1.5740000000e+01 
          -3.8000000000e-01 -2.0550000000e+00 1.5240000000e+01 
          -0.0000000000e+00 3.3500000000e+00 1.5240000000e+01 
          -3.8000000000e-01 2.0550000000e+00 1.5740000000e+01 
          -3.8000000000e-01 2.0550000000e+00 1.5240000000e+01 
          3.8000000000e-01 2.0550000000e+00 1.5740000000e+01 
          3.8000000000e-01 2.0550000000e+00 1.5240000000e+01 
          3.8000000000e-01 -2.0550000000e+00 1.5740000000e+01 
          3.8000000000e-01 -2.0550000000e+00 1.5240000000e+01 
          -5.2400000000e-01 0.0000000000e+00 2.3496000000e+01 
          5.2400000000e-01 0.0000000000e+00 2.3496000000e+01 
          4.0000000000e-02 5.0000000000e-02 2.5250000000e+01 
          -4.0000000000e-02 5.0000000000e-02 2.5250000000e+01 
          -4.0000000000e-02 -5.0000000000e-02 2.5250000000e+01 
          4.0000000000e-02 -5.0000000000e-02 2.5250000000e+01 
          1.3410000000e+00 0.0000000000e+00 6.3450000000e+00 
          1.2090000000e+00 0.0000000000e+00 8.3600000000e+00 
          1.0900000000e+00 -0.0000000000e+00 1.0180000000e+01 
          -0.0000000000e+00 1.3410000000e+00 6.3450000000e+00 
          0.0000000000e+00 1.2090000000e+00 8.3600000000e+00 
          -0.0000000000e+00 1.0900000000e+00 1.0180000000e+01 
          -1.3410000000e+00 0.0000000000e+00 6.3450000000e+00 
          -1.2090000000e+00 0.0000000000e+00 8.3600000000e+00 
          -1.0900000000e+00 -0.0000000000e+00 1.0180000000e+01 
          -0.0000000000e+00 -1.3410000000e+00 6.3450000000e+00 
          0.0000000000e+00 -1.2090000000e+00 8.3600000000e+00 
          0.0000000000e+00 -1.0900000000e+00 1.0180000000e+01 
          9.8300000000e-01 0.0000000000e+00 1.1820000000e+01 
          8.8700000000e-01 0.0000000000e+00 1.3296000000e+01 
          8.0000000000e-01 -0.0000000000e+00 1.4633000000e+01 
          0.0000000000e+00 9.8300000000e-01 1.1820000000e+01 
          -0.0000000000e+00 8.8700000000e-01 1.3296000000e+01 
          0.0000000000e+00 8.0000000000e-01 1.4633000000e+01 
          -9.8300000000e-01 0.0000000000e+00 1.1820000000e+01 
          -8.8700000000e-01 0.0000000000e+00 1.3296000000e+01 
          -8.0000000000e-01 0.0000000000e+00 1.4633000000e+01 
          0.0000000000e+00 -9.8300000000e-01 1.1820000000e+01 
          0.0000000000e+00 -8.8700000000e-01 1.3296000000e+01 
          0.0000000000e+00 -8.0000000000e-01 1.4633000000e+01 
        </DataArray>
      </Points>
      <Cells>
        <DataArray type="Int64" Name="connectivity" format="ascii">
          0
          1
          2
          3
          4
          5
          6
          7
          8
          9
          10
          11
          12
          13
          14
          15
          16
          17
          18
          19
          20
          21
          22
          23
          24
          25
          26
          27
          28
          29
          30
          31
          32
          33
          34
          35
          36
          37
          38
          39
          40
          41
          42
          43
          44
          45
          46
          47
          48
          49
          50
          51
          52
          53
          54
          55
          56
          57
          58
          59
          60
          61
          62
          63
          64
          65
          66
          67
          68
          69
          70
          71
          72
          73
          74
          75
          76
          77
          78
          79
          80
          81
          82
          83
          84
          85
          86
          87
          88
          89
          90
          91
          92
          93
          94
          95
          96
          97
          98
          99
          100
          101
          102
          103
          104
          105
          106
          107
          108
          109
          110
          111
          112
          113
          114
          115
          116
          117
          118
          119
          120
          121
          122
          123
          124
          125
          126
          127
          128
          129
          130
          131
          132
          133
          134
          135
          136
          137
          138
          139
          140
          141
          142
          143
          144
          145
          146
          147
          148
          149
          150
          151
          152
          153
          154
          155
          156
          157
        </DataArray>
        <DataArray type="Int64" Name="offsets" format="ascii">
          158
        </DataArray>
        <DataArray type="Int64" Name="types" format="ascii">
          2
        </DataArray>
      </Cells>
      <PointData>
        <DataArray type="Int64" Name="NodeTag" format="ascii">
          1
          2
          3
          4
          5
          6
          7
          8
          9
          10
          11
          12
          13
          14
          15
          16
          17
          18
          19
          20
          21
          22
          23
          24
          25
          26
          27
          28
          29
          30
          31
          32
          33
          34
          35
          36
          37
          38
          39
          40
          41
          42
          43
          44
          45
          46
          47
          48
          49
          50
          51
          52
          53
          54
          55
          56
          57
          58
          59
          60
          61
          62
          63
          64
          65
          66
          67
          68
          69
          70
          71
          72
          73
          74
          75
          76
          77
          78
          79
          80
          81
          82
          83
          84
          85
          86
          87
          88
          89
          90
          91
          92
          93
          94
          95
          96
          97
          98
          99
          100
          101
          102
          103
          104
          105
          106
          107
          108
          109
          110
          111
          112
          113
          114
          115
          116
          117
          118
          119
          120
          121
          122
          123
          124
          125
          126
          127
          128
          129
          130
          131
          132
          133
          134
          135
          136
          137
          138
          139
          140
          141
          142
          143
          144
          145
          146
          147
          148
          149
          150
          151
          152
          153
          154
          155
          156
          157
          158
        </DataArray>
        <DataArray type="Float64" Name="Displacement" NumberOfComponents="3" format="ascii">
          0.0000000000e+00 0.0000000000e+00 0.0000000000e+00 
          -3.9648823872e-04 -3.8158568669e-05 -2.5063153110e-04 
          0.0000000000e+00 0.0000000000e+00 0.0000000000e+00 
          1.3682722423e-06 -3.0547371484e-05 -1.2634860816e-03 
          -8.0781943609e-06 -4.7297586248e-05 -1.2138556899e-03 
          -1.8811047499e-03 -1.9677410654e-03 -9.3239138459e-04 
          -1.9519393859e-03 1.9976882501e-03 -9.6143385533e-04 
          -1.9353542559e-03 -1.9644221940e-03 -9.0083608966e-04 
          -2.0133171212e-03 1.9940930283e-03 -9.3582235292e-04 
          3.6017558671e-07 -4.2954917408e-04 -2.5051141018e-04 
          0.0000000000e+00 0.0000000000e+00 0.0000000000e+00 
          8.8676774764e-06 -4.2166176413e-05 -1.2106166072e-03 
          1.9329782582e-03 -1.8958602187e-03 -9.2696409839e-04 
          -1.9386676884e-03 -1.9075631284e-03 -9.2958421579e-04 
          1.9296389388e-03 -1.9532187597e-03 -8.9824434176e-04 
          4.0651616444e-04 -3.3040391847e-05 -2.5157298748e-04 
          0.0000000000e+00 0.0000000000e+00 0.0000000000e+00 
          1.7524927524e-05 -2.5372762849e-05 -1.2623236635e-03 
          1.9651684376e-03 1.9980838546e-03 -9.6141368086e-04 
          1.8752297341e-03 -1.9565517838e-03 -9.2929431012e-04 
          2.0253439433e-03 1.9945353004e-03 -9.3530290310e-04 
          9.2460126827e-06 3.7206197383e-04 -2.5235263220e-04 
          -2.0169264434e-03 1.9349298700e-03 -9.6368994780e-04 
          2.0288966289e-03 1.9356910348e-03 -9.6430405970e-04 
          2.7623984474e-04 1.8086747426e-04 -1.6415677443e-03 
          3.0641957514e-04 -3.9021619245e-04 -1.7124936507e-03 
          7.4453063908e-05 -2.2708262769e-04 -2.1478562313e-03 
          5.7847615405e-05 -1.3750462152e-04 -2.0612421622e-03 
          1.9559754974e-04 -4.4452735123e-04 -2.4541061315e-03 
          1.7213917290e-04 -8.7878988900e-05 -2.3595504938e-03 
          -2.6825962924e-04 1.8526914356e-04 -1.6376692310e-03 
          -4.2039194707e-05 -1.3333418155e-04 -2.0569571237e-03 
          -1.4829075995e-04 -8.4142658676e-05 -2.3552428073e-03 
          -2.7589861001e-04 -3.8453311077e-04 -1.7102018992e-03 
          -3.3371699991e-05 -2.2218506556e-04 -2.1451701758e-03 
          -1.4539438667e-04 -4.4079707024e-04 -2.4514982541e-03 
          1.0786414374e-04 -2.8160127282e-04 -2.7088482755e-03 
          1.2654735124e-04 -4.2882296515e-04 -2.8118035932e-03 
          1.3950158701e-04 -2.8811781303e-04 -2.9837326179e-03 
          1.5894591574e-04 -6.0404738352e-04 -3.0898741571e-03 
          5.7375905875e-05 -5.5955126188e-04 -3.2313762244e-03 
          7.0841472310e-05 -5.1569569219e-04 -3.3377165335e-03 
          -7.6072722235e-05 -2.7912531043e-04 -2.7048063774e-03 
          -1.0074335689e-04 -2.8660665925e-04 -2.9802349703e-03 
          -1.2993506986e-05 -5.5933447726e-04 -3.2286224424e-03 
          -6.8476878516e-05 -4.2614674447e-04 -2.8095250182e-03 
          -9.4845601730e-05 -6.0279708498e-04 -3.0880222426e-03 
          -2.3231227281e-06 -5.1549664324e-04 -3.3362796288e-03 
          2.9090716343e-05 -6.4035902346e-04 -3.6327022945e-03 
          1.7974833086e-05 -5.8895187979e-04 -3.5125199882e-03 
          5.7231206746e-05 -6.1460574083e-04 -3.4171698011e-03 
          4.0929395857e-04 -2.7101748146e-04 -3.7741870020e-03 
          4.3779198201e-04 -1.1694805094e-03 -3.9100083461e-03 
          2.3473530107e-04 -7.7155162057e-04 -4.3989558128e-03 
          2.3555614422e-05 -9.7978898263e-04 -4.5091884170e-03 
          1.2039329411e-05 -8.7884079685e-04 -4.3560667662e-03 
          4.0454542062e-05 -1.1095768374e-03 -4.8780809772e-03 
          3.0290057400e-05 -1.2196563807e-03 -4.7176527511e-03 
          5.3313034501e-05 -9.2932418711e-04 -4.3174088835e-03 
          3.9686185444e-05 -8.7564662780e-04 -4.1857238691e-03 
          5.0290840770e-05 -7.7971569582e-04 -4.3348015106e-03 
          2.5676835573e-04 -1.3248939275e-03 -4.6558117808e-03 
          2.4038997613e-04 -7.7007745481e-04 -4.4979980704e-03 
          1.4271970800e-04 -1.1055603689e-03 -4.9227481940e-03 
          2.8445443378e-05 -1.2038565353e-03 -4.7976730356e-03 
          3.8223906738e-05 -1.3385534151e-03 -4.9584711828e-03 
          3.1219848124e-05 -5.8956714425e-04 -3.5107792853e-03 
          1.2277001792e-05 -8.7735694148e-04 -4.1860790517e-03 
          2.4565540339e-05 -5.6625044144e-04 -3.3989704781e-03 
          3.9720540727e-05 -8.8062850375e-04 -4.3572579277e-03 
          1.5658848617e-05 -1.2227700840e-03 -4.7202580601e-03 
          -3.5802466464e-04 -2.7111241394e-04 -3.7732007705e-03 
          2.6047841257e-05 -5.7730558572e-04 -4.2406977005e-03 
          2.5857602641e-05 -8.7192913236e-04 -4.2852912257e-03 
          -1.9117471996e-04 -7.7113587544e-04 -4.4998078919e-03 
          2.3931304917e-05 -9.9971961350e-04 -4.7596529594e-03 
          1.4157084491e-05 -1.2073276835e-03 -4.8005764318e-03 
          2.0355439333e-05 -1.4414091098e-03 -4.8919094563e-03 
          1.8896052302e-05 -1.4169969235e-03 -4.8892808369e-03 
          2.0405394595e-05 -1.4179655916e-03 -4.8908126859e-03 
          4.2333856834e-05 -6.4097055945e-04 -3.6318520951e-03 
          2.4676744906e-05 -7.8142828154e-04 -4.3354640949e-03 
          3.4866397697e-06 -6.1524147210e-04 -3.4153734993e-03 
          5.1185048805e-05 -9.8166104072e-04 -4.5108973076e-03 
          2.6890329309e-05 -1.1124834771e-03 -4.8819026386e-03 
          -3.6381504626e-04 -1.1717781569e-03 -3.9094641301e-03 
          -1.7025469808e-04 -7.7302601932e-04 -4.3995792330e-03 
          1.2399914836e-05 -9.3114661167e-04 -4.3183442894e-03 
          -1.8509810658e-04 -1.3283052135e-03 -4.6583254055e-03 
          -8.2279654316e-05 -1.1080839375e-03 -4.9263092510e-03 
          2.3298504596e-05 -1.3425757299e-03 -4.9631324268e-03 
          3.5740617831e-05 -6.7273511601e-04 -3.5151724768e-03 
          3.7462164334e-05 -9.7891926072e-04 -4.3956405502e-03 
          3.7367272523e-05 -1.0017325232e-03 -4.4368863409e-03 
          3.5001099964e-05 -1.2224599759e-03 -4.9231281244e-03 
          2.7382493989e-05 -1.2993740685e-03 -5.0008340047e-03 
          2.4750255049e-05 -1.4080245372e-03 -4.9745233448e-03 
          2.5649786126e-05 -1.4090557468e-03 -4.9778329994e-03 
          4.0464092048e-05 -1.0398922779e-03 -6.1433091353e-03 
          4.2244123302e-05 -1.2594336392e-03 -5.4679036482e-03 
          4.7216509349e-05 -1.0714349978e-03 -5.4747151521e-03 
          1.7672885390e-05 -1.2929839398e-03 -5.4316661362e-03 
          1.4145298300e-05 -1.1779433250e-03 -5.0295516116e-03 
          1.9247370404e-05 -1.2594179179e-03 -5.0364034418e-03 
          1.3682680412e-05 -1.1793691070e-03 -5.0272134155e-03 
          1.9669893048e-05 -1.2584425744e-03 -5.0340028931e-03 
          4.1621206277e-05 -1.2617032912e-03 -5.4636958806e-03 
          4.7830256572e-05 -1.0760475614e-03 -5.4704648312e-03 
          4.1947911149e-05 -7.0831100785e-04 -5.6342746951e-03 
          4.5397555796e-05 -9.3426753158e-04 -4.9415883094e-03 
          4.8623049256e-05 -7.3964979749e-04 -4.9483939172e-03 
          2.3131159248e-05 -9.4985794674e-04 -4.9601527715e-03 
          1.8109205125e-05 -8.2251206370e-04 -4.5278208360e-03 
          2.1646152945e-05 -9.1549384661e-04 -4.5346629709e-03 
          1.7592194247e-05 -8.2539304931e-04 -4.5264758971e-03 
          2.2100022926e-05 -9.1625306533e-04 -4.5332703021e-03 
          4.4620198642e-05 -9.3682339506e-04 -4.9394380809e-03 
          4.9368429263e-05 -7.4417468053e-04 -4.9462049050e-03 
          3.5827143020e-05 -4.3670155159e-04 -4.5741499138e-03 
          3.9898229965e-05 -6.5030675205e-04 -3.9132003459e-03 
          4.1657395185e-05 -4.6817496644e-04 -3.9200016145e-03 
          2.2152994079e-05 -6.3877713210e-04 -4.0561652934e-03 
          1.8039645559e-05 -5.0167771462e-04 -3.5980500286e-03 
          2.0082251695e-05 -6.0424563829e-04 -3.6048872983e-03 
          1.7527055879e-05 -5.0473389626e-04 -3.5987427465e-03 
          2.0577850499e-05 -6.0545778353e-04 -3.6055345336e-03 
          3.9156813250e-05 -6.5279910507e-04 -3.9118599648e-03 
          4.2421453457e-05 -4.7232160033e-04 -3.9186369741e-03 
          1.1033095153e-04 -1.3653327390e-03 -4.9681485395e-03 
          -5.5602674692e-05 -1.3635964998e-03 -4.9631608919e-03 
          2.7241746436e-05 -1.5547786372e-03 -4.9326461489e-03 
          2.7349563235e-05 -1.5544201103e-03 -4.9382680363e-03 
          2.7387533309e-05 -1.5546328845e-03 -4.9482502751e-03 
          2.7258008711e-05 -1.5542704625e-03 -4.9426604928e-03 
          -5.1320412620e-04 -6.7897650853e-05 -1.3437934092e-03 
          -2.7394295764e-04 -1.4102986634e-04 -2.0930424466e-03 
          -1.6827312386e-04 -2.2299051566e-04 -2.2086536390e-03 
          2.0825970593e-06 -6.5349280874e-04 -1.3245485878e-03 
          5.8915791302e-06 -4.9327258847e-04 -2.0441073921e-03 
          9.9247056603e-06 -4.5454173829e-04 -2.1793718208e-03 
          5.5688905719e-04 -6.2907380664e-05 -1.3434240243e-03 
          3.0134338123e-04 -1.3625769057e-04 -2.0898195522e-03 
          2.0673508020e-04 -2.1884495509e-04 -2.2053260478e-03 
          1.2289672824e-05 4.0283694701e-04 -1.3668138377e-03 
          1.7960137336e-05 8.7986375015e-05 -2.1249573533e-03 
          2.2947037635e-05 -8.9722722390e-05 -2.2602641061e-03 
          -4.6281881751e-05 -3.0941438560e-04 -2.6773499903e-03 
          2.7982416204e-06 -4.0025645556e-04 -2.8650469648e-03 
          2.4981199077e-05 -4.9206946395e-04 -3.2890229586e-03 
          1.3965982121e-05 -4.2628159187e-04 -2.6056436646e-03 
          1.7749077268e-05 -4.3461182398e-04 -2.8481963509e-03 
          2.0928616058e-05 -5.3593502883e-04 -3.1762269472e-03 
          9.5492339432e-05 -3.0625639679e-04 -2.6746427192e-03 
          4.9928062400e-05 -3.9831539171e-04 -2.8622813607e-03 
          3.1476310860e-05 -4.9135950586e-04 -3.2868770164e-03 
          2.7223838821e-05 -2.7293595051e-04 -2.7029250742e-03 
          3.0702485743e-05 -4.1873875672e-04 -2.9493164795e-03 
          3.3293404554e-05 -4.8349394172e-04 -3.2843220306e-03 
        </DataArray>
        <DataArray type="Float64" Name="Reaction" NumberOfComponents="3" format="ascii">
          -1.8686084462e+04 1.8881281656e+04 2.3050504886e+05 
          -2.0169514636e+00 -2.7425248111e+00 5.6747884904e-01 
          -1.7862911455e+04 -1.7561694586e+04 2.2046588330e+05 
          -1.1583614308e+00 -2.3820521631e+00 1.5970546514e-01 
          -1.8866393647e+01 -6.2298418671e+00 8.9501032724e-01 
          -2.1252924464e+01 -8.9073376285e+00 -4.7367737959e-01 
          1.5345212691e+01 -7.9775780107e+00 -2.3710144857e-01 
          -1.4344439156e+01 -6.6935733560e+00 -2.6180042981e-02 
          7.8510363651e+00 -5.9171322808e+00 -4.4737360402e-02 
          -1.2086951434e+01 -1.7395659992e+00 5.9078087755e-01 
          1.7854540251e+04 -1.7585159550e+04 2.2019440061e+05 
          -1.6222605267e+01 1.1482155169e+01 6.9661083827e-01 
          -1.1331833509e+01 1.0517549278e+01 -4.0605430520e-01 
          -1.9214387692e+01 -9.9242344308e+00 -4.2469214609e-01 
          -8.3948752857e+00 4.9148136718e+00 -1.4066547370e-01 
          -2.3097639289e+00 2.0593914264e+00 4.1107743054e-01 
          1.8405171241e+04 1.8748979445e+04 2.2933892880e+05 
          4.7625244016e+00 -5.6805154572e-01 1.9401197465e-01 
          1.0406068924e+01 9.3733750986e+00 -2.3313438104e-01 
          -1.3654879326e+01 6.5549821020e+00 -4.3638029832e-01 
          4.7960328969e+00 7.2762552635e+00 -8.5417872167e-02 
          2.2300432041e+00 -1.4955113484e+00 2.6298759242e-01 
          1.0398198421e+01 -8.7902858197e+00 -2.0070026263e-01 
          5.9920855770e+00 1.1806821522e+01 -2.1551457122e-01 
          -2.4618902108e+00 -7.8958993119e+00 -2.3520247650e-01 
          6.6802709058e+00 1.5321076865e+00 -3.2062999328e-01 
          8.4126560875e+00 2.7898326652e+00 -3.0039090303e-01 
          -5.5114039151e+00 1.0210384669e+01 -2.9498947879e-01 
          -3.7715333684e+00 1.0918334058e+01 -1.1277783687e-01 
          -1.7008904658e+00 2.5348324499e+00 -8.8176290411e-02 
          -6.5133051630e+00 4.7511418670e+00 -2.3285347942e-01 
          -5.0162237142e+00 8.6531056713e+00 -2.9190682530e-01 
          -3.9127436020e+00 9.0734969463e+00 -8.9832220943e-02 
          5.3747203552e+00 4.2165860337e+00 -2.9546878673e-01 
          -3.3414406695e+00 7.2317625598e+00 -2.8026465607e-01 
          6.9632022328e+00 8.4684244592e+00 -1.1406931412e-01 
          -9.6903061940e-01 1.0157535013e+01 -3.1991565275e-01 
          6.5059476567e+00 1.1483447161e+01 -3.3553243571e-01 
          -1.3234160100e+00 1.1021693828e+01 -2.9717087806e-01 
          1.5235295251e+00 8.2173017306e+00 -4.1991300109e-01 
          -1.9995525052e-01 1.4086533281e+01 8.6425826737e-02 
          3.1380419550e+00 1.4434030713e+01 1.6386046610e-01 
          -4.2887501285e+00 9.1348407522e+00 -3.3856662163e-01 
          -1.2353466300e+00 8.5165030343e+00 -3.3930455105e-01 
          -1.2275026557e+00 1.1069840084e+01 4.5073302799e-02 
          -1.3196673000e+00 6.9208744461e+00 -3.3215711609e-01 
          3.6783485795e+00 6.9990823471e+00 -4.1185706713e-01 
          1.9872688331e+00 1.1597024480e+01 1.3587091490e-01 
          1.0767180944e+00 6.5739039998e+00 -1.7253369599e-01 
          1.8420482912e-01 8.3648296901e+00 -2.8690812056e-01 
          -1.4874086786e+00 9.1168325805e+00 -6.9978430624e-01 
          1.0449517602e+00 1.0223830736e+01 8.6417065348e-01 
          2.1029364185e+00 6.6259346078e+00 3.2664321411e-01 
          1.6104862250e-01 5.0971358962e+00 -2.4284795502e-01 
          1.6610358508e+00 7.2809116305e+00 2.3030259146e-01 
          -4.4872127243e-01 7.6047502633e+00 1.8869958898e-01 
          7.1181335450e+00 2.2742627610e+01 -2.6167948904e-01 
          -8.4352737508e-01 2.4979611786e+01 -4.1252513687e-01 
          2.7073833007e+00 9.7361848435e+00 -3.5111606264e-01 
          -2.2791871519e-02 1.7365180722e+01 -1.2731996107e+00 
          3.5546387365e+00 1.6490056060e+01 -1.0684914963e+00 
          3.5334466445e+00 8.6112707859e+00 6.9903587441e-01 
          1.3096676905e-01 1.2880560493e+01 1.0150902090e+00 
          7.7646451503e-01 6.3869618095e+00 -6.8251081720e-02 
          2.0284685379e-01 2.8207408389e+01 3.0221677600e-02 
          7.1155404653e+00 2.2656312058e+01 2.0131806654e-02 
          -2.2219518465e-01 6.7245871675e+00 -2.4884121662e-01 
          -1.9629761140e+00 1.6257246864e+01 -1.2904153491e+00 
          -5.8536377371e-02 1.0888382248e+01 -5.0569420646e-01 
          -1.0890959611e+00 7.4769295324e+00 2.1400494241e-01 
          -3.2404883531e+00 2.6475491296e+01 -4.2718381023e-01 
          -1.4676517033e+00 9.3341437312e+00 6.4286582801e-01 
          -1.5014647330e-01 4.9515645711e+00 4.5304819640e-02 
          -9.8936780266e-01 8.3637882394e+00 -2.4818349480e-01 
          -2.3809697634e+00 1.3635327633e+01 9.2552750580e-01 
          -6.0896119955e-01 6.1901242768e+00 4.4433076468e-02 
          -3.5243026268e+00 2.9380528547e+01 3.5648124607e-02 
          -9.3957120793e-01 7.8537956100e+00 3.6471456483e-01 
          -3.4967090774e-01 1.1326365862e+01 1.8400430923e+00 
          -4.1228223377e-01 1.2191844864e+01 1.8967110433e+00 
          7.1331880760e-01 4.9838869234e+00 -2.2675939032e-01 
          1.5209477161e+00 1.5406314642e+01 -1.1352134015e+00 
          -1.3120087640e+00 7.2049289594e+00 -7.1762127010e-01 
          1.0487220407e+00 7.1573682587e+00 1.9847918328e-01 
          4.6543050140e+00 2.4466614000e+01 -2.7835021443e-01 
          1.2729957844e-01 5.2889888660e+00 4.4063206948e-01 
          1.7322530284e-01 4.5292613123e+00 -2.3216504850e-01 
          2.7607422625e+00 9.7053438276e+00 -3.5338218698e-01 
          1.4164901350e+00 9.0548450253e+00 7.2826532325e-01 
          8.3138107470e-01 6.8302944968e+00 -5.5452050572e-02 
          3.4510368327e+00 2.3843888028e+01 -1.3872015747e-01 
          1.1655601540e+00 1.0918297404e+01 -4.2562591478e-01 
          6.3880749843e-01 5.1169174726e+00 3.2147487670e-02 
          1.8177942096e+00 8.3339907398e+00 -2.2202540031e-01 
          1.5285122619e+00 6.2781345631e+00 4.5202626576e-02 
          8.5673618834e-01 8.0031075127e+00 4.2175553603e-01 
          1.5144948262e+00 7.2766731059e+00 1.8816290161e+00 
          1.5382072307e+00 8.3802617577e+00 1.8705297164e+00 
          7.0135595542e-01 5.8329082359e+00 -8.5242731791e-01 
          1.8966172645e+00 9.7319146575e+00 1.7558066694e+00 
          2.9598927964e-01 7.2267805805e+00 -1.3446033652e+00 
          -3.6237067234e-01 1.5042444441e+01 -9.0856559134e-01 
          1.6606923665e+00 1.1649126675e+01 1.8683497255e+00 
          1.1219718914e-01 7.1930441947e+00 -1.4097477106e+00 
          1.0241895952e+00 1.2066578258e+01 1.8466409245e+00 
          1.0176678837e-01 7.3474354703e+00 -1.4039581376e+00 
          1.2763838314e+00 9.6864921556e+00 1.7759084479e+00 
          2.5838713299e-01 7.4049163683e+00 -1.3529826167e+00 
          1.9635017617e+00 3.4237383300e+00 -7.6143667975e-01 
          1.3194853014e+00 6.5828890353e+00 1.5847528998e+00 
          1.4395440800e-01 4.9221174608e+00 -1.2065716764e+00 
          -8.6269706521e-01 1.1872331920e+01 -8.1640672531e-01 
          -5.4273068847e-01 8.7468208596e+00 1.7129268371e+00 
          -1.1893391472e+00 5.4547017814e+00 -1.2789846948e+00 
          -1.0812425846e+00 8.7208591276e+00 1.6735868799e+00 
          -1.2028841551e+00 5.2329452425e+00 -1.2647926785e+00 
          7.9138585142e-01 7.1866203179e+00 1.6095560421e+00 
          1.0684453669e-01 5.6300170234e+00 -1.2196116165e+00 
          2.7879071597e+00 2.7197475367e+00 -4.2819555769e-01 
          5.9960319040e-02 4.0924701821e+00 9.1756708533e-01 
          -4.4386691761e-01 2.8432752501e+00 -6.8371476860e-01 
          -2.7292507022e+00 7.4614264667e+00 -4.6972869971e-01 
          -8.1558633999e-01 5.3383438981e+00 1.0117587514e+00 
          -1.1801793074e+00 3.3425737931e+00 -7.3387482552e-01 
          -1.0609712039e+00 6.0341804212e+00 9.8889808027e-01 
          -1.1946171913e+00 3.7200073251e+00 -7.2692930982e-01 
          -1.7660591447e-01 5.8470274038e+00 9.2812489595e-01 
          -4.7258442981e-01 4.2612860647e+00 -6.8884033604e-01 
          4.4399586435e-01 8.1948169203e+00 1.2855594809e-02 
          3.6133183181e-01 7.4322971795e+00 -1.1521690042e-02 
          -2.2579114443e-01 3.1472907059e+00 7.6664244577e-01 
          1.9083708276e-01 3.0365480696e+00 7.5772657215e-01 
          1.8037662421e-01 1.9923797111e+00 7.6456262016e-01 
          -2.3722341388e-01 1.9240377660e+00 7.5600112916e-01 
          4.2111223015e-01 -8.1715232165e-01 -3.9885676265e-02 
          -1.8037184475e+00 4.5926714338e-01 -5.7733635267e-02 
          -8.2957562267e-01 1.9384696792e+00 -6.2856823719e-02 
          -1.9207029441e+00 5.2431872106e+00 -3.2395412091e-02 
          -1.2628847779e+00 8.7969744532e-01 2.2331043433e-02 
          -1.0505332756e+00 6.2702449880e-01 4.8632804451e-03 
          1.8383387091e-01 6.3504602670e-01 -4.4902609769e-02 
          -1.7610267615e+00 1.5183427511e+00 -5.1386773893e-02 
          -8.3558958811e-01 2.0843180812e+00 -6.5316394412e-02 
          1.2671814273e+00 1.1309847732e+00 3.4972857213e-02 
          1.1552068935e+00 6.9091254771e-01 3.6119440667e-02 
          4.1974577580e-01 4.7079610504e-01 2.2423880332e-02 
          4.5970634255e-01 2.7244881447e+00 -8.9721384243e-02 
          -9.3059957810e-02 2.9307112261e+00 -9.3228869593e-02 
          -4.4675050174e-01 2.7617359514e+00 -9.3938345155e-02 
          -7.8995439013e-01 -7.1229662948e-01 -2.5874065617e-02 
          -5.4503702403e-01 1.2014225402e+00 2.3780991898e-02 
          -2.4717653235e-01 3.4810550026e+00 8.3560741460e-02 
          4.0549391290e-01 2.2891373495e+00 -8.6343595468e-02 
          -4.1559683211e-02 2.2658298682e+00 -9.4517144780e-02 
          -6.8876101604e-01 2.2125795706e+00 -9.2565429037e-02 
          5.8424771892e-01 -6.7629732849e-01 -7.2781070655e-03 
          7.4609568054e-01 1.3932994150e+00 4.3217084566e-02 
          5.7913957930e-01 3.4826553282e+00 9.6747774389e-02 
        </DataArray>
        <DataArray type="Float64" Name="UnbalancedLoad" NumberOfComponents="3" format="ascii">
          0.0000000000e+00 0.0000000000e+00 -1.6724295096e+04 
          0.0000000000e+00 0.0000000000e+00 -1.7137395826e+04 
          0.0000000000e+00 0.0000000000e+00 -1.6723643817e+04 
          0.0000000000e+00 0.0000000000e+00 -2.7003159704e+04 
          0.0000000000e+00 0.0000000000e+00 -2.7002748308e+04 
          0.0000000000e+00 0.0000000000e+00 -1.8271339408e+04 
          0.0000000000e+00 0.0000000000e+00 -1.8273801927e+04 
          0.0000000000e+00 0.0000000000e+00 -1.3671209490e+04 
          0.0000000000e+00 0.0000000000e+00 -1.3673260626e+04 
          0.0000000000e+00 0.0000000000e+00 -1.7136744533e+04 
          0.0000000000e+00 0.0000000000e+00 -1.6724295096e+04 
          0.0000000000e+00 0.0000000000e+00 -2.7003159704e+04 
          0.0000000000e+00 0.0000000000e+00 -1.8273801927e+04 
          0.0000000000e+00 0.0000000000e+00 -1.8273801927e+04 
          0.0000000000e+00 0.0000000000e+00 -1.3673260626e+04 
          0.0000000000e+00 0.0000000000e+00 -1.7136744533e+04 
          0.0000000000e+00 0.0000000000e+00 -1.6724295096e+04 
          0.0000000000e+00 0.0000000000e+00 -2.7003159704e+04 
          0.0000000000e+00 0.0000000000e+00 -1.8273801927e+04 
          0.0000000000e+00 0.0000000000e+00 -1.8273801927e+04 
          0.0000000000e+00 0.0000000000e+00 -1.3673260626e+04 
          0.0000000000e+00 0.0000000000e+00 -1.7136744533e+04 
          0.0000000000e+00 0.0000000000e+00 -1.8273801927e+04 
          0.0000000000e+00 0.0000000000e+00 -1.8273801927e+04 
          0.0000000000e+00 0.0000000000e+00 -9.1094247589e+03 
          0.0000000000e+00 0.0000000000e+00 -9.1094247589e+03 
          0.0000000000e+00 0.0000000000e+00 -8.2277613531e+03 
          0.0000000000e+00 0.0000000000e+00 -8.2277613531e+03 
          0.0000000000e+00 0.0000000000e+00 -6.7730421645e+03 
          0.0000000000e+00 0.0000000000e+00 -6.7730421645e+03 
          0.0000000000e+00 0.0000000000e+00 -9.1094247589e+03 
          0.0000000000e+00 0.0000000000e+00 -8.2277613531e+03 
          0.0000000000e+00 0.0000000000e+00 -6.7730421645e+03 
          0.0000000000e+00 0.0000000000e+00 -9.1094247589e+03 
          0.0000000000e+00 0.0000000000e+00 -8.2277613531e+03 
          0.0000000000e+00 0.0000000000e+00 -6.7730421645e+03 
          0.0000000000e+00 0.0000000000e+00 -5.4539527258e+03 
          0.0000000000e+00 0.0000000000e+00 -5.4539527258e+03 
          0.0000000000e+00 0.0000000000e+00 -4.9345422007e+03 
          0.0000000000e+00 0.0000000000e+00 -4.9345422007e+03 
          0.0000000000e+00 0.0000000000e+00 -6.7242117529e+03 
          0.0000000000e+00 0.0000000000e+00 -6.7242117529e+03 
          0.0000000000e+00 0.0000000000e+00 -5.4539527258e+03 
          0.0000000000e+00 0.0000000000e+00 -4.9345422007e+03 
          0.0000000000e+00 0.0000000000e+00 -6.7242117529e+03 
          0.0000000000e+00 0.0000000000e+00 -5.4539527258e+03 
          0.0000000000e+00 0.0000000000e+00 -4.9345422007e+03 
          0.0000000000e+00 0.0000000000e+00 -6.7242117529e+03 
          0.0000000000e+00 0.0000000000e+00 -3.1016574585e+03 
          0.0000000000e+00 0.0000000000e+00 -3.1016574585e+03 
          0.0000000000e+00 0.0000000000e+00 -3.8780233583e+03 
          0.0000000000e+00 0.0000000000e+00 -3.1822963729e+03 
          0.0000000000e+00 0.0000000000e+00 -3.1822963729e+03 
          0.0000000000e+00 0.0000000000e+00 -1.7690650517e+03 
          0.0000000000e+00 0.0000000000e+00 -2.3850828929e+03 
          0.0000000000e+00 0.0000000000e+00 -2.3850828929e+03 
          0.0000000000e+00 0.0000000000e+00 -6.3379229937e+03 
          0.0000000000e+00 0.0000000000e+00 -6.3379229937e+03 
          0.0000000000e+00 0.0000000000e+00 -3.1614487927e+03 
          0.0000000000e+00 0.0000000000e+00 -5.8066913927e+03 
          0.0000000000e+00 0.0000000000e+00 -5.8066913927e+03 
          0.0000000000e+00 0.0000000000e+00 -3.1822963729e+03 
          0.0000000000e+00 0.0000000000e+00 -3.1822963729e+03 
          0.0000000000e+00 0.0000000000e+00 -1.7690650517e+03 
          0.0000000000e+00 0.0000000000e+00 -6.0636264148e+03 
          0.0000000000e+00 0.0000000000e+00 -6.0636264148e+03 
          0.0000000000e+00 0.0000000000e+00 -3.1016574585e+03 
          0.0000000000e+00 0.0000000000e+00 -5.8066913927e+03 
          0.0000000000e+00 0.0000000000e+00 -3.8780233583e+03 
          0.0000000000e+00 0.0000000000e+00 -2.3850828929e+03 
          0.0000000000e+00 0.0000000000e+00 -6.3379229937e+03 
          0.0000000000e+00 0.0000000000e+00 -3.1822963729e+03 
          0.0000000000e+00 0.0000000000e+00 -1.7690650517e+03 
          0.0000000000e+00 0.0000000000e+00 -3.1614487927e+03 
          0.0000000000e+00 0.0000000000e+00 -3.1822963729e+03 
          0.0000000000e+00 0.0000000000e+00 -1.7690650517e+03 
          0.0000000000e+00 0.0000000000e+00 -6.0636264148e+03 
          0.0000000000e+00 0.0000000000e+00 -1.6829791966e+03 
          0.0000000000e+00 0.0000000000e+00 -2.0337084410e+03 
          0.0000000000e+00 0.0000000000e+00 -2.0337084410e+03 
          0.0000000000e+00 0.0000000000e+00 -3.1016574585e+03 
          0.0000000000e+00 0.0000000000e+00 -5.8066913927e+03 
          0.0000000000e+00 0.0000000000e+00 -3.8780233583e+03 
          0.0000000000e+00 0.0000000000e+00 -2.3850828929e+03 
          0.0000000000e+00 0.0000000000e+00 -6.3379229937e+03 
          0.0000000000e+00 0.0000000000e+00 -3.1822963729e+03 
          0.0000000000e+00 0.0000000000e+00 -1.7690650517e+03 
          0.0000000000e+00 0.0000000000e+00 -3.1614487927e+03 
          0.0000000000e+00 0.0000000000e+00 -3.1822963729e+03 
          0.0000000000e+00 0.0000000000e+00 -1.7690650517e+03 
          0.0000000000e+00 0.0000000000e+00 -6.0636264148e+03 
          0.0000000000e+00 0.0000000000e+00 -3.8780233583e+03 
          0.0000000000e+00 0.0000000000e+00 -1.7690650517e+03 
          0.0000000000e+00 0.0000000000e+00 -3.1614487927e+03 
          0.0000000000e+00 0.0000000000e+00 -1.7690650517e+03 
          0.0000000000e+00 0.0000000000e+00 -1.6829791966e+03 
          0.0000000000e+00 0.0000000000e+00 -2.0337084410e+03 
          0.0000000000e+00 0.0000000000e+00 -2.0337084410e+03 
          0.0000000000e+00 0.0000000000e+00 -2.6294952476e+03 
          0.0000000000e+00 0.0000000000e+00 -2.6295145797e+03 
          0.0000000000e+00 0.0000000000e+00 -1.8664898619e+03 
          0.0000000000e+00 0.0000000000e+00 -2.6294952476e+03 
          0.0000000000e+00 0.0000000000e+00 -2.6295145797e+03 
          0.0000000000e+00 0.0000000000e+00 -1.8664898619e+03 
          0.0000000000e+00 0.0000000000e+00 -2.6295145797e+03 
          0.0000000000e+00 0.0000000000e+00 -1.8664898619e+03 
          0.0000000000e+00 0.0000000000e+00 -2.6295145797e+03 
          0.0000000000e+00 0.0000000000e+00 -1.8664898619e+03 
          0.0000000000e+00 0.0000000000e+00 -2.6294952476e+03 
          0.0000000000e+00 0.0000000000e+00 -2.6295145797e+03 
          0.0000000000e+00 0.0000000000e+00 -1.8664898619e+03 
          0.0000000000e+00 0.0000000000e+00 -2.6294952476e+03 
          0.0000000000e+00 0.0000000000e+00 -2.6295145797e+03 
          0.0000000000e+00 0.0000000000e+00 -1.8664898619e+03 
          0.0000000000e+00 0.0000000000e+00 -2.6295145797e+03 
          0.0000000000e+00 0.0000000000e+00 -1.8664898619e+03 
          0.0000000000e+00 0.0000000000e+00 -2.6295145797e+03 
          0.0000000000e+00 0.0000000000e+00 -1.8664898619e+03 
          0.0000000000e+00 0.0000000000e+00 -2.6294952476e+03 
          0.0000000000e+00 0.0000000000e+00 -2.6295145797e+03 
          0.0000000000e+00 0.0000000000e+00 -1.8664898619e+03 
          0.0000000000e+00 0.0000000000e+00 -2.6294952476e+03 
          0.0000000000e+00 0.0000000000e+00 -2.6295145797e+03 
          0.0000000000e+00 0.0000000000e+00 -1.8664898619e+03 
          0.0000000000e+00 0.0000000000e+00 -2.6295145797e+03 
          0.0000000000e+00 0.0000000000e+00 -1.8664898619e+03 
          0.0000000000e+00 0.0000000000e+00 -2.6295145797e+03 
          0.0000000000e+00 0.0000000000e+00 -1.8664898619e+03 
          0.0000000000e+00 0.0000000000e+00 -1.6869888329e+03 
          0.0000000000e+00 0.0000000000e+00 -1.6869888329e+03 
          0.0000000000e+00 0.0000000000e+00 -4.6115873781e+02 
          0.0000000000e+00 0.0000000000e+00 -4.6115873781e+02 
          0.0000000000e+00 0.0000000000e+00 -4.6115873781e+02 
          0.0000000000e+00 0.0000000000e+00 -4.6115873781e+02 
          0.0000000000e+00 0.0000000000e+00 -2.2438896797e+03 
          0.0000000000e+00 0.0000000000e+00 -2.0268804745e+03 
          0.0000000000e+00 0.0000000000e+00 -1.8273263107e+03 
          0.0000000000e+00 0.0000000000e+00 -2.2438896797e+03 
          0.0000000000e+00 0.0000000000e+00 -2.0268804745e+03 
          0.0000000000e+00 0.0000000000e+00 -1.8273263107e+03 
          0.0000000000e+00 0.0000000000e+00 -2.2438896797e+03 
          0.0000000000e+00 0.0000000000e+00 -2.0268804745e+03 
          0.0000000000e+00 0.0000000000e+00 -1.8273263107e+03 
          0.0000000000e+00 0.0000000000e+00 -2.2438896797e+03 
          0.0000000000e+00 0.0000000000e+00 -2.0268804745e+03 
          0.0000000000e+00 0.0000000000e+00 -1.8273263107e+03 
          0.0000000000e+00 0.0000000000e+00 -1.6477177056e+03 
          0.0000000000e+00 0.0000000000e+00 -1.4829733585e+03 
          0.0000000000e+00 0.0000000000e+00 -1.3442465410e+03 
          0.0000000000e+00 0.0000000000e+00 -1.6477177056e+03 
          0.0000000000e+00 0.0000000000e+00 -1.4829733585e+03 
          0.0000000000e+00 0.0000000000e+00 -1.3442465410e+03 
          0.0000000000e+00 0.0000000000e+00 -1.6477177056e+03 
          0.0000000000e+00 0.0000000000e+00 -1.4829733585e+03 
          0.0000000000e+00 0.0000000000e+00 -1.3442465410e+03 
          0.0000000000e+00 0.0000000000e+00 -1.6477177056e+03 
          0.0000000000e+00 0.0000000000e+00 -1.4829733585e+03 
          0.0000000000e+00 0.0000000000e+00 -1.3442465410e+03 
        </DataArray>
      </PointData>
      <CellData>
        <DataArray type="Int64" Name="ElementTag" format="ascii">
          0
        </DataArray>
      </CellData>
    </Piece>
  </UnstructuredGrid>
</VTKFile>
