<?xml version="1.0"?>
<VTKFile type="UnstructuredGrid" version="1.0" byte_order="LittleEndian" compressor="vtkZLibDataCompressor">
  <UnstructuredGrid>
    <Piece NumberOfPoints="158" NumberOfCells="1">
      <Points>
        <DataArray type="Float64" Name="Points" NumberOfComponents="3" format="ascii">
          1.7550000000e+00 -1.7550000000e+00 0.0000000000e+00 
          1.4140000000e+00 0.0000000000e+00 5.2300000000e+00 
          1.7550000000e+00 1.7550000000e+00 -0.0000000000e+00 
          1.4140000000e+00 -1.4140000000e+00 5.2300000000e+00 
          1.4140000000e+00 1.4140000000e+00 5.2300000000e+00 
          1.5840000000e+00 8.7800000000e-01 2.6150000000e+00 
          1.5840000000e+00 -8.7700000000e-01 2.6150000000e+00 
          1.5840000000e+00 1.5840000000e+00 2.6150000000e+00 
          1.5840000000e+00 -1.5840000000e+00 2.6150000000e+00 
          -0.0000000000e+00 1.4140000000e+00 5.2300000000e+00 
          -1.7550000000e+00 1.7550000000e+00 -0.0000000000e+00 
          -1.4140000000e+00 1.4140000000e+00 5.2300000000e+00 
          -8.7700000000e-01 1.5840000000e+00 2.6150000000e+00 
          8.7700000000e-01 1.5840000000e+00 2.6150000000e+00 
          -1.5840000000e+00 1.5840000000e+00 2.6150000000e+00 
          -1.4140000000e+00 -0.0000000000e+00 5.2300000000e+00 
          -1.7550000000e+00 -1.7550000000e+00 -0.0000000000e+00 
          -1.4140000000e+00 -1.4140000000e+00 5.2300000000e+00 
          -1.5840000000e+00 -8.7700000000e-01 2.6150000000e+00 
          -1.5840000000e+00 8.7700000000e-01 2.6150000000e+00 
          -1.5840000000e+00 -1.5840000000e+00 2.6150000000e+00 
          0.0000000000e+00 -1.4140000000e+00 5.2300000000e+00 
          8.7700000000e-01 -1.5840000000e+00 2.6150000000e+00 
          -8.7700000000e-01 -1.5840000000e+00 2.6150000000e+00 
          1.2750000000e+00 1.2750000000e+00 7.3500000000e+00 
          1.2750000000e+00 -1.2750000000e+00 7.3500000000e+00 
          1.1500000000e+00 -1.1500000000e+00 9.2700000000e+00 
          1.1500000000e+00 1.1500000000e+00 9.2700000000e+00 
          1.0370000000e+00 -1.0370000000e+00 1.1000000000e+01 
          1.0370000000e+00 1.0370000000e+00 1.1000000000e+01 
          -1.2750000000e+00 1.2750000000e+00 7.3500000000e+00 
          -1.1500000000e+00 1.1500000000e+00 9.2700000000e+00 
          -1.0370000000e+00 1.0370000000e+00 1.1000000000e+01 
          -1.2750000000e+00 -1.2750000000e+00 7.3500000000e+00 
          -1.1500000000e+00 -1.1500000000e+00 9.2700000000e+00 
          -1.0370000000e+00 -1.0370000000e+00 1.1000000000e+01 
          9.3500000000e-01 9.3500000000e-01 1.2560000000e+01 
          9.3500000000e-01 -9.3500000000e-01 1.2560000000e+01 
          8.4300000000e-01 8.4300000000e-01 1.3960000000e+01 
          8.4300000000e-01 -8.4300000000e-01 1.3960000000e+01 
          7.6000000000e-01 7.6000000000e-01 1.5240000000e+01 
          7.6000000000e-01 -7.6000000000e-01 1.5240000000e+01 
          -9.3500000000e-01 9.3500000000e-01 1.2560000000e+01 
          -8.4300000000e-01 8.4300000000e-01 1.3960000000e+01 
          -7.6000000000e-01 7.6000000000e-01 1.5240000000e+01 
          -9.3500000000e-01 -9.3500000000e-01 1.2560000000e+01 
          -8.4300000000e-01 -8.4300000000e-01 1.3960000000e+01 
          -7.6000000000e-01 -7.6000000000e-01 1.5240000000e+01 
          7.6000000000e-01 -7.6000000000e-01 1.6240000000e+01 
          7.6000000000e-01 7.6000000000e-01 1.6240000000e+01 
          7.6000000000e-01 0.0000000000e+00 1.6240000000e+01 
          7.6000000000e-01 7.6000000000e-01 1.7340000000e+01 
          7.6000000000e-01 -7.6000000000e-01 1.7340000000e+01 
          7.6000000000e-01 0.0000000000e+00 1.7890000000e+01 
          7.6000000000e-01 -7.6000000000e-01 1.9440000000e+01 
          7.6000000000e-01 7.6000000000e-01 1.9440000000e+01 
          7.6000000000e-01 -7.6000000000e-01 2.1640000000e+01 
          7.6000000000e-01 7.6000000000e-01 2.1640000000e+01 
          7.6000000000e-01 0.0000000000e+00 1.9440000000e+01 
          7.6000000000e-01 7.6000000000e-01 1.8440000000e+01 
          7.6000000000e-01 -7.6000000000e-01 1.8440000000e+01 
          7.6000000000e-01 -7.6000000000e-01 2.0540000000e+01 
          7.6000000000e-01 7.6000000000e-01 2.0540000000e+01 
          7.6000000000e-01 0.0000000000e+00 2.1090000000e+01 
          7.6000000000e-01 7.6000000000e-01 2.2640000000e+01 
          7.6000000000e-01 -7.6000000000e-01 2.2640000000e+01 
          -7.6000000000e-01 7.6000000000e-01 1.6240000000e+01 
          -7.6000000000e-01 7.6000000000e-01 1.8440000000e+01 
          -0.0000000000e+00 7.6000000000e-01 1.6240000000e+01 
          -7.6000000000e-01 7.6000000000e-01 1.9440000000e+01 
          -7.6000000000e-01 7.6000000000e-01 2.1640000000e+01 
          -7.6000000000e-01 7.6000000000e-01 1.7340000000e+01 
          -0.0000000000e+00 7.6000000000e-01 1.7890000000e+01 
          -0.0000000000e+00 7.6000000000e-01 1.9440000000e+01 
          -7.6000000000e-01 7.6000000000e-01 2.0540000000e+01 
          0.0000000000e+00 7.6000000000e-01 2.1090000000e+01 
          -7.6000000000e-01 7.6000000000e-01 2.2640000000e+01 
          -0.0000000000e+00 5.2600000000e-01 2.3499000000e+01 
          3.9900000000e-01 4.0400000000e-01 2.3950000000e+01 
          -3.9900000000e-01 4.0400000000e-01 2.3950000000e+01 
          -7.6000000000e-01 -7.6000000000e-01 1.6240000000e+01 
          -7.6000000000e-01 -7.6000000000e-01 1.8440000000e+01 
          -7.6000000000e-01 -0.0000000000e+00 1.6240000000e+01 
          -7.6000000000e-01 -7.6000000000e-01 1.9440000000e+01 
          -7.6000000000e-01 -7.6000000000e-01 2.1640000000e+01 
          -7.6000000000e-01 -7.6000000000e-01 1.7340000000e+01 
          -7.6000000000e-01 0.0000000000e+00 1.7890000000e+01 
          -7.6000000000e-01 -0.0000000000e+00 1.9440000000e+01 
          -7.6000000000e-01 -7.6000000000e-01 2.0540000000e+01 
          -7.6000000000e-01 -0.0000000000e+00 2.1090000000e+01 
          -7.6000000000e-01 -7.6000000000e-01 2.2640000000e+01 
          0.0000000000e+00 -7.6000000000e-01 1.6240000000e+01 
          0.0000000000e+00 -7.6000000000e-01 1.7890000000e+01 
          0.0000000000e+00 -7.6000000000e-01 1.9440000000e+01 
          0.0000000000e+00 -7.6000000000e-01 2.1090000000e+01 
          0.0000000000e+00 -5.2600000000e-01 2.3499000000e+01 
          3.9900000000e-01 -4.0400000000e-01 2.3950000000e+01 
          -3.9900000000e-01 -4.0400000000e-01 2.3950000000e+01 
          -0.0000000000e+00 -3.3500000000e+00 2.1640000000e+01 
          -3.8000000000e-01 -2.0550000000e+00 2.2140000000e+01 
          -3.8000000000e-01 -2.0550000000e+00 2.1640000000e+01 
          0.0000000000e+00 3.3500000000e+00 2.1640000000e+01 
          -3.8000000000e-01 2.0550000000e+00 2.2140000000e+01 
          -3.8000000000e-01 2.0550000000e+00 2.1640000000e+01 
          3.8000000000e-01 2.0550000000e+00 2.2140000000e+01 
          3.8000000000e-01 2.0550000000e+00 2.1640000000e+01 
          3.8000000000e-01 -2.0550000000e+00 2.2140000000e+01 
          3.8000000000e-01 -2.0550000000e+00 2.1640000000e+01 
          -0.0000000000e+00 -3.3500000000e+00 1.8440000000e+01 
          -3.8000000000e-01 -2.0550000000e+00 1.8940000000e+01 
          -3.8000000000e-01 -2.0550000000e+00 1.8440000000e+01 
          -0.0000000000e+00 3.3500000000e+00 1.8440000000e+01 
          -3.8000000000e-01 2.0550000000e+00 1.8940000000e+01 
          -3.8000000000e-01 2.0550000000e+00 1.8440000000e+01 
          3.8000000000e-01 2.0550000000e+00 1.8940000000e+01 
          3.8000000000e-01 2.0550000000e+00 1.8440000000e+01 
          3.8000000000e-01 -2.0550000000e+00 1.8940000000e+01 
          3.8000000000e-01 -2.0550000000e+00 1.8440000000e+01 
          -0.0000000000e+00 -3.3500000000e+00 1.5240000000e+01 
          -3.8000000000e-01 -2.0550000000e+00 1.5740000000e+01 
          -3.8000000000e-01 -2.0550000000e+00 1.5240000000e+01 
          -0.0000000000e+00 3.3500000000e+00 1.5240000000e+01 
          -3.8000000000e-01 2.0550000000e+00 1.5740000000e+01 
          -3.8000000000e-01 2.0550000000e+00 1.5240000000e+01 
          3.8000000000e-01 2.0550000000e+00 1.5740000000e+01 
          3.8000000000e-01 2.0550000000e+00 1.5240000000e+01 
          3.8000000000e-01 -2.0550000000e+00 1.5740000000e+01 
          3.8000000000e-01 -2.0550000000e+00 1.5240000000e+01 
          -5.2400000000e-01 0.0000000000e+00 2.3496000000e+01 
          5.2400000000e-01 0.0000000000e+00 2.3496000000e+01 
          4.0000000000e-02 5.0000000000e-02 2.5250000000e+01 
          -4.0000000000e-02 5.0000000000e-02 2.5250000000e+01 
          -4.0000000000e-02 -5.0000000000e-02 2.5250000000e+01 
          4.0000000000e-02 -5.0000000000e-02 2.5250000000e+01 
          1.3410000000e+00 0.0000000000e+00 6.3450000000e+00 
          1.2090000000e+00 0.0000000000e+00 8.3600000000e+00 
          1.0900000000e+00 -0.0000000000e+00 1.0180000000e+01 
          -0.0000000000e+00 1.3410000000e+00 6.3450000000e+00 
          0.0000000000e+00 1.2090000000e+00 8.3600000000e+00 
          -0.0000000000e+00 1.0900000000e+00 1.0180000000e+01 
          -1.3410000000e+00 0.0000000000e+00 6.3450000000e+00 
          -1.2090000000e+00 0.0000000000e+00 8.3600000000e+00 
          -1.0900000000e+00 -0.0000000000e+00 1.0180000000e+01 
          -0.0000000000e+00 -1.3410000000e+00 6.3450000000e+00 
          0.0000000000e+00 -1.2090000000e+00 8.3600000000e+00 
          0.0000000000e+00 -1.0900000000e+00 1.0180000000e+01 
          9.8300000000e-01 0.0000000000e+00 1.1820000000e+01 
          8.8700000000e-01 0.0000000000e+00 1.3296000000e+01 
          8.0000000000e-01 -0.0000000000e+00 1.4633000000e+01 
          0.0000000000e+00 9.8300000000e-01 1.1820000000e+01 
          -0.0000000000e+00 8.8700000000e-01 1.3296000000e+01 
          0.0000000000e+00 8.0000000000e-01 1.4633000000e+01 
          -9.8300000000e-01 0.0000000000e+00 1.1820000000e+01 
          -8.8700000000e-01 0.0000000000e+00 1.3296000000e+01 
          -8.0000000000e-01 0.0000000000e+00 1.4633000000e+01 
          0.0000000000e+00 -9.8300000000e-01 1.1820000000e+01 
          0.0000000000e+00 -8.8700000000e-01 1.3296000000e+01 
          0.0000000000e+00 -8.0000000000e-01 1.4633000000e+01 
        </DataArray>
      </Points>
      <Cells>
        <DataArray type="Int64" Name="connectivity" format="ascii">
          0
          1
          2
          3
          4
          5
          6
          7
          8
          9
          10
          11
          12
          13
          14
          15
          16
          17
          18
          19
          20
          21
          22
          23
          24
          25
          26
          27
          28
          29
          30
          31
          32
          33
          34
          35
          36
          37
          38
          39
          40
          41
          42
          43
          44
          45
          46
          47
          48
          49
          50
          51
          52
          53
          54
          55
          56
          57
          58
          59
          60
          61
          62
          63
          64
          65
          66
          67
          68
          69
          70
          71
          72
          73
          74
          75
          76
          77
          78
          79
          80
          81
          82
          83
          84
          85
          86
          87
          88
          89
          90
          91
          92
          93
          94
          95
          96
          97
          98
          99
          100
          101
          102
          103
          104
          105
          106
          107
          108
          109
          110
          111
          112
          113
          114
          115
          116
          117
          118
          119
          120
          121
          122
          123
          124
          125
          126
          127
          128
          129
          130
          131
          132
          133
          134
          135
          136
          137
          138
          139
          140
          141
          142
          143
          144
          145
          146
          147
          148
          149
          150
          151
          152
          153
          154
          155
          156
          157
        </DataArray>
        <DataArray type="Int64" Name="offsets" format="ascii">
          158
        </DataArray>
        <DataArray type="Int64" Name="types" format="ascii">
          2
        </DataArray>
      </Cells>
      <PointData>
        <DataArray type="Int64" Name="NodeTag" format="ascii">
          1
          2
          3
          4
          5
          6
          7
          8
          9
          10
          11
          12
          13
          14
          15
          16
          17
          18
          19
          20
          21
          22
          23
          24
          25
          26
          27
          28
          29
          30
          31
          32
          33
          34
          35
          36
          37
          38
          39
          40
          41
          42
          43
          44
          45
          46
          47
          48
          49
          50
          51
          52
          53
          54
          55
          56
          57
          58
          59
          60
          61
          62
          63
          64
          65
          66
          67
          68
          69
          70
          71
          72
          73
          74
          75
          76
          77
          78
          79
          80
          81
          82
          83
          84
          85
          86
          87
          88
          89
          90
          91
          92
          93
          94
          95
          96
          97
          98
          99
          100
          101
          102
          103
          104
          105
          106
          107
          108
          109
          110
          111
          112
          113
          114
          115
          116
          117
          118
          119
          120
          121
          122
          123
          124
          125
          126
          127
          128
          129
          130
          131
          132
          133
          134
          135
          136
          137
          138
          139
          140
          141
          142
          143
          144
          145
          146
          147
          148
          149
          150
          151
          152
          153
          154
          155
          156
          157
          158
        </DataArray>
        <DataArray type="Float64" Name="Displacement" NumberOfComponents="3" format="ascii">
          0.0000000000e+00 0.0000000000e+00 0.0000000000e+00 
          -1.4718849052e-04 -1.4982727277e-04 -5.4665824601e-05 
          0.0000000000e+00 0.0000000000e+00 0.0000000000e+00 
          9.2126247622e-05 -1.5240003788e-04 -4.4506104301e-04 
          -1.2295007174e-05 -1.5375977846e-04 -2.0706595560e-04 
          -5.5221834961e-04 -4.5909866906e-04 -1.9205997880e-04 
          -6.7780005762e-04 6.5333028487e-04 -3.2464292447e-04 
          -3.5254504315e-04 -4.5946971440e-04 -1.5870889239e-04 
          -6.8611910059e-04 6.5217950815e-04 -3.2584064211e-04 
          -8.5790777638e-06 3.0337329386e-05 -3.4985971525e-05 
          0.0000000000e+00 0.0000000000e+00 0.0000000000e+00 
          -4.7969633384e-06 -6.4357989210e-05 -2.2014372325e-04 
          3.6219625529e-04 -6.3976212233e-04 -1.9002081320e-04 
          -3.5217548478e-04 -3.6742951370e-04 -1.6365283895e-04 
          3.6206212140e-04 -4.2000054979e-04 -1.6702111064e-04 
          3.4191730565e-04 -6.0910737375e-05 -6.7589581593e-05 
          0.0000000000e+00 0.0000000000e+00 0.0000000000e+00 
          9.5919661466e-05 -5.9909573270e-05 -4.8034947150e-04 
          6.0069132802e-04 7.5967471829e-04 -3.4047869930e-04 
          1.8975265749e-04 -4.1989855858e-04 -1.7095782728e-04 
          8.7960845832e-04 7.5866973669e-04 -3.5326572071e-04 
          9.2013379921e-05 -1.6612247684e-04 -4.6283931183e-05 
          -6.8728590124e-04 6.1510314764e-04 -3.2867595979e-04 
          8.8055048260e-04 1.0221956529e-03 -3.8735710492e-04 
          1.9261177388e-05 -3.6611930713e-04 -2.5745732680e-04 
          2.1711319579e-04 -5.1353380370e-04 -6.0611703161e-04 
          5.2594066925e-05 -8.1324756975e-04 -7.5785398975e-04 
          -6.8911518177e-05 -7.9673433364e-04 -3.2195830827e-04 
          8.6181684117e-05 -1.2632637133e-03 -8.5614812010e-04 
          -7.5127672931e-05 -1.1772971045e-03 -3.6999649636e-04 
          -7.8578198759e-05 -2.5224191190e-04 -2.7996088621e-04 
          -4.8657241900e-05 -6.8510649217e-04 -3.5122937996e-04 
          -1.1125292454e-04 -1.0376442809e-03 -3.9917450054e-04 
          -6.3944643486e-05 -4.2490581405e-04 -6.4428093318e-04 
          3.9552930424e-05 -6.9200473931e-04 -8.0133791378e-04 
          -7.5210847889e-05 -1.1365170677e-03 -9.0080601049e-04 
          -1.1997204330e-04 -1.6568341986e-03 -4.3004575283e-04 
          -1.3728067061e-06 -1.6971666589e-03 -9.7528166453e-04 
          -1.4102591785e-04 -2.1283031794e-03 -4.8519702805e-04 
          -2.2230921105e-05 -2.2033717182e-03 -1.0607517877e-03 
          -1.6889341223e-04 -2.6801343881e-03 -5.4193509737e-04 
          -1.0955554570e-04 -2.6692204578e-03 -1.1320708366e-03 
          -1.3082054707e-04 -1.5116686241e-03 -4.5854667376e-04 
          -1.6126033790e-04 -1.9640688531e-03 -5.0999345576e-04 
          -1.7529902999e-04 -2.5139588093e-03 -5.6333510998e-04 
          -7.3070832737e-05 -1.5471334128e-03 -1.0221021200e-03 
          -1.3732584994e-04 -2.0469481679e-03 -1.1067605488e-03 
          -1.3548850734e-04 -2.4991890899e-03 -1.1760374770e-03 
          -1.6167145716e-04 -3.1093742869e-03 -1.2577562906e-03 
          -1.8149689327e-04 -3.0958150435e-03 -5.6422723052e-04 
          -2.0261524547e-04 -3.1020756182e-03 -8.6924179121e-04 
          -1.5309631338e-04 -3.6082804372e-03 -5.7599409840e-04 
          -2.7315764841e-05 -3.8446323022e-03 -1.3831014437e-03 
          -1.2868297013e-04 -4.0325686233e-03 -1.1253333924e-03 
          -2.7036678545e-04 -5.0375280527e-03 -1.6196558686e-03 
          -2.0762532001e-04 -5.0138865231e-03 -6.4401254537e-04 
          -3.0871253708e-04 -6.5677028871e-03 -1.7602986831e-03 
          -2.0948616782e-04 -6.5971906402e-03 -6.9147941764e-04 
          -6.0843683601e-04 -5.0247424162e-03 -1.1010910694e-03 
          -1.9109390515e-04 -4.3952457711e-03 -6.2349035115e-04 
          -2.3542384795e-04 -4.3689087354e-03 -1.5508933203e-03 
          -2.0199312472e-04 -5.8750090974e-03 -1.6833103036e-03 
          -1.8215649479e-04 -5.7291038575e-03 -6.5534569396e-04 
          -7.1317730058e-05 -6.1849848327e-03 -1.2596272487e-03 
          -2.2237842858e-04 -7.2864081869e-03 -7.0548371720e-04 
          -3.2404322717e-04 -7.3197101074e-03 -1.7869049116e-03 
          -1.7747056063e-04 -2.9334471478e-03 -5.8419408220e-04 
          -1.9871910482e-04 -4.2516713432e-03 -6.4063282727e-04 
          -1.7964377663e-04 -2.9902647551e-03 -5.6225426666e-04 
          -1.9566904778e-04 -4.8742355835e-03 -6.6044623242e-04 
          -2.1892230082e-04 -6.4732781276e-03 -7.0632010355e-04 
          -2.1910173357e-04 -3.4543722164e-03 -5.9404581975e-04 
          -1.9061915999e-04 -3.8953634818e-03 -6.3083225154e-04 
          -2.0169927209e-04 -5.1437133826e-03 -6.4333616075e-04 
          -2.3147721625e-04 -5.6003022375e-03 -6.7003771057e-04 
          -2.1037369594e-04 -6.1709485459e-03 -6.9656751025e-04 
          -2.2156854719e-04 -7.1674252783e-03 -7.2150995808e-04 
          -2.4864159257e-04 -7.9206765866e-03 -9.0797552172e-04 
          -2.6590521451e-04 -8.2200476490e-03 -9.7514552086e-04 
          -2.6167266944e-04 -8.1615176442e-03 -9.8625333760e-04 
          -1.5816711762e-04 -2.9466525429e-03 -1.3014820319e-03 
          -2.3576584235e-04 -4.2225073711e-03 -1.5900939342e-03 
          -6.6483943303e-05 -2.9396356019e-03 -9.0051409198e-04 
          -2.5898871282e-04 -4.8979031249e-03 -1.6550205386e-03 
          -3.0864038002e-04 -6.4435426454e-03 -1.7894865311e-03 
          -3.7285837720e-04 -3.6890133718e-03 -1.4265136062e-03 
          -2.9095252328e-04 -3.8832355061e-03 -1.1551523520e-03 
          1.4279632601e-04 -4.8860989661e-03 -1.1271840080e-03 
          -3.7186264328e-04 -5.7399022831e-03 -1.7146812441e-03 
          -4.4884407071e-04 -6.0573315883e-03 -1.2800752936e-03 
          -3.3102241832e-04 -7.2021171203e-03 -1.8155580890e-03 
          -1.5982590456e-04 -3.1582569258e-03 -1.2285922466e-03 
          -2.1858567844e-04 -4.0887324828e-03 -1.6079814643e-03 
          -2.6421955175e-04 -4.8515714009e-03 -1.6083421482e-03 
          -2.9813343715e-04 -6.0596092692e-03 -1.7970065157e-03 
          -3.2582789917e-04 -7.8674636226e-03 -1.6445641253e-03 
          -3.2229487877e-04 -8.2175910376e-03 -1.5543017250e-03 
          -3.2785228143e-04 -8.1591560244e-03 -1.5684703243e-03 
          -5.1366760599e-04 -6.4871832013e-03 -3.9076280067e-03 
          -4.1052175886e-04 -6.8595464583e-03 -2.8414550603e-03 
          -3.6051023281e-04 -6.4505434763e-03 -2.8431363131e-03 
          -2.5209620257e-06 -6.5572282745e-03 9.1798475668e-04 
          -1.6990520393e-04 -6.8273429339e-03 1.1976597976e-04 
          -1.4350794724e-04 -6.5062151222e-03 1.1807062917e-04 
          -1.7018007190e-04 -6.9210502941e-03 1.3024499264e-04 
          -1.4363496306e-04 -6.5887225371e-03 1.2879473824e-04 
          -4.1048407243e-04 -6.9277999080e-03 -2.8134993351e-03 
          -3.6046709454e-04 -6.5424145219e-03 -2.8148540178e-03 
          -4.8587983995e-04 -4.2761069579e-03 -3.5366745149e-03 
          -4.9716103748e-04 -4.6501772730e-03 -2.5515941828e-03 
          -4.7501009621e-04 -4.2824413341e-03 -2.5531672958e-03 
          5.3113039284e-05 -4.3436984263e-03 7.9406428838e-04 
          -2.0349986616e-04 -4.5522582196e-03 8.7397129213e-05 
          -1.6233268205e-04 -4.2716493265e-03 8.5646983879e-05 
          -2.0352317389e-04 -4.6962841111e-03 1.0332921562e-04 
          -1.6228426759e-04 -4.3970465850e-03 1.0192202752e-04 
          -4.9712583481e-04 -4.6511790456e-03 -2.5263919012e-03 
          -4.7492488248e-04 -4.2889331077e-03 -2.5278518990e-03 
          -4.1526539148e-04 -2.5621498046e-03 -2.5932066564e-03 
          -3.6491192895e-04 -2.8156783063e-03 -1.8742531534e-03 
          -3.2054606290e-04 -2.5436753655e-03 -1.8759543987e-03 
          1.0938154771e-04 -2.6175087933e-03 3.4786489512e-04 
          -1.2989363651e-04 -2.7283908974e-03 -9.4006321567e-05 
          -1.1296170115e-04 -2.5427025585e-03 -9.5720070517e-05 
          -1.2995941677e-04 -2.8646654151e-03 -8.1022253536e-05 
          -1.1302685490e-04 -2.6734533814e-03 -8.2603394230e-05 
          -3.6479268292e-04 -2.8531729289e-03 -1.8458343589e-03 
          -3.2044066318e-04 -2.5989741251e-03 -1.8472702618e-03 
          -2.5483121262e-04 -7.8215326140e-03 -1.2905760182e-03 
          -3.0043562781e-04 -7.9005056189e-03 -1.2689225856e-03 
          -2.9515748288e-04 -9.1605726439e-03 -1.2377931673e-03 
          -2.9514131115e-04 -9.1605709591e-03 -1.2501035796e-03 
          -2.9525060277e-04 -9.1604663777e-03 -1.3101864908e-03 
          -2.9529223702e-04 -9.1605733979e-03 -1.2954228141e-03 
          1.2990158541e-03 -2.7493708357e-04 -2.5903178062e-04 
          1.1965839738e-03 -6.0754321334e-04 -4.5828980353e-04 
          7.9496897602e-04 -1.0035310211e-03 -5.0730265701e-04 
          -1.7018315819e-05 5.3195189587e-04 -1.6626884067e-04 
          -4.3078438676e-05 -6.0348685004e-04 -3.5043470877e-04 
          -7.5959398965e-05 -1.8579378958e-03 -4.0871566807e-04 
          2.6131286191e-03 -1.7977637878e-04 -5.2908149687e-04 
          1.4601960211e-03 -4.9840706504e-04 -6.7400324958e-04 
          -3.4082420728e-04 -8.7776229174e-04 -5.6983510895e-04 
          8.5458863370e-05 -3.1317691955e-03 -2.7503043406e-04 
          6.2268549246e-05 -5.3378837094e-04 -7.9679434239e-04 
          2.5763469327e-05 -4.0052623301e-04 -8.2430694856e-04 
          3.5917543247e-04 -1.4385592659e-03 -6.5066324180e-04 
          5.7577484662e-05 -1.9165484386e-03 -7.2119496782e-04 
          -2.1538579887e-05 -2.4192155993e-03 -8.2883729445e-04 
          -1.0960343736e-04 -1.7820019788e-03 -4.5460986287e-04 
          -1.3878984407e-04 -1.9351686452e-03 -4.7877491818e-04 
          -1.6209703128e-04 -2.4786305046e-03 -5.4178279404e-04 
          -4.3234812314e-04 -1.2968451817e-03 -6.9697122564e-04 
          -2.1794845753e-04 -1.7611033509e-03 -7.5614535011e-04 
          -1.9751654330e-04 -2.2536136791e-03 -8.6935013443e-04 
          -1.5959906195e-05 -9.0602329203e-04 -1.0031260182e-03 
          -5.9073567174e-05 -1.6595447557e-03 -1.0445852115e-03 
          -1.0215078309e-04 -2.3128085477e-03 -1.1523429490e-03 
        </DataArray>
        <DataArray type="Float64" Name="Reaction" NumberOfComponents="3" format="ascii">
          -6.8128227484e+03 7.0184500165e+03 8.0890677425e+04 
          -1.9338935910e+02 2.5674092895e+01 4.1896151777e-01 
          -2.3130374325e+03 -1.2572336536e+03 3.2595522133e+04 
          4.2357380489e+02 -1.0303376541e+02 -1.3886755578e+02 
          8.2225147575e+01 1.0013570061e+02 -1.9515279271e+02 
          -3.7325676835e+02 -1.9026934817e+02 -9.6277905618e-02 
          2.4007913785e+02 -1.3948983994e+02 -9.1272726202e-01 
          -7.9009957318e+01 -1.3807957496e+02 1.0005491573e-01 
          1.0670124575e+02 -9.5761833003e+01 6.4623508459e-01 
          -5.2155122231e+01 4.5535852984e+02 7.4635784268e+00 
          3.1307907664e+03 -2.3679409239e+03 3.8910538886e+04 
          -2.6144262711e+02 4.2555239280e+02 -2.7477143673e+02 
          7.1742039578e+01 -3.3500024191e+02 -8.3291028988e+00 
          -1.0812803651e+02 -2.1050024151e+02 1.8274427633e-01 
          -2.9955227600e+01 -1.2221205419e+02 7.9194450943e-01 
          7.9964219668e+02 1.8673918090e+02 1.1805505311e+01 
          4.4425972757e+03 5.4530452682e+03 7.3463064457e+04 
          1.2852496532e+02 2.5766576587e+02 -2.2157955614e+02 
          -2.2022915645e+02 -1.2031041238e+02 -4.4105443302e+00 
          -2.5912665471e+02 -2.7528451273e+02 -1.0041888427e+01 
          1.0202307842e+02 -1.0910298341e+02 4.9884513375e-01 
          2.4929034141e+02 -2.7572582896e+00 1.6441410878e+00 
          1.2970646835e+02 -3.1595500521e+02 -1.1431054752e+00 
          2.0840048976e+02 2.7449307896e+02 -3.9307126083e-01 
          4.3685139343e+02 -1.2918160039e+02 1.8079574234e+02 
          3.5902892197e+02 2.3869813965e+02 1.5594660487e+02 
          5.8830492948e+01 -1.2317287119e+02 1.4662214982e+01 
          6.6219651907e+01 7.5348314616e+01 6.3879373072e+01 
          2.0347209736e+01 -2.2984502066e+01 3.5841937960e+00 
          -4.5193560684e+01 4.8409955941e+01 2.7296005434e+01 
          -7.0527330646e+02 1.3010688104e+02 3.1836649830e+02 
          -1.1704648107e+02 3.6738166458e+01 2.8149941132e+01 
          -6.3477541136e+01 1.0580679809e+01 2.6314551089e+01 
          -2.8801943267e+02 -1.0624564812e+02 2.7803633672e+02 
          9.0482521005e+01 -1.7269060810e+02 -2.0009511094e+01 
          2.9288899888e+01 6.5745654250e+00 9.5617625177e+00 
          -5.8470701242e+01 8.2250198921e+01 4.9287312418e-01 
          3.7103006346e+01 -4.2065195262e+01 8.7678648158e+00 
          -7.1917642698e+01 -9.7593427850e+01 -6.6222399154e-02 
          2.4152034917e+01 5.5500159401e+00 6.6110630882e-01 
          -6.6164576406e+01 -1.3076377051e+02 -4.5287693161e+00 
          -3.6226782173e+01 -1.3409167438e+02 -1.6324217397e+00 
          -1.8375723552e+02 -4.5074754643e+00 4.2892251893e+00 
          -7.7308213867e+01 -2.5874359361e+01 -1.4464222116e+00 
          -5.7721342089e+01 -2.0104251701e+01 -8.0537993806e+00 
          -3.0333358072e+01 -4.7628264591e+01 1.3909492840e+01 
          2.0550972876e+01 -9.9546173790e+00 1.2312313849e+00 
          -1.5191201620e+01 -1.9437249371e+01 -2.0943013161e+00 
          -2.3559262741e+01 -5.4362469928e+01 -5.5273427509e-02 
          1.5852654587e+01 -3.3091597203e+01 2.1175804480e-01 
          -7.7241053540e+01 -2.7838514296e+00 -3.1539871292e-01 
          4.1707279339e+01 3.7146985314e+01 3.9272303702e-01 
          -2.0150427779e+00 -4.2603863299e+01 -3.5594875068e+00 
          5.0525081020e+01 -3.2425675816e+00 -3.4548037146e-01 
          3.5952150383e+01 -2.0049285377e+02 -3.7205957298e-01 
          4.2706398877e+01 1.8059863068e+02 3.8757603754e-01 
          1.4356789739e+01 -1.4493667196e+02 1.3033456943e+00 
          1.2603281122e+02 -1.9859565601e+02 9.4568678477e-01 
          -1.1811119650e+03 1.4347344016e+01 5.3030943074e-01 
          2.5656904447e+01 3.1573314729e+00 -4.7633785091e+01 
          -3.5751520343e+01 4.5760526120e+01 -6.5515105263e+01 
          -1.1550075642e+01 -1.4759363466e+02 6.0295545291e+01 
          -8.1734384421e+00 6.4088735763e+01 5.0896176885e+01 
          2.5856972677e+02 -4.2689523445e+01 -6.8966396200e-01 
          9.6545467960e+01 -2.3079718764e+02 -4.4395338391e-01 
          2.2553408544e+01 -2.3571448411e+02 -4.9129762933e-01 
          -3.6392882501e+01 1.6534470509e+01 -3.4111542727e-02 
          1.0028537361e+02 6.2316506318e+01 -3.9918635238e+01 
          -3.4384344899e+01 2.5097409148e+01 1.4034797373e-01 
          -3.4450433101e+01 1.3388858502e+02 2.1780423517e-01 
          3.5484828242e+01 -1.3772177936e+02 2.6349111174e+00 
          2.0417306341e-01 2.3406831581e+01 1.6146769942e+00 
          2.2404965905e+01 8.4077265707e+01 -3.6308232424e+00 
          -1.3576248605e+01 -7.8226098487e+02 2.4709979135e-01 
          3.5376157647e+01 -1.0069472039e+01 3.8639537140e+01 
          3.3047363505e+01 -4.8223191991e+01 -2.8918725159e+00 
          1.0539658194e+02 -2.0594142043e+02 5.5947846006e-01 
          3.2397886020e+01 -8.7778846930e+01 -3.4784214155e-02 
          2.4464246112e+01 -1.2174674206e+02 8.6561702836e-01 
          1.8430091059e+01 -9.7814405559e+01 1.0810355427e+00 
          -2.5447163548e+01 -2.9163003974e+01 -9.2670699781e-02 
          -4.8861859769e+01 2.6718269010e+01 -5.3693395381e+01 
          2.9527326156e+02 -5.8055868529e+01 8.5009969023e-01 
          -6.9960271343e+01 -1.6442095729e+02 -1.1854539509e-01 
          -2.3335443602e+01 -1.1293067909e+02 1.5936636956e-01 
          -4.5871101026e+01 -7.9631332632e+00 -1.8599390957e+00 
          -1.2505016612e+02 1.3839614495e+01 4.9311107740e-01 
          1.1031284766e+03 -3.6993969262e+01 1.6165801378e+01 
          -7.3597113297e+00 -4.4672818537e+01 4.0287914546e+01 
          -3.0041832353e+02 -2.1295935527e+01 8.8360294465e-02 
          5.6974769803e+00 -1.9912874838e+02 9.5452303548e-01 
          -9.4892994702e+00 -2.8179272883e+02 9.5866584220e-02 
          7.0135680015e+00 -5.1652915223e+01 2.2627835860e+00 
          -6.9432501157e+01 6.8298512424e+02 1.2993783203e+01 
          7.1068107725e+00 1.7498452237e+02 2.9204888323e+00 
          -7.0540595028e+00 -7.5401380746e+01 -1.8554974376e-01 
          -2.2344110733e+01 -1.2361532041e+02 7.0452149621e-01 
          -2.2605072876e+01 -1.0644798401e+02 1.1432235618e+00 
          -2.9005550122e+01 -4.1689893115e+01 -4.7731210075e-01 
          -3.0809374900e+01 -7.0642246788e+01 1.2061113511e+00 
          4.2980007375e+01 -1.3242389662e+01 -8.9953946486e-01 
          2.5594702637e+01 -6.6235904608e+01 -3.4119841202e-01 
          -2.8056406552e+01 -5.3281533126e+01 3.6469510427e-01 
          2.5905967297e+00 -4.0246390454e+01 -4.1143021249e-01 
          -2.8168130669e+01 -1.0602685192e+02 8.0765986839e-01 
          2.6304503263e+00 -6.3113011604e+01 -6.2393678894e-01 
          -3.2713723232e+01 -6.8425738092e+01 7.1074696033e-01 
          4.4992173066e+01 -4.9171989496e+01 -4.3081652448e-01 
          -3.6886622695e+01 2.0449720236e+01 -7.9029886100e-01 
          -6.1190204243e+01 2.8733314800e+01 9.8210584001e-01 
          -5.8698794085e+01 -1.4217854111e+01 -4.8314027108e-01 
          4.9949814333e+01 8.1000156170e+00 -2.6178779120e-01 
          -8.7048592819e+01 7.3622476829e+00 3.9098663161e-01 
          1.5791848234e+01 3.7713023997e+01 -3.9741131809e-01 
          -8.9503467456e+01 -3.1635722141e+01 9.5478352950e-01 
          1.6581280347e+01 -3.7532953401e+01 -7.5951143241e-01 
          -7.1800861803e+01 2.6687571525e+01 1.0705026631e+00 
          -5.4834433640e+01 5.8902007455e+01 -6.9693434733e-01 
          -7.6459318688e+01 -1.9322614732e+01 -2.2361153467e-02 
          -8.4018311676e+01 -3.5203215964e+01 3.0917653008e-01 
          -7.7754699127e+00 -9.6082189521e-01 -3.0525454383e-01 
          -1.7498726980e+01 -3.9045606794e+01 -4.6723879300e-02 
          -2.1743970805e+01 -5.9954018691e+00 4.4400942384e-02 
          -1.9587351274e+01 -1.5470116338e+01 -3.1724183915e-02 
          -1.9043704025e+01 -2.9964312611e+01 1.6838231767e-02 
          -2.1945035975e+01 -3.5093000265e+01 -5.9324487640e-02 
          -8.2289105485e+01 -2.5908234264e+01 3.5622173372e-01 
          -9.2498575075e+00 -3.2948666828e+01 -3.8065269216e-01 
          3.9173276156e-01 -7.2606508386e+01 1.4749717340e-01 
          1.5101975033e+01 -9.0651824074e+01 1.1592616794e-01 
          -6.9525647828e+00 -3.1163169037e+01 1.4787478613e-01 
          -1.0139047272e+01 -4.3642503125e+01 3.7350322589e-01 
          6.5816128887e+00 -4.7611004177e+01 5.1209584630e-01 
          9.3737638607e+00 -3.3616219609e+01 3.4359465034e-01 
          2.5441241378e+02 -2.0544147465e+01 -1.1919730616e+01 
          2.5433598277e+02 -1.1568569056e+01 -1.6523738892e+01 
          1.3263058414e+02 -5.0417404860e+00 -3.0213750615e+00 
          -1.3448180678e+01 1.4235210269e+02 -8.0614335186e+01 
          -1.2681967113e+01 4.4700081187e+01 -2.7353829799e+01 
          -1.6859169024e+01 -1.6116636931e+02 -1.1184413939e+01 
          3.6996476393e+02 -1.6874029197e+01 -6.0924095415e+01 
          2.2713624761e+02 2.2052860040e+00 -1.3923957852e+00 
          -7.8845551140e+01 5.2444507487e+00 -2.3521495277e+00 
          -9.0451712228e+01 -4.6600040101e+02 -6.1192160854e+01 
          5.2541906785e+01 6.3291964674e+01 -1.4330164486e-01 
          8.6354972220e+00 9.3848154373e+01 1.8844468648e+00 
          5.2017814556e+01 4.9378687094e+00 -2.5792858940e-01 
          1.2618479199e+01 -7.6114454153e+00 -2.4202717622e-01 
          4.8375801838e+01 -2.2865363391e+01 6.8248448523e-02 
          -2.7359457679e+01 -2.3162445454e+01 1.2519516892e+00 
          -3.0893795936e+01 5.4718618519e+01 7.1073796308e-02 
          -9.0019003084e+00 -6.2913183475e+01 8.2940891602e-01 
          -6.3923871111e+01 5.1422281280e+00 -1.0377282302e+00 
          -3.5656223307e+00 -7.4486934154e+00 8.7494216882e-02 
          -3.6926425973e+01 -1.0438687973e+00 4.5016045222e-02 
          6.0025092115e+00 1.1143645491e+02 -3.3343320982e-01 
          3.0230924072e+00 5.7644859601e+01 1.0669001042e+00 
          1.7067606429e+00 1.6760630068e+01 -1.8546928659e-01 
        </DataArray>
        <DataArray type="Float64" Name="UnbalancedLoad" NumberOfComponents="3" format="ascii">
          0.0000000000e+00 0.0000000000e+00 -4.1950885464e+03 
          0.0000000000e+00 0.0000000000e+00 -4.2987099027e+03 
          0.0000000000e+00 0.0000000000e+00 -4.1949251809e+03 
          0.0000000000e+00 0.0000000000e+00 -6.7734182722e+03 
          0.0000000000e+00 0.0000000000e+00 -6.7733150783e+03 
          0.0000000000e+00 0.0000000000e+00 -4.5831460303e+03 
          0.0000000000e+00 0.0000000000e+00 -4.5837637236e+03 
          0.0000000000e+00 0.0000000000e+00 -3.4292586932e+03 
          0.0000000000e+00 0.0000000000e+00 -3.4297731962e+03 
          0.0000000000e+00 0.0000000000e+00 -4.2985465336e+03 
          0.0000000000e+00 0.0000000000e+00 -4.1950885464e+03 
          0.0000000000e+00 0.0000000000e+00 -6.7734182722e+03 
          0.0000000000e+00 0.0000000000e+00 -4.5837637236e+03 
          0.0000000000e+00 0.0000000000e+00 -4.5837637236e+03 
          0.0000000000e+00 0.0000000000e+00 -3.4297731962e+03 
          0.0000000000e+00 0.0000000000e+00 -4.2985465336e+03 
          0.0000000000e+00 0.0000000000e+00 -4.1950885464e+03 
          0.0000000000e+00 0.0000000000e+00 -6.7734182722e+03 
          0.0000000000e+00 0.0000000000e+00 -4.5837637236e+03 
          0.0000000000e+00 0.0000000000e+00 -4.5837637236e+03 
          0.0000000000e+00 0.0000000000e+00 -3.4297731962e+03 
          0.0000000000e+00 0.0000000000e+00 -4.2985465336e+03 
          0.0000000000e+00 0.0000000000e+00 -4.5837637236e+03 
          0.0000000000e+00 0.0000000000e+00 -4.5837637236e+03 
          0.0000000000e+00 0.0000000000e+00 -2.2849897859e+03 
          0.0000000000e+00 0.0000000000e+00 -2.2849897859e+03 
          0.0000000000e+00 0.0000000000e+00 -2.0638351104e+03 
          0.0000000000e+00 0.0000000000e+00 -2.0638351104e+03 
          0.0000000000e+00 0.0000000000e+00 -1.6989362748e+03 
          0.0000000000e+00 0.0000000000e+00 -1.6989362748e+03 
          0.0000000000e+00 0.0000000000e+00 -2.2849897859e+03 
          0.0000000000e+00 0.0000000000e+00 -2.0638351104e+03 
          0.0000000000e+00 0.0000000000e+00 -1.6989362748e+03 
          0.0000000000e+00 0.0000000000e+00 -2.2849897859e+03 
          0.0000000000e+00 0.0000000000e+00 -2.0638351104e+03 
          0.0000000000e+00 0.0000000000e+00 -1.6989362748e+03 
          0.0000000000e+00 0.0000000000e+00 -1.3680585329e+03 
          0.0000000000e+00 0.0000000000e+00 -1.3680585329e+03 
          0.0000000000e+00 0.0000000000e+00 -1.2377706414e+03 
          0.0000000000e+00 0.0000000000e+00 -1.2377706414e+03 
          0.0000000000e+00 0.0000000000e+00 -1.6866877526e+03 
          0.0000000000e+00 0.0000000000e+00 -1.6866877526e+03 
          0.0000000000e+00 0.0000000000e+00 -1.3680585329e+03 
          0.0000000000e+00 0.0000000000e+00 -1.2377706414e+03 
          0.0000000000e+00 0.0000000000e+00 -1.6866877526e+03 
          0.0000000000e+00 0.0000000000e+00 -1.3680585329e+03 
          0.0000000000e+00 0.0000000000e+00 -1.2377706414e+03 
          0.0000000000e+00 0.0000000000e+00 -1.6866877526e+03 
          0.0000000000e+00 0.0000000000e+00 -7.7801351893e+02 
          0.0000000000e+00 0.0000000000e+00 -7.7801351893e+02 
          0.0000000000e+00 0.0000000000e+00 -9.7275557983e+02 
          0.0000000000e+00 0.0000000000e+00 -7.9824082204e+02 
          0.0000000000e+00 0.0000000000e+00 -7.9824082204e+02 
          0.0000000000e+00 0.0000000000e+00 -4.4374871967e+02 
          0.0000000000e+00 0.0000000000e+00 -5.9826939603e+02 
          0.0000000000e+00 0.0000000000e+00 -5.9826939603e+02 
          0.0000000000e+00 0.0000000000e+00 -1.5897918571e+03 
          0.0000000000e+00 0.0000000000e+00 -1.5897918571e+03 
          0.0000000000e+00 0.0000000000e+00 -7.9301145693e+02 
          0.0000000000e+00 0.0000000000e+00 -1.4565387907e+03 
          0.0000000000e+00 0.0000000000e+00 -1.4565387907e+03 
          0.0000000000e+00 0.0000000000e+00 -7.9824082204e+02 
          0.0000000000e+00 0.0000000000e+00 -7.9824082204e+02 
          0.0000000000e+00 0.0000000000e+00 -4.4374871967e+02 
          0.0000000000e+00 0.0000000000e+00 -1.5209878549e+03 
          0.0000000000e+00 0.0000000000e+00 -1.5209878549e+03 
          0.0000000000e+00 0.0000000000e+00 -7.7801351893e+02 
          0.0000000000e+00 0.0000000000e+00 -1.4565387907e+03 
          0.0000000000e+00 0.0000000000e+00 -9.7275557983e+02 
          0.0000000000e+00 0.0000000000e+00 -5.9826939603e+02 
          0.0000000000e+00 0.0000000000e+00 -1.5897918571e+03 
          0.0000000000e+00 0.0000000000e+00 -7.9824082204e+02 
          0.0000000000e+00 0.0000000000e+00 -4.4374871967e+02 
          0.0000000000e+00 0.0000000000e+00 -7.9301145693e+02 
          0.0000000000e+00 0.0000000000e+00 -7.9824082204e+02 
          0.0000000000e+00 0.0000000000e+00 -4.4374871967e+02 
          0.0000000000e+00 0.0000000000e+00 -1.5209878549e+03 
          0.0000000000e+00 0.0000000000e+00 -4.2215511690e+02 
          0.0000000000e+00 0.0000000000e+00 -5.1013133519e+02 
          0.0000000000e+00 0.0000000000e+00 -5.1013133519e+02 
          0.0000000000e+00 0.0000000000e+00 -7.7801351893e+02 
          0.0000000000e+00 0.0000000000e+00 -1.4565387907e+03 
          0.0000000000e+00 0.0000000000e+00 -9.7275557983e+02 
          0.0000000000e+00 0.0000000000e+00 -5.9826939603e+02 
          0.0000000000e+00 0.0000000000e+00 -1.5897918571e+03 
          0.0000000000e+00 0.0000000000e+00 -7.9824082204e+02 
          0.0000000000e+00 0.0000000000e+00 -4.4374871967e+02 
          0.0000000000e+00 0.0000000000e+00 -7.9301145693e+02 
          0.0000000000e+00 0.0000000000e+00 -7.9824082204e+02 
          0.0000000000e+00 0.0000000000e+00 -4.4374871967e+02 
          0.0000000000e+00 0.0000000000e+00 -1.5209878549e+03 
          0.0000000000e+00 0.0000000000e+00 -9.7275557983e+02 
          0.0000000000e+00 0.0000000000e+00 -4.4374871967e+02 
          0.0000000000e+00 0.0000000000e+00 -7.9301145693e+02 
          0.0000000000e+00 0.0000000000e+00 -4.4374871967e+02 
          0.0000000000e+00 0.0000000000e+00 -4.2215511690e+02 
          0.0000000000e+00 0.0000000000e+00 -5.1013133519e+02 
          0.0000000000e+00 0.0000000000e+00 -5.1013133519e+02 
          0.0000000000e+00 0.0000000000e+00 -6.5957729954e+02 
          0.0000000000e+00 0.0000000000e+00 -6.5958214877e+02 
          0.0000000000e+00 0.0000000000e+00 -4.6818656314e+02 
          0.0000000000e+00 0.0000000000e+00 -6.5957729954e+02 
          0.0000000000e+00 0.0000000000e+00 -6.5958214877e+02 
          0.0000000000e+00 0.0000000000e+00 -4.6818656314e+02 
          0.0000000000e+00 0.0000000000e+00 -6.5958214877e+02 
          0.0000000000e+00 0.0000000000e+00 -4.6818656314e+02 
          0.0000000000e+00 0.0000000000e+00 -6.5958214877e+02 
          0.0000000000e+00 0.0000000000e+00 -4.6818656314e+02 
          0.0000000000e+00 0.0000000000e+00 -6.5957729954e+02 
          0.0000000000e+00 0.0000000000e+00 -6.5958214877e+02 
          0.0000000000e+00 0.0000000000e+00 -4.6818656314e+02 
          0.0000000000e+00 0.0000000000e+00 -6.5957729954e+02 
          0.0000000000e+00 0.0000000000e+00 -6.5958214877e+02 
          0.0000000000e+00 0.0000000000e+00 -4.6818656314e+02 
          0.0000000000e+00 0.0000000000e+00 -6.5958214877e+02 
          0.0000000000e+00 0.0000000000e+00 -4.6818656314e+02 
          0.0000000000e+00 0.0000000000e+00 -6.5958214877e+02 
          0.0000000000e+00 0.0000000000e+00 -4.6818656314e+02 
          0.0000000000e+00 0.0000000000e+00 -6.5957729954e+02 
          0.0000000000e+00 0.0000000000e+00 -6.5958214877e+02 
          0.0000000000e+00 0.0000000000e+00 -4.6818656314e+02 
          0.0000000000e+00 0.0000000000e+00 -6.5957729954e+02 
          0.0000000000e+00 0.0000000000e+00 -6.5958214877e+02 
          0.0000000000e+00 0.0000000000e+00 -4.6818656314e+02 
          0.0000000000e+00 0.0000000000e+00 -6.5958214877e+02 
          0.0000000000e+00 0.0000000000e+00 -4.6818656314e+02 
          0.0000000000e+00 0.0000000000e+00 -6.5958214877e+02 
          0.0000000000e+00 0.0000000000e+00 -4.6818656314e+02 
          0.0000000000e+00 0.0000000000e+00 -4.2316088601e+02 
          0.0000000000e+00 0.0000000000e+00 -4.2316088601e+02 
          0.0000000000e+00 0.0000000000e+00 -1.1567613032e+02 
          0.0000000000e+00 0.0000000000e+00 -1.1567613032e+02 
          0.0000000000e+00 0.0000000000e+00 -1.1567613032e+02 
          0.0000000000e+00 0.0000000000e+00 -1.1567613032e+02 
          0.0000000000e+00 0.0000000000e+00 -5.6285277440e+02 
          0.0000000000e+00 0.0000000000e+00 -5.0841862181e+02 
          0.0000000000e+00 0.0000000000e+00 -4.5836285670e+02 
          0.0000000000e+00 0.0000000000e+00 -5.6285277440e+02 
          0.0000000000e+00 0.0000000000e+00 -5.0841862181e+02 
          0.0000000000e+00 0.0000000000e+00 -4.5836285670e+02 
          0.0000000000e+00 0.0000000000e+00 -5.6285277440e+02 
          0.0000000000e+00 0.0000000000e+00 -5.0841862181e+02 
          0.0000000000e+00 0.0000000000e+00 -4.5836285670e+02 
          0.0000000000e+00 0.0000000000e+00 -5.6285277440e+02 
          0.0000000000e+00 0.0000000000e+00 -5.0841862181e+02 
          0.0000000000e+00 0.0000000000e+00 -4.5836285670e+02 
          0.0000000000e+00 0.0000000000e+00 -4.1331019543e+02 
          0.0000000000e+00 0.0000000000e+00 -3.7198605473e+02 
          0.0000000000e+00 0.0000000000e+00 -3.3718809884e+02 
          0.0000000000e+00 0.0000000000e+00 -4.1331019543e+02 
          0.0000000000e+00 0.0000000000e+00 -3.7198605473e+02 
          0.0000000000e+00 0.0000000000e+00 -3.3718809884e+02 
          0.0000000000e+00 0.0000000000e+00 -4.1331019543e+02 
          0.0000000000e+00 0.0000000000e+00 -3.7198605473e+02 
          0.0000000000e+00 0.0000000000e+00 -3.3718809884e+02 
          0.0000000000e+00 0.0000000000e+00 -4.1331019543e+02 
          0.0000000000e+00 0.0000000000e+00 -3.7198605473e+02 
          0.0000000000e+00 0.0000000000e+00 -3.3718809884e+02 
        </DataArray>
      </PointData>
      <CellData>
        <DataArray type="Int64" Name="ElementTag" format="ascii">
          0
        </DataArray>
      </CellData>
    </Piece>
  </UnstructuredGrid>
</VTKFile>
