<?xml version="1.0"?>
<VTKFile type="UnstructuredGrid" version="1.0" byte_order="LittleEndian" compressor="vtkZLibDataCompressor">
  <UnstructuredGrid>
    <Piece NumberOfPoints="158" NumberOfCells="422">
      <Points>
        <DataArray type="Float64" Name="Points" NumberOfComponents="3" format="ascii">
          1.7550000000e+00 -1.7550000000e+00 0.0000000000e+00 
          1.4140000000e+00 0.0000000000e+00 5.2300000000e+00 
          1.7550000000e+00 1.7550000000e+00 -0.0000000000e+00 
          1.4140000000e+00 -1.4140000000e+00 5.2300000000e+00 
          1.4140000000e+00 1.4140000000e+00 5.2300000000e+00 
          1.5840000000e+00 8.7800000000e-01 2.6150000000e+00 
          1.5840000000e+00 -8.7700000000e-01 2.6150000000e+00 
          1.5840000000e+00 1.5840000000e+00 2.6150000000e+00 
          1.5840000000e+00 -1.5840000000e+00 2.6150000000e+00 
          -0.0000000000e+00 1.4140000000e+00 5.2300000000e+00 
          -1.7550000000e+00 1.7550000000e+00 -0.0000000000e+00 
          -1.4140000000e+00 1.4140000000e+00 5.2300000000e+00 
          -8.7700000000e-01 1.5840000000e+00 2.6150000000e+00 
          8.7700000000e-01 1.5840000000e+00 2.6150000000e+00 
          -1.5840000000e+00 1.5840000000e+00 2.6150000000e+00 
          -1.4140000000e+00 -0.0000000000e+00 5.2300000000e+00 
          -1.7550000000e+00 -1.7550000000e+00 -0.0000000000e+00 
          -1.4140000000e+00 -1.4140000000e+00 5.2300000000e+00 
          -1.5840000000e+00 -8.7700000000e-01 2.6150000000e+00 
          -1.5840000000e+00 8.7700000000e-01 2.6150000000e+00 
          -1.5840000000e+00 -1.5840000000e+00 2.6150000000e+00 
          0.0000000000e+00 -1.4140000000e+00 5.2300000000e+00 
          8.7700000000e-01 -1.5840000000e+00 2.6150000000e+00 
          -8.7700000000e-01 -1.5840000000e+00 2.6150000000e+00 
          1.2750000000e+00 1.2750000000e+00 7.3500000000e+00 
          1.2750000000e+00 -1.2750000000e+00 7.3500000000e+00 
          1.1500000000e+00 -1.1500000000e+00 9.2700000000e+00 
          1.1500000000e+00 1.1500000000e+00 9.2700000000e+00 
          1.0370000000e+00 -1.0370000000e+00 1.1000000000e+01 
          1.0370000000e+00 1.0370000000e+00 1.1000000000e+01 
          -1.2750000000e+00 1.2750000000e+00 7.3500000000e+00 
          -1.1500000000e+00 1.1500000000e+00 9.2700000000e+00 
          -1.0370000000e+00 1.0370000000e+00 1.1000000000e+01 
          -1.2750000000e+00 -1.2750000000e+00 7.3500000000e+00 
          -1.1500000000e+00 -1.1500000000e+00 9.2700000000e+00 
          -1.0370000000e+00 -1.0370000000e+00 1.1000000000e+01 
          9.3500000000e-01 9.3500000000e-01 1.2560000000e+01 
          9.3500000000e-01 -9.3500000000e-01 1.2560000000e+01 
          8.4300000000e-01 8.4300000000e-01 1.3960000000e+01 
          8.4300000000e-01 -8.4300000000e-01 1.3960000000e+01 
          7.6000000000e-01 7.6000000000e-01 1.5240000000e+01 
          7.6000000000e-01 -7.6000000000e-01 1.5240000000e+01 
          -9.3500000000e-01 9.3500000000e-01 1.2560000000e+01 
          -8.4300000000e-01 8.4300000000e-01 1.3960000000e+01 
          -7.6000000000e-01 7.6000000000e-01 1.5240000000e+01 
          -9.3500000000e-01 -9.3500000000e-01 1.2560000000e+01 
          -8.4300000000e-01 -8.4300000000e-01 1.3960000000e+01 
          -7.6000000000e-01 -7.6000000000e-01 1.5240000000e+01 
          7.6000000000e-01 -7.6000000000e-01 1.6240000000e+01 
          7.6000000000e-01 7.6000000000e-01 1.6240000000e+01 
          7.6000000000e-01 0.0000000000e+00 1.6240000000e+01 
          7.6000000000e-01 7.6000000000e-01 1.7340000000e+01 
          7.6000000000e-01 -7.6000000000e-01 1.7340000000e+01 
          7.6000000000e-01 0.0000000000e+00 1.7890000000e+01 
          7.6000000000e-01 -7.6000000000e-01 1.9440000000e+01 
          7.6000000000e-01 7.6000000000e-01 1.9440000000e+01 
          7.6000000000e-01 -7.6000000000e-01 2.1640000000e+01 
          7.6000000000e-01 7.6000000000e-01 2.1640000000e+01 
          7.6000000000e-01 0.0000000000e+00 1.9440000000e+01 
          7.6000000000e-01 7.6000000000e-01 1.8440000000e+01 
          7.6000000000e-01 -7.6000000000e-01 1.8440000000e+01 
          7.6000000000e-01 -7.6000000000e-01 2.0540000000e+01 
          7.6000000000e-01 7.6000000000e-01 2.0540000000e+01 
          7.6000000000e-01 0.0000000000e+00 2.1090000000e+01 
          7.6000000000e-01 7.6000000000e-01 2.2640000000e+01 
          7.6000000000e-01 -7.6000000000e-01 2.2640000000e+01 
          -7.6000000000e-01 7.6000000000e-01 1.6240000000e+01 
          -7.6000000000e-01 7.6000000000e-01 1.8440000000e+01 
          -0.0000000000e+00 7.6000000000e-01 1.6240000000e+01 
          -7.6000000000e-01 7.6000000000e-01 1.9440000000e+01 
          -7.6000000000e-01 7.6000000000e-01 2.1640000000e+01 
          -7.6000000000e-01 7.6000000000e-01 1.7340000000e+01 
          -0.0000000000e+00 7.6000000000e-01 1.7890000000e+01 
          -0.0000000000e+00 7.6000000000e-01 1.9440000000e+01 
          -7.6000000000e-01 7.6000000000e-01 2.0540000000e+01 
          0.0000000000e+00 7.6000000000e-01 2.1090000000e+01 
          -7.6000000000e-01 7.6000000000e-01 2.2640000000e+01 
          -0.0000000000e+00 5.2600000000e-01 2.3499000000e+01 
          3.9900000000e-01 4.0400000000e-01 2.3950000000e+01 
          -3.9900000000e-01 4.0400000000e-01 2.3950000000e+01 
          -7.6000000000e-01 -7.6000000000e-01 1.6240000000e+01 
          -7.6000000000e-01 -7.6000000000e-01 1.8440000000e+01 
          -7.6000000000e-01 -0.0000000000e+00 1.6240000000e+01 
          -7.6000000000e-01 -7.6000000000e-01 1.9440000000e+01 
          -7.6000000000e-01 -7.6000000000e-01 2.1640000000e+01 
          -7.6000000000e-01 -7.6000000000e-01 1.7340000000e+01 
          -7.6000000000e-01 0.0000000000e+00 1.7890000000e+01 
          -7.6000000000e-01 -0.0000000000e+00 1.9440000000e+01 
          -7.6000000000e-01 -7.6000000000e-01 2.0540000000e+01 
          -7.6000000000e-01 -0.0000000000e+00 2.1090000000e+01 
          -7.6000000000e-01 -7.6000000000e-01 2.2640000000e+01 
          0.0000000000e+00 -7.6000000000e-01 1.6240000000e+01 
          0.0000000000e+00 -7.6000000000e-01 1.7890000000e+01 
          0.0000000000e+00 -7.6000000000e-01 1.9440000000e+01 
          0.0000000000e+00 -7.6000000000e-01 2.1090000000e+01 
          0.0000000000e+00 -5.2600000000e-01 2.3499000000e+01 
          3.9900000000e-01 -4.0400000000e-01 2.3950000000e+01 
          -3.9900000000e-01 -4.0400000000e-01 2.3950000000e+01 
          -0.0000000000e+00 -3.3500000000e+00 2.1640000000e+01 
          -3.8000000000e-01 -2.0550000000e+00 2.2140000000e+01 
          -3.8000000000e-01 -2.0550000000e+00 2.1640000000e+01 
          0.0000000000e+00 3.3500000000e+00 2.1640000000e+01 
          -3.8000000000e-01 2.0550000000e+00 2.2140000000e+01 
          -3.8000000000e-01 2.0550000000e+00 2.1640000000e+01 
          3.8000000000e-01 2.0550000000e+00 2.2140000000e+01 
          3.8000000000e-01 2.0550000000e+00 2.1640000000e+01 
          3.8000000000e-01 -2.0550000000e+00 2.2140000000e+01 
          3.8000000000e-01 -2.0550000000e+00 2.1640000000e+01 
          -0.0000000000e+00 -3.3500000000e+00 1.8440000000e+01 
          -3.8000000000e-01 -2.0550000000e+00 1.8940000000e+01 
          -3.8000000000e-01 -2.0550000000e+00 1.8440000000e+01 
          -0.0000000000e+00 3.3500000000e+00 1.8440000000e+01 
          -3.8000000000e-01 2.0550000000e+00 1.8940000000e+01 
          -3.8000000000e-01 2.0550000000e+00 1.8440000000e+01 
          3.8000000000e-01 2.0550000000e+00 1.8940000000e+01 
          3.8000000000e-01 2.0550000000e+00 1.8440000000e+01 
          3.8000000000e-01 -2.0550000000e+00 1.8940000000e+01 
          3.8000000000e-01 -2.0550000000e+00 1.8440000000e+01 
          -0.0000000000e+00 -3.3500000000e+00 1.5240000000e+01 
          -3.8000000000e-01 -2.0550000000e+00 1.5740000000e+01 
          -3.8000000000e-01 -2.0550000000e+00 1.5240000000e+01 
          -0.0000000000e+00 3.3500000000e+00 1.5240000000e+01 
          -3.8000000000e-01 2.0550000000e+00 1.5740000000e+01 
          -3.8000000000e-01 2.0550000000e+00 1.5240000000e+01 
          3.8000000000e-01 2.0550000000e+00 1.5740000000e+01 
          3.8000000000e-01 2.0550000000e+00 1.5240000000e+01 
          3.8000000000e-01 -2.0550000000e+00 1.5740000000e+01 
          3.8000000000e-01 -2.0550000000e+00 1.5240000000e+01 
          -5.2400000000e-01 0.0000000000e+00 2.3496000000e+01 
          5.2400000000e-01 0.0000000000e+00 2.3496000000e+01 
          4.0000000000e-02 5.0000000000e-02 2.5250000000e+01 
          -4.0000000000e-02 5.0000000000e-02 2.5250000000e+01 
          -4.0000000000e-02 -5.0000000000e-02 2.5250000000e+01 
          4.0000000000e-02 -5.0000000000e-02 2.5250000000e+01 
          1.3410000000e+00 0.0000000000e+00 6.3450000000e+00 
          1.2090000000e+00 0.0000000000e+00 8.3600000000e+00 
          1.0900000000e+00 -0.0000000000e+00 1.0180000000e+01 
          -0.0000000000e+00 1.3410000000e+00 6.3450000000e+00 
          0.0000000000e+00 1.2090000000e+00 8.3600000000e+00 
          -0.0000000000e+00 1.0900000000e+00 1.0180000000e+01 
          -1.3410000000e+00 0.0000000000e+00 6.3450000000e+00 
          -1.2090000000e+00 0.0000000000e+00 8.3600000000e+00 
          -1.0900000000e+00 -0.0000000000e+00 1.0180000000e+01 
          -0.0000000000e+00 -1.3410000000e+00 6.3450000000e+00 
          0.0000000000e+00 -1.2090000000e+00 8.3600000000e+00 
          0.0000000000e+00 -1.0900000000e+00 1.0180000000e+01 
          9.8300000000e-01 0.0000000000e+00 1.1820000000e+01 
          8.8700000000e-01 0.0000000000e+00 1.3296000000e+01 
          8.0000000000e-01 -0.0000000000e+00 1.4633000000e+01 
          0.0000000000e+00 9.8300000000e-01 1.1820000000e+01 
          -0.0000000000e+00 8.8700000000e-01 1.3296000000e+01 
          0.0000000000e+00 8.0000000000e-01 1.4633000000e+01 
          -9.8300000000e-01 0.0000000000e+00 1.1820000000e+01 
          -8.8700000000e-01 0.0000000000e+00 1.3296000000e+01 
          -8.0000000000e-01 0.0000000000e+00 1.4633000000e+01 
          0.0000000000e+00 -9.8300000000e-01 1.1820000000e+01 
          0.0000000000e+00 -8.8700000000e-01 1.3296000000e+01 
          0.0000000000e+00 -8.0000000000e-01 1.4633000000e+01 
        </DataArray>
      </Points>
      <Cells>
        <DataArray type="Int64" Name="connectivity" format="ascii">
          0 6 
          1 5 
          0 8 
          2 7 
          5 4 
          6 3 
          5 7 
          6 8 
          2 13 
          9 12 
          10 14 
          12 11 
          13 4 
          12 14 
          13 7 
          10 19 
          15 18 
          16 20 
          18 17 
          19 11 
          18 20 
          19 14 
          16 23 
          21 22 
          22 3 
          23 17 
          22 8 
          23 20 
          3 1 
          4 9 
          11 15 
          17 21 
          1 4 
          5 2 
          6 1 
          7 4 
          8 3 
          9 11 
          12 10 
          13 9 
          14 11 
          15 17 
          18 16 
          19 15 
          20 17 
          21 3 
          22 0 
          23 21 
          4 24 
          3 25 
          25 26 
          24 27 
          26 28 
          27 29 
          11 30 
          30 31 
          31 32 
          17 33 
          33 34 
          34 35 
          29 36 
          28 37 
          36 38 
          37 39 
          38 40 
          39 41 
          32 42 
          42 43 
          43 44 
          35 45 
          45 46 
          46 47 
          48 50 
          41 50 
          50 40 
          50 51 
          50 52 
          49 51 
          48 52 
          40 49 
          48 41 
          52 53 
          51 53 
          54 58 
          56 57 
          58 59 
          58 60 
          59 55 
          60 54 
          51 59 
          60 52 
          58 61 
          58 62 
          62 63 
          57 63 
          62 57 
          61 56 
          56 64 
          57 65 
          55 62 
          54 61 
          56 65 
          57 64 
          41 40 
          48 50 
          60 59 
          65 64 
          49 68 
          59 67 
          40 44 
          49 68 
          40 68 
          68 44 
          55 73 
          57 70 
          68 71 
          68 51 
          66 71 
          44 66 
          51 72 
          71 72 
          73 67 
          73 59 
          67 69 
          71 67 
          73 62 
          73 74 
          74 75 
          70 75 
          74 70 
          57 76 
          70 64 
          69 74 
          70 76 
          64 76 
          64 77 
          78 64 
          79 76 
          78 77 
          66 82 
          67 81 
          44 47 
          66 82 
          44 82 
          82 47 
          69 87 
          70 84 
          82 85 
          82 71 
          80 85 
          47 80 
          71 86 
          85 86 
          87 81 
          87 67 
          81 83 
          85 81 
          87 74 
          87 88 
          88 89 
          84 89 
          88 84 
          70 90 
          84 76 
          83 88 
          84 90 
          76 90 
          80 91 
          81 60 
          47 41 
          80 91 
          47 91 
          91 41 
          83 93 
          84 56 
          91 52 
          91 85 
          85 92 
          52 92 
          93 60 
          93 81 
          93 88 
          93 61 
          61 94 
          56 94 
          84 65 
          56 90 
          90 65 
          90 95 
          96 65 
          97 95 
          98 106 
          98 99 
          98 100 
          98 107 
          99 84 
          99 100 
          101 102 
          101 104 
          101 103 
          101 105 
          102 103 
          102 70 
          104 105 
          104 57 
          106 107 
          106 56 
          108 116 
          108 109 
          108 110 
          108 117 
          109 81 
          109 110 
          111 112 
          111 114 
          111 113 
          111 115 
          112 113 
          112 67 
          114 115 
          114 59 
          116 117 
          116 60 
          118 126 
          118 119 
          118 120 
          118 127 
          119 47 
          119 120 
          121 122 
          121 124 
          121 123 
          121 125 
          122 123 
          122 44 
          124 125 
          124 40 
          126 127 
          126 41 
          106 99 
          107 100 
          105 103 
          104 102 
          114 112 
          115 113 
          116 109 
          117 110 
          126 119 
          127 120 
          124 122 
          125 123 
          79 97 
          78 96 
          97 90 
          79 128 
          76 128 
          78 129 
          64 129 
          92 81 
          92 60 
          94 84 
          94 88 
          95 65 
          95 96 
          72 67 
          72 59 
          75 62 
          75 57 
          77 79 
          77 76 
          86 67 
          86 81 
          89 70 
          89 74 
          129 65 
          129 96 
          53 60 
          53 59 
          63 56 
          63 61 
          128 97 
          128 90 
          50 49 
          50 49 
          58 55 
          68 66 
          68 66 
          73 69 
          82 80 
          82 80 
          87 83 
          91 48 
          91 48 
          93 54 
          99 90 
          100 84 
          102 76 
          103 70 
          104 64 
          105 57 
          106 65 
          107 56 
          109 83 
          110 81 
          112 69 
          113 67 
          114 55 
          115 59 
          116 54 
          117 60 
          119 80 
          120 47 
          122 66 
          123 44 
          124 49 
          125 40 
          126 48 
          127 41 
          130 131 
          131 79 
          130 78 
          132 133 
          133 96 
          132 97 
          130 133 
          132 131 
          3 134 
          4 134 
          25 135 
          24 135 
          26 136 
          27 136 
          4 137 
          11 137 
          24 138 
          30 138 
          27 139 
          31 139 
          11 140 
          17 140 
          30 141 
          33 141 
          31 142 
          34 142 
          17 143 
          3 143 
          33 144 
          25 144 
          34 145 
          26 145 
          143 33 
          143 25 
          144 34 
          144 26 
          145 35 
          145 28 
          137 30 
          137 24 
          138 31 
          138 27 
          139 32 
          139 29 
          140 33 
          140 30 
          141 34 
          141 31 
          142 32 
          142 35 
          134 25 
          134 24 
          135 26 
          135 27 
          136 29 
          136 28 
          28 146 
          29 146 
          37 147 
          36 147 
          41 148 
          39 148 
          29 149 
          32 149 
          36 150 
          42 150 
          40 151 
          38 151 
          32 152 
          35 152 
          42 153 
          45 153 
          44 154 
          43 154 
          35 155 
          28 155 
          45 156 
          37 156 
          47 157 
          46 157 
          155 45 
          155 37 
          156 46 
          156 39 
          157 39 
          157 41 
          149 42 
          149 36 
          150 43 
          150 38 
          151 44 
          151 43 
          152 42 
          152 45 
          153 43 
          153 46 
          154 46 
          154 47 
          146 37 
          146 36 
          147 39 
          147 38 
          148 40 
          148 38 
        </DataArray>
        <DataArray type="Int64" Name="offsets" format="ascii">
          2
          4
          6
          8
          10
          12
          14
          16
          18
          20
          22
          24
          26
          28
          30
          32
          34
          36
          38
          40
          42
          44
          46
          48
          50
          52
          54
          56
          58
          60
          62
          64
          66
          68
          70
          72
          74
          76
          78
          80
          82
          84
          86
          88
          90
          92
          94
          96
          98
          100
          102
          104
          106
          108
          110
          112
          114
          116
          118
          120
          122
          124
          126
          128
          130
          132
          134
          136
          138
          140
          142
          144
          146
          148
          150
          152
          154
          156
          158
          160
          162
          164
          166
          168
          170
          172
          174
          176
          178
          180
          182
          184
          186
          188
          190
          192
          194
          196
          198
          200
          202
          204
          206
          208
          210
          212
          214
          216
          218
          220
          222
          224
          226
          228
          230
          232
          234
          236
          238
          240
          242
          244
          246
          248
          250
          252
          254
          256
          258
          260
          262
          264
          266
          268
          270
          272
          274
          276
          278
          280
          282
          284
          286
          288
          290
          292
          294
          296
          298
          300
          302
          304
          306
          308
          310
          312
          314
          316
          318
          320
          322
          324
          326
          328
          330
          332
          334
          336
          338
          340
          342
          344
          346
          348
          350
          352
          354
          356
          358
          360
          362
          364
          366
          368
          370
          372
          374
          376
          378
          380
          382
          384
          386
          388
          390
          392
          394
          396
          398
          400
          402
          404
          406
          408
          410
          412
          414
          416
          418
          420
          422
          424
          426
          428
          430
          432
          434
          436
          438
          440
          442
          444
          446
          448
          450
          452
          454
          456
          458
          460
          462
          464
          466
          468
          470
          472
          474
          476
          478
          480
          482
          484
          486
          488
          490
          492
          494
          496
          498
          500
          502
          504
          506
          508
          510
          512
          514
          516
          518
          520
          522
          524
          526
          528
          530
          532
          534
          536
          538
          540
          542
          544
          546
          548
          550
          552
          554
          556
          558
          560
          562
          564
          566
          568
          570
          572
          574
          576
          578
          580
          582
          584
          586
          588
          590
          592
          594
          596
          598
          600
          602
          604
          606
          608
          610
          612
          614
          616
          618
          620
          622
          624
          626
          628
          630
          632
          634
          636
          638
          640
          642
          644
          646
          648
          650
          652
          654
          656
          658
          660
          662
          664
          666
          668
          670
          672
          674
          676
          678
          680
          682
          684
          686
          688
          690
          692
          694
          696
          698
          700
          702
          704
          706
          708
          710
          712
          714
          716
          718
          720
          722
          724
          726
          728
          730
          732
          734
          736
          738
          740
          742
          744
          746
          748
          750
          752
          754
          756
          758
          760
          762
          764
          766
          768
          770
          772
          774
          776
          778
          780
          782
          784
          786
          788
          790
          792
          794
          796
          798
          800
          802
          804
          806
          808
          810
          812
          814
          816
          818
          820
          822
          824
          826
          828
          830
          832
          834
          836
          838
          840
          842
          844
        </DataArray>
        <DataArray type="Int64" Name="types" format="ascii">
          3
          3
          3
          3
          3
          3
          3
          3
          3
          3
          3
          3
          3
          3
          3
          3
          3
          3
          3
          3
          3
          3
          3
          3
          3
          3
          3
          3
          3
          3
          3
          3
          3
          3
          3
          3
          3
          3
          3
          3
          3
          3
          3
          3
          3
          3
          3
          3
          3
          3
          3
          3
          3
          3
          3
          3
          3
          3
          3
          3
          3
          3
          3
          3
          3
          3
          3
          3
          3
          3
          3
          3
          3
          3
          3
          3
          3
          3
          3
          3
          3
          3
          3
          3
          3
          3
          3
          3
          3
          3
          3
          3
          3
          3
          3
          3
          3
          3
          3
          3
          3
          3
          3
          3
          3
          3
          3
          3
          3
          3
          3
          3
          3
          3
          3
          3
          3
          3
          3
          3
          3
          3
          3
          3
          3
          3
          3
          3
          3
          3
          3
          3
          3
          3
          3
          3
          3
          3
          3
          3
          3
          3
          3
          3
          3
          3
          3
          3
          3
          3
          3
          3
          3
          3
          3
          3
          3
          3
          3
          3
          3
          3
          3
          3
          3
          3
          3
          3
          3
          3
          3
          3
          3
          3
          3
          3
          3
          3
          3
          3
          3
          3
          3
          3
          3
          3
          3
          3
          3
          3
          3
          3
          3
          3
          3
          3
          3
          3
          3
          3
          3
          3
          3
          3
          3
          3
          3
          3
          3
          3
          3
          3
          3
          3
          3
          3
          3
          3
          3
          3
          3
          3
          3
          3
          3
          3
          3
          3
          3
          3
          3
          3
          3
          3
          3
          3
          3
          3
          3
          3
          3
          3
          3
          3
          3
          3
          3
          3
          3
          3
          3
          3
          3
          3
          3
          3
          3
          3
          3
          3
          3
          3
          3
          3
          3
          3
          3
          3
          3
          3
          3
          3
          3
          3
          3
          3
          3
          3
          3
          3
          3
          3
          3
          3
          3
          3
          3
          3
          3
          3
          3
          3
          3
          3
          3
          3
          3
          3
          3
          3
          3
          3
          3
          3
          3
          3
          3
          3
          3
          3
          3
          3
          3
          3
          3
          3
          3
          3
          3
          3
          3
          3
          3
          3
          3
          3
          3
          3
          3
          3
          3
          3
          3
          3
          3
          3
          3
          3
          3
          3
          3
          3
          3
          3
          3
          3
          3
          3
          3
          3
          3
          3
          3
          3
          3
          3
          3
          3
          3
          3
          3
          3
          3
          3
          3
          3
          3
          3
          3
          3
          3
          3
          3
          3
          3
          3
          3
          3
          3
          3
          3
          3
          3
          3
          3
          3
          3
          3
          3
          3
          3
          3
          3
          3
          3
          3
          3
          3
          3
          3
          3
          3
          3
          3
          3
          3
          3
          3
          3
          3
          3
          3
          3
          3
          3
          3
          3
          3
          3
          3
          3
          3
        </DataArray>
      </Cells>
      <PointData>
        <DataArray type="Int64" Name="NodeTag" format="ascii">
          1
          2
          3
          4
          5
          6
          7
          8
          9
          10
          11
          12
          13
          14
          15
          16
          17
          18
          19
          20
          21
          22
          23
          24
          25
          26
          27
          28
          29
          30
          31
          32
          33
          34
          35
          36
          37
          38
          39
          40
          41
          42
          43
          44
          45
          46
          47
          48
          49
          50
          51
          52
          53
          54
          55
          56
          57
          58
          59
          60
          61
          62
          63
          64
          65
          66
          67
          68
          69
          70
          71
          72
          73
          74
          75
          76
          77
          78
          79
          80
          81
          82
          83
          84
          85
          86
          87
          88
          89
          90
          91
          92
          93
          94
          95
          96
          97
          98
          99
          100
          101
          102
          103
          104
          105
          106
          107
          108
          109
          110
          111
          112
          113
          114
          115
          116
          117
          118
          119
          120
          121
          122
          123
          124
          125
          126
          127
          128
          129
          130
          131
          132
          133
          134
          135
          136
          137
          138
          139
          140
          141
          142
          143
          144
          145
          146
          147
          148
          149
          150
          151
          152
          153
          154
          155
          156
          157
          158
        </DataArray>
        <DataArray type="Float64" Name="Displacement" NumberOfComponents="3" format="ascii">
          0.0000000000e+00 0.0000000000e+00 0.0000000000e+00 
          -5.1730469403e-07 5.4484096495e-05 -3.3682794317e-07 
          0.0000000000e+00 0.0000000000e+00 0.0000000000e+00 
          5.1877953416e-05 5.5960273650e-05 8.8660314858e-07 
          -5.1952584749e-05 5.5925249228e-05 -4.7254373566e-06 
          -3.0049767133e-06 3.5180194285e-05 2.4903371632e-06 
          -2.6349166913e-06 4.1582675154e-05 -5.4383073862e-06 
          -4.8910434256e-05 3.5154918912e-05 -3.4436056744e-06 
          4.2425606788e-05 4.1556274117e-05 5.7990145415e-07 
          -5.0565439941e-05 -4.6973214744e-07 -3.2289036588e-07 
          0.0000000000e+00 0.0000000000e+00 0.0000000000e+00 
          -5.1915510989e-05 -5.5898757248e-05 8.9405176318e-07 
          -4.2497928555e-05 3.3663550488e-06 6.1785539655e-06 
          -4.8960644532e-05 -8.9751126360e-06 -9.1187152963e-06 
          -4.2448632802e-05 -4.1530935073e-05 5.8332585001e-07 
          4.6228494082e-07 -5.4423348002e-05 -3.2150980759e-07 
          0.0000000000e+00 0.0000000000e+00 0.0000000000e+00 
          5.1914352369e-05 -5.5861361238e-05 -4.6993603465e-06 
          2.9274730670e-06 -3.5139909793e-05 2.5108175468e-06 
          2.6229585927e-06 -4.1556903475e-05 -5.4302616490e-06 
          4.8824021392e-05 -3.5114714422e-05 -3.4264317578e-06 
          5.0528318092e-05 5.1679032637e-07 -3.2767686684e-07 
          4.2474617987e-05 -3.3713457453e-06 6.1749392643e-06 
          4.8874284831e-05 8.9309463107e-06 -9.0944509964e-06 
          -7.5072320914e-05 9.3563711391e-05 -5.9731253115e-06 
          7.5924009386e-05 9.2694875528e-05 9.8691589534e-07 
          9.4540597985e-05 1.2883284291e-04 4.4715160715e-07 
          -9.4478050677e-05 1.2880747716e-04 -6.5619717520e-06 
          1.0930349709e-04 1.6110082458e-04 -4.4178752413e-07 
          -1.0865300426e-04 1.6161948262e-04 -6.3896772903e-06 
          -7.5926750044e-05 -9.2583761881e-05 1.0050399153e-06 
          -9.4462274246e-05 -1.2866859456e-04 4.7519058000e-07 
          -1.0913329835e-04 -1.6090515819e-04 -4.0787868215e-07 
          7.5078037053e-05 -9.3436360237e-05 -5.9343280202e-06 
          9.4548406265e-05 -1.2863701780e-04 -6.5176360928e-06 
          1.0883000171e-04 -1.6142025114e-04 -6.3493350577e-06 
          -1.1979117290e-04 1.9039210028e-04 -5.9022873757e-06 
          1.2018028735e-04 1.9032238541e-04 -1.7999460505e-06 
          -1.2794548083e-04 2.1537988789e-04 -4.7923768820e-06 
          1.2869301187e-04 2.1490798137e-04 -3.5266286158e-06 
          -1.3468579130e-04 2.3487818602e-04 -3.2976784056e-06 
          1.3514141499e-04 2.3499062998e-04 -5.6056934643e-06 
          -1.1988335155e-04 -1.9011432215e-04 -1.7661545446e-06 
          -1.2832872516e-04 -2.1469878648e-04 -3.4994995824e-06 
          -1.3463252307e-04 -2.3478093729e-04 -5.5956849615e-06 
          1.2006107815e-04 -1.9018576238e-04 -5.8725336346e-06 
          1.2835437653e-04 -2.1517619680e-04 -4.7835304666e-06 
          1.3508766390e-04 -2.3470458478e-04 -3.3118376186e-06 
          1.5443664491e-04 2.4595976177e-04 -6.8573693072e-06 
          -1.5408134761e-04 2.4601996086e-04 -2.6151604026e-06 
          8.9986663403e-07 2.4669258773e-04 -4.6354688413e-06 
          -1.7867286831e-04 2.6719504799e-04 -2.7084900502e-06 
          1.7988136788e-04 2.6662925470e-04 -7.3013553123e-06 
          -2.7672398972e-06 2.7297328500e-04 -5.4267062548e-06 
          2.1322134516e-04 2.8228746595e-04 -1.0309128930e-05 
          -2.1359057969e-04 2.8235468045e-04 -9.1035145970e-07 
          2.5009015604e-04 2.8728420183e-04 -1.2511884832e-05 
          -2.5092951588e-04 2.8712871515e-04 5.3196526725e-07 
          1.0072193986e-06 2.8266436230e-04 -5.5233620401e-06 
          -1.9709281961e-04 2.7799012302e-04 -1.7352383786e-06 
          1.9705385605e-04 2.7802061149e-04 -9.1102513404e-06 
          2.3445919407e-04 2.8781281087e-04 -1.1289467456e-05 
          -2.3463762431e-04 2.8826387919e-04 -2.3752283320e-07 
          -1.1961837705e-06 2.8799102011e-04 -6.0890252535e-06 
          -2.6510765993e-04 2.8271301545e-04 1.5432624399e-06 
          2.6414516463e-04 2.8280171630e-04 -1.3692867471e-05 
          -1.5399221534e-04 -2.4585923438e-04 -6.8958176485e-06 
          -1.9700106719e-04 -2.7812537850e-04 -9.1978178716e-06 
          -1.5404898360e-04 -3.5827606444e-07 -4.6217801125e-06 
          -2.1344811987e-04 -2.8244880063e-04 -1.0386498265e-05 
          -2.5077639291e-04 -2.8765342657e-04 -1.2549172332e-05 
          -1.7943585858e-04 -2.6624360207e-04 -7.3689036969e-06 
          -1.8758259042e-04 1.5544214508e-07 -5.5549367960e-06 
          -2.1344150386e-04 -1.0062512356e-06 -5.5558473753e-06 
          -2.3506069501e-04 -2.8810900204e-04 -1.1354411757e-05 
          -2.4253608910e-04 -4.7802228658e-08 -6.1123998402e-06 
          -2.6505695211e-04 -2.8323818956e-04 -1.3712665156e-05 
          -1.8851333427e-04 7.5790743273e-06 -4.0160993284e-06 
          -1.4973322991e-04 1.4394459342e-04 -2.4142051211e-06 
          -1.4965806864e-04 -1.4470917435e-04 -9.8901621796e-06 
          1.5452373923e-04 -2.4590376738e-04 -2.7032757767e-06 
          1.9708688251e-04 -2.7794724897e-04 -2.0125473816e-06 
          1.0982866867e-07 -2.4657013947e-04 -4.6105698825e-06 
          2.1329328379e-04 -2.8249385057e-04 -1.1601941890e-06 
          2.5010228793e-04 -2.8754794991e-04 3.2263611167e-07 
          1.7888265240e-04 -2.6732167549e-04 -2.8760116860e-06 
          5.0937402533e-07 -2.7291051824e-04 -5.7998099267e-06 
          3.0909187530e-07 -2.8281592071e-04 -5.6682201494e-06 
          2.3417729309e-04 -2.8851967304e-04 -4.7070734059e-07 
          -5.2424452600e-07 -2.8832537538e-04 -6.1929423511e-06 
          2.6415145386e-04 -2.8333515796e-04 1.3176824155e-06 
          1.5449833239e-04 5.7125397112e-07 -4.6369161995e-06 
          1.8778247987e-04 -4.3004450986e-06 -5.6828472700e-06 
          2.1318146782e-04 -8.6808491254e-08 -5.6836987936e-06 
          2.4188352531e-04 -1.5228577119e-06 -6.0992530917e-06 
          1.8754726885e-04 -8.4347810071e-06 -4.0545817445e-06 
          1.4850048199e-04 1.4401047974e-04 -9.8318621332e-06 
          1.4861596875e-04 -1.4467234827e-04 -2.5950866121e-06 
          1.2298111057e-03 1.2608128019e-07 -7.2567317979e-06 
          7.7789963753e-04 -1.3339348562e-04 -1.2661218607e-06 
          7.6871020233e-04 -1.3573653997e-04 -1.2913864688e-06 
          -1.2303424461e-03 -4.3270324404e-07 -6.6470907290e-06 
          -7.6702060136e-04 -1.3684031335e-04 -1.1569562296e-05 
          -7.5880060030e-04 -1.3912252055e-04 -1.1553154332e-05 
          -7.6703526867e-04 1.3632009742e-04 -9.4160027885e-07 
          -7.5883792277e-04 1.3845115775e-04 -9.6940080022e-07 
          7.7788138075e-04 1.3303826902e-04 -1.1817368310e-05 
          7.6866192116e-04 1.3574108754e-04 -1.1804999394e-05 
          1.1605785813e-03 2.9720783482e-07 -6.8921342294e-06 
          6.9856179301e-04 -1.3476309851e-04 -1.2076626318e-05 
          7.0593344358e-04 -1.3125851414e-04 -1.2100443117e-05 
          -1.1607737512e-03 -2.5845468279e-07 -6.3868284670e-06 
          -7.0388675981e-04 -1.3330223406e-04 2.2198031926e-09 
          -7.1128338869e-04 -1.3008372892e-04 1.3746435806e-08 
          -7.0392599488e-04 1.3320920766e-04 -1.1720983211e-05 
          -7.1131351307e-04 1.2975548386e-04 -1.1744845029e-05 
          6.9852003130e-04 1.3470277072e-04 -1.0960524234e-07 
          7.0587524451e-04 1.3161721096e-04 -9.8403682372e-08 
          9.6362727319e-04 3.7492528357e-07 -5.9581193719e-06 
          5.3596101497e-04 -1.2353953202e-04 -2.0276652014e-05 
          5.5472770725e-04 -1.1593144931e-04 -2.0307376704e-05 
          -9.6299431006e-04 -1.1829305644e-07 -5.5930526844e-06 
          -5.3132250471e-04 -1.2464052372e-04 1.0172787011e-05 
          -5.4951500782e-04 -1.1757329294e-04 1.0187530802e-05 
          -5.3135826479e-04 1.2488880747e-04 -2.0079712543e-05 
          -5.4953405127e-04 1.1751780728e-04 -2.0108670471e-05 
          5.3593175980e-04 1.2360754305e-04 1.0112211194e-05 
          5.5470479701e-04 1.1645610849e-04 1.0129154740e-05 
          -3.4781571194e-06 -1.9414566973e-04 -5.4614783340e-06 
          -1.9721038562e-05 1.9348370475e-04 -1.1327961756e-05 
          -1.4088882656e-04 1.1062471964e-04 -6.2333125916e-06 
          -1.4061078062e-04 -1.1183272333e-04 -6.2469420176e-06 
          1.3689422739e-04 -1.1148478952e-04 -5.6462398948e-06 
          1.3661618864e-04 1.1096548360e-04 -6.8596083494e-06 
          -1.0512915346e-06 7.5881579421e-05 -2.0434158368e-06 
          -1.0519693167e-06 1.1245133903e-04 -3.1710447169e-06 
          -7.1882499404e-07 1.4660776583e-04 -3.1483351541e-06 
          -6.5886342880e-05 -1.0100697429e-06 -2.0417238406e-06 
          -8.6834538851e-05 -9.5993996711e-07 -3.1482590963e-06 
          -1.0314175182e-04 -4.3106043684e-07 -3.1301745330e-06 
          9.9163929647e-07 -7.5789941341e-05 -2.0224082798e-06 
          9.5237670499e-07 -1.1230579677e-04 -3.1266829227e-06 
          5.9536790655e-07 -1.4642272296e-04 -3.0947257893e-06 
          6.5863061932e-05 1.0625958613e-06 -2.0322781149e-06 
          8.6869582160e-05 1.0883365740e-06 -3.1328683851e-06 
          1.0326601431e-04 6.2796787965e-07 -3.1301411151e-06 
          -7.9861868690e-07 1.7740974344e-04 -3.8624662322e-06 
          -1.7431392147e-06 2.0448599760e-04 -4.0236782386e-06 
          -2.8339425884e-06 2.2691085418e-04 -4.7024600056e-06 
          -1.1553974440e-04 1.6234644698e-07 -3.7606141807e-06 
          -1.2496405918e-04 6.9577817998e-07 -3.8783445526e-06 
          -1.3214575405e-04 4.9966829030e-07 -4.4206062243e-06 
          5.8657263403e-07 -1.7720442130e-04 -3.7976580700e-06 
          1.0617572435e-06 -2.0427720485e-04 -3.9308853208e-06 
          2.5684918859e-07 -2.2670904610e-04 -4.4902218361e-06 
          1.1577164341e-04 -1.1788468556e-07 -3.7388896865e-06 
          1.2530643663e-04 -1.4733702462e-06 -3.8423511662e-06 
          1.3257880628e-04 -3.8748042096e-06 -4.1509747271e-06 
        </DataArray>
        <DataArray type="Float64" Name="Reaction" NumberOfComponents="3" format="ascii">
          -4.5973325924e+02 -5.0189717224e+02 -1.6527253106e+02 
          1.6992965272e-01 -7.4640118751e+00 4.8426617012e-03 
          4.0986874417e+02 -5.5221400371e+02 8.3626722710e+02 
          -4.5851610069e+00 -1.2237209916e+01 5.3968218369e-02 
          4.7685053105e+00 -1.1782982857e+01 6.0326683248e-02 
          1.0630553421e+01 -6.8950316452e+00 -2.7349208181e-02 
          -1.4547163533e+01 -7.4790478002e+00 -2.9091873302e-02 
          7.0816378399e+00 -4.5033938349e+00 6.6213902477e-02 
          -5.1490877277e+00 -6.5618683779e+00 6.6653544203e-02 
          2.8337601605e+00 2.0180065042e-01 -4.1409268356e-04 
          4.6001869053e+02 5.0174998510e+02 -1.6432021557e+02 
          4.2436497763e+00 1.2241741472e+01 5.3927263469e-02 
          7.7731951071e+00 7.6494423972e+00 -2.9468121247e-02 
          8.1512073450e+00 -1.1800848352e+01 -3.6582016347e-02 
          5.1973872610e+00 6.3806860223e+00 6.6598740713e-02 
          -2.6682354190e-01 7.4664610553e+00 4.8462327652e-03 
          -4.0969681101e+02 5.5154315963e+02 8.3094996873e+02 
          -5.1152051141e+00 1.1792697102e+01 6.0146099958e-02 
          -1.0669028638e+01 6.8805121663e+00 -2.7478492229e-02 
          1.4733039457e+01 7.2384630397e+00 -2.9131133923e-02 
          -7.1880092975e+00 4.4939136335e+00 6.6015557264e-02 
          -3.0449570305e+00 -2.4920404300e-01 -4.3115612339e-04 
          -7.7131016179e+00 -7.8255366368e+00 -2.9636848313e-02 
          -8.2970605640e+00 1.1705221393e+01 -3.6438975991e-02 
          -2.7256550931e+00 -2.3046466826e+00 1.6857253006e-03 
          3.1024834900e+00 -2.9289069054e+00 4.5617790953e-04 
          5.9024954153e+00 -6.1590037506e-01 3.2200731773e-03 
          -5.6349847437e+00 -2.7124822053e-01 2.8600367809e-03 
          5.3053907714e+00 6.7568732881e-02 6.7256176958e-03 
          -4.6711913923e+00 6.6299845553e-01 9.8545591440e-03 
          -3.3824694378e+00 3.0561815429e+00 3.9372967239e-04 
          -6.2438801574e+00 8.2190173228e-01 3.0484026020e-03 
          -5.5169971684e+00 1.3419326599e-01 6.8645925311e-03 
          2.4430021446e+00 2.4360179962e+00 1.5017529495e-03 
          5.2940624747e+00 5.0128365373e-01 2.8517091524e-03 
          4.3697113203e+00 -4.3705598773e-01 1.0152161118e-02 
          -2.0229047273e+00 5.6112338258e-01 2.8960939994e-03 
          3.6544771393e+00 -1.7321257425e-01 2.4773308800e-03 
          -9.3470635769e-01 3.7328122875e-01 -4.4808106819e-03 
          2.5252979408e+00 -1.3772455401e-01 3.1229527402e-02 
          -3.4281093255e+00 7.4141568428e-01 -8.4765506632e-01 
          1.3172465438e+01 8.4249690430e+00 -9.1293741419e-01 
          -3.7959410245e+00 3.0166066063e-01 1.3031273651e-03 
          -2.2621860290e+00 1.0950322110e-01 6.4598455657e-03 
          -1.2884241033e+01 -8.5598290978e+00 -8.6779363009e-01 
          2.0080857195e+00 -4.2844092899e-01 3.0283468805e-03 
          8.5476793284e-01 -4.0998196466e-01 -1.6699237854e-02 
          4.5046610786e+00 -9.3331390420e-01 -8.3719099634e-01 
          8.0570254122e+00 2.4271607799e+00 7.4646871659e-01 
          1.8761210801e+00 1.3549450808e+00 7.4167411260e-01 
          -1.6996445204e+00 2.6374591651e+00 -1.9406036881e-01 
          -2.4410245334e+00 2.5633330277e+00 -4.2680152716e-01 
          6.2916455162e+00 -8.4823086951e-01 -2.8296317711e-01 
          3.1586467919e+00 4.9273829277e-01 -1.5611296935e-01 
          1.1940492879e+01 2.0918382964e+00 1.1426968772e+00 
          -4.7823106522e+00 -1.0510990612e+00 1.1449259067e+00 
          2.1848521332e+01 2.9894303069e+00 -1.4268447419e+00 
          -8.4560804435e+00 -6.9933404448e+00 -1.3956545663e+00 
          -3.4370594564e-01 2.3219469637e-01 -1.1787555767e-01 
          -8.6201328844e+00 -2.8486569502e+00 -7.9275880358e-01 
          2.1853554822e+01 7.6028036197e+00 -9.4357311143e-01 
          1.0469985317e+01 -4.8486981949e+00 -4.7221054288e-01 
          -6.2716150731e+00 -2.0941020274e+00 -5.1657330495e-01 
          -3.3296247452e-02 -1.6912130969e+00 -9.9887557314e-02 
          6.6391076516e+00 3.5966227433e+00 1.0137821134e+00 
          -2.0077890679e+00 2.5438837224e+00 1.5364464584e+00 
          -7.5907624112e+00 -2.3658292931e+00 7.4145344307e-01 
          -2.2011872233e+01 -7.8279597493e+00 -8.5661840458e-01 
          -3.7213779985e+00 9.6201088973e-01 -1.4207908568e-01 
          -1.1875556294e+01 -2.3323475654e+00 1.1447292212e+00 
          -2.5818382052e+01 -3.0053321746e+00 -1.4089141054e+00 
          -6.7041166257e+00 -2.0096961522e-01 -3.7493915431e-01 
          -3.5688685034e+00 8.1621567237e-01 -1.4439213417e-01 
          -1.0590814577e+01 1.0884733602e+00 2.8490492483e-02 
          -1.0612626185e+01 5.0797531068e+00 -4.7399823807e-01 
          -5.2399552545e+00 1.9605265337e-01 -5.2413140379e-02 
          -6.5569005137e+00 -2.6773755930e+00 1.3778173909e+00 
          5.2480962295e+00 -9.7396353059e+00 -5.5487370380e-01 
          1.4653987407e+01 9.7384546923e+00 1.8599807925e+00 
          1.2691473750e+01 -6.9768129311e+00 1.1554332011e+00 
          -1.4103329599e+00 -1.3803632839e+00 7.4669607756e-01 
          8.8985077948e+00 1.8381531884e+00 -7.7451322684e-01 
          -5.1733477433e-01 -2.5581101635e+00 -1.9433384760e-01 
          5.0382602379e+00 8.4005200054e-01 1.1429771003e+00 
          5.4690077237e+00 6.5976181329e+00 -1.3740797573e+00 
          2.7079378732e+00 -2.4814344005e+00 -4.5410416036e-01 
          4.6611081139e-01 -9.3493440660e-01 -1.5544170651e-01 
          2.5219213338e-01 -4.6498238009e-01 -1.1794776094e-01 
          5.5944684013e+00 1.4412178928e+00 -5.3220477608e-01 
          -5.2359739825e-01 1.6380502914e+00 -1.0000376208e-01 
          -1.4817012859e+01 -3.1208191796e+00 1.1933253967e+00 
          4.2508581951e+00 -1.1904980780e+00 -1.4200851177e-01 
          3.9510412580e+00 3.6601638192e+00 -1.4350963604e-01 
          1.0958135386e+01 -1.6248124189e-01 2.9225790747e-02 
          4.8929812451e+00 1.0941262901e+00 -5.2959364494e-02 
          -9.1959145336e+00 1.0131721458e+01 -5.5720089175e-01 
          -1.7995774653e+01 7.2449757255e+00 9.5692363328e-01 
          -2.0186495916e+01 -9.3268183928e+00 1.5839408165e+00 
          1.9176443145e+01 -5.3731224456e+00 -9.4768655546e-01 
          7.6614821799e-01 -8.0397648919e+00 4.9902068624e-01 
          5.7937216874e+00 -2.9378536623e+00 -4.6141491177e-03 
          -2.0003296727e+01 5.0934406805e+00 -9.5532768545e-01 
          1.1551075245e+00 2.9405472600e+00 4.9881057306e-01 
          -4.0051138912e+00 1.8384256498e+00 -1.8027596316e-03 
          6.6025598384e-01 8.8580772495e+00 4.9884598033e-01 
          -2.7693412733e+00 3.7234706300e+00 -1.7657492002e-03 
          2.4176658664e-01 -4.0549752030e+00 4.9906062225e-01 
          6.9305977559e+00 -3.2084520784e+00 -4.6091918832e-03 
          2.4235278981e+01 -5.9189219314e+00 -1.0096667619e+00 
          2.8482747754e+00 -8.7229092140e+00 5.4998752027e-01 
          -8.4736015213e-01 -5.5711066455e+00 -1.4308694026e-03 
          -2.3757476563e+01 5.4033519994e+00 -1.0039476689e+00 
          -4.3716137400e+00 1.2921869443e+00 5.4917716970e-01 
          -1.2522185091e+00 -1.0840379101e+00 -1.0732251288e-03 
          -3.9435893635e+00 7.9846632953e+00 5.4947650242e-01 
          5.4304583514e-01 5.0910254561e+00 -1.1506161330e-03 
          3.3101945645e+00 -1.1205929509e+00 5.4981665125e-01 
          1.0198328123e+00 9.6991230727e-01 -1.3001269982e-03 
          1.6826560622e+01 -5.4156528138e+00 -9.4090290837e-01 
          -1.1983487232e+00 -6.4933146822e+00 5.2653577829e-01 
          -5.6765329466e+00 -4.9903680183e+00 -8.0212009658e-03 
          -1.6459402952e+01 5.1844939685e+00 -9.4718144056e-01 
          1.0550146065e+00 -1.0517723927e+00 5.3120254067e-01 
          3.7084865937e+00 -2.5481247200e+00 -9.1765926902e-03 
          2.4750749065e+00 6.6475296114e+00 5.3165075026e-01 
          5.7610749254e+00 4.7957022710e+00 -9.4383935093e-03 
          1.6349377971e-01 7.4697836477e-01 5.2621380808e-01 
          -3.6206402206e+00 2.4691266972e+00 -7.7178021450e-03 
          5.2001971904e+00 -2.2507330472e+00 3.7826982682e-01 
          2.4000875187e+01 1.6235620747e+00 3.1673580687e-01 
          9.4392068813e+01 -1.4356802308e+01 5.4778405180e-01 
          2.6381707295e+01 8.2700774545e+01 5.3994304738e-01 
          -9.4654129228e+01 1.4387758626e+01 5.0326913659e-01 
          -2.6704801467e+01 -8.2665272817e+01 4.9807153827e-01 
          -6.3642326103e-02 -7.7744223274e-01 -2.1587572834e-02 
          -5.1068837925e-02 -2.8063749223e-01 -2.8919883535e-02 
          -3.7071848034e-02 6.5692113501e-02 -3.5675857502e-02 
          -2.7856879013e-01 -5.3348302795e-02 -4.6173831032e-02 
          -1.1915119098e+00 -2.5721503468e-02 -8.2587067061e-02 
          -1.4389944673e+00 -6.6117679477e-04 -1.2668211430e-01 
          6.0240770310e-02 7.9629095702e-01 -2.1573313743e-02 
          2.9357725551e-02 3.2636268379e-01 -2.8934870359e-02 
          -1.4005630845e-02 -6.1885838725e-03 -3.5621529927e-02 
          2.2656411684e-01 4.7421318323e-02 -4.6147545977e-02 
          1.1148593037e+00 2.2055131435e-02 -8.2612364367e-02 
          1.3646316243e+00 1.3156141753e-02 -1.2666875192e-01 
          -6.4732045958e-02 1.4622387453e-01 -4.4726679851e-02 
          -3.9292086718e-01 1.3278246096e-01 -5.8144735470e-02 
          2.8535097858e-01 5.6087043062e-01 -8.1023307833e-02 
          -1.1131940045e+00 3.5967316520e-02 -1.7969137449e-01 
          -6.5779874559e-01 2.0781395945e-01 -2.4144227946e-01 
          -1.1100845995e+00 2.0743291260e-01 -3.1047921026e-01 
          -4.5752663482e-02 -9.2510808509e-02 -4.4784433355e-02 
          1.0727884115e-01 -1.1504095144e-01 -5.8051822458e-02 
          1.0942533027e-01 -6.1888875363e-01 -8.1046130789e-02 
          1.0697762740e+00 -4.0159646411e-02 -1.7981032814e-01 
          6.7251983370e-01 -4.3839409147e-01 -2.4141523446e-01 
          1.3248488571e+00 7.3666873587e-01 -3.1080582287e-01 
        </DataArray>
        <DataArray type="Float64" Name="UnbalancedLoad" NumberOfComponents="3" format="ascii">
          0.0000000000e+00 0.0000000000e+00 -2.8029544853e+01 
          0.0000000000e+00 0.0000000000e+00 -2.8721892446e+01 
          0.0000000000e+00 0.0000000000e+00 -2.8028453325e+01 
          0.0000000000e+00 0.0000000000e+00 -4.5256692242e+01 
          0.0000000000e+00 0.0000000000e+00 -4.5256002750e+01 
          0.0000000000e+00 0.0000000000e+00 -3.0622356550e+01 
          0.0000000000e+00 0.0000000000e+00 -3.0626483677e+01 
          0.0000000000e+00 0.0000000000e+00 -2.2912641603e+01 
          0.0000000000e+00 0.0000000000e+00 -2.2916079262e+01 
          0.0000000000e+00 0.0000000000e+00 -2.8720800892e+01 
          0.0000000000e+00 0.0000000000e+00 -2.8029544853e+01 
          0.0000000000e+00 0.0000000000e+00 -4.5256692242e+01 
          0.0000000000e+00 0.0000000000e+00 -3.0626483677e+01 
          0.0000000000e+00 0.0000000000e+00 -3.0626483677e+01 
          0.0000000000e+00 0.0000000000e+00 -2.2916079262e+01 
          0.0000000000e+00 0.0000000000e+00 -2.8720800892e+01 
          0.0000000000e+00 0.0000000000e+00 -2.8029544853e+01 
          0.0000000000e+00 0.0000000000e+00 -4.5256692242e+01 
          0.0000000000e+00 0.0000000000e+00 -3.0626483677e+01 
          0.0000000000e+00 0.0000000000e+00 -3.0626483677e+01 
          0.0000000000e+00 0.0000000000e+00 -2.2916079262e+01 
          0.0000000000e+00 0.0000000000e+00 -2.8720800892e+01 
          0.0000000000e+00 0.0000000000e+00 -3.0626483677e+01 
          0.0000000000e+00 0.0000000000e+00 -3.0626483677e+01 
          0.0000000000e+00 0.0000000000e+00 -1.5267192333e+01 
          0.0000000000e+00 0.0000000000e+00 -1.5267192333e+01 
          0.0000000000e+00 0.0000000000e+00 -1.3789544167e+01 
          0.0000000000e+00 0.0000000000e+00 -1.3789544167e+01 
          0.0000000000e+00 0.0000000000e+00 -1.1351467315e+01 
          0.0000000000e+00 0.0000000000e+00 -1.1351467315e+01 
          0.0000000000e+00 0.0000000000e+00 -1.5267192333e+01 
          0.0000000000e+00 0.0000000000e+00 -1.3789544167e+01 
          0.0000000000e+00 0.0000000000e+00 -1.1351467315e+01 
          0.0000000000e+00 0.0000000000e+00 -1.5267192333e+01 
          0.0000000000e+00 0.0000000000e+00 -1.3789544167e+01 
          0.0000000000e+00 0.0000000000e+00 -1.1351467315e+01 
          0.0000000000e+00 0.0000000000e+00 -9.1407028923e+00 
          0.0000000000e+00 0.0000000000e+00 -9.1407028923e+00 
          0.0000000000e+00 0.0000000000e+00 -8.2701824592e+00 
          0.0000000000e+00 0.0000000000e+00 -8.2701824592e+00 
          0.0000000000e+00 0.0000000000e+00 -1.1269628636e+01 
          0.0000000000e+00 0.0000000000e+00 -1.1269628636e+01 
          0.0000000000e+00 0.0000000000e+00 -9.1407028923e+00 
          0.0000000000e+00 0.0000000000e+00 -8.2701824592e+00 
          0.0000000000e+00 0.0000000000e+00 -1.1269628636e+01 
          0.0000000000e+00 0.0000000000e+00 -9.1407028923e+00 
          0.0000000000e+00 0.0000000000e+00 -8.2701824592e+00 
          0.0000000000e+00 0.0000000000e+00 -1.1269628636e+01 
          0.0000000000e+00 0.0000000000e+00 -5.1983085897e+00 
          0.0000000000e+00 0.0000000000e+00 -5.1983085897e+00 
          0.0000000000e+00 0.0000000000e+00 -6.4994804888e+00 
          0.0000000000e+00 0.0000000000e+00 -5.3334576083e+00 
          0.0000000000e+00 0.0000000000e+00 -5.3334576083e+00 
          0.0000000000e+00 0.0000000000e+00 -2.9649134944e+00 
          0.0000000000e+00 0.0000000000e+00 -3.9973456305e+00 
          0.0000000000e+00 0.0000000000e+00 -3.9973456305e+00 
          0.0000000000e+00 0.0000000000e+00 -1.0622217308e+01 
          0.0000000000e+00 0.0000000000e+00 -1.0622217308e+01 
          0.0000000000e+00 0.0000000000e+00 -5.2985175296e+00 
          0.0000000000e+00 0.0000000000e+00 -9.7318850156e+00 
          0.0000000000e+00 0.0000000000e+00 -9.7318850156e+00 
          0.0000000000e+00 0.0000000000e+00 -5.3334576083e+00 
          0.0000000000e+00 0.0000000000e+00 -5.3334576083e+00 
          0.0000000000e+00 0.0000000000e+00 -2.9649134944e+00 
          0.0000000000e+00 0.0000000000e+00 -1.0162502371e+01 
          0.0000000000e+00 0.0000000000e+00 -1.0162502371e+01 
          0.0000000000e+00 0.0000000000e+00 -5.1983085897e+00 
          0.0000000000e+00 0.0000000000e+00 -9.7318850156e+00 
          0.0000000000e+00 0.0000000000e+00 -6.4994804888e+00 
          0.0000000000e+00 0.0000000000e+00 -3.9973456305e+00 
          0.0000000000e+00 0.0000000000e+00 -1.0622217308e+01 
          0.0000000000e+00 0.0000000000e+00 -5.3334576083e+00 
          0.0000000000e+00 0.0000000000e+00 -2.9649134944e+00 
          0.0000000000e+00 0.0000000000e+00 -5.2985175296e+00 
          0.0000000000e+00 0.0000000000e+00 -5.3334576083e+00 
          0.0000000000e+00 0.0000000000e+00 -2.9649134944e+00 
          0.0000000000e+00 0.0000000000e+00 -1.0162502371e+01 
          0.0000000000e+00 0.0000000000e+00 -2.8206355250e+00 
          0.0000000000e+00 0.0000000000e+00 -3.4084499010e+00 
          0.0000000000e+00 0.0000000000e+00 -3.4084499010e+00 
          0.0000000000e+00 0.0000000000e+00 -5.1983085897e+00 
          0.0000000000e+00 0.0000000000e+00 -9.7318850156e+00 
          0.0000000000e+00 0.0000000000e+00 -6.4994804888e+00 
          0.0000000000e+00 0.0000000000e+00 -3.9973456305e+00 
          0.0000000000e+00 0.0000000000e+00 -1.0622217308e+01 
          0.0000000000e+00 0.0000000000e+00 -5.3334576083e+00 
          0.0000000000e+00 0.0000000000e+00 -2.9649134944e+00 
          0.0000000000e+00 0.0000000000e+00 -5.2985175296e+00 
          0.0000000000e+00 0.0000000000e+00 -5.3334576083e+00 
          0.0000000000e+00 0.0000000000e+00 -2.9649134944e+00 
          0.0000000000e+00 0.0000000000e+00 -1.0162502371e+01 
          0.0000000000e+00 0.0000000000e+00 -6.4994804888e+00 
          0.0000000000e+00 0.0000000000e+00 -2.9649134944e+00 
          0.0000000000e+00 0.0000000000e+00 -5.2985175296e+00 
          0.0000000000e+00 0.0000000000e+00 -2.9649134944e+00 
          0.0000000000e+00 0.0000000000e+00 -2.8206355250e+00 
          0.0000000000e+00 0.0000000000e+00 -3.4084499010e+00 
          0.0000000000e+00 0.0000000000e+00 -3.4084499010e+00 
          0.0000000000e+00 0.0000000000e+00 -4.4069752754e+00 
          0.0000000000e+00 0.0000000000e+00 -4.4070076755e+00 
          0.0000000000e+00 0.0000000000e+00 -3.1281952994e+00 
          0.0000000000e+00 0.0000000000e+00 -4.4069752754e+00 
          0.0000000000e+00 0.0000000000e+00 -4.4070076755e+00 
          0.0000000000e+00 0.0000000000e+00 -3.1281952994e+00 
          0.0000000000e+00 0.0000000000e+00 -4.4070076755e+00 
          0.0000000000e+00 0.0000000000e+00 -3.1281952994e+00 
          0.0000000000e+00 0.0000000000e+00 -4.4070076755e+00 
          0.0000000000e+00 0.0000000000e+00 -3.1281952994e+00 
          0.0000000000e+00 0.0000000000e+00 -4.4069752754e+00 
          0.0000000000e+00 0.0000000000e+00 -4.4070076755e+00 
          0.0000000000e+00 0.0000000000e+00 -3.1281952994e+00 
          0.0000000000e+00 0.0000000000e+00 -4.4069752754e+00 
          0.0000000000e+00 0.0000000000e+00 -4.4070076755e+00 
          0.0000000000e+00 0.0000000000e+00 -3.1281952994e+00 
          0.0000000000e+00 0.0000000000e+00 -4.4070076755e+00 
          0.0000000000e+00 0.0000000000e+00 -3.1281952994e+00 
          0.0000000000e+00 0.0000000000e+00 -4.4070076755e+00 
          0.0000000000e+00 0.0000000000e+00 -3.1281952994e+00 
          0.0000000000e+00 0.0000000000e+00 -4.4069752754e+00 
          0.0000000000e+00 0.0000000000e+00 -4.4070076755e+00 
          0.0000000000e+00 0.0000000000e+00 -3.1281952994e+00 
          0.0000000000e+00 0.0000000000e+00 -4.4069752754e+00 
          0.0000000000e+00 0.0000000000e+00 -4.4070076755e+00 
          0.0000000000e+00 0.0000000000e+00 -3.1281952994e+00 
          0.0000000000e+00 0.0000000000e+00 -4.4070076755e+00 
          0.0000000000e+00 0.0000000000e+00 -3.1281952994e+00 
          0.0000000000e+00 0.0000000000e+00 -4.4070076755e+00 
          0.0000000000e+00 0.0000000000e+00 -3.1281952994e+00 
          0.0000000000e+00 0.0000000000e+00 -2.8273555858e+00 
          0.0000000000e+00 0.0000000000e+00 -2.8273555858e+00 
          0.0000000000e+00 0.0000000000e+00 -7.7289173934e-01 
          0.0000000000e+00 0.0000000000e+00 -7.7289173934e-01 
          0.0000000000e+00 0.0000000000e+00 -7.7289173934e-01 
          0.0000000000e+00 0.0000000000e+00 -7.7289173934e-01 
          0.0000000000e+00 0.0000000000e+00 -3.7607089604e+00 
          0.0000000000e+00 0.0000000000e+00 -3.3970063818e+00 
          0.0000000000e+00 0.0000000000e+00 -3.0625580626e+00 
          0.0000000000e+00 0.0000000000e+00 -3.7607089604e+00 
          0.0000000000e+00 0.0000000000e+00 -3.3970063818e+00 
          0.0000000000e+00 0.0000000000e+00 -3.0625580626e+00 
          0.0000000000e+00 0.0000000000e+00 -3.7607089604e+00 
          0.0000000000e+00 0.0000000000e+00 -3.3970063818e+00 
          0.0000000000e+00 0.0000000000e+00 -3.0625580626e+00 
          0.0000000000e+00 0.0000000000e+00 -3.7607089604e+00 
          0.0000000000e+00 0.0000000000e+00 -3.3970063818e+00 
          0.0000000000e+00 0.0000000000e+00 -3.0625580626e+00 
          0.0000000000e+00 0.0000000000e+00 -2.7615380541e+00 
          0.0000000000e+00 0.0000000000e+00 -2.4854302098e+00 
          0.0000000000e+00 0.0000000000e+00 -2.2529271637e+00 
          0.0000000000e+00 0.0000000000e+00 -2.7615380541e+00 
          0.0000000000e+00 0.0000000000e+00 -2.4854302098e+00 
          0.0000000000e+00 0.0000000000e+00 -2.2529271637e+00 
          0.0000000000e+00 0.0000000000e+00 -2.7615380541e+00 
          0.0000000000e+00 0.0000000000e+00 -2.4854302098e+00 
          0.0000000000e+00 0.0000000000e+00 -2.2529271637e+00 
          0.0000000000e+00 0.0000000000e+00 -2.7615380541e+00 
          0.0000000000e+00 0.0000000000e+00 -2.4854302098e+00 
          0.0000000000e+00 0.0000000000e+00 -2.2529271637e+00 
        </DataArray>
      </PointData>
      <CellData>
        <DataArray type="Int64" Name="ElementTag" format="ascii">
          1
          2
          3
          4
          5
          6
          7
          8
          9
          10
          11
          12
          13
          14
          15
          16
          17
          18
          19
          20
          21
          22
          23
          24
          25
          26
          27
          28
          29
          30
          31
          32
          33
          34
          35
          36
          37
          38
          39
          40
          41
          42
          43
          44
          45
          46
          47
          48
          49
          50
          51
          52
          53
          54
          55
          56
          57
          58
          59
          60
          61
          62
          63
          64
          65
          66
          67
          68
          69
          70
          71
          72
          73
          74
          75
          76
          77
          78
          79
          80
          81
          82
          83
          84
          85
          86
          87
          88
          89
          90
          91
          92
          93
          94
          95
          96
          97
          98
          99
          100
          101
          102
          103
          104
          105
          106
          107
          108
          109
          110
          111
          112
          113
          114
          115
          116
          117
          118
          119
          120
          121
          122
          123
          124
          125
          126
          127
          128
          129
          130
          131
          132
          133
          134
          135
          136
          137
          138
          139
          140
          141
          142
          143
          144
          145
          146
          147
          148
          149
          150
          151
          152
          153
          154
          155
          156
          157
          158
          159
          160
          161
          162
          163
          164
          165
          166
          167
          168
          169
          170
          171
          172
          173
          174
          175
          176
          177
          178
          179
          180
          181
          182
          183
          184
          185
          186
          187
          188
          189
          190
          191
          192
          193
          194
          195
          196
          197
          198
          199
          200
          201
          202
          203
          204
          205
          206
          207
          208
          209
          210
          211
          212
          213
          214
          215
          216
          217
          218
          219
          220
          221
          222
          223
          224
          225
          226
          227
          228
          229
          230
          231
          232
          233
          234
          235
          236
          237
          238
          239
          240
          241
          242
          243
          244
          245
          246
          247
          248
          249
          250
          251
          252
          253
          254
          255
          256
          257
          258
          259
          260
          261
          262
          263
          264
          265
          266
          267
          268
          269
          270
          271
          272
          273
          274
          275
          276
          277
          278
          279
          280
          281
          282
          283
          284
          285
          286
          287
          288
          289
          290
          291
          292
          293
          294
          295
          296
          297
          298
          299
          300
          301
          302
          303
          304
          305
          306
          307
          308
          309
          310
          311
          312
          313
          314
          315
          316
          317
          318
          319
          320
          321
          322
          323
          324
          325
          326
          327
          328
          329
          330
          331
          332
          333
          334
          335
          336
          337
          338
          339
          340
          341
          342
          343
          344
          345
          346
          347
          348
          349
          350
          351
          352
          353
          354
          355
          356
          357
          358
          359
          360
          361
          362
          363
          364
          365
          366
          367
          368
          369
          370
          371
          372
          373
          374
          375
          376
          377
          378
          379
          380
          381
          382
          383
          384
          385
          386
          387
          388
          389
          390
          391
          392
          393
          394
          395
          396
          397
          398
          399
          400
          401
          402
          403
          404
          405
          406
          407
          408
          409
          410
          411
          412
          413
          414
          415
          416
          417
          418
          419
          420
          421
          422
        </DataArray>
      </CellData>
    </Piece>
  </UnstructuredGrid>
</VTKFile>
