<?xml version="1.0"?>
<VTKFile type="UnstructuredGrid" version="1.0" byte_order="LittleEndian" compressor="vtkZLibDataCompressor">
  <UnstructuredGrid>
    <Piece NumberOfPoints="158" NumberOfCells="422">
      <Points>
        <DataArray type="Float64" Name="Points" NumberOfComponents="3" format="ascii">
          1.7550000000e+00 -1.7550000000e+00 0.0000000000e+00 
          1.4140000000e+00 0.0000000000e+00 5.2300000000e+00 
          1.7550000000e+00 1.7550000000e+00 -0.0000000000e+00 
          1.4140000000e+00 -1.4140000000e+00 5.2300000000e+00 
          1.4140000000e+00 1.4140000000e+00 5.2300000000e+00 
          1.5840000000e+00 8.7800000000e-01 2.6150000000e+00 
          1.5840000000e+00 -8.7700000000e-01 2.6150000000e+00 
          1.5840000000e+00 1.5840000000e+00 2.6150000000e+00 
          1.5840000000e+00 -1.5840000000e+00 2.6150000000e+00 
          -0.0000000000e+00 1.4140000000e+00 5.2300000000e+00 
          -1.7550000000e+00 1.7550000000e+00 -0.0000000000e+00 
          -1.4140000000e+00 1.4140000000e+00 5.2300000000e+00 
          -8.7700000000e-01 1.5840000000e+00 2.6150000000e+00 
          8.7700000000e-01 1.5840000000e+00 2.6150000000e+00 
          -1.5840000000e+00 1.5840000000e+00 2.6150000000e+00 
          -1.4140000000e+00 -0.0000000000e+00 5.2300000000e+00 
          -1.7550000000e+00 -1.7550000000e+00 -0.0000000000e+00 
          -1.4140000000e+00 -1.4140000000e+00 5.2300000000e+00 
          -1.5840000000e+00 -8.7700000000e-01 2.6150000000e+00 
          -1.5840000000e+00 8.7700000000e-01 2.6150000000e+00 
          -1.5840000000e+00 -1.5840000000e+00 2.6150000000e+00 
          0.0000000000e+00 -1.4140000000e+00 5.2300000000e+00 
          8.7700000000e-01 -1.5840000000e+00 2.6150000000e+00 
          -8.7700000000e-01 -1.5840000000e+00 2.6150000000e+00 
          1.2750000000e+00 1.2750000000e+00 7.3500000000e+00 
          1.2750000000e+00 -1.2750000000e+00 7.3500000000e+00 
          1.1500000000e+00 -1.1500000000e+00 9.2700000000e+00 
          1.1500000000e+00 1.1500000000e+00 9.2700000000e+00 
          1.0370000000e+00 -1.0370000000e+00 1.1000000000e+01 
          1.0370000000e+00 1.0370000000e+00 1.1000000000e+01 
          -1.2750000000e+00 1.2750000000e+00 7.3500000000e+00 
          -1.1500000000e+00 1.1500000000e+00 9.2700000000e+00 
          -1.0370000000e+00 1.0370000000e+00 1.1000000000e+01 
          -1.2750000000e+00 -1.2750000000e+00 7.3500000000e+00 
          -1.1500000000e+00 -1.1500000000e+00 9.2700000000e+00 
          -1.0370000000e+00 -1.0370000000e+00 1.1000000000e+01 
          9.3500000000e-01 9.3500000000e-01 1.2560000000e+01 
          9.3500000000e-01 -9.3500000000e-01 1.2560000000e+01 
          8.4300000000e-01 8.4300000000e-01 1.3960000000e+01 
          8.4300000000e-01 -8.4300000000e-01 1.3960000000e+01 
          7.6000000000e-01 7.6000000000e-01 1.5240000000e+01 
          7.6000000000e-01 -7.6000000000e-01 1.5240000000e+01 
          -9.3500000000e-01 9.3500000000e-01 1.2560000000e+01 
          -8.4300000000e-01 8.4300000000e-01 1.3960000000e+01 
          -7.6000000000e-01 7.6000000000e-01 1.5240000000e+01 
          -9.3500000000e-01 -9.3500000000e-01 1.2560000000e+01 
          -8.4300000000e-01 -8.4300000000e-01 1.3960000000e+01 
          -7.6000000000e-01 -7.6000000000e-01 1.5240000000e+01 
          7.6000000000e-01 -7.6000000000e-01 1.6240000000e+01 
          7.6000000000e-01 7.6000000000e-01 1.6240000000e+01 
          7.6000000000e-01 0.0000000000e+00 1.6240000000e+01 
          7.6000000000e-01 7.6000000000e-01 1.7340000000e+01 
          7.6000000000e-01 -7.6000000000e-01 1.7340000000e+01 
          7.6000000000e-01 0.0000000000e+00 1.7890000000e+01 
          7.6000000000e-01 -7.6000000000e-01 1.9440000000e+01 
          7.6000000000e-01 7.6000000000e-01 1.9440000000e+01 
          7.6000000000e-01 -7.6000000000e-01 2.1640000000e+01 
          7.6000000000e-01 7.6000000000e-01 2.1640000000e+01 
          7.6000000000e-01 0.0000000000e+00 1.9440000000e+01 
          7.6000000000e-01 7.6000000000e-01 1.8440000000e+01 
          7.6000000000e-01 -7.6000000000e-01 1.8440000000e+01 
          7.6000000000e-01 -7.6000000000e-01 2.0540000000e+01 
          7.6000000000e-01 7.6000000000e-01 2.0540000000e+01 
          7.6000000000e-01 0.0000000000e+00 2.1090000000e+01 
          7.6000000000e-01 7.6000000000e-01 2.2640000000e+01 
          7.6000000000e-01 -7.6000000000e-01 2.2640000000e+01 
          -7.6000000000e-01 7.6000000000e-01 1.6240000000e+01 
          -7.6000000000e-01 7.6000000000e-01 1.8440000000e+01 
          -0.0000000000e+00 7.6000000000e-01 1.6240000000e+01 
          -7.6000000000e-01 7.6000000000e-01 1.9440000000e+01 
          -7.6000000000e-01 7.6000000000e-01 2.1640000000e+01 
          -7.6000000000e-01 7.6000000000e-01 1.7340000000e+01 
          -0.0000000000e+00 7.6000000000e-01 1.7890000000e+01 
          -0.0000000000e+00 7.6000000000e-01 1.9440000000e+01 
          -7.6000000000e-01 7.6000000000e-01 2.0540000000e+01 
          0.0000000000e+00 7.6000000000e-01 2.1090000000e+01 
          -7.6000000000e-01 7.6000000000e-01 2.2640000000e+01 
          -0.0000000000e+00 5.2600000000e-01 2.3499000000e+01 
          3.9900000000e-01 4.0400000000e-01 2.3950000000e+01 
          -3.9900000000e-01 4.0400000000e-01 2.3950000000e+01 
          -7.6000000000e-01 -7.6000000000e-01 1.6240000000e+01 
          -7.6000000000e-01 -7.6000000000e-01 1.8440000000e+01 
          -7.6000000000e-01 -0.0000000000e+00 1.6240000000e+01 
          -7.6000000000e-01 -7.6000000000e-01 1.9440000000e+01 
          -7.6000000000e-01 -7.6000000000e-01 2.1640000000e+01 
          -7.6000000000e-01 -7.6000000000e-01 1.7340000000e+01 
          -7.6000000000e-01 0.0000000000e+00 1.7890000000e+01 
          -7.6000000000e-01 -0.0000000000e+00 1.9440000000e+01 
          -7.6000000000e-01 -7.6000000000e-01 2.0540000000e+01 
          -7.6000000000e-01 -0.0000000000e+00 2.1090000000e+01 
          -7.6000000000e-01 -7.6000000000e-01 2.2640000000e+01 
          0.0000000000e+00 -7.6000000000e-01 1.6240000000e+01 
          0.0000000000e+00 -7.6000000000e-01 1.7890000000e+01 
          0.0000000000e+00 -7.6000000000e-01 1.9440000000e+01 
          0.0000000000e+00 -7.6000000000e-01 2.1090000000e+01 
          0.0000000000e+00 -5.2600000000e-01 2.3499000000e+01 
          3.9900000000e-01 -4.0400000000e-01 2.3950000000e+01 
          -3.9900000000e-01 -4.0400000000e-01 2.3950000000e+01 
          -0.0000000000e+00 -3.3500000000e+00 2.1640000000e+01 
          -3.8000000000e-01 -2.0550000000e+00 2.2140000000e+01 
          -3.8000000000e-01 -2.0550000000e+00 2.1640000000e+01 
          0.0000000000e+00 3.3500000000e+00 2.1640000000e+01 
          -3.8000000000e-01 2.0550000000e+00 2.2140000000e+01 
          -3.8000000000e-01 2.0550000000e+00 2.1640000000e+01 
          3.8000000000e-01 2.0550000000e+00 2.2140000000e+01 
          3.8000000000e-01 2.0550000000e+00 2.1640000000e+01 
          3.8000000000e-01 -2.0550000000e+00 2.2140000000e+01 
          3.8000000000e-01 -2.0550000000e+00 2.1640000000e+01 
          -0.0000000000e+00 -3.3500000000e+00 1.8440000000e+01 
          -3.8000000000e-01 -2.0550000000e+00 1.8940000000e+01 
          -3.8000000000e-01 -2.0550000000e+00 1.8440000000e+01 
          -0.0000000000e+00 3.3500000000e+00 1.8440000000e+01 
          -3.8000000000e-01 2.0550000000e+00 1.8940000000e+01 
          -3.8000000000e-01 2.0550000000e+00 1.8440000000e+01 
          3.8000000000e-01 2.0550000000e+00 1.8940000000e+01 
          3.8000000000e-01 2.0550000000e+00 1.8440000000e+01 
          3.8000000000e-01 -2.0550000000e+00 1.8940000000e+01 
          3.8000000000e-01 -2.0550000000e+00 1.8440000000e+01 
          -0.0000000000e+00 -3.3500000000e+00 1.5240000000e+01 
          -3.8000000000e-01 -2.0550000000e+00 1.5740000000e+01 
          -3.8000000000e-01 -2.0550000000e+00 1.5240000000e+01 
          -0.0000000000e+00 3.3500000000e+00 1.5240000000e+01 
          -3.8000000000e-01 2.0550000000e+00 1.5740000000e+01 
          -3.8000000000e-01 2.0550000000e+00 1.5240000000e+01 
          3.8000000000e-01 2.0550000000e+00 1.5740000000e+01 
          3.8000000000e-01 2.0550000000e+00 1.5240000000e+01 
          3.8000000000e-01 -2.0550000000e+00 1.5740000000e+01 
          3.8000000000e-01 -2.0550000000e+00 1.5240000000e+01 
          -5.2400000000e-01 0.0000000000e+00 2.3496000000e+01 
          5.2400000000e-01 0.0000000000e+00 2.3496000000e+01 
          4.0000000000e-02 5.0000000000e-02 2.5250000000e+01 
          -4.0000000000e-02 5.0000000000e-02 2.5250000000e+01 
          -4.0000000000e-02 -5.0000000000e-02 2.5250000000e+01 
          4.0000000000e-02 -5.0000000000e-02 2.5250000000e+01 
          1.3410000000e+00 0.0000000000e+00 6.3450000000e+00 
          1.2090000000e+00 0.0000000000e+00 8.3600000000e+00 
          1.0900000000e+00 -0.0000000000e+00 1.0180000000e+01 
          -0.0000000000e+00 1.3410000000e+00 6.3450000000e+00 
          0.0000000000e+00 1.2090000000e+00 8.3600000000e+00 
          -0.0000000000e+00 1.0900000000e+00 1.0180000000e+01 
          -1.3410000000e+00 0.0000000000e+00 6.3450000000e+00 
          -1.2090000000e+00 0.0000000000e+00 8.3600000000e+00 
          -1.0900000000e+00 -0.0000000000e+00 1.0180000000e+01 
          -0.0000000000e+00 -1.3410000000e+00 6.3450000000e+00 
          0.0000000000e+00 -1.2090000000e+00 8.3600000000e+00 
          0.0000000000e+00 -1.0900000000e+00 1.0180000000e+01 
          9.8300000000e-01 0.0000000000e+00 1.1820000000e+01 
          8.8700000000e-01 0.0000000000e+00 1.3296000000e+01 
          8.0000000000e-01 -0.0000000000e+00 1.4633000000e+01 
          0.0000000000e+00 9.8300000000e-01 1.1820000000e+01 
          -0.0000000000e+00 8.8700000000e-01 1.3296000000e+01 
          0.0000000000e+00 8.0000000000e-01 1.4633000000e+01 
          -9.8300000000e-01 0.0000000000e+00 1.1820000000e+01 
          -8.8700000000e-01 0.0000000000e+00 1.3296000000e+01 
          -8.0000000000e-01 0.0000000000e+00 1.4633000000e+01 
          0.0000000000e+00 -9.8300000000e-01 1.1820000000e+01 
          0.0000000000e+00 -8.8700000000e-01 1.3296000000e+01 
          0.0000000000e+00 -8.0000000000e-01 1.4633000000e+01 
        </DataArray>
      </Points>
      <Cells>
        <DataArray type="Int64" Name="connectivity" format="ascii">
          0 6 
          1 5 
          0 8 
          2 7 
          5 4 
          6 3 
          5 7 
          6 8 
          2 13 
          9 12 
          10 14 
          12 11 
          13 4 
          12 14 
          13 7 
          10 19 
          15 18 
          16 20 
          18 17 
          19 11 
          18 20 
          19 14 
          16 23 
          21 22 
          22 3 
          23 17 
          22 8 
          23 20 
          3 1 
          4 9 
          11 15 
          17 21 
          1 4 
          5 2 
          6 1 
          7 4 
          8 3 
          9 11 
          12 10 
          13 9 
          14 11 
          15 17 
          18 16 
          19 15 
          20 17 
          21 3 
          22 0 
          23 21 
          4 24 
          3 25 
          25 26 
          24 27 
          26 28 
          27 29 
          11 30 
          30 31 
          31 32 
          17 33 
          33 34 
          34 35 
          29 36 
          28 37 
          36 38 
          37 39 
          38 40 
          39 41 
          32 42 
          42 43 
          43 44 
          35 45 
          45 46 
          46 47 
          48 50 
          41 50 
          50 40 
          50 51 
          50 52 
          49 51 
          48 52 
          40 49 
          48 41 
          52 53 
          51 53 
          54 58 
          56 57 
          58 59 
          58 60 
          59 55 
          60 54 
          51 59 
          60 52 
          58 61 
          58 62 
          62 63 
          57 63 
          62 57 
          61 56 
          56 64 
          57 65 
          55 62 
          54 61 
          56 65 
          57 64 
          41 40 
          48 50 
          60 59 
          65 64 
          49 68 
          59 67 
          40 44 
          49 68 
          40 68 
          68 44 
          55 73 
          57 70 
          68 71 
          68 51 
          66 71 
          44 66 
          51 72 
          71 72 
          73 67 
          73 59 
          67 69 
          71 67 
          73 62 
          73 74 
          74 75 
          70 75 
          74 70 
          57 76 
          70 64 
          69 74 
          70 76 
          64 76 
          64 77 
          78 64 
          79 76 
          78 77 
          66 82 
          67 81 
          44 47 
          66 82 
          44 82 
          82 47 
          69 87 
          70 84 
          82 85 
          82 71 
          80 85 
          47 80 
          71 86 
          85 86 
          87 81 
          87 67 
          81 83 
          85 81 
          87 74 
          87 88 
          88 89 
          84 89 
          88 84 
          70 90 
          84 76 
          83 88 
          84 90 
          76 90 
          80 91 
          81 60 
          47 41 
          80 91 
          47 91 
          91 41 
          83 93 
          84 56 
          91 52 
          91 85 
          85 92 
          52 92 
          93 60 
          93 81 
          93 88 
          93 61 
          61 94 
          56 94 
          84 65 
          56 90 
          90 65 
          90 95 
          96 65 
          97 95 
          98 106 
          98 99 
          98 100 
          98 107 
          99 84 
          99 100 
          101 102 
          101 104 
          101 103 
          101 105 
          102 103 
          102 70 
          104 105 
          104 57 
          106 107 
          106 56 
          108 116 
          108 109 
          108 110 
          108 117 
          109 81 
          109 110 
          111 112 
          111 114 
          111 113 
          111 115 
          112 113 
          112 67 
          114 115 
          114 59 
          116 117 
          116 60 
          118 126 
          118 119 
          118 120 
          118 127 
          119 47 
          119 120 
          121 122 
          121 124 
          121 123 
          121 125 
          122 123 
          122 44 
          124 125 
          124 40 
          126 127 
          126 41 
          106 99 
          107 100 
          105 103 
          104 102 
          114 112 
          115 113 
          116 109 
          117 110 
          126 119 
          127 120 
          124 122 
          125 123 
          79 97 
          78 96 
          97 90 
          79 128 
          76 128 
          78 129 
          64 129 
          92 81 
          92 60 
          94 84 
          94 88 
          95 65 
          95 96 
          72 67 
          72 59 
          75 62 
          75 57 
          77 79 
          77 76 
          86 67 
          86 81 
          89 70 
          89 74 
          129 65 
          129 96 
          53 60 
          53 59 
          63 56 
          63 61 
          128 97 
          128 90 
          50 49 
          50 49 
          58 55 
          68 66 
          68 66 
          73 69 
          82 80 
          82 80 
          87 83 
          91 48 
          91 48 
          93 54 
          99 90 
          100 84 
          102 76 
          103 70 
          104 64 
          105 57 
          106 65 
          107 56 
          109 83 
          110 81 
          112 69 
          113 67 
          114 55 
          115 59 
          116 54 
          117 60 
          119 80 
          120 47 
          122 66 
          123 44 
          124 49 
          125 40 
          126 48 
          127 41 
          130 131 
          131 79 
          130 78 
          132 133 
          133 96 
          132 97 
          130 133 
          132 131 
          3 134 
          4 134 
          25 135 
          24 135 
          26 136 
          27 136 
          4 137 
          11 137 
          24 138 
          30 138 
          27 139 
          31 139 
          11 140 
          17 140 
          30 141 
          33 141 
          31 142 
          34 142 
          17 143 
          3 143 
          33 144 
          25 144 
          34 145 
          26 145 
          143 33 
          143 25 
          144 34 
          144 26 
          145 35 
          145 28 
          137 30 
          137 24 
          138 31 
          138 27 
          139 32 
          139 29 
          140 33 
          140 30 
          141 34 
          141 31 
          142 32 
          142 35 
          134 25 
          134 24 
          135 26 
          135 27 
          136 29 
          136 28 
          28 146 
          29 146 
          37 147 
          36 147 
          41 148 
          39 148 
          29 149 
          32 149 
          36 150 
          42 150 
          40 151 
          38 151 
          32 152 
          35 152 
          42 153 
          45 153 
          44 154 
          43 154 
          35 155 
          28 155 
          45 156 
          37 156 
          47 157 
          46 157 
          155 45 
          155 37 
          156 46 
          156 39 
          157 39 
          157 41 
          149 42 
          149 36 
          150 43 
          150 38 
          151 44 
          151 43 
          152 42 
          152 45 
          153 43 
          153 46 
          154 46 
          154 47 
          146 37 
          146 36 
          147 39 
          147 38 
          148 40 
          148 38 
        </DataArray>
        <DataArray type="Int64" Name="offsets" format="ascii">
          2
          4
          6
          8
          10
          12
          14
          16
          18
          20
          22
          24
          26
          28
          30
          32
          34
          36
          38
          40
          42
          44
          46
          48
          50
          52
          54
          56
          58
          60
          62
          64
          66
          68
          70
          72
          74
          76
          78
          80
          82
          84
          86
          88
          90
          92
          94
          96
          98
          100
          102
          104
          106
          108
          110
          112
          114
          116
          118
          120
          122
          124
          126
          128
          130
          132
          134
          136
          138
          140
          142
          144
          146
          148
          150
          152
          154
          156
          158
          160
          162
          164
          166
          168
          170
          172
          174
          176
          178
          180
          182
          184
          186
          188
          190
          192
          194
          196
          198
          200
          202
          204
          206
          208
          210
          212
          214
          216
          218
          220
          222
          224
          226
          228
          230
          232
          234
          236
          238
          240
          242
          244
          246
          248
          250
          252
          254
          256
          258
          260
          262
          264
          266
          268
          270
          272
          274
          276
          278
          280
          282
          284
          286
          288
          290
          292
          294
          296
          298
          300
          302
          304
          306
          308
          310
          312
          314
          316
          318
          320
          322
          324
          326
          328
          330
          332
          334
          336
          338
          340
          342
          344
          346
          348
          350
          352
          354
          356
          358
          360
          362
          364
          366
          368
          370
          372
          374
          376
          378
          380
          382
          384
          386
          388
          390
          392
          394
          396
          398
          400
          402
          404
          406
          408
          410
          412
          414
          416
          418
          420
          422
          424
          426
          428
          430
          432
          434
          436
          438
          440
          442
          444
          446
          448
          450
          452
          454
          456
          458
          460
          462
          464
          466
          468
          470
          472
          474
          476
          478
          480
          482
          484
          486
          488
          490
          492
          494
          496
          498
          500
          502
          504
          506
          508
          510
          512
          514
          516
          518
          520
          522
          524
          526
          528
          530
          532
          534
          536
          538
          540
          542
          544
          546
          548
          550
          552
          554
          556
          558
          560
          562
          564
          566
          568
          570
          572
          574
          576
          578
          580
          582
          584
          586
          588
          590
          592
          594
          596
          598
          600
          602
          604
          606
          608
          610
          612
          614
          616
          618
          620
          622
          624
          626
          628
          630
          632
          634
          636
          638
          640
          642
          644
          646
          648
          650
          652
          654
          656
          658
          660
          662
          664
          666
          668
          670
          672
          674
          676
          678
          680
          682
          684
          686
          688
          690
          692
          694
          696
          698
          700
          702
          704
          706
          708
          710
          712
          714
          716
          718
          720
          722
          724
          726
          728
          730
          732
          734
          736
          738
          740
          742
          744
          746
          748
          750
          752
          754
          756
          758
          760
          762
          764
          766
          768
          770
          772
          774
          776
          778
          780
          782
          784
          786
          788
          790
          792
          794
          796
          798
          800
          802
          804
          806
          808
          810
          812
          814
          816
          818
          820
          822
          824
          826
          828
          830
          832
          834
          836
          838
          840
          842
          844
        </DataArray>
        <DataArray type="Int64" Name="types" format="ascii">
          3
          3
          3
          3
          3
          3
          3
          3
          3
          3
          3
          3
          3
          3
          3
          3
          3
          3
          3
          3
          3
          3
          3
          3
          3
          3
          3
          3
          3
          3
          3
          3
          3
          3
          3
          3
          3
          3
          3
          3
          3
          3
          3
          3
          3
          3
          3
          3
          3
          3
          3
          3
          3
          3
          3
          3
          3
          3
          3
          3
          3
          3
          3
          3
          3
          3
          3
          3
          3
          3
          3
          3
          3
          3
          3
          3
          3
          3
          3
          3
          3
          3
          3
          3
          3
          3
          3
          3
          3
          3
          3
          3
          3
          3
          3
          3
          3
          3
          3
          3
          3
          3
          3
          3
          3
          3
          3
          3
          3
          3
          3
          3
          3
          3
          3
          3
          3
          3
          3
          3
          3
          3
          3
          3
          3
          3
          3
          3
          3
          3
          3
          3
          3
          3
          3
          3
          3
          3
          3
          3
          3
          3
          3
          3
          3
          3
          3
          3
          3
          3
          3
          3
          3
          3
          3
          3
          3
          3
          3
          3
          3
          3
          3
          3
          3
          3
          3
          3
          3
          3
          3
          3
          3
          3
          3
          3
          3
          3
          3
          3
          3
          3
          3
          3
          3
          3
          3
          3
          3
          3
          3
          3
          3
          3
          3
          3
          3
          3
          3
          3
          3
          3
          3
          3
          3
          3
          3
          3
          3
          3
          3
          3
          3
          3
          3
          3
          3
          3
          3
          3
          3
          3
          3
          3
          3
          3
          3
          3
          3
          3
          3
          3
          3
          3
          3
          3
          3
          3
          3
          3
          3
          3
          3
          3
          3
          3
          3
          3
          3
          3
          3
          3
          3
          3
          3
          3
          3
          3
          3
          3
          3
          3
          3
          3
          3
          3
          3
          3
          3
          3
          3
          3
          3
          3
          3
          3
          3
          3
          3
          3
          3
          3
          3
          3
          3
          3
          3
          3
          3
          3
          3
          3
          3
          3
          3
          3
          3
          3
          3
          3
          3
          3
          3
          3
          3
          3
          3
          3
          3
          3
          3
          3
          3
          3
          3
          3
          3
          3
          3
          3
          3
          3
          3
          3
          3
          3
          3
          3
          3
          3
          3
          3
          3
          3
          3
          3
          3
          3
          3
          3
          3
          3
          3
          3
          3
          3
          3
          3
          3
          3
          3
          3
          3
          3
          3
          3
          3
          3
          3
          3
          3
          3
          3
          3
          3
          3
          3
          3
          3
          3
          3
          3
          3
          3
          3
          3
          3
          3
          3
          3
          3
          3
          3
          3
          3
          3
          3
          3
          3
          3
          3
          3
          3
          3
          3
          3
          3
          3
          3
          3
          3
          3
          3
          3
          3
          3
          3
          3
          3
          3
          3
          3
          3
          3
          3
          3
          3
          3
          3
          3
          3
          3
        </DataArray>
      </Cells>
      <PointData>
        <DataArray type="Int64" Name="NodeTag" format="ascii">
          1
          2
          3
          4
          5
          6
          7
          8
          9
          10
          11
          12
          13
          14
          15
          16
          17
          18
          19
          20
          21
          22
          23
          24
          25
          26
          27
          28
          29
          30
          31
          32
          33
          34
          35
          36
          37
          38
          39
          40
          41
          42
          43
          44
          45
          46
          47
          48
          49
          50
          51
          52
          53
          54
          55
          56
          57
          58
          59
          60
          61
          62
          63
          64
          65
          66
          67
          68
          69
          70
          71
          72
          73
          74
          75
          76
          77
          78
          79
          80
          81
          82
          83
          84
          85
          86
          87
          88
          89
          90
          91
          92
          93
          94
          95
          96
          97
          98
          99
          100
          101
          102
          103
          104
          105
          106
          107
          108
          109
          110
          111
          112
          113
          114
          115
          116
          117
          118
          119
          120
          121
          122
          123
          124
          125
          126
          127
          128
          129
          130
          131
          132
          133
          134
          135
          136
          137
          138
          139
          140
          141
          142
          143
          144
          145
          146
          147
          148
          149
          150
          151
          152
          153
          154
          155
          156
          157
          158
        </DataArray>
        <DataArray type="Float64" Name="Displacement" NumberOfComponents="3" format="ascii">
          0.0000000000e+00 0.0000000000e+00 0.0000000000e+00 
          -4.6691475289e-04 -2.4839372662e-05 -2.9296873520e-04 
          0.0000000000e+00 0.0000000000e+00 0.0000000000e+00 
          -6.8636345384e-06 -1.5392697158e-05 -1.4687893053e-03 
          -8.2613523329e-06 -3.5197922703e-05 -1.4250651663e-03 
          -2.2082144800e-03 -2.2969597236e-03 -1.0927280872e-03 
          -2.2761486840e-03 2.3359078827e-03 -1.1196748796e-03 
          -2.2726145402e-03 -2.2930787538e-03 -1.0573032284e-03 
          -2.3461690076e-03 2.3318251120e-03 -1.0884411809e-03 
          1.6211005191e-06 -4.8544006086e-04 -2.9264235751e-04 
          0.0000000000e+00 0.0000000000e+00 0.0000000000e+00 
          1.1581966467e-05 -3.3440091685e-05 -1.4251006425e-03 
          2.2791939313e-03 -2.2227573764e-03 -1.0907777237e-03 
          -2.2765010810e-03 -2.2259757324e-03 -1.0906555855e-03 
          2.2753121565e-03 -2.2899369063e-03 -1.0572359744e-03 
          4.7176247606e-04 -2.3041131980e-05 -2.9395394478e-04 
          0.0000000000e+00 0.0000000000e+00 0.0000000000e+00 
          1.2385965369e-05 -1.3602815287e-05 -1.4686411381e-03 
          2.2799563558e-03 2.3357638966e-03 -1.1198675062e-03 
          2.2109374897e-03 -2.2938167290e-03 -1.0924122967e-03 
          2.3497206294e-03 2.3316868509e-03 -1.0883668447e-03 
          2.6981040685e-06 4.5119990813e-04 -2.9497159451e-04 
          -2.3502554250e-03 2.2634617065e-03 -1.1215026319e-03 
          2.3537998168e-03 2.2632172018e-03 -1.1217238346e-03 
          3.2334218338e-04 2.5467941463e-04 -1.9274152425e-03 
          3.4171030951e-04 -4.1261961679e-04 -1.9891841953e-03 
          6.7015201285e-05 -1.9545016487e-04 -2.4951954305e-03 
          6.1147627090e-05 -9.2639642515e-05 -2.4195836352e-03 
          2.0470733599e-04 -4.2442122354e-04 -2.8516578414e-03 
          1.9196731680e-04 -6.9072695439e-06 -2.7686357676e-03 
          -3.1895709356e-04 2.5654405028e-04 -1.9272337664e-03 
          -5.5724642156e-05 -9.0491410059e-05 -2.4192997402e-03 
          -1.8567988836e-04 -4.8445016635e-06 -2.7683722763e-03 
          -3.3321647073e-04 -4.1042363333e-04 -1.9889331513e-03 
          -5.6101274818e-05 -1.9333758691e-04 -2.4950161963e-03 
          -1.9209344185e-04 -4.2238441964e-04 -2.8516574353e-03 
          1.1126706248e-04 -2.0740171890e-04 -3.1775088371e-03 
          1.1947548680e-04 -3.7842243510e-04 -3.2687349044e-03 
          1.4476867873e-04 -1.8822579378e-04 -3.4986313845e-03 
          1.5470889165e-04 -5.5752965006e-04 -3.5934185195e-03 
          4.4687796998e-05 -4.8004227106e-04 -3.7877379327e-03 
          4.9400197599e-05 -4.2877259596e-04 -3.8834354785e-03 
          -1.0429026571e-04 -2.0554528567e-04 -3.1773635571e-03 
          -1.3751691441e-04 -1.8666732861e-04 -3.4986818928e-03 
          -3.7659666286e-05 -4.7899709632e-04 -3.7880294760e-03 
          -1.0579009641e-04 -3.7667658158e-04 -3.2689851053e-03 
          -1.4069818239e-04 -5.5620882728e-04 -3.5939068901e-03 
          -3.5710446138e-05 -4.2776662175e-04 -3.8841137170e-03 
          -1.2135359101e-06 -5.5367326772e-04 -4.2268226135e-03 
          -4.2784670955e-06 -4.9369173124e-04 -4.1175592107e-03 
          3.6322864372e-05 -5.2366683436e-04 -3.9904736353e-03 
          4.5216314576e-04 -9.5737774950e-05 -4.4247329160e-03 
          4.7240440651e-04 -1.1456995717e-03 -4.5493294137e-03 
          2.4034390169e-04 -6.6792207560e-04 -5.1378477688e-03 
          -1.2873579551e-05 -8.7329161225e-04 -5.2486116248e-03 
          -1.5857417317e-05 -7.5544335117e-04 -5.1062183193e-03 
          6.9588869582e-06 -9.7079015001e-04 -5.6797379552e-03 
          4.9283546931e-06 -1.0993902107e-03 -5.5294542124e-03 
          2.5723354689e-05 -8.1439619644e-04 -5.0426740498e-03 
          1.7389071534e-05 -7.7606487368e-04 -4.9067829116e-03 
          1.9587382378e-05 -6.6400040443e-04 -5.0448253668e-03 
          2.5894630064e-04 -1.2494811207e-03 -5.4198544843e-03 
          2.5073929399e-04 -6.0076052079e-04 -5.2724539471e-03 
          1.3046624318e-04 -9.7956500028e-04 -5.7505350825e-03 
          2.8609675359e-06 -1.0562618978e-03 -5.6230956425e-03 
          5.3964784841e-06 -1.2137091958e-03 -5.7738526436e-03 
          1.1203498151e-05 -4.9294809355e-04 -4.1183584436e-03 
          -1.4325485006e-05 -7.7589023347e-04 -4.9086611025e-03 
          3.4532811134e-06 -4.6390995532e-04 -3.9859739141e-03 
          1.6459254268e-05 -7.5535289303e-04 -5.1084751074e-03 
          -1.2095266159e-05 -1.0999435574e-03 -5.5323799383e-03 
          -4.4687925838e-04 -9.4657938636e-05 -4.4259521425e-03 
          2.2053807883e-06 -4.3710768942e-04 -4.9723452962e-03 
          2.9504790742e-07 -7.4229266404e-04 -5.0238571098e-03 
          -2.5387509142e-04 -6.0043287666e-04 -5.2750047034e-03 
          -2.5083568726e-06 -8.5239635776e-04 -5.5785794683e-03 
          -1.3919566481e-05 -1.0568952352e-03 -5.6261804856e-03 
          -7.1307608462e-06 -1.3092310030e-03 -5.7268525296e-03 
          -8.8630141567e-06 -1.2711426349e-03 -5.7211900227e-03 
          -7.2828799435e-06 -1.2713026491e-03 -5.7228887816e-03 
          1.4264659511e-05 -5.5292232166e-04 -4.2279288123e-03 
          -1.0440582569e-05 -6.6380063497e-04 -5.0469073125e-03 
          -2.6037008127e-05 -5.2292519415e-04 -3.9911801484e-03 
          1.9392923718e-05 -8.7322198549e-04 -5.2511234677e-03 
          -8.8803557112e-06 -9.7123891161e-04 -5.6830759895e-03 
          -4.6097527727e-04 -1.1458699646e-03 -4.5507808181e-03 
          -2.3257634748e-04 -6.6760393703e-04 -5.1399410429e-03 
          -2.1768670332e-05 -8.1432166620e-04 -5.0448401017e-03 
          -2.5643729584e-04 -1.2501625608e-03 -5.4227146770e-03 
          -1.3225181426e-04 -9.7988302390e-04 -5.7538337905e-03 
          -1.1952286544e-05 -1.2145485723e-03 -5.7774647857e-03 
          6.5342059408e-06 -5.8804753451e-04 -4.0909390287e-03 
          5.2608237009e-06 -9.0622594857e-04 -5.1160626771e-03 
          3.2618383189e-06 -8.9384294654e-04 -5.1645422043e-03 
          2.3648976622e-07 -1.1125477778e-03 -5.7316765250e-03 
          -5.4730446745e-06 -1.1436464089e-03 -5.8284518523e-03 
          -7.3664002564e-06 -1.2606805200e-03 -5.8013132816e-03 
          -6.1764758742e-06 -1.2608661574e-03 -5.8034765608e-03 
          4.4330586400e-07 -8.8802528230e-04 -7.0916633949e-03 
          9.2514809711e-07 -1.1326516312e-03 -6.3343980643e-03 
          3.0411265020e-06 -9.2661117563e-04 -6.3423263684e-03 
          -4.5451760905e-06 -1.1835264995e-03 -6.4271402013e-03 
          -6.9964289995e-06 -1.0371488038e-03 -5.9252665889e-03 
          -4.7069792067e-06 -1.1437355839e-03 -5.9332313136e-03 
          -7.5522717621e-06 -1.0380976382e-03 -5.9233863616e-03 
          -4.2043971600e-06 -1.1437115808e-03 -5.9313279921e-03 
          2.2171061994e-07 -1.1336123190e-03 -6.3318908704e-03 
          3.7382447806e-06 -9.2850320139e-04 -6.3398027062e-03 
          4.7783695197e-06 -5.7945958116e-04 -6.4996899436e-03 
          6.0547808191e-06 -8.3203733778e-04 -5.7220426036e-03 
          7.2560902509e-06 -6.1782868385e-04 -5.7299648979e-03 
          1.8282036452e-06 -8.6154563459e-04 -5.8742714488e-03 
          -3.5407417421e-07 -7.0192042872e-04 -5.3383075691e-03 
          1.1374454576e-06 -8.2173774133e-04 -5.3462663091e-03 
          -9.8174276448e-07 -7.0296605750e-04 -5.3369838424e-03 
          1.6947491864e-06 -8.2199401965e-04 -5.3449252841e-03 
          5.1781195609e-06 -8.3314015306e-04 -5.7203240105e-03 
          8.0891639398e-06 -6.1966643171e-04 -5.7282332384e-03 
          5.7671232702e-06 -3.3607635790e-04 -5.2730088263e-03 
          7.8108733540e-06 -5.7563170107e-04 -4.5285804200e-03 
          8.2967072015e-06 -3.7437254792e-04 -4.5365062657e-03 
          5.1774210253e-06 -5.7206299202e-04 -4.8074395512e-03 
          3.2911623626e-06 -4.0256270308e-04 -4.2459713563e-03 
          4.0463710489e-06 -5.3221811125e-04 -4.2539268673e-03 
          2.6675875206e-06 -4.0377228285e-04 -4.2455679410e-03 
          4.6608106813e-06 -5.3274321496e-04 -4.2535077058e-03 
          6.9758989614e-06 -5.7690917513e-04 -4.5275046938e-03 
          9.1432441706e-06 -3.7627149807e-04 -4.5354218337e-03 
          9.2141498719e-05 -1.2208846420e-03 -5.8018846338e-03 
          -1.0192659246e-04 -1.2205661975e-03 -5.7986231746e-03 
          -7.1095540421e-06 -1.3976778249e-03 -5.7649521555e-03 
          -6.9746263027e-06 -1.3975339407e-03 -5.7672959627e-03 
          -6.9652664968e-06 -1.3975045438e-03 -5.7766599243e-03 
          -7.1070040124e-06 -1.3973603975e-03 -5.7743230129e-03 
          -6.2145714073e-04 -4.8713982285e-05 -1.5702321031e-03 
          -3.3000211984e-04 -1.0924403421e-04 -2.4447294833e-03 
          -2.1343009382e-04 -1.7858268953e-04 -2.5780830367e-03 
          1.9056565891e-06 -7.0199501450e-04 -1.5536951064e-03 
          2.4494121407e-06 -4.7324160668e-04 -2.3996076066e-03 
          2.9400533277e-06 -4.1365703530e-04 -2.5568411564e-03 
          6.3559198300e-04 -4.6805284816e-05 -1.5707573811e-03 
          3.4311960432e-04 -1.0714132602e-04 -2.4447702702e-03 
          2.2555575336e-04 -1.7646920308e-04 -2.5781199916e-03 
          3.5288900718e-06 5.5118386291e-04 -1.5931527605e-03 
          4.9071547262e-06 2.0288127566e-04 -2.4732987069e-03 
          5.9490966909e-06 1.1727579291e-05 -2.6292549877e-03 
          -7.6963290786e-05 -2.5294695626e-04 -3.1270064120e-03 
          -2.1552826180e-05 -3.3236273187e-04 -3.3451485098e-03 
          1.7631733310e-06 -4.1366990278e-04 -3.8409019021e-03 
          3.3447304435e-06 -3.5920891854e-04 -3.0576728126e-03 
          3.5979886761e-06 -3.5364314347e-04 -3.3409048866e-03 
          3.6153361182e-06 -4.5374131656e-04 -3.7250722105e-03 
          8.9370491918e-05 -2.5100109439e-04 -3.1271056034e-03 
          3.3684482261e-05 -3.3074092674e-04 -3.3453769875e-03 
          9.9488348016e-06 -4.1245584135e-04 -3.8414215360e-03 
          6.6524529935e-06 -1.8106778069e-04 -3.1456981289e-03 
          6.9938607421e-06 -3.3584199423e-04 -3.4314106592e-03 
          6.9798588223e-06 -3.9272602358e-04 -3.8225364335e-03 
        </DataArray>
        <DataArray type="Float64" Name="Reaction" NumberOfComponents="3" format="ascii">
          -2.1561999486e+04 2.1701587007e+04 2.6679656279e+05 
          -1.6080512512e+00 3.9275778982e-01 2.3622240272e-02 
          -2.1011085994e+04 -2.0813205574e+04 2.5914359726e+05 
          2.7560445727e-01 1.1314547459e-01 7.6556793329e-02 
          -6.4097193928e-02 1.1267249382e+00 3.0194089244e-03 
          -1.2030761386e+00 -1.2948977006e+00 5.0864537027e-05 
          -2.5696544698e+00 3.3147696677e+00 -2.3834165197e-02 
          -1.7011824865e+00 -1.2203291203e+00 1.6144694550e-03 
          -2.7126861568e+00 2.7032061077e+00 3.0304278576e-03 
          -3.4662475944e-01 -5.0806794495e-01 3.3048753313e-03 
          2.0963530193e+04 -2.0798304096e+04 2.5895341840e+05 
          -1.0689550312e+00 1.4562087056e+00 4.3737695842e-03 
          1.4624297671e+00 -4.3632706019e-01 -1.2282155644e-03 
          -1.9709134129e+00 -6.2463972152e-01 -4.3472539568e-04 
          1.3422957835e+00 -1.2440288477e+00 9.5352064733e-04 
          9.7309733322e-01 5.9524381454e-01 2.5265487363e-02 
          2.1488124203e+04 2.1683957101e+04 2.6654310808e+05 
          -7.6615605988e-01 4.1871924350e-01 8.0734142070e-02 
          2.5906223568e+00 4.0821334972e+00 -2.6551075354e-02 
          7.6334796714e-01 -1.3525862673e+00 -8.2546361534e-04 
          2.7242963745e+00 3.2630006464e+00 1.6350752662e-03 
          -1.4585594546e-01 2.0141533778e+00 4.3395373037e-02 
          -3.3468515528e+00 2.7027530304e+00 -2.2211955396e-02 
          3.3335841748e+00 3.3126825684e+00 -2.4858788224e-02 
          -4.3212421302e-01 1.3992949057e-02 -7.7432645044e-03 
          -1.2393464683e-01 -7.0285207194e-03 3.3915708964e-03 
          -6.4287918732e-01 -1.4793082631e-01 -6.5383266657e-03 
          -8.2245789591e-01 -1.0213871291e+00 -1.4831744185e-03 
          -8.8620699258e-02 -1.2689585713e+00 2.4284796206e-03 
          -2.4672314056e-01 -9.4106720502e-01 -7.4058600323e-03 
          -3.6622236616e-01 3.5138417067e-02 -8.0990566608e-03 
          1.0876601220e-01 -1.0160253705e+00 -1.4881151024e-03 
          -3.1283215142e-01 -9.0411956471e-01 -7.5810566997e-03 
          -4.1048659632e-01 2.5490646038e-02 3.6077143232e-03 
          1.3543620861e-01 -1.2311378307e-01 -7.0263733389e-03 
          -3.7786299278e-01 -1.2450001649e+00 2.3761160603e-03 
          1.7152239202e-01 -1.0362345709e+00 -4.7340160650e-03 
          2.5014465389e-01 -1.9444464133e+00 -7.7948748680e-03 
          -1.0743013679e-01 -1.8279386342e+00 -1.5071200928e-02 
          -2.2299214352e-02 -2.1822700403e+00 2.1620714268e-04 
          -3.7819400173e-01 -3.6012301103e+00 7.2253618118e-03 
          -3.6957653772e-01 -3.8029606597e+00 -4.0856141082e-03 
          -6.8975973840e-01 -9.8107918537e-01 -4.8468103191e-03 
          -3.9314669310e-01 -1.7791213381e+00 -1.5192411753e-02 
          -3.4776642106e-01 -3.4897831875e+00 6.6138871808e-03 
          -7.3155794741e-01 -1.9348211655e+00 -8.1603067744e-03 
          -4.7964508215e-01 -2.1195401099e+00 -3.6555567469e-04 
          -4.3120771525e-01 -3.5951760399e+00 -5.3299501792e-03 
          -1.0766398661e-01 -2.1244422177e+00 -1.3252540092e-02 
          -9.4907455160e-02 -2.1253356227e+00 -1.9291515945e-03 
          -2.1900983796e-01 -2.6413946264e+00 -1.8469000880e-02 
          1.0150495100e-01 -2.6100099340e+00 -1.5847785048e-02 
          2.6388223030e-01 -3.0816823109e+00 4.2658257552e-02 
          -3.9863566215e-02 -1.7841362107e+00 -5.0428388649e-03 
          -7.3104700301e-02 -3.1728293563e+00 1.8520699177e-03 
          -8.2792352410e-02 -3.1518328346e+00 4.8044311209e-03 
          1.9129759140e-01 -1.1858166003e+01 -1.9194363530e-02 
          1.6472585717e-01 -1.1795763977e+01 3.5067352002e-03 
          -8.0575459930e-02 -4.1876914238e+00 -1.0316934558e-02 
          -1.8356530917e-01 -6.3540659416e+00 -1.3061425123e-02 
          -1.8369351160e-01 -6.4777152881e+00 -3.9746034271e-02 
          8.2316154324e-02 -5.2657478242e+00 4.1815308076e-02 
          -2.4237797614e-02 -4.9340759454e+00 -1.4314289313e-04 
          9.8824742108e-02 -3.0889055791e+00 -1.5050528908e-03 
          6.0636359653e-01 -1.2714427969e+01 -6.4652202732e-03 
          6.4163357532e-01 -1.3075797695e+01 6.8303182037e-03 
          -1.1666490373e-01 -2.0651882152e+00 -2.5782387936e-03 
          8.1419327874e-02 -6.1474089514e+00 -1.4803093723e-02 
          -1.3133982836e-01 -2.5749238407e+00 -8.0842342251e-03 
          -9.2069074665e-02 -3.0697532121e+00 4.1392722654e-03 
          2.3824421120e-01 -1.1652346952e+01 2.3636096219e-03 
          -1.5074982015e-01 -2.4661602301e+00 -1.4229170948e-02 
          -1.3378071626e-02 -1.6337640592e+00 -1.0505663220e-03 
          -1.0595453172e-01 -4.1700127526e+00 -4.7525335504e-03 
          -1.1588130317e-01 -4.8796367897e+00 -2.5462027808e-05 
          -5.4152029281e-03 -2.9651835049e+00 1.2304935916e-03 
          6.4022677241e-01 -1.2496810014e+01 -9.8801393656e-03 
          -1.1813496935e-02 -4.0179596169e+00 1.6282261511e-02 
          2.6207724030e-01 -4.9637732573e+00 4.4342905320e-02 
          2.5950142171e-01 -4.9455048706e+00 4.3532763018e-02 
          -1.3400786320e-01 -2.0387758302e+00 -1.2104471442e-02 
          5.6457623011e-02 -6.2889924640e+00 -4.0395188935e-02 
          -2.2010931620e-01 -2.5500091889e+00 -1.8038775478e-02 
          -8.7598650315e-02 -3.0879088995e+00 2.7281000431e-03 
          2.4974783035e-01 -1.1587590831e+01 -1.9716186074e-02 
          -3.3545404384e-01 -3.0501636248e+00 3.6593376527e-02 
          -8.8560069636e-02 -1.7267610909e+00 -5.1888562509e-03 
          -8.0562229459e-02 -4.0764324981e+00 -1.0106320753e-02 
          -1.9793445323e-01 -5.1110396894e+00 3.7180673423e-02 
          7.1449963319e-02 -3.0284009897e+00 -1.4938535361e-03 
          6.2578641916e-01 -1.2937779915e+01 6.6615926286e-03 
          -1.5291605252e-01 -2.5892007655e+00 -2.0611489799e-02 
          -1.7709752442e-02 -1.6737559732e+00 2.1696163633e-03 
          -9.8804755627e-02 -4.1662683289e+00 -8.9507644614e-03 
          1.0587931123e-03 -2.9905237045e+00 1.5855287689e-03 
          -7.2959657083e-04 -3.9340164596e+00 7.2735777352e-03 
          2.9473318308e-01 -5.0631996859e+00 4.2951827149e-02 
          2.6310908654e-01 -4.9968474302e+00 4.3064349272e-02 
          -2.0640218522e-01 -4.9872718198e+00 -2.5500725197e-02 
          -1.9643565179e-01 -5.3878851694e+00 5.0935774645e-02 
          1.1081436241e-01 -3.3468244674e+00 -3.7670327846e-02 
          4.1608222663e-02 -4.7660731585e+00 -1.6729836594e-02 
          2.3288884812e-02 -5.0473029104e+00 3.5932081321e-02 
          2.6732388739e-01 -3.5452751591e+00 -2.8075091569e-02 
          7.8133447354e-02 -5.2443012645e+00 3.6629502338e-02 
          2.5637857873e-01 -3.4053864173e+00 -2.8693654590e-02 
          -1.4996416186e-01 -5.2053250959e+00 4.9726355519e-02 
          9.5222849321e-02 -3.4877989059e+00 -3.6980807955e-02 
          -4.4277514004e-02 -3.1253869411e+00 -2.2547424665e-02 
          -4.4567449923e-01 -3.3784273088e+00 4.6037290879e-02 
          -1.1972394805e-01 -2.0993950513e+00 -3.3284135933e-02 
          2.5417301176e-01 -2.6212858663e+00 -1.4061268850e-02 
          -4.2849893268e-03 -2.9854775004e+00 3.0649828913e-02 
          1.9269150793e-01 -1.9866537879e+00 -2.3955352319e-02 
          7.7030750118e-02 -3.1050693609e+00 3.1051919297e-02 
          1.8702259939e-01 -1.9350300693e+00 -2.4370657773e-02 
          -3.7223622200e-01 -3.1694820761e+00 4.4847221984e-02 
          -1.3008422546e-01 -2.0797516306e+00 -3.2789622704e-02 
          -3.0296130106e-01 -1.4975600633e+00 -1.2240100005e-02 
          -5.9144830869e-01 -1.6973993443e+00 2.5604285940e-02 
          -2.7253726285e-01 -1.0096214994e+00 -1.7487942073e-02 
          -8.2814239074e-02 -1.3594705836e+00 -6.2678386568e-03 
          -2.9117217215e-02 -1.6046084467e+00 1.4360127178e-02 
          1.2142410492e-01 -1.0698650133e+00 -1.1221954108e-02 
          5.9929127824e-02 -1.5991192460e+00 1.4310530824e-02 
          1.1061256380e-01 -9.5431100185e-01 -1.1259042189e-02 
          -5.0562021110e-01 -1.5010436579e+00 2.5129856168e-02 
          -2.8780023288e-01 -9.7625552383e-01 -1.7434318651e-02 
          2.7644043076e-01 -3.9330462638e+00 7.4508460133e-05 
          2.3058570899e-01 -3.9732801567e+00 -1.0543954729e-04 
          -3.4123195745e-02 -1.2689141918e+00 1.8007950352e-02 
          -2.4914179706e-02 -1.3129409642e+00 1.8477082403e-02 
          -2.4145792188e-02 -1.2928910952e+00 1.8334198024e-02 
          -3.4759932177e-02 -1.3379423029e+00 1.8214932799e-02 
          -1.7438249168e-01 5.4112704132e-02 -1.2795984686e-03 
          -3.8354924910e-02 -4.9748281779e-02 -5.2687479867e-04 
          -1.3047456576e-01 -1.9389393712e-01 -1.3517267503e-03 
          -7.9894331046e-02 9.2075207059e-01 -1.5890301371e-03 
          -9.2653300802e-02 4.5403997873e-01 -1.2283527400e-03 
          -8.0309352554e-02 -6.3483138608e-01 1.9537587532e-03 
          -2.2207513391e-01 6.6151520246e-02 -1.0151993768e-03 
          -7.3367300795e-02 -4.8662190258e-02 -6.5168495673e-04 
          -1.0767457411e-01 -1.9086956158e-01 -1.3228565652e-03 
          -5.4304711639e-02 7.7295878245e-01 -5.9038355673e-03 
          -7.0855299236e-02 3.3077359705e-01 -2.5429141737e-03 
          -6.8609750927e-02 -5.6394191330e-01 -9.5110638982e-04 
          -3.6809353546e-02 -3.4245202636e-01 -1.6026119538e-03 
          -7.6964694923e-02 -4.8993528861e-01 -2.0593524977e-03 
          -9.4533893685e-02 -6.3755692965e-01 -1.8884952425e-03 
          -7.7300354328e-02 -3.6752177003e-01 5.6111050279e-04 
          -7.6652350952e-02 -4.5879474080e-01 3.1838411225e-04 
          -7.9603061684e-02 -7.2637146856e-01 1.1341039562e-03 
          -3.0096228136e-02 -3.3650862243e-01 -1.6414748555e-03 
          -7.1781878680e-02 -4.7937460288e-01 -2.0609081217e-03 
          -1.0112704137e-01 -6.1424625555e-01 -1.9219536778e-03 
          -7.4181396130e-02 -3.6612499913e-01 -1.5267295258e-03 
          -7.8602405181e-02 -4.6039915681e-01 -1.7555682632e-03 
          -8.7203268454e-02 -7.1278534751e-01 -4.8359173733e-04 
        </DataArray>
        <DataArray type="Float64" Name="UnbalancedLoad" NumberOfComponents="3" format="ascii">
          0.0000000000e+00 0.0000000000e+00 -1.9527249581e+04 
          0.0000000000e+00 0.0000000000e+00 -2.0009585070e+04 
          0.0000000000e+00 0.0000000000e+00 -1.9526489149e+04 
          0.0000000000e+00 0.0000000000e+00 -3.1528828929e+04 
          0.0000000000e+00 0.0000000000e+00 -3.1528348583e+04 
          0.0000000000e+00 0.0000000000e+00 -2.1333575063e+04 
          0.0000000000e+00 0.0000000000e+00 -2.1336450295e+04 
          0.0000000000e+00 0.0000000000e+00 -1.5962473650e+04 
          0.0000000000e+00 0.0000000000e+00 -1.5964868553e+04 
          0.0000000000e+00 0.0000000000e+00 -2.0008824622e+04 
          0.0000000000e+00 0.0000000000e+00 -1.9527249581e+04 
          0.0000000000e+00 0.0000000000e+00 -3.1528828929e+04 
          0.0000000000e+00 0.0000000000e+00 -2.1336450295e+04 
          0.0000000000e+00 0.0000000000e+00 -2.1336450295e+04 
          0.0000000000e+00 0.0000000000e+00 -1.5964868553e+04 
          0.0000000000e+00 0.0000000000e+00 -2.0008824622e+04 
          0.0000000000e+00 0.0000000000e+00 -1.9527249581e+04 
          0.0000000000e+00 0.0000000000e+00 -3.1528828929e+04 
          0.0000000000e+00 0.0000000000e+00 -2.1336450295e+04 
          0.0000000000e+00 0.0000000000e+00 -2.1336450295e+04 
          0.0000000000e+00 0.0000000000e+00 -1.5964868553e+04 
          0.0000000000e+00 0.0000000000e+00 -2.0008824622e+04 
          0.0000000000e+00 0.0000000000e+00 -2.1336450295e+04 
          0.0000000000e+00 0.0000000000e+00 -2.1336450295e+04 
          0.0000000000e+00 0.0000000000e+00 -1.0636143992e+04 
          0.0000000000e+00 0.0000000000e+00 -1.0636143992e+04 
          0.0000000000e+00 0.0000000000e+00 -9.6067157698e+03 
          0.0000000000e+00 0.0000000000e+00 -9.6067157698e+03 
          0.0000000000e+00 0.0000000000e+00 -7.9081888960e+03 
          0.0000000000e+00 0.0000000000e+00 -7.9081888960e+03 
          0.0000000000e+00 0.0000000000e+00 -1.0636143992e+04 
          0.0000000000e+00 0.0000000000e+00 -9.6067157698e+03 
          0.0000000000e+00 0.0000000000e+00 -7.9081888960e+03 
          0.0000000000e+00 0.0000000000e+00 -1.0636143992e+04 
          0.0000000000e+00 0.0000000000e+00 -9.6067157698e+03 
          0.0000000000e+00 0.0000000000e+00 -7.9081888960e+03 
          0.0000000000e+00 0.0000000000e+00 -6.3680230150e+03 
          0.0000000000e+00 0.0000000000e+00 -6.3680230150e+03 
          0.0000000000e+00 0.0000000000e+00 -5.7615604466e+03 
          0.0000000000e+00 0.0000000000e+00 -5.7615604466e+03 
          0.0000000000e+00 0.0000000000e+00 -7.8511746166e+03 
          0.0000000000e+00 0.0000000000e+00 -7.8511746166e+03 
          0.0000000000e+00 0.0000000000e+00 -6.3680230150e+03 
          0.0000000000e+00 0.0000000000e+00 -5.7615604466e+03 
          0.0000000000e+00 0.0000000000e+00 -7.8511746166e+03 
          0.0000000000e+00 0.0000000000e+00 -6.3680230150e+03 
          0.0000000000e+00 0.0000000000e+00 -5.7615604466e+03 
          0.0000000000e+00 0.0000000000e+00 -7.8511746166e+03 
          0.0000000000e+00 0.0000000000e+00 -3.6214883175e+03 
          0.0000000000e+00 0.0000000000e+00 -3.6214883175e+03 
          0.0000000000e+00 0.0000000000e+00 -4.5279714072e+03 
          0.0000000000e+00 0.0000000000e+00 -3.7156421338e+03 
          0.0000000000e+00 0.0000000000e+00 -3.7156421338e+03 
          0.0000000000e+00 0.0000000000e+00 -2.0655564011e+03 
          0.0000000000e+00 0.0000000000e+00 -2.7848174559e+03 
          0.0000000000e+00 0.0000000000e+00 -2.7848174559e+03 
          0.0000000000e+00 0.0000000000e+00 -7.4001447245e+03 
          0.0000000000e+00 0.0000000000e+00 -7.4001447245e+03 
          0.0000000000e+00 0.0000000000e+00 -3.6913005456e+03 
          0.0000000000e+00 0.0000000000e+00 -6.7798798942e+03 
          0.0000000000e+00 0.0000000000e+00 -6.7798798942e+03 
          0.0000000000e+00 0.0000000000e+00 -3.7156421338e+03 
          0.0000000000e+00 0.0000000000e+00 -3.7156421338e+03 
          0.0000000000e+00 0.0000000000e+00 -2.0655564011e+03 
          0.0000000000e+00 0.0000000000e+00 -7.0798766519e+03 
          0.0000000000e+00 0.0000000000e+00 -7.0798766519e+03 
          0.0000000000e+00 0.0000000000e+00 -3.6214883175e+03 
          0.0000000000e+00 0.0000000000e+00 -6.7798798942e+03 
          0.0000000000e+00 0.0000000000e+00 -4.5279714072e+03 
          0.0000000000e+00 0.0000000000e+00 -2.7848174559e+03 
          0.0000000000e+00 0.0000000000e+00 -7.4001447245e+03 
          0.0000000000e+00 0.0000000000e+00 -3.7156421338e+03 
          0.0000000000e+00 0.0000000000e+00 -2.0655564011e+03 
          0.0000000000e+00 0.0000000000e+00 -3.6913005456e+03 
          0.0000000000e+00 0.0000000000e+00 -3.7156421338e+03 
          0.0000000000e+00 0.0000000000e+00 -2.0655564011e+03 
          0.0000000000e+00 0.0000000000e+00 -7.0798766519e+03 
          0.0000000000e+00 0.0000000000e+00 -1.9650427491e+03 
          0.0000000000e+00 0.0000000000e+00 -2.3745534311e+03 
          0.0000000000e+00 0.0000000000e+00 -2.3745534311e+03 
          0.0000000000e+00 0.0000000000e+00 -3.6214883175e+03 
          0.0000000000e+00 0.0000000000e+00 -6.7798798942e+03 
          0.0000000000e+00 0.0000000000e+00 -4.5279714072e+03 
          0.0000000000e+00 0.0000000000e+00 -2.7848174559e+03 
          0.0000000000e+00 0.0000000000e+00 -7.4001447245e+03 
          0.0000000000e+00 0.0000000000e+00 -3.7156421338e+03 
          0.0000000000e+00 0.0000000000e+00 -2.0655564011e+03 
          0.0000000000e+00 0.0000000000e+00 -3.6913005456e+03 
          0.0000000000e+00 0.0000000000e+00 -3.7156421338e+03 
          0.0000000000e+00 0.0000000000e+00 -2.0655564011e+03 
          0.0000000000e+00 0.0000000000e+00 -7.0798766519e+03 
          0.0000000000e+00 0.0000000000e+00 -4.5279714072e+03 
          0.0000000000e+00 0.0000000000e+00 -2.0655564011e+03 
          0.0000000000e+00 0.0000000000e+00 -3.6913005456e+03 
          0.0000000000e+00 0.0000000000e+00 -2.0655564011e+03 
          0.0000000000e+00 0.0000000000e+00 -1.9650427491e+03 
          0.0000000000e+00 0.0000000000e+00 -2.3745534311e+03 
          0.0000000000e+00 0.0000000000e+00 -2.3745534311e+03 
          0.0000000000e+00 0.0000000000e+00 -3.0701927752e+03 
          0.0000000000e+00 0.0000000000e+00 -3.0702153473e+03 
          0.0000000000e+00 0.0000000000e+00 -2.1793093919e+03 
          0.0000000000e+00 0.0000000000e+00 -3.0701927752e+03 
          0.0000000000e+00 0.0000000000e+00 -3.0702153473e+03 
          0.0000000000e+00 0.0000000000e+00 -2.1793093919e+03 
          0.0000000000e+00 0.0000000000e+00 -3.0702153473e+03 
          0.0000000000e+00 0.0000000000e+00 -2.1793093919e+03 
          0.0000000000e+00 0.0000000000e+00 -3.0702153473e+03 
          0.0000000000e+00 0.0000000000e+00 -2.1793093919e+03 
          0.0000000000e+00 0.0000000000e+00 -3.0701927752e+03 
          0.0000000000e+00 0.0000000000e+00 -3.0702153473e+03 
          0.0000000000e+00 0.0000000000e+00 -2.1793093919e+03 
          0.0000000000e+00 0.0000000000e+00 -3.0701927752e+03 
          0.0000000000e+00 0.0000000000e+00 -3.0702153473e+03 
          0.0000000000e+00 0.0000000000e+00 -2.1793093919e+03 
          0.0000000000e+00 0.0000000000e+00 -3.0702153473e+03 
          0.0000000000e+00 0.0000000000e+00 -2.1793093919e+03 
          0.0000000000e+00 0.0000000000e+00 -3.0702153473e+03 
          0.0000000000e+00 0.0000000000e+00 -2.1793093919e+03 
          0.0000000000e+00 0.0000000000e+00 -3.0701927752e+03 
          0.0000000000e+00 0.0000000000e+00 -3.0702153473e+03 
          0.0000000000e+00 0.0000000000e+00 -2.1793093919e+03 
          0.0000000000e+00 0.0000000000e+00 -3.0701927752e+03 
          0.0000000000e+00 0.0000000000e+00 -3.0702153473e+03 
          0.0000000000e+00 0.0000000000e+00 -2.1793093919e+03 
          0.0000000000e+00 0.0000000000e+00 -3.0702153473e+03 
          0.0000000000e+00 0.0000000000e+00 -2.1793093919e+03 
          0.0000000000e+00 0.0000000000e+00 -3.0702153473e+03 
          0.0000000000e+00 0.0000000000e+00 -2.1793093919e+03 
          0.0000000000e+00 0.0000000000e+00 -1.9697243915e+03 
          0.0000000000e+00 0.0000000000e+00 -1.9697243915e+03 
          0.0000000000e+00 0.0000000000e+00 -5.3844791174e+02 
          0.0000000000e+00 0.0000000000e+00 -5.3844791174e+02 
          0.0000000000e+00 0.0000000000e+00 -5.3844791174e+02 
          0.0000000000e+00 0.0000000000e+00 -5.3844791174e+02 
          0.0000000000e+00 0.0000000000e+00 -2.6199605757e+03 
          0.0000000000e+00 0.0000000000e+00 -2.3665811127e+03 
          0.0000000000e+00 0.0000000000e+00 -2.1335821169e+03 
          0.0000000000e+00 0.0000000000e+00 -2.6199605757e+03 
          0.0000000000e+00 0.0000000000e+00 -2.3665811127e+03 
          0.0000000000e+00 0.0000000000e+00 -2.1335821169e+03 
          0.0000000000e+00 0.0000000000e+00 -2.6199605757e+03 
          0.0000000000e+00 0.0000000000e+00 -2.3665811127e+03 
          0.0000000000e+00 0.0000000000e+00 -2.1335821169e+03 
          0.0000000000e+00 0.0000000000e+00 -2.6199605757e+03 
          0.0000000000e+00 0.0000000000e+00 -2.3665811127e+03 
          0.0000000000e+00 0.0000000000e+00 -2.1335821169e+03 
          0.0000000000e+00 0.0000000000e+00 -1.9238715110e+03 
          0.0000000000e+00 0.0000000000e+00 -1.7315163795e+03 
          0.0000000000e+00 0.0000000000e+00 -1.5695392574e+03 
          0.0000000000e+00 0.0000000000e+00 -1.9238715110e+03 
          0.0000000000e+00 0.0000000000e+00 -1.7315163795e+03 
          0.0000000000e+00 0.0000000000e+00 -1.5695392574e+03 
          0.0000000000e+00 0.0000000000e+00 -1.9238715110e+03 
          0.0000000000e+00 0.0000000000e+00 -1.7315163795e+03 
          0.0000000000e+00 0.0000000000e+00 -1.5695392574e+03 
          0.0000000000e+00 0.0000000000e+00 -1.9238715110e+03 
          0.0000000000e+00 0.0000000000e+00 -1.7315163795e+03 
          0.0000000000e+00 0.0000000000e+00 -1.5695392574e+03 
        </DataArray>
      </PointData>
      <CellData>
        <DataArray type="Int64" Name="ElementTag" format="ascii">
          423
          424
          425
          426
          427
          428
          429
          430
          431
          432
          433
          434
          435
          436
          437
          438
          439
          440
          441
          442
          443
          444
          445
          446
          447
          448
          449
          450
          451
          452
          453
          454
          455
          456
          457
          458
          459
          460
          461
          462
          463
          464
          465
          466
          467
          468
          469
          470
          471
          472
          473
          474
          475
          476
          477
          478
          479
          480
          481
          482
          483
          484
          485
          486
          487
          488
          489
          490
          491
          492
          493
          494
          495
          496
          497
          498
          499
          500
          501
          502
          503
          504
          505
          506
          507
          508
          509
          510
          511
          512
          513
          514
          515
          516
          517
          518
          519
          520
          521
          522
          523
          524
          525
          526
          527
          528
          529
          530
          531
          532
          533
          534
          535
          536
          537
          538
          539
          540
          541
          542
          543
          544
          545
          546
          547
          548
          549
          550
          551
          552
          553
          554
          555
          556
          557
          558
          559
          560
          561
          562
          563
          564
          565
          566
          567
          568
          569
          570
          571
          572
          573
          574
          575
          576
          577
          578
          579
          580
          581
          582
          583
          584
          585
          586
          587
          588
          589
          590
          591
          592
          593
          594
          595
          596
          597
          598
          599
          600
          601
          602
          603
          604
          605
          606
          607
          608
          609
          610
          611
          612
          613
          614
          615
          616
          617
          618
          619
          620
          621
          622
          623
          624
          625
          626
          627
          628
          629
          630
          631
          632
          633
          634
          635
          636
          637
          638
          639
          640
          641
          642
          643
          644
          645
          646
          647
          648
          649
          650
          651
          652
          653
          654
          655
          656
          657
          658
          659
          660
          661
          662
          663
          664
          665
          666
          667
          668
          669
          670
          671
          672
          673
          674
          675
          676
          677
          678
          679
          680
          681
          682
          683
          684
          685
          686
          687
          688
          689
          690
          691
          692
          693
          694
          695
          696
          697
          698
          699
          700
          701
          702
          703
          704
          705
          706
          707
          708
          709
          710
          711
          712
          713
          714
          715
          716
          717
          718
          719
          720
          721
          722
          723
          724
          725
          726
          727
          728
          729
          730
          731
          732
          733
          734
          735
          736
          737
          738
          739
          740
          741
          742
          743
          744
          745
          746
          747
          748
          749
          750
          751
          752
          753
          754
          755
          756
          757
          758
          759
          760
          761
          762
          763
          764
          765
          766
          767
          768
          769
          770
          771
          772
          773
          774
          775
          776
          777
          778
          779
          780
          781
          782
          783
          784
          785
          786
          787
          788
          789
          790
          791
          792
          793
          794
          795
          796
          797
          798
          799
          800
          801
          802
          803
          804
          805
          806
          807
          808
          809
          810
          811
          812
          813
          814
          815
          816
          817
          818
          819
          820
          821
          822
          823
          824
          825
          826
          827
          828
          829
          830
          831
          832
          833
          834
          835
          836
          837
          838
          839
          840
          841
          842
          843
          844
        </DataArray>
      </CellData>
    </Piece>
  </UnstructuredGrid>
</VTKFile>
