<?xml version="1.0"?>
<VTKFile type="UnstructuredGrid" version="1.0" byte_order="LittleEndian" compressor="vtkZLibDataCompressor">
  <UnstructuredGrid>
    <Piece NumberOfPoints="158" NumberOfCells="1">
      <Points>
        <DataArray type="Float64" Name="Points" NumberOfComponents="3" format="ascii">
          1.7550000000e+00 -1.7550000000e+00 0.0000000000e+00 
          1.4140000000e+00 0.0000000000e+00 5.2300000000e+00 
          1.7550000000e+00 1.7550000000e+00 -0.0000000000e+00 
          1.4140000000e+00 -1.4140000000e+00 5.2300000000e+00 
          1.4140000000e+00 1.4140000000e+00 5.2300000000e+00 
          1.5840000000e+00 8.7800000000e-01 2.6150000000e+00 
          1.5840000000e+00 -8.7700000000e-01 2.6150000000e+00 
          1.5840000000e+00 1.5840000000e+00 2.6150000000e+00 
          1.5840000000e+00 -1.5840000000e+00 2.6150000000e+00 
          -0.0000000000e+00 1.4140000000e+00 5.2300000000e+00 
          -1.7550000000e+00 1.7550000000e+00 -0.0000000000e+00 
          -1.4140000000e+00 1.4140000000e+00 5.2300000000e+00 
          -8.7700000000e-01 1.5840000000e+00 2.6150000000e+00 
          8.7700000000e-01 1.5840000000e+00 2.6150000000e+00 
          -1.5840000000e+00 1.5840000000e+00 2.6150000000e+00 
          -1.4140000000e+00 -0.0000000000e+00 5.2300000000e+00 
          -1.7550000000e+00 -1.7550000000e+00 -0.0000000000e+00 
          -1.4140000000e+00 -1.4140000000e+00 5.2300000000e+00 
          -1.5840000000e+00 -8.7700000000e-01 2.6150000000e+00 
          -1.5840000000e+00 8.7700000000e-01 2.6150000000e+00 
          -1.5840000000e+00 -1.5840000000e+00 2.6150000000e+00 
          0.0000000000e+00 -1.4140000000e+00 5.2300000000e+00 
          8.7700000000e-01 -1.5840000000e+00 2.6150000000e+00 
          -8.7700000000e-01 -1.5840000000e+00 2.6150000000e+00 
          1.2750000000e+00 1.2750000000e+00 7.3500000000e+00 
          1.2750000000e+00 -1.2750000000e+00 7.3500000000e+00 
          1.1500000000e+00 -1.1500000000e+00 9.2700000000e+00 
          1.1500000000e+00 1.1500000000e+00 9.2700000000e+00 
          1.0370000000e+00 -1.0370000000e+00 1.1000000000e+01 
          1.0370000000e+00 1.0370000000e+00 1.1000000000e+01 
          -1.2750000000e+00 1.2750000000e+00 7.3500000000e+00 
          -1.1500000000e+00 1.1500000000e+00 9.2700000000e+00 
          -1.0370000000e+00 1.0370000000e+00 1.1000000000e+01 
          -1.2750000000e+00 -1.2750000000e+00 7.3500000000e+00 
          -1.1500000000e+00 -1.1500000000e+00 9.2700000000e+00 
          -1.0370000000e+00 -1.0370000000e+00 1.1000000000e+01 
          9.3500000000e-01 9.3500000000e-01 1.2560000000e+01 
          9.3500000000e-01 -9.3500000000e-01 1.2560000000e+01 
          8.4300000000e-01 8.4300000000e-01 1.3960000000e+01 
          8.4300000000e-01 -8.4300000000e-01 1.3960000000e+01 
          7.6000000000e-01 7.6000000000e-01 1.5240000000e+01 
          7.6000000000e-01 -7.6000000000e-01 1.5240000000e+01 
          -9.3500000000e-01 9.3500000000e-01 1.2560000000e+01 
          -8.4300000000e-01 8.4300000000e-01 1.3960000000e+01 
          -7.6000000000e-01 7.6000000000e-01 1.5240000000e+01 
          -9.3500000000e-01 -9.3500000000e-01 1.2560000000e+01 
          -8.4300000000e-01 -8.4300000000e-01 1.3960000000e+01 
          -7.6000000000e-01 -7.6000000000e-01 1.5240000000e+01 
          7.6000000000e-01 -7.6000000000e-01 1.6240000000e+01 
          7.6000000000e-01 7.6000000000e-01 1.6240000000e+01 
          7.6000000000e-01 0.0000000000e+00 1.6240000000e+01 
          7.6000000000e-01 7.6000000000e-01 1.7340000000e+01 
          7.6000000000e-01 -7.6000000000e-01 1.7340000000e+01 
          7.6000000000e-01 0.0000000000e+00 1.7890000000e+01 
          7.6000000000e-01 -7.6000000000e-01 1.9440000000e+01 
          7.6000000000e-01 7.6000000000e-01 1.9440000000e+01 
          7.6000000000e-01 -7.6000000000e-01 2.1640000000e+01 
          7.6000000000e-01 7.6000000000e-01 2.1640000000e+01 
          7.6000000000e-01 0.0000000000e+00 1.9440000000e+01 
          7.6000000000e-01 7.6000000000e-01 1.8440000000e+01 
          7.6000000000e-01 -7.6000000000e-01 1.8440000000e+01 
          7.6000000000e-01 -7.6000000000e-01 2.0540000000e+01 
          7.6000000000e-01 7.6000000000e-01 2.0540000000e+01 
          7.6000000000e-01 0.0000000000e+00 2.1090000000e+01 
          7.6000000000e-01 7.6000000000e-01 2.2640000000e+01 
          7.6000000000e-01 -7.6000000000e-01 2.2640000000e+01 
          -7.6000000000e-01 7.6000000000e-01 1.6240000000e+01 
          -7.6000000000e-01 7.6000000000e-01 1.8440000000e+01 
          -0.0000000000e+00 7.6000000000e-01 1.6240000000e+01 
          -7.6000000000e-01 7.6000000000e-01 1.9440000000e+01 
          -7.6000000000e-01 7.6000000000e-01 2.1640000000e+01 
          -7.6000000000e-01 7.6000000000e-01 1.7340000000e+01 
          -0.0000000000e+00 7.6000000000e-01 1.7890000000e+01 
          -0.0000000000e+00 7.6000000000e-01 1.9440000000e+01 
          -7.6000000000e-01 7.6000000000e-01 2.0540000000e+01 
          0.0000000000e+00 7.6000000000e-01 2.1090000000e+01 
          -7.6000000000e-01 7.6000000000e-01 2.2640000000e+01 
          -0.0000000000e+00 5.2600000000e-01 2.3499000000e+01 
          3.9900000000e-01 4.0400000000e-01 2.3950000000e+01 
          -3.9900000000e-01 4.0400000000e-01 2.3950000000e+01 
          -7.6000000000e-01 -7.6000000000e-01 1.6240000000e+01 
          -7.6000000000e-01 -7.6000000000e-01 1.8440000000e+01 
          -7.6000000000e-01 -0.0000000000e+00 1.6240000000e+01 
          -7.6000000000e-01 -7.6000000000e-01 1.9440000000e+01 
          -7.6000000000e-01 -7.6000000000e-01 2.1640000000e+01 
          -7.6000000000e-01 -7.6000000000e-01 1.7340000000e+01 
          -7.6000000000e-01 0.0000000000e+00 1.7890000000e+01 
          -7.6000000000e-01 -0.0000000000e+00 1.9440000000e+01 
          -7.6000000000e-01 -7.6000000000e-01 2.0540000000e+01 
          -7.6000000000e-01 -0.0000000000e+00 2.1090000000e+01 
          -7.6000000000e-01 -7.6000000000e-01 2.2640000000e+01 
          0.0000000000e+00 -7.6000000000e-01 1.6240000000e+01 
          0.0000000000e+00 -7.6000000000e-01 1.7890000000e+01 
          0.0000000000e+00 -7.6000000000e-01 1.9440000000e+01 
          0.0000000000e+00 -7.6000000000e-01 2.1090000000e+01 
          0.0000000000e+00 -5.2600000000e-01 2.3499000000e+01 
          3.9900000000e-01 -4.0400000000e-01 2.3950000000e+01 
          -3.9900000000e-01 -4.0400000000e-01 2.3950000000e+01 
          -0.0000000000e+00 -3.3500000000e+00 2.1640000000e+01 
          -3.8000000000e-01 -2.0550000000e+00 2.2140000000e+01 
          -3.8000000000e-01 -2.0550000000e+00 2.1640000000e+01 
          0.0000000000e+00 3.3500000000e+00 2.1640000000e+01 
          -3.8000000000e-01 2.0550000000e+00 2.2140000000e+01 
          -3.8000000000e-01 2.0550000000e+00 2.1640000000e+01 
          3.8000000000e-01 2.0550000000e+00 2.2140000000e+01 
          3.8000000000e-01 2.0550000000e+00 2.1640000000e+01 
          3.8000000000e-01 -2.0550000000e+00 2.2140000000e+01 
          3.8000000000e-01 -2.0550000000e+00 2.1640000000e+01 
          -0.0000000000e+00 -3.3500000000e+00 1.8440000000e+01 
          -3.8000000000e-01 -2.0550000000e+00 1.8940000000e+01 
          -3.8000000000e-01 -2.0550000000e+00 1.8440000000e+01 
          -0.0000000000e+00 3.3500000000e+00 1.8440000000e+01 
          -3.8000000000e-01 2.0550000000e+00 1.8940000000e+01 
          -3.8000000000e-01 2.0550000000e+00 1.8440000000e+01 
          3.8000000000e-01 2.0550000000e+00 1.8940000000e+01 
          3.8000000000e-01 2.0550000000e+00 1.8440000000e+01 
          3.8000000000e-01 -2.0550000000e+00 1.8940000000e+01 
          3.8000000000e-01 -2.0550000000e+00 1.8440000000e+01 
          -0.0000000000e+00 -3.3500000000e+00 1.5240000000e+01 
          -3.8000000000e-01 -2.0550000000e+00 1.5740000000e+01 
          -3.8000000000e-01 -2.0550000000e+00 1.5240000000e+01 
          -0.0000000000e+00 3.3500000000e+00 1.5240000000e+01 
          -3.8000000000e-01 2.0550000000e+00 1.5740000000e+01 
          -3.8000000000e-01 2.0550000000e+00 1.5240000000e+01 
          3.8000000000e-01 2.0550000000e+00 1.5740000000e+01 
          3.8000000000e-01 2.0550000000e+00 1.5240000000e+01 
          3.8000000000e-01 -2.0550000000e+00 1.5740000000e+01 
          3.8000000000e-01 -2.0550000000e+00 1.5240000000e+01 
          -5.2400000000e-01 0.0000000000e+00 2.3496000000e+01 
          5.2400000000e-01 0.0000000000e+00 2.3496000000e+01 
          4.0000000000e-02 5.0000000000e-02 2.5250000000e+01 
          -4.0000000000e-02 5.0000000000e-02 2.5250000000e+01 
          -4.0000000000e-02 -5.0000000000e-02 2.5250000000e+01 
          4.0000000000e-02 -5.0000000000e-02 2.5250000000e+01 
          1.3410000000e+00 0.0000000000e+00 6.3450000000e+00 
          1.2090000000e+00 0.0000000000e+00 8.3600000000e+00 
          1.0900000000e+00 -0.0000000000e+00 1.0180000000e+01 
          -0.0000000000e+00 1.3410000000e+00 6.3450000000e+00 
          0.0000000000e+00 1.2090000000e+00 8.3600000000e+00 
          -0.0000000000e+00 1.0900000000e+00 1.0180000000e+01 
          -1.3410000000e+00 0.0000000000e+00 6.3450000000e+00 
          -1.2090000000e+00 0.0000000000e+00 8.3600000000e+00 
          -1.0900000000e+00 -0.0000000000e+00 1.0180000000e+01 
          -0.0000000000e+00 -1.3410000000e+00 6.3450000000e+00 
          0.0000000000e+00 -1.2090000000e+00 8.3600000000e+00 
          0.0000000000e+00 -1.0900000000e+00 1.0180000000e+01 
          9.8300000000e-01 0.0000000000e+00 1.1820000000e+01 
          8.8700000000e-01 0.0000000000e+00 1.3296000000e+01 
          8.0000000000e-01 -0.0000000000e+00 1.4633000000e+01 
          0.0000000000e+00 9.8300000000e-01 1.1820000000e+01 
          -0.0000000000e+00 8.8700000000e-01 1.3296000000e+01 
          0.0000000000e+00 8.0000000000e-01 1.4633000000e+01 
          -9.8300000000e-01 0.0000000000e+00 1.1820000000e+01 
          -8.8700000000e-01 0.0000000000e+00 1.3296000000e+01 
          -8.0000000000e-01 0.0000000000e+00 1.4633000000e+01 
          0.0000000000e+00 -9.8300000000e-01 1.1820000000e+01 
          0.0000000000e+00 -8.8700000000e-01 1.3296000000e+01 
          0.0000000000e+00 -8.0000000000e-01 1.4633000000e+01 
        </DataArray>
      </Points>
      <Cells>
        <DataArray type="Int64" Name="connectivity" format="ascii">
          0
          1
          2
          3
          4
          5
          6
          7
          8
          9
          10
          11
          12
          13
          14
          15
          16
          17
          18
          19
          20
          21
          22
          23
          24
          25
          26
          27
          28
          29
          30
          31
          32
          33
          34
          35
          36
          37
          38
          39
          40
          41
          42
          43
          44
          45
          46
          47
          48
          49
          50
          51
          52
          53
          54
          55
          56
          57
          58
          59
          60
          61
          62
          63
          64
          65
          66
          67
          68
          69
          70
          71
          72
          73
          74
          75
          76
          77
          78
          79
          80
          81
          82
          83
          84
          85
          86
          87
          88
          89
          90
          91
          92
          93
          94
          95
          96
          97
          98
          99
          100
          101
          102
          103
          104
          105
          106
          107
          108
          109
          110
          111
          112
          113
          114
          115
          116
          117
          118
          119
          120
          121
          122
          123
          124
          125
          126
          127
          128
          129
          130
          131
          132
          133
          134
          135
          136
          137
          138
          139
          140
          141
          142
          143
          144
          145
          146
          147
          148
          149
          150
          151
          152
          153
          154
          155
          156
          157
        </DataArray>
        <DataArray type="Int64" Name="offsets" format="ascii">
          158
        </DataArray>
        <DataArray type="Int64" Name="types" format="ascii">
          2
        </DataArray>
      </Cells>
      <PointData>
        <DataArray type="Int64" Name="NodeTag" format="ascii">
          1
          2
          3
          4
          5
          6
          7
          8
          9
          10
          11
          12
          13
          14
          15
          16
          17
          18
          19
          20
          21
          22
          23
          24
          25
          26
          27
          28
          29
          30
          31
          32
          33
          34
          35
          36
          37
          38
          39
          40
          41
          42
          43
          44
          45
          46
          47
          48
          49
          50
          51
          52
          53
          54
          55
          56
          57
          58
          59
          60
          61
          62
          63
          64
          65
          66
          67
          68
          69
          70
          71
          72
          73
          74
          75
          76
          77
          78
          79
          80
          81
          82
          83
          84
          85
          86
          87
          88
          89
          90
          91
          92
          93
          94
          95
          96
          97
          98
          99
          100
          101
          102
          103
          104
          105
          106
          107
          108
          109
          110
          111
          112
          113
          114
          115
          116
          117
          118
          119
          120
          121
          122
          123
          124
          125
          126
          127
          128
          129
          130
          131
          132
          133
          134
          135
          136
          137
          138
          139
          140
          141
          142
          143
          144
          145
          146
          147
          148
          149
          150
          151
          152
          153
          154
          155
          156
          157
          158
        </DataArray>
        <DataArray type="Float64" Name="Displacement" NumberOfComponents="3" format="ascii">
          0.0000000000e+00 0.0000000000e+00 0.0000000000e+00 
          -3.9377103435e-04 1.3361213025e-04 -1.1543433734e-04 
          0.0000000000e+00 0.0000000000e+00 0.0000000000e+00 
          -4.6645436467e-05 1.3834831194e-04 -6.5317019906e-04 
          1.2063425184e-05 1.3325725898e-04 -6.4789145135e-04 
          -1.0331151392e-03 -9.7324267997e-04 -4.8453222188e-04 
          -1.5837515727e-03 1.2132480532e-03 -5.4627925385e-04 
          -1.0970890878e-03 -9.7168291138e-04 -4.7878890817e-04 
          -1.1309497335e-03 1.2130753397e-03 -4.8819163861e-04 
          1.7315735112e-05 2.4248988796e-04 -7.5106867844e-05 
          0.0000000000e+00 0.0000000000e+00 0.0000000000e+00 
          2.3172583068e-05 8.6551455678e-05 -6.3751774124e-04 
          1.0918334419e-03 -1.1322834866e-03 -5.0130294858e-04 
          -1.0980405567e-03 -1.0372363125e-03 -5.0188630924e-04 
          1.0909155077e-03 -9.8615910362e-04 -4.7132919012e-04 
          2.5243815061e-04 8.9089718658e-05 -1.0860228511e-04 
          0.0000000000e+00 0.0000000000e+00 0.0000000000e+00 
          -3.9466156677e-05 9.5118041116e-05 -6.0197520719e-04 
          1.0579468662e-03 1.0743558894e-03 -4.7842217384e-04 
          9.7206667055e-04 -9.8749904861e-04 -4.7739205819e-04 
          9.4357106902e-04 1.0731369174e-03 -4.4558112337e-04 
          -4.2828414531e-05 5.8081774264e-05 -9.4184877198e-05 
          -1.1312221885e-03 8.6634677431e-04 -4.8890845310e-04 
          9.4517873088e-04 8.8809392264e-04 -4.4954262538e-04 
          1.9179759129e-04 2.6013966814e-04 -8.7120427217e-04 
          1.5752191129e-04 4.1216708867e-05 -8.4702414982e-04 
          7.6141213534e-05 1.3619261425e-04 -1.0359050167e-03 
          6.0199724357e-05 2.2414535760e-04 -1.0856753026e-03 
          1.6478326261e-04 1.7149517936e-04 -1.1713015849e-03 
          1.5933891369e-04 2.9682625588e-04 -1.2391949125e-03 
          -1.1988170889e-04 2.4365962923e-04 -8.5629400332e-04 
          4.2798858486e-05 1.4292786604e-04 -1.0734921525e-03 
          -4.6406821659e-05 2.8128599488e-04 -1.2232644434e-03 
          -1.4040766384e-04 -2.9728559437e-05 -8.0041609063e-04 
          4.1920282534e-05 1.2655433159e-04 -9.9801919750e-04 
          3.2363922402e-05 8.4013871557e-05 -1.1333899456e-03 
          9.1957285548e-05 3.6496916994e-04 -1.4174158217e-03 
          1.8094928217e-04 2.5979044181e-04 -1.3244561593e-03 
          1.2644932777e-04 4.7578211583e-04 -1.5566765760e-03 
          2.2595028575e-04 3.3811622539e-04 -1.4505997240e-03 
          6.6973111017e-05 5.0296878180e-04 -1.6791820664e-03 
          2.2642030741e-04 5.2526580644e-04 -1.5615287952e-03 
          1.7742178379e-05 2.7675965378e-04 -1.4069682668e-03 
          -1.8983796335e-05 4.2007895373e-04 -1.5441306986e-03 
          3.3332833370e-05 4.2927655326e-04 -1.6692571133e-03 
          8.9228666721e-05 2.2441283088e-04 -1.2938861928e-03 
          1.2157451382e-04 2.5716624056e-04 -1.4197654647e-03 
          1.9674777049e-04 4.5421518569e-04 -1.5362579462e-03 
          2.3811499007e-04 5.9848869900e-04 -1.6852938359e-03 
          4.4672594641e-05 6.2325806275e-04 -1.8322505075e-03 
          2.2722334137e-04 6.1108748295e-04 -1.6811045197e-03 
          2.5343991839e-04 9.8608749101e-04 -1.9766484379e-03 
          4.4329465357e-04 5.4807496326e-04 -1.7967001357e-03 
          2.1180909010e-04 8.4099650319e-04 -2.1575760566e-03 
          3.0111691484e-04 1.0499440201e-03 -2.0553450595e-03 
          3.6431856204e-05 1.0984472944e-03 -2.2814972537e-03 
          3.2877568658e-04 1.4882867671e-03 -2.2149088274e-03 
          5.5321684228e-05 1.4335290245e-03 -2.4690108061e-03 
          2.2930248494e-04 1.0752634671e-03 -2.1109914840e-03 
          4.7404266463e-05 9.0090605628e-04 -2.1920892245e-03 
          2.9730994138e-04 9.5131916324e-04 -1.9808112344e-03 
          4.1849097714e-04 1.1336039328e-03 -2.1150674037e-03 
          1.6034840063e-04 1.4044926520e-03 -2.3580807763e-03 
          1.2130510266e-04 1.3630692895e-03 -2.4046346157e-03 
          6.7966407737e-05 1.6627510253e-03 -2.5081051366e-03 
          3.2630452502e-04 1.5990530580e-03 -2.2503028563e-03 
          5.0532458778e-05 5.4693113204e-04 -1.8219570753e-03 
          3.8624831331e-05 7.8542269229e-04 -2.1807526631e-03 
          4.7394633563e-05 6.0132184196e-04 -1.7635341256e-03 
          4.8721430714e-05 9.7499832425e-04 -2.2690776775e-03 
          5.1557806381e-05 1.2628713276e-03 -2.4537704261e-03 
          -1.6693902628e-04 8.8688639322e-04 -1.9647828097e-03 
          4.3187954828e-05 8.4693962788e-04 -2.2234609426e-03 
          4.2872770984e-05 7.7295376648e-04 -2.2364480465e-03 
          -6.8283508714e-05 1.2559519709e-03 -2.3432407758e-03 
          4.9586446524e-05 1.3690961055e-03 -2.4871501703e-03 
          6.0608938891e-05 1.4826092513e-03 -2.4924658558e-03 
          1.0108399247e-04 1.6449841013e-03 -2.4941606422e-03 
          1.2131756191e-04 1.7921999726e-03 -2.4745569775e-03 
          1.2015727013e-04 1.7114652223e-03 -2.4617230908e-03 
          2.4418728823e-04 5.2218970909e-04 -1.6629860627e-03 
          2.8550612637e-04 8.3392663834e-04 -1.9666587639e-03 
          1.1442527492e-04 5.3393617070e-04 -1.6638351766e-03 
          3.1350116358e-04 9.2416359397e-04 -2.0460694357e-03 
          3.2187758196e-04 1.3180682245e-03 -2.2158200987e-03 
          9.5788852820e-05 4.4722760517e-04 -1.7778622596e-03 
          -7.1223127976e-06 7.3359010395e-04 -2.1434350890e-03 
          1.9774290822e-06 9.4998278328e-04 -2.0997204550e-03 
          2.1920143782e-04 9.8221118943e-04 -2.1108100871e-03 
          1.9550902785e-04 1.2038897360e-03 -2.3973858282e-03 
          3.2023572405e-04 1.4158554441e-03 -2.2555071333e-03 
          2.4106786800e-04 6.2879790708e-04 -1.6209092326e-03 
          2.8133597229e-04 7.3409687112e-04 -1.9994846447e-03 
          3.0746428956e-04 8.3895613962e-04 -2.0168477745e-03 
          3.2313478320e-04 1.1631163005e-03 -2.2341280945e-03 
          2.9176412004e-04 1.7220921122e-03 -2.3243799511e-03 
          2.7334377794e-04 1.7964785324e-03 -2.3308833244e-03 
          2.7294116834e-04 1.7155712820e-03 -2.3414210256e-03 
          6.3581059271e-04 1.4413213122e-03 -2.2794777251e-03 
          5.8138226053e-04 1.4253936795e-03 -2.2285291698e-03 
          6.1697653787e-04 1.4206674290e-03 -2.2318235770e-03 
          -2.4462320303e-04 1.3127248700e-03 -3.3721099500e-03 
          -2.1019018230e-04 1.4692790860e-03 -2.8854048212e-03 
          -1.7835607873e-04 1.3112968496e-03 -2.8887468384e-03 
          -2.1011986030e-04 1.4871582723e-03 -2.8934543043e-03 
          -1.7823059176e-04 1.3486726220e-03 -2.8964089634e-03 
          5.8126326271e-04 1.4516203351e-03 -2.2070348045e-03 
          6.1700761631e-04 1.4261952563e-03 -2.2100773211e-03 
          5.1017586553e-04 9.3067612197e-04 -2.1097787118e-03 
          5.8046808099e-04 9.3575573378e-04 -2.0190551941e-03 
          5.9569588033e-04 9.4060774867e-04 -2.0222933780e-03 
          -1.6510230962e-04 8.0767445747e-04 -3.0743769732e-03 
          -1.9070737704e-05 9.2735065464e-04 -2.5958998199e-03 
          -3.1558696937e-05 7.8716078501e-04 -2.5990576989e-03 
          -1.9358248292e-05 1.0092073714e-03 -2.6125624304e-03 
          -3.1490339026e-05 8.6225679504e-04 -2.6156522635e-03 
          5.8033198689e-04 8.9343782661e-04 -2.0082626241e-03 
          5.9572818508e-04 8.8550908954e-04 -2.0113625267e-03 
          3.4277963239e-04 5.2902735433e-04 -1.7966781900e-03 
          4.5800161474e-04 5.2358853922e-04 -1.6472662875e-03 
          4.6839446441e-04 5.4988960846e-04 -1.6504859079e-03 
          -8.0221546991e-05 4.2629998329e-04 -2.4413411864e-03 
          -1.0223942822e-04 5.7061013664e-04 -2.0283404235e-03 
          -8.3227320557e-05 4.4495204135e-04 -2.0316009185e-03 
          -1.0240034972e-04 5.5658863523e-04 -2.0348921288e-03 
          -8.3176742365e-05 4.4215682062e-04 -2.0379059889e-03 
          4.5786068573e-04 4.6027039764e-04 -1.6449417227e-03 
          4.6851512033e-04 4.7371182207e-04 -1.6480229059e-03 
          2.6044631572e-04 1.6225246050e-03 -2.4236005618e-03 
          1.4700153263e-04 1.7367625640e-03 -2.4214127177e-03 
          2.0231839809e-04 1.9806198188e-03 -2.4062060231e-03 
          2.0237750905e-04 1.9668826150e-03 -2.4188857109e-03 
          2.1975209883e-04 1.9670099675e-03 -2.4023932223e-03 
          2.1969758201e-04 1.9806334289e-03 -2.3959644455e-03 
          -8.9288908790e-03 1.3687897342e-04 -1.2854288506e-03 
          -2.1092486448e-03 1.6073801077e-04 -1.1563132135e-03 
          -1.4533143247e-03 2.0324742779e-04 -1.2318959115e-03 
          2.6344659655e-05 3.4850161417e-04 -6.5318345894e-04 
          4.3700872227e-05 3.2170758208e-03 -8.7911433664e-04 
          5.4132531437e-05 1.9099127373e-03 -9.9590071853e-04 
          5.6148259252e-03 9.3923071825e-05 -1.0183738062e-03 
          1.0771419919e-03 1.1574171083e-04 -1.0965482814e-03 
          1.2952776309e-03 1.5416542190e-04 -1.1417499605e-03 
          -1.4802585114e-05 8.9799106564e-03 -1.2268759814e-03 
          3.5225600231e-05 4.6565490798e-04 -1.0397169776e-03 
          8.0268698316e-05 -5.8893166460e-04 -1.0159118167e-03 
          -7.4960370530e-04 2.6953942290e-04 -1.3604145880e-03 
          -2.1955152826e-04 3.5764504172e-04 -1.4568273130e-03 
          1.3565309392e-04 4.5965483730e-04 -1.6190998567e-03 
          5.5466709474e-05 9.4922289599e-04 -1.3279780726e-03 
          5.3912906522e-05 5.3562039641e-04 -1.4546720238e-03 
          5.1840763017e-05 3.0188576978e-04 -1.6620227701e-03 
          7.1316345778e-04 2.1158064977e-04 -1.3621483394e-03 
          3.8466683521e-04 2.9109447883e-04 -1.4085666070e-03 
          1.8229713411e-04 3.8781555671e-04 -1.6125249987e-03 
          1.1788326321e-04 -3.8046970532e-04 -1.2135833405e-03 
          1.5535298704e-04 -2.7725483736e-05 -1.3541720661e-03 
          1.9414988390e-04 3.4935887084e-04 -1.5172875934e-03 
        </DataArray>
        <DataArray type="Float64" Name="Reaction" NumberOfComponents="3" format="ascii">
          -6.6620049435e+03 5.9461617477e+03 1.0042729449e+05 
          -5.5188633021e+02 4.6785631795e+02 8.1129384398e+00 
          -8.6151624879e+03 -9.9607940044e+03 1.1553794313e+05 
          1.6188865125e+03 -6.2457207718e+01 -1.6612410397e+03 
          1.1173329187e+02 1.3076876134e+03 -5.2477479326e+02 
          4.0293129179e+02 5.5246144401e+02 2.8346289214e-02 
          -7.2537168808e+02 6.6089397093e+02 -3.6487512980e+00 
          -2.4809769873e+02 4.6005513652e+02 2.3310459637e+00 
          -2.4027016779e+02 3.9106974293e+02 2.9184820137e+00 
          1.9979135144e+02 4.8391962544e+02 2.6042560315e+00 
          8.0955614545e+03 -9.2116510390e+03 1.1121945638e+05 
          4.8013343759e+02 5.5841097495e+02 -1.6951919860e+01 
          -4.0998145534e+01 -1.1140944243e+02 -3.3439424011e-01 
          -2.4247528692e+02 1.0061945333e+02 8.5331420264e-01 
          7.4730494648e+01 4.2278899227e+02 2.8742545959e-01 
          2.4828338687e+02 2.4670492075e+02 5.6369869818e-01 
          8.3401561707e+03 6.9311316458e+03 1.0240461102e+05 
          -1.7685488192e+03 3.7548317141e+02 -1.1971342089e+03 
          -4.3232280614e+02 3.6422846796e+02 -4.3447207961e-01 
          -2.1493769886e+02 4.1023783020e+02 -4.9024208645e-01 
          -2.4521092734e+02 2.1427828057e+02 6.2418260551e-01 
          -1.5847193327e+02 -1.5983414385e+01 7.2436587347e+00 
          -3.4300485873e+02 1.4011034021e+02 -1.0504453501e+00 
          -3.4725856477e+02 -5.5206924427e+02 -6.2527269835e+00 
          1.9884452928e+02 3.3034583259e+02 6.1887158493e+02 
          1.8769440320e+03 -4.3460407294e+02 1.9221488360e+03 
          4.0914474148e+02 -3.4208798091e+02 1.4694257738e+02 
          2.1850067232e+02 -6.0315056433e+00 -3.9492860686e+00 
          -1.6710614807e+02 -6.4892217425e+00 -6.9790225338e+00 
          3.4251816803e+02 -3.0952289156e+02 2.7183462507e+01 
          9.6178849193e+01 -6.7874852312e+01 -3.4750041074e+01 
          2.0781472878e+02 -2.9499995145e+02 4.9643304889e+01 
          -7.4206691855e+01 1.4420256736e+02 2.0534883033e+01 
          -1.9559912336e+03 -1.4029870341e+02 1.3389969557e+03 
          -1.0966853487e+02 9.7680853239e+01 1.6197935789e+02 
          1.4789600826e+02 -2.4180450901e+02 -2.8649081760e+00 
          -1.1596116008e+02 1.6359821199e+02 1.3111748168e+01 
          2.6908609373e+01 -2.5166814187e+02 8.2881355975e+00 
          6.0245734730e+01 -8.3171394652e+01 7.4344419781e+00 
          -1.1883216392e+01 5.3499882687e+01 1.3853816345e+01 
          -5.2609219448e+01 4.6079871504e+01 3.2317717427e+00 
          -8.8490733741e+01 5.6781179424e+00 -1.1909397052e-01 
          1.0227782769e+02 -1.5361772750e+02 7.7201131344e+00 
          2.1342451641e+01 -9.9763121160e+00 2.1132496258e-01 
          -4.5909926643e+01 6.3881825871e+01 1.8322938695e+00 
          -2.4076140865e+02 -6.7601013987e+00 -4.7067831180e-01 
          -8.1725534091e+01 -2.2503537114e+01 1.3369176981e+01 
          -7.2543152264e+01 2.3510673010e+01 8.6161922353e-01 
          1.3490641012e+01 -1.3259764192e+01 3.1698572778e-01 
          -1.0385040532e+01 -1.2211690145e+01 7.3013107813e-02 
          2.3601077267e+02 4.8334861723e+00 -2.0779471707e-01 
          8.9805421759e+00 4.9942549112e+01 -1.2168043134e+00 
          5.4391257488e+01 3.6129531072e+01 2.8318681050e+00 
          -1.2370879860e+02 3.3359239150e+01 3.5193227054e-02 
          -2.7941032826e+01 -1.7281627887e+01 5.6117642174e-01 
          -7.6276436533e+00 1.2356636487e+02 2.8451096717e-01 
          1.4942578641e+02 1.7148033207e+02 1.7350816150e+00 
          -5.9940777372e+01 1.2944004022e+02 5.7781228049e+00 
          1.3420572507e+02 3.5019595354e+01 6.0670492745e+00 
          -4.4426271671e+01 2.0472831151e+02 -5.8560176809e+01 
          9.6790789401e+01 1.1458872133e+02 -2.2394847080e+01 
          4.3200068520e+01 6.2808797561e+01 1.9967524686e+01 
          -2.6980684249e+01 1.1825982741e+02 4.6439021685e+01 
          -2.3417842615e+02 5.0640265333e+01 1.0525884492e-01 
          1.6686597173e+00 9.0283902519e+01 9.9193321240e-03 
          5.4440647394e+01 8.2153829101e+01 -9.6793146455e-04 
          -2.6188100751e+01 6.6003183521e+01 -8.9684869604e-02 
          -3.8028736048e+01 1.6378228495e+02 -6.0926779161e+01 
          -5.0760125310e+01 9.9908602469e+01 -4.3253168578e-01 
          -1.3192631594e+02 1.5591477684e+02 3.1428136963e-01 
          -4.7893090708e+01 1.2710933992e+02 7.4513347912e+00 
          1.4808613429e+00 -5.9914387594e+00 -7.5798236849e+00 
          -3.6684538723e+00 -2.3174122531e+01 1.8607441513e+00 
          -8.0568543834e+00 -5.9724553485e+02 1.2777669603e+01 
          -9.9109048773e+01 6.1963148680e+00 4.9335013001e+01 
          -3.9702727380e+01 9.2937049161e+01 1.7169631804e-01 
          -2.1361152514e+01 1.8676435372e+02 6.5336381324e-02 
          -1.6055933767e+01 4.2504704825e+01 -1.7634394077e-01 
          -2.2496057540e+00 3.7387894654e+01 2.4110768023e-01 
          -2.5945017093e+01 1.6164778847e+01 9.9194188236e-02 
          -3.5714702150e+01 7.2362104741e+01 2.8910809677e-01 
          7.0558948435e+01 1.0316506133e+02 -2.8749516653e+01 
          1.8410806513e+01 7.1169043953e+01 -1.9119954780e-02 
          2.9934820817e+01 -7.2085358992e+01 6.9709931167e-01 
          1.4497265344e+02 1.8762960392e+02 3.7647442827e+00 
          2.9367076246e+01 1.5138391039e+02 -2.1394371778e+00 
          -6.8243388337e+01 6.8405670833e+01 1.0856802187e-01 
          -3.5538738562e+02 8.5186493469e+01 4.3267102923e+00 
          3.5218359001e+01 9.5921462560e+01 2.9021109023e+01 
          1.2601180848e+02 4.7860044991e+01 -4.4220705082e-01 
          6.7232178223e+01 1.4601436566e+02 5.6913828263e-02 
          -2.5801388425e+01 3.1583535014e+02 -1.6692910424e+00 
          1.3892161416e+01 5.2591368197e+01 -1.5127057536e+00 
          3.5424365086e+01 -3.7766964553e+02 5.9053989897e-01 
          2.7440113045e+01 -8.8914340199e+01 -1.3618923195e-01 
          5.9058226870e+00 2.9291296968e+01 -1.7951711265e-01 
          3.2182081394e+00 3.1748451819e+01 2.2476334110e-01 
          -7.7100539307e-01 2.2174285340e+01 7.9574761756e-02 
          7.1746209064e+01 1.1987986704e+02 -4.0551359059e-02 
          3.5829177013e+01 7.5362212871e+01 3.4950433313e-01 
          5.9355265085e+01 8.2858622813e+01 -3.2919812776e-01 
          -1.3677308621e+01 3.9579183907e+01 -3.4522843436e-01 
          -9.9780237066e+01 8.9149748187e+01 6.0432062377e-01 
          9.8757222619e+00 1.8545657927e+01 -4.5018100993e-01 
          -9.0600319422e+01 4.3615330472e+01 5.6069367799e-01 
          9.9833711762e+00 4.2882655333e+01 -4.1730755779e-01 
          3.2188614630e+01 6.6484399020e+01 3.4285042521e-01 
          6.1466742196e+01 6.8774328424e+01 -3.2507747960e-01 
          3.7449353740e+01 6.5699659469e+01 -2.6559985174e+00 
          8.1841709088e+01 5.3024514721e+01 1.5347760282e+00 
          4.5071468743e+01 7.8458974621e+01 -3.2098637368e-01 
          -3.3796871574e+01 7.1944513260e+01 -8.3164522378e-02 
          4.1674031617e+01 4.6522076887e+01 6.9493076473e-01 
          -1.3231151558e+01 4.3250450008e+01 -6.0985211200e-01 
          4.3972815716e+01 9.9698204274e+01 3.9290394541e-01 
          -1.8111585263e+01 6.1011280443e+01 -3.5176259230e-01 
          9.0973804852e+01 1.0101407760e+02 1.6504066830e+00 
          6.3160656855e+01 3.8292824346e+01 -1.6078188801e-01 
          -7.9268024440e+01 -1.2376950734e+01 -3.4967776799e+00 
          7.0738896837e+01 5.0168269180e+01 1.7626670538e+00 
          5.1961233900e+01 3.9315119940e+01 -2.8753787286e-02 
          1.2777242397e+01 2.0686721360e+01 -4.5561797123e-01 
          -5.0260567835e+01 3.0360402176e+01 6.3096346921e-01 
          -5.0757275211e-02 1.4102062142e+01 -4.2227731156e-01 
          -5.1820722853e+01 -1.8579827199e+00 7.4554811391e-01 
          1.9229550922e+00 1.5808459709e+01 -5.4203135588e-01 
          8.8607701311e+01 -2.9102372856e+01 1.8194745351e+00 
          6.7858532345e+01 -1.8782354690e+01 -2.3333152358e-02 
          9.3647092166e+00 2.0353503119e+01 -1.3670455856e-01 
          -5.9174577676e+00 2.3185505651e+01 -8.4742578137e-02 
          -1.1261285413e+01 1.8811472787e+01 -1.9144425780e-02 
          -1.1738108257e+01 2.1682925019e+01 9.9999865854e-02 
          -1.7115855418e+01 2.0292653105e+01 1.4508552057e-01 
          -1.5766167399e+01 1.4285962992e+01 1.5474371655e-02 
          -1.7102634470e+03 -1.4333411531e+02 -2.1796589599e+02 
          -1.8335663617e+02 -2.6705171169e+01 1.7988484473e+00 
          -1.7517182884e+02 -5.4083803202e+01 3.0711561280e+00 
          -1.7082616916e+01 -2.4939400286e+02 -1.5499546887e+00 
          3.7175430994e+01 3.9585246403e+02 -3.5214752897e+00 
          4.6669618296e+01 2.8490135843e+02 -2.6263900445e+01 
          1.0892094017e+03 1.9579390371e+01 -2.2111866407e+00 
          1.5159962655e+01 -4.3429657884e+01 -3.5512650819e+00 
          1.2622467403e+02 -2.2510188958e+01 1.6806817756e+00 
          1.0361229309e+02 1.9767180590e+03 -5.4248425153e+02 
          -5.8663847168e+00 1.4768389416e+02 -9.2933368480e+01 
          1.7990319620e+01 -7.2471303484e+01 1.2867639981e+00 
          -1.2932049353e+02 -3.0869388938e+01 -9.1159522524e+00 
          -6.8384389639e+01 -8.3193605969e+00 3.6565144875e-01 
          3.9601117970e+01 1.0593315464e+01 -1.2621657157e+00 
          8.6465974374e+00 1.0551714748e+02 5.7965560761e-01 
          -1.8574400049e+00 3.1773480466e+01 -7.5347267277e-01 
          6.7383288321e+00 -1.1569700364e+02 -2.6076649721e-02 
          5.2227701627e+01 -1.5961637105e+01 -4.5517116044e+00 
          4.2000016610e+01 -1.1117053017e+01 4.6859501961e-01 
          3.1648334854e+01 -7.9141636091e+00 3.7567734139e-02 
          -1.3308391393e+01 -6.8178084927e+01 3.5543773898e+00 
          -1.9840505949e+01 -6.5682239774e+01 -6.8518111517e+00 
          -1.1824596622e+01 -1.0932121606e+01 2.4191402796e-01 
        </DataArray>
        <DataArray type="Float64" Name="UnbalancedLoad" NumberOfComponents="3" format="ascii">
          0.0000000000e+00 0.0000000000e+00 -7.9790771016e+03 
          0.0000000000e+00 0.0000000000e+00 -8.1761653828e+03 
          0.0000000000e+00 0.0000000000e+00 -7.9787663797e+03 
          0.0000000000e+00 0.0000000000e+00 -1.2883071725e+04 
          0.0000000000e+00 0.0000000000e+00 -1.2882875450e+04 
          0.0000000000e+00 0.0000000000e+00 -8.7171641646e+03 
          0.0000000000e+00 0.0000000000e+00 -8.7183390200e+03 
          0.0000000000e+00 0.0000000000e+00 -6.5224653096e+03 
          0.0000000000e+00 0.0000000000e+00 -6.5234438966e+03 
          0.0000000000e+00 0.0000000000e+00 -8.1758546541e+03 
          0.0000000000e+00 0.0000000000e+00 -7.9790771016e+03 
          0.0000000000e+00 0.0000000000e+00 -1.2883071725e+04 
          0.0000000000e+00 0.0000000000e+00 -8.7183390200e+03 
          0.0000000000e+00 0.0000000000e+00 -8.7183390200e+03 
          0.0000000000e+00 0.0000000000e+00 -6.5234438966e+03 
          0.0000000000e+00 0.0000000000e+00 -8.1758546541e+03 
          0.0000000000e+00 0.0000000000e+00 -7.9790771016e+03 
          0.0000000000e+00 0.0000000000e+00 -1.2883071725e+04 
          0.0000000000e+00 0.0000000000e+00 -8.7183390200e+03 
          0.0000000000e+00 0.0000000000e+00 -8.7183390200e+03 
          0.0000000000e+00 0.0000000000e+00 -6.5234438966e+03 
          0.0000000000e+00 0.0000000000e+00 -8.1758546541e+03 
          0.0000000000e+00 0.0000000000e+00 -8.7183390200e+03 
          0.0000000000e+00 0.0000000000e+00 -8.7183390200e+03 
          0.0000000000e+00 0.0000000000e+00 -4.3460607509e+03 
          0.0000000000e+00 0.0000000000e+00 -4.3460607509e+03 
          0.0000000000e+00 0.0000000000e+00 -3.9254235729e+03 
          0.0000000000e+00 0.0000000000e+00 -3.9254235729e+03 
          0.0000000000e+00 0.0000000000e+00 -3.2313843623e+03 
          0.0000000000e+00 0.0000000000e+00 -3.2313843623e+03 
          0.0000000000e+00 0.0000000000e+00 -4.3460607509e+03 
          0.0000000000e+00 0.0000000000e+00 -3.9254235729e+03 
          0.0000000000e+00 0.0000000000e+00 -3.2313843623e+03 
          0.0000000000e+00 0.0000000000e+00 -4.3460607509e+03 
          0.0000000000e+00 0.0000000000e+00 -3.9254235729e+03 
          0.0000000000e+00 0.0000000000e+00 -3.2313843623e+03 
          0.0000000000e+00 0.0000000000e+00 -2.6020534233e+03 
          0.0000000000e+00 0.0000000000e+00 -2.6020534233e+03 
          0.0000000000e+00 0.0000000000e+00 -2.3542452734e+03 
          0.0000000000e+00 0.0000000000e+00 -2.3542452734e+03 
          0.0000000000e+00 0.0000000000e+00 -3.2080876184e+03 
          0.0000000000e+00 0.0000000000e+00 -3.2080876184e+03 
          0.0000000000e+00 0.0000000000e+00 -2.6020534233e+03 
          0.0000000000e+00 0.0000000000e+00 -2.3542452734e+03 
          0.0000000000e+00 0.0000000000e+00 -3.2080876184e+03 
          0.0000000000e+00 0.0000000000e+00 -2.6020534233e+03 
          0.0000000000e+00 0.0000000000e+00 -2.3542452734e+03 
          0.0000000000e+00 0.0000000000e+00 -3.2080876184e+03 
          0.0000000000e+00 0.0000000000e+00 -1.4797851785e+03 
          0.0000000000e+00 0.0000000000e+00 -1.4797851785e+03 
          0.0000000000e+00 0.0000000000e+00 -1.8501854458e+03 
          0.0000000000e+00 0.0000000000e+00 -1.5182575992e+03 
          0.0000000000e+00 0.0000000000e+00 -1.5182575992e+03 
          0.0000000000e+00 0.0000000000e+00 -8.4401204141e+02 
          0.0000000000e+00 0.0000000000e+00 -1.1379110561e+03 
          0.0000000000e+00 0.0000000000e+00 -1.1379110561e+03 
          0.0000000000e+00 0.0000000000e+00 -3.0237911937e+03 
          0.0000000000e+00 0.0000000000e+00 -3.0237911937e+03 
          0.0000000000e+00 0.0000000000e+00 -1.5083113234e+03 
          0.0000000000e+00 0.0000000000e+00 -2.7703432678e+03 
          0.0000000000e+00 0.0000000000e+00 -2.7703432678e+03 
          0.0000000000e+00 0.0000000000e+00 -1.5182575992e+03 
          0.0000000000e+00 0.0000000000e+00 -1.5182575992e+03 
          0.0000000000e+00 0.0000000000e+00 -8.4401204141e+02 
          0.0000000000e+00 0.0000000000e+00 -2.8929256750e+03 
          0.0000000000e+00 0.0000000000e+00 -2.8929256750e+03 
          0.0000000000e+00 0.0000000000e+00 -1.4797851785e+03 
          0.0000000000e+00 0.0000000000e+00 -2.7703432678e+03 
          0.0000000000e+00 0.0000000000e+00 -1.8501854458e+03 
          0.0000000000e+00 0.0000000000e+00 -1.1379110561e+03 
          0.0000000000e+00 0.0000000000e+00 -3.0237911937e+03 
          0.0000000000e+00 0.0000000000e+00 -1.5182575992e+03 
          0.0000000000e+00 0.0000000000e+00 -8.4401204141e+02 
          0.0000000000e+00 0.0000000000e+00 -1.5083113234e+03 
          0.0000000000e+00 0.0000000000e+00 -1.5182575992e+03 
          0.0000000000e+00 0.0000000000e+00 -8.4401204141e+02 
          0.0000000000e+00 0.0000000000e+00 -2.8929256750e+03 
          0.0000000000e+00 0.0000000000e+00 -8.0294091277e+02 
          0.0000000000e+00 0.0000000000e+00 -9.7027207183e+02 
          0.0000000000e+00 0.0000000000e+00 -9.7027207183e+02 
          0.0000000000e+00 0.0000000000e+00 -1.4797851785e+03 
          0.0000000000e+00 0.0000000000e+00 -2.7703432678e+03 
          0.0000000000e+00 0.0000000000e+00 -1.8501854458e+03 
          0.0000000000e+00 0.0000000000e+00 -1.1379110561e+03 
          0.0000000000e+00 0.0000000000e+00 -3.0237911937e+03 
          0.0000000000e+00 0.0000000000e+00 -1.5182575992e+03 
          0.0000000000e+00 0.0000000000e+00 -8.4401204141e+02 
          0.0000000000e+00 0.0000000000e+00 -1.5083113234e+03 
          0.0000000000e+00 0.0000000000e+00 -1.5182575992e+03 
          0.0000000000e+00 0.0000000000e+00 -8.4401204141e+02 
          0.0000000000e+00 0.0000000000e+00 -2.8929256750e+03 
          0.0000000000e+00 0.0000000000e+00 -1.8501854458e+03 
          0.0000000000e+00 0.0000000000e+00 -8.4401204141e+02 
          0.0000000000e+00 0.0000000000e+00 -1.5083113234e+03 
          0.0000000000e+00 0.0000000000e+00 -8.4401204141e+02 
          0.0000000000e+00 0.0000000000e+00 -8.0294091277e+02 
          0.0000000000e+00 0.0000000000e+00 -9.7027207183e+02 
          0.0000000000e+00 0.0000000000e+00 -9.7027207183e+02 
          0.0000000000e+00 0.0000000000e+00 -1.2545189617e+03 
          0.0000000000e+00 0.0000000000e+00 -1.2545281850e+03 
          0.0000000000e+00 0.0000000000e+00 -8.9049292855e+02 
          0.0000000000e+00 0.0000000000e+00 -1.2545189617e+03 
          0.0000000000e+00 0.0000000000e+00 -1.2545281850e+03 
          0.0000000000e+00 0.0000000000e+00 -8.9049292855e+02 
          0.0000000000e+00 0.0000000000e+00 -1.2545281850e+03 
          0.0000000000e+00 0.0000000000e+00 -8.9049292855e+02 
          0.0000000000e+00 0.0000000000e+00 -1.2545281850e+03 
          0.0000000000e+00 0.0000000000e+00 -8.9049292855e+02 
          0.0000000000e+00 0.0000000000e+00 -1.2545189617e+03 
          0.0000000000e+00 0.0000000000e+00 -1.2545281850e+03 
          0.0000000000e+00 0.0000000000e+00 -8.9049292855e+02 
          0.0000000000e+00 0.0000000000e+00 -1.2545189617e+03 
          0.0000000000e+00 0.0000000000e+00 -1.2545281850e+03 
          0.0000000000e+00 0.0000000000e+00 -8.9049292855e+02 
          0.0000000000e+00 0.0000000000e+00 -1.2545281850e+03 
          0.0000000000e+00 0.0000000000e+00 -8.9049292855e+02 
          0.0000000000e+00 0.0000000000e+00 -1.2545281850e+03 
          0.0000000000e+00 0.0000000000e+00 -8.9049292855e+02 
          0.0000000000e+00 0.0000000000e+00 -1.2545189617e+03 
          0.0000000000e+00 0.0000000000e+00 -1.2545281850e+03 
          0.0000000000e+00 0.0000000000e+00 -8.9049292855e+02 
          0.0000000000e+00 0.0000000000e+00 -1.2545189617e+03 
          0.0000000000e+00 0.0000000000e+00 -1.2545281850e+03 
          0.0000000000e+00 0.0000000000e+00 -8.9049292855e+02 
          0.0000000000e+00 0.0000000000e+00 -1.2545281850e+03 
          0.0000000000e+00 0.0000000000e+00 -8.9049292855e+02 
          0.0000000000e+00 0.0000000000e+00 -1.2545281850e+03 
          0.0000000000e+00 0.0000000000e+00 -8.9049292855e+02 
          0.0000000000e+00 0.0000000000e+00 -8.0485389010e+02 
          0.0000000000e+00 0.0000000000e+00 -8.0485389010e+02 
          0.0000000000e+00 0.0000000000e+00 -2.2001651513e+02 
          0.0000000000e+00 0.0000000000e+00 -2.2001651513e+02 
          0.0000000000e+00 0.0000000000e+00 -2.2001651513e+02 
          0.0000000000e+00 0.0000000000e+00 -2.2001651513e+02 
          0.0000000000e+00 0.0000000000e+00 -1.0705484841e+03 
          0.0000000000e+00 0.0000000000e+00 -9.6701448336e+02 
          0.0000000000e+00 0.0000000000e+00 -8.7180819514e+02 
          0.0000000000e+00 0.0000000000e+00 -1.0705484841e+03 
          0.0000000000e+00 0.0000000000e+00 -9.6701448336e+02 
          0.0000000000e+00 0.0000000000e+00 -8.7180819514e+02 
          0.0000000000e+00 0.0000000000e+00 -1.0705484841e+03 
          0.0000000000e+00 0.0000000000e+00 -9.6701448336e+02 
          0.0000000000e+00 0.0000000000e+00 -8.7180819514e+02 
          0.0000000000e+00 0.0000000000e+00 -1.0705484841e+03 
          0.0000000000e+00 0.0000000000e+00 -9.6701448336e+02 
          0.0000000000e+00 0.0000000000e+00 -8.7180819514e+02 
          0.0000000000e+00 0.0000000000e+00 -7.8611783273e+02 
          0.0000000000e+00 0.0000000000e+00 -7.0751913304e+02 
          0.0000000000e+00 0.0000000000e+00 -6.4133326594e+02 
          0.0000000000e+00 0.0000000000e+00 -7.8611783273e+02 
          0.0000000000e+00 0.0000000000e+00 -7.0751913304e+02 
          0.0000000000e+00 0.0000000000e+00 -6.4133326594e+02 
          0.0000000000e+00 0.0000000000e+00 -7.8611783273e+02 
          0.0000000000e+00 0.0000000000e+00 -7.0751913304e+02 
          0.0000000000e+00 0.0000000000e+00 -6.4133326594e+02 
          0.0000000000e+00 0.0000000000e+00 -7.8611783273e+02 
          0.0000000000e+00 0.0000000000e+00 -7.0751913304e+02 
          0.0000000000e+00 0.0000000000e+00 -6.4133326594e+02 
        </DataArray>
      </PointData>
      <CellData>
        <DataArray type="Int64" Name="ElementTag" format="ascii">
          0
        </DataArray>
      </CellData>
    </Piece>
  </UnstructuredGrid>
</VTKFile>
