<?xml version="1.0"?>
<VTKFile type="UnstructuredGrid" version="1.0" byte_order="LittleEndian" compressor="vtkZLibDataCompressor">
  <UnstructuredGrid>
    <Piece NumberOfPoints="158" NumberOfCells="1">
      <Points>
        <DataArray type="Float64" Name="Points" NumberOfComponents="3" format="ascii">
          1.7550000000e+00 -1.7550000000e+00 0.0000000000e+00 
          1.4140000000e+00 0.0000000000e+00 5.2300000000e+00 
          1.7550000000e+00 1.7550000000e+00 -0.0000000000e+00 
          1.4140000000e+00 -1.4140000000e+00 5.2300000000e+00 
          1.4140000000e+00 1.4140000000e+00 5.2300000000e+00 
          1.5840000000e+00 8.7800000000e-01 2.6150000000e+00 
          1.5840000000e+00 -8.7700000000e-01 2.6150000000e+00 
          1.5840000000e+00 1.5840000000e+00 2.6150000000e+00 
          1.5840000000e+00 -1.5840000000e+00 2.6150000000e+00 
          -0.0000000000e+00 1.4140000000e+00 5.2300000000e+00 
          -1.7550000000e+00 1.7550000000e+00 -0.0000000000e+00 
          -1.4140000000e+00 1.4140000000e+00 5.2300000000e+00 
          -8.7700000000e-01 1.5840000000e+00 2.6150000000e+00 
          8.7700000000e-01 1.5840000000e+00 2.6150000000e+00 
          -1.5840000000e+00 1.5840000000e+00 2.6150000000e+00 
          -1.4140000000e+00 -0.0000000000e+00 5.2300000000e+00 
          -1.7550000000e+00 -1.7550000000e+00 -0.0000000000e+00 
          -1.4140000000e+00 -1.4140000000e+00 5.2300000000e+00 
          -1.5840000000e+00 -8.7700000000e-01 2.6150000000e+00 
          -1.5840000000e+00 8.7700000000e-01 2.6150000000e+00 
          -1.5840000000e+00 -1.5840000000e+00 2.6150000000e+00 
          0.0000000000e+00 -1.4140000000e+00 5.2300000000e+00 
          8.7700000000e-01 -1.5840000000e+00 2.6150000000e+00 
          -8.7700000000e-01 -1.5840000000e+00 2.6150000000e+00 
          1.2750000000e+00 1.2750000000e+00 7.3500000000e+00 
          1.2750000000e+00 -1.2750000000e+00 7.3500000000e+00 
          1.1500000000e+00 -1.1500000000e+00 9.2700000000e+00 
          1.1500000000e+00 1.1500000000e+00 9.2700000000e+00 
          1.0370000000e+00 -1.0370000000e+00 1.1000000000e+01 
          1.0370000000e+00 1.0370000000e+00 1.1000000000e+01 
          -1.2750000000e+00 1.2750000000e+00 7.3500000000e+00 
          -1.1500000000e+00 1.1500000000e+00 9.2700000000e+00 
          -1.0370000000e+00 1.0370000000e+00 1.1000000000e+01 
          -1.2750000000e+00 -1.2750000000e+00 7.3500000000e+00 
          -1.1500000000e+00 -1.1500000000e+00 9.2700000000e+00 
          -1.0370000000e+00 -1.0370000000e+00 1.1000000000e+01 
          9.3500000000e-01 9.3500000000e-01 1.2560000000e+01 
          9.3500000000e-01 -9.3500000000e-01 1.2560000000e+01 
          8.4300000000e-01 8.4300000000e-01 1.3960000000e+01 
          8.4300000000e-01 -8.4300000000e-01 1.3960000000e+01 
          7.6000000000e-01 7.6000000000e-01 1.5240000000e+01 
          7.6000000000e-01 -7.6000000000e-01 1.5240000000e+01 
          -9.3500000000e-01 9.3500000000e-01 1.2560000000e+01 
          -8.4300000000e-01 8.4300000000e-01 1.3960000000e+01 
          -7.6000000000e-01 7.6000000000e-01 1.5240000000e+01 
          -9.3500000000e-01 -9.3500000000e-01 1.2560000000e+01 
          -8.4300000000e-01 -8.4300000000e-01 1.3960000000e+01 
          -7.6000000000e-01 -7.6000000000e-01 1.5240000000e+01 
          7.6000000000e-01 -7.6000000000e-01 1.6240000000e+01 
          7.6000000000e-01 7.6000000000e-01 1.6240000000e+01 
          7.6000000000e-01 0.0000000000e+00 1.6240000000e+01 
          7.6000000000e-01 7.6000000000e-01 1.7340000000e+01 
          7.6000000000e-01 -7.6000000000e-01 1.7340000000e+01 
          7.6000000000e-01 0.0000000000e+00 1.7890000000e+01 
          7.6000000000e-01 -7.6000000000e-01 1.9440000000e+01 
          7.6000000000e-01 7.6000000000e-01 1.9440000000e+01 
          7.6000000000e-01 -7.6000000000e-01 2.1640000000e+01 
          7.6000000000e-01 7.6000000000e-01 2.1640000000e+01 
          7.6000000000e-01 0.0000000000e+00 1.9440000000e+01 
          7.6000000000e-01 7.6000000000e-01 1.8440000000e+01 
          7.6000000000e-01 -7.6000000000e-01 1.8440000000e+01 
          7.6000000000e-01 -7.6000000000e-01 2.0540000000e+01 
          7.6000000000e-01 7.6000000000e-01 2.0540000000e+01 
          7.6000000000e-01 0.0000000000e+00 2.1090000000e+01 
          7.6000000000e-01 7.6000000000e-01 2.2640000000e+01 
          7.6000000000e-01 -7.6000000000e-01 2.2640000000e+01 
          -7.6000000000e-01 7.6000000000e-01 1.6240000000e+01 
          -7.6000000000e-01 7.6000000000e-01 1.8440000000e+01 
          -0.0000000000e+00 7.6000000000e-01 1.6240000000e+01 
          -7.6000000000e-01 7.6000000000e-01 1.9440000000e+01 
          -7.6000000000e-01 7.6000000000e-01 2.1640000000e+01 
          -7.6000000000e-01 7.6000000000e-01 1.7340000000e+01 
          -0.0000000000e+00 7.6000000000e-01 1.7890000000e+01 
          -0.0000000000e+00 7.6000000000e-01 1.9440000000e+01 
          -7.6000000000e-01 7.6000000000e-01 2.0540000000e+01 
          0.0000000000e+00 7.6000000000e-01 2.1090000000e+01 
          -7.6000000000e-01 7.6000000000e-01 2.2640000000e+01 
          -0.0000000000e+00 5.2600000000e-01 2.3499000000e+01 
          3.9900000000e-01 4.0400000000e-01 2.3950000000e+01 
          -3.9900000000e-01 4.0400000000e-01 2.3950000000e+01 
          -7.6000000000e-01 -7.6000000000e-01 1.6240000000e+01 
          -7.6000000000e-01 -7.6000000000e-01 1.8440000000e+01 
          -7.6000000000e-01 -0.0000000000e+00 1.6240000000e+01 
          -7.6000000000e-01 -7.6000000000e-01 1.9440000000e+01 
          -7.6000000000e-01 -7.6000000000e-01 2.1640000000e+01 
          -7.6000000000e-01 -7.6000000000e-01 1.7340000000e+01 
          -7.6000000000e-01 0.0000000000e+00 1.7890000000e+01 
          -7.6000000000e-01 -0.0000000000e+00 1.9440000000e+01 
          -7.6000000000e-01 -7.6000000000e-01 2.0540000000e+01 
          -7.6000000000e-01 -0.0000000000e+00 2.1090000000e+01 
          -7.6000000000e-01 -7.6000000000e-01 2.2640000000e+01 
          0.0000000000e+00 -7.6000000000e-01 1.6240000000e+01 
          0.0000000000e+00 -7.6000000000e-01 1.7890000000e+01 
          0.0000000000e+00 -7.6000000000e-01 1.9440000000e+01 
          0.0000000000e+00 -7.6000000000e-01 2.1090000000e+01 
          0.0000000000e+00 -5.2600000000e-01 2.3499000000e+01 
          3.9900000000e-01 -4.0400000000e-01 2.3950000000e+01 
          -3.9900000000e-01 -4.0400000000e-01 2.3950000000e+01 
          -0.0000000000e+00 -3.3500000000e+00 2.1640000000e+01 
          -3.8000000000e-01 -2.0550000000e+00 2.2140000000e+01 
          -3.8000000000e-01 -2.0550000000e+00 2.1640000000e+01 
          0.0000000000e+00 3.3500000000e+00 2.1640000000e+01 
          -3.8000000000e-01 2.0550000000e+00 2.2140000000e+01 
          -3.8000000000e-01 2.0550000000e+00 2.1640000000e+01 
          3.8000000000e-01 2.0550000000e+00 2.2140000000e+01 
          3.8000000000e-01 2.0550000000e+00 2.1640000000e+01 
          3.8000000000e-01 -2.0550000000e+00 2.2140000000e+01 
          3.8000000000e-01 -2.0550000000e+00 2.1640000000e+01 
          -0.0000000000e+00 -3.3500000000e+00 1.8440000000e+01 
          -3.8000000000e-01 -2.0550000000e+00 1.8940000000e+01 
          -3.8000000000e-01 -2.0550000000e+00 1.8440000000e+01 
          -0.0000000000e+00 3.3500000000e+00 1.8440000000e+01 
          -3.8000000000e-01 2.0550000000e+00 1.8940000000e+01 
          -3.8000000000e-01 2.0550000000e+00 1.8440000000e+01 
          3.8000000000e-01 2.0550000000e+00 1.8940000000e+01 
          3.8000000000e-01 2.0550000000e+00 1.8440000000e+01 
          3.8000000000e-01 -2.0550000000e+00 1.8940000000e+01 
          3.8000000000e-01 -2.0550000000e+00 1.8440000000e+01 
          -0.0000000000e+00 -3.3500000000e+00 1.5240000000e+01 
          -3.8000000000e-01 -2.0550000000e+00 1.5740000000e+01 
          -3.8000000000e-01 -2.0550000000e+00 1.5240000000e+01 
          -0.0000000000e+00 3.3500000000e+00 1.5240000000e+01 
          -3.8000000000e-01 2.0550000000e+00 1.5740000000e+01 
          -3.8000000000e-01 2.0550000000e+00 1.5240000000e+01 
          3.8000000000e-01 2.0550000000e+00 1.5740000000e+01 
          3.8000000000e-01 2.0550000000e+00 1.5240000000e+01 
          3.8000000000e-01 -2.0550000000e+00 1.5740000000e+01 
          3.8000000000e-01 -2.0550000000e+00 1.5240000000e+01 
          -5.2400000000e-01 0.0000000000e+00 2.3496000000e+01 
          5.2400000000e-01 0.0000000000e+00 2.3496000000e+01 
          4.0000000000e-02 5.0000000000e-02 2.5250000000e+01 
          -4.0000000000e-02 5.0000000000e-02 2.5250000000e+01 
          -4.0000000000e-02 -5.0000000000e-02 2.5250000000e+01 
          4.0000000000e-02 -5.0000000000e-02 2.5250000000e+01 
          1.3410000000e+00 0.0000000000e+00 6.3450000000e+00 
          1.2090000000e+00 0.0000000000e+00 8.3600000000e+00 
          1.0900000000e+00 -0.0000000000e+00 1.0180000000e+01 
          -0.0000000000e+00 1.3410000000e+00 6.3450000000e+00 
          0.0000000000e+00 1.2090000000e+00 8.3600000000e+00 
          -0.0000000000e+00 1.0900000000e+00 1.0180000000e+01 
          -1.3410000000e+00 0.0000000000e+00 6.3450000000e+00 
          -1.2090000000e+00 0.0000000000e+00 8.3600000000e+00 
          -1.0900000000e+00 -0.0000000000e+00 1.0180000000e+01 
          -0.0000000000e+00 -1.3410000000e+00 6.3450000000e+00 
          0.0000000000e+00 -1.2090000000e+00 8.3600000000e+00 
          0.0000000000e+00 -1.0900000000e+00 1.0180000000e+01 
          9.8300000000e-01 0.0000000000e+00 1.1820000000e+01 
          8.8700000000e-01 0.0000000000e+00 1.3296000000e+01 
          8.0000000000e-01 -0.0000000000e+00 1.4633000000e+01 
          0.0000000000e+00 9.8300000000e-01 1.1820000000e+01 
          -0.0000000000e+00 8.8700000000e-01 1.3296000000e+01 
          0.0000000000e+00 8.0000000000e-01 1.4633000000e+01 
          -9.8300000000e-01 0.0000000000e+00 1.1820000000e+01 
          -8.8700000000e-01 0.0000000000e+00 1.3296000000e+01 
          -8.0000000000e-01 0.0000000000e+00 1.4633000000e+01 
          0.0000000000e+00 -9.8300000000e-01 1.1820000000e+01 
          0.0000000000e+00 -8.8700000000e-01 1.3296000000e+01 
          0.0000000000e+00 -8.0000000000e-01 1.4633000000e+01 
        </DataArray>
      </Points>
      <Cells>
        <DataArray type="Int64" Name="connectivity" format="ascii">
          0
          1
          2
          3
          4
          5
          6
          7
          8
          9
          10
          11
          12
          13
          14
          15
          16
          17
          18
          19
          20
          21
          22
          23
          24
          25
          26
          27
          28
          29
          30
          31
          32
          33
          34
          35
          36
          37
          38
          39
          40
          41
          42
          43
          44
          45
          46
          47
          48
          49
          50
          51
          52
          53
          54
          55
          56
          57
          58
          59
          60
          61
          62
          63
          64
          65
          66
          67
          68
          69
          70
          71
          72
          73
          74
          75
          76
          77
          78
          79
          80
          81
          82
          83
          84
          85
          86
          87
          88
          89
          90
          91
          92
          93
          94
          95
          96
          97
          98
          99
          100
          101
          102
          103
          104
          105
          106
          107
          108
          109
          110
          111
          112
          113
          114
          115
          116
          117
          118
          119
          120
          121
          122
          123
          124
          125
          126
          127
          128
          129
          130
          131
          132
          133
          134
          135
          136
          137
          138
          139
          140
          141
          142
          143
          144
          145
          146
          147
          148
          149
          150
          151
          152
          153
          154
          155
          156
          157
        </DataArray>
        <DataArray type="Int64" Name="offsets" format="ascii">
          158
        </DataArray>
        <DataArray type="Int64" Name="types" format="ascii">
          2
        </DataArray>
      </Cells>
      <PointData>
        <DataArray type="Int64" Name="NodeTag" format="ascii">
          1
          2
          3
          4
          5
          6
          7
          8
          9
          10
          11
          12
          13
          14
          15
          16
          17
          18
          19
          20
          21
          22
          23
          24
          25
          26
          27
          28
          29
          30
          31
          32
          33
          34
          35
          36
          37
          38
          39
          40
          41
          42
          43
          44
          45
          46
          47
          48
          49
          50
          51
          52
          53
          54
          55
          56
          57
          58
          59
          60
          61
          62
          63
          64
          65
          66
          67
          68
          69
          70
          71
          72
          73
          74
          75
          76
          77
          78
          79
          80
          81
          82
          83
          84
          85
          86
          87
          88
          89
          90
          91
          92
          93
          94
          95
          96
          97
          98
          99
          100
          101
          102
          103
          104
          105
          106
          107
          108
          109
          110
          111
          112
          113
          114
          115
          116
          117
          118
          119
          120
          121
          122
          123
          124
          125
          126
          127
          128
          129
          130
          131
          132
          133
          134
          135
          136
          137
          138
          139
          140
          141
          142
          143
          144
          145
          146
          147
          148
          149
          150
          151
          152
          153
          154
          155
          156
          157
          158
        </DataArray>
        <DataArray type="Float64" Name="Displacement" NumberOfComponents="3" format="ascii">
          0.0000000000e+00 0.0000000000e+00 0.0000000000e+00 
          -2.2039061517e-04 -6.2159234981e-05 -1.1325665157e-04 
          0.0000000000e+00 0.0000000000e+00 0.0000000000e+00 
          6.5062059176e-05 -6.2004503265e-05 -6.5913144791e-04 
          -4.8280253349e-05 -6.3274773301e-05 -7.3249356634e-04 
          -1.5549560278e-03 -1.2894950533e-03 -5.8972665850e-04 
          -1.2058984476e-03 1.0421773994e-03 -5.1211136764e-04 
          -1.2600458901e-03 -1.2886233026e-03 -5.4476139664e-04 
          -1.0667525090e-03 1.0407729434e-03 -4.8788809310e-04 
          -4.6061933092e-05 -9.3657519624e-05 -1.0670090174e-04 
          0.0000000000e+00 0.0000000000e+00 0.0000000000e+00 
          -4.5993078110e-05 2.6603408644e-05 -6.8280968561e-04 
          1.0969860595e-03 -9.9842549896e-04 -5.1405469210e-04 
          -1.2611227178e-03 -9.8207835173e-04 -5.4914163910e-04 
          1.0949655072e-03 -1.1293956387e-03 -5.0510201765e-04 
          2.4466993893e-05 2.8656519650e-05 -1.0038085813e-04 
          0.0000000000e+00 0.0000000000e+00 0.0000000000e+00 
          6.6105804725e-05 3.3172580485e-05 -6.5136781173e-04 
          1.1644235567e-03 1.0911574614e-03 -5.0789401694e-04 
          1.0392119324e-03 -1.1310805928e-03 -5.2104435563e-04 
          1.1288299996e-03 1.0900823086e-03 -4.8328387229e-04 
          6.3763265874e-05 1.8129436967e-04 -1.0865666640e-04 
          -1.0675973871e-03 9.7111756360e-04 -4.9961158054e-04 
          1.1295869948e-03 1.1557528499e-03 -5.1176449749e-04 
          4.9217431828e-05 3.5972463092e-05 -9.6506109997e-04 
          3.0057356223e-05 5.7284921604e-05 -9.0143625994e-04 
          4.1540678766e-04 -6.8061939305e-05 -1.0769134549e-03 
          1.6409629943e-04 3.2006224640e-04 -1.1526432244e-03 
          1.0265144859e-04 2.2061282020e-04 -1.2829326946e-03 
          2.4034599603e-05 1.3321831240e-04 -1.3417405461e-03 
          -9.1489747430e-05 1.9126975014e-04 -9.1003692147e-04 
          -1.3814401978e-04 2.4450614507e-04 -1.1105905107e-03 
          7.1494470261e-05 2.0392770779e-04 -1.2906983214e-03 
          1.8961684064e-04 1.9003283526e-05 -8.7981201411e-04 
          -1.0230935244e-04 5.7274510784e-05 -1.0634211453e-03 
          2.8878875383e-04 1.4153670728e-04 -1.2563922361e-03 
          1.9958021003e-04 3.3485027817e-04 -1.4927116281e-03 
          3.8239681089e-04 8.7622043937e-05 -1.4227928480e-03 
          1.5116715255e-04 2.8793173534e-04 -1.6560507893e-03 
          2.6839660933e-04 2.0251952663e-04 -1.5835061362e-03 
          1.6774801803e-04 2.7733106796e-04 -1.7777419573e-03 
          3.0085868798e-04 2.9528093774e-04 -1.6907272440e-03 
          -3.8053643846e-05 2.6322587054e-04 -1.4550582335e-03 
          7.4846378003e-05 2.7405841086e-04 -1.6177022695e-03 
          1.2182033674e-04 2.2292982976e-04 -1.7502908691e-03 
          7.5322088910e-05 1.1193047569e-04 -1.4068691368e-03 
          2.4540125963e-04 1.3923763024e-04 -1.5648552501e-03 
          2.5952758470e-04 2.4411764155e-04 -1.6802802542e-03 
          2.9000956930e-04 3.2210912722e-04 -1.8161757156e-03 
          1.6033523825e-04 3.4967148278e-04 -1.9441550008e-03 
          2.3110967295e-04 3.3730648738e-04 -1.8000791281e-03 
          4.0150895286e-04 7.0146873968e-04 -2.1016936311e-03 
          4.6734370210e-04 2.4551262123e-04 -1.9268118311e-03 
          2.4951324516e-04 5.4204550811e-04 -2.2972459928e-03 
          2.6138497678e-04 7.7183191926e-04 -2.1830774443e-03 
          1.4638303042e-04 8.2719472183e-04 -2.4379503166e-03 
          2.3743283275e-04 1.2809255311e-03 -2.3427855074e-03 
          1.0811724296e-04 1.2234218129e-03 -2.6441509867e-03 
          -3.4171771978e-04 7.9970882319e-04 -2.2492952447e-03 
          1.6878501581e-04 6.0493548124e-04 -2.3395025017e-03 
          2.8769761497e-04 6.5743136551e-04 -2.1085897890e-03 
          3.5007967758e-04 8.8218798086e-04 -2.2405284155e-03 
          2.6400884751e-04 1.1698570103e-03 -2.5224139361e-03 
          -4.4097943542e-05 1.1355496953e-03 -2.5600648138e-03 
          8.6508272042e-05 1.4937336198e-03 -2.6863804895e-03 
          2.1724656088e-04 1.4250980160e-03 -2.3809730487e-03 
          1.6738992961e-04 2.8262075986e-04 -1.9254730765e-03 
          1.5756993598e-04 4.7976811429e-04 -2.3447077967e-03 
          1.6338357373e-04 2.6441693964e-04 -1.8652952104e-03 
          1.6259639177e-04 6.9072522226e-04 -2.4523140697e-03 
          1.0551473847e-04 1.0644659152e-03 -2.6761286717e-03 
          -7.0137744685e-05 6.1597940693e-04 -2.0910998593e-03 
          1.6734499660e-04 5.4045014268e-04 -2.3813633851e-03 
          1.5447639210e-04 1.4022926543e-03 -2.4008186735e-03 
          -5.1583756699e-07 1.0287895235e-03 -2.5455005674e-03 
          1.2087523660e-04 1.4011849362e-03 -2.6910336484e-03 
          7.7298663476e-05 1.3377206714e-03 -2.7220422322e-03 
          8.5155680681e-05 1.5307251067e-03 -2.6882462864e-03 
          8.6211604401e-05 1.6919174111e-03 -2.6484945718e-03 
          8.4724573006e-05 1.6030402620e-03 -2.6713600570e-03 
          2.9664663782e-04 2.5544971212e-04 -1.8149038808e-03 
          2.7827395877e-04 5.3192066817e-04 -2.1286390611e-03 
          2.8778221712e-04 2.6936274489e-04 -1.7846374197e-03 
          2.7826359154e-04 6.3273896683e-04 -2.2066580244e-03 
          2.2910734053e-04 1.1245667633e-03 -2.3734434626e-03 
          1.1500225477e-04 1.2992253920e-04 -1.9366451757e-03 
          1.5028204911e-04 4.2806356037e-04 -2.3135405911e-03 
          5.3224937848e-04 6.6106197013e-04 -2.2649033861e-03 
          1.5545024134e-04 7.2151863773e-04 -2.2676799988e-03 
          3.7626390577e-04 9.8035842636e-04 -2.5958315899e-03 
          2.1176199971e-04 1.2661318882e-03 -2.4118453420e-03 
          2.9324243307e-04 7.3507323084e-05 -1.7631976830e-03 
          2.8888136202e-04 2.6023791575e-04 -2.1469922397e-03 
          2.7033968785e-04 3.6253910855e-04 -2.1603454276e-03 
          2.4371449906e-04 8.2692563963e-04 -2.3740796358e-03 
          1.7328467481e-04 1.6115841412e-03 -2.4824518185e-03 
          1.5078450602e-04 1.6965277412e-03 -2.4880231072e-03 
          1.5155626212e-04 1.6074525484e-03 -2.5033923910e-03 
          5.1172073570e-04 1.2429469638e-03 -2.3439902809e-03 
          2.7546373954e-04 1.1927809301e-03 -2.3350621044e-03 
          3.3006871727e-04 1.1725306179e-03 -2.3386601989e-03 
          -1.6270048677e-04 1.1066267778e-03 -3.7184996391e-03 
          -1.5345758693e-04 1.2932024861e-03 -3.1720359072e-03 
          -1.1797721271e-04 1.1114252587e-03 -3.1755246317e-03 
          -1.5326431813e-04 1.3061456149e-03 -3.1485973682e-03 
          -1.1766012438e-04 1.1386425722e-03 -3.1518526551e-03 
          2.7536575942e-04 1.3200510877e-03 -2.3055337914e-03 
          3.3020662221e-04 1.2753751431e-03 -2.3087571599e-03 
          5.1746404732e-04 6.3261523526e-04 -2.2396813107e-03 
          5.0197783561e-04 6.2076709992e-04 -2.1659158078e-03 
          5.3390190692e-04 6.2195880890e-04 -2.1694289424e-03 
          -5.4687285392e-05 5.0171477071e-04 -3.3339796608e-03 
          -3.1773882028e-06 6.6591794800e-04 -2.8071923803e-03 
          5.0304132624e-06 5.0378069911e-04 -2.8106924701e-03 
          -2.5950262590e-06 6.9865520347e-04 -2.8098120212e-03 
          5.0913686301e-06 5.3772914731e-04 -2.8131627538e-03 
          5.0257736968e-04 6.2092216948e-04 -2.1359446663e-03 
          5.3418182087e-04 6.0654780101e-04 -2.1392912150e-03 
          3.8445635407e-04 3.1270030233e-04 -2.0979787167e-03 
          3.0386694081e-04 2.2138470996e-04 -1.8734577121e-03 
          3.2975548108e-04 2.8084318595e-04 -1.8769519875e-03 
          4.8184072005e-05 2.0541652831e-04 -2.4401014402e-03 
          2.3364831203e-04 2.7249195387e-04 -2.0651000095e-03 
          2.4218495221e-04 1.6794531509e-04 -2.0685930711e-03 
          2.3344946232e-04 3.7628429586e-04 -2.0821319028e-03 
          2.4222394942e-04 2.8029725317e-04 -2.0854059745e-03 
          3.0405690939e-04 2.6819601805e-04 -1.8540321780e-03 
          3.2984753180e-04 3.0777752149e-04 -1.8573748699e-03 
          1.9516648813e-04 1.4996996326e-03 -2.6133904055e-03 
          7.1333880108e-05 1.6132632947e-03 -2.5864487916e-03 
          9.3635415509e-05 1.9260240968e-03 -2.5853896040e-03 
          9.3697968175e-05 1.9182835562e-03 -2.5953615915e-03 
          1.0319782525e-04 1.9184174333e-03 -2.5794069189e-03 
          1.0313901799e-04 1.9260443655e-03 -2.5668417782e-03 
          -1.0089403901e-02 -6.3492402817e-06 -1.4969043716e-03 
          -1.0818296184e-03 8.8671279825e-05 -9.8551090369e-04 
          -6.8102948002e-04 1.5317117476e-04 -1.4283299085e-03 
          -3.4590886898e-05 -2.1365962063e-03 -9.3697748671e-04 
          -4.6865275564e-06 1.3853026561e-03 -9.1666319152e-04 
          3.0475779366e-05 7.5031426533e-04 -1.3091263279e-03 
          5.2840910404e-03 6.7241220308e-05 -1.0830845475e-03 
          -8.0816143403e-04 1.2870340700e-04 -9.4609055025e-04 
          7.6574479341e-04 1.6204746329e-04 -1.2770222618e-03 
          8.7855276452e-05 1.1527034363e-02 -1.5915696737e-03 
          1.3394029449e-04 1.5975122984e-03 -8.7970802361e-04 
          1.7698669509e-04 -3.2573737798e-04 -1.3730601047e-03 
          -4.8558903588e-04 1.9326268529e-04 -1.3317472065e-03 
          -2.1286608976e-04 2.2656030288e-04 -1.6248369878e-03 
          5.5741290537e-04 2.6269758484e-04 -1.6943605281e-03 
          6.4998635393e-05 3.5233619127e-04 -1.3061151384e-03 
          9.7348070783e-05 3.2520603602e-04 -1.6089971392e-03 
          1.3052075100e-04 5.3417938909e-04 -1.6987967271e-03 
          7.1134704407e-04 1.7839599166e-04 -1.3722845772e-03 
          5.2348728361e-04 1.9480819092e-04 -1.5500060479e-03 
          -1.1537980152e-04 2.1625027402e-04 -1.6892676567e-03 
          2.1362055400e-04 -7.5565613614e-04 -1.1377921500e-03 
          2.4393016408e-04 -2.8699560081e-04 -1.5610501751e-03 
          2.7050010114e-04 1.6173313111e-04 -1.6268913304e-03 
        </DataArray>
        <DataArray type="Float64" Name="Reaction" NumberOfComponents="3" format="ascii">
          -9.3307197525e+03 9.7372585229e+03 1.1859249563e+05 
          -3.7111462590e+02 -4.0976426109e+02 7.6781575593e+00 
          -7.9658291214e+03 -7.8334335333e+03 1.1640150373e+05 
          4.0729290963e+02 -7.1440590792e+02 -1.5174703509e+02 
          5.5209156453e+02 -2.3289366403e+02 -1.2948526733e+02 
          -9.8416389904e+01 -7.3670233911e+02 -4.6183614932e+00 
          -1.1104873764e+02 -5.7553083998e+02 -4.4435955599e+00 
          -2.3399146123e+02 -4.5415021035e+02 4.9488794835e-02 
          -2.2947429142e+01 -4.9884981947e+02 2.6501712160e-01 
          1.3784526984e+02 -1.1582815090e+02 1.2168775417e+01 
          9.5251223138e+03 -9.1397773264e+03 1.1936210277e+05 
          -1.5656864371e+02 -2.0764705783e+02 -6.8986035109e+01 
          1.9497035202e+02 1.0551526424e+03 -9.2558870675e+00 
          -3.2862179532e+02 3.8227117763e+02 -4.9761377850e+00 
          6.9671937439e+01 -3.7482243895e+02 6.6811660824e-01 
          -3.5029915501e+02 -2.6861157862e+02 9.7885298681e+00 
          7.5218288545e+03 8.0314871160e+03 1.0844928145e+05 
          2.6910991998e+02 -4.3135035763e+02 -1.0016120973e+02 
          3.4195682149e+02 -3.0495028198e+02 -8.1423441225e+00 
          -1.0317833507e+03 -5.9774566080e+02 -2.2179229300e+00 
          -6.9172496037e+01 -3.6776692151e+02 1.0520511255e+00 
          -1.1476187887e+01 4.6785202866e+02 9.1751872067e+00 
          -3.1649115340e+01 -1.6461359143e+01 -1.2918816380e+00 
          -2.4085912529e+02 2.7954747778e+02 -7.0391334311e+00 
          -7.4692466557e+02 -1.1952428055e+03 -7.4244634675e+00 
          -2.0744783635e+03 1.7571951145e+03 1.1704389480e+01 
          2.3597447735e+03 -1.1317517819e+03 3.4148056758e+01 
          1.6588809332e+03 1.9574258352e+03 1.3959272418e+02 
          -1.1541948485e+03 1.4043093707e+03 2.7682297434e+01 
          -1.0343633929e+03 -6.1550746932e+02 3.8509025953e+01 
          7.7586604684e+02 -1.9159530937e+02 -4.2152421300e+01 
          -1.5909835624e+03 1.1231215806e+03 1.2457785674e+02 
          1.0035892114e+03 -2.2074722607e+02 1.9952268231e+01 
          2.3022531565e+03 9.3110642000e+02 1.9548371840e-01 
          -2.0145779678e+03 -2.8633011650e+02 3.0921485619e+01 
          1.2909372871e+03 7.3296651715e+02 2.6916676298e+01 
          4.8543812568e+02 7.2276586341e+02 7.3357025749e+00 
          6.0526447744e+02 -3.4086422399e+02 3.3754922589e+01 
          -2.5787333075e+02 -2.0366166657e+02 1.2049695517e+00 
          -2.8239070249e+02 3.1796439470e+02 3.1633612450e+00 
          -5.4657504009e+00 2.7938828195e+01 1.6617468378e+01 
          1.4411431904e+02 -1.0166770809e+02 5.9254234417e+00 
          -5.6312089426e+02 4.0587736759e+02 7.7698939173e+00 
          8.0956298352e+01 -1.9859614588e+01 -8.3489689534e+00 
          -4.8363753395e+01 -5.4686564234e+01 1.4056493938e+01 
          -4.9962094006e+02 -1.3683390258e+02 1.8032056757e+01 
          3.0829705329e+02 1.3530568427e+02 4.1534827811e+00 
          6.5749948102e+01 -5.2185845571e+01 1.9305821973e-01 
          9.2216173082e+01 -6.1100670376e+01 -2.2292297067e-01 
          2.6455177482e+01 -6.5253698692e+01 1.0932835083e+00 
          8.7478889460e+01 -1.0534557655e+02 -6.1127070118e-01 
          3.2376916498e+01 -1.5296151756e+02 2.4779580738e-01 
          1.9761118936e+01 2.8365197266e+01 -1.6500813618e+00 
          -9.0669695160e+01 -3.9213534996e+01 -4.1561612705e-02 
          1.5059287619e+02 -1.4796017715e+02 3.0827498539e-01 
          2.4318175094e+02 7.0471271456e+01 7.1506818932e-01 
          -7.7557332789e-01 1.7611003623e+02 1.2128743886e+01 
          2.4151540450e+01 1.9957024932e+02 3.0308949548e+01 
          -9.4387882589e+02 -6.0014875334e+01 9.0378582928e+00 
          2.0153611116e+02 -1.0299023789e+02 -1.0051105492e+02 
          1.3084313687e+01 -2.0792052245e+02 -8.9338742586e+01 
          2.9364444731e+01 2.5613598914e+01 4.5528796042e+01 
          1.4389838390e+02 1.9745966970e+01 8.9668551504e+01 
          -3.5201908630e+02 1.9330734360e+01 1.0135365585e+00 
          -3.3079876966e+01 2.5731913764e+02 9.1339122022e-01 
          4.7242956890e+01 2.5443809324e+02 2.0425243515e+00 
          8.2899049532e+00 -5.7452872106e+01 9.6072192536e-01 
          1.1128307755e+01 -1.1762175812e+02 -6.3377862371e+01 
          4.7629472185e+01 -3.3448702310e+02 1.4472223798e+00 
          -9.7412754920e+01 9.7117002682e+00 6.0371566545e-01 
          -8.2285159349e+00 1.6093500108e+02 1.6333815779e+01 
          2.6415807770e+01 -8.1585025193e+01 -1.4594012644e+00 
          2.7661985694e+01 -1.6750016687e+02 1.8589149153e+00 
          1.3359692549e+01 1.1996905145e+03 -3.3473367784e+01 
          -2.2207326423e+01 4.2383787608e+01 6.6087630006e+01 
          -9.7167554989e+00 3.3741473836e+02 -1.1704941572e+01 
          -2.0926605389e+01 2.2592314406e+02 -1.1219654881e+00 
          -1.8713220138e+01 7.8457539815e+01 -2.8904399287e-01 
          -1.9024770503e+01 1.1455932956e+02 2.3168716975e+00 
          -1.0845762048e+01 9.5397456476e+01 1.1193177019e+00 
          3.7930686753e+01 -4.9490781529e+01 -3.7835883207e-01 
          -4.3477274418e+01 -1.9011749452e+02 -7.8244333731e+01 
          2.0607087214e+02 -3.4255442523e+01 -5.3698779586e-01 
          -1.5333357214e+02 -1.3426775030e+02 1.2193301760e-01 
          1.4644805555e+01 9.4240128408e+01 1.2236108768e+01 
          6.8979926719e+01 -7.0815819250e+01 -3.8672475067e-01 
          7.5849953178e+00 -5.5179681774e+01 -1.6764548736e-01 
          3.7671404063e+02 -8.0021112450e+01 4.3662797307e-01 
          4.4018832853e+00 -6.9426473982e+01 3.5004472627e+01 
          2.7178013940e+02 1.9052417268e+01 -9.4651312044e-01 
          1.1035794290e+01 2.1365960795e+02 -5.1048936336e-01 
          8.2390786706e+01 -6.7556614971e+02 8.2799314272e+00 
          -2.0550960196e+01 -1.6204115147e+02 3.3137943209e+00 
          8.0537032614e+01 -3.7574837874e+02 4.8256474338e+01 
          -3.7746974084e+00 -1.2479659036e+02 7.4283632133e+00 
          1.2119358693e+01 6.6814991750e+01 4.3181033505e-01 
          2.2414498862e+01 1.0968683453e+02 1.7995746022e+00 
          2.0543445543e+01 9.7207298123e+01 9.6333249765e-01 
          1.0263488317e+02 6.7300127185e+01 -7.4553524254e-01 
          -7.5382726261e+01 3.4699930347e+01 3.1040009855e+00 
          2.6757548591e+01 3.6251019003e+01 -2.4539847681e+00 
          9.1177916007e-01 9.2689798153e+01 -1.8267233021e+00 
          -7.4320326842e+01 1.1456215670e+02 1.8449161382e+00 
          -2.7427930844e+01 5.8405374690e+01 -1.0020338919e+00 
          -6.3832307440e+01 8.5995463954e+01 2.1956377792e+00 
          -1.9452447384e+01 4.9803760699e+01 -1.1971017757e+00 
          -8.0696209241e+01 1.1705039471e+02 1.7455199311e+00 
          2.0876771951e+01 5.5469244255e+01 -1.4990601748e+00 
          7.1510776574e+01 -5.2130712025e+01 -1.1120153425e+00 
          4.5382553570e+01 -9.5369803281e+01 1.5467500312e+00 
          4.6504029019e+01 -2.6834363357e+01 -9.5757160140e-01 
          5.3664725795e+01 -4.7397524589e+01 -5.8596122180e-01 
          -3.8113737896e+01 -8.2272823904e+00 1.3182854313e+00 
          -2.5730348233e+01 -2.6552718320e+01 -8.4433807795e-01 
          -2.7487237009e+01 -5.2384762302e+01 1.0731905722e+00 
          -2.2200039182e+01 -5.1345365357e+01 -9.5027778934e-01 
          5.0196485826e+01 -4.3148830021e+01 1.8145825480e+00 
          4.3604585004e+01 -6.5183037016e+01 -1.1915378288e+00 
          -2.2836637190e+01 -3.7202963715e+01 -8.2254427571e-01 
          -3.1680039891e+01 -4.2902377084e+01 1.0935326194e+00 
          -2.2077536105e+00 -1.4934720939e+01 -6.4367193569e-01 
          -2.5083943295e+01 3.3167947200e-01 -1.3273550340e+00 
          5.9340561564e+01 -4.3752700950e+01 1.6986770217e+00 
          6.7570190437e+01 -3.3359921789e+01 -5.9555754762e-01 
          6.6802955901e+01 9.0991518403e+00 1.3085987975e+00 
          7.2891713904e+01 2.8045124952e+01 -9.7037439951e-01 
          -2.1098780550e+01 -2.7515422254e+01 1.0177098317e+00 
          -9.2596158652e-01 -2.2397906830e+01 -5.6358008456e-01 
          -1.0897924148e+01 7.2661054381e+01 -1.2590267452e-01 
          -2.3208609916e+01 8.6240337584e+01 1.6384054615e-01 
          -1.7036642282e+01 2.1065914332e+01 4.3929970519e-01 
          -1.6803957373e+01 1.7941138449e+01 1.0731485118e+00 
          -1.5050743804e+01 1.9713789180e+01 1.0812666292e+00 
          -1.4494682674e+01 1.9823042069e+01 4.1504478385e-01 
          -1.9996846940e+03 3.2063753739e+01 4.3817024823e+00 
          -1.2543985018e+02 9.7302099450e+01 3.9415334789e+01 
          -9.4609279665e+01 1.0431601490e+02 -1.7120569462e+01 
          9.2659131593e+00 -5.9321805301e+02 -2.1457330080e+01 
          -2.7023285009e+01 1.6885116443e+02 -1.0024896395e+02 
          5.3112549426e+00 1.0474468105e+02 1.1853577470e+01 
          1.1499524959e+03 3.5446623178e+01 2.6798113750e+00 
          -2.1828657230e+02 1.2130341956e+02 3.6795662841e+01 
          1.1931888466e+02 7.7212488385e+01 -1.2702948042e+01 
          7.3420177102e+00 2.3105048383e+03 4.2750468157e+00 
          5.3956517101e+01 2.6653507455e+02 -1.9173609410e+01 
          2.9377653875e+01 -9.0402298904e+01 7.0090168073e+00 
          -6.7987634442e+01 8.3358274479e+01 -5.7509231228e+00 
          -1.5690196435e+02 3.1093338788e+01 5.6957903981e+00 
          4.0723409619e+02 -2.2329983113e+00 1.9990777805e+00 
          -3.7398456592e+00 -1.5088602365e+01 -4.4913432103e+00 
          -2.7914211408e+01 -1.9522713666e+01 6.0914401795e-01 
          -2.2071353210e+01 3.1523774998e+02 -7.2860980677e+00 
          5.2543270111e+01 5.7708556834e+01 -4.9565296130e-01 
          1.2829309188e+02 2.7323750943e+01 5.2282380783e+00 
          -3.6075110396e+02 1.2468843873e+01 1.5038769136e+00 
          1.4840179763e+01 -2.5468728997e+02 1.1580200000e+01 
          7.1853595549e+00 -1.3130381846e+02 -3.6531701241e+00 
          1.2260306371e+01 -5.5790162365e+01 -1.1673549292e+00 
        </DataArray>
        <DataArray type="Float64" Name="UnbalancedLoad" NumberOfComponents="3" format="ascii">
          0.0000000000e+00 0.0000000000e+00 -8.5957270883e+03 
          0.0000000000e+00 0.0000000000e+00 -8.8080470166e+03 
          0.0000000000e+00 0.0000000000e+00 -8.5953923529e+03 
          0.0000000000e+00 0.0000000000e+00 -1.3878718954e+04 
          0.0000000000e+00 0.0000000000e+00 -1.3878507510e+04 
          0.0000000000e+00 0.0000000000e+00 -9.3908560087e+03 
          0.0000000000e+00 0.0000000000e+00 -9.3921216609e+03 
          0.0000000000e+00 0.0000000000e+00 -7.0265434248e+03 
          0.0000000000e+00 0.0000000000e+00 -7.0275976404e+03 
          0.0000000000e+00 0.0000000000e+00 -8.8077122737e+03 
          0.0000000000e+00 0.0000000000e+00 -8.5957270883e+03 
          0.0000000000e+00 0.0000000000e+00 -1.3878718954e+04 
          0.0000000000e+00 0.0000000000e+00 -9.3921216609e+03 
          0.0000000000e+00 0.0000000000e+00 -9.3921216609e+03 
          0.0000000000e+00 0.0000000000e+00 -7.0275976404e+03 
          0.0000000000e+00 0.0000000000e+00 -8.8077122737e+03 
          0.0000000000e+00 0.0000000000e+00 -8.5957270883e+03 
          0.0000000000e+00 0.0000000000e+00 -1.3878718954e+04 
          0.0000000000e+00 0.0000000000e+00 -9.3921216609e+03 
          0.0000000000e+00 0.0000000000e+00 -9.3921216609e+03 
          0.0000000000e+00 0.0000000000e+00 -7.0275976404e+03 
          0.0000000000e+00 0.0000000000e+00 -8.8077122737e+03 
          0.0000000000e+00 0.0000000000e+00 -9.3921216609e+03 
          0.0000000000e+00 0.0000000000e+00 -9.3921216609e+03 
          0.0000000000e+00 0.0000000000e+00 -4.6819389822e+03 
          0.0000000000e+00 0.0000000000e+00 -4.6819389822e+03 
          0.0000000000e+00 0.0000000000e+00 -4.2287935446e+03 
          0.0000000000e+00 0.0000000000e+00 -4.2287935446e+03 
          0.0000000000e+00 0.0000000000e+00 -3.4811166432e+03 
          0.0000000000e+00 0.0000000000e+00 -3.4811166432e+03 
          0.0000000000e+00 0.0000000000e+00 -4.6819389822e+03 
          0.0000000000e+00 0.0000000000e+00 -4.2287935446e+03 
          0.0000000000e+00 0.0000000000e+00 -3.4811166432e+03 
          0.0000000000e+00 0.0000000000e+00 -4.6819389822e+03 
          0.0000000000e+00 0.0000000000e+00 -4.2287935446e+03 
          0.0000000000e+00 0.0000000000e+00 -3.4811166432e+03 
          0.0000000000e+00 0.0000000000e+00 -2.8031488870e+03 
          0.0000000000e+00 0.0000000000e+00 -2.8031488870e+03 
          0.0000000000e+00 0.0000000000e+00 -2.5361892875e+03 
          0.0000000000e+00 0.0000000000e+00 -2.5361892875e+03 
          0.0000000000e+00 0.0000000000e+00 -3.4560194484e+03 
          0.0000000000e+00 0.0000000000e+00 -3.4560194484e+03 
          0.0000000000e+00 0.0000000000e+00 -2.8031488870e+03 
          0.0000000000e+00 0.0000000000e+00 -2.5361892875e+03 
          0.0000000000e+00 0.0000000000e+00 -3.4560194484e+03 
          0.0000000000e+00 0.0000000000e+00 -2.8031488870e+03 
          0.0000000000e+00 0.0000000000e+00 -2.5361892875e+03 
          0.0000000000e+00 0.0000000000e+00 -3.4560194484e+03 
          0.0000000000e+00 0.0000000000e+00 -1.5941479675e+03 
          0.0000000000e+00 0.0000000000e+00 -1.5941479675e+03 
          0.0000000000e+00 0.0000000000e+00 -1.9931740166e+03 
          0.0000000000e+00 0.0000000000e+00 -1.6355936665e+03 
          0.0000000000e+00 0.0000000000e+00 -1.6355936665e+03 
          0.0000000000e+00 0.0000000000e+00 -9.0924013829e+02 
          0.0000000000e+00 0.0000000000e+00 -1.2258526600e+03 
          0.0000000000e+00 0.0000000000e+00 -1.2258526600e+03 
          0.0000000000e+00 0.0000000000e+00 -3.2574799744e+03 
          0.0000000000e+00 0.0000000000e+00 -3.2574799744e+03 
          0.0000000000e+00 0.0000000000e+00 -1.6248787091e+03 
          0.0000000000e+00 0.0000000000e+00 -2.9844447381e+03 
          0.0000000000e+00 0.0000000000e+00 -2.9844447381e+03 
          0.0000000000e+00 0.0000000000e+00 -1.6355936665e+03 
          0.0000000000e+00 0.0000000000e+00 -1.6355936665e+03 
          0.0000000000e+00 0.0000000000e+00 -9.0924013829e+02 
          0.0000000000e+00 0.0000000000e+00 -3.1165007272e+03 
          0.0000000000e+00 0.0000000000e+00 -3.1165007272e+03 
          0.0000000000e+00 0.0000000000e+00 -1.5941479675e+03 
          0.0000000000e+00 0.0000000000e+00 -2.9844447381e+03 
          0.0000000000e+00 0.0000000000e+00 -1.9931740166e+03 
          0.0000000000e+00 0.0000000000e+00 -1.2258526600e+03 
          0.0000000000e+00 0.0000000000e+00 -3.2574799744e+03 
          0.0000000000e+00 0.0000000000e+00 -1.6355936665e+03 
          0.0000000000e+00 0.0000000000e+00 -9.0924013829e+02 
          0.0000000000e+00 0.0000000000e+00 -1.6248787091e+03 
          0.0000000000e+00 0.0000000000e+00 -1.6355936665e+03 
          0.0000000000e+00 0.0000000000e+00 -9.0924013829e+02 
          0.0000000000e+00 0.0000000000e+00 -3.1165007272e+03 
          0.0000000000e+00 0.0000000000e+00 -8.6499489432e+02 
          0.0000000000e+00 0.0000000000e+00 -1.0452579697e+03 
          0.0000000000e+00 0.0000000000e+00 -1.0452579697e+03 
          0.0000000000e+00 0.0000000000e+00 -1.5941479675e+03 
          0.0000000000e+00 0.0000000000e+00 -2.9844447381e+03 
          0.0000000000e+00 0.0000000000e+00 -1.9931740166e+03 
          0.0000000000e+00 0.0000000000e+00 -1.2258526600e+03 
          0.0000000000e+00 0.0000000000e+00 -3.2574799744e+03 
          0.0000000000e+00 0.0000000000e+00 -1.6355936665e+03 
          0.0000000000e+00 0.0000000000e+00 -9.0924013829e+02 
          0.0000000000e+00 0.0000000000e+00 -1.6248787091e+03 
          0.0000000000e+00 0.0000000000e+00 -1.6355936665e+03 
          0.0000000000e+00 0.0000000000e+00 -9.0924013829e+02 
          0.0000000000e+00 0.0000000000e+00 -3.1165007272e+03 
          0.0000000000e+00 0.0000000000e+00 -1.9931740166e+03 
          0.0000000000e+00 0.0000000000e+00 -9.0924013829e+02 
          0.0000000000e+00 0.0000000000e+00 -1.6248787091e+03 
          0.0000000000e+00 0.0000000000e+00 -9.0924013829e+02 
          0.0000000000e+00 0.0000000000e+00 -8.6499489432e+02 
          0.0000000000e+00 0.0000000000e+00 -1.0452579697e+03 
          0.0000000000e+00 0.0000000000e+00 -1.0452579697e+03 
          0.0000000000e+00 0.0000000000e+00 -1.3514724178e+03 
          0.0000000000e+00 0.0000000000e+00 -1.3514823538e+03 
          0.0000000000e+00 0.0000000000e+00 -9.5931322513e+02 
          0.0000000000e+00 0.0000000000e+00 -1.3514724178e+03 
          0.0000000000e+00 0.0000000000e+00 -1.3514823538e+03 
          0.0000000000e+00 0.0000000000e+00 -9.5931322513e+02 
          0.0000000000e+00 0.0000000000e+00 -1.3514823538e+03 
          0.0000000000e+00 0.0000000000e+00 -9.5931322513e+02 
          0.0000000000e+00 0.0000000000e+00 -1.3514823538e+03 
          0.0000000000e+00 0.0000000000e+00 -9.5931322513e+02 
          0.0000000000e+00 0.0000000000e+00 -1.3514724178e+03 
          0.0000000000e+00 0.0000000000e+00 -1.3514823538e+03 
          0.0000000000e+00 0.0000000000e+00 -9.5931322513e+02 
          0.0000000000e+00 0.0000000000e+00 -1.3514724178e+03 
          0.0000000000e+00 0.0000000000e+00 -1.3514823538e+03 
          0.0000000000e+00 0.0000000000e+00 -9.5931322513e+02 
          0.0000000000e+00 0.0000000000e+00 -1.3514823538e+03 
          0.0000000000e+00 0.0000000000e+00 -9.5931322513e+02 
          0.0000000000e+00 0.0000000000e+00 -1.3514823538e+03 
          0.0000000000e+00 0.0000000000e+00 -9.5931322513e+02 
          0.0000000000e+00 0.0000000000e+00 -1.3514724178e+03 
          0.0000000000e+00 0.0000000000e+00 -1.3514823538e+03 
          0.0000000000e+00 0.0000000000e+00 -9.5931322513e+02 
          0.0000000000e+00 0.0000000000e+00 -1.3514724178e+03 
          0.0000000000e+00 0.0000000000e+00 -1.3514823538e+03 
          0.0000000000e+00 0.0000000000e+00 -9.5931322513e+02 
          0.0000000000e+00 0.0000000000e+00 -1.3514823538e+03 
          0.0000000000e+00 0.0000000000e+00 -9.5931322513e+02 
          0.0000000000e+00 0.0000000000e+00 -1.3514823538e+03 
          0.0000000000e+00 0.0000000000e+00 -9.5931322513e+02 
          0.0000000000e+00 0.0000000000e+00 -8.6705571299e+02 
          0.0000000000e+00 0.0000000000e+00 -8.6705571299e+02 
          0.0000000000e+00 0.0000000000e+00 -2.3702013340e+02 
          0.0000000000e+00 0.0000000000e+00 -2.3702013340e+02 
          0.0000000000e+00 0.0000000000e+00 -2.3702013340e+02 
          0.0000000000e+00 0.0000000000e+00 -2.3702013340e+02 
          0.0000000000e+00 0.0000000000e+00 -1.1532840812e+03 
          0.0000000000e+00 0.0000000000e+00 -1.0417486238e+03 
          0.0000000000e+00 0.0000000000e+00 -9.3918447252e+02 
          0.0000000000e+00 0.0000000000e+00 -1.1532840812e+03 
          0.0000000000e+00 0.0000000000e+00 -1.0417486238e+03 
          0.0000000000e+00 0.0000000000e+00 -9.3918447252e+02 
          0.0000000000e+00 0.0000000000e+00 -1.1532840812e+03 
          0.0000000000e+00 0.0000000000e+00 -1.0417486238e+03 
          0.0000000000e+00 0.0000000000e+00 -9.3918447252e+02 
          0.0000000000e+00 0.0000000000e+00 -1.1532840812e+03 
          0.0000000000e+00 0.0000000000e+00 -1.0417486238e+03 
          0.0000000000e+00 0.0000000000e+00 -9.3918447252e+02 
          0.0000000000e+00 0.0000000000e+00 -8.4687166992e+02 
          0.0000000000e+00 0.0000000000e+00 -7.6219859766e+02 
          0.0000000000e+00 0.0000000000e+00 -6.9089766355e+02 
          0.0000000000e+00 0.0000000000e+00 -8.4687166992e+02 
          0.0000000000e+00 0.0000000000e+00 -7.6219859766e+02 
          0.0000000000e+00 0.0000000000e+00 -6.9089766355e+02 
          0.0000000000e+00 0.0000000000e+00 -8.4687166992e+02 
          0.0000000000e+00 0.0000000000e+00 -7.6219859766e+02 
          0.0000000000e+00 0.0000000000e+00 -6.9089766355e+02 
          0.0000000000e+00 0.0000000000e+00 -8.4687166992e+02 
          0.0000000000e+00 0.0000000000e+00 -7.6219859766e+02 
          0.0000000000e+00 0.0000000000e+00 -6.9089766355e+02 
        </DataArray>
      </PointData>
      <CellData>
        <DataArray type="Int64" Name="ElementTag" format="ascii">
          0
        </DataArray>
      </CellData>
    </Piece>
  </UnstructuredGrid>
</VTKFile>
