<?xml version="1.0"?>
<VTKFile type="UnstructuredGrid" version="1.0" byte_order="LittleEndian" compressor="vtkZLibDataCompressor">
  <UnstructuredGrid>
    <Piece NumberOfPoints="158" NumberOfCells="1">
      <Points>
        <DataArray type="Float64" Name="Points" NumberOfComponents="3" format="ascii">
          1.7550000000e+00 -1.7550000000e+00 0.0000000000e+00 
          1.4140000000e+00 0.0000000000e+00 5.2300000000e+00 
          1.7550000000e+00 1.7550000000e+00 -0.0000000000e+00 
          1.4140000000e+00 -1.4140000000e+00 5.2300000000e+00 
          1.4140000000e+00 1.4140000000e+00 5.2300000000e+00 
          1.5840000000e+00 8.7800000000e-01 2.6150000000e+00 
          1.5840000000e+00 -8.7700000000e-01 2.6150000000e+00 
          1.5840000000e+00 1.5840000000e+00 2.6150000000e+00 
          1.5840000000e+00 -1.5840000000e+00 2.6150000000e+00 
          -0.0000000000e+00 1.4140000000e+00 5.2300000000e+00 
          -1.7550000000e+00 1.7550000000e+00 -0.0000000000e+00 
          -1.4140000000e+00 1.4140000000e+00 5.2300000000e+00 
          -8.7700000000e-01 1.5840000000e+00 2.6150000000e+00 
          8.7700000000e-01 1.5840000000e+00 2.6150000000e+00 
          -1.5840000000e+00 1.5840000000e+00 2.6150000000e+00 
          -1.4140000000e+00 -0.0000000000e+00 5.2300000000e+00 
          -1.7550000000e+00 -1.7550000000e+00 -0.0000000000e+00 
          -1.4140000000e+00 -1.4140000000e+00 5.2300000000e+00 
          -1.5840000000e+00 -8.7700000000e-01 2.6150000000e+00 
          -1.5840000000e+00 8.7700000000e-01 2.6150000000e+00 
          -1.5840000000e+00 -1.5840000000e+00 2.6150000000e+00 
          0.0000000000e+00 -1.4140000000e+00 5.2300000000e+00 
          8.7700000000e-01 -1.5840000000e+00 2.6150000000e+00 
          -8.7700000000e-01 -1.5840000000e+00 2.6150000000e+00 
          1.2750000000e+00 1.2750000000e+00 7.3500000000e+00 
          1.2750000000e+00 -1.2750000000e+00 7.3500000000e+00 
          1.1500000000e+00 -1.1500000000e+00 9.2700000000e+00 
          1.1500000000e+00 1.1500000000e+00 9.2700000000e+00 
          1.0370000000e+00 -1.0370000000e+00 1.1000000000e+01 
          1.0370000000e+00 1.0370000000e+00 1.1000000000e+01 
          -1.2750000000e+00 1.2750000000e+00 7.3500000000e+00 
          -1.1500000000e+00 1.1500000000e+00 9.2700000000e+00 
          -1.0370000000e+00 1.0370000000e+00 1.1000000000e+01 
          -1.2750000000e+00 -1.2750000000e+00 7.3500000000e+00 
          -1.1500000000e+00 -1.1500000000e+00 9.2700000000e+00 
          -1.0370000000e+00 -1.0370000000e+00 1.1000000000e+01 
          9.3500000000e-01 9.3500000000e-01 1.2560000000e+01 
          9.3500000000e-01 -9.3500000000e-01 1.2560000000e+01 
          8.4300000000e-01 8.4300000000e-01 1.3960000000e+01 
          8.4300000000e-01 -8.4300000000e-01 1.3960000000e+01 
          7.6000000000e-01 7.6000000000e-01 1.5240000000e+01 
          7.6000000000e-01 -7.6000000000e-01 1.5240000000e+01 
          -9.3500000000e-01 9.3500000000e-01 1.2560000000e+01 
          -8.4300000000e-01 8.4300000000e-01 1.3960000000e+01 
          -7.6000000000e-01 7.6000000000e-01 1.5240000000e+01 
          -9.3500000000e-01 -9.3500000000e-01 1.2560000000e+01 
          -8.4300000000e-01 -8.4300000000e-01 1.3960000000e+01 
          -7.6000000000e-01 -7.6000000000e-01 1.5240000000e+01 
          7.6000000000e-01 -7.6000000000e-01 1.6240000000e+01 
          7.6000000000e-01 7.6000000000e-01 1.6240000000e+01 
          7.6000000000e-01 0.0000000000e+00 1.6240000000e+01 
          7.6000000000e-01 7.6000000000e-01 1.7340000000e+01 
          7.6000000000e-01 -7.6000000000e-01 1.7340000000e+01 
          7.6000000000e-01 0.0000000000e+00 1.7890000000e+01 
          7.6000000000e-01 -7.6000000000e-01 1.9440000000e+01 
          7.6000000000e-01 7.6000000000e-01 1.9440000000e+01 
          7.6000000000e-01 -7.6000000000e-01 2.1640000000e+01 
          7.6000000000e-01 7.6000000000e-01 2.1640000000e+01 
          7.6000000000e-01 0.0000000000e+00 1.9440000000e+01 
          7.6000000000e-01 7.6000000000e-01 1.8440000000e+01 
          7.6000000000e-01 -7.6000000000e-01 1.8440000000e+01 
          7.6000000000e-01 -7.6000000000e-01 2.0540000000e+01 
          7.6000000000e-01 7.6000000000e-01 2.0540000000e+01 
          7.6000000000e-01 0.0000000000e+00 2.1090000000e+01 
          7.6000000000e-01 7.6000000000e-01 2.2640000000e+01 
          7.6000000000e-01 -7.6000000000e-01 2.2640000000e+01 
          -7.6000000000e-01 7.6000000000e-01 1.6240000000e+01 
          -7.6000000000e-01 7.6000000000e-01 1.8440000000e+01 
          -0.0000000000e+00 7.6000000000e-01 1.6240000000e+01 
          -7.6000000000e-01 7.6000000000e-01 1.9440000000e+01 
          -7.6000000000e-01 7.6000000000e-01 2.1640000000e+01 
          -7.6000000000e-01 7.6000000000e-01 1.7340000000e+01 
          -0.0000000000e+00 7.6000000000e-01 1.7890000000e+01 
          -0.0000000000e+00 7.6000000000e-01 1.9440000000e+01 
          -7.6000000000e-01 7.6000000000e-01 2.0540000000e+01 
          0.0000000000e+00 7.6000000000e-01 2.1090000000e+01 
          -7.6000000000e-01 7.6000000000e-01 2.2640000000e+01 
          -0.0000000000e+00 5.2600000000e-01 2.3499000000e+01 
          3.9900000000e-01 4.0400000000e-01 2.3950000000e+01 
          -3.9900000000e-01 4.0400000000e-01 2.3950000000e+01 
          -7.6000000000e-01 -7.6000000000e-01 1.6240000000e+01 
          -7.6000000000e-01 -7.6000000000e-01 1.8440000000e+01 
          -7.6000000000e-01 -0.0000000000e+00 1.6240000000e+01 
          -7.6000000000e-01 -7.6000000000e-01 1.9440000000e+01 
          -7.6000000000e-01 -7.6000000000e-01 2.1640000000e+01 
          -7.6000000000e-01 -7.6000000000e-01 1.7340000000e+01 
          -7.6000000000e-01 0.0000000000e+00 1.7890000000e+01 
          -7.6000000000e-01 -0.0000000000e+00 1.9440000000e+01 
          -7.6000000000e-01 -7.6000000000e-01 2.0540000000e+01 
          -7.6000000000e-01 -0.0000000000e+00 2.1090000000e+01 
          -7.6000000000e-01 -7.6000000000e-01 2.2640000000e+01 
          0.0000000000e+00 -7.6000000000e-01 1.6240000000e+01 
          0.0000000000e+00 -7.6000000000e-01 1.7890000000e+01 
          0.0000000000e+00 -7.6000000000e-01 1.9440000000e+01 
          0.0000000000e+00 -7.6000000000e-01 2.1090000000e+01 
          0.0000000000e+00 -5.2600000000e-01 2.3499000000e+01 
          3.9900000000e-01 -4.0400000000e-01 2.3950000000e+01 
          -3.9900000000e-01 -4.0400000000e-01 2.3950000000e+01 
          -0.0000000000e+00 -3.3500000000e+00 2.1640000000e+01 
          -3.8000000000e-01 -2.0550000000e+00 2.2140000000e+01 
          -3.8000000000e-01 -2.0550000000e+00 2.1640000000e+01 
          0.0000000000e+00 3.3500000000e+00 2.1640000000e+01 
          -3.8000000000e-01 2.0550000000e+00 2.2140000000e+01 
          -3.8000000000e-01 2.0550000000e+00 2.1640000000e+01 
          3.8000000000e-01 2.0550000000e+00 2.2140000000e+01 
          3.8000000000e-01 2.0550000000e+00 2.1640000000e+01 
          3.8000000000e-01 -2.0550000000e+00 2.2140000000e+01 
          3.8000000000e-01 -2.0550000000e+00 2.1640000000e+01 
          -0.0000000000e+00 -3.3500000000e+00 1.8440000000e+01 
          -3.8000000000e-01 -2.0550000000e+00 1.8940000000e+01 
          -3.8000000000e-01 -2.0550000000e+00 1.8440000000e+01 
          -0.0000000000e+00 3.3500000000e+00 1.8440000000e+01 
          -3.8000000000e-01 2.0550000000e+00 1.8940000000e+01 
          -3.8000000000e-01 2.0550000000e+00 1.8440000000e+01 
          3.8000000000e-01 2.0550000000e+00 1.8940000000e+01 
          3.8000000000e-01 2.0550000000e+00 1.8440000000e+01 
          3.8000000000e-01 -2.0550000000e+00 1.8940000000e+01 
          3.8000000000e-01 -2.0550000000e+00 1.8440000000e+01 
          -0.0000000000e+00 -3.3500000000e+00 1.5240000000e+01 
          -3.8000000000e-01 -2.0550000000e+00 1.5740000000e+01 
          -3.8000000000e-01 -2.0550000000e+00 1.5240000000e+01 
          -0.0000000000e+00 3.3500000000e+00 1.5240000000e+01 
          -3.8000000000e-01 2.0550000000e+00 1.5740000000e+01 
          -3.8000000000e-01 2.0550000000e+00 1.5240000000e+01 
          3.8000000000e-01 2.0550000000e+00 1.5740000000e+01 
          3.8000000000e-01 2.0550000000e+00 1.5240000000e+01 
          3.8000000000e-01 -2.0550000000e+00 1.5740000000e+01 
          3.8000000000e-01 -2.0550000000e+00 1.5240000000e+01 
          -5.2400000000e-01 0.0000000000e+00 2.3496000000e+01 
          5.2400000000e-01 0.0000000000e+00 2.3496000000e+01 
          4.0000000000e-02 5.0000000000e-02 2.5250000000e+01 
          -4.0000000000e-02 5.0000000000e-02 2.5250000000e+01 
          -4.0000000000e-02 -5.0000000000e-02 2.5250000000e+01 
          4.0000000000e-02 -5.0000000000e-02 2.5250000000e+01 
          1.3410000000e+00 0.0000000000e+00 6.3450000000e+00 
          1.2090000000e+00 0.0000000000e+00 8.3600000000e+00 
          1.0900000000e+00 -0.0000000000e+00 1.0180000000e+01 
          -0.0000000000e+00 1.3410000000e+00 6.3450000000e+00 
          0.0000000000e+00 1.2090000000e+00 8.3600000000e+00 
          -0.0000000000e+00 1.0900000000e+00 1.0180000000e+01 
          -1.3410000000e+00 0.0000000000e+00 6.3450000000e+00 
          -1.2090000000e+00 0.0000000000e+00 8.3600000000e+00 
          -1.0900000000e+00 -0.0000000000e+00 1.0180000000e+01 
          -0.0000000000e+00 -1.3410000000e+00 6.3450000000e+00 
          0.0000000000e+00 -1.2090000000e+00 8.3600000000e+00 
          0.0000000000e+00 -1.0900000000e+00 1.0180000000e+01 
          9.8300000000e-01 0.0000000000e+00 1.1820000000e+01 
          8.8700000000e-01 0.0000000000e+00 1.3296000000e+01 
          8.0000000000e-01 -0.0000000000e+00 1.4633000000e+01 
          0.0000000000e+00 9.8300000000e-01 1.1820000000e+01 
          -0.0000000000e+00 8.8700000000e-01 1.3296000000e+01 
          0.0000000000e+00 8.0000000000e-01 1.4633000000e+01 
          -9.8300000000e-01 0.0000000000e+00 1.1820000000e+01 
          -8.8700000000e-01 0.0000000000e+00 1.3296000000e+01 
          -8.0000000000e-01 0.0000000000e+00 1.4633000000e+01 
          0.0000000000e+00 -9.8300000000e-01 1.1820000000e+01 
          0.0000000000e+00 -8.8700000000e-01 1.3296000000e+01 
          0.0000000000e+00 -8.0000000000e-01 1.4633000000e+01 
        </DataArray>
      </Points>
      <Cells>
        <DataArray type="Int64" Name="connectivity" format="ascii">
          0
          1
          2
          3
          4
          5
          6
          7
          8
          9
          10
          11
          12
          13
          14
          15
          16
          17
          18
          19
          20
          21
          22
          23
          24
          25
          26
          27
          28
          29
          30
          31
          32
          33
          34
          35
          36
          37
          38
          39
          40
          41
          42
          43
          44
          45
          46
          47
          48
          49
          50
          51
          52
          53
          54
          55
          56
          57
          58
          59
          60
          61
          62
          63
          64
          65
          66
          67
          68
          69
          70
          71
          72
          73
          74
          75
          76
          77
          78
          79
          80
          81
          82
          83
          84
          85
          86
          87
          88
          89
          90
          91
          92
          93
          94
          95
          96
          97
          98
          99
          100
          101
          102
          103
          104
          105
          106
          107
          108
          109
          110
          111
          112
          113
          114
          115
          116
          117
          118
          119
          120
          121
          122
          123
          124
          125
          126
          127
          128
          129
          130
          131
          132
          133
          134
          135
          136
          137
          138
          139
          140
          141
          142
          143
          144
          145
          146
          147
          148
          149
          150
          151
          152
          153
          154
          155
          156
          157
        </DataArray>
        <DataArray type="Int64" Name="offsets" format="ascii">
          158
        </DataArray>
        <DataArray type="Int64" Name="types" format="ascii">
          2
        </DataArray>
      </Cells>
      <PointData>
        <DataArray type="Int64" Name="NodeTag" format="ascii">
          1
          2
          3
          4
          5
          6
          7
          8
          9
          10
          11
          12
          13
          14
          15
          16
          17
          18
          19
          20
          21
          22
          23
          24
          25
          26
          27
          28
          29
          30
          31
          32
          33
          34
          35
          36
          37
          38
          39
          40
          41
          42
          43
          44
          45
          46
          47
          48
          49
          50
          51
          52
          53
          54
          55
          56
          57
          58
          59
          60
          61
          62
          63
          64
          65
          66
          67
          68
          69
          70
          71
          72
          73
          74
          75
          76
          77
          78
          79
          80
          81
          82
          83
          84
          85
          86
          87
          88
          89
          90
          91
          92
          93
          94
          95
          96
          97
          98
          99
          100
          101
          102
          103
          104
          105
          106
          107
          108
          109
          110
          111
          112
          113
          114
          115
          116
          117
          118
          119
          120
          121
          122
          123
          124
          125
          126
          127
          128
          129
          130
          131
          132
          133
          134
          135
          136
          137
          138
          139
          140
          141
          142
          143
          144
          145
          146
          147
          148
          149
          150
          151
          152
          153
          154
          155
          156
          157
          158
        </DataArray>
        <DataArray type="Float64" Name="Displacement" NumberOfComponents="3" format="ascii">
          0.0000000000e+00 0.0000000000e+00 0.0000000000e+00 
          -6.8339435217e-04 -2.6205627725e-05 -4.2886416219e-04 
          0.0000000000e+00 0.0000000000e+00 0.0000000000e+00 
          -1.1818283304e-05 -1.1711012316e-05 -2.1408653764e-03 
          -1.3065717048e-05 -4.1602799119e-05 -2.0988412945e-03 
          -3.2559115026e-03 -3.3794471748e-03 -1.6078935176e-03 
          -3.3219845589e-03 3.4131670119e-03 -1.6333079198e-03 
          -3.3512404751e-03 -3.3739424500e-03 -1.5572312976e-03 
          -3.4227127383e-03 3.4074750013e-03 -1.5871041602e-03 
          1.7736294352e-06 -7.0325048053e-04 -4.2907237326e-04 
          0.0000000000e+00 0.0000000000e+00 0.0000000000e+00 
          1.6698319443e-05 -3.9453789751e-05 -2.0989794785e-03 
          3.3599158073e-03 -3.2715750481e-03 -1.6058390631e-03 
          -3.3567543733e-03 -3.2756884706e-03 -1.6056716710e-03 
          3.3544073263e-03 -3.3698747710e-03 -1.5571799379e-03 
          6.8848797118e-04 -2.3990883528e-05 -4.3022048146e-04 
          0.0000000000e+00 0.0000000000e+00 0.0000000000e+00 
          1.7424538951e-05 -9.5194767594e-06 -2.1407817384e-03 
          3.3258913619e-03 3.4130616032e-03 -1.6336324323e-03 
          3.2590023278e-03 -3.3753784155e-03 -1.6075073452e-03 
          3.4263741071e-03 3.4073745475e-03 -1.5870598744e-03 
          2.7387443427e-06 6.6558046561e-04 -4.3101765271e-04 
          -3.4284072014e-03 3.3079462699e-03 -1.6352686740e-03 
          3.4320618063e-03 3.3077255965e-03 -1.6355198943e-03 
          4.7652586756e-04 4.0981313748e-04 -2.8364639134e-03 
          4.9419708006e-04 -5.6721162990e-04 -2.8955557962e-03 
          9.2637707836e-05 -2.1424778283e-04 -3.6308503450e-03 
          8.7142521129e-05 -6.8326157527e-05 -3.5587672953e-03 
          2.9474430825e-04 -5.1608779529e-04 -4.1486081732e-03 
          2.8250947698e-04 9.6521824009e-05 -4.0697211487e-03 
          -4.7190306148e-04 4.1190747020e-04 -2.8363425821e-03 
          -8.1546989825e-05 -6.6094119058e-05 -3.5585271242e-03 
          -2.7611858013e-04 9.8540297418e-05 -4.0695002200e-03 
          -4.8560866031e-04 -5.6476894345e-04 -2.8953803533e-03 
          -8.1654339585e-05 -2.1205164675e-04 -3.6307463743e-03 
          -2.8209713024e-04 -5.1409792314e-04 -4.1486788664e-03 
          1.6113650346e-04 -1.5984573444e-04 -4.6690777957e-03 
          1.6891737211e-04 -4.0675748795e-04 -4.7554566956e-03 
          2.1180597213e-04 -8.8763970982e-05 -5.1385229292e-03 
          2.2128940176e-04 -6.2938101611e-04 -5.2279788018e-03 
          6.3814042383e-05 -4.7360029079e-04 -5.5610414077e-03 
          6.8426879027e-05 -3.9843296128e-04 -5.6510703079e-03 
          -1.5413141112e-04 -1.5813523242e-04 -4.6689828119e-03 
          -2.0461435781e-04 -8.7422501831e-05 -5.1386364099e-03 
          -5.6963384431e-05 -4.7282865320e-04 -5.5614102327e-03 
          -1.5523403319e-04 -4.0515995243e-04 -4.7557754602e-03 
          -2.0731982247e-04 -6.2828959251e-04 -5.2285357181e-03 
          -5.4834329746e-05 -3.9771202982e-04 -5.6518204146e-03 
          -4.9063023375e-06 -5.4488577766e-04 -6.1486604502e-03 
          -8.0363637021e-06 -4.5743560134e-04 -6.0463003990e-03 
          4.9595149557e-05 -5.0114741640e-04 -5.8319109138e-03 
          6.6371841922e-04 1.7526076709e-04 -6.4991062828e-03 
          6.8246137132e-04 -1.3586313185e-03 -6.6154480601e-03 
          3.4884351487e-04 -6.3569460934e-04 -7.5081923563e-03 
          -2.0670866673e-05 -8.5776212717e-04 -7.6315325243e-03 
          -2.3808221350e-05 -6.8579787068e-04 -7.4992978107e-03 
          1.0057630660e-05 -8.8218495340e-04 -8.2587521352e-03 
          7.7665172995e-06 -1.0700105758e-03 -8.1195782407e-03 
          3.5589791408e-05 -7.7180716669e-04 -7.3685488766e-03 
          2.3894294393e-05 -7.6615225417e-04 -7.2069055665e-03 
          2.6270230709e-05 -6.0213540566e-04 -7.3352898809e-03 
          3.7546925466e-04 -1.3479998307e-03 -7.8801157435e-03 
          3.6770103698e-04 -4.0062464163e-04 -7.7434298048e-03 
          1.9014021652e-04 -9.2471931566e-04 -8.4023590631e-03 
          5.7830179267e-06 -9.5361950356e-04 -8.2564212866e-03 
          8.4955895081e-06 -1.1834773529e-03 -8.3960071969e-03 
          1.4650757382e-05 -4.5697617841e-04 -6.0472048038e-03 
          -2.1613219059e-05 -7.6626741292e-04 -7.2089532692e-03 
          3.2979992901e-06 -4.1367756667e-04 -5.8526521935e-03 
          2.3392804193e-05 -6.8599866607e-04 -7.5017435928e-03 
          -1.6649737104e-05 -1.0708539232e-03 -8.1227362722e-03 
          -6.5897648176e-04 1.7607962691e-04 -6.5004624994e-03 
          1.8801668235e-06 -2.9717728166e-04 -7.3041739811e-03 
          -2.1464153475e-07 -6.6505459986e-04 -7.3780147041e-03 
          -3.7219803588e-04 -4.0056122370e-04 -7.7461938791e-03 
          -3.2740071402e-06 -7.3787280999e-04 -8.1915754149e-03 
          -1.8889015948e-05 -9.5453587862e-04 -8.2597431859e-03 
          -8.2459159600e-06 -1.2741085430e-03 -8.3940697266e-03 
          -1.0337577259e-05 -1.1974619051e-03 -8.3804862408e-03 
          -8.1338413627e-06 -1.1977858003e-03 -8.3823134612e-03 
          1.7783256283e-05 -5.4442035264e-04 -6.1498616741e-03 
          -1.7637190984e-05 -6.0222792257e-04 -7.3375233788e-03 
          -3.9540281543e-05 -5.0069150533e-04 -5.8327103674e-03 
          2.6488069131e-05 -8.5797900802e-04 -7.6342178556e-03 
          -1.3298879136e-05 -8.8292364717e-04 -8.2623081599e-03 
          -6.7136575223e-04 -1.3591232215e-03 -6.6170190486e-03 
          -3.4160114392e-04 -6.3566788704e-04 -7.5104502426e-03 
          -3.2445921029e-05 -7.7202196080e-04 -7.3708891935e-03 
          -3.7396449011e-04 -1.3489994764e-03 -7.8831749516e-03 
          -1.9329056427e-04 -9.2532811778e-04 -8.4058920440e-03 
          -1.6678260906e-05 -1.1846024713e-03 -8.3998415335e-03 
          6.4466870960e-06 -5.9367518099e-04 -5.9511254720e-03 
          5.0548744135e-06 -9.8198685242e-04 -7.4378068779e-03 
          2.9093411601e-06 -8.8606316017e-04 -7.5087276691e-03 
          -3.4070648948e-07 -1.1174546523e-03 -8.3332896480e-03 
          -6.4619680850e-06 -1.0322485401e-03 -8.4882461354e-03 
          -8.7771906635e-06 -1.1821978732e-03 -8.4546699300e-03 
          -6.9159536320e-06 -1.1825464695e-03 -8.4569374334e-03 
          2.9985309158e-07 -7.6101187957e-04 -1.0181630639e-02 
          1.0012773129e-06 -1.0918670295e-03 -9.1441515308e-03 
          2.8230718244e-06 -8.1793619062e-04 -9.1557036597e-03 
          -5.8966965439e-06 -1.1926460244e-03 -9.5664036683e-03 
          -8.0702772209e-06 -9.5274436222e-04 -8.7653489935e-03 
          -6.0983293605e-06 -1.1346110890e-03 -8.7769481930e-03 
          -8.9182991335e-06 -9.5357241359e-04 -8.7633591974e-03 
          -5.3137713571e-06 -1.1345271408e-03 -8.7749358443e-03 
          1.8136705029e-08 -1.0929263777e-03 -9.1415405672e-03 
          3.7836957264e-06 -8.1986814941e-04 -9.1530766925e-03 
          5.0268192376e-06 -4.7849148101e-04 -9.3293472698e-03 
          6.5046753661e-06 -8.2260715014e-04 -8.2580701001e-03 
          7.3729847405e-06 -5.3513547952e-04 -8.2696118842e-03 
          9.2450634874e-07 -8.9086412049e-04 -8.7483421648e-03 
          -9.5087708925e-07 -6.3307088981e-04 -7.9014858304e-03 
          1.7985899014e-07 -8.3288234154e-04 -7.9130750741e-03 
          -1.9333725079e-06 -6.3401754040e-04 -7.9000872314e-03 
          1.0635660795e-06 -8.3307954065e-04 -7.9116595315e-03 
          5.2943871668e-06 -8.2375970248e-04 -8.2562750388e-03 
          8.5125708642e-06 -5.3698822816e-04 -8.2678041245e-03 
          6.2558329203e-06 -2.6328046021e-04 -7.5833022533e-03 
          8.6562667989e-06 -5.9478015851e-04 -6.5441462794e-03 
          8.8025908583e-06 -3.1975201345e-04 -6.5556933086e-03 
          4.6058874247e-06 -6.0830993775e-04 -7.1458738289e-03 
          2.8770820284e-06 -3.4249447333e-04 -6.2784870715e-03 
          3.2767901021e-06 -5.5026957953e-04 -6.2900726047e-03 
          1.9120879959e-06 -3.4370110775e-04 -6.2780555175e-03 
          4.2291267587e-06 -5.5081587995e-04 -6.2896253593e-03 
          7.4946284953e-06 -5.9620120712e-04 -6.5430126802e-03 
          9.9765402587e-06 -3.2177047033e-04 -6.5545513671e-03 
          1.3564650209e-04 -1.1483460220e-03 -8.4758130885e-03 
          -1.4755459120e-04 -1.1478212317e-03 -8.4724024465e-03 
          -8.4127187035e-06 -1.3118782435e-03 -8.4255954692e-03 
          -8.2142942470e-06 -1.3117343173e-03 -8.4279575476e-03 
          -8.2044245556e-06 -1.3116263313e-03 -8.4366665829e-03 
          -8.4097001704e-06 -1.3114805601e-03 -8.4343106862e-03 
          -9.1966596168e-04 -4.9469339791e-05 -2.2990118923e-03 
          -4.8535547603e-04 -1.0789305394e-04 -3.5786595072e-03 
          -3.1504143641e-04 -1.7438761844e-04 -3.7684361810e-03 
          2.0339731110e-06 -1.0085650723e-03 -2.2854592869e-03 
          2.5475491242e-06 -6.3159685337e-04 -3.5313939999e-03 
          3.0073227886e-06 -5.0935272204e-04 -3.7564242776e-03 
          9.3477919686e-04 -4.7238125124e-05 -2.2996664207e-03 
          4.9850379397e-04 -1.0563037699e-04 -3.5787517895e-03 
          3.2754346526e-04 -1.7225905790e-04 -3.7685487122e-03 
          3.5794200756e-06 8.4043947527e-04 -2.3219946922e-03 
          4.9514846436e-06 3.5545025027e-04 -3.6012057440e-03 
          5.9767348195e-06 1.1313533873e-04 -3.8249157683e-03 
          -1.1607909247e-04 -2.4533734155e-04 -4.5738090419e-03 
          -3.4178364794e-05 -3.2075075479e-04 -4.8888537219e-03 
          -6.8398520451e-07 -3.9762606803e-04 -5.6144123254e-03 
          3.3778231429e-06 -3.9337322759e-04 -4.4946633566e-03 
          3.5914551201e-06 -3.4692361334e-04 -4.9064497067e-03 
          3.5577398446e-06 -4.5207050659e-04 -5.4702697800e-03 
          1.2814673348e-04 -2.4349265034e-04 -4.5739418632e-03 
          4.6356861191e-05 -3.1931910956e-04 -4.8891459354e-03 
          1.2443029795e-05 -3.9666785932e-04 -5.6150116185e-03 
          6.6621394092e-06 -1.3253241383e-04 -4.5780960183e-03 
          6.9853297237e-06 -3.2086470107e-04 -4.9917995348e-03 
          6.9479897309e-06 -3.6258571214e-04 -5.5620069668e-03 
        </DataArray>
        <DataArray type="Float64" Name="Reaction" NumberOfComponents="3" format="ascii">
          -3.1349435692e+04 3.1491688460e+04 3.8741034214e+05 
          -6.2641055774e-01 -1.3048408425e+00 1.5975419072e-02 
          -3.0817719669e+04 -3.0609232450e+04 3.8001856195e+05 
          -1.0244936890e+00 -1.6506882087e+00 4.2780824796e-02 
          -6.2090785347e-01 -2.6184010376e+00 1.5075618755e-02 
          1.8338020286e+00 -1.4891104052e-01 -1.8643248060e-03 
          -1.7953172998e-01 1.8627663917e-01 -1.3852625988e-02 
          5.1428946582e-01 -1.8207941602e-01 3.5917703667e-03 
          -1.1061755896e+00 2.0459128897e-01 -1.5376120196e-04 
          -7.7783442897e-02 -1.6440336113e+00 8.6198448108e-03 
          3.0764224508e+04 -3.0587021416e+04 3.7978582595e+05 
          3.8373668839e-01 -3.0744859401e+00 1.5511685385e-02 
          -6.7584528926e-01 9.9952352593e-01 -2.1018527317e-03 
          7.7228031617e-01 9.7464075604e-01 -1.9542255426e-03 
          -4.3154129593e-01 -3.4515133212e-01 3.6205738134e-03 
          2.9967459589e-01 -1.5754185291e+00 1.6469307878e-02 
          3.1276489550e+04 3.1481356698e+04 3.8718049493e+05 
          -5.4965113120e-02 -2.0700533807e+00 4.4349539465e-02 
          -4.6055213702e-02 4.6420150029e-01 -1.4890611006e-02 
          -1.7560064800e+00 -3.8327241961e-01 -2.0462067254e-03 
          9.7550535110e-01 4.0598060108e-01 -9.6174756305e-04 
          -3.4294489874e-01 -7.9017424809e-01 2.3874829156e-02 
          -1.4094989807e+00 -7.9789640645e-01 -1.3770877713e-02 
          1.2229668766e+00 -6.8009567817e-01 -1.4792380989e-02 
          6.7670723669e-02 -1.3703648632e+00 -1.7533377452e-03 
          6.5478226296e-02 -1.7838034273e+00 1.0104477221e-03 
          -1.8932469263e-01 -2.2309807624e+00 -1.4043613936e-03 
          5.9027613919e-03 -2.0933888831e+00 6.2731049537e-04 
          -3.9319299285e-01 -2.2631168071e+00 1.1764666922e-03 
          -3.0437687153e-01 -2.5751187490e+00 -1.3898609780e-03 
          -5.9199032127e-02 -1.7303205311e+00 -1.8770086466e-03 
          -1.6163802430e-01 -2.5557698818e+00 6.8652089848e-04 
          -2.0786924759e-02 -2.9952140315e+00 -1.3281511996e-03 
          -4.7724122573e-01 -2.1645765190e+00 1.1382465652e-03 
          -3.9484363904e-01 -2.6987828923e+00 -1.4691911010e-03 
          -2.5765909099e-01 -2.6876434618e+00 1.2855136398e-03 
          -5.8812324559e-01 -2.9141170137e+00 1.2367139004e-04 
          -6.8158606509e-01 -2.0856494691e+00 -9.7797097158e-04 
          -3.9392914346e-01 -3.0138934651e+00 -2.6563687251e-03 
          -4.4627013098e-01 -2.5272940584e+00 1.3233051567e-03 
          3.3884098091e-01 -4.1943508588e+00 1.6806533599e-03 
          2.6809498361e-01 -4.8878916146e+00 -1.2203592121e-03 
          2.5793287066e-01 -3.2548423944e+00 2.0199279640e-04 
          1.6700223481e-01 -3.2454576514e+00 -2.5451111829e-03 
          -6.1496896208e-01 -4.4830222825e+00 1.7193932009e-03 
          1.0380447003e-01 -2.3353036819e+00 -9.1454277452e-04 
          4.8809460039e-02 -2.7484544450e+00 1.2972566313e-03 
          -7.0671354932e-01 -5.0567200294e+00 -1.1804671386e-03 
          -1.6781459477e-01 -2.3762745392e+00 -1.6756772085e-03 
          -1.5972165655e-01 -2.2677648093e+00 3.2730883791e-04 
          -1.6404929045e-01 -2.9111124283e+00 -1.5178095766e-03 
          -4.8986727955e-01 -2.9388032408e+00 -5.0622031029e-03 
          -4.1698438441e-01 -2.6184123853e+00 6.1882745619e-03 
          3.3809463018e-02 -1.6547715020e+00 1.0691874596e-03 
          1.1379777345e-01 -2.6349627573e+00 -3.5328214863e-05 
          8.3918993545e-02 -2.4218608433e+00 2.6525667345e-04 
          2.9205663415e-01 -8.3026852460e+00 -2.0337159622e-03 
          2.0605734904e-01 -7.7589712145e+00 1.7676612965e-03 
          6.4689591248e-03 -3.3606987752e+00 -4.6341591352e-04 
          5.3415020718e-01 -5.3857400158e+00 2.2204941582e-03 
          5.5625744450e-01 -6.0408378094e+00 -2.7939998984e-03 
          3.3026928343e-02 -3.5140493529e+00 4.0160191820e-03 
          -5.2517694830e-02 -3.8915067930e+00 -2.8322747659e-03 
          1.0532827719e-01 -2.1586064970e+00 3.9384863260e-04 
          7.5841234458e-02 -8.0665222485e+00 -1.0602739181e-03 
          1.7924129608e-01 -8.4267592382e+00 1.3055672183e-03 
          -1.3338096759e-01 -2.3710554662e+00 3.9228771193e-04 
          -7.7586413195e-01 -5.4869775657e+00 2.2505878986e-03 
          -1.8003781775e-01 -3.0449102168e+00 -2.2996403833e-05 
          1.3057424005e-01 -2.4946011666e+00 3.3337927543e-04 
          -2.8798610431e-01 -7.9901767731e+00 1.8707451156e-03 
          2.0474289323e-01 -3.1729947600e+00 -5.1389303386e-03 
          -6.9472006882e-02 -1.6749524246e+00 9.4066362290e-04 
          1.2937162540e-01 -3.4559653825e+00 6.5585921850e-05 
          2.6095208500e-01 -3.9088675543e+00 -3.1223130726e-03 
          2.1622811830e-02 -2.2445464273e+00 3.3165964116e-04 
          8.5524542104e-02 -8.1089073917e+00 -1.1782165171e-03 
          -1.2973829459e-01 -2.4886221854e+00 8.3797734799e-04 
          1.4450164750e-02 -3.0345700015e+00 1.4851641135e-03 
          9.1808900190e-02 -3.0648846197e+00 1.4641756580e-03 
          -1.4123358548e-01 -2.4609201749e+00 -1.3893517806e-03 
          -7.0708275060e-01 -6.0716992402e+00 -2.6166634704e-03 
          -2.1481228412e-01 -3.0274459618e+00 -1.2899897474e-03 
          1.5710593088e-01 -2.6149267288e+00 1.2211308981e-04 
          -1.8363656073e-01 -8.2558488711e+00 -1.8972520565e-03 
          1.6568869536e-01 -2.5379211244e+00 5.2788650941e-03 
          -1.2024832903e-01 -1.6845405254e+00 9.5292052287e-04 
          2.2048241984e-02 -3.3966350259e+00 -3.7219257382e-04 
          2.7668016757e-01 -3.6181957997e+00 3.5039377406e-03 
          1.7949689094e-02 -2.1881952857e+00 3.8335159811e-04 
          1.6377000774e-01 -8.5855517210e+00 1.4423904337e-03 
          -1.9223686050e-01 -3.1168231682e+00 -2.0360998863e-03 
          -5.7156083135e-02 -1.8181093004e+00 1.0458693180e-03 
          1.6694734449e-01 -3.4122830441e+00 -4.8756010158e-04 
          4.8260682912e-02 -2.3265950888e+00 3.1348785077e-04 
          -1.1619952368e-01 -2.4932352537e+00 -6.6879670678e-04 
          3.3677088203e-02 -3.0228754228e+00 1.3237556857e-03 
          9.7032348202e-02 -3.0356283530e+00 1.3645088575e-03 
          1.4726193481e-01 -3.3950625533e+00 -1.5642600369e-03 
          4.0664277921e-01 -3.5312046026e+00 2.7170632382e-03 
          -3.3628497426e-02 -2.4098767267e+00 -1.8244773812e-03 
          -1.4450102883e-02 -3.2964176358e+00 -9.0585746710e-05 
          2.7136252084e-01 -3.4319920532e+00 3.8550808970e-04 
          -1.2695404296e-01 -2.3509357306e+00 -3.5094798800e-04 
          3.4208276387e-01 -3.1989479933e+00 3.6059341112e-04 
          -1.2998559474e-01 -2.3643849696e+00 -3.3392884108e-04 
          4.6953992455e-01 -3.7368346710e+00 2.7649639288e-03 
          -4.1234144740e-02 -2.3730651289e+00 -1.8648326877e-03 
          -2.8247586870e-02 -2.4770954127e+00 -1.6206391328e-03 
          1.2724639570e-02 -2.9159706071e+00 2.9946769137e-03 
          -1.9445847768e-01 -1.8354850576e+00 -1.9340031780e-03 
          -1.1215503026e-01 -2.7398330578e+00 -7.5893779114e-05 
          1.3707593136e-01 -2.5631554387e+00 3.2047682037e-04 
          -1.0544632874e-01 -1.9143599727e+00 -3.1542803380e-04 
          2.2250459151e-01 -2.4184636518e+00 3.0415992752e-04 
          -1.1508440085e-01 -1.9122149569e+00 -3.0907373158e-04 
          9.3389549931e-02 -2.9177220729e+00 2.9362242134e-03 
          -2.0796613729e-01 -1.7356559760e+00 -1.9370080383e-03 
          6.9958326544e-02 -1.7700741415e+00 -1.4180543608e-03 
          -6.1825802007e-02 -2.1214644248e+00 2.7154194140e-03 
          -1.7085063587e-01 -1.3218485768e+00 -1.6442713326e-03 
          -1.6324902618e-01 -1.8565674217e+00 -3.7716552642e-05 
          -7.8164256904e-02 -1.7881813426e+00 1.9147122523e-04 
          -1.8480432409e-01 -1.3053154203e+00 -2.2434137527e-04 
          3.5520331230e-02 -1.6612155322e+00 1.9178725041e-04 
          -1.9124306495e-01 -1.3211712178e+00 -2.1035184498e-04 
          5.1012667462e-02 -2.1014701306e+00 2.7172444142e-03 
          -1.8173138327e-01 -1.2018720806e+00 -1.6766878008e-03 
          2.7726548813e-01 -2.4639577349e+00 3.9258038699e-05 
          2.7376049698e-01 -2.4423773404e+00 -5.1616397193e-05 
          7.2359575888e-02 -7.3197258234e-01 5.0145924965e-04 
          7.1494592142e-02 -7.9124981636e-01 5.0310874386e-04 
          7.2202005215e-02 -7.3281072554e-01 4.9459947168e-04 
          7.1150861733e-02 -7.9225516131e-01 5.1235800505e-04 
          -1.4412370585e-01 -2.8306232415e-01 -5.9479442487e-04 
          -6.6958788528e-02 -4.3799844870e-01 2.8261404781e-04 
          -7.7183983995e-02 -5.6032656884e-01 -2.3489794522e-04 
          9.6199821820e-04 -9.0629238201e-01 3.0252412383e-04 
          -8.1791775714e-03 -8.6651183157e-01 1.8521274484e-03 
          -3.2327437494e-02 -1.1357284409e+00 9.8402363979e-04 
          -1.0279060150e-01 -3.4695379253e-01 -4.9603414236e-04 
          -8.0855142705e-02 -5.3910847566e-01 2.3327143997e-04 
          -5.3037094677e-02 -6.7221095298e-01 -2.2708039192e-04 
          -3.9323585878e-02 -7.3480978526e-01 2.5365277172e-04 
          -5.8776460267e-02 -8.9415251354e-01 5.1977662145e-04 
          -8.0545783695e-02 -1.0664307835e+00 5.0694274096e-04 
          -1.3790777845e-01 -6.6476983152e-01 6.2359428924e-05 
          -4.6525078915e-02 -7.4919534861e-01 -1.6918294074e-04 
          -3.5960118871e-02 -8.2924775727e-01 1.3022137485e-04 
          -4.7689814833e-02 -5.7127536984e-01 7.0068107974e-04 
          -4.1275308046e-02 -9.7983148031e-01 6.0723867013e-04 
          -3.2918921304e-02 -7.6273263420e-01 5.5476241730e-04 
          -1.4504113638e-01 -7.6299218047e-01 4.2057501332e-05 
          -5.5508127478e-02 -8.2505458273e-01 -1.5700336092e-04 
          -2.7390640806e-02 -8.8378518735e-01 1.3075033720e-04 
          -8.9961513525e-02 -5.7521879391e-01 -1.1711166483e-05 
          -7.4030250740e-02 -9.9007949248e-01 1.8571023652e-04 
          -5.5010661785e-02 -7.7344152318e-01 5.2189260511e-05 
        </DataArray>
        <DataArray type="Float64" Name="UnbalancedLoad" NumberOfComponents="3" format="ascii">
          0.0000000000e+00 0.0000000000e+00 -2.8496703934e+04 
          0.0000000000e+00 0.0000000000e+00 -2.9200590653e+04 
          0.0000000000e+00 0.0000000000e+00 -2.8495594213e+04 
          0.0000000000e+00 0.0000000000e+00 -4.6010970446e+04 
          0.0000000000e+00 0.0000000000e+00 -4.6010269463e+04 
          0.0000000000e+00 0.0000000000e+00 -3.1132729159e+04 
          0.0000000000e+00 0.0000000000e+00 -3.1136925071e+04 
          0.0000000000e+00 0.0000000000e+00 -2.3294518963e+04 
          0.0000000000e+00 0.0000000000e+00 -2.3298013917e+04 
          0.0000000000e+00 0.0000000000e+00 -2.9199480907e+04 
          0.0000000000e+00 0.0000000000e+00 -2.8496703934e+04 
          0.0000000000e+00 0.0000000000e+00 -4.6010970446e+04 
          0.0000000000e+00 0.0000000000e+00 -3.1136925071e+04 
          0.0000000000e+00 0.0000000000e+00 -3.1136925071e+04 
          0.0000000000e+00 0.0000000000e+00 -2.3298013917e+04 
          0.0000000000e+00 0.0000000000e+00 -2.9199480907e+04 
          0.0000000000e+00 0.0000000000e+00 -2.8496703934e+04 
          0.0000000000e+00 0.0000000000e+00 -4.6010970446e+04 
          0.0000000000e+00 0.0000000000e+00 -3.1136925071e+04 
          0.0000000000e+00 0.0000000000e+00 -3.1136925071e+04 
          0.0000000000e+00 0.0000000000e+00 -2.3298013917e+04 
          0.0000000000e+00 0.0000000000e+00 -2.9199480907e+04 
          0.0000000000e+00 0.0000000000e+00 -3.1136925071e+04 
          0.0000000000e+00 0.0000000000e+00 -3.1136925071e+04 
          0.0000000000e+00 0.0000000000e+00 -1.5521645539e+04 
          0.0000000000e+00 0.0000000000e+00 -1.5521645539e+04 
          0.0000000000e+00 0.0000000000e+00 -1.4019369903e+04 
          0.0000000000e+00 0.0000000000e+00 -1.4019369903e+04 
          0.0000000000e+00 0.0000000000e+00 -1.1540658437e+04 
          0.0000000000e+00 0.0000000000e+00 -1.1540658437e+04 
          0.0000000000e+00 0.0000000000e+00 -1.5521645539e+04 
          0.0000000000e+00 0.0000000000e+00 -1.4019369903e+04 
          0.0000000000e+00 0.0000000000e+00 -1.1540658437e+04 
          0.0000000000e+00 0.0000000000e+00 -1.5521645539e+04 
          0.0000000000e+00 0.0000000000e+00 -1.4019369903e+04 
          0.0000000000e+00 0.0000000000e+00 -1.1540658437e+04 
          0.0000000000e+00 0.0000000000e+00 -9.2930479405e+03 
          0.0000000000e+00 0.0000000000e+00 -9.2930479405e+03 
          0.0000000000e+00 0.0000000000e+00 -8.4080188335e+03 
          0.0000000000e+00 0.0000000000e+00 -8.4080188335e+03 
          0.0000000000e+00 0.0000000000e+00 -1.1457455780e+04 
          0.0000000000e+00 0.0000000000e+00 -1.1457455780e+04 
          0.0000000000e+00 0.0000000000e+00 -9.2930479405e+03 
          0.0000000000e+00 0.0000000000e+00 -8.4080188335e+03 
          0.0000000000e+00 0.0000000000e+00 -1.1457455780e+04 
          0.0000000000e+00 0.0000000000e+00 -9.2930479405e+03 
          0.0000000000e+00 0.0000000000e+00 -8.4080188335e+03 
          0.0000000000e+00 0.0000000000e+00 -1.1457455780e+04 
          0.0000000000e+00 0.0000000000e+00 -5.2849470662e+03 
          0.0000000000e+00 0.0000000000e+00 -5.2849470662e+03 
          0.0000000000e+00 0.0000000000e+00 -6.6078051636e+03 
          0.0000000000e+00 0.0000000000e+00 -5.4223485684e+03 
          0.0000000000e+00 0.0000000000e+00 -5.4223485684e+03 
          0.0000000000e+00 0.0000000000e+00 -3.0143287193e+03 
          0.0000000000e+00 0.0000000000e+00 -4.0639680577e+03 
          0.0000000000e+00 0.0000000000e+00 -4.0639680577e+03 
          0.0000000000e+00 0.0000000000e+00 -1.0799254263e+04 
          0.0000000000e+00 0.0000000000e+00 -1.0799254263e+04 
          0.0000000000e+00 0.0000000000e+00 -5.3868261551e+03 
          0.0000000000e+00 0.0000000000e+00 -9.8940830992e+03 
          0.0000000000e+00 0.0000000000e+00 -9.8940830992e+03 
          0.0000000000e+00 0.0000000000e+00 -5.4223485684e+03 
          0.0000000000e+00 0.0000000000e+00 -5.4223485684e+03 
          0.0000000000e+00 0.0000000000e+00 -3.0143287193e+03 
          0.0000000000e+00 0.0000000000e+00 -1.0331877411e+04 
          0.0000000000e+00 0.0000000000e+00 -1.0331877411e+04 
          0.0000000000e+00 0.0000000000e+00 -5.2849470662e+03 
          0.0000000000e+00 0.0000000000e+00 -9.8940830992e+03 
          0.0000000000e+00 0.0000000000e+00 -6.6078051636e+03 
          0.0000000000e+00 0.0000000000e+00 -4.0639680577e+03 
          0.0000000000e+00 0.0000000000e+00 -1.0799254263e+04 
          0.0000000000e+00 0.0000000000e+00 -5.4223485684e+03 
          0.0000000000e+00 0.0000000000e+00 -3.0143287193e+03 
          0.0000000000e+00 0.0000000000e+00 -5.3868261551e+03 
          0.0000000000e+00 0.0000000000e+00 -5.4223485684e+03 
          0.0000000000e+00 0.0000000000e+00 -3.0143287193e+03 
          0.0000000000e+00 0.0000000000e+00 -1.0331877411e+04 
          0.0000000000e+00 0.0000000000e+00 -2.8676461170e+03 
          0.0000000000e+00 0.0000000000e+00 -3.4652573994e+03 
          0.0000000000e+00 0.0000000000e+00 -3.4652573994e+03 
          0.0000000000e+00 0.0000000000e+00 -5.2849470662e+03 
          0.0000000000e+00 0.0000000000e+00 -9.8940830992e+03 
          0.0000000000e+00 0.0000000000e+00 -6.6078051636e+03 
          0.0000000000e+00 0.0000000000e+00 -4.0639680577e+03 
          0.0000000000e+00 0.0000000000e+00 -1.0799254263e+04 
          0.0000000000e+00 0.0000000000e+00 -5.4223485684e+03 
          0.0000000000e+00 0.0000000000e+00 -3.0143287193e+03 
          0.0000000000e+00 0.0000000000e+00 -5.3868261551e+03 
          0.0000000000e+00 0.0000000000e+00 -5.4223485684e+03 
          0.0000000000e+00 0.0000000000e+00 -3.0143287193e+03 
          0.0000000000e+00 0.0000000000e+00 -1.0331877411e+04 
          0.0000000000e+00 0.0000000000e+00 -6.6078051636e+03 
          0.0000000000e+00 0.0000000000e+00 -3.0143287193e+03 
          0.0000000000e+00 0.0000000000e+00 -5.3868261551e+03 
          0.0000000000e+00 0.0000000000e+00 -3.0143287193e+03 
          0.0000000000e+00 0.0000000000e+00 -2.8676461170e+03 
          0.0000000000e+00 0.0000000000e+00 -3.4652573994e+03 
          0.0000000000e+00 0.0000000000e+00 -3.4652573994e+03 
          0.0000000000e+00 0.0000000000e+00 -4.4804248633e+03 
          0.0000000000e+00 0.0000000000e+00 -4.4804578034e+03 
          0.0000000000e+00 0.0000000000e+00 -3.1803318877e+03 
          0.0000000000e+00 0.0000000000e+00 -4.4804248633e+03 
          0.0000000000e+00 0.0000000000e+00 -4.4804578034e+03 
          0.0000000000e+00 0.0000000000e+00 -3.1803318877e+03 
          0.0000000000e+00 0.0000000000e+00 -4.4804578034e+03 
          0.0000000000e+00 0.0000000000e+00 -3.1803318877e+03 
          0.0000000000e+00 0.0000000000e+00 -4.4804578034e+03 
          0.0000000000e+00 0.0000000000e+00 -3.1803318877e+03 
          0.0000000000e+00 0.0000000000e+00 -4.4804248633e+03 
          0.0000000000e+00 0.0000000000e+00 -4.4804578034e+03 
          0.0000000000e+00 0.0000000000e+00 -3.1803318877e+03 
          0.0000000000e+00 0.0000000000e+00 -4.4804248633e+03 
          0.0000000000e+00 0.0000000000e+00 -4.4804578034e+03 
          0.0000000000e+00 0.0000000000e+00 -3.1803318877e+03 
          0.0000000000e+00 0.0000000000e+00 -4.4804578034e+03 
          0.0000000000e+00 0.0000000000e+00 -3.1803318877e+03 
          0.0000000000e+00 0.0000000000e+00 -4.4804578034e+03 
          0.0000000000e+00 0.0000000000e+00 -3.1803318877e+03 
          0.0000000000e+00 0.0000000000e+00 -4.4804248633e+03 
          0.0000000000e+00 0.0000000000e+00 -4.4804578034e+03 
          0.0000000000e+00 0.0000000000e+00 -3.1803318877e+03 
          0.0000000000e+00 0.0000000000e+00 -4.4804248633e+03 
          0.0000000000e+00 0.0000000000e+00 -4.4804578034e+03 
          0.0000000000e+00 0.0000000000e+00 -3.1803318877e+03 
          0.0000000000e+00 0.0000000000e+00 -4.4804578034e+03 
          0.0000000000e+00 0.0000000000e+00 -3.1803318877e+03 
          0.0000000000e+00 0.0000000000e+00 -4.4804578034e+03 
          0.0000000000e+00 0.0000000000e+00 -3.1803318877e+03 
          0.0000000000e+00 0.0000000000e+00 -2.8744781789e+03 
          0.0000000000e+00 0.0000000000e+00 -2.8744781789e+03 
          0.0000000000e+00 0.0000000000e+00 -7.8577326833e+02 
          0.0000000000e+00 0.0000000000e+00 -7.8577326833e+02 
          0.0000000000e+00 0.0000000000e+00 -7.8577326833e+02 
          0.0000000000e+00 0.0000000000e+00 -7.8577326833e+02 
          0.0000000000e+00 0.0000000000e+00 -3.8233874431e+03 
          0.0000000000e+00 0.0000000000e+00 -3.4536231549e+03 
          0.0000000000e+00 0.0000000000e+00 -3.1136006969e+03 
          0.0000000000e+00 0.0000000000e+00 -3.8233874431e+03 
          0.0000000000e+00 0.0000000000e+00 -3.4536231549e+03 
          0.0000000000e+00 0.0000000000e+00 -3.1136006969e+03 
          0.0000000000e+00 0.0000000000e+00 -3.8233874431e+03 
          0.0000000000e+00 0.0000000000e+00 -3.4536231549e+03 
          0.0000000000e+00 0.0000000000e+00 -3.1136006969e+03 
          0.0000000000e+00 0.0000000000e+00 -3.8233874431e+03 
          0.0000000000e+00 0.0000000000e+00 -3.4536231549e+03 
          0.0000000000e+00 0.0000000000e+00 -3.1136006969e+03 
          0.0000000000e+00 0.0000000000e+00 -2.8075636883e+03 
          0.0000000000e+00 0.0000000000e+00 -2.5268540466e+03 
          0.0000000000e+00 0.0000000000e+00 -2.2904759498e+03 
          0.0000000000e+00 0.0000000000e+00 -2.8075636883e+03 
          0.0000000000e+00 0.0000000000e+00 -2.5268540466e+03 
          0.0000000000e+00 0.0000000000e+00 -2.2904759498e+03 
          0.0000000000e+00 0.0000000000e+00 -2.8075636883e+03 
          0.0000000000e+00 0.0000000000e+00 -2.5268540466e+03 
          0.0000000000e+00 0.0000000000e+00 -2.2904759498e+03 
          0.0000000000e+00 0.0000000000e+00 -2.8075636883e+03 
          0.0000000000e+00 0.0000000000e+00 -2.5268540466e+03 
          0.0000000000e+00 0.0000000000e+00 -2.2904759498e+03 
        </DataArray>
      </PointData>
      <CellData>
        <DataArray type="Int64" Name="ElementTag" format="ascii">
          0
        </DataArray>
      </CellData>
    </Piece>
  </UnstructuredGrid>
</VTKFile>
