<?xml version="1.0"?>
<VTKFile type="UnstructuredGrid" version="1.0" byte_order="LittleEndian" compressor="vtkZLibDataCompressor">
  <UnstructuredGrid>
    <Piece NumberOfPoints="158" NumberOfCells="1">
      <Points>
        <DataArray type="Float64" Name="Points" NumberOfComponents="3" format="ascii">
          1.7550000000e+00 -1.7550000000e+00 0.0000000000e+00 
          1.4140000000e+00 0.0000000000e+00 5.2300000000e+00 
          1.7550000000e+00 1.7550000000e+00 -0.0000000000e+00 
          1.4140000000e+00 -1.4140000000e+00 5.2300000000e+00 
          1.4140000000e+00 1.4140000000e+00 5.2300000000e+00 
          1.5840000000e+00 8.7800000000e-01 2.6150000000e+00 
          1.5840000000e+00 -8.7700000000e-01 2.6150000000e+00 
          1.5840000000e+00 1.5840000000e+00 2.6150000000e+00 
          1.5840000000e+00 -1.5840000000e+00 2.6150000000e+00 
          -0.0000000000e+00 1.4140000000e+00 5.2300000000e+00 
          -1.7550000000e+00 1.7550000000e+00 -0.0000000000e+00 
          -1.4140000000e+00 1.4140000000e+00 5.2300000000e+00 
          -8.7700000000e-01 1.5840000000e+00 2.6150000000e+00 
          8.7700000000e-01 1.5840000000e+00 2.6150000000e+00 
          -1.5840000000e+00 1.5840000000e+00 2.6150000000e+00 
          -1.4140000000e+00 -0.0000000000e+00 5.2300000000e+00 
          -1.7550000000e+00 -1.7550000000e+00 -0.0000000000e+00 
          -1.4140000000e+00 -1.4140000000e+00 5.2300000000e+00 
          -1.5840000000e+00 -8.7700000000e-01 2.6150000000e+00 
          -1.5840000000e+00 8.7700000000e-01 2.6150000000e+00 
          -1.5840000000e+00 -1.5840000000e+00 2.6150000000e+00 
          0.0000000000e+00 -1.4140000000e+00 5.2300000000e+00 
          8.7700000000e-01 -1.5840000000e+00 2.6150000000e+00 
          -8.7700000000e-01 -1.5840000000e+00 2.6150000000e+00 
          1.2750000000e+00 1.2750000000e+00 7.3500000000e+00 
          1.2750000000e+00 -1.2750000000e+00 7.3500000000e+00 
          1.1500000000e+00 -1.1500000000e+00 9.2700000000e+00 
          1.1500000000e+00 1.1500000000e+00 9.2700000000e+00 
          1.0370000000e+00 -1.0370000000e+00 1.1000000000e+01 
          1.0370000000e+00 1.0370000000e+00 1.1000000000e+01 
          -1.2750000000e+00 1.2750000000e+00 7.3500000000e+00 
          -1.1500000000e+00 1.1500000000e+00 9.2700000000e+00 
          -1.0370000000e+00 1.0370000000e+00 1.1000000000e+01 
          -1.2750000000e+00 -1.2750000000e+00 7.3500000000e+00 
          -1.1500000000e+00 -1.1500000000e+00 9.2700000000e+00 
          -1.0370000000e+00 -1.0370000000e+00 1.1000000000e+01 
          9.3500000000e-01 9.3500000000e-01 1.2560000000e+01 
          9.3500000000e-01 -9.3500000000e-01 1.2560000000e+01 
          8.4300000000e-01 8.4300000000e-01 1.3960000000e+01 
          8.4300000000e-01 -8.4300000000e-01 1.3960000000e+01 
          7.6000000000e-01 7.6000000000e-01 1.5240000000e+01 
          7.6000000000e-01 -7.6000000000e-01 1.5240000000e+01 
          -9.3500000000e-01 9.3500000000e-01 1.2560000000e+01 
          -8.4300000000e-01 8.4300000000e-01 1.3960000000e+01 
          -7.6000000000e-01 7.6000000000e-01 1.5240000000e+01 
          -9.3500000000e-01 -9.3500000000e-01 1.2560000000e+01 
          -8.4300000000e-01 -8.4300000000e-01 1.3960000000e+01 
          -7.6000000000e-01 -7.6000000000e-01 1.5240000000e+01 
          7.6000000000e-01 -7.6000000000e-01 1.6240000000e+01 
          7.6000000000e-01 7.6000000000e-01 1.6240000000e+01 
          7.6000000000e-01 0.0000000000e+00 1.6240000000e+01 
          7.6000000000e-01 7.6000000000e-01 1.7340000000e+01 
          7.6000000000e-01 -7.6000000000e-01 1.7340000000e+01 
          7.6000000000e-01 0.0000000000e+00 1.7890000000e+01 
          7.6000000000e-01 -7.6000000000e-01 1.9440000000e+01 
          7.6000000000e-01 7.6000000000e-01 1.9440000000e+01 
          7.6000000000e-01 -7.6000000000e-01 2.1640000000e+01 
          7.6000000000e-01 7.6000000000e-01 2.1640000000e+01 
          7.6000000000e-01 0.0000000000e+00 1.9440000000e+01 
          7.6000000000e-01 7.6000000000e-01 1.8440000000e+01 
          7.6000000000e-01 -7.6000000000e-01 1.8440000000e+01 
          7.6000000000e-01 -7.6000000000e-01 2.0540000000e+01 
          7.6000000000e-01 7.6000000000e-01 2.0540000000e+01 
          7.6000000000e-01 0.0000000000e+00 2.1090000000e+01 
          7.6000000000e-01 7.6000000000e-01 2.2640000000e+01 
          7.6000000000e-01 -7.6000000000e-01 2.2640000000e+01 
          -7.6000000000e-01 7.6000000000e-01 1.6240000000e+01 
          -7.6000000000e-01 7.6000000000e-01 1.8440000000e+01 
          -0.0000000000e+00 7.6000000000e-01 1.6240000000e+01 
          -7.6000000000e-01 7.6000000000e-01 1.9440000000e+01 
          -7.6000000000e-01 7.6000000000e-01 2.1640000000e+01 
          -7.6000000000e-01 7.6000000000e-01 1.7340000000e+01 
          -0.0000000000e+00 7.6000000000e-01 1.7890000000e+01 
          -0.0000000000e+00 7.6000000000e-01 1.9440000000e+01 
          -7.6000000000e-01 7.6000000000e-01 2.0540000000e+01 
          0.0000000000e+00 7.6000000000e-01 2.1090000000e+01 
          -7.6000000000e-01 7.6000000000e-01 2.2640000000e+01 
          -0.0000000000e+00 5.2600000000e-01 2.3499000000e+01 
          3.9900000000e-01 4.0400000000e-01 2.3950000000e+01 
          -3.9900000000e-01 4.0400000000e-01 2.3950000000e+01 
          -7.6000000000e-01 -7.6000000000e-01 1.6240000000e+01 
          -7.6000000000e-01 -7.6000000000e-01 1.8440000000e+01 
          -7.6000000000e-01 -0.0000000000e+00 1.6240000000e+01 
          -7.6000000000e-01 -7.6000000000e-01 1.9440000000e+01 
          -7.6000000000e-01 -7.6000000000e-01 2.1640000000e+01 
          -7.6000000000e-01 -7.6000000000e-01 1.7340000000e+01 
          -7.6000000000e-01 0.0000000000e+00 1.7890000000e+01 
          -7.6000000000e-01 -0.0000000000e+00 1.9440000000e+01 
          -7.6000000000e-01 -7.6000000000e-01 2.0540000000e+01 
          -7.6000000000e-01 -0.0000000000e+00 2.1090000000e+01 
          -7.6000000000e-01 -7.6000000000e-01 2.2640000000e+01 
          0.0000000000e+00 -7.6000000000e-01 1.6240000000e+01 
          0.0000000000e+00 -7.6000000000e-01 1.7890000000e+01 
          0.0000000000e+00 -7.6000000000e-01 1.9440000000e+01 
          0.0000000000e+00 -7.6000000000e-01 2.1090000000e+01 
          0.0000000000e+00 -5.2600000000e-01 2.3499000000e+01 
          3.9900000000e-01 -4.0400000000e-01 2.3950000000e+01 
          -3.9900000000e-01 -4.0400000000e-01 2.3950000000e+01 
          -0.0000000000e+00 -3.3500000000e+00 2.1640000000e+01 
          -3.8000000000e-01 -2.0550000000e+00 2.2140000000e+01 
          -3.8000000000e-01 -2.0550000000e+00 2.1640000000e+01 
          0.0000000000e+00 3.3500000000e+00 2.1640000000e+01 
          -3.8000000000e-01 2.0550000000e+00 2.2140000000e+01 
          -3.8000000000e-01 2.0550000000e+00 2.1640000000e+01 
          3.8000000000e-01 2.0550000000e+00 2.2140000000e+01 
          3.8000000000e-01 2.0550000000e+00 2.1640000000e+01 
          3.8000000000e-01 -2.0550000000e+00 2.2140000000e+01 
          3.8000000000e-01 -2.0550000000e+00 2.1640000000e+01 
          -0.0000000000e+00 -3.3500000000e+00 1.8440000000e+01 
          -3.8000000000e-01 -2.0550000000e+00 1.8940000000e+01 
          -3.8000000000e-01 -2.0550000000e+00 1.8440000000e+01 
          -0.0000000000e+00 3.3500000000e+00 1.8440000000e+01 
          -3.8000000000e-01 2.0550000000e+00 1.8940000000e+01 
          -3.8000000000e-01 2.0550000000e+00 1.8440000000e+01 
          3.8000000000e-01 2.0550000000e+00 1.8940000000e+01 
          3.8000000000e-01 2.0550000000e+00 1.8440000000e+01 
          3.8000000000e-01 -2.0550000000e+00 1.8940000000e+01 
          3.8000000000e-01 -2.0550000000e+00 1.8440000000e+01 
          -0.0000000000e+00 -3.3500000000e+00 1.5240000000e+01 
          -3.8000000000e-01 -2.0550000000e+00 1.5740000000e+01 
          -3.8000000000e-01 -2.0550000000e+00 1.5240000000e+01 
          -0.0000000000e+00 3.3500000000e+00 1.5240000000e+01 
          -3.8000000000e-01 2.0550000000e+00 1.5740000000e+01 
          -3.8000000000e-01 2.0550000000e+00 1.5240000000e+01 
          3.8000000000e-01 2.0550000000e+00 1.5740000000e+01 
          3.8000000000e-01 2.0550000000e+00 1.5240000000e+01 
          3.8000000000e-01 -2.0550000000e+00 1.5740000000e+01 
          3.8000000000e-01 -2.0550000000e+00 1.5240000000e+01 
          -5.2400000000e-01 0.0000000000e+00 2.3496000000e+01 
          5.2400000000e-01 0.0000000000e+00 2.3496000000e+01 
          4.0000000000e-02 5.0000000000e-02 2.5250000000e+01 
          -4.0000000000e-02 5.0000000000e-02 2.5250000000e+01 
          -4.0000000000e-02 -5.0000000000e-02 2.5250000000e+01 
          4.0000000000e-02 -5.0000000000e-02 2.5250000000e+01 
          1.3410000000e+00 0.0000000000e+00 6.3450000000e+00 
          1.2090000000e+00 0.0000000000e+00 8.3600000000e+00 
          1.0900000000e+00 -0.0000000000e+00 1.0180000000e+01 
          -0.0000000000e+00 1.3410000000e+00 6.3450000000e+00 
          0.0000000000e+00 1.2090000000e+00 8.3600000000e+00 
          -0.0000000000e+00 1.0900000000e+00 1.0180000000e+01 
          -1.3410000000e+00 0.0000000000e+00 6.3450000000e+00 
          -1.2090000000e+00 0.0000000000e+00 8.3600000000e+00 
          -1.0900000000e+00 -0.0000000000e+00 1.0180000000e+01 
          -0.0000000000e+00 -1.3410000000e+00 6.3450000000e+00 
          0.0000000000e+00 -1.2090000000e+00 8.3600000000e+00 
          0.0000000000e+00 -1.0900000000e+00 1.0180000000e+01 
          9.8300000000e-01 0.0000000000e+00 1.1820000000e+01 
          8.8700000000e-01 0.0000000000e+00 1.3296000000e+01 
          8.0000000000e-01 -0.0000000000e+00 1.4633000000e+01 
          0.0000000000e+00 9.8300000000e-01 1.1820000000e+01 
          -0.0000000000e+00 8.8700000000e-01 1.3296000000e+01 
          0.0000000000e+00 8.0000000000e-01 1.4633000000e+01 
          -9.8300000000e-01 0.0000000000e+00 1.1820000000e+01 
          -8.8700000000e-01 0.0000000000e+00 1.3296000000e+01 
          -8.0000000000e-01 0.0000000000e+00 1.4633000000e+01 
          0.0000000000e+00 -9.8300000000e-01 1.1820000000e+01 
          0.0000000000e+00 -8.8700000000e-01 1.3296000000e+01 
          0.0000000000e+00 -8.0000000000e-01 1.4633000000e+01 
        </DataArray>
      </Points>
      <Cells>
        <DataArray type="Int64" Name="connectivity" format="ascii">
          0
          1
          2
          3
          4
          5
          6
          7
          8
          9
          10
          11
          12
          13
          14
          15
          16
          17
          18
          19
          20
          21
          22
          23
          24
          25
          26
          27
          28
          29
          30
          31
          32
          33
          34
          35
          36
          37
          38
          39
          40
          41
          42
          43
          44
          45
          46
          47
          48
          49
          50
          51
          52
          53
          54
          55
          56
          57
          58
          59
          60
          61
          62
          63
          64
          65
          66
          67
          68
          69
          70
          71
          72
          73
          74
          75
          76
          77
          78
          79
          80
          81
          82
          83
          84
          85
          86
          87
          88
          89
          90
          91
          92
          93
          94
          95
          96
          97
          98
          99
          100
          101
          102
          103
          104
          105
          106
          107
          108
          109
          110
          111
          112
          113
          114
          115
          116
          117
          118
          119
          120
          121
          122
          123
          124
          125
          126
          127
          128
          129
          130
          131
          132
          133
          134
          135
          136
          137
          138
          139
          140
          141
          142
          143
          144
          145
          146
          147
          148
          149
          150
          151
          152
          153
          154
          155
          156
          157
        </DataArray>
        <DataArray type="Int64" Name="offsets" format="ascii">
          158
        </DataArray>
        <DataArray type="Int64" Name="types" format="ascii">
          2
        </DataArray>
      </Cells>
      <PointData>
        <DataArray type="Int64" Name="NodeTag" format="ascii">
          1
          2
          3
          4
          5
          6
          7
          8
          9
          10
          11
          12
          13
          14
          15
          16
          17
          18
          19
          20
          21
          22
          23
          24
          25
          26
          27
          28
          29
          30
          31
          32
          33
          34
          35
          36
          37
          38
          39
          40
          41
          42
          43
          44
          45
          46
          47
          48
          49
          50
          51
          52
          53
          54
          55
          56
          57
          58
          59
          60
          61
          62
          63
          64
          65
          66
          67
          68
          69
          70
          71
          72
          73
          74
          75
          76
          77
          78
          79
          80
          81
          82
          83
          84
          85
          86
          87
          88
          89
          90
          91
          92
          93
          94
          95
          96
          97
          98
          99
          100
          101
          102
          103
          104
          105
          106
          107
          108
          109
          110
          111
          112
          113
          114
          115
          116
          117
          118
          119
          120
          121
          122
          123
          124
          125
          126
          127
          128
          129
          130
          131
          132
          133
          134
          135
          136
          137
          138
          139
          140
          141
          142
          143
          144
          145
          146
          147
          148
          149
          150
          151
          152
          153
          154
          155
          156
          157
          158
        </DataArray>
        <DataArray type="Float64" Name="Displacement" NumberOfComponents="3" format="ascii">
          0.0000000000e+00 0.0000000000e+00 0.0000000000e+00 
          -3.4484125481e-04 -4.5930727640e-05 -2.1954232594e-04 
          0.0000000000e+00 0.0000000000e+00 0.0000000000e+00 
          3.3957216694e-06 -3.9546043575e-05 -1.1219110474e-03 
          -3.9363428706e-06 -5.4177461644e-05 -1.0484914990e-03 
          -1.6215691650e-03 -1.7066466502e-03 -8.0711891348e-04 
          -1.7310159720e-03 1.7670950999e-03 -8.5199940084e-04 
          -1.6675077743e-03 -1.7037653589e-03 -7.7838104353e-04 
          -1.7868483330e-03 1.7638577976e-03 -8.3054809704e-04 
          3.4320910684e-06 -3.8420344600e-04 -2.1860807394e-04 
          0.0000000000e+00 0.0000000000e+00 0.0000000000e+00 
          1.0994654976e-05 -5.1234230704e-05 -1.0464845025e-03 
          1.6716810124e-03 -1.6466135680e-03 -8.0233995489e-04 
          -1.6703818208e-03 -1.6540952730e-03 -8.0350497460e-04 
          1.6688024635e-03 -1.6964780847e-03 -7.7685758240e-04 
          3.5898248624e-04 -4.3019424222e-05 -2.2073968491e-04 
          0.0000000000e+00 0.0000000000e+00 0.0000000000e+00 
          1.7238776300e-05 -3.6640651397e-05 -1.1203058462e-03 
          1.7445146320e-03 1.7638033536e-03 -8.5134193395e-04 
          1.6231218442e-03 -1.6993489721e-03 -8.0529634713e-04 
          1.7991822456e-03 1.7605776749e-03 -8.2959083614e-04 
          1.0092138590e-05 3.1836406726e-04 -2.2224757523e-04 
          -1.7901120093e-03 1.7118579480e-03 -8.5484681679e-04 
          1.8023991189e-03 1.7082774712e-03 -8.5507064736e-04 
          2.4010303031e-04 1.1110906567e-04 -1.4175050812e-03 
          2.7742360722e-04 -3.9067436314e-04 -1.5218057469e-03 
          7.0248894181e-05 -2.8991730399e-04 -1.9084142291e-03 
          5.3842549022e-05 -2.1258805110e-04 -1.7807112880e-03 
          1.7917069085e-04 -5.2985637424e-04 -2.1795030985e-03 
          1.5124993214e-04 -2.1646424516e-04 -2.0395085152e-03 
          -2.2581991748e-04 1.1358767681e-04 -1.4147898104e-03 
          -3.2228635886e-05 -2.0784681978e-04 -1.7775828609e-03 
          -1.2273370037e-04 -2.1287964232e-04 -2.0365736181e-03 
          -2.4434915261e-04 -3.8564085491e-04 -1.5194884890e-03 
          -2.6341587779e-05 -2.8638206469e-04 -1.9060398376e-03 
          -1.2676711644e-04 -5.2543078657e-04 -2.1777079238e-03 
          9.6350948196e-05 -4.3954520274e-04 -2.3426487320e-03 
          1.1677614321e-04 -5.6812091688e-04 -2.4961716734e-03 
          1.2254367032e-04 -5.0014611740e-04 -2.5820752935e-03 
          1.4530884960e-04 -7.7717253946e-04 -2.7413334591e-03 
          5.1403317084e-05 -7.9503832912e-04 -2.7985440251e-03 
          6.5152620901e-05 -7.5641896454e-04 -2.9591097752e-03 
          -6.1677324530e-05 -4.3595379928e-04 -2.3401147235e-03 
          -8.3216354160e-05 -4.9792014699e-04 -2.5803407871e-03 
          -9.2648343138e-06 -7.9407504084e-04 -2.7977355730e-03 
          -5.7763998148e-05 -5.6536694196e-04 -2.4951043533e-03 
          -8.2125601661e-05 -7.7526476238e-04 -2.7411595572e-03 
          -1.0149583106e-07 -7.5579545231e-04 -2.9597043713e-03 
          2.6659348053e-05 -9.1451950590e-04 -3.2225688046e-03 
          1.6278511160e-05 -8.6944251787e-04 -3.0395611638e-03 
          5.1633420749e-05 -8.9192365216e-04 -2.9948946423e-03 
          3.5036536928e-04 -6.6055432302e-04 -3.2628140940e-03 
          3.8871130578e-04 -1.4474003852e-03 -3.4711401417e-03 
          2.0254718900e-04 -1.1327917596e-03 -3.8547077553e-03 
          1.2189021773e-05 -1.4216543600e-03 -4.0033043859e-03 
          3.1373369713e-06 -1.3331316419e-03 -3.7652065628e-03 
          1.8872747194e-05 -1.6981953723e-03 -4.3300910234e-03 
          1.1608875728e-05 -1.7946917507e-03 -4.0785039565e-03 
          3.7929033064e-05 -1.3774248370e-03 -3.7832897490e-03 
          3.0538679506e-05 -1.2618035559e-03 -3.6178777983e-03 
          3.8724342843e-05 -1.1776937202e-03 -3.8486218098e-03 
          2.1497683588e-04 -1.8056160373e-03 -4.1338958110e-03 
          1.9728350630e-04 -1.3194900214e-03 -3.8873506518e-03 
          1.1107954334e-04 -1.6535676899e-03 -4.3136989661e-03 
          5.8659067860e-06 -1.8547467445e-03 -4.1483718584e-03 
          1.3844257875e-05 -1.9728595499e-03 -4.4009013638e-03 
          2.7888412337e-05 -8.6955420939e-04 -3.0403529428e-03 
          5.8843018745e-06 -1.2644195947e-03 -3.6222059876e-03 
          2.2045331265e-05 -8.5086014222e-04 -2.9428951434e-03 
          2.7433401598e-05 -1.3361701775e-03 -3.7707553074e-03 
          -1.7252113785e-06 -1.7993793116e-03 -4.0862144021e-03 
          -3.0915353369e-04 -6.6001555081e-04 -3.2649900855e-03 
          1.9796280538e-05 -9.6501030943e-04 -3.6659809218e-03 
          1.5266334200e-05 -1.3289243357e-03 -3.7061523130e-03 
          -1.7664676641e-04 -1.3217810937e-03 -3.8939265427e-03 
          7.8342439451e-06 -1.5633080810e-03 -4.1169578526e-03 
          -6.4234230121e-06 -1.8595022223e-03 -4.1565388652e-03 
          -4.0470096966e-06 -2.1316158659e-03 -4.2521909967e-03 
          -7.0541806108e-06 -2.1381153320e-03 -4.2559438861e-03 
          -5.5687245090e-06 -2.1404503699e-03 -4.2605618577e-03 
          3.8260000289e-05 -9.1465305229e-04 -3.2246210967e-03 
          1.6788822878e-05 -1.1803085486e-03 -3.8538734911e-03 
          4.2319070301e-06 -8.9208018013e-04 -2.9956088738e-03 
          3.6394818295e-05 -1.4247799261e-03 -4.0097255252e-03 
          7.4528673307e-06 -1.7025711486e-03 -4.3386982552e-03 
          -3.2757648465e-04 -1.4508372574e-03 -3.4744642901e-03 
          -1.5262994627e-04 -1.1348604273e-03 -3.8598351634e-03 
          1.8750431325e-06 -1.3805368814e-03 -3.7886773560e-03 
          -1.7707604924e-04 -1.8108306932e-03 -4.1412830286e-03 
          -8.6283560580e-05 -1.6576911750e-03 -4.3223727498e-03 
          5.1640603685e-07 -1.9781115296e-03 -4.4101401783e-03 
          3.2476895800e-05 -9.4437942140e-04 -3.1191760681e-03 
          2.9517058532e-05 -1.3172766630e-03 -3.9063222780e-03 
          2.4298423154e-05 -1.4427391114e-03 -3.9416157409e-03 
          1.6283626755e-05 -1.7586811580e-03 -4.3732802846e-03 
          1.0604833266e-06 -2.0070096478e-03 -4.4223077254e-03 
          -2.7719073848e-06 -2.1302310999e-03 -4.3903172077e-03 
          -2.1403205377e-06 -2.1326287717e-03 -4.3956636130e-03 
          2.2133708711e-05 -1.6383759740e-03 -5.6319378057e-03 
          2.1910581485e-05 -1.8675066584e-03 -4.9466018048e-03 
          2.8048504982e-05 -1.6659136333e-03 -4.9525642000e-03 
          -3.2545759828e-06 -1.8604291138e-03 -4.5180322678e-03 
          -1.0200590031e-05 -1.7953834893e-03 -4.2609071931e-03 
          -3.8314968964e-06 -1.8302369317e-03 -4.2669196788e-03 
          -1.0551843812e-05 -1.7979522002e-03 -4.2560640058e-03 
          -3.5365917843e-06 -1.8305954434e-03 -4.2620220915e-03 
          2.1307523130e-05 -1.8694494137e-03 -4.9403553716e-03 
          2.8664549383e-05 -1.6699562954e-03 -4.9462785086e-03 
          3.3969007303e-05 -1.1160330527e-03 -5.1681973089e-03 
          3.8506514840e-05 -1.3475359106e-03 -4.4738321217e-03 
          4.2603067935e-05 -1.1424783136e-03 -4.4797865525e-03 
          1.3583457229e-05 -1.3279158861e-03 -4.1216204600e-03 
          1.0156940935e-05 -1.2511193050e-03 -3.8314118162e-03 
          1.4681841268e-05 -1.2982599331e-03 -3.8374185281e-03 
          9.7972228408e-06 -1.2523000432e-03 -3.8284425731e-03 
          1.4980448190e-05 -1.2976222481e-03 -3.8344048308e-03 
          3.7729165297e-05 -1.3516133575e-03 -4.4693716617e-03 
          4.3358217620e-05 -1.1482135667e-03 -4.4752975590e-03 
          3.3736310773e-05 -6.8702384536e-04 -4.1748934372e-03 
          4.2765858659e-05 -8.9766604360e-04 -3.5311789020e-03 
          4.5022593511e-05 -7.1260694686e-04 -3.5371367848e-03 
          2.2524308406e-05 -8.6426754723e-04 -3.3923525468e-03 
          1.7157645654e-05 -7.6886074905e-04 -3.0556407926e-03 
          1.9933178308e-05 -8.3364007533e-04 -3.0616445231e-03 
          1.6782859076e-05 -7.7212987455e-04 -3.0553598428e-03 
          2.0290453940e-05 -8.3513400470e-04 -3.0613197099e-03 
          4.2039235053e-05 -9.0354175047e-04 -3.5286597863e-03 
          4.5772164947e-05 -7.2002641829e-04 -3.5345973129e-03 
          7.4519389513e-05 -2.0610082511e-03 -4.3582619505e-03 
          -7.0956448115e-05 -2.0578164783e-03 -4.3500359982e-03 
          -3.6482350865e-06 -2.3567861562e-03 -4.3213544383e-03 
          -3.5553903782e-06 -2.3564288438e-03 -4.3272276365e-03 
          -3.5292239631e-06 -2.3566621428e-03 -4.3428068898e-03 
          -3.6446490921e-06 -2.3562912972e-03 -4.3369383057e-03 
          -4.3677207194e-04 -8.7535493237e-05 -1.1764498508e-03 
          -2.2849251829e-04 -1.9175171199e-04 -1.8346374985e-03 
          -1.3990971029e-04 -3.1014486807e-04 -1.9349773142e-03 
          5.2481085922e-06 -6.8164303472e-04 -1.1516340869e-03 
          8.9669259998e-06 -5.0342389027e-04 -1.7653522967e-03 
          1.2592613134e-05 -5.1668785030e-04 -1.8851958708e-03 
          4.9886029376e-04 -8.4225361248e-05 -1.1779453337e-03 
          2.7613993658e-04 -1.8775692355e-04 -1.8320857064e-03 
          1.8877458739e-04 -3.0600245224e-04 -1.9338550914e-03 
          1.3431235487e-05 3.1756682059e-04 -1.2117017936e-03 
          1.9389064734e-05 6.6549751639e-06 -1.8886217128e-03 
          2.4280925139e-05 -1.9685202445e-04 -2.0066436535e-03 
          -3.7948497312e-05 -4.3631837327e-04 -2.3471300031e-03 
          6.3589338405e-06 -5.7041593733e-04 -2.5109796679e-03 
          2.5601676398e-05 -7.0729682249e-04 -2.8827813651e-03 
          1.5908005705e-05 -5.3673643763e-04 -2.2528561407e-03 
          1.8664518084e-05 -6.0261740221e-04 -2.4652648110e-03 
          2.0551827650e-05 -7.5115446779e-04 -2.7503845966e-03 
          8.6315023000e-05 -4.3267567802e-04 -2.3448329903e-03 
          4.7658829337e-05 -5.6779464265e-04 -2.5100868413e-03 
          3.1264143879e-05 -7.0591766862e-04 -2.8825384136e-03 
          2.8099279827e-05 -4.0240331698e-04 -2.4007759611e-03 
          3.0797353854e-05 -5.8897846557e-04 -2.6174465012e-03 
          3.2276265214e-05 -7.0500968617e-04 -2.9137583176e-03 
        </DataArray>
        <DataArray type="Float64" Name="Reaction" NumberOfComponents="3" format="ascii">
          -1.6587430174e+04 1.6822787589e+04 2.0472170026e+05 
          -2.0378860632e+00 -3.7859448114e+00 2.4563605823e-01 
          -1.5536505175e+04 -1.5151898787e+04 1.9101259873e+05 
          1.5012886292e+00 -1.1878123262e+00 2.6332278796e-03 
          -9.3140855769e+00 -1.0787480093e+01 3.1647582797e-01 
          -1.0227307070e+01 8.8790439745e-01 -2.4056195810e-01 
          1.4239552030e+01 -2.6524106359e+00 -6.7426775263e-02 
          -5.7828945539e+00 6.1343780133e-01 -2.3534561400e-02 
          7.6114053054e+00 -1.7165912425e+00 -7.8767074061e-03 
          -6.7350524711e+00 6.0514886438e+00 2.8877399720e-01 
          1.5440965226e+04 -1.5130162080e+04 1.9051301455e+05 
          -9.3133472439e+00 9.7983206664e+00 1.7772151861e-01 
          -7.9267361361e+00 3.4566762151e+00 -1.8067192227e-01 
          -7.5516995356e+00 1.7537469327e+00 -2.1814087232e-01 
          -5.7078092538e+00 2.0633997020e+00 -5.2381094635e-02 
          -2.3287039587e+00 2.3143250842e+00 1.7968630387e-01 
          1.6297441313e+04 1.6728587088e+04 2.0358013002e+05 
          1.0255556686e+01 5.7705941574e-01 6.4144004251e-02 
          4.7889886904e+00 -4.4698175567e+00 -1.0175529885e-01 
          -6.7549482784e+00 3.0329765650e+00 -1.8798108584e-01 
          1.3957750702e-01 -3.1482466604e+00 -4.3565200834e-02 
          4.6879853642e+00 5.0549439630e+00 9.5673486460e-02 
          1.0211705800e+01 1.4287454748e+00 -5.3578291769e-02 
          -2.6243314974e-01 -2.0384074560e+00 -1.0125455598e-01 
          -2.7041661027e+00 5.2625628126e+00 2.6390810330e-01 
          6.9453029278e+00 -8.2230260374e+00 -1.9341935650e-01 
          4.2993669367e+00 1.1730057594e+01 -7.7977122845e-02 
          -3.4263241460e-01 -6.3686363676e+00 -2.0159419122e-01 
          -9.1386878151e-01 9.4645476515e-01 -1.3820413173e-01 
          2.1495197837e+00 -1.9825019015e+00 -4.9808799105e-03 
          -6.9021427158e-01 2.6131167598e+00 2.1971683992e-01 
          -4.6447890000e+00 4.4298541949e+00 -1.3231360900e-01 
          -8.0408325251e-01 5.3758070165e+00 -5.4192792777e-02 
          2.6399060139e+00 1.2136046401e+00 -1.3564887860e-01 
          4.5522423029e+00 3.5757831920e+00 -1.3196981101e-01 
          3.7622471761e+00 4.7580473195e+00 -7.2008316213e-02 
          7.8265545143e-01 3.3876541062e+00 -1.9370944265e-01 
          4.6682514767e+00 8.4075439320e+00 -1.1483269950e-01 
          1.4178831019e-01 6.8370428869e+00 -8.1125218472e-02 
          1.8734098648e+00 2.6310994856e+00 -2.0167252060e-01 
          1.4536387418e+00 4.1723052588e+00 2.9721757285e-02 
          4.6270750115e+00 5.3598573388e+00 1.0182166684e-01 
          -1.1225511168e+00 5.5283915109e+00 -1.5356040641e-01 
          7.8846190603e-01 5.0938707584e+00 -1.1756136209e-01 
          1.4013715294e+00 6.2491084507e+00 2.4570064423e-02 
          -8.2427334451e-01 4.3802072017e+00 -1.4747540895e-01 
          3.8103520799e+00 4.3619890959e+00 -1.6510004315e-01 
          4.4459703618e+00 6.5154662881e+00 6.8772202822e-02 
          1.9509879633e+00 1.9812761287e+00 -4.8383449923e-02 
          1.0004623791e+00 2.4770486603e+00 -1.0093499329e-01 
          1.5706254119e+00 2.7156134422e+00 -2.4924890975e-01 
          1.3633853503e+00 4.0928493712e+00 3.6536437785e-01 
          1.2785415630e+00 2.3691504303e+00 1.1400207466e-01 
          -1.1831503462e-01 2.1099126390e+00 -7.6841366251e-02 
          -8.2991045009e-01 2.8771860556e+00 1.0337755951e-01 
          4.2223334787e-01 2.8363197459e+00 8.7163673019e-02 
          -1.1106343895e+00 2.6214754405e+00 -5.3179536070e-02 
          1.0621389823e+00 2.9801893219e+00 -1.3461298136e-01 
          -1.4540623038e+00 3.7146228447e+00 -1.0104124938e-01 
          9.3111716140e-01 6.9383199962e+00 -4.6278650377e-01 
          -7.2195400505e-01 7.1192447805e+00 -3.5072058610e-01 
          -2.6718246550e-01 1.6410100629e+00 2.3097470560e-01 
          7.7032551446e-01 3.7038510523e+00 3.8841505238e-01 
          -4.5759472181e-01 1.2489823656e+00 -1.4376705686e-02 
          6.4772062932e-01 9.8432002726e-01 5.2647315763e-02 
          -2.7658123452e-01 -9.1393740491e-01 1.4798970616e-02 
          8.0804544517e-01 3.1535378140e+00 -8.3872291206e-02 
          1.1778082600e+00 3.7835943149e+00 -5.0376205667e-01 
          1.0861693455e+00 3.0368026014e+00 -1.8817922622e-01 
          1.5252593797e-01 1.2510393401e+00 8.6976225196e-02 
          5.9310544073e-01 8.7623788453e-02 -1.8345062078e-01 
          1.4181813284e-01 3.8630038983e+00 2.9423685414e-01 
          3.8925489485e-01 1.7221538075e+00 2.6427920252e-02 
          4.2733220474e-01 3.6524490838e+00 -3.2962403441e-02 
          1.0766221468e-01 1.8798498648e+00 3.3087814469e-01 
          2.4650869209e-01 4.9539679657e-01 1.8218525190e-02 
          -4.9766433323e-01 -1.3319358942e+00 1.0481459066e-02 
          -4.4284182945e-01 -1.1080383645e+00 8.8066746286e-02 
          1.9749031300e-01 -4.7667787659e-01 6.6098142610e-01 
          2.0228701902e-01 -9.6054885378e-01 6.5033251356e-01 
          1.7889617318e+00 2.6210555445e+00 -5.2780960171e-02 
          -8.5609505299e-01 4.2435948963e+00 -4.0563653181e-01 
          1.5863664628e+00 3.5245411743e+00 -2.4203615055e-01 
          -1.0884212795e+00 1.3231945268e+00 8.7450972366e-02 
          -1.5505025241e+00 -3.2158247044e-01 -9.2185704906e-02 
          -8.1689505460e-02 1.4480178423e+00 9.2904945772e-02 
          -1.9559555484e-01 1.4556406687e+00 -7.5063064111e-02 
          -1.4250710118e+00 1.6560440198e+00 -1.0857900024e-01 
          -1.7914856439e+00 -1.0942170633e-01 1.8011374658e-01 
          -4.8532849700e-01 3.2102465102e-01 -1.7362761249e-02 
          -1.6257064997e+00 -2.8562517756e+00 -6.5218020557e-02 
          2.3090406892e+00 3.0047476285e+00 -1.4043549841e-01 
          6.1027608915e-03 1.6977152985e+00 1.7866388089e-02 
          -1.2202877579e+00 3.7168631285e+00 -1.8286714371e-02 
          -5.0454068575e-01 4.9149591867e-01 1.7704304134e-02 
          -6.8022372940e-01 -1.1550181353e+00 1.2063065002e-01 
          2.1432893707e-03 -1.8694932647e+00 6.7334902018e-01 
          -4.8120715696e-02 -2.2120105849e+00 6.4346836489e-01 
          9.7525958649e-01 -8.8621010535e-01 -2.8694679094e-01 
          1.8136976856e+00 -1.7644761102e-01 5.9880441779e-01 
          2.4173812051e-01 2.7211072137e-01 -4.5824926607e-01 
          -2.0187431253e+00 2.1859843135e+00 -3.1893327445e-01 
          -1.4593888594e+00 3.4603435357e-01 6.5596267823e-01 
          -2.0935604276e+00 5.5146213602e-01 -4.8965962248e-01 
          -1.6574535428e+00 2.0808034710e-01 6.4286228805e-01 
          -2.1053478116e+00 1.6077801872e-01 -4.9206833747e-01 
          1.6231441176e+00 -1.7406198502e-01 5.9417345397e-01 
          2.1699771538e-01 6.2949565553e-01 -4.5557481205e-01 
          2.1856102073e+00 1.1857064769e+00 -2.6583025269e-01 
          3.5266919441e+00 2.6436969041e+00 5.6414528299e-01 
          1.8005819290e+00 1.9545387720e+00 -4.2620552353e-01 
          -2.4205544424e+00 4.1196749098e+00 -2.9861759325e-01 
          7.0451002491e-01 1.7848641109e+00 6.1926718187e-01 
          -2.7183071499e-01 1.3788558530e+00 -4.6145817842e-01 
          5.4478899822e-01 3.2829478107e+00 6.1130029098e-01 
          -2.7514835819e-01 2.1732080480e+00 -4.6087987855e-01 
          3.3594236483e+00 1.8229783602e+00 5.5132179190e-01 
          1.7729638395e+00 1.7312565357e+00 -4.2581460928e-01 
          1.0426733805e+00 1.3331747086e+00 -1.6060739381e-01 
          4.2498012897e+00 3.1031808725e+00 3.4839890322e-01 
          2.5261553866e+00 2.1086002545e+00 -2.5622723546e-01 
          2.3615705705e+00 3.0393374343e+00 -1.8452751069e-01 
          -6.5822685390e-01 2.9621168263e+00 3.9801297464e-01 
          -8.8593393175e-01 2.1510987703e+00 -2.8703950859e-01 
          -7.3085021639e-01 1.2273451061e+00 3.8345371740e-01 
          -8.9537370480e-01 7.6470906460e-01 -2.8253670598e-01 
          4.1880742860e+00 1.2964947869e+00 3.3987123826e-01 
          2.5089518894e+00 1.0523069203e+00 -2.5856094791e-01 
          6.8956848603e-02 -1.0739812607e+00 -1.9220186087e-03 
          7.2102255695e-02 -6.3050058035e-01 4.3309884901e-03 
          1.3447292899e-01 -3.1449802106e-01 2.5321042908e-01 
          2.7508777142e-01 -4.0559371248e-01 2.6403268350e-01 
          2.7263226647e-01 -7.4353934198e-01 2.6626091202e-01 
          1.2876018593e-01 -8.2464687287e-01 2.5126432750e-01 
          1.9239950051e+00 -5.5916880080e-01 -1.3705438289e-02 
          4.8164900092e-01 1.8650044805e-01 -2.1853841978e-02 
          4.4553404268e-01 3.4762649027e-01 -2.4476761299e-02 
          -1.0914481993e+00 -1.0489226135e+01 -3.9441408875e-01 
          -5.9331184096e-01 2.9703437195e+00 5.0033407974e-02 
          -2.1988746590e-01 1.9601831938e+00 3.5192293425e-02 
          1.6867296886e+00 3.9557010553e-01 -1.7927015079e-02 
          5.9529297841e-01 7.3731342992e-01 -1.7898119191e-02 
          4.8637980597e-01 1.1446688584e+00 -2.4165772185e-02 
          1.1646586453e+00 1.8991210949e+00 3.0405889393e-02 
          1.2659529074e+00 2.6789064264e+00 6.0677878512e-02 
          6.3003310770e-01 1.7536737606e+00 4.2119201576e-02 
          -6.1811507318e-01 1.1029006016e+00 -3.5799206561e-02 
          3.5120961329e-02 1.5612247543e+00 -3.5252503210e-02 
          4.1986475639e-01 1.1375371122e+00 -3.3780835849e-02 
          1.8102422219e-02 3.6788841107e+00 6.9311163832e-02 
          4.8208447725e-02 2.5627662905e+00 4.9781701606e-02 
          1.9879335771e-01 7.1678765222e-01 2.1342691991e-02 
          -5.6823729289e-01 1.3922673901e+00 -3.3069838236e-02 
          7.4890971090e-02 1.4093195403e+00 -3.4343657786e-02 
          3.2778788893e-01 1.3168600252e+00 -3.1618654667e-02 
          4.3272802607e-01 3.6405720481e+00 8.2208908653e-02 
          6.8589572461e-01 2.4250506790e+00 5.5100162282e-02 
          8.3263898980e-01 9.2671396375e-01 3.2798966876e-02 
        </DataArray>
        <DataArray type="Float64" Name="UnbalancedLoad" NumberOfComponents="3" format="ascii">
          0.0000000000e+00 0.0000000000e+00 -1.4668795140e+04 
          0.0000000000e+00 0.0000000000e+00 -1.5031123713e+04 
          0.0000000000e+00 0.0000000000e+00 -1.4668223907e+04 
          0.0000000000e+00 0.0000000000e+00 -2.3684335607e+04 
          0.0000000000e+00 0.0000000000e+00 -2.3683974773e+04 
          0.0000000000e+00 0.0000000000e+00 -1.6025699928e+04 
          0.0000000000e+00 0.0000000000e+00 -1.6027859791e+04 
          0.0000000000e+00 0.0000000000e+00 -1.1990949105e+04 
          0.0000000000e+00 0.0000000000e+00 -1.1992748147e+04 
          0.0000000000e+00 0.0000000000e+00 -1.5030552467e+04 
          0.0000000000e+00 0.0000000000e+00 -1.4668795140e+04 
          0.0000000000e+00 0.0000000000e+00 -2.3684335607e+04 
          0.0000000000e+00 0.0000000000e+00 -1.6027859791e+04 
          0.0000000000e+00 0.0000000000e+00 -1.6027859791e+04 
          0.0000000000e+00 0.0000000000e+00 -1.1992748147e+04 
          0.0000000000e+00 0.0000000000e+00 -1.5030552467e+04 
          0.0000000000e+00 0.0000000000e+00 -1.4668795140e+04 
          0.0000000000e+00 0.0000000000e+00 -2.3684335607e+04 
          0.0000000000e+00 0.0000000000e+00 -1.6027859791e+04 
          0.0000000000e+00 0.0000000000e+00 -1.6027859791e+04 
          0.0000000000e+00 0.0000000000e+00 -1.1992748147e+04 
          0.0000000000e+00 0.0000000000e+00 -1.5030552467e+04 
          0.0000000000e+00 0.0000000000e+00 -1.6027859791e+04 
          0.0000000000e+00 0.0000000000e+00 -1.6027859791e+04 
          0.0000000000e+00 0.0000000000e+00 -7.9898306545e+03 
          0.0000000000e+00 0.0000000000e+00 -7.9898306545e+03 
          0.0000000000e+00 0.0000000000e+00 -7.2165281142e+03 
          0.0000000000e+00 0.0000000000e+00 -7.2165281142e+03 
          0.0000000000e+00 0.0000000000e+00 -5.9406012281e+03 
          0.0000000000e+00 0.0000000000e+00 -5.9406012281e+03 
          0.0000000000e+00 0.0000000000e+00 -7.9898306545e+03 
          0.0000000000e+00 0.0000000000e+00 -7.2165281142e+03 
          0.0000000000e+00 0.0000000000e+00 -5.9406012281e+03 
          0.0000000000e+00 0.0000000000e+00 -7.9898306545e+03 
          0.0000000000e+00 0.0000000000e+00 -7.2165281142e+03 
          0.0000000000e+00 0.0000000000e+00 -5.9406012281e+03 
          0.0000000000e+00 0.0000000000e+00 -4.7836345136e+03 
          0.0000000000e+00 0.0000000000e+00 -4.7836345136e+03 
          0.0000000000e+00 0.0000000000e+00 -4.3280621537e+03 
          0.0000000000e+00 0.0000000000e+00 -4.3280621537e+03 
          0.0000000000e+00 0.0000000000e+00 -5.8977723196e+03 
          0.0000000000e+00 0.0000000000e+00 -5.8977723196e+03 
          0.0000000000e+00 0.0000000000e+00 -4.7836345136e+03 
          0.0000000000e+00 0.0000000000e+00 -4.3280621537e+03 
          0.0000000000e+00 0.0000000000e+00 -5.8977723196e+03 
          0.0000000000e+00 0.0000000000e+00 -4.7836345136e+03 
          0.0000000000e+00 0.0000000000e+00 -4.3280621537e+03 
          0.0000000000e+00 0.0000000000e+00 -5.8977723196e+03 
          0.0000000000e+00 0.0000000000e+00 -2.7204481619e+03 
          0.0000000000e+00 0.0000000000e+00 -2.7204481619e+03 
          0.0000000000e+00 0.0000000000e+00 -3.4013947892e+03 
          0.0000000000e+00 0.0000000000e+00 -2.7911761483e+03 
          0.0000000000e+00 0.0000000000e+00 -2.7911761483e+03 
          0.0000000000e+00 0.0000000000e+00 -1.5516380621e+03 
          0.0000000000e+00 0.0000000000e+00 -2.0919442133e+03 
          0.0000000000e+00 0.0000000000e+00 -2.0919442133e+03 
          0.0000000000e+00 0.0000000000e+00 -5.5589603911e+03 
          0.0000000000e+00 0.0000000000e+00 -5.5589603911e+03 
          0.0000000000e+00 0.0000000000e+00 -2.7728908405e+03 
          0.0000000000e+00 0.0000000000e+00 -5.0930198249e+03 
          0.0000000000e+00 0.0000000000e+00 -5.0930198249e+03 
          0.0000000000e+00 0.0000000000e+00 -2.7911761483e+03 
          0.0000000000e+00 0.0000000000e+00 -2.7911761483e+03 
          0.0000000000e+00 0.0000000000e+00 -1.5516380621e+03 
          0.0000000000e+00 0.0000000000e+00 -5.3183762409e+03 
          0.0000000000e+00 0.0000000000e+00 -5.3183762409e+03 
          0.0000000000e+00 0.0000000000e+00 -2.7204481619e+03 
          0.0000000000e+00 0.0000000000e+00 -5.0930198249e+03 
          0.0000000000e+00 0.0000000000e+00 -3.4013947892e+03 
          0.0000000000e+00 0.0000000000e+00 -2.0919442133e+03 
          0.0000000000e+00 0.0000000000e+00 -5.5589603911e+03 
          0.0000000000e+00 0.0000000000e+00 -2.7911761483e+03 
          0.0000000000e+00 0.0000000000e+00 -1.5516380621e+03 
          0.0000000000e+00 0.0000000000e+00 -2.7728908405e+03 
          0.0000000000e+00 0.0000000000e+00 -2.7911761483e+03 
          0.0000000000e+00 0.0000000000e+00 -1.5516380621e+03 
          0.0000000000e+00 0.0000000000e+00 -5.3183762409e+03 
          0.0000000000e+00 0.0000000000e+00 -1.4761325914e+03 
          0.0000000000e+00 0.0000000000e+00 -1.7837554482e+03 
          0.0000000000e+00 0.0000000000e+00 -1.7837554482e+03 
          0.0000000000e+00 0.0000000000e+00 -2.7204481619e+03 
          0.0000000000e+00 0.0000000000e+00 -5.0930198249e+03 
          0.0000000000e+00 0.0000000000e+00 -3.4013947892e+03 
          0.0000000000e+00 0.0000000000e+00 -2.0919442133e+03 
          0.0000000000e+00 0.0000000000e+00 -5.5589603911e+03 
          0.0000000000e+00 0.0000000000e+00 -2.7911761483e+03 
          0.0000000000e+00 0.0000000000e+00 -1.5516380621e+03 
          0.0000000000e+00 0.0000000000e+00 -2.7728908405e+03 
          0.0000000000e+00 0.0000000000e+00 -2.7911761483e+03 
          0.0000000000e+00 0.0000000000e+00 -1.5516380621e+03 
          0.0000000000e+00 0.0000000000e+00 -5.3183762409e+03 
          0.0000000000e+00 0.0000000000e+00 -3.4013947892e+03 
          0.0000000000e+00 0.0000000000e+00 -1.5516380621e+03 
          0.0000000000e+00 0.0000000000e+00 -2.7728908405e+03 
          0.0000000000e+00 0.0000000000e+00 -1.5516380621e+03 
          0.0000000000e+00 0.0000000000e+00 -1.4761325914e+03 
          0.0000000000e+00 0.0000000000e+00 -1.7837554482e+03 
          0.0000000000e+00 0.0000000000e+00 -1.7837554482e+03 
          0.0000000000e+00 0.0000000000e+00 -2.3063170608e+03 
          0.0000000000e+00 0.0000000000e+00 -2.3063340168e+03 
          0.0000000000e+00 0.0000000000e+00 -1.6370888733e+03 
          0.0000000000e+00 0.0000000000e+00 -2.3063170608e+03 
          0.0000000000e+00 0.0000000000e+00 -2.3063340168e+03 
          0.0000000000e+00 0.0000000000e+00 -1.6370888733e+03 
          0.0000000000e+00 0.0000000000e+00 -2.3063340168e+03 
          0.0000000000e+00 0.0000000000e+00 -1.6370888733e+03 
          0.0000000000e+00 0.0000000000e+00 -2.3063340168e+03 
          0.0000000000e+00 0.0000000000e+00 -1.6370888733e+03 
          0.0000000000e+00 0.0000000000e+00 -2.3063170608e+03 
          0.0000000000e+00 0.0000000000e+00 -2.3063340168e+03 
          0.0000000000e+00 0.0000000000e+00 -1.6370888733e+03 
          0.0000000000e+00 0.0000000000e+00 -2.3063170608e+03 
          0.0000000000e+00 0.0000000000e+00 -2.3063340168e+03 
          0.0000000000e+00 0.0000000000e+00 -1.6370888733e+03 
          0.0000000000e+00 0.0000000000e+00 -2.3063340168e+03 
          0.0000000000e+00 0.0000000000e+00 -1.6370888733e+03 
          0.0000000000e+00 0.0000000000e+00 -2.3063340168e+03 
          0.0000000000e+00 0.0000000000e+00 -1.6370888733e+03 
          0.0000000000e+00 0.0000000000e+00 -2.3063170608e+03 
          0.0000000000e+00 0.0000000000e+00 -2.3063340168e+03 
          0.0000000000e+00 0.0000000000e+00 -1.6370888733e+03 
          0.0000000000e+00 0.0000000000e+00 -2.3063170608e+03 
          0.0000000000e+00 0.0000000000e+00 -2.3063340168e+03 
          0.0000000000e+00 0.0000000000e+00 -1.6370888733e+03 
          0.0000000000e+00 0.0000000000e+00 -2.3063340168e+03 
          0.0000000000e+00 0.0000000000e+00 -1.6370888733e+03 
          0.0000000000e+00 0.0000000000e+00 -2.3063340168e+03 
          0.0000000000e+00 0.0000000000e+00 -1.6370888733e+03 
          0.0000000000e+00 0.0000000000e+00 -1.4796494233e+03 
          0.0000000000e+00 0.0000000000e+00 -1.4796494233e+03 
          0.0000000000e+00 0.0000000000e+00 -4.0448001026e+02 
          0.0000000000e+00 0.0000000000e+00 -4.0448001026e+02 
          0.0000000000e+00 0.0000000000e+00 -4.0448001026e+02 
          0.0000000000e+00 0.0000000000e+00 -4.0448001026e+02 
          0.0000000000e+00 0.0000000000e+00 -1.9681043559e+03 
          0.0000000000e+00 0.0000000000e+00 -1.7777666732e+03 
          0.0000000000e+00 0.0000000000e+00 -1.6027387194e+03 
          0.0000000000e+00 0.0000000000e+00 -1.9681043559e+03 
          0.0000000000e+00 0.0000000000e+00 -1.7777666732e+03 
          0.0000000000e+00 0.0000000000e+00 -1.6027387194e+03 
          0.0000000000e+00 0.0000000000e+00 -1.9681043559e+03 
          0.0000000000e+00 0.0000000000e+00 -1.7777666732e+03 
          0.0000000000e+00 0.0000000000e+00 -1.6027387194e+03 
          0.0000000000e+00 0.0000000000e+00 -1.9681043559e+03 
          0.0000000000e+00 0.0000000000e+00 -1.7777666732e+03 
          0.0000000000e+00 0.0000000000e+00 -1.6027387194e+03 
          0.0000000000e+00 0.0000000000e+00 -1.4452049150e+03 
          0.0000000000e+00 0.0000000000e+00 -1.3007084764e+03 
          0.0000000000e+00 0.0000000000e+00 -1.1790318824e+03 
          0.0000000000e+00 0.0000000000e+00 -1.4452049150e+03 
          0.0000000000e+00 0.0000000000e+00 -1.3007084764e+03 
          0.0000000000e+00 0.0000000000e+00 -1.1790318824e+03 
          0.0000000000e+00 0.0000000000e+00 -1.4452049150e+03 
          0.0000000000e+00 0.0000000000e+00 -1.3007084764e+03 
          0.0000000000e+00 0.0000000000e+00 -1.1790318824e+03 
          0.0000000000e+00 0.0000000000e+00 -1.4452049150e+03 
          0.0000000000e+00 0.0000000000e+00 -1.3007084764e+03 
          0.0000000000e+00 0.0000000000e+00 -1.1790318824e+03 
        </DataArray>
      </PointData>
      <CellData>
        <DataArray type="Int64" Name="ElementTag" format="ascii">
          0
        </DataArray>
      </CellData>
    </Piece>
  </UnstructuredGrid>
</VTKFile>
