<?xml version="1.0"?>
<VTKFile type="UnstructuredGrid" version="1.0" byte_order="LittleEndian" compressor="vtkZLibDataCompressor">
  <UnstructuredGrid>
    <Piece NumberOfPoints="158" NumberOfCells="1">
      <Points>
        <DataArray type="Float64" Name="Points" NumberOfComponents="3" format="ascii">
          1.7550000000e+00 -1.7550000000e+00 0.0000000000e+00 
          1.4140000000e+00 0.0000000000e+00 5.2300000000e+00 
          1.7550000000e+00 1.7550000000e+00 -0.0000000000e+00 
          1.4140000000e+00 -1.4140000000e+00 5.2300000000e+00 
          1.4140000000e+00 1.4140000000e+00 5.2300000000e+00 
          1.5840000000e+00 8.7800000000e-01 2.6150000000e+00 
          1.5840000000e+00 -8.7700000000e-01 2.6150000000e+00 
          1.5840000000e+00 1.5840000000e+00 2.6150000000e+00 
          1.5840000000e+00 -1.5840000000e+00 2.6150000000e+00 
          -0.0000000000e+00 1.4140000000e+00 5.2300000000e+00 
          -1.7550000000e+00 1.7550000000e+00 -0.0000000000e+00 
          -1.4140000000e+00 1.4140000000e+00 5.2300000000e+00 
          -8.7700000000e-01 1.5840000000e+00 2.6150000000e+00 
          8.7700000000e-01 1.5840000000e+00 2.6150000000e+00 
          -1.5840000000e+00 1.5840000000e+00 2.6150000000e+00 
          -1.4140000000e+00 -0.0000000000e+00 5.2300000000e+00 
          -1.7550000000e+00 -1.7550000000e+00 -0.0000000000e+00 
          -1.4140000000e+00 -1.4140000000e+00 5.2300000000e+00 
          -1.5840000000e+00 -8.7700000000e-01 2.6150000000e+00 
          -1.5840000000e+00 8.7700000000e-01 2.6150000000e+00 
          -1.5840000000e+00 -1.5840000000e+00 2.6150000000e+00 
          0.0000000000e+00 -1.4140000000e+00 5.2300000000e+00 
          8.7700000000e-01 -1.5840000000e+00 2.6150000000e+00 
          -8.7700000000e-01 -1.5840000000e+00 2.6150000000e+00 
          1.2750000000e+00 1.2750000000e+00 7.3500000000e+00 
          1.2750000000e+00 -1.2750000000e+00 7.3500000000e+00 
          1.1500000000e+00 -1.1500000000e+00 9.2700000000e+00 
          1.1500000000e+00 1.1500000000e+00 9.2700000000e+00 
          1.0370000000e+00 -1.0370000000e+00 1.1000000000e+01 
          1.0370000000e+00 1.0370000000e+00 1.1000000000e+01 
          -1.2750000000e+00 1.2750000000e+00 7.3500000000e+00 
          -1.1500000000e+00 1.1500000000e+00 9.2700000000e+00 
          -1.0370000000e+00 1.0370000000e+00 1.1000000000e+01 
          -1.2750000000e+00 -1.2750000000e+00 7.3500000000e+00 
          -1.1500000000e+00 -1.1500000000e+00 9.2700000000e+00 
          -1.0370000000e+00 -1.0370000000e+00 1.1000000000e+01 
          9.3500000000e-01 9.3500000000e-01 1.2560000000e+01 
          9.3500000000e-01 -9.3500000000e-01 1.2560000000e+01 
          8.4300000000e-01 8.4300000000e-01 1.3960000000e+01 
          8.4300000000e-01 -8.4300000000e-01 1.3960000000e+01 
          7.6000000000e-01 7.6000000000e-01 1.5240000000e+01 
          7.6000000000e-01 -7.6000000000e-01 1.5240000000e+01 
          -9.3500000000e-01 9.3500000000e-01 1.2560000000e+01 
          -8.4300000000e-01 8.4300000000e-01 1.3960000000e+01 
          -7.6000000000e-01 7.6000000000e-01 1.5240000000e+01 
          -9.3500000000e-01 -9.3500000000e-01 1.2560000000e+01 
          -8.4300000000e-01 -8.4300000000e-01 1.3960000000e+01 
          -7.6000000000e-01 -7.6000000000e-01 1.5240000000e+01 
          7.6000000000e-01 -7.6000000000e-01 1.6240000000e+01 
          7.6000000000e-01 7.6000000000e-01 1.6240000000e+01 
          7.6000000000e-01 0.0000000000e+00 1.6240000000e+01 
          7.6000000000e-01 7.6000000000e-01 1.7340000000e+01 
          7.6000000000e-01 -7.6000000000e-01 1.7340000000e+01 
          7.6000000000e-01 0.0000000000e+00 1.7890000000e+01 
          7.6000000000e-01 -7.6000000000e-01 1.9440000000e+01 
          7.6000000000e-01 7.6000000000e-01 1.9440000000e+01 
          7.6000000000e-01 -7.6000000000e-01 2.1640000000e+01 
          7.6000000000e-01 7.6000000000e-01 2.1640000000e+01 
          7.6000000000e-01 0.0000000000e+00 1.9440000000e+01 
          7.6000000000e-01 7.6000000000e-01 1.8440000000e+01 
          7.6000000000e-01 -7.6000000000e-01 1.8440000000e+01 
          7.6000000000e-01 -7.6000000000e-01 2.0540000000e+01 
          7.6000000000e-01 7.6000000000e-01 2.0540000000e+01 
          7.6000000000e-01 0.0000000000e+00 2.1090000000e+01 
          7.6000000000e-01 7.6000000000e-01 2.2640000000e+01 
          7.6000000000e-01 -7.6000000000e-01 2.2640000000e+01 
          -7.6000000000e-01 7.6000000000e-01 1.6240000000e+01 
          -7.6000000000e-01 7.6000000000e-01 1.8440000000e+01 
          -0.0000000000e+00 7.6000000000e-01 1.6240000000e+01 
          -7.6000000000e-01 7.6000000000e-01 1.9440000000e+01 
          -7.6000000000e-01 7.6000000000e-01 2.1640000000e+01 
          -7.6000000000e-01 7.6000000000e-01 1.7340000000e+01 
          -0.0000000000e+00 7.6000000000e-01 1.7890000000e+01 
          -0.0000000000e+00 7.6000000000e-01 1.9440000000e+01 
          -7.6000000000e-01 7.6000000000e-01 2.0540000000e+01 
          0.0000000000e+00 7.6000000000e-01 2.1090000000e+01 
          -7.6000000000e-01 7.6000000000e-01 2.2640000000e+01 
          -0.0000000000e+00 5.2600000000e-01 2.3499000000e+01 
          3.9900000000e-01 4.0400000000e-01 2.3950000000e+01 
          -3.9900000000e-01 4.0400000000e-01 2.3950000000e+01 
          -7.6000000000e-01 -7.6000000000e-01 1.6240000000e+01 
          -7.6000000000e-01 -7.6000000000e-01 1.8440000000e+01 
          -7.6000000000e-01 -0.0000000000e+00 1.6240000000e+01 
          -7.6000000000e-01 -7.6000000000e-01 1.9440000000e+01 
          -7.6000000000e-01 -7.6000000000e-01 2.1640000000e+01 
          -7.6000000000e-01 -7.6000000000e-01 1.7340000000e+01 
          -7.6000000000e-01 0.0000000000e+00 1.7890000000e+01 
          -7.6000000000e-01 -0.0000000000e+00 1.9440000000e+01 
          -7.6000000000e-01 -7.6000000000e-01 2.0540000000e+01 
          -7.6000000000e-01 -0.0000000000e+00 2.1090000000e+01 
          -7.6000000000e-01 -7.6000000000e-01 2.2640000000e+01 
          0.0000000000e+00 -7.6000000000e-01 1.6240000000e+01 
          0.0000000000e+00 -7.6000000000e-01 1.7890000000e+01 
          0.0000000000e+00 -7.6000000000e-01 1.9440000000e+01 
          0.0000000000e+00 -7.6000000000e-01 2.1090000000e+01 
          0.0000000000e+00 -5.2600000000e-01 2.3499000000e+01 
          3.9900000000e-01 -4.0400000000e-01 2.3950000000e+01 
          -3.9900000000e-01 -4.0400000000e-01 2.3950000000e+01 
          -0.0000000000e+00 -3.3500000000e+00 2.1640000000e+01 
          -3.8000000000e-01 -2.0550000000e+00 2.2140000000e+01 
          -3.8000000000e-01 -2.0550000000e+00 2.1640000000e+01 
          0.0000000000e+00 3.3500000000e+00 2.1640000000e+01 
          -3.8000000000e-01 2.0550000000e+00 2.2140000000e+01 
          -3.8000000000e-01 2.0550000000e+00 2.1640000000e+01 
          3.8000000000e-01 2.0550000000e+00 2.2140000000e+01 
          3.8000000000e-01 2.0550000000e+00 2.1640000000e+01 
          3.8000000000e-01 -2.0550000000e+00 2.2140000000e+01 
          3.8000000000e-01 -2.0550000000e+00 2.1640000000e+01 
          -0.0000000000e+00 -3.3500000000e+00 1.8440000000e+01 
          -3.8000000000e-01 -2.0550000000e+00 1.8940000000e+01 
          -3.8000000000e-01 -2.0550000000e+00 1.8440000000e+01 
          -0.0000000000e+00 3.3500000000e+00 1.8440000000e+01 
          -3.8000000000e-01 2.0550000000e+00 1.8940000000e+01 
          -3.8000000000e-01 2.0550000000e+00 1.8440000000e+01 
          3.8000000000e-01 2.0550000000e+00 1.8940000000e+01 
          3.8000000000e-01 2.0550000000e+00 1.8440000000e+01 
          3.8000000000e-01 -2.0550000000e+00 1.8940000000e+01 
          3.8000000000e-01 -2.0550000000e+00 1.8440000000e+01 
          -0.0000000000e+00 -3.3500000000e+00 1.5240000000e+01 
          -3.8000000000e-01 -2.0550000000e+00 1.5740000000e+01 
          -3.8000000000e-01 -2.0550000000e+00 1.5240000000e+01 
          -0.0000000000e+00 3.3500000000e+00 1.5240000000e+01 
          -3.8000000000e-01 2.0550000000e+00 1.5740000000e+01 
          -3.8000000000e-01 2.0550000000e+00 1.5240000000e+01 
          3.8000000000e-01 2.0550000000e+00 1.5740000000e+01 
          3.8000000000e-01 2.0550000000e+00 1.5240000000e+01 
          3.8000000000e-01 -2.0550000000e+00 1.5740000000e+01 
          3.8000000000e-01 -2.0550000000e+00 1.5240000000e+01 
          -5.2400000000e-01 0.0000000000e+00 2.3496000000e+01 
          5.2400000000e-01 0.0000000000e+00 2.3496000000e+01 
          4.0000000000e-02 5.0000000000e-02 2.5250000000e+01 
          -4.0000000000e-02 5.0000000000e-02 2.5250000000e+01 
          -4.0000000000e-02 -5.0000000000e-02 2.5250000000e+01 
          4.0000000000e-02 -5.0000000000e-02 2.5250000000e+01 
          1.3410000000e+00 0.0000000000e+00 6.3450000000e+00 
          1.2090000000e+00 0.0000000000e+00 8.3600000000e+00 
          1.0900000000e+00 -0.0000000000e+00 1.0180000000e+01 
          -0.0000000000e+00 1.3410000000e+00 6.3450000000e+00 
          0.0000000000e+00 1.2090000000e+00 8.3600000000e+00 
          -0.0000000000e+00 1.0900000000e+00 1.0180000000e+01 
          -1.3410000000e+00 0.0000000000e+00 6.3450000000e+00 
          -1.2090000000e+00 0.0000000000e+00 8.3600000000e+00 
          -1.0900000000e+00 -0.0000000000e+00 1.0180000000e+01 
          -0.0000000000e+00 -1.3410000000e+00 6.3450000000e+00 
          0.0000000000e+00 -1.2090000000e+00 8.3600000000e+00 
          0.0000000000e+00 -1.0900000000e+00 1.0180000000e+01 
          9.8300000000e-01 0.0000000000e+00 1.1820000000e+01 
          8.8700000000e-01 0.0000000000e+00 1.3296000000e+01 
          8.0000000000e-01 -0.0000000000e+00 1.4633000000e+01 
          0.0000000000e+00 9.8300000000e-01 1.1820000000e+01 
          -0.0000000000e+00 8.8700000000e-01 1.3296000000e+01 
          0.0000000000e+00 8.0000000000e-01 1.4633000000e+01 
          -9.8300000000e-01 0.0000000000e+00 1.1820000000e+01 
          -8.8700000000e-01 0.0000000000e+00 1.3296000000e+01 
          -8.0000000000e-01 0.0000000000e+00 1.4633000000e+01 
          0.0000000000e+00 -9.8300000000e-01 1.1820000000e+01 
          0.0000000000e+00 -8.8700000000e-01 1.3296000000e+01 
          0.0000000000e+00 -8.0000000000e-01 1.4633000000e+01 
        </DataArray>
      </Points>
      <Cells>
        <DataArray type="Int64" Name="connectivity" format="ascii">
          0
          1
          2
          3
          4
          5
          6
          7
          8
          9
          10
          11
          12
          13
          14
          15
          16
          17
          18
          19
          20
          21
          22
          23
          24
          25
          26
          27
          28
          29
          30
          31
          32
          33
          34
          35
          36
          37
          38
          39
          40
          41
          42
          43
          44
          45
          46
          47
          48
          49
          50
          51
          52
          53
          54
          55
          56
          57
          58
          59
          60
          61
          62
          63
          64
          65
          66
          67
          68
          69
          70
          71
          72
          73
          74
          75
          76
          77
          78
          79
          80
          81
          82
          83
          84
          85
          86
          87
          88
          89
          90
          91
          92
          93
          94
          95
          96
          97
          98
          99
          100
          101
          102
          103
          104
          105
          106
          107
          108
          109
          110
          111
          112
          113
          114
          115
          116
          117
          118
          119
          120
          121
          122
          123
          124
          125
          126
          127
          128
          129
          130
          131
          132
          133
          134
          135
          136
          137
          138
          139
          140
          141
          142
          143
          144
          145
          146
          147
          148
          149
          150
          151
          152
          153
          154
          155
          156
          157
        </DataArray>
        <DataArray type="Int64" Name="offsets" format="ascii">
          158
        </DataArray>
        <DataArray type="Int64" Name="types" format="ascii">
          2
        </DataArray>
      </Cells>
      <PointData>
        <DataArray type="Int64" Name="NodeTag" format="ascii">
          1
          2
          3
          4
          5
          6
          7
          8
          9
          10
          11
          12
          13
          14
          15
          16
          17
          18
          19
          20
          21
          22
          23
          24
          25
          26
          27
          28
          29
          30
          31
          32
          33
          34
          35
          36
          37
          38
          39
          40
          41
          42
          43
          44
          45
          46
          47
          48
          49
          50
          51
          52
          53
          54
          55
          56
          57
          58
          59
          60
          61
          62
          63
          64
          65
          66
          67
          68
          69
          70
          71
          72
          73
          74
          75
          76
          77
          78
          79
          80
          81
          82
          83
          84
          85
          86
          87
          88
          89
          90
          91
          92
          93
          94
          95
          96
          97
          98
          99
          100
          101
          102
          103
          104
          105
          106
          107
          108
          109
          110
          111
          112
          113
          114
          115
          116
          117
          118
          119
          120
          121
          122
          123
          124
          125
          126
          127
          128
          129
          130
          131
          132
          133
          134
          135
          136
          137
          138
          139
          140
          141
          142
          143
          144
          145
          146
          147
          148
          149
          150
          151
          152
          153
          154
          155
          156
          157
          158
        </DataArray>
        <DataArray type="Float64" Name="Displacement" NumberOfComponents="3" format="ascii">
          0.0000000000e+00 0.0000000000e+00 0.0000000000e+00 
          -2.1609352377e-05 5.7782768830e-05 -1.2525887572e-05 
          0.0000000000e+00 0.0000000000e+00 0.0000000000e+00 
          6.3160420583e-05 5.9651454742e-05 -8.4944649359e-05 
          -4.0463067535e-05 5.8833879524e-05 -8.7971943879e-05 
          -1.4679452359e-04 -1.0020937093e-04 -6.1514021293e-05 
          -1.1656457161e-04 1.8981166382e-04 -6.9665210152e-05 
          -1.8216630190e-04 -9.9883558166e-05 -6.4643058833e-05 
          -9.0435481627e-05 1.8966507172e-04 -6.2519030164e-05 
          -3.8950061416e-05 -2.6096552111e-05 -1.1743040454e-05 
          0.0000000000e+00 0.0000000000e+00 0.0000000000e+00 
          -3.9510674172e-05 -5.6088901257e-05 -5.5821239961e-05 
          5.8164008842e-05 -1.0652370981e-04 -4.0050788777e-05 
          -1.8232725991e-04 -1.1333189344e-04 -6.9633255662e-05 
          5.8016955692e-05 -1.3601930176e-04 -4.1725474920e-05 
          3.5256294464e-05 -5.4181102074e-05 -1.1655548175e-05 
          0.0000000000e+00 0.0000000000e+00 0.0000000000e+00 
          6.4079103748e-05 -5.5028515255e-05 -6.4091265032e-05 
          1.1304499781e-04 6.1483990112e-05 -4.4002049755e-05 
          8.1276890905e-05 -1.3607193627e-04 -4.8401241007e-05 
          1.5655558535e-04 6.1300458657e-05 -4.7656178658e-05 
          6.2069980172e-05 3.0807699785e-05 -1.2398664357e-05 
          -9.0733305148e-05 1.4341371664e-04 -5.8299375646e-05 
          1.5663325858e-04 9.4339889732e-05 -5.5540621513e-05 
          -1.2692238529e-05 1.1514571408e-04 -1.1744318762e-04 
          1.3265532497e-04 6.9606637606e-05 -1.1420636310e-04 
          1.7017777383e-04 1.2083645947e-04 -1.4301362067e-04 
          -6.2578135249e-06 1.2447202543e-04 -1.4510171277e-04 
          2.3343318986e-04 1.3482275270e-04 -1.6255184610e-04 
          3.3251013027e-05 1.6222847553e-04 -1.6268968491e-04 
          -4.6742189175e-05 -7.9676583717e-05 -7.3345346040e-05 
          -8.7785435394e-06 -1.2776147817e-04 -9.2588369054e-05 
          1.3818438836e-05 -1.5386545622e-04 -1.0672612322e-04 
          9.6747510484e-05 -1.0466600143e-04 -8.3989696693e-05 
          1.6715616236e-04 -1.2837198290e-04 -1.0422652129e-04 
          2.1258175429e-04 -1.6928705244e-04 -1.1803007243e-04 
          6.5223951152e-05 1.7614122504e-04 -1.8353785008e-04 
          2.8352936487e-04 1.6545559092e-04 -1.8635149035e-04 
          1.1008612053e-04 1.9920083877e-04 -1.9809989633e-04 
          3.4127632537e-04 1.7629938444e-04 -2.0449029214e-04 
          1.4966723335e-04 1.9803505729e-04 -2.1021993617e-04 
          3.9073401027e-04 2.0037061078e-04 -2.2055145602e-04 
          5.6160796987e-05 -1.9084605589e-04 -1.2415094313e-04 
          9.5837494021e-05 -2.1343891189e-04 -1.3903437647e-04 
          1.4661043915e-04 -2.4666084959e-04 -1.5380997758e-04 
          2.7330219304e-04 -1.9519710227e-04 -1.3464729763e-04 
          3.2576687868e-04 -2.2826150943e-04 -1.4761028330e-04 
          3.8690246307e-04 -2.4270346789e-04 -1.5971412337e-04 
          4.4798783321e-04 2.0152343338e-04 -2.4287489328e-04 
          1.7237758637e-04 2.0432989932e-04 -2.2847696537e-04 
          3.0977202134e-04 2.0362917413e-04 -2.2472300001e-04 
          2.3009796217e-04 2.4379027044e-04 -2.4650877822e-04 
          5.5435920447e-04 1.8033893526e-04 -2.6392224093e-04 
          4.0270044424e-04 2.1251097861e-04 -2.9349388235e-04 
          6.8339674498e-04 2.0057355391e-04 -3.0738325346e-04 
          2.9510900800e-04 2.0587050935e-04 -2.8045252790e-04 
          8.6166917856e-04 1.8050345867e-04 -3.3408555481e-04 
          3.9357732331e-04 1.7365427177e-04 -2.9960512691e-04 
          4.7787853169e-04 2.0363686478e-04 -2.8646251954e-04 
          2.5372951211e-04 2.0757128922e-04 -2.7142708643e-04 
          6.0966988232e-04 2.1402799011e-04 -2.9464657449e-04 
          7.8801493889e-04 1.7596692944e-04 -3.1885132590e-04 
          3.5332908184e-04 2.1154556612e-04 -2.8807572233e-04 
          6.0424963467e-04 1.8605736409e-04 -3.2518278172e-04 
          4.4005988649e-04 1.6165904144e-04 -3.0299302288e-04 
          9.4153484617e-04 1.5388904634e-04 -3.4014038444e-04 
          1.7318468667e-04 -2.5897874927e-04 -1.6549198598e-04 
          2.5286762344e-04 -3.1011033658e-04 -1.9405217512e-04 
          1.7276007225e-04 -2.3075514415e-05 -1.9058352125e-04 
          2.9671044732e-04 -3.1815492535e-04 -2.0276256314e-04 
          3.9310654544e-04 -3.5000361519e-04 -2.2122459374e-04 
          1.8820951482e-04 -2.6762659498e-04 -1.7486373068e-04 
          2.3015886122e-04 -3.0245898660e-05 -2.3623441623e-04 
          2.9586680760e-04 -4.4292812822e-05 -2.3784868300e-04 
          3.3108052922e-04 -3.2329216945e-04 -2.0967547569e-04 
          3.6773774171e-04 -8.0442714145e-05 -2.6252710255e-04 
          4.3925715426e-04 -3.5006809399e-04 -2.2631414412e-04 
          5.5945551665e-04 -9.1663536677e-05 -2.6616741981e-04 
          6.2045915835e-04 6.5255243863e-06 -2.9528967114e-04 
          6.2265316513e-04 -2.3670263973e-04 -2.4891653016e-04 
          4.4884189035e-04 -2.6183312868e-04 -1.7143812414e-04 
          6.0853412466e-04 -3.0474627638e-04 -2.0073387320e-04 
          3.1347800047e-04 -2.6104473257e-04 -1.6054919795e-04 
          6.8492037835e-04 -3.2352925460e-04 -2.0803028146e-04 
          8.6125025139e-04 -3.4413899081e-04 -2.2410126714e-04 
          5.0710175513e-04 -3.0876278524e-04 -1.8221941183e-04 
          3.9256632837e-04 -2.9794174752e-04 -2.0437274078e-04 
          4.9093282352e-04 -3.2117286426e-04 -1.9921055502e-04 
          7.6201642558e-04 -3.5119673743e-04 -2.1360758384e-04 
          6.0327352843e-04 -3.4230678022e-04 -2.2918407689e-04 
          9.4002481929e-04 -3.5757220656e-04 -2.2756274138e-04 
          4.4839186507e-04 -3.0032301822e-05 -2.0007630728e-04 
          5.6772440817e-04 -7.0862569984e-05 -2.5167291812e-04 
          6.8398490342e-04 -5.6658061017e-05 -2.5347718413e-04 
          8.1741885012e-04 -8.5180861822e-05 -2.8191999749e-04 
          9.2824935309e-04 -1.3797018863e-04 -2.7675425524e-04 
          9.2107324465e-04 7.4051103773e-06 -3.0917705600e-04 
          9.2382501227e-04 -2.3591077879e-04 -2.5601457970e-04 
          1.7518708111e-03 -7.7181652776e-05 -3.7002361453e-04 
          1.3819984783e-03 -2.1290729763e-04 -2.8852245824e-04 
          1.3363082561e-03 -2.0228240894e-04 -2.8887473803e-04 
          -4.9420707823e-04 -9.2199511861e-05 -2.8028933249e-04 
          -1.9823710118e-05 -2.2089659361e-04 -2.5186901949e-04 
          -3.9759416034e-05 -2.2486290346e-04 -2.5221897248e-04 
          -1.9834415811e-05 4.2317286367e-05 -2.8288323119e-04 
          -3.9752693805e-05 4.4185654435e-05 -2.8324054971e-04 
          1.3819715431e-03 2.5044822305e-05 -3.5230914320e-04 
          1.3362169134e-03 4.3680911451e-05 -3.5266877702e-04 
          1.5052268861e-03 -4.0668709551e-05 -3.3481057864e-04 
          1.1187643867e-03 -1.7808564468e-04 -2.6931681929e-04 
          1.1005223522e-03 -1.6017825782e-04 -2.6966702490e-04 
          -6.3959708982e-04 -5.5459839688e-05 -2.6161507006e-04 
          -1.6117695766e-04 -1.8286561538e-04 -2.1914781112e-04 
          -2.0074234573e-04 -1.8114617573e-04 -2.1948241102e-04 
          -1.6122200824e-04 8.1322605376e-05 -2.6865864139e-04 
          -2.0076885540e-04 7.4028234992e-05 -2.6898611887e-04 
          1.1187127694e-03 6.4833586587e-05 -3.0525694422e-04 
          1.1004401515e-03 7.4643183653e-05 -3.0558417415e-04 
          1.1679904441e-03 -1.6214320920e-05 -2.6665788011e-04 
          7.9669783155e-04 -1.4312550629e-04 -2.2293987971e-04 
          7.9913211943e-04 -1.2334154328e-04 -2.2331349359e-04 
          -6.3327852596e-04 -2.8803789461e-05 -2.2312654613e-04 
          -1.9402621083e-04 -1.4372253369e-04 -1.7175892657e-04 
          -2.3434271846e-04 -1.4082241620e-04 -1.7210384813e-04 
          -1.9407015271e-04 9.9944564189e-05 -2.2724170083e-04 
          -2.3434265387e-04 8.7071287023e-05 -2.2760752420e-04 
          7.9664590141e-04 8.3187303334e-05 -2.2677815599e-04 
          7.9908541407e-04 8.6760575703e-05 -2.2712599057e-04 
          7.3785430106e-04 -2.7808525891e-04 -2.4352929916e-04 
          7.0189707680e-04 6.0343195164e-05 -3.2195094930e-04 
          6.6250499484e-04 3.2294829926e-05 -2.7476171312e-04 
          6.6309541977e-04 -2.7921978073e-04 -2.7376282924e-04 
          1.0452272159e-03 -2.7851933942e-04 -2.7616229316e-04 
          1.0446372333e-03 3.3009945942e-05 -2.8455389576e-04 
          3.9803124432e-05 7.7267821034e-05 -8.7685723637e-05 
          6.2554217206e-05 1.0907756216e-04 -1.4480034825e-04 
          1.1003330526e-04 1.3713742822e-04 -1.4664774991e-04 
          -3.8927910824e-05 6.2399995905e-06 -7.4256970392e-05 
          -2.1676337188e-05 -1.2743273677e-05 -1.1954030225e-04 
          5.9237513796e-06 -9.6717129512e-06 -1.2314540147e-04 
          4.4408621826e-05 -7.4801298907e-05 -6.4204623560e-05 
          9.6480394674e-05 -1.1121243126e-04 -1.0026002317e-04 
          1.2579549792e-04 -1.4599246802e-04 -1.0361948413e-04 
          8.9077117260e-05 1.1945035795e-05 -7.7919273112e-05 
          1.4191060066e-04 2.4744495027e-05 -1.2515988638e-04 
          1.9626978557e-04 9.9523874847e-06 -1.2865500286e-04 
          1.5827322637e-04 1.6132188662e-04 -1.7950384887e-04 
          2.0785018299e-04 1.8101908985e-04 -1.8928208982e-04 
          2.4744920727e-04 1.9531301728e-04 -2.1686906092e-04 
          4.0186708689e-05 -9.4403529788e-06 -1.4881927937e-04 
          8.0599654812e-05 -8.2347113377e-06 -1.6020919998e-04 
          1.2485348228e-04 -2.2477029920e-05 -1.7975397670e-04 
          1.6054699554e-04 -1.7849285496e-04 -1.2655402434e-04 
          1.9984059544e-04 -2.0832298952e-04 -1.3435510266e-04 
          2.4127194589e-04 -2.3434774717e-04 -1.5658934374e-04 
          2.5083758701e-04 -2.0046039524e-06 -1.5542439353e-04 
          3.0642229222e-04 -1.8489564475e-05 -1.6730690500e-04 
          3.6187319178e-04 -2.3349192582e-05 -1.8728752809e-04 
        </DataArray>
        <DataArray type="Float64" Name="Reaction" NumberOfComponents="3" format="ascii">
          -1.5151563151e+03 4.9780271620e+02 1.4185418443e+04 
          -9.3868235407e-10 -1.5811263410e-10 -1.0894351116e-09 
          -6.9760630943e+02 -1.5537109687e+03 1.5127715104e+04 
          2.4436985768e-10 2.2821189383e-12 4.3008180073e-09 
          1.6275782388e-09 3.4096181434e-10 -1.2208426547e-08 
          1.5733604697e-09 6.0733537643e-10 3.9944435641e-09 
          4.9175652439e-10 -2.8815838604e-10 1.1260478661e-10 
          -1.5793885089e-09 3.5638936247e-11 -9.5549275436e-10 
          -3.2684766005e-10 -8.0214945797e-10 8.8361251649e-10 
          -9.5256247334e-11 1.4277751204e-10 3.7505706457e-09 
          1.0707339552e+03 -2.4111550248e+02 9.6294344904e+03 
          1.7009084141e-09 -3.7138098152e-10 7.2887995639e-10 
          1.3982703884e-10 -9.4407814899e-13 2.1958863720e-10 
          2.4468937987e-10 4.8865433921e-10 -6.7636109213e-09 
          -8.5031337527e-10 -2.5566793127e-10 -5.7889838756e-10 
          -5.6380622393e-10 6.2331861894e-11 2.6441705769e-10 
          2.6939100891e+02 1.2564280753e+03 1.0965037801e+04 
          2.8656474971e-09 -2.4199531268e-10 2.3689296497e-09 
          -1.1849457526e-09 8.9869106601e-10 1.1565254310e-10 
          7.6770623192e-10 -1.0321604682e-10 6.9279451620e-10 
          2.0142192358e-09 -3.0303048959e-10 3.2194721888e-10 
          -4.3424652763e-10 8.4957596513e-11 -8.8170623580e-11 
          9.7576863256e-11 9.8434735363e-10 -1.8372502859e-09 
          -6.9528305335e-10 -4.2798858901e-10 -6.7464688003e-10 
          1.1480683071e-10 -8.3736168000e-10 8.3656168381e-09 
          -3.6868019748e-10 -6.9912148293e-10 -2.3430478946e-09 
          -8.3680284924e-11 3.3400948674e-11 1.2090885237e-09 
          -9.9025798672e-10 3.8935210611e-10 -5.5730205450e-09 
          -5.6616822341e-11 5.3471116424e-10 -1.3225854301e-09 
          -5.7741234016e-10 -8.0058293328e-10 3.4618747313e-09 
          -9.6837871055e-11 8.1284978748e-12 -3.4720443742e-09 
          -3.7757952320e-10 -3.3056962723e-10 3.2401730465e-09 
          -1.0423477637e-09 8.9968524297e-10 -1.0421433216e-08 
          -1.9078494340e-10 5.6127652526e-10 3.0926008976e-09 
          -9.6288355067e-10 -2.3706531183e-10 -3.9975797950e-09 
          2.6769926831e-09 2.1239959791e-10 4.8614691439e-09 
          -4.1669512285e-10 1.7351381443e-10 -1.6401686675e-09 
          9.4973318099e-10 3.3872349370e-12 -1.7762551430e-09 
          -5.1576520832e-12 2.2772636554e-10 -3.7238673256e-09 
          6.7964933681e-10 -2.0452436966e-10 -2.8170442090e-09 
          1.6740080433e-09 -1.2422398110e-09 1.0103236303e-08 
          -1.9798641615e-09 4.8154857185e-10 6.9573313916e-09 
          9.4632979231e-10 -5.3455687099e-10 9.6988366227e-09 
          -1.9919788041e-10 -2.0794463373e-10 -4.6278847421e-10 
          6.7135330628e-10 -8.6140627964e-10 2.9651953670e-09 
          5.5087623352e-10 -9.1028157234e-11 -4.2643966136e-10 
          6.0617511011e-11 3.1930408317e-10 8.6023410617e-12 
          5.4160786966e-10 1.1519348392e-09 -7.6487105538e-10 
          -1.6976642314e-11 -3.7179981316e-11 -3.2176545872e-09 
          3.2940050687e-10 5.1680285051e-11 -8.8547391641e-11 
          -2.1446977527e-10 -5.1596421580e-11 -1.5831802536e-10 
          -3.0326163802e-10 -3.8630004978e-10 -1.9367244475e-09 
          -4.1677994389e-11 4.9588292500e-10 4.9057187201e-09 
          6.1033622600e-11 -3.5776361105e-10 -4.2529246791e-10 
          5.0598103485e-10 8.8536613978e-10 1.9870072254e-10 
          -8.4856566218e-11 3.0000524287e-10 -3.8379285305e-09 
          1.3978374014e-10 -5.7343724214e-10 5.6026037143e-09 
          -1.6435470762e-09 -7.5315297332e-09 1.7777368466e-09 
          4.8643311601e-12 2.6005420040e-10 1.7946555353e-10 
          2.4300517154e-10 2.0984756710e-09 3.9109749883e-09 
          -5.9779736716e-10 -1.9990221978e-10 -8.3082221103e-09 
          7.7254225239e-10 9.6958209517e-10 -2.0110225707e-09 
          -1.0495291303e-09 8.4650100818e-10 1.7708557953e-09 
          1.2533307725e-10 -8.6002595323e-10 3.7538150366e-10 
          1.0262877215e-09 8.7863483156e-10 -2.9675084612e-10 
          -1.3061520754e-09 -2.5927224256e-09 -4.9246051681e-09 
          1.8669310542e-10 3.2780221246e-10 -2.2450959980e-09 
          -1.1841598813e-09 -9.2247667838e-11 2.2217072626e-10 
          5.2304893750e-10 4.9088091231e-11 -1.0778526405e-09 
          1.6910404188e-09 3.9293503451e-09 -2.4503261642e-09 
          3.7191028035e-09 8.3770412829e-10 -3.9543379682e-09 
          8.8180951430e-10 -5.4174291095e-10 3.6329261821e-10 
          -1.6118871238e-09 -4.2998014003e-12 -8.2482599917e-10 
          6.3853478061e-11 1.2392288584e-11 -3.2349095624e-11 
          2.4806112719e-10 6.6476887883e-10 1.6513652668e-09 
          -7.8109180235e-10 -1.0242667825e-11 9.6870056421e-10 
          1.4615122446e-09 1.6504669853e-09 -1.7664947283e-09 
          -7.2851502608e-11 3.2900140945e-11 -9.3322516381e-11 
          -1.9307222487e-11 -4.0925862699e-10 7.3035355541e-11 
          -1.3575429669e-10 4.4919179487e-10 -1.9864732081e-10 
          -2.0873747175e-11 1.1506823272e-10 5.6932791814e-11 
          4.0418113301e-11 7.5734553654e-10 4.9425363802e-10 
          5.2374549142e-11 -1.1789889898e-10 2.9898550302e-10 
          -1.0097727099e-09 1.6302266342e-09 1.4079168942e-09 
          4.8761039650e-10 -3.2932981064e-09 4.4199315319e-09 
          4.1624675928e-11 1.0075656802e-10 3.0740955614e-10 
          4.9953374770e-12 1.5273595930e-10 -1.1448808568e-10 
          1.2184764309e-10 4.3690337459e-09 -5.5566318213e-10 
          1.9776263960e-11 -4.5218849498e-10 4.3601444677e-10 
          -1.9324541967e-11 3.7730320257e-09 -1.4648670055e-09 
          -1.2185612519e-09 -4.0178615990e-10 6.2232019538e-10 
          -1.5511203433e-10 1.2417233908e-11 -4.4890513529e-10 
          2.3470753119e-11 1.6920742585e-11 1.1094973551e-10 
          5.5746351979e-11 -5.3129957031e-11 -3.0549163199e-10 
          -7.7279263544e-10 -5.1152929115e-11 -5.2464677047e-10 
          -2.0812435109e-10 5.3239634923e-12 -1.0786649352e-11 
          3.0715741062e-10 2.3605428723e-10 -7.1214945052e-10 
          2.8978641708e-10 -8.0671469505e-11 9.2894580916e-12 
          9.5169649938e-11 -4.6257513098e-10 -2.8030311405e-10 
          3.7680969456e-12 -1.8517132272e-11 -4.8615778070e-11 
          1.0602718703e-10 -3.5309172253e-10 4.4536596633e-11 
          -5.1439608129e-10 -1.4092543799e-09 6.7184569019e-10 
          -2.3461899090e-10 -9.2779167682e-10 6.6566241408e-10 
          -3.3224090146e-10 -4.4280740186e-10 8.1303852539e-12 
          4.4534309573e-10 -1.4865499387e-09 -1.2227416857e-09 
          -2.2667061561e-09 8.0767370569e-09 7.3940875644e-10 
          7.0955108455e-10 2.5609603327e-09 8.5129880922e-10 
          2.9274982438e-10 6.9145048021e-10 4.2818637525e-11 
          6.2370331122e-10 -3.5651872843e-09 -1.3948968647e-09 
          1.1908030118e-10 -2.6851443291e-10 -1.2561318652e-10 
          1.4845613627e-10 -9.3127114050e-10 -6.0247251632e-11 
          9.4994678790e-11 3.2465546917e-10 -9.2362895110e-11 
          -1.6841523731e-09 -6.4522372167e-09 1.9716452915e-09 
          -1.0964940067e-10 2.1472382206e-10 5.4071191968e-11 
          1.3304557456e-10 -2.7684840531e-10 1.6436507710e-10 
          1.1129781541e-09 -3.4722320436e-09 -1.7900791960e-11 
          -4.1550318741e-11 -4.7335577819e-10 -4.3190451215e-11 
          4.0482661667e-10 1.3703362334e-09 -2.1740165224e-11 
          1.9936674533e-10 -8.4109860743e-10 -2.9748759012e-11 
          -1.2987211306e-10 9.6543328887e-12 1.7645884753e-12 
          -8.0713880024e-11 6.5351388190e-10 -1.1288636692e-11 
          1.6663337377e-10 8.6108557090e-10 5.2636894843e-11 
          -7.5326189730e-11 -5.0211895058e-10 1.6436774164e-10 
          -2.6692470456e-10 -8.8286487843e-10 -2.3365753776e-11 
          -1.3382961406e-10 -4.8617082582e-12 2.5506485812e-11 
          3.6237679524e-11 -1.9502344184e-11 6.9680039516e-11 
          -3.7802738717e-10 -4.9362655630e-10 -3.2112645876e-11 
          3.4497893431e-10 2.2767168706e-10 -1.7677637132e-11 
          -6.3955507557e-12 1.5697909639e-10 2.3179191899e-10 
          2.4288127065e-11 9.3896057596e-11 2.4704349677e-11 
          -2.0686874436e-10 1.0712977727e-10 -2.4095893336e-10 
          -6.8938804665e-10 -7.3138502199e-11 -6.9764911903e-10 
          1.0136290141e-09 -3.8468467994e-10 7.0020327037e-10 
          -9.6272323447e-11 3.4760475054e-10 1.4704758244e-10 
          -4.3040904174e-11 1.1543610512e-10 6.9692726590e-10 
          -3.8767211663e-11 6.6280608779e-10 5.2235646364e-10 
          3.4462432907e-12 3.1068064787e-10 -2.4719154501e-10 
          -2.1618934420e-10 -1.2498363455e-11 1.6323381535e-10 
          -7.2105438287e-10 -3.9218517323e-11 7.7995859771e-10 
          2.0210955687e-09 5.8666155267e-11 -3.5851496771e-10 
          2.2404189615e-11 5.5358673201e-10 -2.9472618790e-11 
          1.6549206450e-11 -3.4735492260e-11 2.8318736245e-12 
          3.2928104687e-12 -2.9703162152e-10 1.9473195279e-10 
          -2.3400812954e-09 -1.9000304108e-10 -2.8137673858e-09 
          2.7004481984e-10 -1.1664280652e-12 -1.4553523664e-10 
          5.9510696371e-10 2.4202223559e-11 3.9427844323e-10 
          6.2405192125e-11 -8.6461054982e-10 -6.8179567547e-10 
          -3.8498204624e-11 -1.6480972143e-10 -1.2459916432e-10 
          -3.3535840771e-11 8.2737633411e-10 -3.6040931350e-10 
          -4.3053449694e-11 -2.4192620129e-11 -4.3817005579e-11 
          8.0526002533e-10 -4.9312116890e-11 3.6650826818e-10 
          -2.9996496398e-09 9.9828624534e-11 -2.1628130120e-09 
          1.9676482665e-11 -1.4381595914e-10 1.4427964379e-10 
          8.1989970369e-12 9.0949942022e-11 2.5530494385e-10 
          1.1107337272e-11 -3.6565528383e-11 8.8083984551e-12 
          -3.0144219898e-09 -8.7996249176e-11 -1.6521393698e-09 
          -1.4041822705e-09 3.2605820821e-11 4.2857403737e-10 
          1.3104012320e-09 9.3861689254e-11 8.5061481470e-10 
        </DataArray>
        <DataArray type="Float64" Name="UnbalancedLoad" NumberOfComponents="3" format="ascii">
          0.0000000000e+00 0.0000000000e+00 -9.3431816177e+02 
          0.0000000000e+00 0.0000000000e+00 -9.5739641485e+02 
          0.0000000000e+00 0.0000000000e+00 -9.3428177749e+02 
          0.0000000000e+00 0.0000000000e+00 -1.5085564081e+03 
          0.0000000000e+00 0.0000000000e+00 -1.5085334250e+03 
          0.0000000000e+00 0.0000000000e+00 -1.0207452183e+03 
          0.0000000000e+00 0.0000000000e+00 -1.0208827892e+03 
          0.0000000000e+00 0.0000000000e+00 -7.6375472009e+02 
          0.0000000000e+00 0.0000000000e+00 -7.6386930874e+02 
          0.0000000000e+00 0.0000000000e+00 -9.5736002975e+02 
          0.0000000000e+00 0.0000000000e+00 -9.3431816177e+02 
          0.0000000000e+00 0.0000000000e+00 -1.5085564081e+03 
          0.0000000000e+00 0.0000000000e+00 -1.0208827892e+03 
          0.0000000000e+00 0.0000000000e+00 -1.0208827892e+03 
          0.0000000000e+00 0.0000000000e+00 -7.6386930874e+02 
          0.0000000000e+00 0.0000000000e+00 -9.5736002975e+02 
          0.0000000000e+00 0.0000000000e+00 -9.3431816177e+02 
          0.0000000000e+00 0.0000000000e+00 -1.5085564081e+03 
          0.0000000000e+00 0.0000000000e+00 -1.0208827892e+03 
          0.0000000000e+00 0.0000000000e+00 -1.0208827892e+03 
          0.0000000000e+00 0.0000000000e+00 -7.6386930874e+02 
          0.0000000000e+00 0.0000000000e+00 -9.5736002975e+02 
          0.0000000000e+00 0.0000000000e+00 -1.0208827892e+03 
          0.0000000000e+00 0.0000000000e+00 -1.0208827892e+03 
          0.0000000000e+00 0.0000000000e+00 -5.0890641111e+02 
          0.0000000000e+00 0.0000000000e+00 -5.0890641111e+02 
          0.0000000000e+00 0.0000000000e+00 -4.5965147224e+02 
          0.0000000000e+00 0.0000000000e+00 -4.5965147224e+02 
          0.0000000000e+00 0.0000000000e+00 -3.7838224383e+02 
          0.0000000000e+00 0.0000000000e+00 -3.7838224383e+02 
          0.0000000000e+00 0.0000000000e+00 -5.0890641111e+02 
          0.0000000000e+00 0.0000000000e+00 -4.5965147224e+02 
          0.0000000000e+00 0.0000000000e+00 -3.7838224383e+02 
          0.0000000000e+00 0.0000000000e+00 -5.0890641111e+02 
          0.0000000000e+00 0.0000000000e+00 -4.5965147224e+02 
          0.0000000000e+00 0.0000000000e+00 -3.7838224383e+02 
          0.0000000000e+00 0.0000000000e+00 -3.0469009641e+02 
          0.0000000000e+00 0.0000000000e+00 -3.0469009641e+02 
          0.0000000000e+00 0.0000000000e+00 -2.7567274864e+02 
          0.0000000000e+00 0.0000000000e+00 -2.7567274864e+02 
          0.0000000000e+00 0.0000000000e+00 -3.7565428787e+02 
          0.0000000000e+00 0.0000000000e+00 -3.7565428787e+02 
          0.0000000000e+00 0.0000000000e+00 -3.0469009641e+02 
          0.0000000000e+00 0.0000000000e+00 -2.7567274864e+02 
          0.0000000000e+00 0.0000000000e+00 -3.7565428787e+02 
          0.0000000000e+00 0.0000000000e+00 -3.0469009641e+02 
          0.0000000000e+00 0.0000000000e+00 -2.7567274864e+02 
          0.0000000000e+00 0.0000000000e+00 -3.7565428787e+02 
          0.0000000000e+00 0.0000000000e+00 -1.7327695299e+02 
          0.0000000000e+00 0.0000000000e+00 -1.7327695299e+02 
          0.0000000000e+00 0.0000000000e+00 -2.1664934963e+02 
          0.0000000000e+00 0.0000000000e+00 -1.7778192028e+02 
          0.0000000000e+00 0.0000000000e+00 -1.7778192028e+02 
          0.0000000000e+00 0.0000000000e+00 -9.8830449814e+01 
          0.0000000000e+00 0.0000000000e+00 -1.3324485435e+02 
          0.0000000000e+00 0.0000000000e+00 -1.3324485435e+02 
          0.0000000000e+00 0.0000000000e+00 -3.5407391026e+02 
          0.0000000000e+00 0.0000000000e+00 -3.5407391026e+02 
          0.0000000000e+00 0.0000000000e+00 -1.7661725099e+02 
          0.0000000000e+00 0.0000000000e+00 -3.2439616719e+02 
          0.0000000000e+00 0.0000000000e+00 -3.2439616719e+02 
          0.0000000000e+00 0.0000000000e+00 -1.7778192028e+02 
          0.0000000000e+00 0.0000000000e+00 -1.7778192028e+02 
          0.0000000000e+00 0.0000000000e+00 -9.8830449814e+01 
          0.0000000000e+00 0.0000000000e+00 -3.3875007904e+02 
          0.0000000000e+00 0.0000000000e+00 -3.3875007904e+02 
          0.0000000000e+00 0.0000000000e+00 -1.7327695299e+02 
          0.0000000000e+00 0.0000000000e+00 -3.2439616719e+02 
          0.0000000000e+00 0.0000000000e+00 -2.1664934963e+02 
          0.0000000000e+00 0.0000000000e+00 -1.3324485435e+02 
          0.0000000000e+00 0.0000000000e+00 -3.5407391026e+02 
          0.0000000000e+00 0.0000000000e+00 -1.7778192028e+02 
          0.0000000000e+00 0.0000000000e+00 -9.8830449814e+01 
          0.0000000000e+00 0.0000000000e+00 -1.7661725099e+02 
          0.0000000000e+00 0.0000000000e+00 -1.7778192028e+02 
          0.0000000000e+00 0.0000000000e+00 -9.8830449814e+01 
          0.0000000000e+00 0.0000000000e+00 -3.3875007904e+02 
          0.0000000000e+00 0.0000000000e+00 -9.4021184165e+01 
          0.0000000000e+00 0.0000000000e+00 -1.1361499670e+02 
          0.0000000000e+00 0.0000000000e+00 -1.1361499670e+02 
          0.0000000000e+00 0.0000000000e+00 -1.7327695299e+02 
          0.0000000000e+00 0.0000000000e+00 -3.2439616719e+02 
          0.0000000000e+00 0.0000000000e+00 -2.1664934963e+02 
          0.0000000000e+00 0.0000000000e+00 -1.3324485435e+02 
          0.0000000000e+00 0.0000000000e+00 -3.5407391026e+02 
          0.0000000000e+00 0.0000000000e+00 -1.7778192028e+02 
          0.0000000000e+00 0.0000000000e+00 -9.8830449814e+01 
          0.0000000000e+00 0.0000000000e+00 -1.7661725099e+02 
          0.0000000000e+00 0.0000000000e+00 -1.7778192028e+02 
          0.0000000000e+00 0.0000000000e+00 -9.8830449814e+01 
          0.0000000000e+00 0.0000000000e+00 -3.3875007904e+02 
          0.0000000000e+00 0.0000000000e+00 -2.1664934963e+02 
          0.0000000000e+00 0.0000000000e+00 -9.8830449814e+01 
          0.0000000000e+00 0.0000000000e+00 -1.7661725099e+02 
          0.0000000000e+00 0.0000000000e+00 -9.8830449814e+01 
          0.0000000000e+00 0.0000000000e+00 -9.4021184165e+01 
          0.0000000000e+00 0.0000000000e+00 -1.1361499670e+02 
          0.0000000000e+00 0.0000000000e+00 -1.1361499670e+02 
          0.0000000000e+00 0.0000000000e+00 -1.4689917585e+02 
          0.0000000000e+00 0.0000000000e+00 -1.4690025585e+02 
          0.0000000000e+00 0.0000000000e+00 -1.0427317665e+02 
          0.0000000000e+00 0.0000000000e+00 -1.4689917585e+02 
          0.0000000000e+00 0.0000000000e+00 -1.4690025585e+02 
          0.0000000000e+00 0.0000000000e+00 -1.0427317665e+02 
          0.0000000000e+00 0.0000000000e+00 -1.4690025585e+02 
          0.0000000000e+00 0.0000000000e+00 -1.0427317665e+02 
          0.0000000000e+00 0.0000000000e+00 -1.4690025585e+02 
          0.0000000000e+00 0.0000000000e+00 -1.0427317665e+02 
          0.0000000000e+00 0.0000000000e+00 -1.4689917585e+02 
          0.0000000000e+00 0.0000000000e+00 -1.4690025585e+02 
          0.0000000000e+00 0.0000000000e+00 -1.0427317665e+02 
          0.0000000000e+00 0.0000000000e+00 -1.4689917585e+02 
          0.0000000000e+00 0.0000000000e+00 -1.4690025585e+02 
          0.0000000000e+00 0.0000000000e+00 -1.0427317665e+02 
          0.0000000000e+00 0.0000000000e+00 -1.4690025585e+02 
          0.0000000000e+00 0.0000000000e+00 -1.0427317665e+02 
          0.0000000000e+00 0.0000000000e+00 -1.4690025585e+02 
          0.0000000000e+00 0.0000000000e+00 -1.0427317665e+02 
          0.0000000000e+00 0.0000000000e+00 -1.4689917585e+02 
          0.0000000000e+00 0.0000000000e+00 -1.4690025585e+02 
          0.0000000000e+00 0.0000000000e+00 -1.0427317665e+02 
          0.0000000000e+00 0.0000000000e+00 -1.4689917585e+02 
          0.0000000000e+00 0.0000000000e+00 -1.4690025585e+02 
          0.0000000000e+00 0.0000000000e+00 -1.0427317665e+02 
          0.0000000000e+00 0.0000000000e+00 -1.4690025585e+02 
          0.0000000000e+00 0.0000000000e+00 -1.0427317665e+02 
          0.0000000000e+00 0.0000000000e+00 -1.4690025585e+02 
          0.0000000000e+00 0.0000000000e+00 -1.0427317665e+02 
          0.0000000000e+00 0.0000000000e+00 -9.4245186195e+01 
          0.0000000000e+00 0.0000000000e+00 -9.4245186195e+01 
          0.0000000000e+00 0.0000000000e+00 -2.5763057978e+01 
          0.0000000000e+00 0.0000000000e+00 -2.5763057978e+01 
          0.0000000000e+00 0.0000000000e+00 -2.5763057978e+01 
          0.0000000000e+00 0.0000000000e+00 -2.5763057978e+01 
          0.0000000000e+00 0.0000000000e+00 -1.2535696535e+02 
          0.0000000000e+00 0.0000000000e+00 -1.1323354606e+02 
          0.0000000000e+00 0.0000000000e+00 -1.0208526875e+02 
          0.0000000000e+00 0.0000000000e+00 -1.2535696535e+02 
          0.0000000000e+00 0.0000000000e+00 -1.1323354606e+02 
          0.0000000000e+00 0.0000000000e+00 -1.0208526875e+02 
          0.0000000000e+00 0.0000000000e+00 -1.2535696535e+02 
          0.0000000000e+00 0.0000000000e+00 -1.1323354606e+02 
          0.0000000000e+00 0.0000000000e+00 -1.0208526875e+02 
          0.0000000000e+00 0.0000000000e+00 -1.2535696535e+02 
          0.0000000000e+00 0.0000000000e+00 -1.1323354606e+02 
          0.0000000000e+00 0.0000000000e+00 -1.0208526875e+02 
          0.0000000000e+00 0.0000000000e+00 -9.2051268469e+01 
          0.0000000000e+00 0.0000000000e+00 -8.2847673658e+01 
          0.0000000000e+00 0.0000000000e+00 -7.5097572125e+01 
          0.0000000000e+00 0.0000000000e+00 -9.2051268469e+01 
          0.0000000000e+00 0.0000000000e+00 -8.2847673658e+01 
          0.0000000000e+00 0.0000000000e+00 -7.5097572125e+01 
          0.0000000000e+00 0.0000000000e+00 -9.2051268469e+01 
          0.0000000000e+00 0.0000000000e+00 -8.2847673658e+01 
          0.0000000000e+00 0.0000000000e+00 -7.5097572125e+01 
          0.0000000000e+00 0.0000000000e+00 -9.2051268469e+01 
          0.0000000000e+00 0.0000000000e+00 -8.2847673658e+01 
          0.0000000000e+00 0.0000000000e+00 -7.5097572125e+01 
        </DataArray>
      </PointData>
      <CellData>
        <DataArray type="Int64" Name="ElementTag" format="ascii">
          0
        </DataArray>
      </CellData>
    </Piece>
  </UnstructuredGrid>
</VTKFile>
