<?xml version="1.0"?>
<VTKFile type="UnstructuredGrid" version="1.0" byte_order="LittleEndian" compressor="vtkZLibDataCompressor">
  <UnstructuredGrid>
    <Piece NumberOfPoints="158" NumberOfCells="1">
      <Points>
        <DataArray type="Float64" Name="Points" NumberOfComponents="3" format="ascii">
          1.7550000000e+00 -1.7550000000e+00 0.0000000000e+00 
          1.4140000000e+00 0.0000000000e+00 5.2300000000e+00 
          1.7550000000e+00 1.7550000000e+00 -0.0000000000e+00 
          1.4140000000e+00 -1.4140000000e+00 5.2300000000e+00 
          1.4140000000e+00 1.4140000000e+00 5.2300000000e+00 
          1.5840000000e+00 8.7800000000e-01 2.6150000000e+00 
          1.5840000000e+00 -8.7700000000e-01 2.6150000000e+00 
          1.5840000000e+00 1.5840000000e+00 2.6150000000e+00 
          1.5840000000e+00 -1.5840000000e+00 2.6150000000e+00 
          -0.0000000000e+00 1.4140000000e+00 5.2300000000e+00 
          -1.7550000000e+00 1.7550000000e+00 -0.0000000000e+00 
          -1.4140000000e+00 1.4140000000e+00 5.2300000000e+00 
          -8.7700000000e-01 1.5840000000e+00 2.6150000000e+00 
          8.7700000000e-01 1.5840000000e+00 2.6150000000e+00 
          -1.5840000000e+00 1.5840000000e+00 2.6150000000e+00 
          -1.4140000000e+00 -0.0000000000e+00 5.2300000000e+00 
          -1.7550000000e+00 -1.7550000000e+00 -0.0000000000e+00 
          -1.4140000000e+00 -1.4140000000e+00 5.2300000000e+00 
          -1.5840000000e+00 -8.7700000000e-01 2.6150000000e+00 
          -1.5840000000e+00 8.7700000000e-01 2.6150000000e+00 
          -1.5840000000e+00 -1.5840000000e+00 2.6150000000e+00 
          0.0000000000e+00 -1.4140000000e+00 5.2300000000e+00 
          8.7700000000e-01 -1.5840000000e+00 2.6150000000e+00 
          -8.7700000000e-01 -1.5840000000e+00 2.6150000000e+00 
          1.2750000000e+00 1.2750000000e+00 7.3500000000e+00 
          1.2750000000e+00 -1.2750000000e+00 7.3500000000e+00 
          1.1500000000e+00 -1.1500000000e+00 9.2700000000e+00 
          1.1500000000e+00 1.1500000000e+00 9.2700000000e+00 
          1.0370000000e+00 -1.0370000000e+00 1.1000000000e+01 
          1.0370000000e+00 1.0370000000e+00 1.1000000000e+01 
          -1.2750000000e+00 1.2750000000e+00 7.3500000000e+00 
          -1.1500000000e+00 1.1500000000e+00 9.2700000000e+00 
          -1.0370000000e+00 1.0370000000e+00 1.1000000000e+01 
          -1.2750000000e+00 -1.2750000000e+00 7.3500000000e+00 
          -1.1500000000e+00 -1.1500000000e+00 9.2700000000e+00 
          -1.0370000000e+00 -1.0370000000e+00 1.1000000000e+01 
          9.3500000000e-01 9.3500000000e-01 1.2560000000e+01 
          9.3500000000e-01 -9.3500000000e-01 1.2560000000e+01 
          8.4300000000e-01 8.4300000000e-01 1.3960000000e+01 
          8.4300000000e-01 -8.4300000000e-01 1.3960000000e+01 
          7.6000000000e-01 7.6000000000e-01 1.5240000000e+01 
          7.6000000000e-01 -7.6000000000e-01 1.5240000000e+01 
          -9.3500000000e-01 9.3500000000e-01 1.2560000000e+01 
          -8.4300000000e-01 8.4300000000e-01 1.3960000000e+01 
          -7.6000000000e-01 7.6000000000e-01 1.5240000000e+01 
          -9.3500000000e-01 -9.3500000000e-01 1.2560000000e+01 
          -8.4300000000e-01 -8.4300000000e-01 1.3960000000e+01 
          -7.6000000000e-01 -7.6000000000e-01 1.5240000000e+01 
          7.6000000000e-01 -7.6000000000e-01 1.6240000000e+01 
          7.6000000000e-01 7.6000000000e-01 1.6240000000e+01 
          7.6000000000e-01 0.0000000000e+00 1.6240000000e+01 
          7.6000000000e-01 7.6000000000e-01 1.7340000000e+01 
          7.6000000000e-01 -7.6000000000e-01 1.7340000000e+01 
          7.6000000000e-01 0.0000000000e+00 1.7890000000e+01 
          7.6000000000e-01 -7.6000000000e-01 1.9440000000e+01 
          7.6000000000e-01 7.6000000000e-01 1.9440000000e+01 
          7.6000000000e-01 -7.6000000000e-01 2.1640000000e+01 
          7.6000000000e-01 7.6000000000e-01 2.1640000000e+01 
          7.6000000000e-01 0.0000000000e+00 1.9440000000e+01 
          7.6000000000e-01 7.6000000000e-01 1.8440000000e+01 
          7.6000000000e-01 -7.6000000000e-01 1.8440000000e+01 
          7.6000000000e-01 -7.6000000000e-01 2.0540000000e+01 
          7.6000000000e-01 7.6000000000e-01 2.0540000000e+01 
          7.6000000000e-01 0.0000000000e+00 2.1090000000e+01 
          7.6000000000e-01 7.6000000000e-01 2.2640000000e+01 
          7.6000000000e-01 -7.6000000000e-01 2.2640000000e+01 
          -7.6000000000e-01 7.6000000000e-01 1.6240000000e+01 
          -7.6000000000e-01 7.6000000000e-01 1.8440000000e+01 
          -0.0000000000e+00 7.6000000000e-01 1.6240000000e+01 
          -7.6000000000e-01 7.6000000000e-01 1.9440000000e+01 
          -7.6000000000e-01 7.6000000000e-01 2.1640000000e+01 
          -7.6000000000e-01 7.6000000000e-01 1.7340000000e+01 
          -0.0000000000e+00 7.6000000000e-01 1.7890000000e+01 
          -0.0000000000e+00 7.6000000000e-01 1.9440000000e+01 
          -7.6000000000e-01 7.6000000000e-01 2.0540000000e+01 
          0.0000000000e+00 7.6000000000e-01 2.1090000000e+01 
          -7.6000000000e-01 7.6000000000e-01 2.2640000000e+01 
          -0.0000000000e+00 5.2600000000e-01 2.3499000000e+01 
          3.9900000000e-01 4.0400000000e-01 2.3950000000e+01 
          -3.9900000000e-01 4.0400000000e-01 2.3950000000e+01 
          -7.6000000000e-01 -7.6000000000e-01 1.6240000000e+01 
          -7.6000000000e-01 -7.6000000000e-01 1.8440000000e+01 
          -7.6000000000e-01 -0.0000000000e+00 1.6240000000e+01 
          -7.6000000000e-01 -7.6000000000e-01 1.9440000000e+01 
          -7.6000000000e-01 -7.6000000000e-01 2.1640000000e+01 
          -7.6000000000e-01 -7.6000000000e-01 1.7340000000e+01 
          -7.6000000000e-01 0.0000000000e+00 1.7890000000e+01 
          -7.6000000000e-01 -0.0000000000e+00 1.9440000000e+01 
          -7.6000000000e-01 -7.6000000000e-01 2.0540000000e+01 
          -7.6000000000e-01 -0.0000000000e+00 2.1090000000e+01 
          -7.6000000000e-01 -7.6000000000e-01 2.2640000000e+01 
          0.0000000000e+00 -7.6000000000e-01 1.6240000000e+01 
          0.0000000000e+00 -7.6000000000e-01 1.7890000000e+01 
          0.0000000000e+00 -7.6000000000e-01 1.9440000000e+01 
          0.0000000000e+00 -7.6000000000e-01 2.1090000000e+01 
          0.0000000000e+00 -5.2600000000e-01 2.3499000000e+01 
          3.9900000000e-01 -4.0400000000e-01 2.3950000000e+01 
          -3.9900000000e-01 -4.0400000000e-01 2.3950000000e+01 
          -0.0000000000e+00 -3.3500000000e+00 2.1640000000e+01 
          -3.8000000000e-01 -2.0550000000e+00 2.2140000000e+01 
          -3.8000000000e-01 -2.0550000000e+00 2.1640000000e+01 
          0.0000000000e+00 3.3500000000e+00 2.1640000000e+01 
          -3.8000000000e-01 2.0550000000e+00 2.2140000000e+01 
          -3.8000000000e-01 2.0550000000e+00 2.1640000000e+01 
          3.8000000000e-01 2.0550000000e+00 2.2140000000e+01 
          3.8000000000e-01 2.0550000000e+00 2.1640000000e+01 
          3.8000000000e-01 -2.0550000000e+00 2.2140000000e+01 
          3.8000000000e-01 -2.0550000000e+00 2.1640000000e+01 
          -0.0000000000e+00 -3.3500000000e+00 1.8440000000e+01 
          -3.8000000000e-01 -2.0550000000e+00 1.8940000000e+01 
          -3.8000000000e-01 -2.0550000000e+00 1.8440000000e+01 
          -0.0000000000e+00 3.3500000000e+00 1.8440000000e+01 
          -3.8000000000e-01 2.0550000000e+00 1.8940000000e+01 
          -3.8000000000e-01 2.0550000000e+00 1.8440000000e+01 
          3.8000000000e-01 2.0550000000e+00 1.8940000000e+01 
          3.8000000000e-01 2.0550000000e+00 1.8440000000e+01 
          3.8000000000e-01 -2.0550000000e+00 1.8940000000e+01 
          3.8000000000e-01 -2.0550000000e+00 1.8440000000e+01 
          -0.0000000000e+00 -3.3500000000e+00 1.5240000000e+01 
          -3.8000000000e-01 -2.0550000000e+00 1.5740000000e+01 
          -3.8000000000e-01 -2.0550000000e+00 1.5240000000e+01 
          -0.0000000000e+00 3.3500000000e+00 1.5240000000e+01 
          -3.8000000000e-01 2.0550000000e+00 1.5740000000e+01 
          -3.8000000000e-01 2.0550000000e+00 1.5240000000e+01 
          3.8000000000e-01 2.0550000000e+00 1.5740000000e+01 
          3.8000000000e-01 2.0550000000e+00 1.5240000000e+01 
          3.8000000000e-01 -2.0550000000e+00 1.5740000000e+01 
          3.8000000000e-01 -2.0550000000e+00 1.5240000000e+01 
          -5.2400000000e-01 0.0000000000e+00 2.3496000000e+01 
          5.2400000000e-01 0.0000000000e+00 2.3496000000e+01 
          4.0000000000e-02 5.0000000000e-02 2.5250000000e+01 
          -4.0000000000e-02 5.0000000000e-02 2.5250000000e+01 
          -4.0000000000e-02 -5.0000000000e-02 2.5250000000e+01 
          4.0000000000e-02 -5.0000000000e-02 2.5250000000e+01 
          1.3410000000e+00 0.0000000000e+00 6.3450000000e+00 
          1.2090000000e+00 0.0000000000e+00 8.3600000000e+00 
          1.0900000000e+00 -0.0000000000e+00 1.0180000000e+01 
          -0.0000000000e+00 1.3410000000e+00 6.3450000000e+00 
          0.0000000000e+00 1.2090000000e+00 8.3600000000e+00 
          -0.0000000000e+00 1.0900000000e+00 1.0180000000e+01 
          -1.3410000000e+00 0.0000000000e+00 6.3450000000e+00 
          -1.2090000000e+00 0.0000000000e+00 8.3600000000e+00 
          -1.0900000000e+00 -0.0000000000e+00 1.0180000000e+01 
          -0.0000000000e+00 -1.3410000000e+00 6.3450000000e+00 
          0.0000000000e+00 -1.2090000000e+00 8.3600000000e+00 
          0.0000000000e+00 -1.0900000000e+00 1.0180000000e+01 
          9.8300000000e-01 0.0000000000e+00 1.1820000000e+01 
          8.8700000000e-01 0.0000000000e+00 1.3296000000e+01 
          8.0000000000e-01 -0.0000000000e+00 1.4633000000e+01 
          0.0000000000e+00 9.8300000000e-01 1.1820000000e+01 
          -0.0000000000e+00 8.8700000000e-01 1.3296000000e+01 
          0.0000000000e+00 8.0000000000e-01 1.4633000000e+01 
          -9.8300000000e-01 0.0000000000e+00 1.1820000000e+01 
          -8.8700000000e-01 0.0000000000e+00 1.3296000000e+01 
          -8.0000000000e-01 0.0000000000e+00 1.4633000000e+01 
          0.0000000000e+00 -9.8300000000e-01 1.1820000000e+01 
          0.0000000000e+00 -8.8700000000e-01 1.3296000000e+01 
          0.0000000000e+00 -8.0000000000e-01 1.4633000000e+01 
        </DataArray>
      </Points>
      <Cells>
        <DataArray type="Int64" Name="connectivity" format="ascii">
          0
          1
          2
          3
          4
          5
          6
          7
          8
          9
          10
          11
          12
          13
          14
          15
          16
          17
          18
          19
          20
          21
          22
          23
          24
          25
          26
          27
          28
          29
          30
          31
          32
          33
          34
          35
          36
          37
          38
          39
          40
          41
          42
          43
          44
          45
          46
          47
          48
          49
          50
          51
          52
          53
          54
          55
          56
          57
          58
          59
          60
          61
          62
          63
          64
          65
          66
          67
          68
          69
          70
          71
          72
          73
          74
          75
          76
          77
          78
          79
          80
          81
          82
          83
          84
          85
          86
          87
          88
          89
          90
          91
          92
          93
          94
          95
          96
          97
          98
          99
          100
          101
          102
          103
          104
          105
          106
          107
          108
          109
          110
          111
          112
          113
          114
          115
          116
          117
          118
          119
          120
          121
          122
          123
          124
          125
          126
          127
          128
          129
          130
          131
          132
          133
          134
          135
          136
          137
          138
          139
          140
          141
          142
          143
          144
          145
          146
          147
          148
          149
          150
          151
          152
          153
          154
          155
          156
          157
        </DataArray>
        <DataArray type="Int64" Name="offsets" format="ascii">
          158
        </DataArray>
        <DataArray type="Int64" Name="types" format="ascii">
          2
        </DataArray>
      </Cells>
      <PointData>
        <DataArray type="Int64" Name="NodeTag" format="ascii">
          1
          2
          3
          4
          5
          6
          7
          8
          9
          10
          11
          12
          13
          14
          15
          16
          17
          18
          19
          20
          21
          22
          23
          24
          25
          26
          27
          28
          29
          30
          31
          32
          33
          34
          35
          36
          37
          38
          39
          40
          41
          42
          43
          44
          45
          46
          47
          48
          49
          50
          51
          52
          53
          54
          55
          56
          57
          58
          59
          60
          61
          62
          63
          64
          65
          66
          67
          68
          69
          70
          71
          72
          73
          74
          75
          76
          77
          78
          79
          80
          81
          82
          83
          84
          85
          86
          87
          88
          89
          90
          91
          92
          93
          94
          95
          96
          97
          98
          99
          100
          101
          102
          103
          104
          105
          106
          107
          108
          109
          110
          111
          112
          113
          114
          115
          116
          117
          118
          119
          120
          121
          122
          123
          124
          125
          126
          127
          128
          129
          130
          131
          132
          133
          134
          135
          136
          137
          138
          139
          140
          141
          142
          143
          144
          145
          146
          147
          148
          149
          150
          151
          152
          153
          154
          155
          156
          157
          158
        </DataArray>
        <DataArray type="Float64" Name="Displacement" NumberOfComponents="3" format="ascii">
          0.0000000000e+00 0.0000000000e+00 0.0000000000e+00 
          -2.8461544138e-05 5.5712496459e-05 -1.2071188811e-05 
          0.0000000000e+00 0.0000000000e+00 0.0000000000e+00 
          5.1177971466e-05 5.7595399348e-05 -7.0587660186e-05 
          -5.2285070145e-05 5.6658515331e-05 -7.5574248705e-05 
          -1.2954505388e-04 -8.0280923063e-05 -5.2482734214e-05 
          -9.8748321793e-05 1.6310725037e-04 -5.9116825685e-05 
          -1.6856619371e-04 -8.0028679430e-05 -5.5823757695e-05 
          -7.4685740092e-05 1.6300669564e-04 -5.2268732375e-05 
          -5.0522170533e-05 -2.8547258164e-05 -1.2054609911e-05 
          0.0000000000e+00 0.0000000000e+00 0.0000000000e+00 
          -5.1346802084e-05 -5.8179969727e-05 -7.0063102969e-05 
          7.3879943869e-05 -1.2447169864e-04 -4.8933604927e-05 
          -1.6868446989e-04 -1.0304362865e-04 -6.2246244475e-05 
          7.3659157662e-05 -1.6246959099e-04 -5.1892009751e-05 
          2.8380052955e-05 -5.6286302379e-05 -1.2116758307e-05 
          0.0000000000e+00 0.0000000000e+00 0.0000000000e+00 
          5.2109980474e-05 -5.7239426601e-05 -7.6599067353e-05 
          1.3040774618e-04 8.1584500572e-05 -5.3109330937e-05 
          9.8548805413e-05 -1.6256853163e-04 -5.8842244479e-05 
          1.7024513973e-04 8.1327047058e-05 -5.6553496639e-05 
          5.0354302668e-05 2.8366527462e-05 -1.2089159161e-05 
          -7.4909488410e-05 1.2566189629e-04 -4.9368239220e-05 
          1.7036615870e-04 1.0472463316e-04 -6.2992084577e-05 
          -5.5009821545e-05 1.0884743121e-04 -1.0007476465e-04 
          8.9253155119e-05 7.3711163229e-05 -9.4075988999e-05 
          8.8442177740e-05 1.2236299627e-04 -1.1818427868e-04 
          -8.7079017337e-05 1.2455622650e-04 -1.2385912782e-04 
          1.0824763390e-04 1.4152043288e-04 -1.3508950622e-04 
          -9.0271124270e-05 1.6273099912e-04 -1.3945516933e-04 
          -8.9705118326e-05 -7.5857848623e-05 -9.3335204311e-05 
          -8.9765092838e-05 -1.2685559416e-04 -1.1727274622e-04 
          -1.1030149032e-04 -1.4813544647e-04 -1.3405303024e-04 
          5.4005419606e-05 -1.1125820031e-04 -1.0148929704e-04 
          8.5589759882e-05 -1.2888843606e-04 -1.2559591921e-04 
          8.8005473024e-05 -1.6975129615e-04 -1.4136683391e-04 
          -1.0495680791e-04 1.8168116182e-04 -1.5805861553e-04 
          1.1161945452e-04 1.7397120819e-04 -1.5575886890e-04 
          -1.0892588885e-04 2.0826619682e-04 -1.7174534468e-04 
          1.1997695603e-04 1.8972659514e-04 -1.7233861806e-04 
          -1.2012835139e-04 2.1371116300e-04 -1.8380519468e-04 
          1.1890486066e-04 2.1675693368e-04 -1.8774829546e-04 
          -1.1438226799e-04 -1.8367538140e-04 -1.5462107789e-04 
          -1.2383611667e-04 -2.0172129045e-04 -1.7108365668e-04 
          -1.2338072267e-04 -2.3229074897e-04 -1.8653371370e-04 
          1.0177364482e-04 -1.9097976033e-04 -1.6019317046e-04 
          1.0514284163e-04 -2.2088762188e-04 -1.7398025976e-04 
          1.1526369530e-04 -2.2906111888e-04 -1.8608841587e-04 
          1.3356251750e-04 2.2227780863e-04 -2.0484992098e-04 
          -1.4023483945e-04 2.2511447212e-04 -1.9863247320e-04 
          -5.6266594307e-06 2.2436779705e-04 -1.9239218159e-04 
          -1.4124043304e-04 2.6628174968e-04 -2.1279419654e-04 
          1.7891184889e-04 2.1440236669e-04 -2.2016846381e-04 
          -4.1164040789e-06 2.4453100524e-04 -2.4830679927e-04 
          1.8811530997e-04 2.4581576927e-04 -2.5600882385e-04 
          -1.9849611549e-04 2.5122188193e-04 -2.4235126143e-04 
          2.2793451245e-04 2.4706783102e-04 -2.7881248096e-04 
          -2.3876687695e-04 2.4067596165e-04 -2.5968507625e-04 
          -1.8078467538e-05 2.4886197269e-04 -2.4243501561e-04 
          -1.8049089126e-04 2.4448564374e-04 -2.3429810530e-04 
          1.7364491543e-04 2.5026125064e-04 -2.4524488146e-04 
          2.2282855390e-04 2.3381071251e-04 -2.6530406646e-04 
          -2.0905034102e-04 2.6539610967e-04 -2.4880047929e-04 
          3.6585303233e-06 2.4717897176e-04 -2.7666394522e-04 
          -2.5565706236e-04 2.3908004903e-04 -2.6309332262e-04 
          2.4448799461e-04 2.3141188160e-04 -2.8440905247e-04 
          -1.3943891132e-04 -2.4028287073e-04 -2.0341297773e-04 
          -1.8143475785e-04 -2.7593991677e-04 -2.4330654437e-04 
          -1.3980819814e-04 -2.2771755646e-06 -1.9430082195e-04 
          -1.9687347239e-04 -2.7501975226e-04 -2.5400203024e-04 
          -2.3924984900e-04 -2.8528177647e-04 -2.7632501368e-04 
          -1.8532950254e-04 -2.3572892767e-04 -2.1850754753e-04 
          -1.7157182671e-04 2.9001717639e-06 -2.4245785200e-04 
          -1.9764481937e-04 6.0790761526e-07 -2.4422606007e-04 
          -2.3249245993e-04 -2.6746838044e-04 -2.6310103880e-04 
          -2.2952124777e-04 -1.9307549350e-05 -2.7025085512e-04 
          -2.5654819034e-04 -2.7435975566e-04 -2.8186874895e-04 
          -1.9014537575e-04 -6.9483946484e-06 -2.7183312998e-04 
          -1.5734300791e-04 9.8044787371e-05 -2.7423055982e-04 
          -1.5533399138e-04 -1.4735618377e-04 -2.7839952276e-04 
          1.3440339685e-04 -2.4310714509e-04 -2.0119908978e-04 
          1.7252405190e-04 -2.6995482529e-04 -2.3767611644e-04 
          -1.5493066282e-06 -2.4236527704e-04 -1.9283406794e-04 
          1.8958627345e-04 -2.8024755364e-04 -2.4589819102e-04 
          2.2750740536e-04 -2.7900980409e-04 -2.6369712874e-04 
          1.3407649971e-04 -2.8825863208e-04 -2.1581601388e-04 
          -1.4406678311e-05 -2.6801064850e-04 -2.4934127056e-04 
          -4.7571457038e-06 -2.7802944606e-04 -2.4309877442e-04 
          1.9815409264e-04 -2.9922629446e-04 -2.5260427013e-04 
          4.5473560853e-06 -2.8309520781e-04 -2.7741034251e-04 
          2.4303194812e-04 -2.8192858992e-04 -2.6714568290e-04 
          1.3400549172e-04 -1.0606483231e-05 -1.9631017500e-04 
          1.6421379830e-04 -3.7613200858e-05 -2.4518648926e-04 
          1.8876408148e-04 -1.2446949281e-05 -2.4694788907e-04 
          2.1869955212e-04 -2.5356916426e-05 -2.7389963948e-04 
          1.7686331211e-04 -5.3910996368e-05 -2.7065612531e-04 
          1.4108745320e-04 9.8919412399e-05 -2.7985637679e-04 
          1.4395034660e-04 -1.4659003639e-04 -2.7644947132e-04 
          1.1197757506e-03 -1.1624820307e-05 -3.3235141435e-04 
          7.0674121385e-04 -1.4520049664e-04 -2.8987229991e-04 
          6.9034170594e-04 -1.4075945391e-04 -2.9021683010e-04 
          -1.1313451229e-03 -2.6587015766e-05 -3.1729338021e-04 
          -6.9557170521e-04 -1.4720147103e-04 -2.9720788054e-04 
          -6.8679554438e-04 -1.5614604141e-04 -2.9754823380e-04 
          -6.9555788750e-04 1.1132437373e-04 -2.8109304266e-04 
          -6.8680902931e-04 1.0690691539e-04 -2.8145657949e-04 
          7.0668085959e-04 1.0007076390e-04 -3.0654767932e-04 
          6.9026010185e-04 1.1353406758e-04 -3.0691177825e-04 
          1.0711197445e-03 -5.4177769218e-06 -3.0385796608e-04 
          6.4363402626e-04 -1.4180756386e-04 -2.7280749533e-04 
          6.5326374642e-04 -1.2873379433e-04 -2.7315566815e-04 
          -1.0791778424e-03 -2.0180169022e-05 -2.9209620503e-04 
          -6.3530589013e-04 -1.4087424220e-04 -2.5844692213e-04 
          -6.4770501796e-04 -1.4353528081e-04 -2.5877617639e-04 
          -6.3533382493e-04 1.1946669918e-04 -2.6485344391e-04 
          -6.4775213804e-04 1.0717365105e-04 -2.6518021240e-04 
          6.4355599672e-04 1.0870983773e-04 -2.6558100871e-04 
          6.5319081098e-04 1.1392564564e-04 -2.6590998566e-04 
          9.0076223335e-04 -1.4370396021e-06 -2.4899829136e-04 
          4.9789946128e-04 -1.2910659892e-04 -2.2790082731e-04 
          5.2039018832e-04 -1.1186407071e-04 -2.2827522659e-04 
          -9.0571798419e-04 -1.4023049930e-05 -2.4057464085e-04 
          -4.9212398414e-04 -1.2424212931e-04 -1.9655269426e-04 
          -5.1289816289e-04 -1.2413495809e-04 -1.9689808849e-04 
          -4.9215853621e-04 1.1566264371e-04 -2.2219398103e-04 
          -5.1291578015e-04 1.0011440251e-04 -2.2255667109e-04 
          4.9782888787e-04 1.0437464027e-04 -2.0170757709e-04 
          5.2035225784e-04 1.0501986111e-04 -2.0205243114e-04 
          -1.4180997423e-05 -1.9357875937e-04 -2.7585382673e-04 
          -4.9950018810e-05 1.4688848720e-04 -2.8933096258e-04 
          -1.9645856656e-04 1.2774214771e-04 -2.7513122570e-04 
          -1.9589279218e-04 -1.7741446942e-04 -2.7776402374e-04 
          1.7841270586e-04 -1.7673652812e-04 -2.7592887101e-04 
          1.7784575234e-04 1.2842215502e-04 -2.8000505845e-04 
          -3.4916538749e-06 7.5452185577e-05 -7.5901912238e-05 
          -1.7543462132e-05 1.0873683139e-04 -1.2227970596e-04 
          -8.5444969522e-06 1.3917924858e-04 -1.2498770478e-04 
          -6.4072580346e-05 -2.6030778329e-06 -7.5648122838e-05 
          -8.2024213096e-05 -2.0823976640e-05 -1.2170941682e-04 
          -9.5605859978e-05 -1.2794865188e-05 -1.2521079386e-04 
          3.1134218021e-06 -7.6762671033e-05 -7.6114431052e-05 
          1.6534435012e-05 -1.1199634735e-04 -1.2279306117e-04 
          6.8899939239e-06 -1.4474003708e-04 -1.2524007977e-04 
          6.3657511028e-05 1.3476829912e-06 -7.6414257892e-05 
          8.0979441700e-05 1.6955952550e-05 -1.2299601007e-04 
          9.3836779404e-05 8.3653780671e-06 -1.2667377619e-04 
          -2.3267312991e-06 1.6643569773e-04 -1.5265172669e-04 
          2.0562881261e-06 1.8999734169e-04 -1.6173431308e-04 
          -4.2427442250e-06 2.0882622706e-04 -1.8665062151e-04 
          -1.0599853790e-04 -7.5997671294e-06 -1.5135233819e-04 
          -1.1385951645e-04 -1.7817058538e-06 -1.6290821845e-04 
          -1.1976698367e-04 -1.0541539881e-05 -1.8294957185e-04 
          -3.8473383091e-07 -1.7453324986e-04 -1.5336961071e-04 
          -6.4097575882e-06 -2.0087062687e-04 -1.6183665072e-04 
          -1.0568260576e-05 -2.2270684909e-04 -1.8673571524e-04 
          1.0344271005e-04 4.8457440986e-07 -1.5290725263e-04 
          1.1047137330e-04 -1.1342879866e-05 -1.6460862674e-04 
          1.1551747902e-04 -1.1259049094e-05 -1.8403671588e-04 
        </DataArray>
        <DataArray type="Float64" Name="Reaction" NumberOfComponents="3" format="ascii">
          -1.2937226452e+03 3.7281910555e+02 1.1937745540e+04 
          3.6974705243e-02 -6.7795504897e-02 1.8281409319e-04 
          -4.7925625755e+02 -1.3994978594e+03 1.2979564657e+04 
          -1.8902359177e-01 -1.0514798656e-01 -9.6103753414e-05 
          1.7522597943e-02 -1.1346458656e-01 3.9903794921e-04 
          -8.4339228186e-02 3.8348639743e-02 -2.2779729018e-04 
          2.5692178909e-01 -4.7773290483e-02 -5.5493338927e-05 
          7.4685387674e-02 2.7972990142e-02 -4.5241784761e-05 
          -7.1182998020e-02 -3.6054008713e-02 8.1567860817e-06 
          8.0196870788e-03 4.5873724665e-02 2.3039123514e-04 
          1.2901727020e+03 -3.6499159996e+02 1.1857852996e+04 
          9.6836823263e-03 -1.6543812356e-01 -4.6758017767e-05 
          -1.2549507153e-01 2.0446551824e-01 -6.2825562002e-05 
          1.0123624280e-01 1.7061778593e-01 -2.7902607454e-04 
          -9.3518757082e-02 2.7126369607e-02 -5.3253760215e-06 
          4.8003674072e-02 -9.3876461666e-02 1.6487159835e-04 
          4.9016710857e+02 1.4117187420e+03 1.3133036802e+04 
          -1.6957093861e-01 -1.5090251280e-01 4.1285332761e-04 
          -1.1648852532e-02 1.1492006729e-01 -2.1411120992e-04 
          -1.2137798412e-01 3.6389367179e-02 -3.3507994126e-05 
          1.0211574038e-01 8.5191889209e-02 -5.7919591070e-05 
          -1.1033902316e-01 1.3906648648e-02 3.2209327308e-04 
          -9.5715914831e-02 2.5286710187e-01 -1.0921574944e-04 
          1.3379943537e-01 4.3970661510e-01 -3.6357667356e-04 
          -3.1558661686e-02 -1.1690199771e-01 1.2584749352e-04 
          -1.5626880258e-01 -9.0301866823e-02 -1.7984734829e-04 
          -1.9567933796e-01 -1.4156966631e-01 -9.0048055611e-05 
          6.7666320708e-02 -1.3167091833e-01 -2.1427156356e-04 
          -1.6219858747e-01 -1.3421750603e-01 4.9130029920e-05 
          4.0891193920e-03 -1.2895899930e-01 4.4073966633e-05 
          7.0108133292e-02 -7.9231812380e-02 -7.0027790043e-05 
          4.2463292676e-02 -1.9903432083e-01 -4.4207575925e-05 
          -7.3186675874e-03 -2.0259342429e-01 -1.3841376104e-04 
          -1.5401511517e-01 -1.4199991862e-01 1.1103592370e-04 
          -1.7613392355e-01 -8.4985944054e-02 -2.1009188846e-04 
          -1.5408023683e-01 -1.0558417506e-01 2.1898696984e-04 
          3.7404471144e-02 -1.4119197202e-01 -1.5049654294e-04 
          -1.2378101844e-01 -1.3133465336e-01 -2.4505377746e-05 
          -1.2919953970e-02 -1.3964616835e-01 -1.1022912343e-04 
          -1.0260738317e-01 -1.3968637080e-01 -2.5339092445e-04 
          1.0198568581e-02 -2.2316894043e-01 7.2393354259e-05 
          -1.4959058606e-01 -2.0993417589e-01 1.1995989369e-04 
          -4.0723948334e-03 -7.9639530723e-02 -1.2531822065e-04 
          3.8122063526e-02 -6.3223513683e-02 -3.4152674726e-04 
          -3.9255172336e-02 -2.0826649829e-01 1.9758885270e-05 
          -1.1584696164e-01 -5.8958569377e-02 -1.0293450966e-04 
          -1.0556421499e-01 -8.5327066667e-02 -1.0154440946e-04 
          -1.5177267452e-01 -1.6552004429e-01 4.6867031216e-05 
          -8.1012542645e-02 -1.1213019432e-01 -3.9869565614e-05 
          2.4509526833e-02 -1.1009215897e-01 -2.9521854651e-04 
          -4.8347154209e-02 -1.3934511724e-01 -3.9168924019e-04 
          -1.0859551335e-02 -1.3870453590e-01 8.0362593987e-04 
          -9.7366090190e-02 -1.3752908545e-01 -7.5058555848e-05 
          9.1246080682e-03 -8.8491050387e-02 -1.6746749652e-04 
          -8.0380041297e-02 -1.9093078200e-01 1.7541674642e-04 
          -2.5776988475e-02 -2.1141260254e-01 1.9896094605e-05 
          -1.4006961475e-01 -6.6275895301e-01 -5.2108479317e-05 
          -1.2103115974e-01 -6.7836144391e-01 -1.5073880776e-04 
          -9.1204402454e-03 -2.6053546878e-01 -2.5619248417e-04 
          -2.4946567054e-02 -3.2637953811e-01 -8.6637314372e-04 
          -2.0437274109e-01 -3.2908258875e-01 -5.1991630036e-04 
          -1.0664604737e-01 -2.9821980356e-01 3.9786114953e-04 
          -2.0373071456e-02 -3.2137177427e-01 5.9832357205e-04 
          -4.3480608030e-02 -1.8377801263e-01 -3.6977487185e-05 
          -1.5992894970e-01 -6.4135868807e-01 -1.3610848077e-04 
          -2.1223116687e-01 -5.9216962870e-01 4.2334896207e-04 
          2.3105382476e-02 -1.0630280017e-01 -3.0932707023e-05 
          -1.6461071772e-02 -2.8872455818e-01 -9.1272492907e-04 
          2.7224177328e-02 -9.3162182805e-02 -3.2564581873e-04 
          -2.6037291842e-02 -1.8703858924e-01 1.8956160334e-04 
          -1.6669320676e-01 -5.7934939240e-01 -3.3251787444e-04 
          1.6339061585e-02 -1.5374743279e-01 -3.1586339376e-04 
          1.1241269192e-05 2.7798563698e-02 -1.6630955068e-05 
          -3.3057199380e-02 -9.0104940773e-01 3.4895871646e-04 
          -2.4993476805e-02 -2.9465181688e-01 -3.6593366967e-05 
          -2.5200346887e-02 -5.2362370763e-02 6.8146938246e-05 
          -1.7228346517e-01 -4.6683120506e-01 -6.6019138273e-05 
          -6.6917317940e-02 -1.8704501846e-01 6.7242511902e-05 
          -7.0854953432e-02 -1.2389080387e-01 1.1098962282e-03 
          -1.0421024744e-01 -1.5682902500e-01 1.2197755807e-03 
          -8.1799587982e-02 -1.0535345282e-01 -2.9606141084e-04 
          -2.0154908771e-01 -3.6317890676e-01 -9.1796062844e-04 
          -4.4578571795e-02 -1.3355730424e-01 -4.1739680810e-04 
          -8.1637313268e-02 -1.9452747222e-01 1.2324096522e-05 
          -1.4514721352e-01 -5.6838104519e-01 -2.8992422861e-04 
          -1.0626414252e-01 -1.4583265268e-01 7.4251539174e-04 
          -8.3927447112e-02 -9.3313018881e-02 -9.8486226145e-05 
          -1.9694924837e-01 -2.4874227856e-01 -1.0039387700e-04 
          -4.1863798200e-02 -2.6764774341e-01 5.1538054699e-04 
          -5.7234828171e-02 -1.6027942776e-01 -2.0560827352e-05 
          -1.8587038364e-01 -5.0427713761e-01 -3.7039165690e-04 
          -1.0166378795e-01 -1.7389781638e-01 -2.0231457336e-04 
          -6.0106157296e-02 -7.4745279319e-02 8.6298955946e-06 
          -1.0477985569e-01 -3.1702137903e-01 1.3164891147e-04 
          -3.6613735864e-02 -1.8203297005e-01 6.8120359457e-05 
          -6.3794883087e-02 -2.0481029336e-01 2.5780731707e-04 
          -2.0498802883e-01 -1.2332925114e-01 1.2692683168e-03 
          -1.3963024223e-01 -1.6595075330e-01 9.9875849890e-04 
          -1.5076735433e-01 -2.5470730652e-01 -4.4640540206e-04 
          -6.7850953116e-02 -2.2356296245e-01 1.0320366126e-03 
          -5.9565567257e-02 -1.6782956094e-01 -8.1478863508e-04 
          6.9294904456e-02 -2.5823673459e-01 -5.1865177489e-04 
          -1.0120982088e-01 -2.0864346203e-01 1.1347782046e-03 
          -6.0143147449e-02 -1.5994084934e-01 -8.3568578663e-04 
          -1.0111336330e-01 -2.9009778697e-01 1.0702830662e-03 
          -5.9761181878e-02 -2.1187022564e-01 -8.6049404407e-04 
          -6.8050852709e-02 -2.6276469150e-01 1.1042480685e-03 
          -5.9678358457e-02 -1.9126014227e-01 -8.1908846697e-04 
          -1.6468718475e-02 -1.5950351072e-01 -4.0692600310e-04 
          -7.7649600025e-02 -1.9042256851e-01 9.3768694943e-04 
          -4.9336874117e-02 -1.1817614932e-01 -7.2914076036e-04 
          -5.3005504163e-02 -1.4195257862e-01 -4.3788159589e-04 
          -3.7235833811e-02 -1.7149216760e-01 9.9290909797e-04 
          -3.2439724635e-02 -9.6117903605e-02 -7.3359762324e-04 
          -3.7540207249e-02 -1.8792764341e-01 9.2124082226e-04 
          -3.2408774473e-02 -1.0656393573e-01 -7.4715609279e-04 
          -7.7665167587e-02 -1.7702902031e-01 9.8796048964e-04 
          -4.9076523400e-02 -1.0516522109e-01 -7.2966719510e-04 
          -1.0120020067e-01 -7.1126247631e-02 -2.1417762452e-04 
          -6.8961073007e-02 -7.5026465998e-02 5.0127354926e-04 
          -5.2910770056e-02 -4.5999946485e-02 -3.7454144382e-04 
          5.2850952201e-02 -8.1606327107e-02 -2.2328898956e-04 
          -6.0389011586e-03 -7.8604046952e-02 5.1318066235e-04 
          8.2428127293e-04 -5.3564716164e-02 -3.7441393988e-04 
          -5.7968215174e-03 -9.8720450809e-02 4.9689348876e-04 
          1.0813382572e-03 -6.5788022058e-02 -3.9638768228e-04 
          -6.9259226647e-02 -8.8538436606e-02 5.1332400355e-04 
          -5.2967288158e-02 -5.4650821841e-02 -3.7238580590e-04 
          1.9693547884e-02 -1.2193800744e-01 -2.3264210761e-05 
          -5.4618080611e-02 -1.7102766130e-01 2.2457699777e-05 
          -8.5609915930e-02 3.3597024294e-02 4.1728283976e-04 
          -8.3359076975e-02 -1.0682061251e-01 5.6715678159e-04 
          9.2520892220e-02 -1.0824089763e-01 5.6277107127e-04 
          9.3971469647e-02 3.4741714015e-02 2.5881800844e-04 
          -1.6575455008e-01 -1.7044138882e-02 2.6316512432e-05 
          -1.5183391217e-02 -2.7766795853e-02 5.3607423146e-06 
          -1.3781508462e-02 -3.2538459963e-02 -2.1538784931e-05 
          3.8474502922e-03 1.8911302214e-01 -1.6419125662e-04 
          9.9977141406e-03 -9.8181728566e-02 -1.9649427706e-05 
          3.2542277584e-03 6.9145706860e-03 -1.0810197391e-05 
          1.6907639768e-01 -2.0143822502e-02 -1.1838861202e-04 
          2.7822703234e-02 -2.9432290332e-02 -6.1097972199e-05 
          6.0932427654e-02 -3.6043731466e-02 -4.6382719556e-05 
          -2.7517158471e-02 -1.4264413036e-01 1.0636526927e-04 
          -4.1197642183e-02 -4.7830301484e-02 6.2098051452e-05 
          -4.3129358777e-02 3.4813426287e-01 -3.0433955997e-04 
          -9.5793841119e-03 -3.6927128888e-02 -4.6092038794e-05 
          7.2662833046e-03 -3.9470200461e-02 -4.4775188431e-05 
          -1.5804759207e-02 -4.0656529262e-02 -4.2989028788e-05 
          5.8009881378e-04 2.0380378752e-01 -1.7552164159e-04 
          3.9280038120e-03 -1.3219187415e-03 -4.1835666539e-05 
          -5.2441451660e-04 -5.1807898279e-02 1.3373926873e-05 
          5.7478897329e-02 -2.7019185219e-02 -5.7022595094e-05 
          -1.6574178512e-02 -1.8950751052e-02 -4.8961444409e-05 
          -3.0011943569e-02 -2.7679404849e-02 -3.8190759387e-05 
          -3.7809638958e-02 2.7585798368e-01 -2.4585097615e-04 
          -3.1396873272e-02 3.5485947691e-02 -4.6353804297e-05 
          -2.8796527932e-02 -3.6915972448e-02 1.2295038896e-05 
        </DataArray>
        <DataArray type="Float64" Name="UnbalancedLoad" NumberOfComponents="3" format="ascii">
          0.0000000000e+00 0.0000000000e+00 -9.3431816177e+02 
          0.0000000000e+00 0.0000000000e+00 -9.5739641485e+02 
          0.0000000000e+00 0.0000000000e+00 -9.3428177749e+02 
          0.0000000000e+00 0.0000000000e+00 -1.5085564081e+03 
          0.0000000000e+00 0.0000000000e+00 -1.5085334250e+03 
          0.0000000000e+00 0.0000000000e+00 -1.0207452183e+03 
          0.0000000000e+00 0.0000000000e+00 -1.0208827892e+03 
          0.0000000000e+00 0.0000000000e+00 -7.6375472009e+02 
          0.0000000000e+00 0.0000000000e+00 -7.6386930874e+02 
          0.0000000000e+00 0.0000000000e+00 -9.5736002975e+02 
          0.0000000000e+00 0.0000000000e+00 -9.3431816177e+02 
          0.0000000000e+00 0.0000000000e+00 -1.5085564081e+03 
          0.0000000000e+00 0.0000000000e+00 -1.0208827892e+03 
          0.0000000000e+00 0.0000000000e+00 -1.0208827892e+03 
          0.0000000000e+00 0.0000000000e+00 -7.6386930874e+02 
          0.0000000000e+00 0.0000000000e+00 -9.5736002975e+02 
          0.0000000000e+00 0.0000000000e+00 -9.3431816177e+02 
          0.0000000000e+00 0.0000000000e+00 -1.5085564081e+03 
          0.0000000000e+00 0.0000000000e+00 -1.0208827892e+03 
          0.0000000000e+00 0.0000000000e+00 -1.0208827892e+03 
          0.0000000000e+00 0.0000000000e+00 -7.6386930874e+02 
          0.0000000000e+00 0.0000000000e+00 -9.5736002975e+02 
          0.0000000000e+00 0.0000000000e+00 -1.0208827892e+03 
          0.0000000000e+00 0.0000000000e+00 -1.0208827892e+03 
          0.0000000000e+00 0.0000000000e+00 -5.0890641111e+02 
          0.0000000000e+00 0.0000000000e+00 -5.0890641111e+02 
          0.0000000000e+00 0.0000000000e+00 -4.5965147224e+02 
          0.0000000000e+00 0.0000000000e+00 -4.5965147224e+02 
          0.0000000000e+00 0.0000000000e+00 -3.7838224383e+02 
          0.0000000000e+00 0.0000000000e+00 -3.7838224383e+02 
          0.0000000000e+00 0.0000000000e+00 -5.0890641111e+02 
          0.0000000000e+00 0.0000000000e+00 -4.5965147224e+02 
          0.0000000000e+00 0.0000000000e+00 -3.7838224383e+02 
          0.0000000000e+00 0.0000000000e+00 -5.0890641111e+02 
          0.0000000000e+00 0.0000000000e+00 -4.5965147224e+02 
          0.0000000000e+00 0.0000000000e+00 -3.7838224383e+02 
          0.0000000000e+00 0.0000000000e+00 -3.0469009641e+02 
          0.0000000000e+00 0.0000000000e+00 -3.0469009641e+02 
          0.0000000000e+00 0.0000000000e+00 -2.7567274864e+02 
          0.0000000000e+00 0.0000000000e+00 -2.7567274864e+02 
          0.0000000000e+00 0.0000000000e+00 -3.7565428787e+02 
          0.0000000000e+00 0.0000000000e+00 -3.7565428787e+02 
          0.0000000000e+00 0.0000000000e+00 -3.0469009641e+02 
          0.0000000000e+00 0.0000000000e+00 -2.7567274864e+02 
          0.0000000000e+00 0.0000000000e+00 -3.7565428787e+02 
          0.0000000000e+00 0.0000000000e+00 -3.0469009641e+02 
          0.0000000000e+00 0.0000000000e+00 -2.7567274864e+02 
          0.0000000000e+00 0.0000000000e+00 -3.7565428787e+02 
          0.0000000000e+00 0.0000000000e+00 -1.7327695299e+02 
          0.0000000000e+00 0.0000000000e+00 -1.7327695299e+02 
          0.0000000000e+00 0.0000000000e+00 -2.1664934963e+02 
          0.0000000000e+00 0.0000000000e+00 -1.7778192028e+02 
          0.0000000000e+00 0.0000000000e+00 -1.7778192028e+02 
          0.0000000000e+00 0.0000000000e+00 -9.8830449814e+01 
          0.0000000000e+00 0.0000000000e+00 -1.3324485435e+02 
          0.0000000000e+00 0.0000000000e+00 -1.3324485435e+02 
          0.0000000000e+00 0.0000000000e+00 -3.5407391026e+02 
          0.0000000000e+00 0.0000000000e+00 -3.5407391026e+02 
          0.0000000000e+00 0.0000000000e+00 -1.7661725099e+02 
          0.0000000000e+00 0.0000000000e+00 -3.2439616719e+02 
          0.0000000000e+00 0.0000000000e+00 -3.2439616719e+02 
          0.0000000000e+00 0.0000000000e+00 -1.7778192028e+02 
          0.0000000000e+00 0.0000000000e+00 -1.7778192028e+02 
          0.0000000000e+00 0.0000000000e+00 -9.8830449814e+01 
          0.0000000000e+00 0.0000000000e+00 -3.3875007904e+02 
          0.0000000000e+00 0.0000000000e+00 -3.3875007904e+02 
          0.0000000000e+00 0.0000000000e+00 -1.7327695299e+02 
          0.0000000000e+00 0.0000000000e+00 -3.2439616719e+02 
          0.0000000000e+00 0.0000000000e+00 -2.1664934963e+02 
          0.0000000000e+00 0.0000000000e+00 -1.3324485435e+02 
          0.0000000000e+00 0.0000000000e+00 -3.5407391026e+02 
          0.0000000000e+00 0.0000000000e+00 -1.7778192028e+02 
          0.0000000000e+00 0.0000000000e+00 -9.8830449814e+01 
          0.0000000000e+00 0.0000000000e+00 -1.7661725099e+02 
          0.0000000000e+00 0.0000000000e+00 -1.7778192028e+02 
          0.0000000000e+00 0.0000000000e+00 -9.8830449814e+01 
          0.0000000000e+00 0.0000000000e+00 -3.3875007904e+02 
          0.0000000000e+00 0.0000000000e+00 -9.4021184165e+01 
          0.0000000000e+00 0.0000000000e+00 -1.1361499670e+02 
          0.0000000000e+00 0.0000000000e+00 -1.1361499670e+02 
          0.0000000000e+00 0.0000000000e+00 -1.7327695299e+02 
          0.0000000000e+00 0.0000000000e+00 -3.2439616719e+02 
          0.0000000000e+00 0.0000000000e+00 -2.1664934963e+02 
          0.0000000000e+00 0.0000000000e+00 -1.3324485435e+02 
          0.0000000000e+00 0.0000000000e+00 -3.5407391026e+02 
          0.0000000000e+00 0.0000000000e+00 -1.7778192028e+02 
          0.0000000000e+00 0.0000000000e+00 -9.8830449814e+01 
          0.0000000000e+00 0.0000000000e+00 -1.7661725099e+02 
          0.0000000000e+00 0.0000000000e+00 -1.7778192028e+02 
          0.0000000000e+00 0.0000000000e+00 -9.8830449814e+01 
          0.0000000000e+00 0.0000000000e+00 -3.3875007904e+02 
          0.0000000000e+00 0.0000000000e+00 -2.1664934963e+02 
          0.0000000000e+00 0.0000000000e+00 -9.8830449814e+01 
          0.0000000000e+00 0.0000000000e+00 -1.7661725099e+02 
          0.0000000000e+00 0.0000000000e+00 -9.8830449814e+01 
          0.0000000000e+00 0.0000000000e+00 -9.4021184165e+01 
          0.0000000000e+00 0.0000000000e+00 -1.1361499670e+02 
          0.0000000000e+00 0.0000000000e+00 -1.1361499670e+02 
          0.0000000000e+00 0.0000000000e+00 -1.4689917585e+02 
          0.0000000000e+00 0.0000000000e+00 -1.4690025585e+02 
          0.0000000000e+00 0.0000000000e+00 -1.0427317665e+02 
          0.0000000000e+00 0.0000000000e+00 -1.4689917585e+02 
          0.0000000000e+00 0.0000000000e+00 -1.4690025585e+02 
          0.0000000000e+00 0.0000000000e+00 -1.0427317665e+02 
          0.0000000000e+00 0.0000000000e+00 -1.4690025585e+02 
          0.0000000000e+00 0.0000000000e+00 -1.0427317665e+02 
          0.0000000000e+00 0.0000000000e+00 -1.4690025585e+02 
          0.0000000000e+00 0.0000000000e+00 -1.0427317665e+02 
          0.0000000000e+00 0.0000000000e+00 -1.4689917585e+02 
          0.0000000000e+00 0.0000000000e+00 -1.4690025585e+02 
          0.0000000000e+00 0.0000000000e+00 -1.0427317665e+02 
          0.0000000000e+00 0.0000000000e+00 -1.4689917585e+02 
          0.0000000000e+00 0.0000000000e+00 -1.4690025585e+02 
          0.0000000000e+00 0.0000000000e+00 -1.0427317665e+02 
          0.0000000000e+00 0.0000000000e+00 -1.4690025585e+02 
          0.0000000000e+00 0.0000000000e+00 -1.0427317665e+02 
          0.0000000000e+00 0.0000000000e+00 -1.4690025585e+02 
          0.0000000000e+00 0.0000000000e+00 -1.0427317665e+02 
          0.0000000000e+00 0.0000000000e+00 -1.4689917585e+02 
          0.0000000000e+00 0.0000000000e+00 -1.4690025585e+02 
          0.0000000000e+00 0.0000000000e+00 -1.0427317665e+02 
          0.0000000000e+00 0.0000000000e+00 -1.4689917585e+02 
          0.0000000000e+00 0.0000000000e+00 -1.4690025585e+02 
          0.0000000000e+00 0.0000000000e+00 -1.0427317665e+02 
          0.0000000000e+00 0.0000000000e+00 -1.4690025585e+02 
          0.0000000000e+00 0.0000000000e+00 -1.0427317665e+02 
          0.0000000000e+00 0.0000000000e+00 -1.4690025585e+02 
          0.0000000000e+00 0.0000000000e+00 -1.0427317665e+02 
          0.0000000000e+00 0.0000000000e+00 -9.4245186195e+01 
          0.0000000000e+00 0.0000000000e+00 -9.4245186195e+01 
          0.0000000000e+00 0.0000000000e+00 -2.5763057978e+01 
          0.0000000000e+00 0.0000000000e+00 -2.5763057978e+01 
          0.0000000000e+00 0.0000000000e+00 -2.5763057978e+01 
          0.0000000000e+00 0.0000000000e+00 -2.5763057978e+01 
          0.0000000000e+00 0.0000000000e+00 -1.2535696535e+02 
          0.0000000000e+00 0.0000000000e+00 -1.1323354606e+02 
          0.0000000000e+00 0.0000000000e+00 -1.0208526875e+02 
          0.0000000000e+00 0.0000000000e+00 -1.2535696535e+02 
          0.0000000000e+00 0.0000000000e+00 -1.1323354606e+02 
          0.0000000000e+00 0.0000000000e+00 -1.0208526875e+02 
          0.0000000000e+00 0.0000000000e+00 -1.2535696535e+02 
          0.0000000000e+00 0.0000000000e+00 -1.1323354606e+02 
          0.0000000000e+00 0.0000000000e+00 -1.0208526875e+02 
          0.0000000000e+00 0.0000000000e+00 -1.2535696535e+02 
          0.0000000000e+00 0.0000000000e+00 -1.1323354606e+02 
          0.0000000000e+00 0.0000000000e+00 -1.0208526875e+02 
          0.0000000000e+00 0.0000000000e+00 -9.2051268469e+01 
          0.0000000000e+00 0.0000000000e+00 -8.2847673658e+01 
          0.0000000000e+00 0.0000000000e+00 -7.5097572125e+01 
          0.0000000000e+00 0.0000000000e+00 -9.2051268469e+01 
          0.0000000000e+00 0.0000000000e+00 -8.2847673658e+01 
          0.0000000000e+00 0.0000000000e+00 -7.5097572125e+01 
          0.0000000000e+00 0.0000000000e+00 -9.2051268469e+01 
          0.0000000000e+00 0.0000000000e+00 -8.2847673658e+01 
          0.0000000000e+00 0.0000000000e+00 -7.5097572125e+01 
          0.0000000000e+00 0.0000000000e+00 -9.2051268469e+01 
          0.0000000000e+00 0.0000000000e+00 -8.2847673658e+01 
          0.0000000000e+00 0.0000000000e+00 -7.5097572125e+01 
        </DataArray>
      </PointData>
      <CellData>
        <DataArray type="Int64" Name="ElementTag" format="ascii">
          0
        </DataArray>
      </CellData>
    </Piece>
  </UnstructuredGrid>
</VTKFile>
