<?xml version="1.0"?>
<VTKFile type="UnstructuredGrid" version="1.0" byte_order="LittleEndian" compressor="vtkZLibDataCompressor">
  <UnstructuredGrid>
    <Piece NumberOfPoints="158" NumberOfCells="1">
      <Points>
        <DataArray type="Float64" Name="Points" NumberOfComponents="3" format="ascii">
          1.7550000000e+00 -1.7550000000e+00 0.0000000000e+00 
          1.4140000000e+00 0.0000000000e+00 5.2300000000e+00 
          1.7550000000e+00 1.7550000000e+00 -0.0000000000e+00 
          1.4140000000e+00 -1.4140000000e+00 5.2300000000e+00 
          1.4140000000e+00 1.4140000000e+00 5.2300000000e+00 
          1.5840000000e+00 8.7800000000e-01 2.6150000000e+00 
          1.5840000000e+00 -8.7700000000e-01 2.6150000000e+00 
          1.5840000000e+00 1.5840000000e+00 2.6150000000e+00 
          1.5840000000e+00 -1.5840000000e+00 2.6150000000e+00 
          -0.0000000000e+00 1.4140000000e+00 5.2300000000e+00 
          -1.7550000000e+00 1.7550000000e+00 -0.0000000000e+00 
          -1.4140000000e+00 1.4140000000e+00 5.2300000000e+00 
          -8.7700000000e-01 1.5840000000e+00 2.6150000000e+00 
          8.7700000000e-01 1.5840000000e+00 2.6150000000e+00 
          -1.5840000000e+00 1.5840000000e+00 2.6150000000e+00 
          -1.4140000000e+00 -0.0000000000e+00 5.2300000000e+00 
          -1.7550000000e+00 -1.7550000000e+00 -0.0000000000e+00 
          -1.4140000000e+00 -1.4140000000e+00 5.2300000000e+00 
          -1.5840000000e+00 -8.7700000000e-01 2.6150000000e+00 
          -1.5840000000e+00 8.7700000000e-01 2.6150000000e+00 
          -1.5840000000e+00 -1.5840000000e+00 2.6150000000e+00 
          0.0000000000e+00 -1.4140000000e+00 5.2300000000e+00 
          8.7700000000e-01 -1.5840000000e+00 2.6150000000e+00 
          -8.7700000000e-01 -1.5840000000e+00 2.6150000000e+00 
          1.2750000000e+00 1.2750000000e+00 7.3500000000e+00 
          1.2750000000e+00 -1.2750000000e+00 7.3500000000e+00 
          1.1500000000e+00 -1.1500000000e+00 9.2700000000e+00 
          1.1500000000e+00 1.1500000000e+00 9.2700000000e+00 
          1.0370000000e+00 -1.0370000000e+00 1.1000000000e+01 
          1.0370000000e+00 1.0370000000e+00 1.1000000000e+01 
          -1.2750000000e+00 1.2750000000e+00 7.3500000000e+00 
          -1.1500000000e+00 1.1500000000e+00 9.2700000000e+00 
          -1.0370000000e+00 1.0370000000e+00 1.1000000000e+01 
          -1.2750000000e+00 -1.2750000000e+00 7.3500000000e+00 
          -1.1500000000e+00 -1.1500000000e+00 9.2700000000e+00 
          -1.0370000000e+00 -1.0370000000e+00 1.1000000000e+01 
          9.3500000000e-01 9.3500000000e-01 1.2560000000e+01 
          9.3500000000e-01 -9.3500000000e-01 1.2560000000e+01 
          8.4300000000e-01 8.4300000000e-01 1.3960000000e+01 
          8.4300000000e-01 -8.4300000000e-01 1.3960000000e+01 
          7.6000000000e-01 7.6000000000e-01 1.5240000000e+01 
          7.6000000000e-01 -7.6000000000e-01 1.5240000000e+01 
          -9.3500000000e-01 9.3500000000e-01 1.2560000000e+01 
          -8.4300000000e-01 8.4300000000e-01 1.3960000000e+01 
          -7.6000000000e-01 7.6000000000e-01 1.5240000000e+01 
          -9.3500000000e-01 -9.3500000000e-01 1.2560000000e+01 
          -8.4300000000e-01 -8.4300000000e-01 1.3960000000e+01 
          -7.6000000000e-01 -7.6000000000e-01 1.5240000000e+01 
          7.6000000000e-01 -7.6000000000e-01 1.6240000000e+01 
          7.6000000000e-01 7.6000000000e-01 1.6240000000e+01 
          7.6000000000e-01 0.0000000000e+00 1.6240000000e+01 
          7.6000000000e-01 7.6000000000e-01 1.7340000000e+01 
          7.6000000000e-01 -7.6000000000e-01 1.7340000000e+01 
          7.6000000000e-01 0.0000000000e+00 1.7890000000e+01 
          7.6000000000e-01 -7.6000000000e-01 1.9440000000e+01 
          7.6000000000e-01 7.6000000000e-01 1.9440000000e+01 
          7.6000000000e-01 -7.6000000000e-01 2.1640000000e+01 
          7.6000000000e-01 7.6000000000e-01 2.1640000000e+01 
          7.6000000000e-01 0.0000000000e+00 1.9440000000e+01 
          7.6000000000e-01 7.6000000000e-01 1.8440000000e+01 
          7.6000000000e-01 -7.6000000000e-01 1.8440000000e+01 
          7.6000000000e-01 -7.6000000000e-01 2.0540000000e+01 
          7.6000000000e-01 7.6000000000e-01 2.0540000000e+01 
          7.6000000000e-01 0.0000000000e+00 2.1090000000e+01 
          7.6000000000e-01 7.6000000000e-01 2.2640000000e+01 
          7.6000000000e-01 -7.6000000000e-01 2.2640000000e+01 
          -7.6000000000e-01 7.6000000000e-01 1.6240000000e+01 
          -7.6000000000e-01 7.6000000000e-01 1.8440000000e+01 
          -0.0000000000e+00 7.6000000000e-01 1.6240000000e+01 
          -7.6000000000e-01 7.6000000000e-01 1.9440000000e+01 
          -7.6000000000e-01 7.6000000000e-01 2.1640000000e+01 
          -7.6000000000e-01 7.6000000000e-01 1.7340000000e+01 
          -0.0000000000e+00 7.6000000000e-01 1.7890000000e+01 
          -0.0000000000e+00 7.6000000000e-01 1.9440000000e+01 
          -7.6000000000e-01 7.6000000000e-01 2.0540000000e+01 
          0.0000000000e+00 7.6000000000e-01 2.1090000000e+01 
          -7.6000000000e-01 7.6000000000e-01 2.2640000000e+01 
          -0.0000000000e+00 5.2600000000e-01 2.3499000000e+01 
          3.9900000000e-01 4.0400000000e-01 2.3950000000e+01 
          -3.9900000000e-01 4.0400000000e-01 2.3950000000e+01 
          -7.6000000000e-01 -7.6000000000e-01 1.6240000000e+01 
          -7.6000000000e-01 -7.6000000000e-01 1.8440000000e+01 
          -7.6000000000e-01 -0.0000000000e+00 1.6240000000e+01 
          -7.6000000000e-01 -7.6000000000e-01 1.9440000000e+01 
          -7.6000000000e-01 -7.6000000000e-01 2.1640000000e+01 
          -7.6000000000e-01 -7.6000000000e-01 1.7340000000e+01 
          -7.6000000000e-01 0.0000000000e+00 1.7890000000e+01 
          -7.6000000000e-01 -0.0000000000e+00 1.9440000000e+01 
          -7.6000000000e-01 -7.6000000000e-01 2.0540000000e+01 
          -7.6000000000e-01 -0.0000000000e+00 2.1090000000e+01 
          -7.6000000000e-01 -7.6000000000e-01 2.2640000000e+01 
          0.0000000000e+00 -7.6000000000e-01 1.6240000000e+01 
          0.0000000000e+00 -7.6000000000e-01 1.7890000000e+01 
          0.0000000000e+00 -7.6000000000e-01 1.9440000000e+01 
          0.0000000000e+00 -7.6000000000e-01 2.1090000000e+01 
          0.0000000000e+00 -5.2600000000e-01 2.3499000000e+01 
          3.9900000000e-01 -4.0400000000e-01 2.3950000000e+01 
          -3.9900000000e-01 -4.0400000000e-01 2.3950000000e+01 
          -0.0000000000e+00 -3.3500000000e+00 2.1640000000e+01 
          -3.8000000000e-01 -2.0550000000e+00 2.2140000000e+01 
          -3.8000000000e-01 -2.0550000000e+00 2.1640000000e+01 
          0.0000000000e+00 3.3500000000e+00 2.1640000000e+01 
          -3.8000000000e-01 2.0550000000e+00 2.2140000000e+01 
          -3.8000000000e-01 2.0550000000e+00 2.1640000000e+01 
          3.8000000000e-01 2.0550000000e+00 2.2140000000e+01 
          3.8000000000e-01 2.0550000000e+00 2.1640000000e+01 
          3.8000000000e-01 -2.0550000000e+00 2.2140000000e+01 
          3.8000000000e-01 -2.0550000000e+00 2.1640000000e+01 
          -0.0000000000e+00 -3.3500000000e+00 1.8440000000e+01 
          -3.8000000000e-01 -2.0550000000e+00 1.8940000000e+01 
          -3.8000000000e-01 -2.0550000000e+00 1.8440000000e+01 
          -0.0000000000e+00 3.3500000000e+00 1.8440000000e+01 
          -3.8000000000e-01 2.0550000000e+00 1.8940000000e+01 
          -3.8000000000e-01 2.0550000000e+00 1.8440000000e+01 
          3.8000000000e-01 2.0550000000e+00 1.8940000000e+01 
          3.8000000000e-01 2.0550000000e+00 1.8440000000e+01 
          3.8000000000e-01 -2.0550000000e+00 1.8940000000e+01 
          3.8000000000e-01 -2.0550000000e+00 1.8440000000e+01 
          -0.0000000000e+00 -3.3500000000e+00 1.5240000000e+01 
          -3.8000000000e-01 -2.0550000000e+00 1.5740000000e+01 
          -3.8000000000e-01 -2.0550000000e+00 1.5240000000e+01 
          -0.0000000000e+00 3.3500000000e+00 1.5240000000e+01 
          -3.8000000000e-01 2.0550000000e+00 1.5740000000e+01 
          -3.8000000000e-01 2.0550000000e+00 1.5240000000e+01 
          3.8000000000e-01 2.0550000000e+00 1.5740000000e+01 
          3.8000000000e-01 2.0550000000e+00 1.5240000000e+01 
          3.8000000000e-01 -2.0550000000e+00 1.5740000000e+01 
          3.8000000000e-01 -2.0550000000e+00 1.5240000000e+01 
          -5.2400000000e-01 0.0000000000e+00 2.3496000000e+01 
          5.2400000000e-01 0.0000000000e+00 2.3496000000e+01 
          4.0000000000e-02 5.0000000000e-02 2.5250000000e+01 
          -4.0000000000e-02 5.0000000000e-02 2.5250000000e+01 
          -4.0000000000e-02 -5.0000000000e-02 2.5250000000e+01 
          4.0000000000e-02 -5.0000000000e-02 2.5250000000e+01 
          1.3410000000e+00 0.0000000000e+00 6.3450000000e+00 
          1.2090000000e+00 0.0000000000e+00 8.3600000000e+00 
          1.0900000000e+00 -0.0000000000e+00 1.0180000000e+01 
          -0.0000000000e+00 1.3410000000e+00 6.3450000000e+00 
          0.0000000000e+00 1.2090000000e+00 8.3600000000e+00 
          -0.0000000000e+00 1.0900000000e+00 1.0180000000e+01 
          -1.3410000000e+00 0.0000000000e+00 6.3450000000e+00 
          -1.2090000000e+00 0.0000000000e+00 8.3600000000e+00 
          -1.0900000000e+00 -0.0000000000e+00 1.0180000000e+01 
          -0.0000000000e+00 -1.3410000000e+00 6.3450000000e+00 
          0.0000000000e+00 -1.2090000000e+00 8.3600000000e+00 
          0.0000000000e+00 -1.0900000000e+00 1.0180000000e+01 
          9.8300000000e-01 0.0000000000e+00 1.1820000000e+01 
          8.8700000000e-01 0.0000000000e+00 1.3296000000e+01 
          8.0000000000e-01 -0.0000000000e+00 1.4633000000e+01 
          0.0000000000e+00 9.8300000000e-01 1.1820000000e+01 
          -0.0000000000e+00 8.8700000000e-01 1.3296000000e+01 
          0.0000000000e+00 8.0000000000e-01 1.4633000000e+01 
          -9.8300000000e-01 0.0000000000e+00 1.1820000000e+01 
          -8.8700000000e-01 0.0000000000e+00 1.3296000000e+01 
          -8.0000000000e-01 0.0000000000e+00 1.4633000000e+01 
          0.0000000000e+00 -9.8300000000e-01 1.1820000000e+01 
          0.0000000000e+00 -8.8700000000e-01 1.3296000000e+01 
          0.0000000000e+00 -8.0000000000e-01 1.4633000000e+01 
        </DataArray>
      </Points>
      <Cells>
        <DataArray type="Int64" Name="connectivity" format="ascii">
          0
          1
          2
          3
          4
          5
          6
          7
          8
          9
          10
          11
          12
          13
          14
          15
          16
          17
          18
          19
          20
          21
          22
          23
          24
          25
          26
          27
          28
          29
          30
          31
          32
          33
          34
          35
          36
          37
          38
          39
          40
          41
          42
          43
          44
          45
          46
          47
          48
          49
          50
          51
          52
          53
          54
          55
          56
          57
          58
          59
          60
          61
          62
          63
          64
          65
          66
          67
          68
          69
          70
          71
          72
          73
          74
          75
          76
          77
          78
          79
          80
          81
          82
          83
          84
          85
          86
          87
          88
          89
          90
          91
          92
          93
          94
          95
          96
          97
          98
          99
          100
          101
          102
          103
          104
          105
          106
          107
          108
          109
          110
          111
          112
          113
          114
          115
          116
          117
          118
          119
          120
          121
          122
          123
          124
          125
          126
          127
          128
          129
          130
          131
          132
          133
          134
          135
          136
          137
          138
          139
          140
          141
          142
          143
          144
          145
          146
          147
          148
          149
          150
          151
          152
          153
          154
          155
          156
          157
        </DataArray>
        <DataArray type="Int64" Name="offsets" format="ascii">
          158
        </DataArray>
        <DataArray type="Int64" Name="types" format="ascii">
          2
        </DataArray>
      </Cells>
      <PointData>
        <DataArray type="Int64" Name="NodeTag" format="ascii">
          1
          2
          3
          4
          5
          6
          7
          8
          9
          10
          11
          12
          13
          14
          15
          16
          17
          18
          19
          20
          21
          22
          23
          24
          25
          26
          27
          28
          29
          30
          31
          32
          33
          34
          35
          36
          37
          38
          39
          40
          41
          42
          43
          44
          45
          46
          47
          48
          49
          50
          51
          52
          53
          54
          55
          56
          57
          58
          59
          60
          61
          62
          63
          64
          65
          66
          67
          68
          69
          70
          71
          72
          73
          74
          75
          76
          77
          78
          79
          80
          81
          82
          83
          84
          85
          86
          87
          88
          89
          90
          91
          92
          93
          94
          95
          96
          97
          98
          99
          100
          101
          102
          103
          104
          105
          106
          107
          108
          109
          110
          111
          112
          113
          114
          115
          116
          117
          118
          119
          120
          121
          122
          123
          124
          125
          126
          127
          128
          129
          130
          131
          132
          133
          134
          135
          136
          137
          138
          139
          140
          141
          142
          143
          144
          145
          146
          147
          148
          149
          150
          151
          152
          153
          154
          155
          156
          157
          158
        </DataArray>
        <DataArray type="Float64" Name="Displacement" NumberOfComponents="3" format="ascii">
          0.0000000000e+00 0.0000000000e+00 0.0000000000e+00 
          -3.2837538592e-04 -4.7206106227e-05 -2.0828551912e-04 
          0.0000000000e+00 0.0000000000e+00 0.0000000000e+00 
          1.2633720661e-06 -4.1247253056e-05 -1.0605180673e-03 
          -4.9768981971e-06 -5.5120527802e-05 -9.9755723289e-04 
          -1.5419253347e-03 -1.6267747125e-03 -7.6791757161e-04 
          -1.6391156100e-03 1.6668831016e-03 -8.0543076691e-04 
          -1.5862163981e-03 -1.6240322486e-03 -7.4050834059e-04 
          -1.6912828840e-03 1.6638129745e-03 -7.8518323592e-04 
          1.9821224138e-06 -3.6865405521e-04 -2.0812284626e-04 
          0.0000000000e+00 0.0000000000e+00 0.0000000000e+00 
          9.0652540674e-06 -4.9058397514e-05 -9.9629400098e-04 
          1.5898922395e-03 -1.5678834339e-03 -7.6353375991e-04 
          -1.5889766428e-03 -1.5771788474e-03 -7.6444346276e-04 
          1.5871252823e-03 -1.6153033882e-03 -7.3944053242e-04 
          3.3942588190e-04 -4.1245140498e-05 -2.0943809908e-04 
          0.0000000000e+00 0.0000000000e+00 0.0000000000e+00 
          1.4462980257e-05 -3.5254698425e-05 -1.0605718871e-03 
          1.6513747370e-03 1.6694297190e-03 -8.0616770566e-04 
          1.5430669649e-03 -1.6180620690e-03 -7.6635627496e-04 
          1.7026259842e-03 1.6663780495e-03 -7.8544176901e-04 
          7.6960469659e-06 2.9808286533e-04 -2.1016158980e-04 
          -1.6943572472e-03 1.6143837453e-03 -8.0838090957e-04 
          1.7056656981e-03 1.6167147423e-03 -8.0952188210e-04 
          2.2616900583e-04 1.0670094265e-04 -1.3490926868e-03 
          2.5759919392e-04 -3.6911086953e-04 -1.4383197048e-03 
          5.9005367128e-05 -2.6579783362e-04 -1.8037338135e-03 
          4.7068686728e-05 -1.9243357550e-04 -1.6951032979e-03 
          1.5988275517e-04 -4.8318569583e-04 -2.0599560667e-03 
          1.3837166252e-04 -1.8596340729e-04 -1.9417939027e-03 
          -2.1829827048e-04 1.1244327086e-04 -1.3476576814e-03 
          -3.5570771143e-05 -1.8496974734e-04 -1.6935527309e-03 
          -1.2352815577e-04 -1.7958064441e-04 -1.9404811258e-03 
          -2.3528962983e-04 -3.6166939968e-04 -1.4379852927e-03 
          -3.1498463839e-05 -2.5963046632e-04 -1.8034143507e-03 
          -1.2890646487e-04 -4.7625161774e-04 -2.0600608468e-03 
          8.4507601117e-05 -3.8491184369e-04 -2.2308500666e-03 
          9.8646464907e-05 -5.0705889549e-04 -2.3592572557e-03 
          1.0827865042e-04 -4.2794744281e-04 -2.4591322952e-03 
          1.2404225050e-04 -6.9079848993e-04 -2.5911026103e-03 
          3.9015471200e-05 -6.9153686161e-04 -2.6653806918e-03 
          4.7278916669e-05 -6.5500344794e-04 -2.7972507092e-03 
          -6.6836673561e-05 -3.7864857127e-04 -2.2298765822e-03 
          -8.8835311407e-05 -4.2281935012e-04 -2.4587300460e-03 
          -1.9081300481e-05 -6.8756345968e-04 -2.6655958112e-03 
          -6.5393889413e-05 -5.0149973291e-04 -2.3598483435e-03 
          -9.0079572129e-05 -6.8597998789e-04 -2.5922533463e-03 
          -1.4121982184e-05 -6.5114125542e-04 -2.7988304269e-03 
          1.0246514128e-05 -7.9018784751e-04 -3.0450710306e-03 
          4.8111739065e-06 -7.4738397907e-04 -2.8966427644e-03 
          3.6128941171e-05 -7.6872213739e-04 -2.8415994600e-03 
          3.2499147745e-04 -5.2519274156e-04 -3.1113500598e-03 
          3.5036344652e-04 -1.2722731545e-03 -3.2784717316e-03 
          1.7923581080e-04 -9.6189847866e-04 -3.6579643117e-03 
          -3.9704654944e-06 -1.1977207512e-03 -3.7802159104e-03 
          -7.2085519280e-06 -1.1136850043e-03 -3.5919693422e-03 
          3.2932228821e-06 -1.3994483672e-03 -4.0887290093e-03 
          1.7904235313e-06 -1.4910535356e-03 -3.8911669623e-03 
          2.3200383941e-05 -1.1557146380e-03 -3.5902621019e-03 
          1.8423509126e-05 -1.0707666048e-03 -3.4511137526e-03 
          2.1250814557e-05 -9.9100206223e-04 -3.6342863927e-03 
          1.8769128261e-04 -1.5317596722e-03 -3.9031574111e-03 
          1.7880338543e-04 -1.0702465861e-03 -3.7090665681e-03 
          9.3405625520e-05 -1.3724846776e-03 -4.0938198701e-03 
          -3.2013737036e-06 -1.5204551241e-03 -3.9575631983e-03 
          -1.1899144020e-06 -1.6325300376e-03 -4.1558213617e-03 
          1.5822141389e-05 -7.4420173718e-04 -2.8980584639e-03 
          -4.7938728447e-06 -1.0692973732e-03 -3.4551376700e-03 
          1.0297836750e-05 -7.2875476822e-04 -2.8044339783e-03 
          1.5835228389e-05 -1.1125033836e-03 -3.5970166366e-03 
          -1.0620776492e-05 -1.4907786765e-03 -3.8980815203e-03 
          -3.0707502646e-04 -5.2135704412e-04 -3.1137318890e-03 
          8.1830836846e-06 -8.0062198461e-04 -3.4975841287e-03 
          4.3051009157e-06 -1.1074616379e-03 -3.5354460933e-03 
          -1.7842023194e-04 -1.0682051014e-03 -3.7149296807e-03 
          -1.9194744659e-06 -1.2838967308e-03 -3.9280041917e-03 
          -1.4984230481e-05 -1.5201016956e-03 -3.9649870091e-03 
          -1.3293253567e-05 -1.7548635410e-03 -4.0489056599e-03 
          -1.6441098812e-05 -1.7521526932e-03 -4.0498323769e-03 
          -1.5110655022e-05 -1.7518863424e-03 -4.0540635009e-03 
          2.1256016185e-05 -7.8698857417e-04 -3.0477065604e-03 
          2.2292200387e-07 -9.8944948477e-04 -3.6392117085e-03 
          -8.9321637801e-06 -7.6554479180e-04 -2.8430305664e-03 
          1.9012796880e-05 -1.1965837135e-03 -3.7860533593e-03 
          -7.7972599554e-06 -1.3989403263e-03 -4.0962921915e-03 
          -3.2317285407e-04 -1.2714394193e-03 -3.2819598235e-03 
          -1.5786775030e-04 -9.6000631902e-04 -3.6627223203e-03 
          -1.1066947051e-05 -1.1545665937e-03 -3.5951703047e-03 
          -1.8200109174e-04 -1.5321436718e-03 -3.9096919000e-03 
          -9.3918543243e-05 -1.3718734944e-03 -4.1014456831e-03 
          -1.3716570122e-05 -1.6326910798e-03 -4.1639453256e-03 
          1.5765125590e-05 -8.1755939014e-04 -2.9481083912e-03 
          1.2430771620e-05 -1.1349512871e-03 -3.6881215338e-03 
          7.5266430790e-06 -1.2154851646e-03 -3.7219237885e-03 
          4.8734870715e-07 -1.4693290514e-03 -4.1288602385e-03 
          -1.2075952598e-05 -1.6365935150e-03 -4.1828379270e-03 
          -1.5159124179e-05 -1.7446722162e-03 -4.1553415095e-03 
          -1.4479485919e-05 -1.7444641067e-03 -4.1600988188e-03 
          -1.8366620019e-06 -1.3401438173e-03 -5.2530669369e-03 
          -1.1429243650e-06 -1.5437317656e-03 -4.6376662397e-03 
          4.9817970972e-06 -1.3660161572e-03 -4.6433347182e-03 
          -3.5504350514e-06 -1.5508650363e-03 -4.3789962992e-03 
          -8.8506567154e-06 -1.4759153746e-03 -4.0998663394e-03 
          -2.4821824209e-06 -1.5228347163e-03 -4.1055708481e-03 
          -9.2074557420e-06 -1.4774731300e-03 -4.0950947347e-03 
          -2.1665402454e-06 -1.5220701588e-03 -4.1007447405e-03 
          -1.6925153074e-06 -1.5459894820e-03 -4.6320366095e-03 
          5.5314205352e-06 -1.3704977068e-03 -4.6376599157e-03 
          9.3027744717e-06 -9.3033079761e-04 -4.8221343955e-03 
          1.1754233398e-05 -1.1382012922e-03 -4.1950502137e-03 
          1.5955241878e-05 -9.5599368515e-04 -4.2007099715e-03 
          9.3780682556e-06 -1.1313905338e-03 -3.9936006837e-03 
          3.8267166169e-06 -1.0454149461e-03 -3.6862933712e-03 
          8.4256078986e-06 -1.1027594598e-03 -3.6919919480e-03 
          3.4454468284e-06 -1.0478486176e-03 -3.6832675469e-03 
          8.7470458029e-06 -1.1032466435e-03 -3.6889219481e-03 
          1.1055814852e-05 -1.1408562918e-03 -4.1909693250e-03 
          1.6634534662e-05 -9.6040546124e-04 -4.1965960129e-03 
          1.1454452914e-05 -5.8756777365e-04 -3.9108356985e-03 
          1.6658866521e-05 -7.8059134275e-04 -3.3202456777e-03 
          1.9113103939e-05 -6.1284610404e-04 -3.3259050649e-03 
          1.6545968932e-05 -7.5575617476e-04 -3.2701521190e-03 
          8.8974554305e-06 -6.5667198907e-04 -2.9306285941e-03 
          1.1836340845e-05 -7.2606000866e-04 -2.9363236699e-03 
          8.5146069060e-06 -6.6112238250e-04 -2.9298137414e-03 
          1.2194165918e-05 -7.2878375984e-04 -2.9354688231e-03 
          1.5996035214e-05 -7.8418793417e-04 -3.3176904079e-03 
          1.9806427873e-05 -6.1791978122e-04 -3.3233278122e-03 
          5.9819961154e-05 -1.6885761874e-03 -4.1357584217e-03 
          -7.8217695766e-05 -1.6888097206e-03 -4.1280514827e-03 
          -1.3668830266e-05 -1.9219847545e-03 -4.1018621355e-03 
          -1.3581771323e-05 -1.9216194649e-03 -4.1077173015e-03 
          -1.3566071203e-05 -1.9218586003e-03 -4.1200610876e-03 
          -1.3676693745e-05 -1.9214975477e-03 -4.1142114726e-03 
          -4.2659593777e-04 -8.4886614345e-05 -1.1162901468e-03 
          -2.2984364666e-04 -1.7717370754e-04 -1.7404574373e-03 
          -1.4209317606e-04 -2.8035401721e-04 -1.8354576923e-03 
          2.9880715043e-06 -6.7299357374e-04 -1.0976108430e-03 
          4.8681605224e-06 -4.9184364285e-04 -1.6822825010e-03 
          6.6415310757e-06 -4.8424169408e-04 -1.7958662767e-03 
          4.6198141762e-04 -7.8601657898e-05 -1.1176111411e-03 
          2.4839719524e-04 -1.7042955642e-04 -1.7386861140e-03 
          1.6957042202e-04 -2.7355340560e-04 -1.8356704546e-03 
          9.5398994474e-06 2.7968206074e-04 -1.1449960271e-03 
          1.2568806866e-05 -6.5084280199e-06 -1.7850173571e-03 
          1.4761309799e-05 -1.8072781711e-04 -1.8968605913e-03 
          -4.5086292946e-05 -3.8874896268e-04 -2.2263509060e-03 
          -3.7386955209e-06 -5.0227944875e-04 -2.3820416196e-03 
          1.2615022185e-05 -6.1668265312e-04 -2.7349508069e-03 
          8.2158490454e-06 -4.9170839226e-04 -2.1464634801e-03 
          9.3955300840e-06 -5.3558730535e-04 -2.3485694001e-03 
          9.9676177956e-06 -6.5859616409e-04 -2.6203851229e-03 
          7.2785704287e-05 -3.8241799727e-04 -2.2257926815e-03 
          3.5404643696e-05 -4.9682989911e-04 -2.3826194389e-03 
          1.8048958315e-05 -6.1226716638e-04 -2.7359173117e-03 
          1.6222546123e-05 -3.6391922355e-04 -2.2695982469e-03 
          1.6960910388e-05 -5.2257941600e-04 -2.4744127685e-03 
          1.6905139275e-05 -6.1495970443e-04 -2.7545233418e-03 
        </DataArray>
        <DataArray type="Float64" Name="Reaction" NumberOfComponents="3" format="ascii">
          -1.5681603319e+04 1.5974388395e+04 1.9382240608e+05 
          4.8591248998e-01 -9.3374873901e+00 1.6095222584e-02 
          -1.4754540650e+04 -1.4344556533e+04 1.8146216761e+05 
          2.5585562030e+00 -9.6828326514e+00 5.4211238345e-02 
          -1.0062078692e+01 -2.0466873090e+01 -7.8798969227e-02 
          -1.4054253859e+00 -6.0646492823e+00 6.5852123141e-03 
          1.3676843294e+00 -7.0929839343e+00 -2.5661476765e-02 
          -1.2170643983e+00 -4.7948100292e+00 8.5688995370e-03 
          1.5774335704e+00 -5.0574062826e+00 -8.1020771955e-03 
          -7.3580421737e+00 -1.1895479086e+00 1.5768682840e-03 
          1.4710125931e+04 -1.4390998965e+04 1.8134262456e+05 
          -1.1112780555e+01 1.3643801641e+01 -9.0908660754e-02 
          -1.4854121413e+01 8.3612078873e+00 -6.5606028880e-04 
          -1.3901923774e+00 -7.6373455727e+00 6.6728699798e-03 
          -1.0849124236e+01 6.3975794181e+00 6.9667484574e-04 
          -5.7561315243e-01 5.5790165251e+00 3.4631126642e-02 
          1.5455108184e+04 1.5863077579e+04 1.9295446471e+05 
          1.2496219253e+01 6.1671752896e+00 8.9934792878e-02 
          1.1541671845e+01 9.9179308523e-01 -3.9074580203e-02 
          -1.4145206988e+01 8.9456603671e+00 4.9678356079e-04 
          5.5396591057e+00 9.2775704964e-01 -2.9377109914e-04 
          5.6607452201e+00 -2.0171684200e+00 4.8656409438e-02 
          2.4013492616e+00 -4.0605787959e+00 -2.3495044127e-02 
          6.9438624642e+00 2.9122258532e+00 -3.9866350057e-02 
          -5.3404408169e+00 4.5436135531e+00 5.5246711636e-02 
          4.3778423783e+00 -1.0916319374e+01 -5.5139135710e-03 
          -3.0095923343e+00 8.4770915662e+00 -6.5470381919e-03 
          -1.9319094846e+00 -1.2142071220e+01 9.7827806340e-03 
          -2.3999655912e+00 -4.0671432789e+00 7.2648111722e-03 
          8.5647547586e-01 -7.9140532434e+00 -9.0585665112e-03 
          -1.2371419485e+00 5.2770384119e-01 6.7126340195e-02 
          -6.8879274678e+00 -1.0896414328e+00 3.5154073542e-03 
          -2.7811056300e+00 -1.3409990349e-01 -7.0022955293e-03 
          -1.4585906297e+00 -1.3379868941e+00 -1.0608015809e-03 
          4.7916400751e+00 -1.3214435637e+00 -7.9478069883e-03 
          -3.3506913729e+00 -8.3902533477e-01 4.8034281051e-03 
          -9.9208217491e-01 -9.0533112058e-01 3.1011651795e-03 
          -1.6509744230e+00 3.4395890132e+00 -5.8273927460e-03 
          -1.0195906516e+00 2.7732433982e+00 -8.9816333403e-03 
          -1.8071364648e+00 -6.3411072585e-01 4.7571818921e-03 
          -3.6276510670e-01 -1.0636422876e-01 6.9815559265e-03 
          -1.0525036979e+00 9.6831613634e-01 -9.1858388796e-04 
          -2.1248437629e+00 7.1543992144e-01 -1.4211788038e-03 
          -6.8735772175e-01 1.8190410964e+00 -9.3262534062e-03 
          7.8751625549e-02 4.0191761678e+00 4.2295192504e-03 
          -3.3197451149e+00 4.2046316391e-01 -6.0578517149e-03 
          -8.8571485134e-01 1.5471784116e+00 2.4793692097e-03 
          -4.2072248074e-01 4.2878409807e+00 -3.8397618578e-03 
          -2.0056175517e-01 6.8231529487e-01 4.9245906031e-04 
          3.9969794743e-01 4.7716894742e-01 2.6506909734e-03 
          7.0110999389e-01 7.7166530928e-01 -1.6810044824e-03 
          1.4693228550e+00 3.1477902543e+00 -9.6683276325e-03 
          -1.0803257821e+00 2.4397118216e+00 1.2947235518e-02 
          -1.2297298352e-01 2.1014373699e+00 6.0339753576e-04 
          -1.8283057727e+00 4.9634378599e+00 1.5443706979e-03 
          1.3884135155e+00 4.7850097117e+00 1.7711657465e-03 
          -3.7775602550e+00 1.7718577464e+01 -3.3518747776e-03 
          5.2544417831e+00 1.7122398222e+01 3.8978525163e-03 
          -1.4314156373e+00 6.4526393689e+00 -1.2285732722e-03 
          1.7854748625e+00 8.5388845087e+00 3.3505872541e-03 
          -3.8675872151e+00 9.2976932799e+00 -5.0290176064e-03 
          -1.8997864199e+00 7.4500774918e+00 1.1084783919e-02 
          2.6023573079e+00 8.0422530726e+00 -4.2059113218e-03 
          -1.5131089586e-01 4.6142976496e+00 3.1044012877e-04 
          4.5233148235e+00 1.7852118887e+01 2.8389618948e-03 
          -2.8878032971e+00 1.7894497658e+01 8.3347404246e-03 
          3.4552427078e-01 2.4233418592e+00 2.1686189741e-03 
          3.1057404288e+00 8.4899113229e+00 5.8894840153e-04 
          4.5331782875e-01 8.5005660266e-01 2.9281454031e-03 
          1.3340462069e+00 4.3940659618e+00 1.7978525152e-03 
          5.8341929832e+00 1.7025680092e+01 -5.7698707764e-04 
          2.6963356493e-01 4.3826712537e+00 -1.1436120746e-02 
          6.1000226312e-01 2.1014207056e+00 1.9335039628e-03 
          1.8416466675e+00 7.3815168859e+00 -1.0857677047e-03 
          2.3073597602e+00 7.7484520093e+00 -5.9093168111e-03 
          1.4883135524e+00 4.4886966481e+00 -1.4156331755e-04 
          4.6004238354e+00 1.8252879798e+01 -4.7805471716e-03 
          6.9542274436e-01 5.3393279973e+00 1.6593239066e-03 
          1.4249625300e+00 6.9817419774e+00 6.7783333212e-03 
          1.4493673603e+00 6.5634201302e+00 6.6275646731e-03 
          -2.4745127456e-01 2.5893679534e+00 -1.6687732225e-03 
          -2.9477531430e+00 9.4289752277e+00 -9.8366701077e-03 
          6.6622440366e-01 3.1578445385e+00 -2.6833301189e-03 
          -1.8811029642e+00 4.6495746623e+00 1.6904604271e-03 
          -3.2999994563e+00 1.7372209362e+01 -7.2241848812e-03 
          -1.2283652146e+00 3.2042258805e+00 1.4136595798e-02 
          -2.2006910202e-01 2.3755129326e+00 7.1218544063e-04 
          -1.4219311201e+00 5.9708941708e+00 5.1340721492e-05 
          -2.4383870728e+00 6.9884423157e+00 7.1850831033e-03 
          -2.0482464232e-01 4.4236485003e+00 5.6227101743e-04 
          -2.9336909125e+00 1.8679613225e+01 -3.7158151715e-04 
          -3.0804633796e-01 7.9940811756e-01 -3.6273171960e-04 
          -8.6414054331e-01 2.0115703413e+00 1.6746577283e-03 
          -2.4155938760e+00 7.4290856242e+00 -2.5029838941e-03 
          -1.1305951523e+00 4.4502510392e+00 9.2368303039e-05 
          -9.8200680793e-01 5.2534468660e+00 -1.2707998509e-03 
          -2.0372078629e-01 6.8979083160e+00 6.8499419023e-03 
          -2.3137271881e-01 6.6864729167e+00 6.8335355717e-03 
          -1.6816774698e+00 7.2086049493e+00 -4.0891424064e-03 
          -1.0192335865e+00 7.6971710612e+00 8.0684670933e-03 
          -1.5267378235e+00 5.0123587012e+00 -5.3385080532e-03 
          2.2277501784e+00 7.1151734698e+00 -1.2447364010e-03 
          3.2292035821e+00 7.1636781889e+00 3.3561210658e-03 
          1.4833695903e+00 5.0451230582e+00 -2.4534400218e-03 
          3.2654547434e+00 7.4602069626e+00 2.0078593075e-03 
          1.4756491107e+00 5.0462245396e+00 -2.3837567917e-03 
          -9.8425739536e-01 7.7060032151e+00 7.2957102378e-03 
          -1.5473208991e+00 5.2823890530e+00 -5.5105326170e-03 
          -1.5463138982e+00 4.0899162385e+00 -4.2348463524e-03 
          -1.4083359821e+00 4.8489104541e+00 8.3755175216e-03 
          -1.5012007346e+00 2.8414399866e+00 -5.3345715242e-03 
          5.8626448125e-01 4.0427221599e+00 -1.1157880854e-03 
          1.5666797512e+00 4.2471264008e+00 2.9617745523e-03 
          5.6378308477e-01 2.8187629209e+00 -2.3595040141e-03 
          1.6153209922e+00 4.4610038089e+00 2.2564709534e-03 
          5.6316764084e-01 2.8554237045e+00 -2.2725127324e-03 
          -1.3629749724e+00 4.8586447949e+00 8.1827634781e-03 
          -1.5197217256e+00 3.0441509623e+00 -5.7358799943e-03 
          -2.8218535762e+00 8.4096787542e-01 -4.3374297023e-03 
          -1.4418845904e+00 1.6698592955e+00 8.8509603901e-03 
          -1.3618829081e+00 8.0991668451e-01 -5.4853120418e-03 
          3.3281282664e+00 7.8617868563e-01 -2.1204052983e-03 
          -5.9326588714e-01 1.9419402934e+00 3.3021520088e-03 
          -6.7706409204e-01 1.3443981468e+00 -2.6047696587e-03 
          -5.4878889940e-01 -2.6357952310e-01 3.1128702205e-03 
          -6.8011892502e-01 -2.7156382267e-01 -2.4311770150e-03 
          -1.3951500565e+00 1.0814046504e+00 8.9898683608e-03 
          -1.3776792910e+00 5.0113893861e-01 -6.1333051827e-03 
          3.8900232291e-01 5.3180299785e+00 8.1506554926e-05 
          4.2818026408e-01 5.5013287931e+00 -4.7264186662e-04 
          3.9379413052e-01 1.7222763569e+00 1.8883988359e-03 
          3.9341027920e-01 1.6468536511e+00 2.5756297949e-03 
          3.9212607091e-01 1.7190259704e+00 2.5404885929e-03 
          3.8960034781e-01 1.6438315797e+00 1.7325215619e-03 
          -4.2137150335e-01 -1.0665192217e+00 -6.2802806014e-04 
          -2.0724132722e+00 -5.9390358425e-01 2.5398790995e-03 
          -6.7613120099e-01 -9.4940656078e-01 -1.2764092440e-04 
          -1.2502031816e+00 -1.4864529240e+01 -2.0983086227e-03 
          -9.8719984309e-01 -2.3039295805e+00 1.2483737003e-02 
          -6.2552458725e-01 -8.8198140716e-01 5.4049667436e-03 
          -2.9788962436e-01 3.2292525565e-01 -2.9769437800e-04 
          -2.1469838247e+00 -2.1110958396e-01 -2.8505478917e-04 
          -6.8747641507e-01 -2.2160232727e-01 -1.0729845830e-04 
          7.7224338051e-01 -2.0269225355e+00 5.8467896940e-03 
          4.5204118039e-01 -2.2817793075e+00 6.4664664699e-03 
          -3.5024979675e-01 -1.1129438738e+00 5.1514132060e-03 
          -8.8473961395e-01 -3.3396363604e-01 6.7491676602e-04 
          3.8406419736e-01 3.7774656471e-01 -5.8966409930e-04 
          2.2466584874e-01 1.6545000028e-01 -1.1480161440e-04 
          -3.8354252292e-01 -6.2463369829e-01 6.6293109416e-03 
          -3.3769241897e-01 7.9974199495e-02 3.4621934427e-03 
          -1.4297090795e-01 -5.1879026515e-01 5.2501701041e-03 
          -8.0859579037e-01 8.6317252911e-03 -1.8129342309e-04 
          3.6464608748e-01 3.3274189122e-01 -9.1873595222e-04 
          3.1093040700e-01 6.5450356830e-01 -3.2203081256e-04 
          -7.7762138102e-01 -4.9760470001e-01 3.7819463326e-03 
          -5.6953963452e-01 -4.0451369471e-02 2.7606084954e-03 
          -2.6982362444e-01 -4.8008779403e-01 3.1698940896e-03 
        </DataArray>
        <DataArray type="Float64" Name="UnbalancedLoad" NumberOfComponents="3" format="ascii">
          0.0000000000e+00 0.0000000000e+00 -1.3921340610e+04 
          0.0000000000e+00 0.0000000000e+00 -1.4265206581e+04 
          0.0000000000e+00 0.0000000000e+00 -1.3920798485e+04 
          0.0000000000e+00 0.0000000000e+00 -2.2477490480e+04 
          0.0000000000e+00 0.0000000000e+00 -2.2477148033e+04 
          0.0000000000e+00 0.0000000000e+00 -1.5209103753e+04 
          0.0000000000e+00 0.0000000000e+00 -1.5211153559e+04 
          0.0000000000e+00 0.0000000000e+00 -1.1379945329e+04 
          0.0000000000e+00 0.0000000000e+00 -1.1381652700e+04 
          0.0000000000e+00 0.0000000000e+00 -1.4264664443e+04 
          0.0000000000e+00 0.0000000000e+00 -1.3921340610e+04 
          0.0000000000e+00 0.0000000000e+00 -2.2477490480e+04 
          0.0000000000e+00 0.0000000000e+00 -1.5211153559e+04 
          0.0000000000e+00 0.0000000000e+00 -1.5211153559e+04 
          0.0000000000e+00 0.0000000000e+00 -1.1381652700e+04 
          0.0000000000e+00 0.0000000000e+00 -1.4264664443e+04 
          0.0000000000e+00 0.0000000000e+00 -1.3921340610e+04 
          0.0000000000e+00 0.0000000000e+00 -2.2477490480e+04 
          0.0000000000e+00 0.0000000000e+00 -1.5211153559e+04 
          0.0000000000e+00 0.0000000000e+00 -1.5211153559e+04 
          0.0000000000e+00 0.0000000000e+00 -1.1381652700e+04 
          0.0000000000e+00 0.0000000000e+00 -1.4264664443e+04 
          0.0000000000e+00 0.0000000000e+00 -1.5211153559e+04 
          0.0000000000e+00 0.0000000000e+00 -1.5211153559e+04 
          0.0000000000e+00 0.0000000000e+00 -7.5827055256e+03 
          0.0000000000e+00 0.0000000000e+00 -7.5827055256e+03 
          0.0000000000e+00 0.0000000000e+00 -6.8488069364e+03 
          0.0000000000e+00 0.0000000000e+00 -6.8488069364e+03 
          0.0000000000e+00 0.0000000000e+00 -5.6378954330e+03 
          0.0000000000e+00 0.0000000000e+00 -5.6378954330e+03 
          0.0000000000e+00 0.0000000000e+00 -7.5827055256e+03 
          0.0000000000e+00 0.0000000000e+00 -6.8488069364e+03 
          0.0000000000e+00 0.0000000000e+00 -5.6378954330e+03 
          0.0000000000e+00 0.0000000000e+00 -7.5827055256e+03 
          0.0000000000e+00 0.0000000000e+00 -6.8488069364e+03 
          0.0000000000e+00 0.0000000000e+00 -5.6378954330e+03 
          0.0000000000e+00 0.0000000000e+00 -4.5398824365e+03 
          0.0000000000e+00 0.0000000000e+00 -4.5398824365e+03 
          0.0000000000e+00 0.0000000000e+00 -4.1075239547e+03 
          0.0000000000e+00 0.0000000000e+00 -4.1075239547e+03 
          0.0000000000e+00 0.0000000000e+00 -5.5972488893e+03 
          0.0000000000e+00 0.0000000000e+00 -5.5972488893e+03 
          0.0000000000e+00 0.0000000000e+00 -4.5398824365e+03 
          0.0000000000e+00 0.0000000000e+00 -4.1075239547e+03 
          0.0000000000e+00 0.0000000000e+00 -5.5972488893e+03 
          0.0000000000e+00 0.0000000000e+00 -4.5398824365e+03 
          0.0000000000e+00 0.0000000000e+00 -4.1075239547e+03 
          0.0000000000e+00 0.0000000000e+00 -5.5972488893e+03 
          0.0000000000e+00 0.0000000000e+00 -2.5818265996e+03 
          0.0000000000e+00 0.0000000000e+00 -2.5818265996e+03 
          0.0000000000e+00 0.0000000000e+00 -3.2280753095e+03 
          0.0000000000e+00 0.0000000000e+00 -2.6489506121e+03 
          0.0000000000e+00 0.0000000000e+00 -2.6489506121e+03 
          0.0000000000e+00 0.0000000000e+00 -1.4725737022e+03 
          0.0000000000e+00 0.0000000000e+00 -1.9853483298e+03 
          0.0000000000e+00 0.0000000000e+00 -1.9853483298e+03 
          0.0000000000e+00 0.0000000000e+00 -5.2757012629e+03 
          0.0000000000e+00 0.0000000000e+00 -5.2757012629e+03 
          0.0000000000e+00 0.0000000000e+00 -2.6315970397e+03 
          0.0000000000e+00 0.0000000000e+00 -4.8335028911e+03 
          0.0000000000e+00 0.0000000000e+00 -4.8335028911e+03 
          0.0000000000e+00 0.0000000000e+00 -2.6489506121e+03 
          0.0000000000e+00 0.0000000000e+00 -2.6489506121e+03 
          0.0000000000e+00 0.0000000000e+00 -1.4725737022e+03 
          0.0000000000e+00 0.0000000000e+00 -5.0473761777e+03 
          0.0000000000e+00 0.0000000000e+00 -5.0473761777e+03 
          0.0000000000e+00 0.0000000000e+00 -2.5818265996e+03 
          0.0000000000e+00 0.0000000000e+00 -4.8335028911e+03 
          0.0000000000e+00 0.0000000000e+00 -3.2280753095e+03 
          0.0000000000e+00 0.0000000000e+00 -1.9853483298e+03 
          0.0000000000e+00 0.0000000000e+00 -5.2757012629e+03 
          0.0000000000e+00 0.0000000000e+00 -2.6489506121e+03 
          0.0000000000e+00 0.0000000000e+00 -1.4725737022e+03 
          0.0000000000e+00 0.0000000000e+00 -2.6315970397e+03 
          0.0000000000e+00 0.0000000000e+00 -2.6489506121e+03 
          0.0000000000e+00 0.0000000000e+00 -1.4725737022e+03 
          0.0000000000e+00 0.0000000000e+00 -5.0473761777e+03 
          0.0000000000e+00 0.0000000000e+00 -1.4009156441e+03 
          0.0000000000e+00 0.0000000000e+00 -1.6928634509e+03 
          0.0000000000e+00 0.0000000000e+00 -1.6928634509e+03 
          0.0000000000e+00 0.0000000000e+00 -2.5818265996e+03 
          0.0000000000e+00 0.0000000000e+00 -4.8335028911e+03 
          0.0000000000e+00 0.0000000000e+00 -3.2280753095e+03 
          0.0000000000e+00 0.0000000000e+00 -1.9853483298e+03 
          0.0000000000e+00 0.0000000000e+00 -5.2757012629e+03 
          0.0000000000e+00 0.0000000000e+00 -2.6489506121e+03 
          0.0000000000e+00 0.0000000000e+00 -1.4725737022e+03 
          0.0000000000e+00 0.0000000000e+00 -2.6315970397e+03 
          0.0000000000e+00 0.0000000000e+00 -2.6489506121e+03 
          0.0000000000e+00 0.0000000000e+00 -1.4725737022e+03 
          0.0000000000e+00 0.0000000000e+00 -5.0473761777e+03 
          0.0000000000e+00 0.0000000000e+00 -3.2280753095e+03 
          0.0000000000e+00 0.0000000000e+00 -1.4725737022e+03 
          0.0000000000e+00 0.0000000000e+00 -2.6315970397e+03 
          0.0000000000e+00 0.0000000000e+00 -1.4725737022e+03 
          0.0000000000e+00 0.0000000000e+00 -1.4009156441e+03 
          0.0000000000e+00 0.0000000000e+00 -1.6928634509e+03 
          0.0000000000e+00 0.0000000000e+00 -1.6928634509e+03 
          0.0000000000e+00 0.0000000000e+00 -2.1887977201e+03 
          0.0000000000e+00 0.0000000000e+00 -2.1888138122e+03 
          0.0000000000e+00 0.0000000000e+00 -1.5536703320e+03 
          0.0000000000e+00 0.0000000000e+00 -2.1887977201e+03 
          0.0000000000e+00 0.0000000000e+00 -2.1888138122e+03 
          0.0000000000e+00 0.0000000000e+00 -1.5536703320e+03 
          0.0000000000e+00 0.0000000000e+00 -2.1888138122e+03 
          0.0000000000e+00 0.0000000000e+00 -1.5536703320e+03 
          0.0000000000e+00 0.0000000000e+00 -2.1888138122e+03 
          0.0000000000e+00 0.0000000000e+00 -1.5536703320e+03 
          0.0000000000e+00 0.0000000000e+00 -2.1887977201e+03 
          0.0000000000e+00 0.0000000000e+00 -2.1888138122e+03 
          0.0000000000e+00 0.0000000000e+00 -1.5536703320e+03 
          0.0000000000e+00 0.0000000000e+00 -2.1887977201e+03 
          0.0000000000e+00 0.0000000000e+00 -2.1888138122e+03 
          0.0000000000e+00 0.0000000000e+00 -1.5536703320e+03 
          0.0000000000e+00 0.0000000000e+00 -2.1888138122e+03 
          0.0000000000e+00 0.0000000000e+00 -1.5536703320e+03 
          0.0000000000e+00 0.0000000000e+00 -2.1888138122e+03 
          0.0000000000e+00 0.0000000000e+00 -1.5536703320e+03 
          0.0000000000e+00 0.0000000000e+00 -2.1887977201e+03 
          0.0000000000e+00 0.0000000000e+00 -2.1888138122e+03 
          0.0000000000e+00 0.0000000000e+00 -1.5536703320e+03 
          0.0000000000e+00 0.0000000000e+00 -2.1887977201e+03 
          0.0000000000e+00 0.0000000000e+00 -2.1888138122e+03 
          0.0000000000e+00 0.0000000000e+00 -1.5536703320e+03 
          0.0000000000e+00 0.0000000000e+00 -2.1888138122e+03 
          0.0000000000e+00 0.0000000000e+00 -1.5536703320e+03 
          0.0000000000e+00 0.0000000000e+00 -2.1888138122e+03 
          0.0000000000e+00 0.0000000000e+00 -1.5536703320e+03 
          0.0000000000e+00 0.0000000000e+00 -1.4042532743e+03 
          0.0000000000e+00 0.0000000000e+00 -1.4042532743e+03 
          0.0000000000e+00 0.0000000000e+00 -3.8386956387e+02 
          0.0000000000e+00 0.0000000000e+00 -3.8386956387e+02 
          0.0000000000e+00 0.0000000000e+00 -3.8386956387e+02 
          0.0000000000e+00 0.0000000000e+00 -3.8386956387e+02 
          0.0000000000e+00 0.0000000000e+00 -1.8678187837e+03 
          0.0000000000e+00 0.0000000000e+00 -1.6871798363e+03 
          0.0000000000e+00 0.0000000000e+00 -1.5210705044e+03 
          0.0000000000e+00 0.0000000000e+00 -1.8678187837e+03 
          0.0000000000e+00 0.0000000000e+00 -1.6871798363e+03 
          0.0000000000e+00 0.0000000000e+00 -1.5210705044e+03 
          0.0000000000e+00 0.0000000000e+00 -1.8678187837e+03 
          0.0000000000e+00 0.0000000000e+00 -1.6871798363e+03 
          0.0000000000e+00 0.0000000000e+00 -1.5210705044e+03 
          0.0000000000e+00 0.0000000000e+00 -1.8678187837e+03 
          0.0000000000e+00 0.0000000000e+00 -1.6871798363e+03 
          0.0000000000e+00 0.0000000000e+00 -1.5210705044e+03 
          0.0000000000e+00 0.0000000000e+00 -1.3715639002e+03 
          0.0000000000e+00 0.0000000000e+00 -1.2344303375e+03 
          0.0000000000e+00 0.0000000000e+00 -1.1189538247e+03 
          0.0000000000e+00 0.0000000000e+00 -1.3715639002e+03 
          0.0000000000e+00 0.0000000000e+00 -1.2344303375e+03 
          0.0000000000e+00 0.0000000000e+00 -1.1189538247e+03 
          0.0000000000e+00 0.0000000000e+00 -1.3715639002e+03 
          0.0000000000e+00 0.0000000000e+00 -1.2344303375e+03 
          0.0000000000e+00 0.0000000000e+00 -1.1189538247e+03 
          0.0000000000e+00 0.0000000000e+00 -1.3715639002e+03 
          0.0000000000e+00 0.0000000000e+00 -1.2344303375e+03 
          0.0000000000e+00 0.0000000000e+00 -1.1189538247e+03 
        </DataArray>
      </PointData>
      <CellData>
        <DataArray type="Int64" Name="ElementTag" format="ascii">
          0
        </DataArray>
      </CellData>
    </Piece>
  </UnstructuredGrid>
</VTKFile>
