<?xml version="1.0"?>
<VTKFile type="UnstructuredGrid" version="1.0" byte_order="LittleEndian" compressor="vtkZLibDataCompressor">
  <UnstructuredGrid>
    <Piece NumberOfPoints="158" NumberOfCells="1">
      <Points>
        <DataArray type="Float64" Name="Points" NumberOfComponents="3" format="ascii">
          1.7550000000e+00 -1.7550000000e+00 0.0000000000e+00 
          1.4140000000e+00 0.0000000000e+00 5.2300000000e+00 
          1.7550000000e+00 1.7550000000e+00 -0.0000000000e+00 
          1.4140000000e+00 -1.4140000000e+00 5.2300000000e+00 
          1.4140000000e+00 1.4140000000e+00 5.2300000000e+00 
          1.5840000000e+00 8.7800000000e-01 2.6150000000e+00 
          1.5840000000e+00 -8.7700000000e-01 2.6150000000e+00 
          1.5840000000e+00 1.5840000000e+00 2.6150000000e+00 
          1.5840000000e+00 -1.5840000000e+00 2.6150000000e+00 
          -0.0000000000e+00 1.4140000000e+00 5.2300000000e+00 
          -1.7550000000e+00 1.7550000000e+00 -0.0000000000e+00 
          -1.4140000000e+00 1.4140000000e+00 5.2300000000e+00 
          -8.7700000000e-01 1.5840000000e+00 2.6150000000e+00 
          8.7700000000e-01 1.5840000000e+00 2.6150000000e+00 
          -1.5840000000e+00 1.5840000000e+00 2.6150000000e+00 
          -1.4140000000e+00 -0.0000000000e+00 5.2300000000e+00 
          -1.7550000000e+00 -1.7550000000e+00 -0.0000000000e+00 
          -1.4140000000e+00 -1.4140000000e+00 5.2300000000e+00 
          -1.5840000000e+00 -8.7700000000e-01 2.6150000000e+00 
          -1.5840000000e+00 8.7700000000e-01 2.6150000000e+00 
          -1.5840000000e+00 -1.5840000000e+00 2.6150000000e+00 
          0.0000000000e+00 -1.4140000000e+00 5.2300000000e+00 
          8.7700000000e-01 -1.5840000000e+00 2.6150000000e+00 
          -8.7700000000e-01 -1.5840000000e+00 2.6150000000e+00 
          1.2750000000e+00 1.2750000000e+00 7.3500000000e+00 
          1.2750000000e+00 -1.2750000000e+00 7.3500000000e+00 
          1.1500000000e+00 -1.1500000000e+00 9.2700000000e+00 
          1.1500000000e+00 1.1500000000e+00 9.2700000000e+00 
          1.0370000000e+00 -1.0370000000e+00 1.1000000000e+01 
          1.0370000000e+00 1.0370000000e+00 1.1000000000e+01 
          -1.2750000000e+00 1.2750000000e+00 7.3500000000e+00 
          -1.1500000000e+00 1.1500000000e+00 9.2700000000e+00 
          -1.0370000000e+00 1.0370000000e+00 1.1000000000e+01 
          -1.2750000000e+00 -1.2750000000e+00 7.3500000000e+00 
          -1.1500000000e+00 -1.1500000000e+00 9.2700000000e+00 
          -1.0370000000e+00 -1.0370000000e+00 1.1000000000e+01 
          9.3500000000e-01 9.3500000000e-01 1.2560000000e+01 
          9.3500000000e-01 -9.3500000000e-01 1.2560000000e+01 
          8.4300000000e-01 8.4300000000e-01 1.3960000000e+01 
          8.4300000000e-01 -8.4300000000e-01 1.3960000000e+01 
          7.6000000000e-01 7.6000000000e-01 1.5240000000e+01 
          7.6000000000e-01 -7.6000000000e-01 1.5240000000e+01 
          -9.3500000000e-01 9.3500000000e-01 1.2560000000e+01 
          -8.4300000000e-01 8.4300000000e-01 1.3960000000e+01 
          -7.6000000000e-01 7.6000000000e-01 1.5240000000e+01 
          -9.3500000000e-01 -9.3500000000e-01 1.2560000000e+01 
          -8.4300000000e-01 -8.4300000000e-01 1.3960000000e+01 
          -7.6000000000e-01 -7.6000000000e-01 1.5240000000e+01 
          7.6000000000e-01 -7.6000000000e-01 1.6240000000e+01 
          7.6000000000e-01 7.6000000000e-01 1.6240000000e+01 
          7.6000000000e-01 0.0000000000e+00 1.6240000000e+01 
          7.6000000000e-01 7.6000000000e-01 1.7340000000e+01 
          7.6000000000e-01 -7.6000000000e-01 1.7340000000e+01 
          7.6000000000e-01 0.0000000000e+00 1.7890000000e+01 
          7.6000000000e-01 -7.6000000000e-01 1.9440000000e+01 
          7.6000000000e-01 7.6000000000e-01 1.9440000000e+01 
          7.6000000000e-01 -7.6000000000e-01 2.1640000000e+01 
          7.6000000000e-01 7.6000000000e-01 2.1640000000e+01 
          7.6000000000e-01 0.0000000000e+00 1.9440000000e+01 
          7.6000000000e-01 7.6000000000e-01 1.8440000000e+01 
          7.6000000000e-01 -7.6000000000e-01 1.8440000000e+01 
          7.6000000000e-01 -7.6000000000e-01 2.0540000000e+01 
          7.6000000000e-01 7.6000000000e-01 2.0540000000e+01 
          7.6000000000e-01 0.0000000000e+00 2.1090000000e+01 
          7.6000000000e-01 7.6000000000e-01 2.2640000000e+01 
          7.6000000000e-01 -7.6000000000e-01 2.2640000000e+01 
          -7.6000000000e-01 7.6000000000e-01 1.6240000000e+01 
          -7.6000000000e-01 7.6000000000e-01 1.8440000000e+01 
          -0.0000000000e+00 7.6000000000e-01 1.6240000000e+01 
          -7.6000000000e-01 7.6000000000e-01 1.9440000000e+01 
          -7.6000000000e-01 7.6000000000e-01 2.1640000000e+01 
          -7.6000000000e-01 7.6000000000e-01 1.7340000000e+01 
          -0.0000000000e+00 7.6000000000e-01 1.7890000000e+01 
          -0.0000000000e+00 7.6000000000e-01 1.9440000000e+01 
          -7.6000000000e-01 7.6000000000e-01 2.0540000000e+01 
          0.0000000000e+00 7.6000000000e-01 2.1090000000e+01 
          -7.6000000000e-01 7.6000000000e-01 2.2640000000e+01 
          -0.0000000000e+00 5.2600000000e-01 2.3499000000e+01 
          3.9900000000e-01 4.0400000000e-01 2.3950000000e+01 
          -3.9900000000e-01 4.0400000000e-01 2.3950000000e+01 
          -7.6000000000e-01 -7.6000000000e-01 1.6240000000e+01 
          -7.6000000000e-01 -7.6000000000e-01 1.8440000000e+01 
          -7.6000000000e-01 -0.0000000000e+00 1.6240000000e+01 
          -7.6000000000e-01 -7.6000000000e-01 1.9440000000e+01 
          -7.6000000000e-01 -7.6000000000e-01 2.1640000000e+01 
          -7.6000000000e-01 -7.6000000000e-01 1.7340000000e+01 
          -7.6000000000e-01 0.0000000000e+00 1.7890000000e+01 
          -7.6000000000e-01 -0.0000000000e+00 1.9440000000e+01 
          -7.6000000000e-01 -7.6000000000e-01 2.0540000000e+01 
          -7.6000000000e-01 -0.0000000000e+00 2.1090000000e+01 
          -7.6000000000e-01 -7.6000000000e-01 2.2640000000e+01 
          0.0000000000e+00 -7.6000000000e-01 1.6240000000e+01 
          0.0000000000e+00 -7.6000000000e-01 1.7890000000e+01 
          0.0000000000e+00 -7.6000000000e-01 1.9440000000e+01 
          0.0000000000e+00 -7.6000000000e-01 2.1090000000e+01 
          0.0000000000e+00 -5.2600000000e-01 2.3499000000e+01 
          3.9900000000e-01 -4.0400000000e-01 2.3950000000e+01 
          -3.9900000000e-01 -4.0400000000e-01 2.3950000000e+01 
          -0.0000000000e+00 -3.3500000000e+00 2.1640000000e+01 
          -3.8000000000e-01 -2.0550000000e+00 2.2140000000e+01 
          -3.8000000000e-01 -2.0550000000e+00 2.1640000000e+01 
          0.0000000000e+00 3.3500000000e+00 2.1640000000e+01 
          -3.8000000000e-01 2.0550000000e+00 2.2140000000e+01 
          -3.8000000000e-01 2.0550000000e+00 2.1640000000e+01 
          3.8000000000e-01 2.0550000000e+00 2.2140000000e+01 
          3.8000000000e-01 2.0550000000e+00 2.1640000000e+01 
          3.8000000000e-01 -2.0550000000e+00 2.2140000000e+01 
          3.8000000000e-01 -2.0550000000e+00 2.1640000000e+01 
          -0.0000000000e+00 -3.3500000000e+00 1.8440000000e+01 
          -3.8000000000e-01 -2.0550000000e+00 1.8940000000e+01 
          -3.8000000000e-01 -2.0550000000e+00 1.8440000000e+01 
          -0.0000000000e+00 3.3500000000e+00 1.8440000000e+01 
          -3.8000000000e-01 2.0550000000e+00 1.8940000000e+01 
          -3.8000000000e-01 2.0550000000e+00 1.8440000000e+01 
          3.8000000000e-01 2.0550000000e+00 1.8940000000e+01 
          3.8000000000e-01 2.0550000000e+00 1.8440000000e+01 
          3.8000000000e-01 -2.0550000000e+00 1.8940000000e+01 
          3.8000000000e-01 -2.0550000000e+00 1.8440000000e+01 
          -0.0000000000e+00 -3.3500000000e+00 1.5240000000e+01 
          -3.8000000000e-01 -2.0550000000e+00 1.5740000000e+01 
          -3.8000000000e-01 -2.0550000000e+00 1.5240000000e+01 
          -0.0000000000e+00 3.3500000000e+00 1.5240000000e+01 
          -3.8000000000e-01 2.0550000000e+00 1.5740000000e+01 
          -3.8000000000e-01 2.0550000000e+00 1.5240000000e+01 
          3.8000000000e-01 2.0550000000e+00 1.5740000000e+01 
          3.8000000000e-01 2.0550000000e+00 1.5240000000e+01 
          3.8000000000e-01 -2.0550000000e+00 1.5740000000e+01 
          3.8000000000e-01 -2.0550000000e+00 1.5240000000e+01 
          -5.2400000000e-01 0.0000000000e+00 2.3496000000e+01 
          5.2400000000e-01 0.0000000000e+00 2.3496000000e+01 
          4.0000000000e-02 5.0000000000e-02 2.5250000000e+01 
          -4.0000000000e-02 5.0000000000e-02 2.5250000000e+01 
          -4.0000000000e-02 -5.0000000000e-02 2.5250000000e+01 
          4.0000000000e-02 -5.0000000000e-02 2.5250000000e+01 
          1.3410000000e+00 0.0000000000e+00 6.3450000000e+00 
          1.2090000000e+00 0.0000000000e+00 8.3600000000e+00 
          1.0900000000e+00 -0.0000000000e+00 1.0180000000e+01 
          -0.0000000000e+00 1.3410000000e+00 6.3450000000e+00 
          0.0000000000e+00 1.2090000000e+00 8.3600000000e+00 
          -0.0000000000e+00 1.0900000000e+00 1.0180000000e+01 
          -1.3410000000e+00 0.0000000000e+00 6.3450000000e+00 
          -1.2090000000e+00 0.0000000000e+00 8.3600000000e+00 
          -1.0900000000e+00 -0.0000000000e+00 1.0180000000e+01 
          -0.0000000000e+00 -1.3410000000e+00 6.3450000000e+00 
          0.0000000000e+00 -1.2090000000e+00 8.3600000000e+00 
          0.0000000000e+00 -1.0900000000e+00 1.0180000000e+01 
          9.8300000000e-01 0.0000000000e+00 1.1820000000e+01 
          8.8700000000e-01 0.0000000000e+00 1.3296000000e+01 
          8.0000000000e-01 -0.0000000000e+00 1.4633000000e+01 
          0.0000000000e+00 9.8300000000e-01 1.1820000000e+01 
          -0.0000000000e+00 8.8700000000e-01 1.3296000000e+01 
          0.0000000000e+00 8.0000000000e-01 1.4633000000e+01 
          -9.8300000000e-01 0.0000000000e+00 1.1820000000e+01 
          -8.8700000000e-01 0.0000000000e+00 1.3296000000e+01 
          -8.0000000000e-01 0.0000000000e+00 1.4633000000e+01 
          0.0000000000e+00 -9.8300000000e-01 1.1820000000e+01 
          0.0000000000e+00 -8.8700000000e-01 1.3296000000e+01 
          0.0000000000e+00 -8.0000000000e-01 1.4633000000e+01 
        </DataArray>
      </Points>
      <Cells>
        <DataArray type="Int64" Name="connectivity" format="ascii">
          0
          1
          2
          3
          4
          5
          6
          7
          8
          9
          10
          11
          12
          13
          14
          15
          16
          17
          18
          19
          20
          21
          22
          23
          24
          25
          26
          27
          28
          29
          30
          31
          32
          33
          34
          35
          36
          37
          38
          39
          40
          41
          42
          43
          44
          45
          46
          47
          48
          49
          50
          51
          52
          53
          54
          55
          56
          57
          58
          59
          60
          61
          62
          63
          64
          65
          66
          67
          68
          69
          70
          71
          72
          73
          74
          75
          76
          77
          78
          79
          80
          81
          82
          83
          84
          85
          86
          87
          88
          89
          90
          91
          92
          93
          94
          95
          96
          97
          98
          99
          100
          101
          102
          103
          104
          105
          106
          107
          108
          109
          110
          111
          112
          113
          114
          115
          116
          117
          118
          119
          120
          121
          122
          123
          124
          125
          126
          127
          128
          129
          130
          131
          132
          133
          134
          135
          136
          137
          138
          139
          140
          141
          142
          143
          144
          145
          146
          147
          148
          149
          150
          151
          152
          153
          154
          155
          156
          157
        </DataArray>
        <DataArray type="Int64" Name="offsets" format="ascii">
          158
        </DataArray>
        <DataArray type="Int64" Name="types" format="ascii">
          2
        </DataArray>
      </Cells>
      <PointData>
        <DataArray type="Int64" Name="NodeTag" format="ascii">
          1
          2
          3
          4
          5
          6
          7
          8
          9
          10
          11
          12
          13
          14
          15
          16
          17
          18
          19
          20
          21
          22
          23
          24
          25
          26
          27
          28
          29
          30
          31
          32
          33
          34
          35
          36
          37
          38
          39
          40
          41
          42
          43
          44
          45
          46
          47
          48
          49
          50
          51
          52
          53
          54
          55
          56
          57
          58
          59
          60
          61
          62
          63
          64
          65
          66
          67
          68
          69
          70
          71
          72
          73
          74
          75
          76
          77
          78
          79
          80
          81
          82
          83
          84
          85
          86
          87
          88
          89
          90
          91
          92
          93
          94
          95
          96
          97
          98
          99
          100
          101
          102
          103
          104
          105
          106
          107
          108
          109
          110
          111
          112
          113
          114
          115
          116
          117
          118
          119
          120
          121
          122
          123
          124
          125
          126
          127
          128
          129
          130
          131
          132
          133
          134
          135
          136
          137
          138
          139
          140
          141
          142
          143
          144
          145
          146
          147
          148
          149
          150
          151
          152
          153
          154
          155
          156
          157
          158
        </DataArray>
        <DataArray type="Float64" Name="Displacement" NumberOfComponents="3" format="ascii">
          0.0000000000e+00 0.0000000000e+00 0.0000000000e+00 
          -8.8303636665e-04 -1.5643184418e-05 -5.5414053224e-04 
          0.0000000000e+00 0.0000000000e+00 0.0000000000e+00 
          -1.6964424776e-05 4.0052985780e-06 -2.7503331940e-03 
          -1.8025518968e-05 -3.5721641167e-05 -2.7330614937e-03 
          -4.2450934560e-03 -4.3931583915e-03 -2.0913096397e-03 
          -4.2724438988e-03 4.3988245212e-03 -2.1005851357e-03 
          -4.3699889141e-03 -4.3862476915e-03 -2.0277430277e-03 
          -4.3998441595e-03 4.3918324177e-03 -2.0398244036e-03 
          1.5980523084e-06 -8.9523304927e-04 -5.5544011793e-04 
          0.0000000000e+00 0.0000000000e+00 0.0000000000e+00 
          2.1299849384e-05 -3.2867361538e-05 -2.7334076102e-03 
          4.3802626308e-03 -4.2542822354e-03 -2.0900890041e-03 
          -4.3769077547e-03 -4.2592310601e-03 -2.0898462922e-03 
          4.3733484253e-03 -4.3813163020e-03 -2.0277789439e-03 
          8.8773679653e-04 -1.2706691635e-05 -5.5581644186e-04 
          0.0000000000e+00 0.0000000000e+00 0.0000000000e+00 
          2.2136061371e-05 6.9108644409e-06 -2.7504232235e-03 
          4.2762138795e-03 4.3992524218e-03 -2.1011334888e-03 
          4.2482571545e-03 -4.3882264804e-03 -2.0909060877e-03 
          4.4033942470e-03 4.3922650240e-03 -2.0398901170e-03 
          2.5260865287e-06 8.7155130696e-04 -5.5581933046e-04 
          -4.4068406670e-03 4.2641763384e-03 -2.1018032706e-03 
          4.4103853884e-03 4.2644831799e-03 -2.1021335375e-03 
          6.2154901473e-04 5.9301579840e-04 -3.6909730132e-03 
          6.3006253470e-04 -6.6975227369e-04 -3.7150328448e-03 
          1.1365725557e-04 -1.5612354945e-04 -4.6571311222e-03 
          1.0983373722e-04 2.6878700139e-05 -4.6281100763e-03 
          3.7464809047e-04 -4.8937384139e-04 -5.3205309550e-03 
          3.6781029720e-04 3.0401765271e-04 -5.2891427114e-03 
          -6.1784759611e-04 5.9587076001e-04 -3.6910636494e-03 
          -1.0569667562e-04 2.9795364585e-05 -4.6280776224e-03 
          -3.6336524436e-04 3.0666088683e-04 -5.2891139644e-03 
          -6.2229338069e-04 -6.6663030241e-04 -3.7150884141e-03 
          -1.0392591362e-04 -1.5324476625e-04 -4.6572938985e-03 
          -3.6370296856e-04 -4.8679151016e-04 -5.3208768366e-03 
          2.0633902309e-04 3.5326589529e-05 -6.0654950368e-03 
          2.1139728625e-04 -2.7965854110e-04 -6.0994242421e-03 
          2.7392281229e-04 1.9731272190e-04 -6.6716642693e-03 
          2.7962138320e-04 -5.0130585920e-04 -6.7064109641e-03 
          8.0167757155e-05 -2.3047240006e-04 -7.2167924495e-03 
          8.4018073797e-05 -1.3319387748e-04 -7.2514302797e-03 
          -2.0172416135e-04 3.7545738265e-05 -6.0655769412e-03 
          -2.6950811853e-04 1.9905211293e-04 -6.6719360729e-03 
          -7.6418659712e-05 -2.2941946831e-04 -7.2173034081e-03 
          -1.9987352033e-04 -2.7755692060e-04 -6.1000172380e-03 
          -2.6824677355e-04 -4.9982176240e-04 -6.7072202360e-03 
          -7.3404614562e-05 -1.3217980323e-04 -7.2523991054e-03 
          -9.8807612260e-06 -2.6316564490e-04 -7.8869877826e-03 
          -1.3014687297e-05 -1.5057516598e-04 -7.8480914088e-03 
          5.9674721398e-05 -2.0685552105e-04 -7.5248990422e-03 
          8.6093069323e-04 7.4843857705e-04 -8.4385154814e-03 
          8.6936978386e-04 -1.2299534567e-03 -8.4822528482e-03 
          4.4677715562e-04 -2.5720561749e-04 -9.6870122074e-03 
          -2.9524685090e-05 -4.1844009398e-04 -9.7845952241e-03 
          -3.2556300580e-05 -1.9687823203e-04 -9.7355832193e-03 
          1.1508546462e-05 -2.6159397883e-04 -1.0589829858e-02 
          8.9758308755e-06 -5.0379979970e-04 -1.0538536922e-02 
          4.2709194461e-05 -3.0766213605e-04 -9.5061493246e-03 
          2.8027466517e-05 -3.8111443791e-04 -9.3568804870e-03 
          3.0854210367e-05 -1.6919785516e-04 -9.4046418785e-03 
          4.7950282378e-04 -9.5608847884e-04 -1.0102881295e-02 
          4.7503315130e-04 2.6542639280e-04 -1.0052411099e-02 
          2.4343789076e-04 -3.6384430331e-04 -1.0839163275e-02 
          7.4397065145e-06 -2.6865001884e-04 -1.0715070597e-02 
          9.8729605535e-06 -5.6491947031e-04 -1.0766544052e-02 
          1.6334028824e-05 -1.4987715362e-04 -7.8491312373e-03 
          -2.9427899326e-05 -3.8108945217e-04 -9.3590405640e-03 
          1.6501540602e-06 -9.3095083669e-05 -7.5962646971e-03 
          2.8310284051e-05 -1.9694421128e-04 -9.7381262358e-03 
          -2.1840429243e-05 -5.0447550901e-04 -1.0541759428e-02 
          -8.5968412765e-04 7.4943220584e-04 -8.4399994242e-03 
          8.3476157604e-08 1.8194351866e-04 -9.4849629955e-03 
          -2.1279316274e-06 -1.6759496955e-04 -9.5780307336e-03 
          -4.8343848444e-04 2.6561696867e-04 -1.0055257060e-02 
          -5.2493526315e-06 -1.2114764926e-04 -1.0632191019e-02 
          -2.4591276454e-05 -2.6940045175e-04 -1.0718451538e-02 
          -1.0325042618e-05 -6.0435535774e-04 -1.0871080081e-02 
          -1.2721261398e-05 -4.7170920743e-04 -1.0844671207e-02 
          -9.9702577633e-06 -4.7193706729e-04 -1.0846526225e-02 
          1.9471452610e-05 -2.6245796222e-04 -7.8883874833e-03 
          -2.6026921255e-05 -1.6913795396e-04 -9.4070242187e-03 
          -5.2955402168e-05 -2.0616048599e-04 -7.5258675772e-03 
          3.1326494910e-05 -4.1852122946e-04 -9.7874014897e-03 
          -1.8992976651e-05 -2.6216621166e-04 -1.0593455087e-02 
          -8.6183113724e-04 -1.2302474583e-03 -8.4840063613e-03 
          -4.4320599756e-04 -2.5701569720e-04 -9.6894095680e-03 
          -4.3472033399e-05 -3.0774021888e-04 -9.5086047692e-03 
          -4.8213468165e-04 -9.5690664933e-04 -1.0106031188e-02 
          -2.5064971348e-04 -3.6429300907e-04 -1.0842754063e-02 
          -2.2373031509e-05 -5.6587426758e-04 -1.0770440971e-02 
          4.8042145622e-06 -3.2362841845e-04 -7.6339728203e-03 
          3.2085113608e-06 -7.0065524734e-04 -9.5346431369e-03 
          9.0267315580e-07 -4.5222695505e-04 -9.6266233277e-03 
          -2.4393088497e-06 -6.1014335007e-04 -1.0684434696e-02 
          -8.6239756419e-06 -2.9239234358e-04 -1.0905913964e-02 
          -1.1271374415e-05 -4.5204412692e-04 -1.0872019382e-02 
          -8.7580132471e-06 -4.5229667381e-04 -1.0874325717e-02 
          -2.1278415445e-06 -1.0471082792e-04 -1.2848889283e-02 
          -1.5831198955e-06 -4.8926524196e-04 -1.1620196784e-02 
          1.1625372512e-07 -1.7862330109e-04 -1.1635080106e-02 
          -7.5882158969e-06 -6.6138165113e-04 -1.2621181138e-02 
          -9.6374023424e-06 -3.1005495377e-04 -1.1479979461e-02 
          -7.8904010811e-06 -5.8661114646e-04 -1.1494886490e-02 
          -1.0788377402e-05 -3.1088069774e-04 -1.1477947716e-02 
          -6.7986882772e-06 -5.8649313090e-04 -1.1492832169e-02 
          -2.7859989244e-06 -4.9017518144e-04 -1.1617553369e-02 
          1.2669180525e-06 -1.8044194714e-04 -1.1632420454e-02 
          2.8721890251e-06 -9.1558136633e-06 -1.1767063204e-02 
          4.5207751371e-06 -4.1291556706e-04 -1.0489089570e-02 
          5.2269642017e-06 -8.2664741445e-05 -1.0503957254e-02 
          -7.0530082496e-07 -5.4136258950e-04 -1.1551093969e-02 
          -2.7427196364e-06 -1.6892985249e-04 -1.0356430053e-02 
          -1.9252318958e-06 -4.6663505776e-04 -1.0371321317e-02 
          -4.1138404585e-06 -1.7007040053e-04 -1.0354988546e-02 
          -6.7075518566e-07 -4.6700838513e-04 -1.0369862865e-02 
          3.0673041114e-06 -4.1412825141e-04 -1.0487219332e-02 
          6.5739544322e-06 -8.4585351242e-05 -1.0502074550e-02 
          4.2719959999e-06 4.1323560816e-05 -9.5850635873e-03 
          6.7976172099e-06 -3.5600996715e-04 -8.3234083142e-03 
          6.7565287868e-06 -3.1980061751e-05 -8.3382777531e-03 
          3.4688248295e-06 -4.0404373052e-04 -9.4166389381e-03 
          1.5829722518e-06 -3.1087863727e-05 -8.2208288703e-03 
          1.6732463231e-06 -3.2926136989e-04 -8.2357194576e-03 
          2.4964754338e-07 -3.2481717589e-05 -8.2203743378e-03 
          2.9956840236e-06 -3.2998941043e-04 -8.2352490630e-03 
          5.3907565882e-06 -3.5746615143e-04 -8.3221521853e-03 
          8.1676633884e-06 -3.4033727376e-05 -8.3370140591e-03 
          1.7430012107e-04 -4.4664996048e-04 -1.0932611026e-02 
          -1.9055804919e-04 -4.4624679126e-04 -1.0929186973e-02 
          -1.0635660344e-05 -5.0766028195e-04 -1.0872747142e-02 
          -1.0380436211e-05 -5.0751656435e-04 -1.0875113948e-02 
          -1.0369151798e-05 -5.0733586007e-04 -1.0878292678e-02 
          -1.0634074645e-05 -5.0719047856e-04 -1.0875932475e-02 
          -1.1989974220e-03 -2.5880729608e-05 -2.9715280200e-03 
          -6.2886007792e-04 -5.0739758237e-05 -4.6245837191e-03 
          -4.0990576398e-04 -7.8289169759e-05 -4.8632817737e-03 
          1.7126064522e-06 -1.2524591110e-03 -2.9710032058e-03 
          1.9482281573e-06 -7.0879044673e-04 -4.5948994092e-03 
          2.1502542027e-06 -4.9934473426e-04 -4.8794073157e-03 
          1.2124298456e-03 -2.2925390521e-05 -2.9722916347e-03 
          6.4063714312e-04 -4.7767884389e-05 -4.6249135332e-03 
          4.2035752392e-04 -7.5509896466e-05 -4.8635900975e-03 
          3.2763520073e-06 1.1505558269e-03 -2.9842823210e-03 
          4.4396011298e-06 5.6358947251e-04 -4.6219201512e-03 
          5.2402283426e-06 3.0507409093e-04 -4.9055351733e-03 
          -1.5303034263e-04 -1.0704974994e-04 -5.9061789554e-03 
          -4.7051807786e-05 -1.3700099994e-04 -6.3082033043e-03 
          -4.7488892520e-06 -1.6701668634e-04 -7.2456031228e-03 
          2.2875433702e-06 -2.8840124884e-04 -5.8413276627e-03 
          2.2932041348e-06 -1.6287249037e-04 -6.3699940253e-03 
          2.0824680174e-06 -2.3173095000e-04 -7.1010985402e-03 
          1.6332712847e-04 -1.0464474772e-04 -5.9065680860e-03 
          5.6637090771e-05 -1.3511919578e-04 -6.3087033856e-03 
          1.3474419909e-05 -1.6572073726e-04 -7.2463898410e-03 
          5.6969262888e-06 4.8736880014e-05 -5.8736550497e-03 
          5.7927439796e-06 -1.2912768178e-04 -6.4029230735e-03 
          5.5482388458e-06 -1.1581758873e-04 -7.1362199693e-03 
        </DataArray>
        <DataArray type="Float64" Name="Reaction" NumberOfComponents="3" format="ascii">
          -4.0192667208e+04 4.0248909903e+04 4.9597966553e+05 
          -1.0423245839e+00 9.6021675812e-01 5.7342622851e-02 
          -3.9951451855e+04 -3.9827362018e+04 4.9277584999e+05 
          -1.0569722287e+00 1.6953552337e+00 -1.8265729056e-02 
          -4.2129767786e-01 1.5233561519e+00 1.6024918194e-01 
          -2.4010791652e+00 -1.1400212796e+00 -6.8145887113e-02 
          1.0798121069e-02 -2.5514301483e-01 -5.1213469019e-03 
          -1.3466915173e+00 -7.0434747295e-01 -5.9987292602e-03 
          5.4905688713e-01 -2.9629464139e-01 -1.9684554622e-03 
          -2.1554082247e-01 1.0631979715e-01 1.0317681680e-01 
          3.9902387113e+04 -3.9805228936e+04 4.9255830091e+05 
          -2.6559425174e-01 1.7248183354e+00 1.6910414614e-01 
          2.0068566903e+00 -1.7633115340e+00 -6.9339641296e-02 
          -1.9926582194e+00 -1.5995491418e+00 -6.3939444811e-02 
          1.3505586811e+00 -7.1873199447e-01 -9.1490630593e-03 
          2.3326824146e-01 1.0830662044e+00 6.0247534352e-02 
          4.0126918366e+04 4.0243364173e+04 4.9579316521e+05 
          -8.2650862662e-01 1.9046172112e+00 -1.9148391900e-02 
          -7.7735586354e-01 2.9996565648e-02 -3.8628583949e-03 
          2.4465561026e+00 -1.1510984860e+00 -7.4536021664e-02 
          -1.1267086450e+00 -7.2630062216e-02 -1.0392882000e-03 
          -5.9484928502e-01 1.2061641843e+00 4.1227048935e-03 
          6.0686733820e-01 8.1087768932e-02 -4.3279798210e-03 
          -1.3670966249e+00 6.0122788389e-01 -3.0040389177e-03 
          -2.3710934608e-01 1.4017722325e+00 -1.3127145284e-02 
          -7.5504941981e-01 1.8431859565e+00 -3.6973905891e-02 
          -3.5736302505e-01 2.5945008398e+00 -1.9982756769e-02 
          -1.2203327941e-01 2.8199811568e+00 -3.2336802601e-02 
          -2.9717318745e-01 3.1633767928e+00 -2.2431008088e-02 
          -1.0490412955e-01 3.5780837340e+00 5.0472291785e-04 
          -8.0036395199e-02 1.4538436678e+00 -1.1517190295e-02 
          -4.0262673516e-01 2.7767355618e+00 -3.3658990262e-02 
          -5.4222031506e-01 3.5601059095e+00 1.4206669280e-03 
          3.0272105945e-02 1.8389907768e+00 -3.8189043442e-02 
          -4.7595620543e-01 2.6062641334e+00 -1.9033574450e-02 
          -5.2156162324e-01 3.1284685253e+00 -2.2911993016e-02 
          -1.4058883819e-01 3.8926710304e+00 -3.6729694290e-02 
          -2.1254806190e-01 3.3463328491e+00 -2.8809304689e-02 
          -1.8149268497e-01 4.3003320013e+00 -1.6613889723e-02 
          -2.2876926324e-01 3.8639416964e+00 -5.0682514347e-02 
          -5.6382474444e-01 6.3868271984e+00 -2.3558460308e-03 
          -5.5895474797e-01 6.8686922950e+00 2.2692927590e-02 
          -5.8274855836e-01 3.8523210608e+00 -3.7177102163e-02 
          -7.1794228874e-01 4.2459902058e+00 -1.6559907261e-02 
          -4.4342738143e-01 6.3443114835e+00 -2.7659750872e-03 
          -5.5064646853e-01 3.3103441977e+00 -2.8294004131e-02 
          -6.5498758571e-01 3.8951273413e+00 -5.0317150507e-02 
          -3.4873702165e-01 6.8752743534e+00 2.3624261617e-02 
          -7.6732306863e-02 3.3218225162e+00 -1.2233368424e-02 
          -9.7726026315e-02 3.6086062671e+00 -3.4983382234e-02 
          -3.4526708601e-01 4.2837950215e+00 -6.7641484115e-02 
          6.8799673108e-01 4.6474548080e+00 1.1349250979e-01 
          5.8775916800e-01 3.7670540459e+00 -6.6415314872e-03 
          -4.6618611562e-02 2.5518743693e+00 -2.1473174072e-02 
          -1.1462369741e-01 4.0422419332e+00 2.1470610787e-02 
          -1.5138523317e-01 4.0854922368e+00 1.5948705898e-02 
          4.0362256055e-01 1.3518811563e+01 -9.5839329690e-03 
          3.3105349541e-01 1.3548660444e+01 -5.5229220483e-02 
          1.6129455708e-02 5.3656506740e+00 -3.3763835100e-02 
          -7.1744698089e-02 8.7054070397e+00 -1.3866870750e-01 
          4.4137339815e-02 8.9200896268e+00 -8.3726298858e-02 
          4.2588767274e-01 5.5936307492e+00 3.5211114079e-02 
          4.3559420639e-01 6.6876086324e+00 1.1924239738e-01 
          9.2679450599e-02 3.6333354882e+00 -5.6681901759e-03 
          6.5715445010e-01 1.4264316839e+01 1.1658512970e-02 
          6.8845653867e-01 1.3908264039e+01 -1.5327673639e-02 
          -1.1254582021e-01 3.5950019277e+00 -3.3330695997e-02 
          -3.6310324134e-01 8.6620737095e+00 -1.3706477574e-01 
          -1.3649252549e-01 4.3420899604e+00 -6.0857768915e-02 
          -2.1042919741e-01 4.1082468899e+00 1.7468340839e-02 
          3.7889810340e-02 1.3586701037e+01 -5.3066745729e-02 
          -8.3442388168e-01 4.7696552643e+00 1.0687917053e-01 
          -4.8350861825e-02 2.4493599888e+00 5.5519769832e-03 
          -2.1410949348e-01 5.5685517224e+00 -2.2305081265e-02 
          -4.9243547474e-01 6.5775610925e+00 1.1504737018e-01 
          1.5621272873e-02 3.4709396931e+00 4.6305354698e-03 
          9.5430621748e-02 1.4268608103e+01 1.5693389169e-02 
          2.0373832054e-01 4.1673373466e+00 2.8467338617e-02 
          3.0790194227e-01 5.3707730563e+00 1.7203847112e-01 
          3.3213382185e-01 5.4166075594e+00 1.7348829669e-01 
          -7.9717863566e-02 3.3530999042e+00 -1.3464620740e-02 
          -2.8780892776e-01 9.0368224056e+00 -8.3738523407e-02 
          -3.6426927551e-01 4.3003035453e+00 -6.7289330335e-02 
          -1.6603002390e-01 4.0516576092e+00 2.0285511267e-02 
          8.7145144956e-02 1.3614745094e+01 -8.9977915748e-03 
          -6.5466024886e-01 3.7061926085e+00 -2.5544665783e-04 
          -1.4151184073e-01 2.5642226631e+00 -2.1769126960e-02 
          1.2816605204e-02 5.3950000589e+00 -3.3609118766e-02 
          -3.9739088156e-01 5.7987797543e+00 3.9997202195e-02 
          4.5515329399e-02 3.6550931388e+00 -5.6881298477e-03 
          1.1700225896e-01 1.3991442214e+01 -1.6237360376e-02 
          -1.0239925863e-01 4.2794159418e+00 -3.5920349126e-02 
          -2.4782472901e-02 2.3625035878e+00 -7.2266069488e-05 
          -1.6144566010e-01 5.5254750894e+00 -1.4614236922e-02 
          3.4725020542e-02 3.4296872603e+00 3.9940158364e-03 
          2.0914514779e-01 4.1144197356e+00 4.5599607319e-02 
          3.1820440448e-01 5.0277801474e+00 1.7501222320e-01 
          3.3553329812e-01 5.0181984388e+00 1.7433129774e-01 
          4.5132563777e-02 5.3755639418e+00 -7.3564940259e-02 
          -2.3401751622e-02 5.8800023336e+00 1.5383833456e-01 
          -4.9346148629e-02 4.0430477444e+00 -1.1890760299e-01 
          7.0169656300e-02 5.9823264606e+00 -9.0942782148e-02 
          2.8405786395e-01 5.8331174740e+00 1.8280879202e-01 
          1.6131488728e-01 3.9018519924e+00 -1.3733491747e-01 
          2.1579829598e-01 5.9779879995e+00 1.8222487637e-01 
          1.6287187583e-01 3.9437945135e+00 -1.3661381422e-01 
          -9.1905118408e-02 5.8723950795e+00 1.5531310297e-01 
          -5.1065930731e-02 4.1002933822e+00 -1.1962621202e-01 
          -8.9737010375e-03 3.9203195565e+00 -6.5084512179e-02 
          -5.8025540637e-02 4.2673348050e+00 1.3776706971e-01 
          -7.9375510952e-02 2.9768485631e+00 -1.0624675156e-01 
          -5.7255463489e-02 4.1973674919e+00 -8.2340981946e-02 
          -9.7480389603e-02 4.2469993637e+00 1.6860991396e-01 
          -1.1489872158e-01 2.7214951748e+00 -1.2481752057e-01 
          -1.7371100971e-01 4.2815904707e+00 1.6753437031e-01 
          -1.1798102271e-01 2.6849910016e+00 -1.2428919221e-01 
          -1.2901276548e-01 4.2044074586e+00 1.3874745991e-01 
          -8.6817158351e-02 2.9980452160e+00 -1.0666578948e-01 
          -2.1741914809e-01 2.5637408475e+00 -3.4791631800e-02 
          -2.5728586038e-01 2.6470133005e+00 7.6043922443e-02 
          -1.7473162250e-01 1.9257355449e+00 -5.7942002583e-02 
          -2.6509098447e-01 2.7243574501e+00 -4.7584445928e-02 
          -2.2996641342e-01 2.8625096717e+00 9.9822714418e-02 
          -1.6276268642e-01 1.7545097568e+00 -7.1172003854e-02 
          -2.3261809024e-01 2.8693553894e+00 9.9766360437e-02 
          -1.5899746875e-01 1.7570099056e+00 -7.1331994759e-02 
          -2.5555320316e-01 2.6731166963e+00 7.6277360165e-02 
          -1.7597684356e-01 1.9498276962e+00 -5.7796408112e-02 
          -1.4513038247e-01 4.1981840839e+00 1.8422291024e-04 
          -1.0140290595e-01 4.1815226938e+00 -1.8901479657e-04 
          4.3518854763e-02 1.3735807343e+00 7.0923279794e-02 
          8.1203982456e-02 1.2980563616e+00 7.0354481916e-02 
          8.1711733481e-02 1.2677078486e+00 7.0596152623e-02 
          4.1897087703e-02 1.1928340371e+00 7.0631427096e-02 
          -2.1037427698e-01 2.2919460056e-01 -4.3201047911e-03 
          -1.1323835441e-01 4.9403403385e-01 -4.1792514002e-03 
          -1.7163131841e-01 7.4306762129e-01 -5.8132640528e-03 
          -2.4890163362e-02 8.7912669334e-01 -3.6669591854e-04 
          -4.6516336258e-02 9.3678658421e-01 3.6578115041e-03 
          -7.1420958564e-02 3.0200850720e-01 -4.8732618369e-03 
          -2.6946375025e-01 2.4492719935e-01 -4.0235279308e-03 
          -1.0348900437e-01 4.9747371471e-01 -4.4043824532e-03 
          -1.3802848846e-01 7.3885007575e-01 -5.7944873243e-03 
          -6.8880948399e-02 7.0647363280e-01 5.8570832346e-03 
          -8.2797959260e-02 9.4590487044e-01 9.5120117270e-03 
          -9.7340347116e-02 3.7492570386e-01 2.3497012125e-03 
          -5.5449121704e-02 9.5404083768e-01 -7.8593799817e-03 
          -8.9737960299e-02 1.1033623148e+00 -8.6764416477e-03 
          -1.0651019955e-01 1.2293973980e+00 -8.3920062681e-03 
          -9.4519627967e-02 1.1970973473e+00 3.7966374785e-03 
          -1.2262488514e-01 1.2194502585e+00 2.8057002542e-03 
          -1.1656262465e-01 1.1099545092e+00 2.0601813603e-03 
          -6.5230464129e-02 9.4472420871e-01 -7.9504759133e-03 
          -8.2424388624e-02 1.0964141327e+00 -8.6885597172e-03 
          -1.1638610637e-01 1.2249262250e+00 -8.4615006407e-03 
          -1.0673960771e-01 1.1604851107e+00 8.6277989693e-03 
          -1.2464601651e-01 1.2130439277e+00 7.1203807360e-03 
          -1.1105965768e-01 1.1187635270e+00 5.8758756209e-03 
        </DataArray>
        <DataArray type="Float64" Name="UnbalancedLoad" NumberOfComponents="3" format="ascii">
          0.0000000000e+00 0.0000000000e+00 -3.6718703758e+04 
          0.0000000000e+00 0.0000000000e+00 -3.7625679104e+04 
          0.0000000000e+00 0.0000000000e+00 -3.6717273855e+04 
          0.0000000000e+00 0.0000000000e+00 -5.9286266837e+04 
          0.0000000000e+00 0.0000000000e+00 -5.9285363603e+04 
          0.0000000000e+00 0.0000000000e+00 -4.0115287081e+04 
          0.0000000000e+00 0.0000000000e+00 -4.0120693617e+04 
          0.0000000000e+00 0.0000000000e+00 -3.0015560500e+04 
          0.0000000000e+00 0.0000000000e+00 -3.0020063833e+04 
          0.0000000000e+00 0.0000000000e+00 -3.7624249169e+04 
          0.0000000000e+00 0.0000000000e+00 -3.6718703758e+04 
          0.0000000000e+00 0.0000000000e+00 -5.9286266837e+04 
          0.0000000000e+00 0.0000000000e+00 -4.0120693617e+04 
          0.0000000000e+00 0.0000000000e+00 -4.0120693617e+04 
          0.0000000000e+00 0.0000000000e+00 -3.0020063833e+04 
          0.0000000000e+00 0.0000000000e+00 -3.7624249169e+04 
          0.0000000000e+00 0.0000000000e+00 -3.6718703758e+04 
          0.0000000000e+00 0.0000000000e+00 -5.9286266837e+04 
          0.0000000000e+00 0.0000000000e+00 -4.0120693617e+04 
          0.0000000000e+00 0.0000000000e+00 -4.0120693617e+04 
          0.0000000000e+00 0.0000000000e+00 -3.0020063833e+04 
          0.0000000000e+00 0.0000000000e+00 -3.7624249169e+04 
          0.0000000000e+00 0.0000000000e+00 -4.0120693617e+04 
          0.0000000000e+00 0.0000000000e+00 -4.0120693617e+04 
          0.0000000000e+00 0.0000000000e+00 -2.0000021957e+04 
          0.0000000000e+00 0.0000000000e+00 -2.0000021957e+04 
          0.0000000000e+00 0.0000000000e+00 -1.8064302859e+04 
          0.0000000000e+00 0.0000000000e+00 -1.8064302859e+04 
          0.0000000000e+00 0.0000000000e+00 -1.4870422182e+04 
          0.0000000000e+00 0.0000000000e+00 -1.4870422182e+04 
          0.0000000000e+00 0.0000000000e+00 -2.0000021957e+04 
          0.0000000000e+00 0.0000000000e+00 -1.8064302859e+04 
          0.0000000000e+00 0.0000000000e+00 -1.4870422182e+04 
          0.0000000000e+00 0.0000000000e+00 -2.0000021957e+04 
          0.0000000000e+00 0.0000000000e+00 -1.8064302859e+04 
          0.0000000000e+00 0.0000000000e+00 -1.4870422182e+04 
          0.0000000000e+00 0.0000000000e+00 -1.1974320789e+04 
          0.0000000000e+00 0.0000000000e+00 -1.1974320789e+04 
          0.0000000000e+00 0.0000000000e+00 -1.0833939022e+04 
          0.0000000000e+00 0.0000000000e+00 -1.0833939022e+04 
          0.0000000000e+00 0.0000000000e+00 -1.4763213513e+04 
          0.0000000000e+00 0.0000000000e+00 -1.4763213513e+04 
          0.0000000000e+00 0.0000000000e+00 -1.1974320789e+04 
          0.0000000000e+00 0.0000000000e+00 -1.0833939022e+04 
          0.0000000000e+00 0.0000000000e+00 -1.4763213513e+04 
          0.0000000000e+00 0.0000000000e+00 -1.1974320789e+04 
          0.0000000000e+00 0.0000000000e+00 -1.0833939022e+04 
          0.0000000000e+00 0.0000000000e+00 -1.4763213513e+04 
          0.0000000000e+00 0.0000000000e+00 -6.8097842525e+03 
          0.0000000000e+00 0.0000000000e+00 -6.8097842525e+03 
          0.0000000000e+00 0.0000000000e+00 -8.5143194404e+03 
          0.0000000000e+00 0.0000000000e+00 -6.9868294669e+03 
          0.0000000000e+00 0.0000000000e+00 -6.9868294669e+03 
          0.0000000000e+00 0.0000000000e+00 -3.8840366777e+03 
          0.0000000000e+00 0.0000000000e+00 -5.2365227760e+03 
          0.0000000000e+00 0.0000000000e+00 -5.2365227760e+03 
          0.0000000000e+00 0.0000000000e+00 -1.3915104673e+04 
          0.0000000000e+00 0.0000000000e+00 -1.3915104673e+04 
          0.0000000000e+00 0.0000000000e+00 -6.9410579638e+03 
          0.0000000000e+00 0.0000000000e+00 -1.2748769370e+04 
          0.0000000000e+00 0.0000000000e+00 -1.2748769370e+04 
          0.0000000000e+00 0.0000000000e+00 -6.9868294669e+03 
          0.0000000000e+00 0.0000000000e+00 -6.9868294669e+03 
          0.0000000000e+00 0.0000000000e+00 -3.8840366777e+03 
          0.0000000000e+00 0.0000000000e+00 -1.3312878106e+04 
          0.0000000000e+00 0.0000000000e+00 -1.3312878106e+04 
          0.0000000000e+00 0.0000000000e+00 -6.8097842525e+03 
          0.0000000000e+00 0.0000000000e+00 -1.2748769370e+04 
          0.0000000000e+00 0.0000000000e+00 -8.5143194404e+03 
          0.0000000000e+00 0.0000000000e+00 -5.2365227760e+03 
          0.0000000000e+00 0.0000000000e+00 -1.3915104673e+04 
          0.0000000000e+00 0.0000000000e+00 -6.9868294669e+03 
          0.0000000000e+00 0.0000000000e+00 -3.8840366777e+03 
          0.0000000000e+00 0.0000000000e+00 -6.9410579638e+03 
          0.0000000000e+00 0.0000000000e+00 -6.9868294669e+03 
          0.0000000000e+00 0.0000000000e+00 -3.8840366777e+03 
          0.0000000000e+00 0.0000000000e+00 -1.3312878106e+04 
          0.0000000000e+00 0.0000000000e+00 -3.6950325377e+03 
          0.0000000000e+00 0.0000000000e+00 -4.4650693704e+03 
          0.0000000000e+00 0.0000000000e+00 -4.4650693704e+03 
          0.0000000000e+00 0.0000000000e+00 -6.8097842525e+03 
          0.0000000000e+00 0.0000000000e+00 -1.2748769370e+04 
          0.0000000000e+00 0.0000000000e+00 -8.5143194404e+03 
          0.0000000000e+00 0.0000000000e+00 -5.2365227760e+03 
          0.0000000000e+00 0.0000000000e+00 -1.3915104673e+04 
          0.0000000000e+00 0.0000000000e+00 -6.9868294669e+03 
          0.0000000000e+00 0.0000000000e+00 -3.8840366777e+03 
          0.0000000000e+00 0.0000000000e+00 -6.9410579638e+03 
          0.0000000000e+00 0.0000000000e+00 -6.9868294669e+03 
          0.0000000000e+00 0.0000000000e+00 -3.8840366777e+03 
          0.0000000000e+00 0.0000000000e+00 -1.3312878106e+04 
          0.0000000000e+00 0.0000000000e+00 -8.5143194404e+03 
          0.0000000000e+00 0.0000000000e+00 -3.8840366777e+03 
          0.0000000000e+00 0.0000000000e+00 -6.9410579638e+03 
          0.0000000000e+00 0.0000000000e+00 -3.8840366777e+03 
          0.0000000000e+00 0.0000000000e+00 -3.6950325377e+03 
          0.0000000000e+00 0.0000000000e+00 -4.4650693704e+03 
          0.0000000000e+00 0.0000000000e+00 -4.4650693704e+03 
          0.0000000000e+00 0.0000000000e+00 -5.7731376107e+03 
          0.0000000000e+00 0.0000000000e+00 -5.7731800549e+03 
          0.0000000000e+00 0.0000000000e+00 -4.0979358421e+03 
          0.0000000000e+00 0.0000000000e+00 -5.7731376107e+03 
          0.0000000000e+00 0.0000000000e+00 -5.7731800549e+03 
          0.0000000000e+00 0.0000000000e+00 -4.0979358421e+03 
          0.0000000000e+00 0.0000000000e+00 -5.7731800549e+03 
          0.0000000000e+00 0.0000000000e+00 -4.0979358421e+03 
          0.0000000000e+00 0.0000000000e+00 -5.7731800549e+03 
          0.0000000000e+00 0.0000000000e+00 -4.0979358421e+03 
          0.0000000000e+00 0.0000000000e+00 -5.7731376107e+03 
          0.0000000000e+00 0.0000000000e+00 -5.7731800549e+03 
          0.0000000000e+00 0.0000000000e+00 -4.0979358421e+03 
          0.0000000000e+00 0.0000000000e+00 -5.7731376107e+03 
          0.0000000000e+00 0.0000000000e+00 -5.7731800549e+03 
          0.0000000000e+00 0.0000000000e+00 -4.0979358421e+03 
          0.0000000000e+00 0.0000000000e+00 -5.7731800549e+03 
          0.0000000000e+00 0.0000000000e+00 -4.0979358421e+03 
          0.0000000000e+00 0.0000000000e+00 -5.7731800549e+03 
          0.0000000000e+00 0.0000000000e+00 -4.0979358421e+03 
          0.0000000000e+00 0.0000000000e+00 -5.7731376107e+03 
          0.0000000000e+00 0.0000000000e+00 -5.7731800549e+03 
          0.0000000000e+00 0.0000000000e+00 -4.0979358421e+03 
          0.0000000000e+00 0.0000000000e+00 -5.7731376107e+03 
          0.0000000000e+00 0.0000000000e+00 -5.7731800549e+03 
          0.0000000000e+00 0.0000000000e+00 -4.0979358421e+03 
          0.0000000000e+00 0.0000000000e+00 -5.7731800549e+03 
          0.0000000000e+00 0.0000000000e+00 -4.0979358421e+03 
          0.0000000000e+00 0.0000000000e+00 -5.7731800549e+03 
          0.0000000000e+00 0.0000000000e+00 -4.0979358421e+03 
          0.0000000000e+00 0.0000000000e+00 -3.7038358175e+03 
          0.0000000000e+00 0.0000000000e+00 -3.7038358175e+03 
          0.0000000000e+00 0.0000000000e+00 -1.0124881785e+03 
          0.0000000000e+00 0.0000000000e+00 -1.0124881785e+03 
          0.0000000000e+00 0.0000000000e+00 -1.0124881785e+03 
          0.0000000000e+00 0.0000000000e+00 -1.0124881785e+03 
          0.0000000000e+00 0.0000000000e+00 -4.9265287381e+03 
          0.0000000000e+00 0.0000000000e+00 -4.4500783602e+03 
          0.0000000000e+00 0.0000000000e+00 -4.0119510620e+03 
          0.0000000000e+00 0.0000000000e+00 -4.9265287381e+03 
          0.0000000000e+00 0.0000000000e+00 -4.4500783602e+03 
          0.0000000000e+00 0.0000000000e+00 -4.0119510620e+03 
          0.0000000000e+00 0.0000000000e+00 -4.9265287381e+03 
          0.0000000000e+00 0.0000000000e+00 -4.4500783602e+03 
          0.0000000000e+00 0.0000000000e+00 -4.0119510620e+03 
          0.0000000000e+00 0.0000000000e+00 -4.9265287381e+03 
          0.0000000000e+00 0.0000000000e+00 -4.4500783602e+03 
          0.0000000000e+00 0.0000000000e+00 -4.0119510620e+03 
          0.0000000000e+00 0.0000000000e+00 -3.6176148508e+03 
          0.0000000000e+00 0.0000000000e+00 -3.2559135748e+03 
          0.0000000000e+00 0.0000000000e+00 -2.9513345845e+03 
          0.0000000000e+00 0.0000000000e+00 -3.6176148508e+03 
          0.0000000000e+00 0.0000000000e+00 -3.2559135748e+03 
          0.0000000000e+00 0.0000000000e+00 -2.9513345845e+03 
          0.0000000000e+00 0.0000000000e+00 -3.6176148508e+03 
          0.0000000000e+00 0.0000000000e+00 -3.2559135748e+03 
          0.0000000000e+00 0.0000000000e+00 -2.9513345845e+03 
          0.0000000000e+00 0.0000000000e+00 -3.6176148508e+03 
          0.0000000000e+00 0.0000000000e+00 -3.2559135748e+03 
          0.0000000000e+00 0.0000000000e+00 -2.9513345845e+03 
        </DataArray>
      </PointData>
      <CellData>
        <DataArray type="Int64" Name="ElementTag" format="ascii">
          0
        </DataArray>
      </CellData>
    </Piece>
  </UnstructuredGrid>
</VTKFile>
