<?xml version="1.0"?>
<VTKFile type="UnstructuredGrid" version="1.0" byte_order="LittleEndian" compressor="vtkZLibDataCompressor">
  <UnstructuredGrid>
    <Piece NumberOfPoints="158" NumberOfCells="1">
      <Points>
        <DataArray type="Float64" Name="Points" NumberOfComponents="3" format="ascii">
          1.7550000000e+00 -1.7550000000e+00 0.0000000000e+00 
          1.4140000000e+00 0.0000000000e+00 5.2300000000e+00 
          1.7550000000e+00 1.7550000000e+00 -0.0000000000e+00 
          1.4140000000e+00 -1.4140000000e+00 5.2300000000e+00 
          1.4140000000e+00 1.4140000000e+00 5.2300000000e+00 
          1.5840000000e+00 8.7800000000e-01 2.6150000000e+00 
          1.5840000000e+00 -8.7700000000e-01 2.6150000000e+00 
          1.5840000000e+00 1.5840000000e+00 2.6150000000e+00 
          1.5840000000e+00 -1.5840000000e+00 2.6150000000e+00 
          -0.0000000000e+00 1.4140000000e+00 5.2300000000e+00 
          -1.7550000000e+00 1.7550000000e+00 -0.0000000000e+00 
          -1.4140000000e+00 1.4140000000e+00 5.2300000000e+00 
          -8.7700000000e-01 1.5840000000e+00 2.6150000000e+00 
          8.7700000000e-01 1.5840000000e+00 2.6150000000e+00 
          -1.5840000000e+00 1.5840000000e+00 2.6150000000e+00 
          -1.4140000000e+00 -0.0000000000e+00 5.2300000000e+00 
          -1.7550000000e+00 -1.7550000000e+00 -0.0000000000e+00 
          -1.4140000000e+00 -1.4140000000e+00 5.2300000000e+00 
          -1.5840000000e+00 -8.7700000000e-01 2.6150000000e+00 
          -1.5840000000e+00 8.7700000000e-01 2.6150000000e+00 
          -1.5840000000e+00 -1.5840000000e+00 2.6150000000e+00 
          0.0000000000e+00 -1.4140000000e+00 5.2300000000e+00 
          8.7700000000e-01 -1.5840000000e+00 2.6150000000e+00 
          -8.7700000000e-01 -1.5840000000e+00 2.6150000000e+00 
          1.2750000000e+00 1.2750000000e+00 7.3500000000e+00 
          1.2750000000e+00 -1.2750000000e+00 7.3500000000e+00 
          1.1500000000e+00 -1.1500000000e+00 9.2700000000e+00 
          1.1500000000e+00 1.1500000000e+00 9.2700000000e+00 
          1.0370000000e+00 -1.0370000000e+00 1.1000000000e+01 
          1.0370000000e+00 1.0370000000e+00 1.1000000000e+01 
          -1.2750000000e+00 1.2750000000e+00 7.3500000000e+00 
          -1.1500000000e+00 1.1500000000e+00 9.2700000000e+00 
          -1.0370000000e+00 1.0370000000e+00 1.1000000000e+01 
          -1.2750000000e+00 -1.2750000000e+00 7.3500000000e+00 
          -1.1500000000e+00 -1.1500000000e+00 9.2700000000e+00 
          -1.0370000000e+00 -1.0370000000e+00 1.1000000000e+01 
          9.3500000000e-01 9.3500000000e-01 1.2560000000e+01 
          9.3500000000e-01 -9.3500000000e-01 1.2560000000e+01 
          8.4300000000e-01 8.4300000000e-01 1.3960000000e+01 
          8.4300000000e-01 -8.4300000000e-01 1.3960000000e+01 
          7.6000000000e-01 7.6000000000e-01 1.5240000000e+01 
          7.6000000000e-01 -7.6000000000e-01 1.5240000000e+01 
          -9.3500000000e-01 9.3500000000e-01 1.2560000000e+01 
          -8.4300000000e-01 8.4300000000e-01 1.3960000000e+01 
          -7.6000000000e-01 7.6000000000e-01 1.5240000000e+01 
          -9.3500000000e-01 -9.3500000000e-01 1.2560000000e+01 
          -8.4300000000e-01 -8.4300000000e-01 1.3960000000e+01 
          -7.6000000000e-01 -7.6000000000e-01 1.5240000000e+01 
          7.6000000000e-01 -7.6000000000e-01 1.6240000000e+01 
          7.6000000000e-01 7.6000000000e-01 1.6240000000e+01 
          7.6000000000e-01 0.0000000000e+00 1.6240000000e+01 
          7.6000000000e-01 7.6000000000e-01 1.7340000000e+01 
          7.6000000000e-01 -7.6000000000e-01 1.7340000000e+01 
          7.6000000000e-01 0.0000000000e+00 1.7890000000e+01 
          7.6000000000e-01 -7.6000000000e-01 1.9440000000e+01 
          7.6000000000e-01 7.6000000000e-01 1.9440000000e+01 
          7.6000000000e-01 -7.6000000000e-01 2.1640000000e+01 
          7.6000000000e-01 7.6000000000e-01 2.1640000000e+01 
          7.6000000000e-01 0.0000000000e+00 1.9440000000e+01 
          7.6000000000e-01 7.6000000000e-01 1.8440000000e+01 
          7.6000000000e-01 -7.6000000000e-01 1.8440000000e+01 
          7.6000000000e-01 -7.6000000000e-01 2.0540000000e+01 
          7.6000000000e-01 7.6000000000e-01 2.0540000000e+01 
          7.6000000000e-01 0.0000000000e+00 2.1090000000e+01 
          7.6000000000e-01 7.6000000000e-01 2.2640000000e+01 
          7.6000000000e-01 -7.6000000000e-01 2.2640000000e+01 
          -7.6000000000e-01 7.6000000000e-01 1.6240000000e+01 
          -7.6000000000e-01 7.6000000000e-01 1.8440000000e+01 
          -0.0000000000e+00 7.6000000000e-01 1.6240000000e+01 
          -7.6000000000e-01 7.6000000000e-01 1.9440000000e+01 
          -7.6000000000e-01 7.6000000000e-01 2.1640000000e+01 
          -7.6000000000e-01 7.6000000000e-01 1.7340000000e+01 
          -0.0000000000e+00 7.6000000000e-01 1.7890000000e+01 
          -0.0000000000e+00 7.6000000000e-01 1.9440000000e+01 
          -7.6000000000e-01 7.6000000000e-01 2.0540000000e+01 
          0.0000000000e+00 7.6000000000e-01 2.1090000000e+01 
          -7.6000000000e-01 7.6000000000e-01 2.2640000000e+01 
          -0.0000000000e+00 5.2600000000e-01 2.3499000000e+01 
          3.9900000000e-01 4.0400000000e-01 2.3950000000e+01 
          -3.9900000000e-01 4.0400000000e-01 2.3950000000e+01 
          -7.6000000000e-01 -7.6000000000e-01 1.6240000000e+01 
          -7.6000000000e-01 -7.6000000000e-01 1.8440000000e+01 
          -7.6000000000e-01 -0.0000000000e+00 1.6240000000e+01 
          -7.6000000000e-01 -7.6000000000e-01 1.9440000000e+01 
          -7.6000000000e-01 -7.6000000000e-01 2.1640000000e+01 
          -7.6000000000e-01 -7.6000000000e-01 1.7340000000e+01 
          -7.6000000000e-01 0.0000000000e+00 1.7890000000e+01 
          -7.6000000000e-01 -0.0000000000e+00 1.9440000000e+01 
          -7.6000000000e-01 -7.6000000000e-01 2.0540000000e+01 
          -7.6000000000e-01 -0.0000000000e+00 2.1090000000e+01 
          -7.6000000000e-01 -7.6000000000e-01 2.2640000000e+01 
          0.0000000000e+00 -7.6000000000e-01 1.6240000000e+01 
          0.0000000000e+00 -7.6000000000e-01 1.7890000000e+01 
          0.0000000000e+00 -7.6000000000e-01 1.9440000000e+01 
          0.0000000000e+00 -7.6000000000e-01 2.1090000000e+01 
          0.0000000000e+00 -5.2600000000e-01 2.3499000000e+01 
          3.9900000000e-01 -4.0400000000e-01 2.3950000000e+01 
          -3.9900000000e-01 -4.0400000000e-01 2.3950000000e+01 
          -0.0000000000e+00 -3.3500000000e+00 2.1640000000e+01 
          -3.8000000000e-01 -2.0550000000e+00 2.2140000000e+01 
          -3.8000000000e-01 -2.0550000000e+00 2.1640000000e+01 
          0.0000000000e+00 3.3500000000e+00 2.1640000000e+01 
          -3.8000000000e-01 2.0550000000e+00 2.2140000000e+01 
          -3.8000000000e-01 2.0550000000e+00 2.1640000000e+01 
          3.8000000000e-01 2.0550000000e+00 2.2140000000e+01 
          3.8000000000e-01 2.0550000000e+00 2.1640000000e+01 
          3.8000000000e-01 -2.0550000000e+00 2.2140000000e+01 
          3.8000000000e-01 -2.0550000000e+00 2.1640000000e+01 
          -0.0000000000e+00 -3.3500000000e+00 1.8440000000e+01 
          -3.8000000000e-01 -2.0550000000e+00 1.8940000000e+01 
          -3.8000000000e-01 -2.0550000000e+00 1.8440000000e+01 
          -0.0000000000e+00 3.3500000000e+00 1.8440000000e+01 
          -3.8000000000e-01 2.0550000000e+00 1.8940000000e+01 
          -3.8000000000e-01 2.0550000000e+00 1.8440000000e+01 
          3.8000000000e-01 2.0550000000e+00 1.8940000000e+01 
          3.8000000000e-01 2.0550000000e+00 1.8440000000e+01 
          3.8000000000e-01 -2.0550000000e+00 1.8940000000e+01 
          3.8000000000e-01 -2.0550000000e+00 1.8440000000e+01 
          -0.0000000000e+00 -3.3500000000e+00 1.5240000000e+01 
          -3.8000000000e-01 -2.0550000000e+00 1.5740000000e+01 
          -3.8000000000e-01 -2.0550000000e+00 1.5240000000e+01 
          -0.0000000000e+00 3.3500000000e+00 1.5240000000e+01 
          -3.8000000000e-01 2.0550000000e+00 1.5740000000e+01 
          -3.8000000000e-01 2.0550000000e+00 1.5240000000e+01 
          3.8000000000e-01 2.0550000000e+00 1.5740000000e+01 
          3.8000000000e-01 2.0550000000e+00 1.5240000000e+01 
          3.8000000000e-01 -2.0550000000e+00 1.5740000000e+01 
          3.8000000000e-01 -2.0550000000e+00 1.5240000000e+01 
          -5.2400000000e-01 0.0000000000e+00 2.3496000000e+01 
          5.2400000000e-01 0.0000000000e+00 2.3496000000e+01 
          4.0000000000e-02 5.0000000000e-02 2.5250000000e+01 
          -4.0000000000e-02 5.0000000000e-02 2.5250000000e+01 
          -4.0000000000e-02 -5.0000000000e-02 2.5250000000e+01 
          4.0000000000e-02 -5.0000000000e-02 2.5250000000e+01 
          1.3410000000e+00 0.0000000000e+00 6.3450000000e+00 
          1.2090000000e+00 0.0000000000e+00 8.3600000000e+00 
          1.0900000000e+00 -0.0000000000e+00 1.0180000000e+01 
          -0.0000000000e+00 1.3410000000e+00 6.3450000000e+00 
          0.0000000000e+00 1.2090000000e+00 8.3600000000e+00 
          -0.0000000000e+00 1.0900000000e+00 1.0180000000e+01 
          -1.3410000000e+00 0.0000000000e+00 6.3450000000e+00 
          -1.2090000000e+00 0.0000000000e+00 8.3600000000e+00 
          -1.0900000000e+00 -0.0000000000e+00 1.0180000000e+01 
          -0.0000000000e+00 -1.3410000000e+00 6.3450000000e+00 
          0.0000000000e+00 -1.2090000000e+00 8.3600000000e+00 
          0.0000000000e+00 -1.0900000000e+00 1.0180000000e+01 
          9.8300000000e-01 0.0000000000e+00 1.1820000000e+01 
          8.8700000000e-01 0.0000000000e+00 1.3296000000e+01 
          8.0000000000e-01 -0.0000000000e+00 1.4633000000e+01 
          0.0000000000e+00 9.8300000000e-01 1.1820000000e+01 
          -0.0000000000e+00 8.8700000000e-01 1.3296000000e+01 
          0.0000000000e+00 8.0000000000e-01 1.4633000000e+01 
          -9.8300000000e-01 0.0000000000e+00 1.1820000000e+01 
          -8.8700000000e-01 0.0000000000e+00 1.3296000000e+01 
          -8.0000000000e-01 0.0000000000e+00 1.4633000000e+01 
          0.0000000000e+00 -9.8300000000e-01 1.1820000000e+01 
          0.0000000000e+00 -8.8700000000e-01 1.3296000000e+01 
          0.0000000000e+00 -8.0000000000e-01 1.4633000000e+01 
        </DataArray>
      </Points>
      <Cells>
        <DataArray type="Int64" Name="connectivity" format="ascii">
          0
          1
          2
          3
          4
          5
          6
          7
          8
          9
          10
          11
          12
          13
          14
          15
          16
          17
          18
          19
          20
          21
          22
          23
          24
          25
          26
          27
          28
          29
          30
          31
          32
          33
          34
          35
          36
          37
          38
          39
          40
          41
          42
          43
          44
          45
          46
          47
          48
          49
          50
          51
          52
          53
          54
          55
          56
          57
          58
          59
          60
          61
          62
          63
          64
          65
          66
          67
          68
          69
          70
          71
          72
          73
          74
          75
          76
          77
          78
          79
          80
          81
          82
          83
          84
          85
          86
          87
          88
          89
          90
          91
          92
          93
          94
          95
          96
          97
          98
          99
          100
          101
          102
          103
          104
          105
          106
          107
          108
          109
          110
          111
          112
          113
          114
          115
          116
          117
          118
          119
          120
          121
          122
          123
          124
          125
          126
          127
          128
          129
          130
          131
          132
          133
          134
          135
          136
          137
          138
          139
          140
          141
          142
          143
          144
          145
          146
          147
          148
          149
          150
          151
          152
          153
          154
          155
          156
          157
        </DataArray>
        <DataArray type="Int64" Name="offsets" format="ascii">
          158
        </DataArray>
        <DataArray type="Int64" Name="types" format="ascii">
          2
        </DataArray>
      </Cells>
      <PointData>
        <DataArray type="Int64" Name="NodeTag" format="ascii">
          1
          2
          3
          4
          5
          6
          7
          8
          9
          10
          11
          12
          13
          14
          15
          16
          17
          18
          19
          20
          21
          22
          23
          24
          25
          26
          27
          28
          29
          30
          31
          32
          33
          34
          35
          36
          37
          38
          39
          40
          41
          42
          43
          44
          45
          46
          47
          48
          49
          50
          51
          52
          53
          54
          55
          56
          57
          58
          59
          60
          61
          62
          63
          64
          65
          66
          67
          68
          69
          70
          71
          72
          73
          74
          75
          76
          77
          78
          79
          80
          81
          82
          83
          84
          85
          86
          87
          88
          89
          90
          91
          92
          93
          94
          95
          96
          97
          98
          99
          100
          101
          102
          103
          104
          105
          106
          107
          108
          109
          110
          111
          112
          113
          114
          115
          116
          117
          118
          119
          120
          121
          122
          123
          124
          125
          126
          127
          128
          129
          130
          131
          132
          133
          134
          135
          136
          137
          138
          139
          140
          141
          142
          143
          144
          145
          146
          147
          148
          149
          150
          151
          152
          153
          154
          155
          156
          157
          158
        </DataArray>
        <DataArray type="Float64" Name="Displacement" NumberOfComponents="3" format="ascii">
          0.0000000000e+00 0.0000000000e+00 0.0000000000e+00 
          1.3617316473e-07 -2.5879297058e-05 -5.8198650228e-05 
          0.0000000000e+00 0.0000000000e+00 0.0000000000e+00 
          4.3193288983e-05 -2.3918485427e-05 -4.1009421744e-04 
          1.1159004664e-04 -3.0296565733e-05 -4.4899824166e-04 
          -8.5336934719e-04 -7.9565809148e-04 -3.5936459349e-04 
          -8.5537529871e-04 6.8561995427e-04 -3.2981579634e-04 
          -6.8829352217e-04 -7.9520102256e-04 -3.3429454842e-04 
          -6.3385631633e-04 6.8513629171e-04 -3.0360892272e-04 
          1.1358285408e-04 -2.0570644936e-04 -6.8439211155e-05 
          0.0000000000e+00 0.0000000000e+00 0.0000000000e+00 
          1.2009825652e-04 1.5632996257e-05 -4.8065519916e-04 
          9.3218110721e-04 -1.0253992278e-03 -3.9516670526e-04 
          -6.8858650754e-04 -7.4983335032e-04 -3.3735639632e-04 
          9.3242358529e-04 -7.9200198033e-04 -3.5942092886e-04 
          5.7492333604e-05 1.8892815327e-05 -6.6062032582e-05 
          0.0000000000e+00 0.0000000000e+00 0.0000000000e+00 
          4.7567312424e-05 2.3001961793e-05 -4.2421933802e-04 
          4.9194707981e-04 7.0849816360e-04 -3.1244385954e-04 
          8.2358413184e-04 -7.9231358819e-04 -3.6545770265e-04 
          7.1572804048e-04 7.0741501149e-04 -3.1258964313e-04 
          4.4220214115e-05 1.1244453542e-04 -7.4930259498e-05 
          -6.3483892549e-04 4.8601183584e-04 -3.0164047066e-04 
          7.1700164612e-04 8.6360270723e-04 -3.3917356263e-04 
          2.3682148419e-04 1.1633890320e-04 -5.9088906767e-04 
          1.3075059127e-04 -1.0479688062e-04 -5.4879010122e-04 
          -1.8015075297e-05 5.3698511817e-05 -6.9215235659e-04 
          6.2443072540e-05 6.3134083854e-05 -7.3595800662e-04 
          4.4622846470e-05 5.7359383142e-05 -7.9108825789e-04 
          1.2760840151e-04 1.7485201996e-04 -8.2540281001e-04 
          -2.9276007316e-05 1.8749179946e-04 -6.2460626894e-04 
          1.0003578069e-04 1.2186298277e-04 -7.7160719223e-04 
          -2.7521636656e-05 2.9704797601e-04 -8.5696887365e-04 
          -6.9633604578e-05 -4.3247363592e-05 -5.7141156621e-04 
          1.1603312172e-05 1.5884037862e-04 -7.1923818840e-04 
          -1.2568115057e-04 1.2178036286e-04 -8.1434629633e-04 
          2.9641535991e-05 1.9145587543e-04 -9.3735591526e-04 
          -6.0471858121e-05 1.3833336994e-04 -9.2088137061e-04 
          3.4267708008e-05 2.4440575016e-04 -1.0183131262e-03 
          -3.7577742105e-05 1.4007125772e-04 -1.0220940318e-03 
          -3.0321519588e-05 1.9020909175e-04 -1.0927520691e-03 
          -9.5968302152e-05 2.0439376494e-04 -1.1188695489e-03 
          4.8933123366e-06 2.7325265253e-04 -9.6967948187e-04 
          -5.8471405579e-05 3.7010600884e-04 -1.0426667328e-03 
          -4.5591261872e-05 3.1396828229e-04 -1.1113053382e-03 
          -8.5209228810e-05 2.6313608053e-04 -9.4401398113e-04 
          -1.5240980314e-04 2.4556547175e-04 -1.0376862693e-03 
          -1.2085674298e-04 3.3445008210e-04 -1.1313713114e-03 
          -1.1865850760e-04 1.7410377053e-04 -1.2396669004e-03 
          -5.2484612122e-05 1.9081145697e-04 -1.1708207385e-03 
          4.5384809974e-05 1.8195271539e-04 -1.1500257138e-03 
          5.0936526106e-05 2.5108086361e-04 -1.2399294996e-03 
          5.0489086134e-05 -6.3622122463e-05 -1.3560925647e-03 
          3.6270094005e-04 4.8943016864e-05 -1.4924648636e-03 
          -9.5942505986e-05 -1.5802525708e-04 -1.6020915128e-03 
          -4.2408350103e-05 -1.2925795316e-04 -1.4027636411e-03 
          -3.6906284678e-05 -4.8656559702e-04 -1.7532403313e-03 
          1.2264775712e-05 -5.2453585402e-04 -1.5056052135e-03 
          3.3225597404e-04 -1.4361245179e-04 -1.4622432440e-03 
          -4.2266327090e-05 -3.4296460628e-05 -1.3554094647e-03 
          -1.0104965069e-04 5.0825297753e-07 -1.5291229603e-03 
          2.7333403491e-05 -4.1964926805e-04 -1.6674247238e-03 
          4.0389022525e-05 -2.2720774027e-04 -1.4400410505e-03 
          3.5767256708e-04 -4.1085134578e-04 -1.6728647932e-03 
          3.7423748865e-05 -6.5518905759e-04 -1.5302448485e-03 
          -1.2785371120e-05 -6.9987874431e-04 -1.7825593657e-03 
          -4.8639052964e-05 3.2140709931e-04 -1.1807411007e-03 
          -5.1849816939e-05 9.4439677818e-05 -1.3434222120e-03 
          -5.0589803877e-05 2.1910532822e-04 -1.1435468533e-03 
          -3.7285529789e-05 3.8800112617e-07 -1.3833970838e-03 
          4.8215981960e-06 -3.9758793741e-04 -1.4697213237e-03 
          -1.5326676277e-04 3.6913463393e-04 -1.2398810792e-03 
          -5.1287099058e-05 -1.2046970529e-04 -1.3640202142e-03 
          -3.9427402909e-05 -7.9948050641e-04 -1.3739913541e-03 
          -7.4483068843e-05 -1.0759830352e-04 -1.4121180858e-03 
          -5.6408980814e-06 -5.8985935338e-04 -1.4967409712e-03 
          3.5503218246e-05 -5.3265767249e-04 -1.4908112466e-03 
          4.1279703177e-05 -8.1782267284e-04 -1.5795835398e-03 
          4.3752503288e-05 -8.8728487087e-04 -1.6018826026e-03 
          4.5742093109e-05 -8.0095876862e-04 -1.5732743562e-03 
          -1.1492426569e-04 3.0481133336e-04 -1.2448073398e-03 
          -1.1023186120e-04 1.3165663222e-04 -1.5142928681e-03 
          -1.8757841352e-04 3.1246291442e-04 -1.1597174442e-03 
          -9.0035619385e-05 -2.8376918350e-05 -1.5808019876e-03 
          -3.9069656752e-05 -3.6096766884e-04 -1.7220093827e-03 
          -2.7670765312e-04 7.7390552567e-05 -1.3528515696e-03 
          -4.9990527685e-04 1.7867939024e-04 -1.4779414518e-03 
          -6.2170708827e-04 -1.3790268191e-05 -1.4441736305e-03 
          -1.5504302356e-04 -2.8146477050e-04 -1.6389163840e-03 
          -3.8245042501e-04 -2.8229566330e-04 -1.6351781652e-03 
          -1.9272208833e-05 -5.7747551877e-04 -1.7523992928e-03 
          -1.1671331198e-04 3.9964797238e-04 -1.1930600736e-03 
          -1.1135062569e-04 3.8304960332e-04 -1.5495279083e-03 
          -9.2346850292e-05 4.3771346081e-04 -1.5616686690e-03 
          -5.1223615926e-05 -1.0424832327e-04 -1.7599707310e-03 
          2.0559397654e-05 -7.4671093247e-04 -1.7479141061e-03 
          3.9241084689e-05 -8.8442773241e-04 -1.7286904425e-03 
          3.6054010728e-05 -7.9804506702e-04 -1.7219293881e-03 
          -2.4621749063e-04 -3.9970811560e-04 -2.5228639594e-03 
          -1.7212302611e-04 -5.2431439161e-04 -2.1084328726e-03 
          -1.6675615969e-04 -3.8727808926e-04 -2.1106927673e-03 
          2.2648221103e-04 -4.8686252320e-04 -1.3701781521e-03 
          1.0271351755e-04 -4.7786958727e-04 -1.4024449941e-03 
          1.0921905452e-04 -4.4072168713e-04 -1.4047537335e-03 
          1.0249065756e-04 -5.5547106557e-04 -1.4175056459e-03 
          1.0904144882e-04 -5.0907904588e-04 -1.4195985283e-03 
          -1.7222288157e-04 -5.6365192485e-04 -2.1154765896e-03 
          -1.6684742071e-04 -4.3563415242e-04 -2.1175834997e-03 
          -3.3034183183e-04 9.2899710148e-05 -2.2115860039e-03 
          -3.0367054330e-04 -2.6968936245e-05 -1.8449796562e-03 
          -3.0259381261e-04 8.8923971411e-05 -1.8471747168e-03 
          1.6803137795e-04 5.4777985348e-06 -1.3516956827e-03 
          1.3513381143e-04 9.7166227551e-06 -1.3290889693e-03 
          1.3020135747e-04 2.8720432690e-05 -1.3312770154e-03 
          1.3420312373e-04 -1.3371639604e-05 -1.3365616524e-03 
          1.3002182945e-04 5.1442757703e-06 -1.3386719108e-03 
          -3.0472598596e-04 -3.9468760603e-05 -1.8494775953e-03 
          -3.0290562745e-04 7.2510692439e-05 -1.8515652086e-03 
          -3.3956442348e-04 2.9808723532e-04 -1.5321662438e-03 
          -2.8566824742e-04 2.4251361202e-04 -1.3121129685e-03 
          -2.6672612757e-04 3.0619105788e-04 -1.3143495463e-03 
          1.7824206021e-04 2.2703137702e-04 -1.3916507779e-03 
          1.5982820076e-05 3.2013555340e-04 -1.2375349951e-03 
          3.2712126457e-05 2.8043421762e-04 -1.2397589641e-03 
          1.5874805530e-05 2.3031303574e-04 -1.2215915003e-03 
          3.2813590803e-05 1.9665604995e-04 -1.2237059965e-03 
          -2.8611502456e-04 2.1080423994e-04 -1.3072490909e-03 
          -2.6674967520e-04 2.6572326166e-04 -1.3092949889e-03 
          6.0866294992e-05 -7.1344167764e-04 -1.6563235794e-03 
          2.6281384165e-06 -8.1439055516e-04 -1.6791688866e-03 
          9.0091459651e-05 -1.0782905801e-03 -1.6451023577e-03 
          9.0125411987e-05 -1.0817337586e-03 -1.6612184936e-03 
          9.4755837885e-05 -1.0816340779e-03 -1.6682091585e-03 
          9.4712764363e-05 -1.0782939387e-03 -1.6614566331e-03 
          5.4102891064e-04 -1.1999539551e-05 -4.0971333871e-04 
          1.1722623916e-04 3.2534117003e-05 -7.1478358233e-04 
          6.3859226262e-05 8.9661963232e-05 -7.3265013204e-04 
          1.1025731318e-04 -5.8869067555e-03 -8.5109859887e-04 
          9.3085693006e-05 -2.1137362979e-03 -9.2872569837e-04 
          6.5744475768e-05 -2.6370939488e-04 -7.7083114933e-04 
          5.0491226937e-03 4.6455921219e-05 -7.8677492960e-04 
          2.0706193832e-03 1.0788936925e-04 -8.9780769579e-04 
          7.7100109681e-04 1.7780766724e-04 -7.8051371254e-04 
          3.9303728542e-05 -5.8315735687e-03 -5.1759497875e-05 
          1.3724141220e-05 -3.7840505503e-03 -4.6500971197e-04 
          -2.2742680965e-05 -8.4159763468e-04 -6.3586437032e-04 
          9.5677790371e-06 1.4460024187e-04 -8.9547396989e-04 
          3.3922340896e-05 1.8335691661e-04 -9.5935277675e-04 
          1.5937587452e-05 1.9967438534e-04 -1.1005010264e-03 
          3.3200891996e-05 2.0698741532e-04 -9.4476994646e-04 
          1.5848685868e-06 4.2110861410e-04 -9.6465768508e-04 
          -2.6230883955e-05 3.1824307072e-04 -1.0909705424e-03 
          1.3388682701e-04 2.4300019219e-04 -9.6548737023e-04 
          6.6640819331e-05 2.9309988889e-04 -9.7544013037e-04 
          -2.1666643194e-04 3.2163651548e-04 -1.1214760799e-03 
          -5.8103742429e-05 1.6102555440e-04 -9.1911588085e-04 
          -8.5634904549e-05 4.2242058990e-04 -9.7157963339e-04 
          -1.0299052244e-04 2.6446194162e-04 -1.1108537445e-03 
        </DataArray>
        <DataArray type="Float64" Name="Reaction" NumberOfComponents="3" format="ascii">
          -6.2317852801e+03 5.6589825227e+03 7.3919982254e+04 
          -8.5098357960e+01 4.0457776337e+02 6.4792373346e+00 
          -6.3617870463e+03 -5.2709593889e+03 7.7153179256e+04 
          2.0043987452e+02 6.6859250235e+02 -3.9030692122e+01 
          1.3334744373e+03 6.8393813151e+02 -6.6439542397e+02 
          -5.1900851145e+02 -3.0917964308e+01 -9.5984962035e+00 
          -1.1078682025e+02 2.7074667785e+02 -3.1218020983e+00 
          8.2675705840e+01 1.6626104127e+02 1.3268415808e+00 
          4.2308123681e+02 6.5570895985e+01 1.0454699125e+00 
          3.1223414846e+02 -3.5682986911e+02 3.6193704050e+00 
          3.6370123537e+03 -5.3104597757e+03 7.2873976305e+04 
          -2.5793090212e+02 6.9049318857e+02 -6.8662984538e+02 
          6.3219720152e+02 -6.3366968831e+02 1.0364494507e+00 
          -8.6896873102e+01 -2.6935518198e+02 -3.2432328120e+00 
          4.9053615760e+02 6.7809253941e+01 9.6877949263e-01 
          -3.2022030750e+02 2.5504740034e+02 5.1470059383e+00 
          5.3530978182e+03 5.2254283660e+03 7.1321595422e+04 
          2.3571442041e+02 2.2891341475e+02 -5.4302479610e+01 
          -6.3210878536e+02 -6.1989127271e+01 -5.9043119673e-01 
          5.1468089927e+02 6.1046792245e-01 -3.5336670518e+00 
          -1.3892644411e+02 -9.7429515232e+01 1.6686069438e-01 
          1.0207242322e+02 5.7997430128e+02 1.2679631508e+01 
          3.9682555495e+02 -2.8326083547e+02 -1.4335638046e+01 
          -2.0810772943e+02 -2.2294472644e+02 6.8528049621e-01 
          1.3616480817e+03 2.1486424871e+02 7.4212969428e+02 
          2.2280180997e+02 -4.7896591978e+01 1.6000690522e+01 
          -2.8886741548e+02 -7.9860735609e+00 5.7512883717e+01 
          4.2359896878e+01 1.5425436677e+01 1.2188035554e+02 
          1.8365534209e+02 1.0743337735e+02 8.7260836890e-01 
          1.0777699746e+02 -8.4192872094e+01 3.4118062524e-01 
          -1.3262576676e+03 3.2884693064e+02 7.8779993252e+02 
          1.4383441539e+02 -2.5799744932e+02 7.6054282519e+01 
          -6.5846429962e+01 3.0954738379e+02 4.9310307295e+00 
          -6.4418388639e+01 -1.9484685733e+02 6.8418804308e+01 
          2.8438925981e+02 3.2950899685e+02 -4.1923021072e-01 
          -3.5363168049e+02 -2.4163881200e+02 4.1775443718e+00 
          -1.1543417417e+02 2.3982281860e+02 1.7696802990e-01 
          -2.9592580880e+02 3.7316826708e+01 3.7926092615e+00 
          1.3059992578e+02 8.2347773147e+01 -1.8079935467e+00 
          -5.2918276972e+01 1.6690103829e+02 9.0464645778e-01 
          -1.7071955615e+01 1.4875968289e+02 -6.0672958269e-01 
          -7.6775691853e+01 1.2497436603e+02 -5.2882273651e+00 
          6.1205697701e+01 -1.5316246611e+01 -2.3477717588e+00 
          -1.1545268400e+02 1.9859532149e+02 1.4859759037e+00 
          3.5107690059e+01 2.7111773256e+02 -3.8660235209e-01 
          6.8968080487e-01 1.9209799130e+02 6.2739688164e+00 
          -1.9641791559e+02 8.0451780407e+01 4.0478241055e+00 
          -8.7438290102e+01 2.5706514607e+02 -4.5131699830e-01 
          4.0268188049e+00 8.6204718349e+01 4.1429130732e-01 
          -1.6355327393e+01 9.3987361171e+01 2.3829688296e-01 
          2.1360329830e+02 1.0045141587e+02 6.2686305509e-01 
          7.9958650050e+00 1.5223664476e+02 -1.0146833634e+01 
          3.2007600671e+01 6.6359436844e+01 -2.2630057921e+01 
          4.8421561378e+02 6.7593862490e+01 2.2512248019e+00 
          4.5664312727e+01 8.6428994068e+01 8.9552764368e-01 
          1.6820748987e+02 1.1231967665e+02 1.7893136054e-01 
          9.8529660715e+01 -1.4717173249e+01 1.1274957500e+01 
          -2.6003620828e+01 -3.6845357723e+01 1.0051668708e+01 
          3.6728691421e+02 8.2076827013e+01 6.3936435240e-01 
          4.4966324871e+01 1.7803008046e+02 -3.4202019425e+01 
          1.6942582557e+01 1.6615355959e+02 5.2700660603e+00 
          7.6556307239e+01 -3.9602228255e+01 -1.2431473333e+01 
          -2.7369566530e+01 8.3558587994e+01 4.3841079479e+01 
          4.0338661624e+02 1.3980535265e+00 4.2257219883e+00 
          9.6467652804e+00 -1.1914529488e+02 -1.2427910019e+00 
          1.1131944003e+02 -1.3234702602e+02 -1.5758320333e+00 
          -1.8093733685e+01 1.2614725313e+02 5.8815317370e-01 
          -9.8911665344e+01 1.4118368432e+02 -3.8971231694e+01 
          -1.2926362287e+01 1.1313970143e+02 3.4077421456e+00 
          -2.4451866182e+02 3.5651761848e+01 3.2716094124e-01 
          -8.3678786722e+01 3.4290762404e+00 2.1874174129e+01 
          -3.7720264368e+01 8.0037607616e+01 -1.5175750367e+01 
          -1.2931116937e+00 -2.6751315369e+02 -4.5576034109e+00 
          2.5603593318e+01 -1.3718080941e+03 -1.9087978231e+01 
          -7.0639020137e+01 2.5180671598e+01 5.4030844233e+01 
          7.1310997498e+00 -2.0084610722e+02 -7.7134579665e+00 
          4.1960880865e+01 -1.0690081105e+02 1.7545398280e+00 
          2.9218406906e+01 -4.4343726687e+01 1.3481181612e-01 
          3.9537095060e+01 -9.0973403702e+01 6.3252876269e-01 
          3.6251100235e+01 -3.6878664404e+01 2.2712689748e+00 
          -2.5443554604e+01 1.2181348733e+02 3.4604897637e-01 
          -2.3837873019e+01 1.5239179441e+02 -1.9665350745e+00 
          -1.5940270778e+02 1.7239633359e+02 1.9649257253e-01 
          -2.9876041968e+01 6.0669680369e+01 5.2144631436e-01 
          1.3831572223e+02 -7.3959201360e+01 7.4581393905e+00 
          -6.2691459458e+01 1.1494137744e+02 -9.8568782964e+00 
          -4.4369436591e+02 3.0594836550e+01 -2.2087394514e+00 
          -7.8246691387e+02 5.5595420945e+01 -3.3636884209e+00 
          2.7327485703e+01 5.1767767693e+01 -7.2919155751e-01 
          -3.5328319984e+02 2.1264064408e+00 -4.0723728120e+00 
          1.2964508617e+02 -9.8358631668e+01 9.4884909625e-01 
          -5.3177785982e+01 4.9820045474e+02 6.4897429093e+00 
          2.2618957853e+01 4.2548556992e+02 5.3884568522e+00 
          -2.7042897500e+01 9.4669913844e+02 1.2005710777e+01 
          3.9611223864e+01 2.9273581707e+02 4.7560073508e+00 
          3.8781051338e+01 -2.9240375757e+01 8.2568266011e-01 
          4.6168346324e+01 -9.9116067286e+01 1.1213072108e+00 
          5.6120307859e+01 -4.2153272839e+01 1.8962387858e+00 
          1.4278228491e+01 -2.1403753476e+01 -9.4741122050e-01 
          -1.3310020335e+01 -5.2173910009e+01 1.0399898894e+00 
          -1.8163020920e+01 -3.2666612184e+01 -8.7036719297e-01 
          3.6170087171e+01 -9.9737521680e+00 -1.1198546562e+00 
          -5.9802250404e+00 -8.4888652697e+00 1.7226682055e+00 
          9.1643238350e+00 -8.8302730830e+00 -1.0298961289e+00 
          -3.6831278954e+00 -3.2556723617e+01 1.2487107784e+00 
          9.8971433906e+00 -1.4783409738e+01 -6.2137002741e-01 
          -2.0140721154e+01 1.6672635794e+00 1.3943725862e+00 
          -1.6978474044e+01 7.9751827273e+00 -9.4614907676e-01 
          -1.2339882464e+01 7.6640101367e+01 -4.2338170355e-01 
          -3.8083077749e+01 6.7126613284e+01 4.5758301841e-01 
          -5.7256512480e+01 5.1370735413e+01 -6.8109593900e-01 
          -5.8776103500e+01 7.4254294398e+01 -2.8303835348e-01 
          4.7252886790e+01 1.8235842722e+01 6.7961615660e-01 
          2.2558354935e+00 2.7868365021e+01 -4.8127354615e-01 
          4.9237494247e+01 9.4040691612e+01 9.7955706635e-01 
          7.3860611920e+00 7.0494852238e+01 -6.2990973957e-01 
          -5.7943989571e+01 1.2927140638e+02 7.0305510164e-01 
          -5.6218316415e+01 5.1323574400e+01 -5.2201614151e-01 
          -9.9665601681e+01 5.7166271665e+01 -4.9814263408e-01 
          -5.2247022472e+01 9.7863010825e+01 6.7719727678e-01 
          -1.9369963362e+01 6.3127683376e+01 -4.8574228427e-01 
          3.2369191038e+01 7.8638853479e+01 -4.1627756820e-01 
          1.3792004214e+00 1.0407091696e+02 6.7302535189e-01 
          -1.3209096015e+01 7.5240202190e+01 -5.5666634172e-01 
          -6.3011889822e+00 6.6072906556e+01 7.6094752480e-01 
          -1.5222074323e+01 4.1380291267e+01 -5.0136138443e-01 
          -5.7504841398e+01 6.6279716099e+01 8.7017866576e-01 
          -2.0509019385e+01 2.9518196885e+01 -6.2852278907e-01 
          -2.8232657835e+01 -2.9595424911e+01 -3.4833743599e-01 
          -1.0274149795e+01 -6.8893157171e+01 -3.3096182326e-01 
          2.7409524371e-01 -8.5987971313e+00 1.1906744254e+00 
          3.7553626423e-01 -1.4078675866e+01 3.2483751040e-01 
          5.5651797012e+00 -1.3919940560e+01 5.1291972103e-01 
          7.7160424048e+00 -9.6250376890e+00 1.2827598335e+00 
          7.4975038602e+01 5.9495221044e+00 -2.2717594332e+01 
          8.1868098148e+01 2.4433959259e+01 -2.9183279701e+01 
          7.2134104150e+01 3.8407256517e+00 7.6978231950e-01 
          5.2897132417e+01 -8.1294164979e+02 -3.0169797688e+02 
          3.1327755093e+01 -3.9839524787e+02 -3.0888440432e+01 
          2.2108998541e+01 -4.9975234887e+01 -1.5533003575e+00 
          8.6425577114e+02 5.1892229077e+01 -3.1064243011e+01 
          2.1790062817e+02 3.4502730339e+01 -5.4602146598e-01 
          8.4240890135e+01 7.1005718255e+00 -5.7171303882e+00 
          -2.4435704496e+01 -8.2966148195e+02 -2.0285604883e-01 
          4.6793870086e+01 -5.9298452621e+02 -4.4556988185e+00 
          -1.5385766015e+01 -1.2012969957e+02 -7.3039882250e-01 
          1.3415762884e+01 2.1593794290e+01 6.0381103422e-01 
          4.4402927144e+01 3.8759564418e+01 1.5373485264e-01 
          3.7258107904e+01 2.9139242610e+01 5.3101032487e-02 
          -2.1233352031e+00 2.6388166519e+01 9.9243058783e-01 
          1.2436053976e+00 1.3226097848e+02 1.1123978553e+00 
          -4.4942149536e+00 7.6252881711e+01 1.2648634848e+00 
          2.2566455580e+00 2.1243244385e+01 6.9109511978e-01 
          4.9881243962e+01 3.7232758882e+01 -2.6005610224e+00 
          -1.3226907080e+02 4.3756940117e+01 -2.5676143994e-01 
          -3.2535861842e+01 5.1186106241e+01 -4.2600426463e+00 
          -3.5048561669e+01 1.1953511378e+02 -1.5103152896e+00 
          -2.4856300891e+01 -1.2784497134e+01 -2.1129519991e+00 
        </DataArray>
        <DataArray type="Float64" Name="UnbalancedLoad" NumberOfComponents="3" format="ascii">
          0.0000000000e+00 0.0000000000e+00 -5.4751044280e+03 
          0.0000000000e+00 0.0000000000e+00 -5.6103429910e+03 
          0.0000000000e+00 0.0000000000e+00 -5.4748912161e+03 
          0.0000000000e+00 0.0000000000e+00 -8.8401405513e+03 
          0.0000000000e+00 0.0000000000e+00 -8.8400058706e+03 
          0.0000000000e+00 0.0000000000e+00 -5.9815669794e+03 
          0.0000000000e+00 0.0000000000e+00 -5.9823731449e+03 
          0.0000000000e+00 0.0000000000e+00 -4.4756026597e+03 
          0.0000000000e+00 0.0000000000e+00 -4.4762741492e+03 
          0.0000000000e+00 0.0000000000e+00 -5.6101297743e+03 
          0.0000000000e+00 0.0000000000e+00 -5.4751044280e+03 
          0.0000000000e+00 0.0000000000e+00 -8.8401405513e+03 
          0.0000000000e+00 0.0000000000e+00 -5.9823731449e+03 
          0.0000000000e+00 0.0000000000e+00 -5.9823731449e+03 
          0.0000000000e+00 0.0000000000e+00 -4.4762741492e+03 
          0.0000000000e+00 0.0000000000e+00 -5.6101297743e+03 
          0.0000000000e+00 0.0000000000e+00 -5.4751044280e+03 
          0.0000000000e+00 0.0000000000e+00 -8.8401405513e+03 
          0.0000000000e+00 0.0000000000e+00 -5.9823731449e+03 
          0.0000000000e+00 0.0000000000e+00 -5.9823731449e+03 
          0.0000000000e+00 0.0000000000e+00 -4.4762741492e+03 
          0.0000000000e+00 0.0000000000e+00 -5.6101297743e+03 
          0.0000000000e+00 0.0000000000e+00 -5.9823731449e+03 
          0.0000000000e+00 0.0000000000e+00 -5.9823731449e+03 
          0.0000000000e+00 0.0000000000e+00 -2.9821915691e+03 
          0.0000000000e+00 0.0000000000e+00 -2.9821915691e+03 
          0.0000000000e+00 0.0000000000e+00 -2.6935576273e+03 
          0.0000000000e+00 0.0000000000e+00 -2.6935576273e+03 
          0.0000000000e+00 0.0000000000e+00 -2.2173199488e+03 
          0.0000000000e+00 0.0000000000e+00 -2.2173199488e+03 
          0.0000000000e+00 0.0000000000e+00 -2.9821915691e+03 
          0.0000000000e+00 0.0000000000e+00 -2.6935576273e+03 
          0.0000000000e+00 0.0000000000e+00 -2.2173199488e+03 
          0.0000000000e+00 0.0000000000e+00 -2.9821915691e+03 
          0.0000000000e+00 0.0000000000e+00 -2.6935576273e+03 
          0.0000000000e+00 0.0000000000e+00 -2.2173199488e+03 
          0.0000000000e+00 0.0000000000e+00 -1.7854839650e+03 
          0.0000000000e+00 0.0000000000e+00 -1.7854839650e+03 
          0.0000000000e+00 0.0000000000e+00 -1.6154423070e+03 
          0.0000000000e+00 0.0000000000e+00 -1.6154423070e+03 
          0.0000000000e+00 0.0000000000e+00 -2.2013341269e+03 
          0.0000000000e+00 0.0000000000e+00 -2.2013341269e+03 
          0.0000000000e+00 0.0000000000e+00 -1.7854839650e+03 
          0.0000000000e+00 0.0000000000e+00 -1.6154423070e+03 
          0.0000000000e+00 0.0000000000e+00 -2.2013341269e+03 
          0.0000000000e+00 0.0000000000e+00 -1.7854839650e+03 
          0.0000000000e+00 0.0000000000e+00 -1.6154423070e+03 
          0.0000000000e+00 0.0000000000e+00 -2.2013341269e+03 
          0.0000000000e+00 0.0000000000e+00 -1.0154029445e+03 
          0.0000000000e+00 0.0000000000e+00 -1.0154029445e+03 
          0.0000000000e+00 0.0000000000e+00 -1.2695651888e+03 
          0.0000000000e+00 0.0000000000e+00 -1.0418020528e+03 
          0.0000000000e+00 0.0000000000e+00 -1.0418020528e+03 
          0.0000000000e+00 0.0000000000e+00 -5.7914643591e+02 
          0.0000000000e+00 0.0000000000e+00 -7.8081484649e+02 
          0.0000000000e+00 0.0000000000e+00 -7.8081484649e+02 
          0.0000000000e+00 0.0000000000e+00 -2.0748731141e+03 
          0.0000000000e+00 0.0000000000e+00 -2.0748731141e+03 
          0.0000000000e+00 0.0000000000e+00 -1.0349770908e+03 
          0.0000000000e+00 0.0000000000e+00 -1.9009615397e+03 
          0.0000000000e+00 0.0000000000e+00 -1.9009615397e+03 
          0.0000000000e+00 0.0000000000e+00 -1.0418020528e+03 
          0.0000000000e+00 0.0000000000e+00 -1.0418020528e+03 
          0.0000000000e+00 0.0000000000e+00 -5.7914643591e+02 
          0.0000000000e+00 0.0000000000e+00 -1.9850754632e+03 
          0.0000000000e+00 0.0000000000e+00 -1.9850754632e+03 
          0.0000000000e+00 0.0000000000e+00 -1.0154029445e+03 
          0.0000000000e+00 0.0000000000e+00 -1.9009615397e+03 
          0.0000000000e+00 0.0000000000e+00 -1.2695651888e+03 
          0.0000000000e+00 0.0000000000e+00 -7.8081484649e+02 
          0.0000000000e+00 0.0000000000e+00 -2.0748731141e+03 
          0.0000000000e+00 0.0000000000e+00 -1.0418020528e+03 
          0.0000000000e+00 0.0000000000e+00 -5.7914643591e+02 
          0.0000000000e+00 0.0000000000e+00 -1.0349770908e+03 
          0.0000000000e+00 0.0000000000e+00 -1.0418020528e+03 
          0.0000000000e+00 0.0000000000e+00 -5.7914643591e+02 
          0.0000000000e+00 0.0000000000e+00 -1.9850754632e+03 
          0.0000000000e+00 0.0000000000e+00 -5.5096413921e+02 
          0.0000000000e+00 0.0000000000e+00 -6.6578388067e+02 
          0.0000000000e+00 0.0000000000e+00 -6.6578388067e+02 
          0.0000000000e+00 0.0000000000e+00 -1.0154029445e+03 
          0.0000000000e+00 0.0000000000e+00 -1.9009615397e+03 
          0.0000000000e+00 0.0000000000e+00 -1.2695651888e+03 
          0.0000000000e+00 0.0000000000e+00 -7.8081484649e+02 
          0.0000000000e+00 0.0000000000e+00 -2.0748731141e+03 
          0.0000000000e+00 0.0000000000e+00 -1.0418020528e+03 
          0.0000000000e+00 0.0000000000e+00 -5.7914643591e+02 
          0.0000000000e+00 0.0000000000e+00 -1.0349770908e+03 
          0.0000000000e+00 0.0000000000e+00 -1.0418020528e+03 
          0.0000000000e+00 0.0000000000e+00 -5.7914643591e+02 
          0.0000000000e+00 0.0000000000e+00 -1.9850754632e+03 
          0.0000000000e+00 0.0000000000e+00 -1.2695651888e+03 
          0.0000000000e+00 0.0000000000e+00 -5.7914643591e+02 
          0.0000000000e+00 0.0000000000e+00 -1.0349770908e+03 
          0.0000000000e+00 0.0000000000e+00 -5.7914643591e+02 
          0.0000000000e+00 0.0000000000e+00 -5.5096413921e+02 
          0.0000000000e+00 0.0000000000e+00 -6.6578388067e+02 
          0.0000000000e+00 0.0000000000e+00 -6.6578388067e+02 
          0.0000000000e+00 0.0000000000e+00 -8.6082917045e+02 
          0.0000000000e+00 0.0000000000e+00 -8.6083549928e+02 
          0.0000000000e+00 0.0000000000e+00 -6.1104081514e+02 
          0.0000000000e+00 0.0000000000e+00 -8.6082917045e+02 
          0.0000000000e+00 0.0000000000e+00 -8.6083549928e+02 
          0.0000000000e+00 0.0000000000e+00 -6.1104081514e+02 
          0.0000000000e+00 0.0000000000e+00 -8.6083549928e+02 
          0.0000000000e+00 0.0000000000e+00 -6.1104081514e+02 
          0.0000000000e+00 0.0000000000e+00 -8.6083549928e+02 
          0.0000000000e+00 0.0000000000e+00 -6.1104081514e+02 
          0.0000000000e+00 0.0000000000e+00 -8.6082917045e+02 
          0.0000000000e+00 0.0000000000e+00 -8.6083549928e+02 
          0.0000000000e+00 0.0000000000e+00 -6.1104081514e+02 
          0.0000000000e+00 0.0000000000e+00 -8.6082917045e+02 
          0.0000000000e+00 0.0000000000e+00 -8.6083549928e+02 
          0.0000000000e+00 0.0000000000e+00 -6.1104081514e+02 
          0.0000000000e+00 0.0000000000e+00 -8.6083549928e+02 
          0.0000000000e+00 0.0000000000e+00 -6.1104081514e+02 
          0.0000000000e+00 0.0000000000e+00 -8.6083549928e+02 
          0.0000000000e+00 0.0000000000e+00 -6.1104081514e+02 
          0.0000000000e+00 0.0000000000e+00 -8.6082917045e+02 
          0.0000000000e+00 0.0000000000e+00 -8.6083549928e+02 
          0.0000000000e+00 0.0000000000e+00 -6.1104081514e+02 
          0.0000000000e+00 0.0000000000e+00 -8.6082917045e+02 
          0.0000000000e+00 0.0000000000e+00 -8.6083549928e+02 
          0.0000000000e+00 0.0000000000e+00 -6.1104081514e+02 
          0.0000000000e+00 0.0000000000e+00 -8.6083549928e+02 
          0.0000000000e+00 0.0000000000e+00 -6.1104081514e+02 
          0.0000000000e+00 0.0000000000e+00 -8.6083549928e+02 
          0.0000000000e+00 0.0000000000e+00 -6.1104081514e+02 
          0.0000000000e+00 0.0000000000e+00 -5.5227679110e+02 
          0.0000000000e+00 0.0000000000e+00 -5.5227679110e+02 
          0.0000000000e+00 0.0000000000e+00 -1.5097151975e+02 
          0.0000000000e+00 0.0000000000e+00 -1.5097151975e+02 
          0.0000000000e+00 0.0000000000e+00 -1.5097151975e+02 
          0.0000000000e+00 0.0000000000e+00 -1.5097151975e+02 
          0.0000000000e+00 0.0000000000e+00 -7.3459181693e+02 
          0.0000000000e+00 0.0000000000e+00 -6.6354857992e+02 
          0.0000000000e+00 0.0000000000e+00 -5.9821967489e+02 
          0.0000000000e+00 0.0000000000e+00 -7.3459181693e+02 
          0.0000000000e+00 0.0000000000e+00 -6.6354857992e+02 
          0.0000000000e+00 0.0000000000e+00 -5.9821967489e+02 
          0.0000000000e+00 0.0000000000e+00 -7.3459181693e+02 
          0.0000000000e+00 0.0000000000e+00 -6.6354857992e+02 
          0.0000000000e+00 0.0000000000e+00 -5.9821967489e+02 
          0.0000000000e+00 0.0000000000e+00 -7.3459181693e+02 
          0.0000000000e+00 0.0000000000e+00 -6.6354857992e+02 
          0.0000000000e+00 0.0000000000e+00 -5.9821967489e+02 
          0.0000000000e+00 0.0000000000e+00 -5.3942043323e+02 
          0.0000000000e+00 0.0000000000e+00 -4.8548736764e+02 
          0.0000000000e+00 0.0000000000e+00 -4.4007177265e+02 
          0.0000000000e+00 0.0000000000e+00 -5.3942043323e+02 
          0.0000000000e+00 0.0000000000e+00 -4.8548736764e+02 
          0.0000000000e+00 0.0000000000e+00 -4.4007177265e+02 
          0.0000000000e+00 0.0000000000e+00 -5.3942043323e+02 
          0.0000000000e+00 0.0000000000e+00 -4.8548736764e+02 
          0.0000000000e+00 0.0000000000e+00 -4.4007177265e+02 
          0.0000000000e+00 0.0000000000e+00 -5.3942043323e+02 
          0.0000000000e+00 0.0000000000e+00 -4.8548736764e+02 
          0.0000000000e+00 0.0000000000e+00 -4.4007177265e+02 
        </DataArray>
      </PointData>
      <CellData>
        <DataArray type="Int64" Name="ElementTag" format="ascii">
          0
        </DataArray>
      </CellData>
    </Piece>
  </UnstructuredGrid>
</VTKFile>
