<?xml version="1.0"?>
<VTKFile type="UnstructuredGrid" version="1.0" byte_order="LittleEndian" compressor="vtkZLibDataCompressor">
  <UnstructuredGrid>
    <Piece NumberOfPoints="158" NumberOfCells="1">
      <Points>
        <DataArray type="Float64" Name="Points" NumberOfComponents="3" format="ascii">
          1.7550000000e+00 -1.7550000000e+00 0.0000000000e+00 
          1.4140000000e+00 0.0000000000e+00 5.2300000000e+00 
          1.7550000000e+00 1.7550000000e+00 -0.0000000000e+00 
          1.4140000000e+00 -1.4140000000e+00 5.2300000000e+00 
          1.4140000000e+00 1.4140000000e+00 5.2300000000e+00 
          1.5840000000e+00 8.7800000000e-01 2.6150000000e+00 
          1.5840000000e+00 -8.7700000000e-01 2.6150000000e+00 
          1.5840000000e+00 1.5840000000e+00 2.6150000000e+00 
          1.5840000000e+00 -1.5840000000e+00 2.6150000000e+00 
          -0.0000000000e+00 1.4140000000e+00 5.2300000000e+00 
          -1.7550000000e+00 1.7550000000e+00 -0.0000000000e+00 
          -1.4140000000e+00 1.4140000000e+00 5.2300000000e+00 
          -8.7700000000e-01 1.5840000000e+00 2.6150000000e+00 
          8.7700000000e-01 1.5840000000e+00 2.6150000000e+00 
          -1.5840000000e+00 1.5840000000e+00 2.6150000000e+00 
          -1.4140000000e+00 -0.0000000000e+00 5.2300000000e+00 
          -1.7550000000e+00 -1.7550000000e+00 -0.0000000000e+00 
          -1.4140000000e+00 -1.4140000000e+00 5.2300000000e+00 
          -1.5840000000e+00 -8.7700000000e-01 2.6150000000e+00 
          -1.5840000000e+00 8.7700000000e-01 2.6150000000e+00 
          -1.5840000000e+00 -1.5840000000e+00 2.6150000000e+00 
          0.0000000000e+00 -1.4140000000e+00 5.2300000000e+00 
          8.7700000000e-01 -1.5840000000e+00 2.6150000000e+00 
          -8.7700000000e-01 -1.5840000000e+00 2.6150000000e+00 
          1.2750000000e+00 1.2750000000e+00 7.3500000000e+00 
          1.2750000000e+00 -1.2750000000e+00 7.3500000000e+00 
          1.1500000000e+00 -1.1500000000e+00 9.2700000000e+00 
          1.1500000000e+00 1.1500000000e+00 9.2700000000e+00 
          1.0370000000e+00 -1.0370000000e+00 1.1000000000e+01 
          1.0370000000e+00 1.0370000000e+00 1.1000000000e+01 
          -1.2750000000e+00 1.2750000000e+00 7.3500000000e+00 
          -1.1500000000e+00 1.1500000000e+00 9.2700000000e+00 
          -1.0370000000e+00 1.0370000000e+00 1.1000000000e+01 
          -1.2750000000e+00 -1.2750000000e+00 7.3500000000e+00 
          -1.1500000000e+00 -1.1500000000e+00 9.2700000000e+00 
          -1.0370000000e+00 -1.0370000000e+00 1.1000000000e+01 
          9.3500000000e-01 9.3500000000e-01 1.2560000000e+01 
          9.3500000000e-01 -9.3500000000e-01 1.2560000000e+01 
          8.4300000000e-01 8.4300000000e-01 1.3960000000e+01 
          8.4300000000e-01 -8.4300000000e-01 1.3960000000e+01 
          7.6000000000e-01 7.6000000000e-01 1.5240000000e+01 
          7.6000000000e-01 -7.6000000000e-01 1.5240000000e+01 
          -9.3500000000e-01 9.3500000000e-01 1.2560000000e+01 
          -8.4300000000e-01 8.4300000000e-01 1.3960000000e+01 
          -7.6000000000e-01 7.6000000000e-01 1.5240000000e+01 
          -9.3500000000e-01 -9.3500000000e-01 1.2560000000e+01 
          -8.4300000000e-01 -8.4300000000e-01 1.3960000000e+01 
          -7.6000000000e-01 -7.6000000000e-01 1.5240000000e+01 
          7.6000000000e-01 -7.6000000000e-01 1.6240000000e+01 
          7.6000000000e-01 7.6000000000e-01 1.6240000000e+01 
          7.6000000000e-01 0.0000000000e+00 1.6240000000e+01 
          7.6000000000e-01 7.6000000000e-01 1.7340000000e+01 
          7.6000000000e-01 -7.6000000000e-01 1.7340000000e+01 
          7.6000000000e-01 0.0000000000e+00 1.7890000000e+01 
          7.6000000000e-01 -7.6000000000e-01 1.9440000000e+01 
          7.6000000000e-01 7.6000000000e-01 1.9440000000e+01 
          7.6000000000e-01 -7.6000000000e-01 2.1640000000e+01 
          7.6000000000e-01 7.6000000000e-01 2.1640000000e+01 
          7.6000000000e-01 0.0000000000e+00 1.9440000000e+01 
          7.6000000000e-01 7.6000000000e-01 1.8440000000e+01 
          7.6000000000e-01 -7.6000000000e-01 1.8440000000e+01 
          7.6000000000e-01 -7.6000000000e-01 2.0540000000e+01 
          7.6000000000e-01 7.6000000000e-01 2.0540000000e+01 
          7.6000000000e-01 0.0000000000e+00 2.1090000000e+01 
          7.6000000000e-01 7.6000000000e-01 2.2640000000e+01 
          7.6000000000e-01 -7.6000000000e-01 2.2640000000e+01 
          -7.6000000000e-01 7.6000000000e-01 1.6240000000e+01 
          -7.6000000000e-01 7.6000000000e-01 1.8440000000e+01 
          -0.0000000000e+00 7.6000000000e-01 1.6240000000e+01 
          -7.6000000000e-01 7.6000000000e-01 1.9440000000e+01 
          -7.6000000000e-01 7.6000000000e-01 2.1640000000e+01 
          -7.6000000000e-01 7.6000000000e-01 1.7340000000e+01 
          -0.0000000000e+00 7.6000000000e-01 1.7890000000e+01 
          -0.0000000000e+00 7.6000000000e-01 1.9440000000e+01 
          -7.6000000000e-01 7.6000000000e-01 2.0540000000e+01 
          0.0000000000e+00 7.6000000000e-01 2.1090000000e+01 
          -7.6000000000e-01 7.6000000000e-01 2.2640000000e+01 
          -0.0000000000e+00 5.2600000000e-01 2.3499000000e+01 
          3.9900000000e-01 4.0400000000e-01 2.3950000000e+01 
          -3.9900000000e-01 4.0400000000e-01 2.3950000000e+01 
          -7.6000000000e-01 -7.6000000000e-01 1.6240000000e+01 
          -7.6000000000e-01 -7.6000000000e-01 1.8440000000e+01 
          -7.6000000000e-01 -0.0000000000e+00 1.6240000000e+01 
          -7.6000000000e-01 -7.6000000000e-01 1.9440000000e+01 
          -7.6000000000e-01 -7.6000000000e-01 2.1640000000e+01 
          -7.6000000000e-01 -7.6000000000e-01 1.7340000000e+01 
          -7.6000000000e-01 0.0000000000e+00 1.7890000000e+01 
          -7.6000000000e-01 -0.0000000000e+00 1.9440000000e+01 
          -7.6000000000e-01 -7.6000000000e-01 2.0540000000e+01 
          -7.6000000000e-01 -0.0000000000e+00 2.1090000000e+01 
          -7.6000000000e-01 -7.6000000000e-01 2.2640000000e+01 
          0.0000000000e+00 -7.6000000000e-01 1.6240000000e+01 
          0.0000000000e+00 -7.6000000000e-01 1.7890000000e+01 
          0.0000000000e+00 -7.6000000000e-01 1.9440000000e+01 
          0.0000000000e+00 -7.6000000000e-01 2.1090000000e+01 
          0.0000000000e+00 -5.2600000000e-01 2.3499000000e+01 
          3.9900000000e-01 -4.0400000000e-01 2.3950000000e+01 
          -3.9900000000e-01 -4.0400000000e-01 2.3950000000e+01 
          -0.0000000000e+00 -3.3500000000e+00 2.1640000000e+01 
          -3.8000000000e-01 -2.0550000000e+00 2.2140000000e+01 
          -3.8000000000e-01 -2.0550000000e+00 2.1640000000e+01 
          0.0000000000e+00 3.3500000000e+00 2.1640000000e+01 
          -3.8000000000e-01 2.0550000000e+00 2.2140000000e+01 
          -3.8000000000e-01 2.0550000000e+00 2.1640000000e+01 
          3.8000000000e-01 2.0550000000e+00 2.2140000000e+01 
          3.8000000000e-01 2.0550000000e+00 2.1640000000e+01 
          3.8000000000e-01 -2.0550000000e+00 2.2140000000e+01 
          3.8000000000e-01 -2.0550000000e+00 2.1640000000e+01 
          -0.0000000000e+00 -3.3500000000e+00 1.8440000000e+01 
          -3.8000000000e-01 -2.0550000000e+00 1.8940000000e+01 
          -3.8000000000e-01 -2.0550000000e+00 1.8440000000e+01 
          -0.0000000000e+00 3.3500000000e+00 1.8440000000e+01 
          -3.8000000000e-01 2.0550000000e+00 1.8940000000e+01 
          -3.8000000000e-01 2.0550000000e+00 1.8440000000e+01 
          3.8000000000e-01 2.0550000000e+00 1.8940000000e+01 
          3.8000000000e-01 2.0550000000e+00 1.8440000000e+01 
          3.8000000000e-01 -2.0550000000e+00 1.8940000000e+01 
          3.8000000000e-01 -2.0550000000e+00 1.8440000000e+01 
          -0.0000000000e+00 -3.3500000000e+00 1.5240000000e+01 
          -3.8000000000e-01 -2.0550000000e+00 1.5740000000e+01 
          -3.8000000000e-01 -2.0550000000e+00 1.5240000000e+01 
          -0.0000000000e+00 3.3500000000e+00 1.5240000000e+01 
          -3.8000000000e-01 2.0550000000e+00 1.5740000000e+01 
          -3.8000000000e-01 2.0550000000e+00 1.5240000000e+01 
          3.8000000000e-01 2.0550000000e+00 1.5740000000e+01 
          3.8000000000e-01 2.0550000000e+00 1.5240000000e+01 
          3.8000000000e-01 -2.0550000000e+00 1.5740000000e+01 
          3.8000000000e-01 -2.0550000000e+00 1.5240000000e+01 
          -5.2400000000e-01 0.0000000000e+00 2.3496000000e+01 
          5.2400000000e-01 0.0000000000e+00 2.3496000000e+01 
          4.0000000000e-02 5.0000000000e-02 2.5250000000e+01 
          -4.0000000000e-02 5.0000000000e-02 2.5250000000e+01 
          -4.0000000000e-02 -5.0000000000e-02 2.5250000000e+01 
          4.0000000000e-02 -5.0000000000e-02 2.5250000000e+01 
          1.3410000000e+00 0.0000000000e+00 6.3450000000e+00 
          1.2090000000e+00 0.0000000000e+00 8.3600000000e+00 
          1.0900000000e+00 -0.0000000000e+00 1.0180000000e+01 
          -0.0000000000e+00 1.3410000000e+00 6.3450000000e+00 
          0.0000000000e+00 1.2090000000e+00 8.3600000000e+00 
          -0.0000000000e+00 1.0900000000e+00 1.0180000000e+01 
          -1.3410000000e+00 0.0000000000e+00 6.3450000000e+00 
          -1.2090000000e+00 0.0000000000e+00 8.3600000000e+00 
          -1.0900000000e+00 -0.0000000000e+00 1.0180000000e+01 
          -0.0000000000e+00 -1.3410000000e+00 6.3450000000e+00 
          0.0000000000e+00 -1.2090000000e+00 8.3600000000e+00 
          0.0000000000e+00 -1.0900000000e+00 1.0180000000e+01 
          9.8300000000e-01 0.0000000000e+00 1.1820000000e+01 
          8.8700000000e-01 0.0000000000e+00 1.3296000000e+01 
          8.0000000000e-01 -0.0000000000e+00 1.4633000000e+01 
          0.0000000000e+00 9.8300000000e-01 1.1820000000e+01 
          -0.0000000000e+00 8.8700000000e-01 1.3296000000e+01 
          0.0000000000e+00 8.0000000000e-01 1.4633000000e+01 
          -9.8300000000e-01 0.0000000000e+00 1.1820000000e+01 
          -8.8700000000e-01 0.0000000000e+00 1.3296000000e+01 
          -8.0000000000e-01 0.0000000000e+00 1.4633000000e+01 
          0.0000000000e+00 -9.8300000000e-01 1.1820000000e+01 
          0.0000000000e+00 -8.8700000000e-01 1.3296000000e+01 
          0.0000000000e+00 -8.0000000000e-01 1.4633000000e+01 
        </DataArray>
      </Points>
      <Cells>
        <DataArray type="Int64" Name="connectivity" format="ascii">
          0
          1
          2
          3
          4
          5
          6
          7
          8
          9
          10
          11
          12
          13
          14
          15
          16
          17
          18
          19
          20
          21
          22
          23
          24
          25
          26
          27
          28
          29
          30
          31
          32
          33
          34
          35
          36
          37
          38
          39
          40
          41
          42
          43
          44
          45
          46
          47
          48
          49
          50
          51
          52
          53
          54
          55
          56
          57
          58
          59
          60
          61
          62
          63
          64
          65
          66
          67
          68
          69
          70
          71
          72
          73
          74
          75
          76
          77
          78
          79
          80
          81
          82
          83
          84
          85
          86
          87
          88
          89
          90
          91
          92
          93
          94
          95
          96
          97
          98
          99
          100
          101
          102
          103
          104
          105
          106
          107
          108
          109
          110
          111
          112
          113
          114
          115
          116
          117
          118
          119
          120
          121
          122
          123
          124
          125
          126
          127
          128
          129
          130
          131
          132
          133
          134
          135
          136
          137
          138
          139
          140
          141
          142
          143
          144
          145
          146
          147
          148
          149
          150
          151
          152
          153
          154
          155
          156
          157
        </DataArray>
        <DataArray type="Int64" Name="offsets" format="ascii">
          158
        </DataArray>
        <DataArray type="Int64" Name="types" format="ascii">
          2
        </DataArray>
      </Cells>
      <PointData>
        <DataArray type="Int64" Name="NodeTag" format="ascii">
          1
          2
          3
          4
          5
          6
          7
          8
          9
          10
          11
          12
          13
          14
          15
          16
          17
          18
          19
          20
          21
          22
          23
          24
          25
          26
          27
          28
          29
          30
          31
          32
          33
          34
          35
          36
          37
          38
          39
          40
          41
          42
          43
          44
          45
          46
          47
          48
          49
          50
          51
          52
          53
          54
          55
          56
          57
          58
          59
          60
          61
          62
          63
          64
          65
          66
          67
          68
          69
          70
          71
          72
          73
          74
          75
          76
          77
          78
          79
          80
          81
          82
          83
          84
          85
          86
          87
          88
          89
          90
          91
          92
          93
          94
          95
          96
          97
          98
          99
          100
          101
          102
          103
          104
          105
          106
          107
          108
          109
          110
          111
          112
          113
          114
          115
          116
          117
          118
          119
          120
          121
          122
          123
          124
          125
          126
          127
          128
          129
          130
          131
          132
          133
          134
          135
          136
          137
          138
          139
          140
          141
          142
          143
          144
          145
          146
          147
          148
          149
          150
          151
          152
          153
          154
          155
          156
          157
          158
        </DataArray>
        <DataArray type="Float64" Name="Displacement" NumberOfComponents="3" format="ascii">
          0.0000000000e+00 0.0000000000e+00 0.0000000000e+00 
          -6.7850211239e-04 -1.6107609700e-05 -4.2600766040e-04 
          0.0000000000e+00 0.0000000000e+00 0.0000000000e+00 
          -1.1521694216e-05 -1.5331377494e-06 -2.1139685523e-03 
          -1.2597966578e-05 -3.1201101866e-05 -2.0974433566e-03 
          -3.2533859514e-03 -3.3715389052e-03 -1.6053451784e-03 
          -3.2798375747e-03 3.3755719834e-03 -1.6142136510e-03 
          -3.3496561559e-03 -3.3660135424e-03 -1.5558734480e-03 
          -3.3783973229e-03 3.3699622953e-03 -1.5674446773e-03 
          2.0523380595e-06 -6.9280660525e-04 -4.2712732467e-04 
          0.0000000000e+00 0.0000000000e+00 0.0000000000e+00 
          1.6800920999e-05 -2.8991505843e-05 -2.0976065596e-03 
          3.3588185460e-03 -3.2639251976e-03 -1.6041349529e-03 
          -3.3551905198e-03 -3.2681235029e-03 -1.6039138580e-03 
          3.3532903316e-03 -3.3618744236e-03 -1.5558440771e-03 
          6.8422458942e-04 -1.3833961358e-05 -4.2740443863e-04 
          0.0000000000e+00 0.0000000000e+00 0.0000000000e+00 
          1.7644262314e-05 7.1829474444e-07 -2.1139000129e-03 
          3.2841534143e-03 3.3754708539e-03 -1.6145565661e-03 
          3.2569629744e-03 -3.3673990306e-03 -1.6049761808e-03 
          3.3824488832e-03 3.3698660881e-03 -1.5674150040e-03 
          2.9909617445e-06 6.6688379423e-04 -4.2728917716e-04 
          -3.3840104288e-03 3.2713384371e-03 -1.6153524100e-03 
          3.3880547119e-03 3.2711110926e-03 -1.6156469020e-03 
          4.7841457241e-04 4.4659878314e-04 -2.8354197033e-03 
          4.8662427172e-04 -5.2395085797e-04 -2.8585139508e-03 
          9.1596578022e-05 -1.3692639612e-04 -3.5848595531e-03 
          8.7936986800e-05 8.1169746107e-06 -3.5570672144e-03 
          2.9036822992e-04 -3.9587280108e-04 -4.0969009948e-03 
          2.8390641674e-04 2.1263624708e-04 -4.0669754915e-03 
          -4.7306411810e-04 4.4878992681e-04 -2.8353330325e-03 
          -8.1529025431e-05 1.0484568916e-05 -3.5568837093e-03 
          -2.7670316212e-04 2.1481438130e-04 -4.0668408995e-03 
          -4.7735077630e-04 -5.2141110537e-04 -2.8583648094e-03 
          -7.9830456796e-05 -1.3461542219e-04 -3.5848090078e-03 
          -2.7693185884e-04 -3.9375694628e-04 -4.0970606552e-03 
          1.6195443414e-04 2.7083692013e-06 -4.6649813886e-03 
          1.6675098831e-04 -2.4261837089e-04 -4.6971223089e-03 
          2.1273755008e-04 1.2016100270e-04 -5.1325786777e-03 
          2.1808566266e-04 -4.1685407234e-04 -5.1652753301e-03 
          6.3991811719e-05 -2.1383504940e-04 -5.5527452368e-03 
          6.7685774528e-05 -1.3915568028e-04 -5.5851174741e-03 
          -1.5422728578e-04 4.5906912141e-06 -4.6650165108e-03 
          -2.0500905607e-04 1.2168087752e-04 -5.1328658286e-03 
          -5.6879792897e-05 -2.1290131060e-04 -5.5533292738e-03 
          -1.5237167412e-04 -2.4089110568e-04 -4.6975797134e-03 
          -2.0361722145e-04 -4.1563899801e-04 -5.1660179192e-03 
          -5.3888321073e-05 -1.3830344237e-04 -5.5860953846e-03 
          -4.8980295306e-06 -2.4333570434e-04 -6.0750773950e-03 
          -7.9834073533e-06 -1.5645309908e-04 -6.0390802008e-03 
          4.9297419043e-05 -1.9987485716e-04 -5.7932745022e-03 
          6.6452181149e-04 5.3087371229e-04 -6.4937380442e-03 
          6.7209538454e-04 -9.9280511941e-04 -6.5338525611e-03 
          3.4605090329e-04 -2.4604332815e-04 -7.4583771049e-03 
          -2.1703826373e-05 -3.7725159996e-04 -7.5374181142e-03 
          -2.4735724587e-05 -2.0640544901e-04 -7.4930227286e-03 
          7.9972287657e-06 -2.6597587081e-04 -8.1578944782e-03 
          5.4086557671e-06 -4.5255185556e-04 -8.1117409040e-03 
          3.4241086769e-05 -2.9182429893e-04 -7.3196581036e-03 
          2.2772829045e-05 -3.4381000114e-04 -7.2011471076e-03 
          2.5606083444e-05 -1.8088621425e-04 -7.2445781003e-03 
          3.6957627332e-04 -7.9623931723e-04 -7.7826893182e-03 
          3.6543307759e-04 1.4486016769e-04 -7.7371662445e-03 
          1.8699351807e-04 -3.4234877761e-04 -8.3465987112e-03 
          3.2480516378e-06 -2.7571495716e-04 -8.2478157477e-03 
          5.6860349472e-06 -5.0407252033e-04 -8.2941016841e-03 
          1.4552670870e-05 -1.5585186614e-04 -6.0402962367e-03 
          -2.1913732226e-05 -3.4378950262e-04 -7.2037276875e-03 
          3.2747614316e-06 -1.1211485826e-04 -5.8454362579e-03 
          2.2139843868e-05 -2.0647476400e-04 -7.4960488703e-03 
          -1.8446653502e-05 -4.5326853211e-04 -8.1155684054e-03 
          -6.6047778398e-04 5.3195736384e-04 -6.4955126574e-03 
          1.3710978745e-06 9.2001131353e-05 -7.2998182535e-03 
          -1.3050083645e-06 -1.8432631754e-04 -7.3722434449e-03 
          -3.7309851327e-04 1.4511333143e-04 -7.7405646864e-03 
          -5.0984433875e-06 -1.5547899782e-04 -8.1844788976e-03 
          -2.1422498641e-05 -2.7650012718e-04 -8.2518142708e-03 
          -1.1187845844e-05 -5.3833721149e-04 -8.3697756783e-03 
          -1.3451275845e-05 -4.3806769323e-04 -8.3495859898e-03 
          -1.1329531103e-05 -4.3831880201e-04 -8.3517668294e-03 
          1.7640993333e-05 -2.4272879697e-04 -6.0766023573e-03 
          -1.8551451497e-05 -1.8084286322e-04 -7.2473555840e-03 
          -3.9280870015e-05 -1.9927697837e-04 -5.7943600100e-03 
          2.5159581929e-05 -3.7733340422e-04 -7.5406924110e-03 
          -1.5611164813e-05 -2.6657516374e-04 -8.1621250067e-03 
          -6.6182270208e-04 -9.9328372884e-04 -6.5358547934e-03 
          -3.3988737683e-04 -2.4587944910e-04 -7.4612025981e-03 
          -3.3366217277e-05 -2.9190584270e-04 -7.3225669545e-03 
          -3.7144024625e-04 -7.9716277205e-04 -7.7863896977e-03 
          -1.9392981874e-04 -3.4282485288e-04 -8.3508296429e-03 
          -1.9161586928e-05 -5.0506563578e-04 -8.2986162396e-03 
          6.3790915892e-06 -2.9096346476e-04 -5.8804390155e-03 
          4.4751150798e-06 -5.8832071459e-04 -7.3449192941e-03 
          1.7286276768e-06 -4.0389400977e-04 -7.4163175051e-03 
          -2.2700645644e-06 -5.3258200395e-04 -8.2314238545e-03 
          -9.4747979655e-06 -2.9807581663e-04 -8.4012101968e-03 
          -1.2010261861e-05 -4.2290753078e-04 -8.3741775120e-03 
          -1.0094316383e-05 -4.2318443771e-04 -8.3768050830e-03 
          -2.1618508296e-06 -1.4524260643e-04 -9.9113890755e-03 
          -1.7798934283e-06 -4.4362776161e-04 -8.9589614356e-03 
          2.5007882299e-07 -2.0191256254e-04 -8.9704550839e-03 
          -7.7826353030e-06 -5.7400117227e-04 -9.7065363242e-03 
          -1.0214280115e-05 -3.0533994831e-04 -8.8328097471e-03 
          -8.1398804687e-06 -5.1640372375e-04 -8.8443209224e-03 
          -1.1101092073e-05 -3.0621358501e-04 -8.8305109497e-03 
          -7.2976360578e-06 -5.1639893103e-04 -8.8420005265e-03 
          -2.7123867802e-06 -4.4462690507e-04 -8.9560415924e-03 
          1.1417334692e-06 -2.0375072251e-04 -8.9675200637e-03 
          3.9939975577e-06 -5.7651124686e-05 -9.0772052097e-03 
          5.3853863345e-06 -3.7077822160e-04 -8.0868132539e-03 
          6.4520860071e-06 -1.1400667483e-04 -8.0982967608e-03 
          4.4378734776e-07 -4.6727184098e-04 -8.8813541880e-03 
          -1.4700906586e-06 -1.8252363300e-04 -7.9664592552e-03 
          -3.0256932462e-07 -4.0980495527e-04 -7.9779599544e-03 
          -2.5233163450e-06 -1.8341377612e-04 -7.9648119026e-03 
          6.6085605016e-07 -4.0997924366e-04 -7.9762965720e-03 
          4.2601486816e-06 -3.7200207125e-04 -8.0847672947e-03 
          7.4988482703e-06 -1.1589527024e-04 -8.0962389376e-03 
          6.1576373955e-06 -4.7517484282e-06 -7.3944785182e-03 
          8.6477349586e-06 -3.1272457666e-04 -6.4168779706e-03 
          8.9321453261e-06 -6.0873126862e-05 -6.4283620184e-03 
          5.0430914347e-06 -3.4748754138e-04 -7.2375829049e-03 
          3.4132342062e-06 -6.2185872957e-05 -6.3212813222e-03 
          3.8212475171e-06 -2.8996721230e-04 -6.3327814840e-03 
          2.3903871043e-06 -6.3300840798e-05 -6.3207285701e-03 
          4.8347782794e-06 -2.9042479105e-04 -6.3322133150e-03 
          7.5578329587e-06 -3.1426784312e-04 -6.4156170525e-03 
          1.0031109162e-05 -6.3008951890e-05 -6.4270930311e-03 
          1.3168248838e-04 -4.1684782040e-04 -8.4201511725e-03 
          -1.4966200016e-04 -4.1641568028e-04 -8.4163057092e-03 
          -1.2192893096e-05 -4.7165289864e-04 -8.3728850699e-03 
          -1.1997240905e-05 -4.7150872604e-04 -8.3752771239e-03 
          -1.1986128773e-05 -4.7140297973e-04 -8.3781625336e-03 
          -1.2191532220e-05 -4.7125724481e-04 -8.3757768873e-03 
          -9.1232993523e-04 -2.6348189486e-05 -2.2836587094e-03 
          -4.8132631156e-04 -5.0847231429e-05 -3.5548542055e-03 
          -3.1224960206e-04 -7.7705547410e-05 -3.7434812317e-03 
          2.3639929467e-06 -9.7719119739e-04 -2.2825906135e-03 
          2.9400029102e-06 -5.6794329286e-04 -3.5300352116e-03 
          3.4216958473e-06 -4.0727631594e-04 -3.7532634477e-03 
          9.2968384473e-04 -2.4037248621e-05 -2.2844440701e-03 
          4.9606043557e-04 -4.8471794215e-05 -3.5550370617e-03 
          3.2612551038e-04 -7.5441225973e-05 -3.7436982555e-03 
          3.8844211857e-06 8.5944659651e-04 -2.2942299750e-03 
          5.3260144702e-06 4.1281518693e-04 -3.5552258551e-03 
          6.3784885729e-06 2.1111665274e-04 -3.7779661059e-03 
          -1.1469784349e-04 -1.0548377799e-04 -4.5434673229e-03 
          -3.3487611067e-05 -1.3412548662e-04 -4.8564915706e-03 
          -3.5280950677e-07 -1.6256809632e-04 -5.5772233934e-03 
          3.7718215376e-06 -2.4903246842e-04 -4.4911304692e-03 
          3.9161075985e-06 -1.5688708678e-04 -4.9009724495e-03 
          3.7663818405e-06 -2.1385367931e-04 -5.4633032583e-03 
          1.2787691385e-04 -1.0349055591e-04 -4.5437318422e-03 
          4.6542176950e-05 -1.3254168313e-04 -4.8569539279e-03 
          1.2643818947e-05 -1.6146031660e-04 -5.5780411802e-03 
          7.0446243358e-06 1.0102724925e-05 -4.5215876659e-03 
          7.2943015578e-06 -1.3101082229e-04 -4.9319141340e-03 
          7.1328015612e-06 -1.2496887835e-04 -5.4961179004e-03 
        </DataArray>
        <DataArray type="Float64" Name="Reaction" NumberOfComponents="3" format="ascii">
          -3.1005531521e+04 3.1074569348e+04 3.8283515852e+05 
          -1.6082461923e-02 -7.1099454072e-01 7.4328519575e-02 
          -3.0762115835e+04 -3.0621521045e+04 3.7958227254e+05 
          -5.1613289964e-01 -6.4610386473e-01 -1.1745787552e-02 
          1.3439107527e-02 -1.4709891470e+00 1.8996772228e-01 
          1.0792589506e+00 -1.1205190826e+00 -8.3363856766e-02 
          2.8636060612e+00 -2.3439097093e+00 -1.1693782825e-02 
          -1.8847480845e-01 -8.5561638828e-01 -6.9858920738e-03 
          1.2625075235e+00 -1.6814109247e+00 -3.3274070788e-03 
          2.6383161054e-01 -1.1960425121e+00 1.2008416964e-01 
          3.0701719622e+04 -3.0598835915e+04 3.7933197706e+05 
          8.5108551910e-01 -1.7333089568e+00 1.8860559383e-01 
          8.9236383160e-01 3.2127696786e-01 -7.3782372513e-02 
          -2.4150199214e-01 8.7837586953e-02 -7.6237626948e-02 
          6.8683137673e-01 -8.5572659917e-01 -4.4261245648e-03 
          4.1375623969e-01 -8.6126371277e-01 7.4345325575e-02 
          3.0926087236e+04 3.1062236962e+04 3.8258390963e+05 
          3.9291672073e-01 -8.7302679528e-01 -1.1718435611e-02 
          -2.6847736582e+00 -2.1361066512e+00 -1.2181799708e-02 
          -4.1349664977e-01 -1.1371055967e+00 -8.1056961178e-02 
          -1.1149580958e+00 -1.5317520868e+00 -3.6530392431e-03 
          -4.6834524035e-02 -8.8455342519e-01 1.1568410162e-02 
          1.7686525784e+00 -3.3502859326e+00 -9.7935070025e-03 
          -1.5856090314e+00 -3.2751767005e+00 -1.0064180748e-02 
          5.9231833933e-01 4.7344925536e-01 -1.2881743244e-02 
          9.9325846349e-02 -2.3655072661e-02 -4.6066445280e-02 
          8.4634127670e-02 1.0655159924e+00 -2.8602899843e-02 
          3.5814675978e-01 1.2526896653e+00 -4.3882333536e-02 
          -1.8186883786e-01 2.0157670190e+00 -3.0247120624e-02 
          1.0290419235e-01 1.7898842367e+00 -1.1932562056e-03 
          -4.4149298936e-02 2.1543145305e-01 -1.3111661618e-02 
          6.9847592515e-02 9.3616673764e-01 -4.4033097197e-02 
          1.2144707103e-01 1.5109199710e+00 -1.2403001908e-03 
          2.2651989349e-02 -2.7551539791e-01 -4.5989372128e-02 
          -4.2144855658e-02 7.3414217848e-01 -2.8941166506e-02 
          1.4582193104e-01 1.7314993086e+00 -3.0763749377e-02 
          -2.9532789678e-01 2.0238103933e+00 -5.5390746651e-02 
          -4.5924256170e-01 2.7945583858e+00 -4.4972843492e-02 
          -4.1360062396e-02 2.8979420551e+00 -3.3509269247e-02 
          -1.8396206010e-01 3.1751904579e+00 -7.5249978710e-02 
          7.6088236976e-01 5.6350876725e+00 -3.2777081895e-03 
          6.7016347635e-01 4.9643066816e+00 2.8989676945e-02 
          4.5213968579e-01 1.8128447824e+00 -5.5746274655e-02 
          2.7405533093e-01 2.7876860953e+00 -3.3001259398e-02 
          -4.2812093990e-01 5.5093612130e+00 -2.3192261261e-03 
          4.3444971070e-01 2.6650430999e+00 -4.5347111416e-02 
          3.0719426390e-01 3.0633937760e+00 -7.6024680414e-02 
          -4.2980750345e-01 4.9433701188e+00 2.9256037951e-02 
          -4.2675013627e-03 2.8173751396e+00 -2.9837372899e-02 
          2.5112493173e-03 3.2156567166e+00 -5.5604708912e-02 
          1.0845462708e-03 3.7014454786e+00 -1.1594236206e-01 
          -1.7713585098e-01 3.8454643211e+00 1.5667360839e-01 
          -3.3226024195e-01 3.8022043626e+00 1.8413235577e-02 
          8.9964019116e-02 2.3913560254e+00 -3.9242171333e-02 
          1.5810392967e-01 4.0328450793e+00 3.0826874411e-02 
          1.4501417968e-01 4.3190454603e+00 2.6695573620e-02 
          2.2596473716e-01 1.4649148349e+01 -2.7263564702e-02 
          1.9232204713e-01 1.5605924453e+01 -8.4691559608e-02 
          -4.6424996924e-03 5.5000606211e+00 -6.1299505568e-02 
          8.8003594797e-01 8.9531137960e+00 -2.2347926404e-01 
          8.9122338049e-01 8.0495820504e+00 -1.5572394576e-01 
          5.4600689469e-02 6.5005580111e+00 8.3137473755e-02 
          6.3589917486e-02 6.6744923592e+00 1.8177739306e-01 
          5.5026925505e-02 3.9815479587e+00 -1.0963449363e-02 
          3.9212862398e-02 1.6867689428e+01 1.6480485225e-02 
          7.5949980830e-02 1.5632911387e+01 -2.4503645339e-02 
          -2.9655322937e-02 3.1814163682e+00 -5.7366756237e-02 
          -8.8217995110e-01 8.9612102291e+00 -2.2277689128e-01 
          -1.2186505513e-02 3.6884045805e+00 -1.0195296803e-01 
          9.2751831179e-02 4.2883838431e+00 2.5695509653e-02 
          -7.5032290117e-01 1.5480749977e+01 -8.4145898277e-02 
          1.0500120488e-01 3.6967545618e+00 1.6426782210e-01 
          -2.0834401521e-02 2.3757201135e+00 6.8964172489e-03 
          1.4507189412e-01 5.4745623566e+00 -4.3213593219e-02 
          3.3202173295e-02 6.7172746242e+00 1.8712095376e-01 
          -2.8227524903e-02 3.9028433767e+00 9.1613603217e-03 
          -5.4769037750e-01 1.6920701255e+01 1.5809212489e-02 
          -2.5755693065e-01 4.8992115196e+00 5.8122531192e-02 
          -1.5023477757e-01 6.5234903173e+00 2.9518446702e-01 
          -8.4634499203e-02 6.5079637470e+00 2.9445209640e-01 
          -2.1606618711e-02 2.8000047365e+00 -2.8743054593e-02 
          -8.3304195084e-01 8.1304107214e+00 -1.5358290380e-01 
          -2.7516266400e-02 3.6673499017e+00 -1.1630166602e-01 
          1.1325468038e-01 4.0987104180e+00 3.2259136477e-02 
          -7.0887507647e-01 1.4797153695e+01 -2.5972388851e-02 
          2.9353003960e-01 3.9221957739e+00 1.4462590348e-02 
          -8.6317372038e-02 2.3980585258e+00 -3.9220031584e-02 
          2.1984340318e-02 5.5191896589e+00 -6.1205155777e-02 
          9.9762151488e-02 6.4407201895e+00 8.1446584840e-02 
          -3.8937354587e-02 3.9823311899e+00 -1.0938621226e-02 
          -5.2540340184e-01 1.5565678117e+01 -2.0324350568e-02 
          -1.5026975579e-02 3.6130746523e+00 -6.9986823902e-02 
          -8.6745861347e-03 2.2323082752e+00 -1.2564367223e-03 
          1.6715135945e-01 5.5248345052e+00 -3.2353621461e-02 
          -1.4294596077e-02 3.8197037035e+00 7.9497089719e-03 
          -2.5483072883e-01 4.9245834240e+00 8.0882574834e-02 
          -1.4769749176e-01 5.9005856941e+00 2.9661776773e-01 
          -8.1354674681e-02 5.9051403412e+00 2.9804826178e-01 
          -3.8637396854e-02 5.5711573353e+00 -1.2965392231e-01 
          2.3237117895e-01 6.4232771228e+00 2.7217156082e-01 
          -1.9946138746e-01 4.4177747061e+00 -2.0923694204e-01 
          -3.2106530164e-02 7.1652689117e+00 -1.5234022369e-01 
          2.9606933261e-01 6.9101570854e+00 3.0643783636e-01 
          -1.5664412100e-01 4.5073581481e+00 -2.3095001512e-01 
          2.5259816553e-01 7.1513160671e+00 3.0888456335e-01 
          -1.6077926420e-01 4.4863651232e+00 -2.3242402621e-01 
          1.9067388571e-01 6.2295304720e+00 2.7032005258e-01 
          -2.1229142874e-01 4.4741251631e+00 -2.0783266550e-01 
          -7.9901512658e-02 3.3953960603e+00 -1.1351279082e-01 
          3.2131187819e-02 3.8774988633e+00 2.4093387782e-01 
          -2.1570617548e-01 2.7486039185e+00 -1.8452010577e-01 
          1.1476501702e-02 4.4777778200e+00 -1.3586484724e-01 
          3.1733989658e-01 4.5560306481e+00 2.7794381425e-01 
          -1.6605760526e-02 2.6989351106e+00 -2.0695516883e-01 
          3.0505067194e-01 4.7106339198e+00 2.8016961788e-01 
          -2.7700136864e-02 2.6992383324e+00 -2.0804162157e-01 
          2.2851953999e-02 3.8584380017e+00 2.4005669039e-01 
          -2.3484408958e-01 2.8438724805e+00 -1.8358051203e-01 
          1.1440255104e-01 1.8095460308e+00 -5.8548057908e-02 
          4.2637201427e-02 2.0428935425e+00 1.2810126947e-01 
          -1.1445795027e-01 1.4365505046e+00 -9.6364980836e-02 
          7.3955281533e-02 2.4294741286e+00 -7.4753208334e-02 
          1.7583263972e-01 2.5140692680e+00 1.5748013860e-01 
          -2.3554969764e-02 1.4572781192e+00 -1.1298912715e-01 
          2.4379369575e-01 2.6429386295e+00 1.5830703636e-01 
          -3.0871236786e-02 1.4388418381e+00 -1.1332689868e-01 
          1.1257647978e-01 2.0360386114e+00 1.2781074998e-01 
          -1.2914455948e-01 1.5411281306e+00 -9.6068790155e-02 
          1.2371813889e-01 4.9344372423e+00 -1.2517246716e-04 
          1.2017631854e-01 4.9383320483e+00 1.0629756255e-05 
          -8.4612524921e-03 1.6828190721e+00 1.2180415892e-01 
          5.7648055133e-02 1.6247400379e+00 1.2183935938e-01 
          5.8711388284e-02 1.5078009621e+00 1.2149289834e-01 
          -9.3082192241e-03 1.4482005393e+00 1.2210268659e-01 
          1.4274899246e-02 -4.9018263849e-02 -6.1964072032e-03 
          4.6279539883e-02 1.5636758122e-01 -6.9276018004e-03 
          2.7797423942e-02 3.7737207356e-01 -9.1513443340e-03 
          5.7305999601e-02 -8.5942507680e-01 -1.7159388383e-02 
          5.8191493496e-02 -4.3882823730e-01 -9.0831151522e-03 
          3.7735760395e-02 -2.3707603973e-01 -1.1235377783e-02 
          7.4130298175e-02 -9.0846331151e-02 -6.2702853000e-03 
          4.3098447253e-02 8.5563385685e-02 -6.9215621098e-03 
          6.0466853833e-02 3.0044792824e-01 -9.1787098441e-03 
          1.3040565455e-02 -6.6198210327e-01 -3.9543902353e-03 
          9.7347785492e-03 -4.0927034183e-01 -2.4930005942e-03 
          -3.6971365283e-03 -1.5801103361e-01 -2.0154681393e-03 
          -4.6760879931e-02 5.9484783591e-01 -1.2881910938e-02 
          4.4734707385e-02 7.8176727567e-01 -1.4324309497e-02 
          3.9457587603e-02 9.5440589092e-01 -1.4377066819e-02 
          2.3272201960e-02 5.9455295315e-01 -1.1553600125e-03 
          2.7379360439e-02 6.7774349896e-01 -1.0701338262e-03 
          2.9539565891e-02 1.0636728766e+00 3.4181687908e-03 
          -5.5472081374e-02 5.3307258656e-01 -1.2945563969e-02 
          3.7692415311e-02 7.4042148774e-01 -1.4354768155e-02 
          4.2453475622e-02 9.3135713831e-01 -1.4409262783e-02 
          -9.8642093191e-03 6.0472217555e-01 5.1552285977e-03 
          3.7505796621e-03 6.6310103655e-01 4.3983769379e-03 
          1.5194989943e-02 1.0540278285e+00 7.9521124739e-03 
        </DataArray>
        <DataArray type="Float64" Name="UnbalancedLoad" NumberOfComponents="3" format="ascii">
          0.0000000000e+00 0.0000000000e+00 -2.8309840302e+04 
          0.0000000000e+00 0.0000000000e+00 -2.9009111370e+04 
          0.0000000000e+00 0.0000000000e+00 -2.8308737858e+04 
          0.0000000000e+00 0.0000000000e+00 -4.5709259164e+04 
          0.0000000000e+00 0.0000000000e+00 -4.5708562778e+04 
          0.0000000000e+00 0.0000000000e+00 -3.0928580116e+04 
          0.0000000000e+00 0.0000000000e+00 -3.0932748514e+04 
          0.0000000000e+00 0.0000000000e+00 -2.3141768019e+04 
          0.0000000000e+00 0.0000000000e+00 -2.3145240055e+04 
          0.0000000000e+00 0.0000000000e+00 -2.9008008901e+04 
          0.0000000000e+00 0.0000000000e+00 -2.8309840302e+04 
          0.0000000000e+00 0.0000000000e+00 -4.5709259164e+04 
          0.0000000000e+00 0.0000000000e+00 -3.0932748514e+04 
          0.0000000000e+00 0.0000000000e+00 -3.0932748514e+04 
          0.0000000000e+00 0.0000000000e+00 -2.3145240055e+04 
          0.0000000000e+00 0.0000000000e+00 -2.9008008901e+04 
          0.0000000000e+00 0.0000000000e+00 -2.8309840302e+04 
          0.0000000000e+00 0.0000000000e+00 -4.5709259164e+04 
          0.0000000000e+00 0.0000000000e+00 -3.0932748514e+04 
          0.0000000000e+00 0.0000000000e+00 -3.0932748514e+04 
          0.0000000000e+00 0.0000000000e+00 -2.3145240055e+04 
          0.0000000000e+00 0.0000000000e+00 -2.9008008901e+04 
          0.0000000000e+00 0.0000000000e+00 -3.0932748514e+04 
          0.0000000000e+00 0.0000000000e+00 -3.0932748514e+04 
          0.0000000000e+00 0.0000000000e+00 -1.5419864257e+04 
          0.0000000000e+00 0.0000000000e+00 -1.5419864257e+04 
          0.0000000000e+00 0.0000000000e+00 -1.3927439609e+04 
          0.0000000000e+00 0.0000000000e+00 -1.3927439609e+04 
          0.0000000000e+00 0.0000000000e+00 -1.1464981988e+04 
          0.0000000000e+00 0.0000000000e+00 -1.1464981988e+04 
          0.0000000000e+00 0.0000000000e+00 -1.5419864257e+04 
          0.0000000000e+00 0.0000000000e+00 -1.3927439609e+04 
          0.0000000000e+00 0.0000000000e+00 -1.1464981988e+04 
          0.0000000000e+00 0.0000000000e+00 -1.5419864257e+04 
          0.0000000000e+00 0.0000000000e+00 -1.3927439609e+04 
          0.0000000000e+00 0.0000000000e+00 -1.1464981988e+04 
          0.0000000000e+00 0.0000000000e+00 -9.2321099212e+03 
          0.0000000000e+00 0.0000000000e+00 -9.2321099212e+03 
          0.0000000000e+00 0.0000000000e+00 -8.3528842838e+03 
          0.0000000000e+00 0.0000000000e+00 -8.3528842838e+03 
          0.0000000000e+00 0.0000000000e+00 -1.1382324923e+04 
          0.0000000000e+00 0.0000000000e+00 -1.1382324923e+04 
          0.0000000000e+00 0.0000000000e+00 -9.2321099212e+03 
          0.0000000000e+00 0.0000000000e+00 -8.3528842838e+03 
          0.0000000000e+00 0.0000000000e+00 -1.1382324923e+04 
          0.0000000000e+00 0.0000000000e+00 -9.2321099212e+03 
          0.0000000000e+00 0.0000000000e+00 -8.3528842838e+03 
          0.0000000000e+00 0.0000000000e+00 -1.1382324923e+04 
          0.0000000000e+00 0.0000000000e+00 -5.2502916756e+03 
          0.0000000000e+00 0.0000000000e+00 -5.2502916756e+03 
          0.0000000000e+00 0.0000000000e+00 -6.5644752937e+03 
          0.0000000000e+00 0.0000000000e+00 -5.3867921844e+03 
          0.0000000000e+00 0.0000000000e+00 -5.3867921844e+03 
          0.0000000000e+00 0.0000000000e+00 -2.9945626294e+03 
          0.0000000000e+00 0.0000000000e+00 -4.0373190868e+03 
          0.0000000000e+00 0.0000000000e+00 -4.0373190868e+03 
          0.0000000000e+00 0.0000000000e+00 -1.0728439481e+04 
          0.0000000000e+00 0.0000000000e+00 -1.0728439481e+04 
          0.0000000000e+00 0.0000000000e+00 -5.3515027049e+03 
          0.0000000000e+00 0.0000000000e+00 -9.8292038658e+03 
          0.0000000000e+00 0.0000000000e+00 -9.8292038658e+03 
          0.0000000000e+00 0.0000000000e+00 -5.3867921844e+03 
          0.0000000000e+00 0.0000000000e+00 -5.3867921844e+03 
          0.0000000000e+00 0.0000000000e+00 -2.9945626294e+03 
          0.0000000000e+00 0.0000000000e+00 -1.0264127395e+04 
          0.0000000000e+00 0.0000000000e+00 -1.0264127395e+04 
          0.0000000000e+00 0.0000000000e+00 -5.2502916756e+03 
          0.0000000000e+00 0.0000000000e+00 -9.8292038658e+03 
          0.0000000000e+00 0.0000000000e+00 -6.5644752937e+03 
          0.0000000000e+00 0.0000000000e+00 -4.0373190868e+03 
          0.0000000000e+00 0.0000000000e+00 -1.0728439481e+04 
          0.0000000000e+00 0.0000000000e+00 -5.3867921844e+03 
          0.0000000000e+00 0.0000000000e+00 -2.9945626294e+03 
          0.0000000000e+00 0.0000000000e+00 -5.3515027049e+03 
          0.0000000000e+00 0.0000000000e+00 -5.3867921844e+03 
          0.0000000000e+00 0.0000000000e+00 -2.9945626294e+03 
          0.0000000000e+00 0.0000000000e+00 -1.0264127395e+04 
          0.0000000000e+00 0.0000000000e+00 -2.8488418802e+03 
          0.0000000000e+00 0.0000000000e+00 -3.4425344001e+03 
          0.0000000000e+00 0.0000000000e+00 -3.4425344001e+03 
          0.0000000000e+00 0.0000000000e+00 -5.2502916756e+03 
          0.0000000000e+00 0.0000000000e+00 -9.8292038658e+03 
          0.0000000000e+00 0.0000000000e+00 -6.5644752937e+03 
          0.0000000000e+00 0.0000000000e+00 -4.0373190868e+03 
          0.0000000000e+00 0.0000000000e+00 -1.0728439481e+04 
          0.0000000000e+00 0.0000000000e+00 -5.3867921844e+03 
          0.0000000000e+00 0.0000000000e+00 -2.9945626294e+03 
          0.0000000000e+00 0.0000000000e+00 -5.3515027049e+03 
          0.0000000000e+00 0.0000000000e+00 -5.3867921844e+03 
          0.0000000000e+00 0.0000000000e+00 -2.9945626294e+03 
          0.0000000000e+00 0.0000000000e+00 -1.0264127395e+04 
          0.0000000000e+00 0.0000000000e+00 -6.5644752937e+03 
          0.0000000000e+00 0.0000000000e+00 -2.9945626294e+03 
          0.0000000000e+00 0.0000000000e+00 -5.3515027049e+03 
          0.0000000000e+00 0.0000000000e+00 -2.9945626294e+03 
          0.0000000000e+00 0.0000000000e+00 -2.8488418802e+03 
          0.0000000000e+00 0.0000000000e+00 -3.4425344001e+03 
          0.0000000000e+00 0.0000000000e+00 -3.4425344001e+03 
          0.0000000000e+00 0.0000000000e+00 -4.4510450281e+03 
          0.0000000000e+00 0.0000000000e+00 -4.4510777523e+03 
          0.0000000000e+00 0.0000000000e+00 -3.1594772523e+03 
          0.0000000000e+00 0.0000000000e+00 -4.4510450281e+03 
          0.0000000000e+00 0.0000000000e+00 -4.4510777523e+03 
          0.0000000000e+00 0.0000000000e+00 -3.1594772523e+03 
          0.0000000000e+00 0.0000000000e+00 -4.4510777523e+03 
          0.0000000000e+00 0.0000000000e+00 -3.1594772523e+03 
          0.0000000000e+00 0.0000000000e+00 -4.4510777523e+03 
          0.0000000000e+00 0.0000000000e+00 -3.1594772523e+03 
          0.0000000000e+00 0.0000000000e+00 -4.4510450281e+03 
          0.0000000000e+00 0.0000000000e+00 -4.4510777523e+03 
          0.0000000000e+00 0.0000000000e+00 -3.1594772523e+03 
          0.0000000000e+00 0.0000000000e+00 -4.4510450281e+03 
          0.0000000000e+00 0.0000000000e+00 -4.4510777523e+03 
          0.0000000000e+00 0.0000000000e+00 -3.1594772523e+03 
          0.0000000000e+00 0.0000000000e+00 -4.4510777523e+03 
          0.0000000000e+00 0.0000000000e+00 -3.1594772523e+03 
          0.0000000000e+00 0.0000000000e+00 -4.4510777523e+03 
          0.0000000000e+00 0.0000000000e+00 -3.1594772523e+03 
          0.0000000000e+00 0.0000000000e+00 -4.4510450281e+03 
          0.0000000000e+00 0.0000000000e+00 -4.4510777523e+03 
          0.0000000000e+00 0.0000000000e+00 -3.1594772523e+03 
          0.0000000000e+00 0.0000000000e+00 -4.4510450281e+03 
          0.0000000000e+00 0.0000000000e+00 -4.4510777523e+03 
          0.0000000000e+00 0.0000000000e+00 -3.1594772523e+03 
          0.0000000000e+00 0.0000000000e+00 -4.4510777523e+03 
          0.0000000000e+00 0.0000000000e+00 -3.1594772523e+03 
          0.0000000000e+00 0.0000000000e+00 -4.4510777523e+03 
          0.0000000000e+00 0.0000000000e+00 -3.1594772523e+03 
          0.0000000000e+00 0.0000000000e+00 -2.8556291417e+03 
          0.0000000000e+00 0.0000000000e+00 -2.8556291417e+03 
          0.0000000000e+00 0.0000000000e+00 -7.8062065674e+02 
          0.0000000000e+00 0.0000000000e+00 -7.8062065674e+02 
          0.0000000000e+00 0.0000000000e+00 -7.8062065674e+02 
          0.0000000000e+00 0.0000000000e+00 -7.8062065674e+02 
          0.0000000000e+00 0.0000000000e+00 -3.7983160500e+03 
          0.0000000000e+00 0.0000000000e+00 -3.4309764457e+03 
          0.0000000000e+00 0.0000000000e+00 -3.0931836432e+03 
          0.0000000000e+00 0.0000000000e+00 -3.7983160500e+03 
          0.0000000000e+00 0.0000000000e+00 -3.4309764457e+03 
          0.0000000000e+00 0.0000000000e+00 -3.0931836432e+03 
          0.0000000000e+00 0.0000000000e+00 -3.7983160500e+03 
          0.0000000000e+00 0.0000000000e+00 -3.4309764457e+03 
          0.0000000000e+00 0.0000000000e+00 -3.0931836432e+03 
          0.0000000000e+00 0.0000000000e+00 -3.7983160500e+03 
          0.0000000000e+00 0.0000000000e+00 -3.4309764457e+03 
          0.0000000000e+00 0.0000000000e+00 -3.0931836432e+03 
          0.0000000000e+00 0.0000000000e+00 -2.7891534346e+03 
          0.0000000000e+00 0.0000000000e+00 -2.5102845118e+03 
          0.0000000000e+00 0.0000000000e+00 -2.2754564354e+03 
          0.0000000000e+00 0.0000000000e+00 -2.7891534346e+03 
          0.0000000000e+00 0.0000000000e+00 -2.5102845118e+03 
          0.0000000000e+00 0.0000000000e+00 -2.2754564354e+03 
          0.0000000000e+00 0.0000000000e+00 -2.7891534346e+03 
          0.0000000000e+00 0.0000000000e+00 -2.5102845118e+03 
          0.0000000000e+00 0.0000000000e+00 -2.2754564354e+03 
          0.0000000000e+00 0.0000000000e+00 -2.7891534346e+03 
          0.0000000000e+00 0.0000000000e+00 -2.5102845118e+03 
          0.0000000000e+00 0.0000000000e+00 -2.2754564354e+03 
        </DataArray>
      </PointData>
      <CellData>
        <DataArray type="Int64" Name="ElementTag" format="ascii">
          0
        </DataArray>
      </CellData>
    </Piece>
  </UnstructuredGrid>
</VTKFile>
