<?xml version="1.0"?>
<VTKFile type="UnstructuredGrid" version="1.0" byte_order="LittleEndian" compressor="vtkZLibDataCompressor">
  <UnstructuredGrid>
    <Piece NumberOfPoints="158" NumberOfCells="1">
      <Points>
        <DataArray type="Float64" Name="Points" NumberOfComponents="3" format="ascii">
          1.7550000000e+00 -1.7550000000e+00 0.0000000000e+00 
          1.4140000000e+00 0.0000000000e+00 5.2300000000e+00 
          1.7550000000e+00 1.7550000000e+00 -0.0000000000e+00 
          1.4140000000e+00 -1.4140000000e+00 5.2300000000e+00 
          1.4140000000e+00 1.4140000000e+00 5.2300000000e+00 
          1.5840000000e+00 8.7800000000e-01 2.6150000000e+00 
          1.5840000000e+00 -8.7700000000e-01 2.6150000000e+00 
          1.5840000000e+00 1.5840000000e+00 2.6150000000e+00 
          1.5840000000e+00 -1.5840000000e+00 2.6150000000e+00 
          -0.0000000000e+00 1.4140000000e+00 5.2300000000e+00 
          -1.7550000000e+00 1.7550000000e+00 -0.0000000000e+00 
          -1.4140000000e+00 1.4140000000e+00 5.2300000000e+00 
          -8.7700000000e-01 1.5840000000e+00 2.6150000000e+00 
          8.7700000000e-01 1.5840000000e+00 2.6150000000e+00 
          -1.5840000000e+00 1.5840000000e+00 2.6150000000e+00 
          -1.4140000000e+00 -0.0000000000e+00 5.2300000000e+00 
          -1.7550000000e+00 -1.7550000000e+00 -0.0000000000e+00 
          -1.4140000000e+00 -1.4140000000e+00 5.2300000000e+00 
          -1.5840000000e+00 -8.7700000000e-01 2.6150000000e+00 
          -1.5840000000e+00 8.7700000000e-01 2.6150000000e+00 
          -1.5840000000e+00 -1.5840000000e+00 2.6150000000e+00 
          0.0000000000e+00 -1.4140000000e+00 5.2300000000e+00 
          8.7700000000e-01 -1.5840000000e+00 2.6150000000e+00 
          -8.7700000000e-01 -1.5840000000e+00 2.6150000000e+00 
          1.2750000000e+00 1.2750000000e+00 7.3500000000e+00 
          1.2750000000e+00 -1.2750000000e+00 7.3500000000e+00 
          1.1500000000e+00 -1.1500000000e+00 9.2700000000e+00 
          1.1500000000e+00 1.1500000000e+00 9.2700000000e+00 
          1.0370000000e+00 -1.0370000000e+00 1.1000000000e+01 
          1.0370000000e+00 1.0370000000e+00 1.1000000000e+01 
          -1.2750000000e+00 1.2750000000e+00 7.3500000000e+00 
          -1.1500000000e+00 1.1500000000e+00 9.2700000000e+00 
          -1.0370000000e+00 1.0370000000e+00 1.1000000000e+01 
          -1.2750000000e+00 -1.2750000000e+00 7.3500000000e+00 
          -1.1500000000e+00 -1.1500000000e+00 9.2700000000e+00 
          -1.0370000000e+00 -1.0370000000e+00 1.1000000000e+01 
          9.3500000000e-01 9.3500000000e-01 1.2560000000e+01 
          9.3500000000e-01 -9.3500000000e-01 1.2560000000e+01 
          8.4300000000e-01 8.4300000000e-01 1.3960000000e+01 
          8.4300000000e-01 -8.4300000000e-01 1.3960000000e+01 
          7.6000000000e-01 7.6000000000e-01 1.5240000000e+01 
          7.6000000000e-01 -7.6000000000e-01 1.5240000000e+01 
          -9.3500000000e-01 9.3500000000e-01 1.2560000000e+01 
          -8.4300000000e-01 8.4300000000e-01 1.3960000000e+01 
          -7.6000000000e-01 7.6000000000e-01 1.5240000000e+01 
          -9.3500000000e-01 -9.3500000000e-01 1.2560000000e+01 
          -8.4300000000e-01 -8.4300000000e-01 1.3960000000e+01 
          -7.6000000000e-01 -7.6000000000e-01 1.5240000000e+01 
          7.6000000000e-01 -7.6000000000e-01 1.6240000000e+01 
          7.6000000000e-01 7.6000000000e-01 1.6240000000e+01 
          7.6000000000e-01 0.0000000000e+00 1.6240000000e+01 
          7.6000000000e-01 7.6000000000e-01 1.7340000000e+01 
          7.6000000000e-01 -7.6000000000e-01 1.7340000000e+01 
          7.6000000000e-01 0.0000000000e+00 1.7890000000e+01 
          7.6000000000e-01 -7.6000000000e-01 1.9440000000e+01 
          7.6000000000e-01 7.6000000000e-01 1.9440000000e+01 
          7.6000000000e-01 -7.6000000000e-01 2.1640000000e+01 
          7.6000000000e-01 7.6000000000e-01 2.1640000000e+01 
          7.6000000000e-01 0.0000000000e+00 1.9440000000e+01 
          7.6000000000e-01 7.6000000000e-01 1.8440000000e+01 
          7.6000000000e-01 -7.6000000000e-01 1.8440000000e+01 
          7.6000000000e-01 -7.6000000000e-01 2.0540000000e+01 
          7.6000000000e-01 7.6000000000e-01 2.0540000000e+01 
          7.6000000000e-01 0.0000000000e+00 2.1090000000e+01 
          7.6000000000e-01 7.6000000000e-01 2.2640000000e+01 
          7.6000000000e-01 -7.6000000000e-01 2.2640000000e+01 
          -7.6000000000e-01 7.6000000000e-01 1.6240000000e+01 
          -7.6000000000e-01 7.6000000000e-01 1.8440000000e+01 
          -0.0000000000e+00 7.6000000000e-01 1.6240000000e+01 
          -7.6000000000e-01 7.6000000000e-01 1.9440000000e+01 
          -7.6000000000e-01 7.6000000000e-01 2.1640000000e+01 
          -7.6000000000e-01 7.6000000000e-01 1.7340000000e+01 
          -0.0000000000e+00 7.6000000000e-01 1.7890000000e+01 
          -0.0000000000e+00 7.6000000000e-01 1.9440000000e+01 
          -7.6000000000e-01 7.6000000000e-01 2.0540000000e+01 
          0.0000000000e+00 7.6000000000e-01 2.1090000000e+01 
          -7.6000000000e-01 7.6000000000e-01 2.2640000000e+01 
          -0.0000000000e+00 5.2600000000e-01 2.3499000000e+01 
          3.9900000000e-01 4.0400000000e-01 2.3950000000e+01 
          -3.9900000000e-01 4.0400000000e-01 2.3950000000e+01 
          -7.6000000000e-01 -7.6000000000e-01 1.6240000000e+01 
          -7.6000000000e-01 -7.6000000000e-01 1.8440000000e+01 
          -7.6000000000e-01 -0.0000000000e+00 1.6240000000e+01 
          -7.6000000000e-01 -7.6000000000e-01 1.9440000000e+01 
          -7.6000000000e-01 -7.6000000000e-01 2.1640000000e+01 
          -7.6000000000e-01 -7.6000000000e-01 1.7340000000e+01 
          -7.6000000000e-01 0.0000000000e+00 1.7890000000e+01 
          -7.6000000000e-01 -0.0000000000e+00 1.9440000000e+01 
          -7.6000000000e-01 -7.6000000000e-01 2.0540000000e+01 
          -7.6000000000e-01 -0.0000000000e+00 2.1090000000e+01 
          -7.6000000000e-01 -7.6000000000e-01 2.2640000000e+01 
          0.0000000000e+00 -7.6000000000e-01 1.6240000000e+01 
          0.0000000000e+00 -7.6000000000e-01 1.7890000000e+01 
          0.0000000000e+00 -7.6000000000e-01 1.9440000000e+01 
          0.0000000000e+00 -7.6000000000e-01 2.1090000000e+01 
          0.0000000000e+00 -5.2600000000e-01 2.3499000000e+01 
          3.9900000000e-01 -4.0400000000e-01 2.3950000000e+01 
          -3.9900000000e-01 -4.0400000000e-01 2.3950000000e+01 
          -0.0000000000e+00 -3.3500000000e+00 2.1640000000e+01 
          -3.8000000000e-01 -2.0550000000e+00 2.2140000000e+01 
          -3.8000000000e-01 -2.0550000000e+00 2.1640000000e+01 
          0.0000000000e+00 3.3500000000e+00 2.1640000000e+01 
          -3.8000000000e-01 2.0550000000e+00 2.2140000000e+01 
          -3.8000000000e-01 2.0550000000e+00 2.1640000000e+01 
          3.8000000000e-01 2.0550000000e+00 2.2140000000e+01 
          3.8000000000e-01 2.0550000000e+00 2.1640000000e+01 
          3.8000000000e-01 -2.0550000000e+00 2.2140000000e+01 
          3.8000000000e-01 -2.0550000000e+00 2.1640000000e+01 
          -0.0000000000e+00 -3.3500000000e+00 1.8440000000e+01 
          -3.8000000000e-01 -2.0550000000e+00 1.8940000000e+01 
          -3.8000000000e-01 -2.0550000000e+00 1.8440000000e+01 
          -0.0000000000e+00 3.3500000000e+00 1.8440000000e+01 
          -3.8000000000e-01 2.0550000000e+00 1.8940000000e+01 
          -3.8000000000e-01 2.0550000000e+00 1.8440000000e+01 
          3.8000000000e-01 2.0550000000e+00 1.8940000000e+01 
          3.8000000000e-01 2.0550000000e+00 1.8440000000e+01 
          3.8000000000e-01 -2.0550000000e+00 1.8940000000e+01 
          3.8000000000e-01 -2.0550000000e+00 1.8440000000e+01 
          -0.0000000000e+00 -3.3500000000e+00 1.5240000000e+01 
          -3.8000000000e-01 -2.0550000000e+00 1.5740000000e+01 
          -3.8000000000e-01 -2.0550000000e+00 1.5240000000e+01 
          -0.0000000000e+00 3.3500000000e+00 1.5240000000e+01 
          -3.8000000000e-01 2.0550000000e+00 1.5740000000e+01 
          -3.8000000000e-01 2.0550000000e+00 1.5240000000e+01 
          3.8000000000e-01 2.0550000000e+00 1.5740000000e+01 
          3.8000000000e-01 2.0550000000e+00 1.5240000000e+01 
          3.8000000000e-01 -2.0550000000e+00 1.5740000000e+01 
          3.8000000000e-01 -2.0550000000e+00 1.5240000000e+01 
          -5.2400000000e-01 0.0000000000e+00 2.3496000000e+01 
          5.2400000000e-01 0.0000000000e+00 2.3496000000e+01 
          4.0000000000e-02 5.0000000000e-02 2.5250000000e+01 
          -4.0000000000e-02 5.0000000000e-02 2.5250000000e+01 
          -4.0000000000e-02 -5.0000000000e-02 2.5250000000e+01 
          4.0000000000e-02 -5.0000000000e-02 2.5250000000e+01 
          1.3410000000e+00 0.0000000000e+00 6.3450000000e+00 
          1.2090000000e+00 0.0000000000e+00 8.3600000000e+00 
          1.0900000000e+00 -0.0000000000e+00 1.0180000000e+01 
          -0.0000000000e+00 1.3410000000e+00 6.3450000000e+00 
          0.0000000000e+00 1.2090000000e+00 8.3600000000e+00 
          -0.0000000000e+00 1.0900000000e+00 1.0180000000e+01 
          -1.3410000000e+00 0.0000000000e+00 6.3450000000e+00 
          -1.2090000000e+00 0.0000000000e+00 8.3600000000e+00 
          -1.0900000000e+00 -0.0000000000e+00 1.0180000000e+01 
          -0.0000000000e+00 -1.3410000000e+00 6.3450000000e+00 
          0.0000000000e+00 -1.2090000000e+00 8.3600000000e+00 
          0.0000000000e+00 -1.0900000000e+00 1.0180000000e+01 
          9.8300000000e-01 0.0000000000e+00 1.1820000000e+01 
          8.8700000000e-01 0.0000000000e+00 1.3296000000e+01 
          8.0000000000e-01 -0.0000000000e+00 1.4633000000e+01 
          0.0000000000e+00 9.8300000000e-01 1.1820000000e+01 
          -0.0000000000e+00 8.8700000000e-01 1.3296000000e+01 
          0.0000000000e+00 8.0000000000e-01 1.4633000000e+01 
          -9.8300000000e-01 0.0000000000e+00 1.1820000000e+01 
          -8.8700000000e-01 0.0000000000e+00 1.3296000000e+01 
          -8.0000000000e-01 0.0000000000e+00 1.4633000000e+01 
          0.0000000000e+00 -9.8300000000e-01 1.1820000000e+01 
          0.0000000000e+00 -8.8700000000e-01 1.3296000000e+01 
          0.0000000000e+00 -8.0000000000e-01 1.4633000000e+01 
        </DataArray>
      </Points>
      <Cells>
        <DataArray type="Int64" Name="connectivity" format="ascii">
          0
          1
          2
          3
          4
          5
          6
          7
          8
          9
          10
          11
          12
          13
          14
          15
          16
          17
          18
          19
          20
          21
          22
          23
          24
          25
          26
          27
          28
          29
          30
          31
          32
          33
          34
          35
          36
          37
          38
          39
          40
          41
          42
          43
          44
          45
          46
          47
          48
          49
          50
          51
          52
          53
          54
          55
          56
          57
          58
          59
          60
          61
          62
          63
          64
          65
          66
          67
          68
          69
          70
          71
          72
          73
          74
          75
          76
          77
          78
          79
          80
          81
          82
          83
          84
          85
          86
          87
          88
          89
          90
          91
          92
          93
          94
          95
          96
          97
          98
          99
          100
          101
          102
          103
          104
          105
          106
          107
          108
          109
          110
          111
          112
          113
          114
          115
          116
          117
          118
          119
          120
          121
          122
          123
          124
          125
          126
          127
          128
          129
          130
          131
          132
          133
          134
          135
          136
          137
          138
          139
          140
          141
          142
          143
          144
          145
          146
          147
          148
          149
          150
          151
          152
          153
          154
          155
          156
          157
        </DataArray>
        <DataArray type="Int64" Name="offsets" format="ascii">
          158
        </DataArray>
        <DataArray type="Int64" Name="types" format="ascii">
          2
        </DataArray>
      </Cells>
      <PointData>
        <DataArray type="Int64" Name="NodeTag" format="ascii">
          1
          2
          3
          4
          5
          6
          7
          8
          9
          10
          11
          12
          13
          14
          15
          16
          17
          18
          19
          20
          21
          22
          23
          24
          25
          26
          27
          28
          29
          30
          31
          32
          33
          34
          35
          36
          37
          38
          39
          40
          41
          42
          43
          44
          45
          46
          47
          48
          49
          50
          51
          52
          53
          54
          55
          56
          57
          58
          59
          60
          61
          62
          63
          64
          65
          66
          67
          68
          69
          70
          71
          72
          73
          74
          75
          76
          77
          78
          79
          80
          81
          82
          83
          84
          85
          86
          87
          88
          89
          90
          91
          92
          93
          94
          95
          96
          97
          98
          99
          100
          101
          102
          103
          104
          105
          106
          107
          108
          109
          110
          111
          112
          113
          114
          115
          116
          117
          118
          119
          120
          121
          122
          123
          124
          125
          126
          127
          128
          129
          130
          131
          132
          133
          134
          135
          136
          137
          138
          139
          140
          141
          142
          143
          144
          145
          146
          147
          148
          149
          150
          151
          152
          153
          154
          155
          156
          157
          158
        </DataArray>
        <DataArray type="Float64" Name="Displacement" NumberOfComponents="3" format="ascii">
          0.0000000000e+00 0.0000000000e+00 0.0000000000e+00 
          -3.8883131382e-04 -1.0211439374e-04 -1.2841910063e-04 
          0.0000000000e+00 0.0000000000e+00 0.0000000000e+00 
          -9.7479787716e-05 -9.8467269829e-05 -7.8277917129e-04 
          3.6557547820e-05 -1.1128549081e-04 -6.7160962567e-04 
          -1.4587147889e-03 -1.1997919926e-03 -5.5261924255e-04 
          -1.2464632567e-03 1.2336440018e-03 -5.8640694820e-04 
          -1.0703425350e-03 -1.1990057102e-03 -4.9831649127e-04 
          -1.3824992444e-03 1.2325906544e-03 -5.7909363423e-04 
          4.7607207286e-05 1.0085413951e-04 -9.5008657990e-05 
          0.0000000000e+00 0.0000000000e+00 0.0000000000e+00 
          6.0408772919e-05 -7.4779805398e-05 -6.9668851058e-04 
          1.1987937826e-03 -8.3895645568e-04 -5.2009200569e-04 
          -1.0713368687e-03 -8.6813247710e-04 -4.9700963654e-04 
          1.1980323899e-03 -1.2100516803e-03 -5.1775614853e-04 
          2.1689691446e-04 -6.4881701925e-05 -1.1936012861e-04 
          0.0000000000e+00 0.0000000000e+00 0.0000000000e+00 
          -8.2962184036e-05 -5.7386358408e-05 -7.5084628117e-04 
          1.3466832598e-03 1.2110026506e-03 -5.8214223886e-04 
          1.6576031265e-03 -1.2106869993e-03 -5.7557760564e-04 
          1.1850075358e-03 1.2097156324e-03 -5.5348213141e-04 
          -8.8386461096e-05 -9.1976258177e-05 -1.0403346765e-04 
          -1.3835293450e-03 1.4643508165e-03 -6.2248925782e-04 
          1.1863797305e-03 1.1438741677e-03 -5.6701201373e-04 
          5.0168694142e-04 5.0065681013e-05 -8.7912890214e-04 
          1.8119114626e-04 -5.6562336911e-04 -1.0336294319e-03 
          -1.5970326454e-04 -2.8572310144e-04 -1.3053125552e-03 
          -2.9975647806e-04 -5.8935417215e-04 -1.1648432272e-03 
          1.9451218694e-04 -8.6494568778e-04 -1.4274672431e-03 
          3.6982800712e-04 -3.8454528882e-04 -1.2680534076e-03 
          -4.2575201971e-04 2.1372537646e-04 -9.0117334942e-04 
          3.4291301223e-04 -4.6935938864e-04 -1.1893992288e-03 
          -3.5434954694e-04 -9.2848452532e-05 -1.2787972589e-03 
          -3.3317966631e-04 -5.1322494164e-04 -1.0008467998e-03 
          5.9642772078e-05 -4.7907653557e-05 -1.2850795652e-03 
          -2.3804374110e-04 -6.6860249454e-04 -1.4104044785e-03 
          -1.3202752196e-04 -8.4756943320e-04 -1.5197972997e-03 
          -3.2307292131e-05 -7.3548512742e-04 -1.6447101217e-03 
          1.5295449672e-04 -7.9511387110e-04 -1.6455501234e-03 
          1.0986221573e-04 -1.0667780568e-03 -1.7603464153e-03 
          1.9494228278e-06 -1.0657306446e-03 -1.8104551087e-03 
          7.3117177379e-06 -1.0260582719e-03 -1.8922018046e-03 
          1.2781551596e-04 -5.8536738358e-04 -1.5299858281e-03 
          -1.6662285552e-04 -4.7422479083e-04 -1.6487647480e-03 
          -1.9491153543e-05 -7.5233515196e-04 -1.8155946656e-03 
          2.2840371831e-05 -4.2220239933e-04 -1.6470014210e-03 
          -1.0919248238e-04 -7.7316823173e-04 -1.7710713459e-03 
          -1.8306319673e-05 -7.1359815758e-04 -1.9134386304e-03 
          -3.1370159242e-05 -1.1301012000e-03 -2.0298803103e-03 
          -5.5026505947e-06 -1.1027754961e-03 -1.9796744953e-03 
          9.8297700336e-05 -1.1158373402e-03 -1.9143789438e-03 
          2.3615783813e-04 -8.9045266318e-04 -2.1383041843e-03 
          1.2549733603e-04 -1.3839996622e-03 -2.1532623542e-03 
          5.7283857239e-06 -1.1452038263e-03 -2.4507467818e-03 
          -1.7939587797e-04 -1.1451399265e-03 -2.4322122791e-03 
          -3.8883948660e-05 -1.0890058041e-03 -2.4910790035e-03 
          -3.0258002482e-04 -9.3260031201e-04 -2.6019808268e-03 
          -9.3825658766e-05 -9.9331361695e-04 -2.7109527852e-03 
          1.5575722191e-04 -1.1152155256e-03 -2.3974670610e-03 
          -1.3283014774e-05 -1.1642219733e-03 -2.3865989865e-03 
          -1.1524516141e-04 -1.1073858278e-03 -2.3537043833e-03 
          -1.3500598028e-04 -1.1928813016e-03 -2.4930262968e-03 
          7.9267057092e-05 -8.9142613147e-04 -2.5810572426e-03 
          -6.3057106862e-05 -1.0062277616e-03 -2.7251652008e-03 
          -1.2659897623e-04 -8.4891897827e-04 -2.7564680911e-03 
          -3.6075856819e-04 -9.2232649620e-04 -2.6423167564e-03 
          1.3956175022e-06 -7.9094401823e-04 -1.9915803948e-03 
          -2.6470341327e-05 -8.7396296577e-04 -2.4171657781e-03 
          -2.3920818142e-06 -1.1382830601e-03 -1.9086238476e-03 
          -2.9379958501e-05 -8.0711278074e-04 -2.5291154388e-03 
          -9.7581312497e-05 -7.4162676435e-04 -2.7655033932e-03 
          -2.5143310368e-04 -5.7306198910e-04 -2.1568446543e-03 
          -1.1594212227e-05 -8.3470311219e-04 -2.4416985952e-03 
          -3.4371011448e-05 -1.3271661766e-03 -2.4632920140e-03 
          -2.0355273521e-04 -6.1247493529e-04 -2.6263623147e-03 
          -7.7241337852e-05 -8.9486827489e-04 -2.7713437455e-03 
          -1.3664996681e-04 -6.0427591721e-04 -2.8153739872e-03 
          -2.0272207882e-04 -7.2785179140e-04 -2.8026948789e-03 
          -2.3980918241e-04 -7.2992648424e-04 -2.7733366570e-03 
          -2.4296992003e-04 -6.1460003655e-04 -2.8102264375e-03 
          -2.4691992663e-05 -8.1904994899e-04 -2.0647292303e-03 
          -1.2536695338e-04 -8.1787934524e-04 -2.4180091497e-03 
          -1.2971258587e-04 -8.0413435728e-04 -1.9331177360e-03 
          -1.6682872212e-04 -8.6406732434e-04 -2.5036137346e-03 
          -3.1112023466e-04 -6.7793023980e-04 -2.6839965528e-03 
          -2.7093151385e-04 -1.0952731426e-03 -2.2023110205e-03 
          -1.7667329494e-04 -8.4810767649e-04 -2.5008991000e-03 
          -3.9291732108e-04 -8.3453402619e-04 -2.4484707079e-03 
          -3.4936424362e-04 -9.3631796180e-04 -2.5716360338e-03 
          -3.5161595233e-04 -7.4683638002e-04 -2.7989369381e-03 
          -3.6603977572e-04 -6.8028401559e-04 -2.7237905668e-03 
          -2.7975577839e-05 -9.3335913672e-04 -1.9849208929e-03 
          -9.3852656931e-05 -1.1716122275e-03 -2.4186517255e-03 
          -1.7314022815e-04 -1.0988386157e-03 -2.4305193088e-03 
          -2.7401509686e-04 -8.9191478754e-04 -2.6629060887e-03 
          -3.7271719181e-04 -6.3191432645e-04 -2.7433884197e-03 
          -3.7865929258e-04 -7.2504942709e-04 -2.7160497403e-03 
          -3.7637618012e-04 -6.0987701898e-04 -2.7552378216e-03 
          -7.3621483546e-04 -7.6326486580e-04 -3.0095056820e-03 
          -5.8873020096e-04 -7.7084061634e-04 -2.8223198816e-03 
          -5.3018094310e-04 -7.2192429534e-04 -2.8260959508e-03 
          3.3767453106e-04 -9.0722769334e-04 -3.4813214642e-03 
          9.8244909442e-05 -7.1298662588e-04 -3.0947910934e-03 
          1.4129512370e-04 -8.3079386021e-04 -3.0985581932e-03 
          9.8272648011e-05 -8.3907159090e-04 -3.0641022176e-03 
          1.4137392805e-04 -9.4471376539e-04 -3.0676078413e-03 
          -5.8886314188e-04 -8.7348030195e-04 -2.7669498002e-03 
          -5.3017497555e-04 -8.4447683913e-04 -2.7704697206e-03 
          -6.0804967583e-04 -9.2179859725e-04 -2.9186691532e-03 
          -1.5145464774e-04 -8.7176851551e-04 -2.6423423426e-03 
          -1.0634332360e-04 -7.9373927576e-04 -2.6460693942e-03 
          4.7785990468e-04 -1.0615650395e-03 -3.0366456018e-03 
          1.8666072574e-04 -8.6941636850e-04 -2.6967805171e-03 
          2.0225365838e-04 -9.6129882544e-04 -2.7004109243e-03 
          1.8604180951e-04 -1.0326778146e-03 -2.6793711739e-03 
          2.0227114515e-04 -1.1221198842e-03 -2.6828984718e-03 
          -1.5151054550e-04 -1.1530544485e-03 -2.6012491707e-03 
          -1.0619929493e-04 -1.0890730586e-03 -2.6047502291e-03 
          -5.3168705211e-04 -8.2664751141e-04 -2.6640744646e-03 
          -2.3053276338e-04 -8.6966564535e-04 -2.2615811117e-03 
          -2.0886840767e-04 -7.5069313875e-04 -2.2652259992e-03 
          5.3467185661e-04 -9.5328767746e-04 -2.2332109984e-03 
          4.3795097244e-04 -8.5733234642e-04 -1.9996205657e-03 
          4.7425762519e-04 -9.1661165185e-04 -2.0033490063e-03 
          4.3738634675e-04 -9.1118618338e-04 -1.9844058534e-03 
          4.7418838474e-04 -9.5000760064e-04 -1.9878391121e-03 
          -2.3069708809e-04 -1.0530876026e-03 -2.2445054213e-03 
          -2.0880780019e-04 -9.4185723124e-04 -2.2480132068e-03 
          -2.2500464312e-04 -6.2357774339e-04 -2.8112319295e-03 
          -3.4674184515e-04 -7.8218972451e-04 -2.7605332145e-03 
          -3.4355750892e-04 -5.6474536204e-04 -2.7609938475e-03 
          -3.4348556010e-04 -5.4701194827e-04 -2.7729663366e-03 
          -3.6592860108e-04 -5.4687768970e-04 -2.7777984402e-03 
          -3.6598785393e-04 -5.6471922035e-04 -2.7597128716e-03 
          -8.1650993879e-03 -1.7840904961e-04 -1.2007027303e-03 
          -4.1313334270e-04 -3.4639115675e-04 -1.4290876167e-03 
          1.1360569997e-04 -5.3362810080e-04 -1.0488613726e-03 
          4.4890649674e-05 -5.1014863028e-03 -8.3670121442e-04 
          3.0247403863e-05 1.0098817399e-03 -1.4625048488e-03 
          1.4294125190e-05 -6.7066278552e-04 -8.2445942981e-04 
          3.7725159741e-03 -1.0373759156e-04 -8.7501217139e-04 
          -2.0545843873e-03 -2.0129320694e-04 -1.3412830903e-03 
          -9.0929159602e-04 -3.1871454439e-04 -9.3097414142e-04 
          -8.2479359739e-05 1.0686580861e-02 -1.4537699725e-03 
          -6.2889284751e-05 2.7392768462e-03 -1.6015795110e-03 
          -3.4363039731e-05 8.9175823075e-04 -1.2499083399e-03 
          2.7640939499e-04 -7.1318451800e-04 -1.6471465672e-03 
          2.0945694147e-04 -8.6646240104e-04 -1.5166093933e-03 
          2.3351703840e-04 -9.9552515971e-04 -1.8683438830e-03 
          2.4316247292e-06 -1.3647818304e-03 -1.7727853059e-03 
          -4.7496610384e-06 -9.5519214161e-04 -1.4300995349e-03 
          -7.0420498046e-06 -8.6307925250e-04 -1.8322325658e-03 
          -4.7549165179e-04 -4.4288935223e-04 -1.6820000020e-03 
          -1.4143321292e-04 -5.6545155537e-04 -1.5037810977e-03 
          -2.8414962828e-04 -6.8313630493e-04 -1.8837464831e-03 
          -1.0749657871e-05 -4.5642027097e-04 -1.7072753970e-03 
          -3.4514347189e-07 -7.6681929227e-04 -1.6255528599e-03 
          -1.0167169402e-06 -8.7951097441e-04 -1.9001766264e-03 
        </DataArray>
        <DataArray type="Float64" Name="Reaction" NumberOfComponents="3" format="ascii">
          -8.9124416378e+03 1.0382065973e+04 1.3059199636e+05 
          -4.9711406478e+02 2.3728742282e+02 2.6082229698e+00 
          -9.0783009097e+03 -7.7826591413e+03 1.1415465951e+05 
          7.5026260088e+02 -1.3516454437e+03 -1.9959594960e+03 
          2.3480761826e+03 1.9512399287e+03 -3.0857225205e+03 
          -2.6693268453e+02 8.3839132960e+01 -1.5481732910e+00 
          -6.2418043810e+01 -2.7500428248e+02 -1.6468964426e+00 
          3.0058365665e+02 2.4064882922e+01 -1.0519692879e-01 
          4.6393145425e+01 -2.2679521965e+02 -4.7601821799e-01 
          1.5947147869e+02 8.8565468066e+02 1.9902575364e+00 
          7.9158288731e+03 -8.0827516464e+03 1.1415921350e+05 
          -1.8021252267e+03 1.0468403074e+03 -2.8214079066e+03 
          -1.2732794001e+02 4.7570878686e+01 -2.3203522897e+00 
          4.1200213747e+02 1.1121525247e+02 -2.2279494772e+00 
          -1.8216470704e+02 4.1707487050e+01 5.5670877674e-01 
          -1.1352695198e+02 -7.3414978022e+01 3.4820106023e+00 
          1.0913549124e+04 1.0610739204e+04 1.3357730366e+05 
          -1.8439084017e+03 -1.3841004054e+03 -1.8343976680e+03 
          2.0639867793e+02 -5.1919955726e+02 -1.1572174708e+00 
          5.3085667325e+02 -4.0123199921e+01 -1.5569242678e+00 
          -4.9907437763e+02 -4.1587792816e+02 3.0753100401e+00 
          -1.7853095468e+02 -3.2152531776e+02 5.3792866657e+00 
          1.4491271123e+02 5.2488363635e+02 -3.0965504153e+00 
          -5.3326228489e+02 1.0081827500e+02 -2.0773635376e-01 
          6.2086256440e+03 3.3492506455e+03 3.8875180830e+03 
          2.2347701091e+03 -3.3204298948e+03 2.4071381409e+03 
          -1.4979643550e+03 1.4782804466e+03 2.8842994873e+01 
          -3.0032914803e+03 -1.6006411913e+03 2.3140314717e+01 
          1.1498462159e+03 -1.2780201334e+03 1.7490831682e+01 
          1.9963848280e+03 8.8012782788e+02 4.2378812262e+01 
          -5.8415323235e+03 3.4377834241e+03 3.5637974679e+03 
          3.0603089562e+03 -2.0958089139e+03 3.4031904378e+01 
          -2.0434522858e+03 1.4673863782e+03 7.9875747329e+01 
          -2.4589236594e+03 -3.6179835484e+03 2.1723812882e+03 
          1.4442895384e+03 1.9888457766e+03 6.6992922957e+01 
          -9.4228009534e+02 -1.4540775755e+03 3.0296767550e+01 
          -1.2348832278e+03 -8.4196319793e+02 2.3414998347e+01 
          -5.0283660808e+02 4.7103042185e+02 5.3600350827e+00 
          4.9610664968e+02 2.1480027809e+02 2.0873411969e+01 
          3.4032934733e+02 -4.4481177313e+02 -3.3199292239e+00 
          -1.6711360773e+02 -1.5526660416e+02 -1.2341820800e+00 
          -1.8928367955e+01 -9.0847868708e+01 -5.4944516320e+00 
          1.0935720630e+03 -6.7680085421e+02 2.9277215756e+01 
          -6.0695599848e+02 3.3294377041e+02 2.9388536891e+01 
          2.4373831829e+01 -1.8422251918e+02 -3.1524616776e+00 
          6.4793113074e+02 8.5375890104e+02 2.3933263700e+01 
          -2.0181102597e+02 -3.4925828419e+02 -2.0929012237e+00 
          7.5765338140e+01 -9.6949045583e+01 -2.6235647744e+00 
          3.3364086653e+01 -1.0752305767e+02 -1.2674005605e-01 
          2.0597483637e+01 -6.9164906199e+01 1.0799237109e+00 
          2.6174889626e+02 -1.2933117049e+02 2.4500603568e-01 
          4.4775789962e+00 -6.0822566536e+01 7.4103135133e+00 
          -2.9064484400e+01 -4.5787974113e+01 6.5788094528e+00 
          -1.0191079510e+02 -3.0168428155e+01 -2.6364912037e-01 
          -2.3008751102e+01 -1.7419317875e+02 3.0243378690e-01 
          3.5585673467e+02 6.4499322305e+01 -8.3024609954e-01 
          -1.0731813166e+02 1.2846974578e+02 2.4036968061e+00 
          6.0024988309e+01 1.9168848987e+02 5.7285175176e+00 
          5.6505766138e+02 1.2233659020e+01 8.4595423970e-01 
          8.5691331140e+01 -3.7421178569e+01 -9.5540356569e+01 
          1.6557413854e+01 -1.2379014256e+02 -3.1025998310e+01 
          -7.3690493114e+01 4.6859910217e+01 1.9231909108e+01 
          1.3788521365e+02 -1.1455757445e+01 1.1051562058e+02 
          1.0858967003e+01 4.3125372571e+01 -6.3962780332e-01 
          6.4669840933e+01 2.3454316764e+02 -1.7250505687e+00 
          -5.5847742991e+01 2.0165887685e+02 -1.6008403529e+00 
          -5.7014231727e+01 -5.2964403217e+01 1.2243780251e+00 
          -2.3782760059e+01 4.5083268877e+01 -9.9080221893e+01 
          2.9716802007e+01 -6.5403801789e+02 -7.0542505879e+00 
          -3.5392888629e+02 8.8498741503e+01 -9.2145029241e-01 
          7.9671968092e+01 1.4923840054e+02 1.1712282848e+01 
          -4.2552597568e+00 -6.9030013811e+01 1.1599380501e+01 
          6.7069452968e-01 1.7566878874e+02 4.6157194376e-01 
          7.0129131252e+01 -7.3776448231e+02 -4.1734791672e+01 
          -4.6946802307e+01 1.2082630414e+02 1.1240159030e+02 
          3.1812670460e+00 -1.0059473962e+01 -9.4538625800e+00 
          6.6668681783e+01 2.1993751821e+02 7.5849078130e-01 
          5.3457209202e+00 1.0476067407e+02 2.0968404478e+00 
          -6.6922668230e+00 1.3522266045e+02 2.9677315899e+00 
          8.2370123620e+00 1.1125589882e+02 1.7411551416e+00 
          -3.3944361086e+01 -1.1630085423e+02 -8.2584357932e-02 
          -4.2123269708e+00 -6.6234298632e+01 -2.0031105432e+01 
          -1.7285966390e+02 -8.9025108436e+01 1.3220401138e+00 
          -6.1103927039e+01 -2.6786658555e+00 3.2270435780e-01 
          -8.6748314731e+01 1.2058857131e+02 1.0913726248e+00 
          1.0387485074e+02 -7.3463510751e+01 4.9946643971e+00 
          3.2609522608e+01 -1.3087484725e+01 -3.1968824901e-01 
          -5.5992308025e+02 -7.6161565820e+00 2.6481307284e+00 
          -4.7527909716e+01 -3.2073445635e+01 9.4953713929e+00 
          -1.4446577260e+02 2.3085447053e+01 -4.6343671838e-01 
          -7.0823317362e+01 2.0698314264e+02 1.0880723102e+00 
          -3.9221201460e+01 1.1712100492e+02 7.1221024349e+00 
          -2.5754813056e+01 -1.6584436870e+02 -6.1248815180e-01 
          -4.1003949664e+01 -4.0460483838e+02 9.5036345715e+00 
          -5.7386754415e+01 6.5670985506e+00 2.4804583340e+00 
          -2.6303751995e+01 1.0120882766e+02 2.0522783928e+00 
          -3.5331667973e+01 1.2540854999e+02 3.0127988415e+00 
          -3.4616682793e+01 1.0773788105e+02 1.8612271014e+00 
          -7.8429922021e+01 2.3965305227e+01 -1.3854465861e+00 
          -4.8847960798e+01 5.8676806310e+01 2.6498577000e+00 
          1.4609568311e+00 3.5272913918e+01 -2.0121792305e+00 
          9.2645051687e+01 9.4466600675e+01 -1.7202265311e+00 
          -1.1142470625e+01 9.0568355071e+01 3.1798777366e+00 
          2.3737297025e+01 5.3063126011e+01 -2.2181108940e+00 
          -9.1141970072e+00 8.2649217920e+01 2.7352099286e+00 
          3.1333793971e+01 5.6159302656e+01 -1.9673254260e+00 
          -4.3337039982e+01 5.8766744559e+01 3.2101002932e+00 
          1.8175729370e+00 1.2690952365e+01 -2.3888308522e+00 
          -7.1476643789e+01 -6.7465767582e+01 -4.3825489440e+00 
          7.1491202425e+01 8.7947710684e+00 3.2971383376e+00 
          8.4119409501e+01 8.4088693875e+00 -7.5326501002e-01 
          5.3356031610e+01 1.2967775534e+01 -4.5951582896e-01 
          2.0764074121e+01 3.2637366138e+01 1.0093527199e+00 
          -1.3259560468e+01 1.2406473251e+01 -7.1539600980e-01 
          1.8262512361e+01 -4.4987574611e+01 9.4429136132e-01 
          -1.3102588406e+01 -1.5460598630e+01 -5.9749818435e-01 
          9.8665833197e+01 -1.0733650157e+02 2.9558678829e+00 
          1.0003935298e+02 -5.6079574324e+01 -1.1387145616e+00 
          3.8870601819e+01 -4.2805887535e+01 -1.4438724508e-01 
          4.6380376356e+00 -5.9899991049e+01 2.9820872769e-01 
          5.1465667932e+00 -3.8657436112e+01 -2.2195814973e-01 
          -3.4573109233e+01 -2.6641233774e+01 -1.3550361110e+00 
          8.8405281104e+01 -9.3216714969e+01 1.1950894060e+00 
          1.1144762406e+02 -7.0878010950e+01 -8.1477176385e-01 
          7.9966365318e+01 -3.2066031939e+01 1.4410760604e+00 
          1.1960683170e+02 1.4746500155e+01 -4.5479442109e-01 
          -2.0302781310e+00 -6.5415561309e+01 4.4262953135e-01 
          5.7578798233e+00 -2.6390493091e+01 -3.3323141938e-01 
          -1.3640463341e+01 8.1793000166e+01 -5.9049816593e-01 
          -1.8289404520e+01 9.3485164898e+01 -1.6215594822e-01 
          -2.0448311747e+00 3.8858795276e+01 1.1865931141e+00 
          -4.2644951779e+00 4.4287567963e+01 1.6489662766e+00 
          -1.1025198994e+01 4.1143110683e+01 1.6918193182e+00 
          -8.4287511358e+00 3.5543562313e+01 1.2437206752e+00 
          -1.8129016786e+03 -3.0768010401e+02 -6.5404193239e+02 
          -9.1685810113e+01 -1.4721158741e+01 -3.4195701072e+01 
          -4.8820490594e+00 -3.7561326388e+01 9.5837981399e+00 
          6.5693527369e+01 -1.1347486700e+03 -1.0496198794e+03 
          3.5055754639e+01 4.0871299310e+02 1.0850376205e+01 
          -6.4741926613e+00 6.6665942658e+01 -1.0068259296e+01 
          9.9844093589e+02 -1.4893441199e+02 -5.2246660486e+02 
          -3.3134525564e+02 -7.5081622513e+01 -7.9616254333e+01 
          -1.4707273843e+02 -2.5854877543e+01 2.7348644957e+01 
          1.2363379067e+02 2.2662857489e+03 -4.4585994770e+02 
          -2.2507117067e+01 4.1245014098e+02 2.3067299992e+01 
          1.3776101510e+01 1.9416841454e+02 -2.4292967256e+01 
          5.1846389560e-01 -5.9082405803e+01 5.7866591345e-01 
          1.0345067811e+02 -4.4107731224e+01 3.5181093319e+00 
          1.2581646436e+02 -2.9937934293e+01 -3.0319299100e+00 
          -9.6948354124e+00 -2.4926736552e+02 4.9291446924e+00 
          -1.8101691673e+01 4.1899527886e+01 1.3364430624e+00 
          -2.1169093069e+01 3.3730709787e+01 -5.5903757587e-02 
          -5.4288973440e+01 9.3697285837e+00 -8.9084005973e+00 
          -5.2454261145e+01 6.1174684826e+00 -1.4848885781e-01 
          -1.4554788659e+02 -7.6756394529e+00 -4.5094869703e+00 
          2.6343599695e+01 -3.7209966100e+01 1.2231586831e+00 
          2.6134394730e+01 -1.1101893573e+02 1.4381131887e+00 
          8.6077229823e+00 -2.9736561258e+01 3.8493748719e-01 
        </DataArray>
        <DataArray type="Float64" Name="UnbalancedLoad" NumberOfComponents="3" format="ascii">
          0.0000000000e+00 0.0000000000e+00 -9.1469748038e+03 
          0.0000000000e+00 0.0000000000e+00 -9.3729109014e+03 
          0.0000000000e+00 0.0000000000e+00 -9.1466186016e+03 
          0.0000000000e+00 0.0000000000e+00 -1.4768767235e+04 
          0.0000000000e+00 0.0000000000e+00 -1.4768542231e+04 
          0.0000000000e+00 0.0000000000e+00 -9.9930956875e+03 
          0.0000000000e+00 0.0000000000e+00 -9.9944425065e+03 
          0.0000000000e+00 0.0000000000e+00 -7.4771587097e+03 
          0.0000000000e+00 0.0000000000e+00 -7.4782805326e+03 
          0.0000000000e+00 0.0000000000e+00 -9.3725546912e+03 
          0.0000000000e+00 0.0000000000e+00 -9.1469748038e+03 
          0.0000000000e+00 0.0000000000e+00 -1.4768767235e+04 
          0.0000000000e+00 0.0000000000e+00 -9.9944425065e+03 
          0.0000000000e+00 0.0000000000e+00 -9.9944425065e+03 
          0.0000000000e+00 0.0000000000e+00 -7.4782805326e+03 
          0.0000000000e+00 0.0000000000e+00 -9.3725546912e+03 
          0.0000000000e+00 0.0000000000e+00 -9.1469748038e+03 
          0.0000000000e+00 0.0000000000e+00 -1.4768767235e+04 
          0.0000000000e+00 0.0000000000e+00 -9.9944425065e+03 
          0.0000000000e+00 0.0000000000e+00 -9.9944425065e+03 
          0.0000000000e+00 0.0000000000e+00 -7.4782805326e+03 
          0.0000000000e+00 0.0000000000e+00 -9.3725546912e+03 
          0.0000000000e+00 0.0000000000e+00 -9.9944425065e+03 
          0.0000000000e+00 0.0000000000e+00 -9.9944425065e+03 
          0.0000000000e+00 0.0000000000e+00 -4.9821937648e+03 
          0.0000000000e+00 0.0000000000e+00 -4.9821937648e+03 
          0.0000000000e+00 0.0000000000e+00 -4.4999879132e+03 
          0.0000000000e+00 0.0000000000e+00 -4.4999879132e+03 
          0.0000000000e+00 0.0000000000e+00 -3.7043621671e+03 
          0.0000000000e+00 0.0000000000e+00 -3.7043621671e+03 
          0.0000000000e+00 0.0000000000e+00 -4.9821937648e+03 
          0.0000000000e+00 0.0000000000e+00 -4.4999879132e+03 
          0.0000000000e+00 0.0000000000e+00 -3.7043621671e+03 
          0.0000000000e+00 0.0000000000e+00 -4.9821937648e+03 
          0.0000000000e+00 0.0000000000e+00 -4.4999879132e+03 
          0.0000000000e+00 0.0000000000e+00 -3.7043621671e+03 
          0.0000000000e+00 0.0000000000e+00 -2.9829160439e+03 
          0.0000000000e+00 0.0000000000e+00 -2.9829160439e+03 
          0.0000000000e+00 0.0000000000e+00 -2.6988362092e+03 
          0.0000000000e+00 0.0000000000e+00 -2.6988362092e+03 
          0.0000000000e+00 0.0000000000e+00 -3.6776554783e+03 
          0.0000000000e+00 0.0000000000e+00 -3.6776554783e+03 
          0.0000000000e+00 0.0000000000e+00 -2.9829160439e+03 
          0.0000000000e+00 0.0000000000e+00 -2.6988362092e+03 
          0.0000000000e+00 0.0000000000e+00 -3.6776554783e+03 
          0.0000000000e+00 0.0000000000e+00 -2.9829160439e+03 
          0.0000000000e+00 0.0000000000e+00 -2.6988362092e+03 
          0.0000000000e+00 0.0000000000e+00 -3.6776554783e+03 
          0.0000000000e+00 0.0000000000e+00 -1.6963813698e+03 
          0.0000000000e+00 0.0000000000e+00 -1.6963813698e+03 
          0.0000000000e+00 0.0000000000e+00 -2.1209971329e+03 
          0.0000000000e+00 0.0000000000e+00 -1.7404849995e+03 
          0.0000000000e+00 0.0000000000e+00 -1.7404849995e+03 
          0.0000000000e+00 0.0000000000e+00 -9.6755010368e+02 
          0.0000000000e+00 0.0000000000e+00 -1.3044671241e+03 
          0.0000000000e+00 0.0000000000e+00 -1.3044671241e+03 
          0.0000000000e+00 0.0000000000e+00 -3.4663835815e+03 
          0.0000000000e+00 0.0000000000e+00 -3.4663835815e+03 
          0.0000000000e+00 0.0000000000e+00 -1.7290828872e+03 
          0.0000000000e+00 0.0000000000e+00 -3.1758384768e+03 
          0.0000000000e+00 0.0000000000e+00 -3.1758384768e+03 
          0.0000000000e+00 0.0000000000e+00 -1.7404849995e+03 
          0.0000000000e+00 0.0000000000e+00 -1.7404849995e+03 
          0.0000000000e+00 0.0000000000e+00 -9.6755010368e+02 
          0.0000000000e+00 0.0000000000e+00 -3.3163632738e+03 
          0.0000000000e+00 0.0000000000e+00 -3.3163632738e+03 
          0.0000000000e+00 0.0000000000e+00 -1.6963813698e+03 
          0.0000000000e+00 0.0000000000e+00 -3.1758384768e+03 
          0.0000000000e+00 0.0000000000e+00 -2.1209971329e+03 
          0.0000000000e+00 0.0000000000e+00 -1.3044671241e+03 
          0.0000000000e+00 0.0000000000e+00 -3.4663835815e+03 
          0.0000000000e+00 0.0000000000e+00 -1.7404849995e+03 
          0.0000000000e+00 0.0000000000e+00 -9.6755010368e+02 
          0.0000000000e+00 0.0000000000e+00 -1.7290828872e+03 
          0.0000000000e+00 0.0000000000e+00 -1.7404849995e+03 
          0.0000000000e+00 0.0000000000e+00 -9.6755010368e+02 
          0.0000000000e+00 0.0000000000e+00 -3.3163632738e+03 
          0.0000000000e+00 0.0000000000e+00 -9.2046739298e+02 
          0.0000000000e+00 0.0000000000e+00 -1.1122908177e+03 
          0.0000000000e+00 0.0000000000e+00 -1.1122908177e+03 
          0.0000000000e+00 0.0000000000e+00 -1.6963813698e+03 
          0.0000000000e+00 0.0000000000e+00 -3.1758384768e+03 
          0.0000000000e+00 0.0000000000e+00 -2.1209971329e+03 
          0.0000000000e+00 0.0000000000e+00 -1.3044671241e+03 
          0.0000000000e+00 0.0000000000e+00 -3.4663835815e+03 
          0.0000000000e+00 0.0000000000e+00 -1.7404849995e+03 
          0.0000000000e+00 0.0000000000e+00 -9.6755010368e+02 
          0.0000000000e+00 0.0000000000e+00 -1.7290828872e+03 
          0.0000000000e+00 0.0000000000e+00 -1.7404849995e+03 
          0.0000000000e+00 0.0000000000e+00 -9.6755010368e+02 
          0.0000000000e+00 0.0000000000e+00 -3.3163632738e+03 
          0.0000000000e+00 0.0000000000e+00 -2.1209971329e+03 
          0.0000000000e+00 0.0000000000e+00 -9.6755010368e+02 
          0.0000000000e+00 0.0000000000e+00 -1.7290828872e+03 
          0.0000000000e+00 0.0000000000e+00 -9.6755010368e+02 
          0.0000000000e+00 0.0000000000e+00 -9.2046739298e+02 
          0.0000000000e+00 0.0000000000e+00 -1.1122908177e+03 
          0.0000000000e+00 0.0000000000e+00 -1.1122908177e+03 
          0.0000000000e+00 0.0000000000e+00 -1.4381429315e+03 
          0.0000000000e+00 0.0000000000e+00 -1.4381535048e+03 
          0.0000000000e+00 0.0000000000e+00 -1.0208343994e+03 
          0.0000000000e+00 0.0000000000e+00 -1.4381429315e+03 
          0.0000000000e+00 0.0000000000e+00 -1.4381535048e+03 
          0.0000000000e+00 0.0000000000e+00 -1.0208343994e+03 
          0.0000000000e+00 0.0000000000e+00 -1.4381535048e+03 
          0.0000000000e+00 0.0000000000e+00 -1.0208343994e+03 
          0.0000000000e+00 0.0000000000e+00 -1.4381535048e+03 
          0.0000000000e+00 0.0000000000e+00 -1.0208343994e+03 
          0.0000000000e+00 0.0000000000e+00 -1.4381429315e+03 
          0.0000000000e+00 0.0000000000e+00 -1.4381535048e+03 
          0.0000000000e+00 0.0000000000e+00 -1.0208343994e+03 
          0.0000000000e+00 0.0000000000e+00 -1.4381429315e+03 
          0.0000000000e+00 0.0000000000e+00 -1.4381535048e+03 
          0.0000000000e+00 0.0000000000e+00 -1.0208343994e+03 
          0.0000000000e+00 0.0000000000e+00 -1.4381535048e+03 
          0.0000000000e+00 0.0000000000e+00 -1.0208343994e+03 
          0.0000000000e+00 0.0000000000e+00 -1.4381535048e+03 
          0.0000000000e+00 0.0000000000e+00 -1.0208343994e+03 
          0.0000000000e+00 0.0000000000e+00 -1.4381429315e+03 
          0.0000000000e+00 0.0000000000e+00 -1.4381535048e+03 
          0.0000000000e+00 0.0000000000e+00 -1.0208343994e+03 
          0.0000000000e+00 0.0000000000e+00 -1.4381429315e+03 
          0.0000000000e+00 0.0000000000e+00 -1.4381535048e+03 
          0.0000000000e+00 0.0000000000e+00 -1.0208343994e+03 
          0.0000000000e+00 0.0000000000e+00 -1.4381535048e+03 
          0.0000000000e+00 0.0000000000e+00 -1.0208343994e+03 
          0.0000000000e+00 0.0000000000e+00 -1.4381535048e+03 
          0.0000000000e+00 0.0000000000e+00 -1.0208343994e+03 
          0.0000000000e+00 0.0000000000e+00 -9.2266037285e+02 
          0.0000000000e+00 0.0000000000e+00 -9.2266037285e+02 
          0.0000000000e+00 0.0000000000e+00 -2.5222033761e+02 
          0.0000000000e+00 0.0000000000e+00 -2.5222033761e+02 
          0.0000000000e+00 0.0000000000e+00 -2.5222033761e+02 
          0.0000000000e+00 0.0000000000e+00 -2.5222033761e+02 
          0.0000000000e+00 0.0000000000e+00 -1.2272446907e+03 
          0.0000000000e+00 0.0000000000e+00 -1.1085564159e+03 
          0.0000000000e+00 0.0000000000e+00 -9.9941478108e+02 
          0.0000000000e+00 0.0000000000e+00 -1.2272446907e+03 
          0.0000000000e+00 0.0000000000e+00 -1.1085564159e+03 
          0.0000000000e+00 0.0000000000e+00 -9.9941478108e+02 
          0.0000000000e+00 0.0000000000e+00 -1.2272446907e+03 
          0.0000000000e+00 0.0000000000e+00 -1.1085564159e+03 
          0.0000000000e+00 0.0000000000e+00 -9.9941478108e+02 
          0.0000000000e+00 0.0000000000e+00 -1.2272446907e+03 
          0.0000000000e+00 0.0000000000e+00 -1.1085564159e+03 
          0.0000000000e+00 0.0000000000e+00 -9.9941478108e+02 
          0.0000000000e+00 0.0000000000e+00 -9.0118191831e+02 
          0.0000000000e+00 0.0000000000e+00 -8.1107872512e+02 
          0.0000000000e+00 0.0000000000e+00 -7.3520523110e+02 
          0.0000000000e+00 0.0000000000e+00 -9.0118191831e+02 
          0.0000000000e+00 0.0000000000e+00 -8.1107872512e+02 
          0.0000000000e+00 0.0000000000e+00 -7.3520523110e+02 
          0.0000000000e+00 0.0000000000e+00 -9.0118191831e+02 
          0.0000000000e+00 0.0000000000e+00 -8.1107872512e+02 
          0.0000000000e+00 0.0000000000e+00 -7.3520523110e+02 
          0.0000000000e+00 0.0000000000e+00 -9.0118191831e+02 
          0.0000000000e+00 0.0000000000e+00 -8.1107872512e+02 
          0.0000000000e+00 0.0000000000e+00 -7.3520523110e+02 
        </DataArray>
      </PointData>
      <CellData>
        <DataArray type="Int64" Name="ElementTag" format="ascii">
          0
        </DataArray>
      </CellData>
    </Piece>
  </UnstructuredGrid>
</VTKFile>
