<?xml version="1.0"?>
<VTKFile type="UnstructuredGrid" version="1.0" byte_order="LittleEndian" compressor="vtkZLibDataCompressor">
  <UnstructuredGrid>
    <Piece NumberOfPoints="158" NumberOfCells="1">
      <Points>
        <DataArray type="Float64" Name="Points" NumberOfComponents="3" format="ascii">
          1.7550000000e+00 -1.7550000000e+00 0.0000000000e+00 
          1.4140000000e+00 0.0000000000e+00 5.2300000000e+00 
          1.7550000000e+00 1.7550000000e+00 -0.0000000000e+00 
          1.4140000000e+00 -1.4140000000e+00 5.2300000000e+00 
          1.4140000000e+00 1.4140000000e+00 5.2300000000e+00 
          1.5840000000e+00 8.7800000000e-01 2.6150000000e+00 
          1.5840000000e+00 -8.7700000000e-01 2.6150000000e+00 
          1.5840000000e+00 1.5840000000e+00 2.6150000000e+00 
          1.5840000000e+00 -1.5840000000e+00 2.6150000000e+00 
          -0.0000000000e+00 1.4140000000e+00 5.2300000000e+00 
          -1.7550000000e+00 1.7550000000e+00 -0.0000000000e+00 
          -1.4140000000e+00 1.4140000000e+00 5.2300000000e+00 
          -8.7700000000e-01 1.5840000000e+00 2.6150000000e+00 
          8.7700000000e-01 1.5840000000e+00 2.6150000000e+00 
          -1.5840000000e+00 1.5840000000e+00 2.6150000000e+00 
          -1.4140000000e+00 -0.0000000000e+00 5.2300000000e+00 
          -1.7550000000e+00 -1.7550000000e+00 -0.0000000000e+00 
          -1.4140000000e+00 -1.4140000000e+00 5.2300000000e+00 
          -1.5840000000e+00 -8.7700000000e-01 2.6150000000e+00 
          -1.5840000000e+00 8.7700000000e-01 2.6150000000e+00 
          -1.5840000000e+00 -1.5840000000e+00 2.6150000000e+00 
          0.0000000000e+00 -1.4140000000e+00 5.2300000000e+00 
          8.7700000000e-01 -1.5840000000e+00 2.6150000000e+00 
          -8.7700000000e-01 -1.5840000000e+00 2.6150000000e+00 
          1.2750000000e+00 1.2750000000e+00 7.3500000000e+00 
          1.2750000000e+00 -1.2750000000e+00 7.3500000000e+00 
          1.1500000000e+00 -1.1500000000e+00 9.2700000000e+00 
          1.1500000000e+00 1.1500000000e+00 9.2700000000e+00 
          1.0370000000e+00 -1.0370000000e+00 1.1000000000e+01 
          1.0370000000e+00 1.0370000000e+00 1.1000000000e+01 
          -1.2750000000e+00 1.2750000000e+00 7.3500000000e+00 
          -1.1500000000e+00 1.1500000000e+00 9.2700000000e+00 
          -1.0370000000e+00 1.0370000000e+00 1.1000000000e+01 
          -1.2750000000e+00 -1.2750000000e+00 7.3500000000e+00 
          -1.1500000000e+00 -1.1500000000e+00 9.2700000000e+00 
          -1.0370000000e+00 -1.0370000000e+00 1.1000000000e+01 
          9.3500000000e-01 9.3500000000e-01 1.2560000000e+01 
          9.3500000000e-01 -9.3500000000e-01 1.2560000000e+01 
          8.4300000000e-01 8.4300000000e-01 1.3960000000e+01 
          8.4300000000e-01 -8.4300000000e-01 1.3960000000e+01 
          7.6000000000e-01 7.6000000000e-01 1.5240000000e+01 
          7.6000000000e-01 -7.6000000000e-01 1.5240000000e+01 
          -9.3500000000e-01 9.3500000000e-01 1.2560000000e+01 
          -8.4300000000e-01 8.4300000000e-01 1.3960000000e+01 
          -7.6000000000e-01 7.6000000000e-01 1.5240000000e+01 
          -9.3500000000e-01 -9.3500000000e-01 1.2560000000e+01 
          -8.4300000000e-01 -8.4300000000e-01 1.3960000000e+01 
          -7.6000000000e-01 -7.6000000000e-01 1.5240000000e+01 
          7.6000000000e-01 -7.6000000000e-01 1.6240000000e+01 
          7.6000000000e-01 7.6000000000e-01 1.6240000000e+01 
          7.6000000000e-01 0.0000000000e+00 1.6240000000e+01 
          7.6000000000e-01 7.6000000000e-01 1.7340000000e+01 
          7.6000000000e-01 -7.6000000000e-01 1.7340000000e+01 
          7.6000000000e-01 0.0000000000e+00 1.7890000000e+01 
          7.6000000000e-01 -7.6000000000e-01 1.9440000000e+01 
          7.6000000000e-01 7.6000000000e-01 1.9440000000e+01 
          7.6000000000e-01 -7.6000000000e-01 2.1640000000e+01 
          7.6000000000e-01 7.6000000000e-01 2.1640000000e+01 
          7.6000000000e-01 0.0000000000e+00 1.9440000000e+01 
          7.6000000000e-01 7.6000000000e-01 1.8440000000e+01 
          7.6000000000e-01 -7.6000000000e-01 1.8440000000e+01 
          7.6000000000e-01 -7.6000000000e-01 2.0540000000e+01 
          7.6000000000e-01 7.6000000000e-01 2.0540000000e+01 
          7.6000000000e-01 0.0000000000e+00 2.1090000000e+01 
          7.6000000000e-01 7.6000000000e-01 2.2640000000e+01 
          7.6000000000e-01 -7.6000000000e-01 2.2640000000e+01 
          -7.6000000000e-01 7.6000000000e-01 1.6240000000e+01 
          -7.6000000000e-01 7.6000000000e-01 1.8440000000e+01 
          -0.0000000000e+00 7.6000000000e-01 1.6240000000e+01 
          -7.6000000000e-01 7.6000000000e-01 1.9440000000e+01 
          -7.6000000000e-01 7.6000000000e-01 2.1640000000e+01 
          -7.6000000000e-01 7.6000000000e-01 1.7340000000e+01 
          -0.0000000000e+00 7.6000000000e-01 1.7890000000e+01 
          -0.0000000000e+00 7.6000000000e-01 1.9440000000e+01 
          -7.6000000000e-01 7.6000000000e-01 2.0540000000e+01 
          0.0000000000e+00 7.6000000000e-01 2.1090000000e+01 
          -7.6000000000e-01 7.6000000000e-01 2.2640000000e+01 
          -0.0000000000e+00 5.2600000000e-01 2.3499000000e+01 
          3.9900000000e-01 4.0400000000e-01 2.3950000000e+01 
          -3.9900000000e-01 4.0400000000e-01 2.3950000000e+01 
          -7.6000000000e-01 -7.6000000000e-01 1.6240000000e+01 
          -7.6000000000e-01 -7.6000000000e-01 1.8440000000e+01 
          -7.6000000000e-01 -0.0000000000e+00 1.6240000000e+01 
          -7.6000000000e-01 -7.6000000000e-01 1.9440000000e+01 
          -7.6000000000e-01 -7.6000000000e-01 2.1640000000e+01 
          -7.6000000000e-01 -7.6000000000e-01 1.7340000000e+01 
          -7.6000000000e-01 0.0000000000e+00 1.7890000000e+01 
          -7.6000000000e-01 -0.0000000000e+00 1.9440000000e+01 
          -7.6000000000e-01 -7.6000000000e-01 2.0540000000e+01 
          -7.6000000000e-01 -0.0000000000e+00 2.1090000000e+01 
          -7.6000000000e-01 -7.6000000000e-01 2.2640000000e+01 
          0.0000000000e+00 -7.6000000000e-01 1.6240000000e+01 
          0.0000000000e+00 -7.6000000000e-01 1.7890000000e+01 
          0.0000000000e+00 -7.6000000000e-01 1.9440000000e+01 
          0.0000000000e+00 -7.6000000000e-01 2.1090000000e+01 
          0.0000000000e+00 -5.2600000000e-01 2.3499000000e+01 
          3.9900000000e-01 -4.0400000000e-01 2.3950000000e+01 
          -3.9900000000e-01 -4.0400000000e-01 2.3950000000e+01 
          -0.0000000000e+00 -3.3500000000e+00 2.1640000000e+01 
          -3.8000000000e-01 -2.0550000000e+00 2.2140000000e+01 
          -3.8000000000e-01 -2.0550000000e+00 2.1640000000e+01 
          0.0000000000e+00 3.3500000000e+00 2.1640000000e+01 
          -3.8000000000e-01 2.0550000000e+00 2.2140000000e+01 
          -3.8000000000e-01 2.0550000000e+00 2.1640000000e+01 
          3.8000000000e-01 2.0550000000e+00 2.2140000000e+01 
          3.8000000000e-01 2.0550000000e+00 2.1640000000e+01 
          3.8000000000e-01 -2.0550000000e+00 2.2140000000e+01 
          3.8000000000e-01 -2.0550000000e+00 2.1640000000e+01 
          -0.0000000000e+00 -3.3500000000e+00 1.8440000000e+01 
          -3.8000000000e-01 -2.0550000000e+00 1.8940000000e+01 
          -3.8000000000e-01 -2.0550000000e+00 1.8440000000e+01 
          -0.0000000000e+00 3.3500000000e+00 1.8440000000e+01 
          -3.8000000000e-01 2.0550000000e+00 1.8940000000e+01 
          -3.8000000000e-01 2.0550000000e+00 1.8440000000e+01 
          3.8000000000e-01 2.0550000000e+00 1.8940000000e+01 
          3.8000000000e-01 2.0550000000e+00 1.8440000000e+01 
          3.8000000000e-01 -2.0550000000e+00 1.8940000000e+01 
          3.8000000000e-01 -2.0550000000e+00 1.8440000000e+01 
          -0.0000000000e+00 -3.3500000000e+00 1.5240000000e+01 
          -3.8000000000e-01 -2.0550000000e+00 1.5740000000e+01 
          -3.8000000000e-01 -2.0550000000e+00 1.5240000000e+01 
          -0.0000000000e+00 3.3500000000e+00 1.5240000000e+01 
          -3.8000000000e-01 2.0550000000e+00 1.5740000000e+01 
          -3.8000000000e-01 2.0550000000e+00 1.5240000000e+01 
          3.8000000000e-01 2.0550000000e+00 1.5740000000e+01 
          3.8000000000e-01 2.0550000000e+00 1.5240000000e+01 
          3.8000000000e-01 -2.0550000000e+00 1.5740000000e+01 
          3.8000000000e-01 -2.0550000000e+00 1.5240000000e+01 
          -5.2400000000e-01 0.0000000000e+00 2.3496000000e+01 
          5.2400000000e-01 0.0000000000e+00 2.3496000000e+01 
          4.0000000000e-02 5.0000000000e-02 2.5250000000e+01 
          -4.0000000000e-02 5.0000000000e-02 2.5250000000e+01 
          -4.0000000000e-02 -5.0000000000e-02 2.5250000000e+01 
          4.0000000000e-02 -5.0000000000e-02 2.5250000000e+01 
          1.3410000000e+00 0.0000000000e+00 6.3450000000e+00 
          1.2090000000e+00 0.0000000000e+00 8.3600000000e+00 
          1.0900000000e+00 -0.0000000000e+00 1.0180000000e+01 
          -0.0000000000e+00 1.3410000000e+00 6.3450000000e+00 
          0.0000000000e+00 1.2090000000e+00 8.3600000000e+00 
          -0.0000000000e+00 1.0900000000e+00 1.0180000000e+01 
          -1.3410000000e+00 0.0000000000e+00 6.3450000000e+00 
          -1.2090000000e+00 0.0000000000e+00 8.3600000000e+00 
          -1.0900000000e+00 -0.0000000000e+00 1.0180000000e+01 
          -0.0000000000e+00 -1.3410000000e+00 6.3450000000e+00 
          0.0000000000e+00 -1.2090000000e+00 8.3600000000e+00 
          0.0000000000e+00 -1.0900000000e+00 1.0180000000e+01 
          9.8300000000e-01 0.0000000000e+00 1.1820000000e+01 
          8.8700000000e-01 0.0000000000e+00 1.3296000000e+01 
          8.0000000000e-01 -0.0000000000e+00 1.4633000000e+01 
          0.0000000000e+00 9.8300000000e-01 1.1820000000e+01 
          -0.0000000000e+00 8.8700000000e-01 1.3296000000e+01 
          0.0000000000e+00 8.0000000000e-01 1.4633000000e+01 
          -9.8300000000e-01 0.0000000000e+00 1.1820000000e+01 
          -8.8700000000e-01 0.0000000000e+00 1.3296000000e+01 
          -8.0000000000e-01 0.0000000000e+00 1.4633000000e+01 
          0.0000000000e+00 -9.8300000000e-01 1.1820000000e+01 
          0.0000000000e+00 -8.8700000000e-01 1.3296000000e+01 
          0.0000000000e+00 -8.0000000000e-01 1.4633000000e+01 
        </DataArray>
      </Points>
      <Cells>
        <DataArray type="Int64" Name="connectivity" format="ascii">
          0
          1
          2
          3
          4
          5
          6
          7
          8
          9
          10
          11
          12
          13
          14
          15
          16
          17
          18
          19
          20
          21
          22
          23
          24
          25
          26
          27
          28
          29
          30
          31
          32
          33
          34
          35
          36
          37
          38
          39
          40
          41
          42
          43
          44
          45
          46
          47
          48
          49
          50
          51
          52
          53
          54
          55
          56
          57
          58
          59
          60
          61
          62
          63
          64
          65
          66
          67
          68
          69
          70
          71
          72
          73
          74
          75
          76
          77
          78
          79
          80
          81
          82
          83
          84
          85
          86
          87
          88
          89
          90
          91
          92
          93
          94
          95
          96
          97
          98
          99
          100
          101
          102
          103
          104
          105
          106
          107
          108
          109
          110
          111
          112
          113
          114
          115
          116
          117
          118
          119
          120
          121
          122
          123
          124
          125
          126
          127
          128
          129
          130
          131
          132
          133
          134
          135
          136
          137
          138
          139
          140
          141
          142
          143
          144
          145
          146
          147
          148
          149
          150
          151
          152
          153
          154
          155
          156
          157
        </DataArray>
        <DataArray type="Int64" Name="offsets" format="ascii">
          158
        </DataArray>
        <DataArray type="Int64" Name="types" format="ascii">
          2
        </DataArray>
      </Cells>
      <PointData>
        <DataArray type="Int64" Name="NodeTag" format="ascii">
          1
          2
          3
          4
          5
          6
          7
          8
          9
          10
          11
          12
          13
          14
          15
          16
          17
          18
          19
          20
          21
          22
          23
          24
          25
          26
          27
          28
          29
          30
          31
          32
          33
          34
          35
          36
          37
          38
          39
          40
          41
          42
          43
          44
          45
          46
          47
          48
          49
          50
          51
          52
          53
          54
          55
          56
          57
          58
          59
          60
          61
          62
          63
          64
          65
          66
          67
          68
          69
          70
          71
          72
          73
          74
          75
          76
          77
          78
          79
          80
          81
          82
          83
          84
          85
          86
          87
          88
          89
          90
          91
          92
          93
          94
          95
          96
          97
          98
          99
          100
          101
          102
          103
          104
          105
          106
          107
          108
          109
          110
          111
          112
          113
          114
          115
          116
          117
          118
          119
          120
          121
          122
          123
          124
          125
          126
          127
          128
          129
          130
          131
          132
          133
          134
          135
          136
          137
          138
          139
          140
          141
          142
          143
          144
          145
          146
          147
          148
          149
          150
          151
          152
          153
          154
          155
          156
          157
          158
        </DataArray>
        <DataArray type="Float64" Name="Displacement" NumberOfComponents="3" format="ascii">
          0.0000000000e+00 0.0000000000e+00 0.0000000000e+00 
          -5.3595433877e-05 -9.3217805039e-05 -6.7369100585e-05 
          0.0000000000e+00 0.0000000000e+00 0.0000000000e+00 
          3.9728284277e-05 -9.1370122230e-05 -5.2363818511e-04 
          -6.7097778660e-06 -9.9173410242e-05 -3.5811997161e-04 
          -6.7439513215e-04 -6.6272422296e-04 -2.9359722475e-04 
          -8.7965122565e-04 8.1552028414e-04 -3.9460375986e-04 
          -5.9629574113e-04 -6.6242742419e-04 -2.6810109892e-04 
          -8.5338773208e-04 8.1436046358e-04 -3.8544813935e-04 
          -4.3718520262e-06 -1.8886300395e-04 -6.8939072569e-05 
          0.0000000000e+00 0.0000000000e+00 0.0000000000e+00 
          -2.1825008234e-06 -4.7284642549e-05 -3.7146867561e-04 
          6.2041393873e-04 -5.7198974860e-04 -2.8539431571e-04 
          -5.9651646612e-04 -6.5352078417e-04 -2.8105586631e-04 
          6.2018242463e-04 -6.6451339015e-04 -2.7858997423e-04 
          1.4120359391e-04 -4.0946072571e-05 -6.9902452193e-05 
          0.0000000000e+00 0.0000000000e+00 0.0000000000e+00 
          4.3002280246e-05 -3.6472996576e-05 -5.5735562230e-04 
          1.0816008578e-03 9.1805764695e-04 -4.2990459249e-04 
          8.1509885534e-04 -6.6445634047e-04 -3.0859841180e-04 
          9.7506977066e-04 9.1728518516e-04 -4.1214675327e-04 
          4.0630640440e-05 -4.6633895742e-05 -6.5831547793e-05 
          -8.5443980965e-04 7.7967304198e-04 -3.9456272243e-04 
          9.7587648622e-04 8.5376335624e-04 -4.2486633356e-04 
          3.4771274108e-05 -1.6348010825e-04 -4.6809004529e-04 
          1.6219865836e-04 -4.2824083631e-04 -7.0359315432e-04 
          -6.8721338010e-05 -5.9696892476e-04 -8.7969183457e-04 
          -6.4417833775e-05 -5.6039365989e-04 -5.9261617235e-04 
          4.0648453300e-05 -9.1343731470e-04 -9.8346272235e-04 
          5.1157110481e-05 -8.6957409729e-04 -6.8311050986e-04 
          -7.8223440603e-05 -8.9531256458e-05 -4.8299852923e-04 
          -1.1504918525e-05 -5.1406788672e-04 -6.0824616006e-04 
          -1.5099736868e-04 -7.7674231607e-04 -6.9326558290e-04 
          -1.3307724445e-04 -3.9176765009e-04 -7.3984942438e-04 
          1.7023578466e-05 -5.1141483041e-04 -9.2023072867e-04 
          -1.7984300739e-04 -8.7622585371e-04 -1.0208473732e-03 
          -9.7561827599e-05 -1.1265060838e-03 -7.9932176023e-04 
          -9.9960969516e-05 -1.2585304122e-03 -1.1107285333e-03 
          3.3749216436e-05 -1.4628750041e-03 -8.9209381701e-04 
          -7.4178045326e-05 -1.5047931139e-03 -1.2045050858e-03 
          -4.3582805744e-05 -1.7692146311e-03 -9.8605569035e-04 
          -1.6969954698e-04 -1.7622886244e-03 -1.2799679010e-03 
          -9.9144344563e-06 -1.1027074068e-03 -8.1076995881e-04 
          -1.3869394596e-04 -1.4080969720e-03 -9.0030218798e-04 
          -5.2769274542e-05 -1.7517424243e-03 -9.9970998670e-04 
          -1.1989060166e-04 -1.1799168575e-03 -1.1493219699e-03 
          -2.1541474427e-04 -1.4924046577e-03 -1.2357702753e-03 
          -1.8652901225e-04 -1.7415503626e-03 -1.3091641010e-03 
          -2.0755229966e-04 -1.9981695752e-03 -1.3828228309e-03 
          -4.8753161001e-05 -1.9818685722e-03 -1.0777419260e-03 
          -5.4847556677e-05 -1.9893631064e-03 -1.1789253154e-03 
          8.5673343082e-05 -2.0953230452e-03 -1.1631289337e-03 
          -9.1364944201e-05 -2.3968254793e-03 -1.4791418875e-03 
          -7.7758693647e-05 -2.3684864033e-03 -1.5086229561e-03 
          -2.6538053192e-04 -2.7181531286e-03 -1.6743690510e-03 
          -8.2124980231e-05 -2.6835417012e-03 -1.3677823792e-03 
          -2.7979859689e-04 -3.1302490167e-03 -1.7864075381e-03 
          -1.2446216194e-04 -3.1683131593e-03 -1.5024757804e-03 
          -1.4024750619e-04 -2.7018966410e-03 -1.4817153528e-03 
          -5.6777298986e-05 -2.5055989774e-03 -1.3062403801e-03 
          -2.4818225508e-04 -2.4739812173e-03 -1.6194352268e-03 
          -2.0311987979e-04 -3.0252520327e-03 -1.7197149096e-03 
          -2.2193862718e-05 -2.8370085525e-03 -1.4190251970e-03 
          -1.9042773920e-04 -3.0433020024e-03 -1.6871427834e-03 
          -1.3982339033e-04 -3.3069796670e-03 -1.5354957229e-03 
          -2.8985270215e-04 -3.3520533674e-03 -1.8083175814e-03 
          -4.5260341832e-05 -1.9649587407e-03 -1.1006272481e-03 
          -6.6148944969e-05 -2.4348618706e-03 -1.3364750250e-03 
          -4.6441857169e-05 -2.1839928130e-03 -1.0429683802e-03 
          -7.2911687614e-05 -2.5934698268e-03 -1.4022154257e-03 
          -1.2846613112e-04 -2.9820786190e-03 -1.5374878662e-03 
          -1.8807607311e-04 -2.0522170578e-03 -1.1879168871e-03 
          -5.5275956207e-05 -2.3248429621e-03 -1.3418737614e-03 
          -7.7539100307e-05 -2.5944501643e-03 -1.3580397593e-03 
          -1.8487388243e-04 -2.6881446595e-03 -1.4594302546e-03 
          -1.1611556817e-04 -2.9532739412e-03 -1.5368144173e-03 
          -1.4728756845e-04 -3.1071018751e-03 -1.5639675916e-03 
          -1.9079259154e-04 -3.4632687039e-03 -1.6308909966e-03 
          -2.1171108640e-04 -3.5222425792e-03 -1.6307006505e-03 
          -2.1219902518e-04 -3.3897306441e-03 -1.6322673670e-03 
          -2.0335574688e-04 -1.9817557677e-03 -1.4079169585e-03 
          -2.5084247253e-04 -2.4019274211e-03 -1.6325711301e-03 
          -1.8057781891e-04 -1.9717065331e-03 -1.1995373008e-03 
          -2.5567842287e-04 -2.6282717958e-03 -1.6849618643e-03 
          -2.8425584954e-04 -2.9418887727e-03 -1.7973980755e-03 
          -3.7004959405e-04 -2.3518812028e-03 -1.4977303073e-03 
          -2.3507643279e-04 -2.3127707173e-03 -1.5301576305e-03 
          -1.5551975490e-04 -2.6090033671e-03 -1.5029866378e-03 
          -3.3967014321e-04 -2.8816531120e-03 -1.7256193127e-03 
          -2.8068360795e-04 -2.8745263206e-03 -1.7127417182e-03 
          -2.9565740560e-04 -3.1530197245e-03 -1.8243806930e-03 
          -2.0566005388e-04 -2.0390926504e-03 -1.3516825513e-03 
          -2.4115943201e-04 -2.4564137761e-03 -1.6545535346e-03 
          -2.6101607999e-04 -2.6622832007e-03 -1.6552937611e-03 
          -2.7575485814e-04 -3.0125888894e-03 -1.8053965846e-03 
          -2.7285230910e-04 -3.2740091862e-03 -1.8241339344e-03 
          -2.7315292375e-04 -3.5189049548e-03 -1.7622069182e-03 
          -2.5361407264e-04 -3.3860337599e-03 -1.7805403769e-03 
          -6.2107709438e-04 -3.0085362933e-03 -2.5873801021e-03 
          -5.6235817977e-04 -3.1393606550e-03 -2.1662078140e-03 
          -5.4810127082e-04 -3.0022272185e-03 -2.1685280303e-03 
          2.1648307483e-04 -3.1011576828e-03 -1.4139374267e-03 
          2.3153255453e-04 -3.1402483680e-03 -1.4683445630e-03 
          2.9854717451e-04 -3.1162234624e-03 -1.4707785149e-03 
          2.3146426393e-04 -3.1173763346e-03 -1.4260887765e-03 
          2.9853401881e-04 -3.0614233967e-03 -1.4281370633e-03 
          -5.6241988626e-04 -3.1720916526e-03 -2.1696952077e-03 
          -5.4816609155e-04 -3.0406490890e-03 -2.1718261975e-03 
          -3.8319890487e-04 -2.4140995019e-03 -2.4976201405e-03 
          -4.7024169076e-04 -2.5980452396e-03 -2.0412132623e-03 
          -4.5245254588e-04 -2.4475483974e-03 -2.0435344199e-03 
          7.4551338854e-05 -2.4969553148e-03 -1.1627841115e-03 
          5.4871082571e-05 -2.5325710859e-03 -1.2414345172e-03 
          8.1540589982e-05 -2.4888392561e-03 -1.2436954254e-03 
          5.4763246593e-05 -2.5373452026e-03 -1.2043376137e-03 
          8.1530022814e-05 -2.4804069563e-03 -1.2065397532e-03 
          -4.7014379500e-04 -2.5511603175e-03 -2.0463928095e-03 
          -4.5229452817e-04 -2.4044132999e-03 -2.0484837135e-03 
          -2.0006802302e-04 -1.7280826205e-03 -2.2193762582e-03 
          -2.1825558210e-04 -1.8967501748e-03 -1.7534717557e-03 
          -1.8304856904e-04 -1.7322303875e-03 -1.7558472181e-03 
          -4.1697250355e-06 -1.7845953447e-03 -7.4344869616e-04 
          1.0576127684e-05 -1.8494631532e-03 -8.6388245816e-04 
          4.3664720495e-05 -1.7890031113e-03 -8.6622150001e-04 
          1.0178780843e-05 -1.8337918282e-03 -8.4168531624e-04 
          4.3697491082e-05 -1.7570372348e-03 -8.4384193756e-04 
          -2.1811621997e-04 -1.8986389205e-03 -1.7299438917e-03 
          -1.8280661913e-04 -1.7462554601e-03 -1.7320363479e-03 
          -2.3516804544e-04 -3.2987095359e-03 -1.7100149836e-03 
          -3.8164980272e-04 -3.4572072979e-03 -1.7378697075e-03 
          -1.9977492863e-04 -3.6556364312e-03 -1.6753588822e-03 
          -1.9972975609e-04 -3.6318548684e-03 -1.7005591125e-03 
          -2.2899392728e-04 -3.6317830877e-03 -1.7229260345e-03 
          -2.2902286447e-04 -3.6556122051e-03 -1.7114386617e-03 
          -3.5326853590e-04 -1.8125747578e-04 -4.6238786105e-04 
          -4.4620949310e-04 -4.3091388479e-04 -7.6895399536e-04 
          5.9972508995e-04 -7.3532962207e-04 -7.4991655664e-04 
          -1.2343522165e-05 1.6788224377e-04 -3.7535538440e-04 
          -3.0116862768e-05 5.6238670420e-03 -2.0987984866e-04 
          -4.4438875009e-05 -8.4872880642e-05 -5.3039179396e-04 
          -2.7904774576e-04 -1.2650208221e-04 -4.3129264666e-04 
          -1.3602247921e-03 -3.6833873263e-04 -7.0487345980e-04 
          -2.2068194029e-04 -6.6776307380e-04 -7.7629995731e-04 
          2.8730345785e-05 1.4222852168e-03 -6.5559796114e-04 
          -5.5287912127e-06 3.9582406384e-03 -1.2265030541e-03 
          -4.8070383256e-05 1.5017084128e-03 -1.0056362270e-03 
          7.6622381788e-04 -1.0415155673e-03 -8.1946227099e-04 
          8.5213762964e-04 -1.3407246061e-03 -9.7387838156e-04 
          2.8745783385e-04 -1.6300410547e-03 -1.0876844105e-03 
          -5.2462716373e-05 -2.6486341443e-03 -9.5314049694e-04 
          -5.3159920583e-05 -2.4664515055e-03 -8.5106738335e-04 
          -4.9408844306e-05 -2.0098462261e-03 -1.0242523717e-03 
          -8.7650728777e-04 -9.8223696436e-04 -8.8079086520e-04 
          -1.0492603401e-03 -1.2979524150e-03 -9.6460697555e-04 
          -4.6652130246e-04 -1.6038842586e-03 -1.1240846655e-03 
          -9.0506884227e-05 7.7480483940e-05 -1.2078077558e-03 
          -1.2818921919e-04 -2.9557347012e-04 -1.2104289344e-03 
          -1.6224774946e-04 -1.4478789254e-03 -1.3107607759e-03 
        </DataArray>
        <DataArray type="Float64" Name="Reaction" NumberOfComponents="3" format="ascii">
          -7.0405994472e+03 7.4516653231e+03 9.1154115229e+04 
          6.3214956888e+01 2.5048746267e+01 3.2914893001e+00 
          -4.4990777813e+03 -3.8825828832e+03 6.0201545310e+04 
          5.9619485049e+02 1.2506581307e+02 -2.6158596617e+02 
          1.8045762736e+02 2.6329915793e+01 -1.0362692613e+02 
          -1.3932754516e+02 9.9107931652e+00 -1.4816729907e+00 
          4.2707058288e+01 -1.4573965565e+02 -1.2760891221e+00 
          -1.6087147855e+00 3.6830380732e+01 3.3758898950e-01 
          6.8240331813e+01 -1.6554047709e+02 1.0529663532e+00 
          -3.0672888665e+01 -3.1827259343e+02 2.0700150529e+00 
          4.7093007426e+03 -4.3732696245e+03 6.3453721845e+04 
          -3.5685324338e+02 1.5259360631e+02 -9.1050625745e+01 
          -8.8168653532e+01 -1.6551330871e+02 -7.7156619892e-01 
          7.9932722925e+01 -1.2145043027e+02 -7.5837294501e-02 
          -1.1882374741e+02 -1.4619561643e+02 2.9614950156e-01 
          1.2907575841e+02 2.0102883997e+02 4.4410674868e+00 
          5.8541939993e+03 6.4815783104e+03 8.8522256584e+04 
          -2.6584452776e+02 5.5685553730e+02 -2.5103849960e+02 
          2.5925100629e+02 3.6162430257e+01 -2.4370989098e+00 
          3.3193122203e+02 -1.4645509114e+02 -1.3754458277e+00 
          2.4702204937e+01 3.4491976776e+01 2.3476196055e-01 
          1.4583518885e+02 -2.9732600219e+02 3.2495001733e+00 
          1.2436261027e+02 -1.4543688917e+02 -1.2192757324e+00 
          1.0060740597e+02 1.2066011446e+02 -5.3995227976e-01 
          -8.1808709597e+02 1.4198330824e+03 -1.9300682455e+01 
          -6.3351473920e+01 -7.3294009745e+02 2.7358241762e+02 
          -8.0155576923e+02 -3.3953070325e+02 4.0701361999e+01 
          -1.1144128030e+02 -9.6892580271e+01 1.7175874322e+02 
          3.4488986614e+00 2.3528416361e+02 -4.0055172008e+01 
          4.5627085338e+02 -1.0180462853e+03 -2.8893515554e+01 
          8.8053905158e+02 1.3526008172e+03 3.6447166820e+00 
          7.1399703624e+01 -1.5417949048e+01 1.3032522397e+02 
          -7.8911465544e+02 -5.6027238722e+02 -2.8205683755e+01 
          5.9391186709e+02 -1.0823418948e+03 3.1189470310e+02 
          9.7127643392e+02 -1.8845477037e+02 -5.8132092738e+00 
          -2.0761414369e+02 1.3028156257e+02 -3.4681723923e+01 
          -9.6784672823e+02 5.1642938071e+02 4.3828578872e+01 
          -1.9625196641e+02 -8.5044002894e+02 2.8239408610e+01 
          8.1240799694e+02 -6.7216588274e+02 1.0260971356e+01 
          3.4176177003e+02 5.8787231897e+02 3.5792109143e+01 
          -3.0072628395e+02 7.7275567436e+01 2.9203819255e+00 
          -1.1775889869e+02 -2.9689446632e+02 3.3364352358e+00 
          8.4963244543e+02 2.6025056454e+02 3.0193967953e+01 
          -9.8204702695e+02 -2.7034739889e+02 2.2842599038e+01 
          8.7728986606e+01 2.7549555966e+01 4.5591969029e+00 
          6.1359592477e+01 -4.9718192687e+02 1.9882893894e+01 
          -3.4299294143e+02 5.9368352171e+01 4.5629215173e+01 
          7.0609664300e+01 -2.4327139797e+02 3.0522731145e+00 
          -4.6396271653e+01 -4.5497313458e+01 -6.3476479201e-02 
          3.3973072286e+01 -2.3158223210e+01 -1.1463436332e-02 
          7.7211741558e+01 -4.1565290910e+01 1.7175891303e-01 
          2.4740287816e+01 -1.0401573223e+02 -5.8440929913e-01 
          6.7854605059e+01 1.4046978624e+01 -1.1149042308e-01 
          -5.6152938221e+01 -2.8317265372e+01 -2.6265153600e-01 
          8.5586890373e+00 -5.4196684256e+01 4.7883658581e-01 
          6.6507333553e+01 -5.3085978038e+01 -4.3565564003e-02 
          9.3251670124e+01 -6.9096324163e+01 -3.3610166920e-02 
          -1.6363163372e+02 -9.2000932842e+01 -5.0747206074e-01 
          6.9904178658e+01 -7.3776296223e+01 2.6247318332e-01 
          2.4321096082e+02 9.6591954758e+00 5.2893709421e-01 
          -1.3062157807e+02 -1.8068688817e+02 -8.6461740765e-01 
          -4.1545869896e+01 4.1284525343e+01 8.3543845056e-01 
          -1.0178760326e+02 -9.2707918698e+01 1.2538052662e+00 
          -6.4347715611e+01 -2.1163181998e+01 -2.9000004801e-01 
          2.1331944912e+02 -4.7463425396e+00 -2.8327427198e-01 
          3.1578158107e+02 -5.2468340525e+01 -2.4196729445e+00 
          3.7205462103e+01 -5.3259786666e+01 9.6429362251e-03 
          1.8756794989e+02 -1.2626820131e+02 -1.4445012191e-01 
          2.7296185390e+01 -2.9652515864e+02 2.8404421266e-01 
          5.3326858777e+01 -6.7240656306e+01 2.2721311433e-04 
          -2.2453008462e+02 4.9047873129e+01 -9.7358692614e-01 
          -5.3864717213e+01 -1.2323678534e+02 3.5513736890e-01 
          2.2983562385e+01 -2.1353416626e+01 -1.2420554276e-01 
          7.8275211000e+01 1.1555052119e+02 -8.2047867946e-01 
          -3.7868532181e+01 -4.1703896403e+01 2.0532238473e-03 
          -5.0110457153e+01 -3.9284482960e+01 -3.4144081832e-01 
          -7.4406914743e+01 1.1062938181e+02 -8.5011578674e-01 
          2.0169196815e+01 -1.8858490740e+02 -3.9165235673e+00 
          -2.2571301663e+01 7.6380055109e+01 4.6142476545e+00 
          5.6739053511e+01 1.1302295395e+02 6.3399302862e+00 
          -3.4375519189e+01 -6.2155147691e+01 1.6892145329e-02 
          -5.9420960719e+01 -1.5956935196e+02 -9.8797537131e-02 
          -4.3363917792e+01 -8.9752361589e+01 -7.7653715490e-03 
          -3.6809838989e-02 -5.1343673192e+01 4.8461714048e-01 
          1.0093477325e+02 1.7363431149e+02 -2.7691693049e-01 
          -1.3765866990e+02 -1.0159049905e+01 -9.3227174604e-01 
          -7.2801672474e+00 -4.2385276205e+01 3.1052600162e-01 
          1.9709301187e+01 -8.9189331432e+01 1.8749539534e-01 
          7.1004161479e+01 -5.0101486780e+01 -1.4651568890e-01 
          -7.9434611608e+01 1.5316672868e+01 -3.0383843038e-01 
          -8.6328479784e+01 1.2409493176e+02 -2.0773156361e-02 
          -5.1112724812e+01 -2.0249005554e+02 -1.2280320018e-01 
          -2.5636391895e+01 -1.0227985692e+02 2.0586243168e-01 
          -6.7857369857e+00 7.2545988511e+01 -6.2677439364e-01 
          1.3114854360e+01 -4.5936596909e+01 -2.3424200101e-01 
          -5.1339976167e+01 2.7419731692e+02 -4.9055287739e+00 
          -2.4611217983e+02 1.0818452381e+02 1.5105535217e+01 
          3.3844322993e+02 8.4961025276e+01 6.5377229483e+00 
          -1.1926289992e+02 1.2490863018e+02 -2.7676980244e-01 
          -9.5041213213e+01 4.1292323265e+01 1.4495990831e-01 
          -3.7649761351e+01 8.9633180320e+01 -1.2953175539e-01 
          1.0065925575e+02 -1.8325920479e+01 -6.6480584621e-02 
          5.0590182386e+01 -3.2498102380e+01 9.2849560650e-01 
          1.5494859124e+02 -5.0416683616e+01 -7.1112413476e-01 
          5.5687573558e+01 8.8541347532e-01 9.6049901172e-01 
          1.5436043979e+02 3.3046466084e+01 -7.6830507850e-01 
          -9.2699696877e+01 2.3672220754e+01 9.8800414151e-02 
          -4.6094771402e+01 3.2220624438e+01 -1.3091487453e-01 
          8.2530773990e+01 -7.3619478616e+01 -1.4348530475e-01 
          -9.9801865993e+01 -9.4118185417e+01 -5.6613584114e-02 
          -2.7245082611e+01 -6.0642467292e+01 -2.6823780060e-02 
          -5.9104745898e+01 -2.1829490074e+01 -1.5043763376e-01 
          2.7485914902e+01 -6.3443558825e+01 1.2302758593e-01 
          1.4283545801e+01 -3.5073827104e+01 -4.3230895607e-02 
          4.0016403525e+01 -3.4200396252e+01 1.9391507842e-01 
          1.7906521323e+01 -7.3360431217e+00 -1.1444701237e-01 
          -9.3108035301e+01 -7.0742710424e+01 -1.5482897432e-01 
          -2.8481988564e+01 -5.0056176853e+01 -1.3941532433e-02 
          1.4931816708e+02 -1.5692211276e+02 -2.2434944531e-02 
          -1.4617983008e+01 -1.0391683952e+02 4.1779216736e-02 
          1.5869008297e+01 -1.0973397334e+02 -3.0714526112e-02 
          6.6918712803e+01 1.1077652990e+02 -1.2531094440e-01 
          -4.4965881209e+00 -7.7510745297e+00 3.1854418895e-01 
          4.5858264487e+01 5.4698691168e+01 -2.6286721985e-01 
          -9.4503432101e+00 4.0250409033e+00 3.8704355711e-01 
          5.0088136396e+01 7.1144847560e+01 -3.0579320881e-01 
          -1.2874481760e+01 -8.3252847812e+01 3.9173090810e-02 
          2.8095714588e+01 -9.2837018219e+01 -2.9963156817e-02 
          -8.1367771300e+01 2.0093018588e+01 -6.0336775958e+00 
          -3.9314344806e+02 6.3391793140e+01 -1.1061965442e+01 
          7.9867469792e+01 3.3556486466e+01 7.5026840802e-01 
          6.1000721971e+01 7.4771313313e+01 -8.3157163386e-01 
          9.3647985082e+00 6.5606770397e+01 -2.8480909806e-02 
          2.1704552717e+01 1.4602942131e+01 1.5544413388e+00 
          -4.6482743635e+01 8.1734094395e+01 -6.3728958511e+00 
          -5.7591088566e+01 -3.0140554731e+01 -6.1047551780e+00 
          1.1826222078e+02 -9.1299921735e+01 6.3833473069e-01 
          2.6330505416e+01 -6.0489429197e+01 -2.5547334552e+01 
          -2.4562759713e+01 1.4225124447e+03 -6.7142146975e+01 
          -1.4599664280e+01 1.7545266709e+02 -2.3849779817e+00 
          -3.8837400890e+01 3.2347830786e+01 -7.7778742348e-01 
          -3.5715678429e+02 -3.5666722204e+01 7.0493152848e-01 
          8.1865564192e+01 -4.3903782832e+01 -4.6183478484e+00 
          8.1445371652e-01 1.7060081893e+02 -1.3076200757e+02 
          1.5494850971e+01 8.2057977575e+02 1.5719654929e-01 
          -5.9087800193e+00 3.8848175787e+02 -8.8229899408e-01 
          4.2928119399e+01 -4.2904179578e+01 -7.9128700741e+00 
          2.2246497464e+02 -1.8640726531e+01 4.8168731457e+00 
          1.2234628640e+02 -9.6950835546e+00 -1.6255799862e+00 
          -2.5600496689e+01 -4.8519272226e+02 -2.9363210344e+01 
          -1.8539658884e+01 -3.1237361634e+02 7.5327435529e-01 
          -1.5748836408e+01 -1.0262812290e+02 -1.2319640385e+00 
          -5.3885087946e+01 -6.1578135754e+01 -1.1321289853e+01 
          -2.4265820515e+02 -4.1679188939e+01 6.2318777484e+00 
          -8.7520801605e+01 -4.0028085513e+01 -2.5710979530e+00 
          -3.3453777927e+01 1.5997855951e+02 -2.8989458646e+01 
          -5.3372554131e+00 3.2630787710e+02 2.0195795615e+00 
          -6.0017345446e+00 -5.4585184774e+01 -1.1321724254e+00 
        </DataArray>
        <DataArray type="Float64" Name="UnbalancedLoad" NumberOfComponents="3" format="ascii">
          0.0000000000e+00 0.0000000000e+00 -5.6339385155e+03 
          0.0000000000e+00 0.0000000000e+00 -5.7731003816e+03 
          0.0000000000e+00 0.0000000000e+00 -5.6337191182e+03 
          0.0000000000e+00 0.0000000000e+00 -9.0965951406e+03 
          0.0000000000e+00 0.0000000000e+00 -9.0964565528e+03 
          0.0000000000e+00 0.0000000000e+00 -6.1550936666e+03 
          0.0000000000e+00 0.0000000000e+00 -6.1559232190e+03 
          0.0000000000e+00 0.0000000000e+00 -4.6054409622e+03 
          0.0000000000e+00 0.0000000000e+00 -4.6061319317e+03 
          0.0000000000e+00 0.0000000000e+00 -5.7728809794e+03 
          0.0000000000e+00 0.0000000000e+00 -5.6339385155e+03 
          0.0000000000e+00 0.0000000000e+00 -9.0965951406e+03 
          0.0000000000e+00 0.0000000000e+00 -6.1559232190e+03 
          0.0000000000e+00 0.0000000000e+00 -6.1559232190e+03 
          0.0000000000e+00 0.0000000000e+00 -4.6061319317e+03 
          0.0000000000e+00 0.0000000000e+00 -5.7728809794e+03 
          0.0000000000e+00 0.0000000000e+00 -5.6339385155e+03 
          0.0000000000e+00 0.0000000000e+00 -9.0965951406e+03 
          0.0000000000e+00 0.0000000000e+00 -6.1559232190e+03 
          0.0000000000e+00 0.0000000000e+00 -6.1559232190e+03 
          0.0000000000e+00 0.0000000000e+00 -4.6061319317e+03 
          0.0000000000e+00 0.0000000000e+00 -5.7728809794e+03 
          0.0000000000e+00 0.0000000000e+00 -6.1559232190e+03 
          0.0000000000e+00 0.0000000000e+00 -6.1559232190e+03 
          0.0000000000e+00 0.0000000000e+00 -3.0687056590e+03 
          0.0000000000e+00 0.0000000000e+00 -3.0687056590e+03 
          0.0000000000e+00 0.0000000000e+00 -2.7716983776e+03 
          0.0000000000e+00 0.0000000000e+00 -2.7716983776e+03 
          0.0000000000e+00 0.0000000000e+00 -2.2816449303e+03 
          0.0000000000e+00 0.0000000000e+00 -2.2816449303e+03 
          0.0000000000e+00 0.0000000000e+00 -3.0687056590e+03 
          0.0000000000e+00 0.0000000000e+00 -2.7716983776e+03 
          0.0000000000e+00 0.0000000000e+00 -2.2816449303e+03 
          0.0000000000e+00 0.0000000000e+00 -3.0687056590e+03 
          0.0000000000e+00 0.0000000000e+00 -2.7716983776e+03 
          0.0000000000e+00 0.0000000000e+00 -2.2816449303e+03 
          0.0000000000e+00 0.0000000000e+00 -1.8372812814e+03 
          0.0000000000e+00 0.0000000000e+00 -1.8372812814e+03 
          0.0000000000e+00 0.0000000000e+00 -1.6623066743e+03 
          0.0000000000e+00 0.0000000000e+00 -1.6623066743e+03 
          0.0000000000e+00 0.0000000000e+00 -2.2651953559e+03 
          0.0000000000e+00 0.0000000000e+00 -2.2651953559e+03 
          0.0000000000e+00 0.0000000000e+00 -1.8372812814e+03 
          0.0000000000e+00 0.0000000000e+00 -1.6623066743e+03 
          0.0000000000e+00 0.0000000000e+00 -2.2651953559e+03 
          0.0000000000e+00 0.0000000000e+00 -1.8372812814e+03 
          0.0000000000e+00 0.0000000000e+00 -1.6623066743e+03 
          0.0000000000e+00 0.0000000000e+00 -2.2651953559e+03 
          0.0000000000e+00 0.0000000000e+00 -1.0448600265e+03 
          0.0000000000e+00 0.0000000000e+00 -1.0448600265e+03 
          0.0000000000e+00 0.0000000000e+00 -1.3063955783e+03 
          0.0000000000e+00 0.0000000000e+00 -1.0720249793e+03 
          0.0000000000e+00 0.0000000000e+00 -1.0720249793e+03 
          0.0000000000e+00 0.0000000000e+00 -5.9594761238e+02 
          0.0000000000e+00 0.0000000000e+00 -8.0346647173e+02 
          0.0000000000e+00 0.0000000000e+00 -8.0346647173e+02 
          0.0000000000e+00 0.0000000000e+00 -2.1350656789e+03 
          0.0000000000e+00 0.0000000000e+00 -2.1350656789e+03 
          0.0000000000e+00 0.0000000000e+00 -1.0650020235e+03 
          0.0000000000e+00 0.0000000000e+00 -1.9561088881e+03 
          0.0000000000e+00 0.0000000000e+00 -1.9561088881e+03 
          0.0000000000e+00 0.0000000000e+00 -1.0720249793e+03 
          0.0000000000e+00 0.0000000000e+00 -1.0720249793e+03 
          0.0000000000e+00 0.0000000000e+00 -5.9594761238e+02 
          0.0000000000e+00 0.0000000000e+00 -2.0426629766e+03 
          0.0000000000e+00 0.0000000000e+00 -2.0426629766e+03 
          0.0000000000e+00 0.0000000000e+00 -1.0448600265e+03 
          0.0000000000e+00 0.0000000000e+00 -1.9561088881e+03 
          0.0000000000e+00 0.0000000000e+00 -1.3063955783e+03 
          0.0000000000e+00 0.0000000000e+00 -8.0346647173e+02 
          0.0000000000e+00 0.0000000000e+00 -2.1350656789e+03 
          0.0000000000e+00 0.0000000000e+00 -1.0720249793e+03 
          0.0000000000e+00 0.0000000000e+00 -5.9594761238e+02 
          0.0000000000e+00 0.0000000000e+00 -1.0650020235e+03 
          0.0000000000e+00 0.0000000000e+00 -1.0720249793e+03 
          0.0000000000e+00 0.0000000000e+00 -5.9594761238e+02 
          0.0000000000e+00 0.0000000000e+00 -2.0426629766e+03 
          0.0000000000e+00 0.0000000000e+00 -5.6694774052e+02 
          0.0000000000e+00 0.0000000000e+00 -6.8509843011e+02 
          0.0000000000e+00 0.0000000000e+00 -6.8509843011e+02 
          0.0000000000e+00 0.0000000000e+00 -1.0448600265e+03 
          0.0000000000e+00 0.0000000000e+00 -1.9561088881e+03 
          0.0000000000e+00 0.0000000000e+00 -1.3063955783e+03 
          0.0000000000e+00 0.0000000000e+00 -8.0346647173e+02 
          0.0000000000e+00 0.0000000000e+00 -2.1350656789e+03 
          0.0000000000e+00 0.0000000000e+00 -1.0720249793e+03 
          0.0000000000e+00 0.0000000000e+00 -5.9594761238e+02 
          0.0000000000e+00 0.0000000000e+00 -1.0650020235e+03 
          0.0000000000e+00 0.0000000000e+00 -1.0720249793e+03 
          0.0000000000e+00 0.0000000000e+00 -5.9594761238e+02 
          0.0000000000e+00 0.0000000000e+00 -2.0426629766e+03 
          0.0000000000e+00 0.0000000000e+00 -1.3063955783e+03 
          0.0000000000e+00 0.0000000000e+00 -5.9594761238e+02 
          0.0000000000e+00 0.0000000000e+00 -1.0650020235e+03 
          0.0000000000e+00 0.0000000000e+00 -5.9594761238e+02 
          0.0000000000e+00 0.0000000000e+00 -5.6694774052e+02 
          0.0000000000e+00 0.0000000000e+00 -6.8509843011e+02 
          0.0000000000e+00 0.0000000000e+00 -6.8509843011e+02 
          0.0000000000e+00 0.0000000000e+00 -8.8580203035e+02 
          0.0000000000e+00 0.0000000000e+00 -8.8580854278e+02 
          0.0000000000e+00 0.0000000000e+00 -6.2876725517e+02 
          0.0000000000e+00 0.0000000000e+00 -8.8580203035e+02 
          0.0000000000e+00 0.0000000000e+00 -8.8580854278e+02 
          0.0000000000e+00 0.0000000000e+00 -6.2876725517e+02 
          0.0000000000e+00 0.0000000000e+00 -8.8580854278e+02 
          0.0000000000e+00 0.0000000000e+00 -6.2876725517e+02 
          0.0000000000e+00 0.0000000000e+00 -8.8580854278e+02 
          0.0000000000e+00 0.0000000000e+00 -6.2876725517e+02 
          0.0000000000e+00 0.0000000000e+00 -8.8580203035e+02 
          0.0000000000e+00 0.0000000000e+00 -8.8580854278e+02 
          0.0000000000e+00 0.0000000000e+00 -6.2876725517e+02 
          0.0000000000e+00 0.0000000000e+00 -8.8580203035e+02 
          0.0000000000e+00 0.0000000000e+00 -8.8580854278e+02 
          0.0000000000e+00 0.0000000000e+00 -6.2876725517e+02 
          0.0000000000e+00 0.0000000000e+00 -8.8580854278e+02 
          0.0000000000e+00 0.0000000000e+00 -6.2876725517e+02 
          0.0000000000e+00 0.0000000000e+00 -8.8580854278e+02 
          0.0000000000e+00 0.0000000000e+00 -6.2876725517e+02 
          0.0000000000e+00 0.0000000000e+00 -8.8580203035e+02 
          0.0000000000e+00 0.0000000000e+00 -8.8580854278e+02 
          0.0000000000e+00 0.0000000000e+00 -6.2876725517e+02 
          0.0000000000e+00 0.0000000000e+00 -8.8580203035e+02 
          0.0000000000e+00 0.0000000000e+00 -8.8580854278e+02 
          0.0000000000e+00 0.0000000000e+00 -6.2876725517e+02 
          0.0000000000e+00 0.0000000000e+00 -8.8580854278e+02 
          0.0000000000e+00 0.0000000000e+00 -6.2876725517e+02 
          0.0000000000e+00 0.0000000000e+00 -8.8580854278e+02 
          0.0000000000e+00 0.0000000000e+00 -6.2876725517e+02 
          0.0000000000e+00 0.0000000000e+00 -5.6829847276e+02 
          0.0000000000e+00 0.0000000000e+00 -5.6829847276e+02 
          0.0000000000e+00 0.0000000000e+00 -1.5535123961e+02 
          0.0000000000e+00 0.0000000000e+00 -1.5535123961e+02 
          0.0000000000e+00 0.0000000000e+00 -1.5535123961e+02 
          0.0000000000e+00 0.0000000000e+00 -1.5535123961e+02 
          0.0000000000e+00 0.0000000000e+00 -7.5590250104e+02 
          0.0000000000e+00 0.0000000000e+00 -6.8279828275e+02 
          0.0000000000e+00 0.0000000000e+00 -6.1557417058e+02 
          0.0000000000e+00 0.0000000000e+00 -7.5590250104e+02 
          0.0000000000e+00 0.0000000000e+00 -6.8279828275e+02 
          0.0000000000e+00 0.0000000000e+00 -6.1557417058e+02 
          0.0000000000e+00 0.0000000000e+00 -7.5590250104e+02 
          0.0000000000e+00 0.0000000000e+00 -6.8279828275e+02 
          0.0000000000e+00 0.0000000000e+00 -6.1557417058e+02 
          0.0000000000e+00 0.0000000000e+00 -7.5590250104e+02 
          0.0000000000e+00 0.0000000000e+00 -6.8279828275e+02 
          0.0000000000e+00 0.0000000000e+00 -6.1557417058e+02 
          0.0000000000e+00 0.0000000000e+00 -5.5506914887e+02 
          0.0000000000e+00 0.0000000000e+00 -4.9957147216e+02 
          0.0000000000e+00 0.0000000000e+00 -4.5283835991e+02 
          0.0000000000e+00 0.0000000000e+00 -5.5506914887e+02 
          0.0000000000e+00 0.0000000000e+00 -4.9957147216e+02 
          0.0000000000e+00 0.0000000000e+00 -4.5283835991e+02 
          0.0000000000e+00 0.0000000000e+00 -5.5506914887e+02 
          0.0000000000e+00 0.0000000000e+00 -4.9957147216e+02 
          0.0000000000e+00 0.0000000000e+00 -4.5283835991e+02 
          0.0000000000e+00 0.0000000000e+00 -5.5506914887e+02 
          0.0000000000e+00 0.0000000000e+00 -4.9957147216e+02 
          0.0000000000e+00 0.0000000000e+00 -4.5283835991e+02 
        </DataArray>
      </PointData>
      <CellData>
        <DataArray type="Int64" Name="ElementTag" format="ascii">
          0
        </DataArray>
      </CellData>
    </Piece>
  </UnstructuredGrid>
</VTKFile>
