<?xml version="1.0"?>
<VTKFile type="UnstructuredGrid" version="1.0" byte_order="LittleEndian" compressor="vtkZLibDataCompressor">
  <UnstructuredGrid>
    <Piece NumberOfPoints="158" NumberOfCells="1">
      <Points>
        <DataArray type="Float64" Name="Points" NumberOfComponents="3" format="ascii">
          1.7550000000e+00 -1.7550000000e+00 0.0000000000e+00 
          1.4140000000e+00 0.0000000000e+00 5.2300000000e+00 
          1.7550000000e+00 1.7550000000e+00 -0.0000000000e+00 
          1.4140000000e+00 -1.4140000000e+00 5.2300000000e+00 
          1.4140000000e+00 1.4140000000e+00 5.2300000000e+00 
          1.5840000000e+00 8.7800000000e-01 2.6150000000e+00 
          1.5840000000e+00 -8.7700000000e-01 2.6150000000e+00 
          1.5840000000e+00 1.5840000000e+00 2.6150000000e+00 
          1.5840000000e+00 -1.5840000000e+00 2.6150000000e+00 
          -0.0000000000e+00 1.4140000000e+00 5.2300000000e+00 
          -1.7550000000e+00 1.7550000000e+00 -0.0000000000e+00 
          -1.4140000000e+00 1.4140000000e+00 5.2300000000e+00 
          -8.7700000000e-01 1.5840000000e+00 2.6150000000e+00 
          8.7700000000e-01 1.5840000000e+00 2.6150000000e+00 
          -1.5840000000e+00 1.5840000000e+00 2.6150000000e+00 
          -1.4140000000e+00 -0.0000000000e+00 5.2300000000e+00 
          -1.7550000000e+00 -1.7550000000e+00 -0.0000000000e+00 
          -1.4140000000e+00 -1.4140000000e+00 5.2300000000e+00 
          -1.5840000000e+00 -8.7700000000e-01 2.6150000000e+00 
          -1.5840000000e+00 8.7700000000e-01 2.6150000000e+00 
          -1.5840000000e+00 -1.5840000000e+00 2.6150000000e+00 
          0.0000000000e+00 -1.4140000000e+00 5.2300000000e+00 
          8.7700000000e-01 -1.5840000000e+00 2.6150000000e+00 
          -8.7700000000e-01 -1.5840000000e+00 2.6150000000e+00 
          1.2750000000e+00 1.2750000000e+00 7.3500000000e+00 
          1.2750000000e+00 -1.2750000000e+00 7.3500000000e+00 
          1.1500000000e+00 -1.1500000000e+00 9.2700000000e+00 
          1.1500000000e+00 1.1500000000e+00 9.2700000000e+00 
          1.0370000000e+00 -1.0370000000e+00 1.1000000000e+01 
          1.0370000000e+00 1.0370000000e+00 1.1000000000e+01 
          -1.2750000000e+00 1.2750000000e+00 7.3500000000e+00 
          -1.1500000000e+00 1.1500000000e+00 9.2700000000e+00 
          -1.0370000000e+00 1.0370000000e+00 1.1000000000e+01 
          -1.2750000000e+00 -1.2750000000e+00 7.3500000000e+00 
          -1.1500000000e+00 -1.1500000000e+00 9.2700000000e+00 
          -1.0370000000e+00 -1.0370000000e+00 1.1000000000e+01 
          9.3500000000e-01 9.3500000000e-01 1.2560000000e+01 
          9.3500000000e-01 -9.3500000000e-01 1.2560000000e+01 
          8.4300000000e-01 8.4300000000e-01 1.3960000000e+01 
          8.4300000000e-01 -8.4300000000e-01 1.3960000000e+01 
          7.6000000000e-01 7.6000000000e-01 1.5240000000e+01 
          7.6000000000e-01 -7.6000000000e-01 1.5240000000e+01 
          -9.3500000000e-01 9.3500000000e-01 1.2560000000e+01 
          -8.4300000000e-01 8.4300000000e-01 1.3960000000e+01 
          -7.6000000000e-01 7.6000000000e-01 1.5240000000e+01 
          -9.3500000000e-01 -9.3500000000e-01 1.2560000000e+01 
          -8.4300000000e-01 -8.4300000000e-01 1.3960000000e+01 
          -7.6000000000e-01 -7.6000000000e-01 1.5240000000e+01 
          7.6000000000e-01 -7.6000000000e-01 1.6240000000e+01 
          7.6000000000e-01 7.6000000000e-01 1.6240000000e+01 
          7.6000000000e-01 0.0000000000e+00 1.6240000000e+01 
          7.6000000000e-01 7.6000000000e-01 1.7340000000e+01 
          7.6000000000e-01 -7.6000000000e-01 1.7340000000e+01 
          7.6000000000e-01 0.0000000000e+00 1.7890000000e+01 
          7.6000000000e-01 -7.6000000000e-01 1.9440000000e+01 
          7.6000000000e-01 7.6000000000e-01 1.9440000000e+01 
          7.6000000000e-01 -7.6000000000e-01 2.1640000000e+01 
          7.6000000000e-01 7.6000000000e-01 2.1640000000e+01 
          7.6000000000e-01 0.0000000000e+00 1.9440000000e+01 
          7.6000000000e-01 7.6000000000e-01 1.8440000000e+01 
          7.6000000000e-01 -7.6000000000e-01 1.8440000000e+01 
          7.6000000000e-01 -7.6000000000e-01 2.0540000000e+01 
          7.6000000000e-01 7.6000000000e-01 2.0540000000e+01 
          7.6000000000e-01 0.0000000000e+00 2.1090000000e+01 
          7.6000000000e-01 7.6000000000e-01 2.2640000000e+01 
          7.6000000000e-01 -7.6000000000e-01 2.2640000000e+01 
          -7.6000000000e-01 7.6000000000e-01 1.6240000000e+01 
          -7.6000000000e-01 7.6000000000e-01 1.8440000000e+01 
          -0.0000000000e+00 7.6000000000e-01 1.6240000000e+01 
          -7.6000000000e-01 7.6000000000e-01 1.9440000000e+01 
          -7.6000000000e-01 7.6000000000e-01 2.1640000000e+01 
          -7.6000000000e-01 7.6000000000e-01 1.7340000000e+01 
          -0.0000000000e+00 7.6000000000e-01 1.7890000000e+01 
          -0.0000000000e+00 7.6000000000e-01 1.9440000000e+01 
          -7.6000000000e-01 7.6000000000e-01 2.0540000000e+01 
          0.0000000000e+00 7.6000000000e-01 2.1090000000e+01 
          -7.6000000000e-01 7.6000000000e-01 2.2640000000e+01 
          -0.0000000000e+00 5.2600000000e-01 2.3499000000e+01 
          3.9900000000e-01 4.0400000000e-01 2.3950000000e+01 
          -3.9900000000e-01 4.0400000000e-01 2.3950000000e+01 
          -7.6000000000e-01 -7.6000000000e-01 1.6240000000e+01 
          -7.6000000000e-01 -7.6000000000e-01 1.8440000000e+01 
          -7.6000000000e-01 -0.0000000000e+00 1.6240000000e+01 
          -7.6000000000e-01 -7.6000000000e-01 1.9440000000e+01 
          -7.6000000000e-01 -7.6000000000e-01 2.1640000000e+01 
          -7.6000000000e-01 -7.6000000000e-01 1.7340000000e+01 
          -7.6000000000e-01 0.0000000000e+00 1.7890000000e+01 
          -7.6000000000e-01 -0.0000000000e+00 1.9440000000e+01 
          -7.6000000000e-01 -7.6000000000e-01 2.0540000000e+01 
          -7.6000000000e-01 -0.0000000000e+00 2.1090000000e+01 
          -7.6000000000e-01 -7.6000000000e-01 2.2640000000e+01 
          0.0000000000e+00 -7.6000000000e-01 1.6240000000e+01 
          0.0000000000e+00 -7.6000000000e-01 1.7890000000e+01 
          0.0000000000e+00 -7.6000000000e-01 1.9440000000e+01 
          0.0000000000e+00 -7.6000000000e-01 2.1090000000e+01 
          0.0000000000e+00 -5.2600000000e-01 2.3499000000e+01 
          3.9900000000e-01 -4.0400000000e-01 2.3950000000e+01 
          -3.9900000000e-01 -4.0400000000e-01 2.3950000000e+01 
          -0.0000000000e+00 -3.3500000000e+00 2.1640000000e+01 
          -3.8000000000e-01 -2.0550000000e+00 2.2140000000e+01 
          -3.8000000000e-01 -2.0550000000e+00 2.1640000000e+01 
          0.0000000000e+00 3.3500000000e+00 2.1640000000e+01 
          -3.8000000000e-01 2.0550000000e+00 2.2140000000e+01 
          -3.8000000000e-01 2.0550000000e+00 2.1640000000e+01 
          3.8000000000e-01 2.0550000000e+00 2.2140000000e+01 
          3.8000000000e-01 2.0550000000e+00 2.1640000000e+01 
          3.8000000000e-01 -2.0550000000e+00 2.2140000000e+01 
          3.8000000000e-01 -2.0550000000e+00 2.1640000000e+01 
          -0.0000000000e+00 -3.3500000000e+00 1.8440000000e+01 
          -3.8000000000e-01 -2.0550000000e+00 1.8940000000e+01 
          -3.8000000000e-01 -2.0550000000e+00 1.8440000000e+01 
          -0.0000000000e+00 3.3500000000e+00 1.8440000000e+01 
          -3.8000000000e-01 2.0550000000e+00 1.8940000000e+01 
          -3.8000000000e-01 2.0550000000e+00 1.8440000000e+01 
          3.8000000000e-01 2.0550000000e+00 1.8940000000e+01 
          3.8000000000e-01 2.0550000000e+00 1.8440000000e+01 
          3.8000000000e-01 -2.0550000000e+00 1.8940000000e+01 
          3.8000000000e-01 -2.0550000000e+00 1.8440000000e+01 
          -0.0000000000e+00 -3.3500000000e+00 1.5240000000e+01 
          -3.8000000000e-01 -2.0550000000e+00 1.5740000000e+01 
          -3.8000000000e-01 -2.0550000000e+00 1.5240000000e+01 
          -0.0000000000e+00 3.3500000000e+00 1.5240000000e+01 
          -3.8000000000e-01 2.0550000000e+00 1.5740000000e+01 
          -3.8000000000e-01 2.0550000000e+00 1.5240000000e+01 
          3.8000000000e-01 2.0550000000e+00 1.5740000000e+01 
          3.8000000000e-01 2.0550000000e+00 1.5240000000e+01 
          3.8000000000e-01 -2.0550000000e+00 1.5740000000e+01 
          3.8000000000e-01 -2.0550000000e+00 1.5240000000e+01 
          -5.2400000000e-01 0.0000000000e+00 2.3496000000e+01 
          5.2400000000e-01 0.0000000000e+00 2.3496000000e+01 
          4.0000000000e-02 5.0000000000e-02 2.5250000000e+01 
          -4.0000000000e-02 5.0000000000e-02 2.5250000000e+01 
          -4.0000000000e-02 -5.0000000000e-02 2.5250000000e+01 
          4.0000000000e-02 -5.0000000000e-02 2.5250000000e+01 
          1.3410000000e+00 0.0000000000e+00 6.3450000000e+00 
          1.2090000000e+00 0.0000000000e+00 8.3600000000e+00 
          1.0900000000e+00 -0.0000000000e+00 1.0180000000e+01 
          -0.0000000000e+00 1.3410000000e+00 6.3450000000e+00 
          0.0000000000e+00 1.2090000000e+00 8.3600000000e+00 
          -0.0000000000e+00 1.0900000000e+00 1.0180000000e+01 
          -1.3410000000e+00 0.0000000000e+00 6.3450000000e+00 
          -1.2090000000e+00 0.0000000000e+00 8.3600000000e+00 
          -1.0900000000e+00 -0.0000000000e+00 1.0180000000e+01 
          -0.0000000000e+00 -1.3410000000e+00 6.3450000000e+00 
          0.0000000000e+00 -1.2090000000e+00 8.3600000000e+00 
          0.0000000000e+00 -1.0900000000e+00 1.0180000000e+01 
          9.8300000000e-01 0.0000000000e+00 1.1820000000e+01 
          8.8700000000e-01 0.0000000000e+00 1.3296000000e+01 
          8.0000000000e-01 -0.0000000000e+00 1.4633000000e+01 
          0.0000000000e+00 9.8300000000e-01 1.1820000000e+01 
          -0.0000000000e+00 8.8700000000e-01 1.3296000000e+01 
          0.0000000000e+00 8.0000000000e-01 1.4633000000e+01 
          -9.8300000000e-01 0.0000000000e+00 1.1820000000e+01 
          -8.8700000000e-01 0.0000000000e+00 1.3296000000e+01 
          -8.0000000000e-01 0.0000000000e+00 1.4633000000e+01 
          0.0000000000e+00 -9.8300000000e-01 1.1820000000e+01 
          0.0000000000e+00 -8.8700000000e-01 1.3296000000e+01 
          0.0000000000e+00 -8.0000000000e-01 1.4633000000e+01 
        </DataArray>
      </Points>
      <Cells>
        <DataArray type="Int64" Name="connectivity" format="ascii">
          0
          1
          2
          3
          4
          5
          6
          7
          8
          9
          10
          11
          12
          13
          14
          15
          16
          17
          18
          19
          20
          21
          22
          23
          24
          25
          26
          27
          28
          29
          30
          31
          32
          33
          34
          35
          36
          37
          38
          39
          40
          41
          42
          43
          44
          45
          46
          47
          48
          49
          50
          51
          52
          53
          54
          55
          56
          57
          58
          59
          60
          61
          62
          63
          64
          65
          66
          67
          68
          69
          70
          71
          72
          73
          74
          75
          76
          77
          78
          79
          80
          81
          82
          83
          84
          85
          86
          87
          88
          89
          90
          91
          92
          93
          94
          95
          96
          97
          98
          99
          100
          101
          102
          103
          104
          105
          106
          107
          108
          109
          110
          111
          112
          113
          114
          115
          116
          117
          118
          119
          120
          121
          122
          123
          124
          125
          126
          127
          128
          129
          130
          131
          132
          133
          134
          135
          136
          137
          138
          139
          140
          141
          142
          143
          144
          145
          146
          147
          148
          149
          150
          151
          152
          153
          154
          155
          156
          157
        </DataArray>
        <DataArray type="Int64" Name="offsets" format="ascii">
          158
        </DataArray>
        <DataArray type="Int64" Name="types" format="ascii">
          2
        </DataArray>
      </Cells>
      <PointData>
        <DataArray type="Int64" Name="NodeTag" format="ascii">
          1
          2
          3
          4
          5
          6
          7
          8
          9
          10
          11
          12
          13
          14
          15
          16
          17
          18
          19
          20
          21
          22
          23
          24
          25
          26
          27
          28
          29
          30
          31
          32
          33
          34
          35
          36
          37
          38
          39
          40
          41
          42
          43
          44
          45
          46
          47
          48
          49
          50
          51
          52
          53
          54
          55
          56
          57
          58
          59
          60
          61
          62
          63
          64
          65
          66
          67
          68
          69
          70
          71
          72
          73
          74
          75
          76
          77
          78
          79
          80
          81
          82
          83
          84
          85
          86
          87
          88
          89
          90
          91
          92
          93
          94
          95
          96
          97
          98
          99
          100
          101
          102
          103
          104
          105
          106
          107
          108
          109
          110
          111
          112
          113
          114
          115
          116
          117
          118
          119
          120
          121
          122
          123
          124
          125
          126
          127
          128
          129
          130
          131
          132
          133
          134
          135
          136
          137
          138
          139
          140
          141
          142
          143
          144
          145
          146
          147
          148
          149
          150
          151
          152
          153
          154
          155
          156
          157
          158
        </DataArray>
        <DataArray type="Float64" Name="Displacement" NumberOfComponents="3" format="ascii">
          0.0000000000e+00 0.0000000000e+00 0.0000000000e+00 
          1.3297568070e-04 -1.1966993962e-04 -7.0383912113e-05 
          0.0000000000e+00 0.0000000000e+00 0.0000000000e+00 
          5.4214949726e-05 -1.2113047726e-04 -6.4217764268e-04 
          1.3502637461e-04 -1.2418348194e-04 -5.4962056302e-04 
          -7.3423501172e-04 -1.0297676673e-03 -4.2834890005e-04 
          -9.8235943473e-04 1.0239817278e-03 -4.8212957804e-04 
          -7.9837327988e-04 -1.0286665598e-03 -4.0800223151e-04 
          -1.0885769378e-03 1.0238190664e-03 -4.7853835407e-04 
          1.3389333259e-04 -3.2036378293e-04 -1.0271808053e-04 
          0.0000000000e+00 0.0000000000e+00 0.0000000000e+00 
          1.3873837365e-04 -1.4780682406e-04 -5.7944352122e-04 
          1.0565545503e-03 -1.0540303428e-03 -4.5756984801e-04 
          -7.9975876407e-04 -9.9319413464e-04 -4.1533306102e-04 
          1.0557086215e-03 -1.0722992926e-03 -4.3228152967e-04 
          2.3620427554e-04 -1.4166082204e-04 -9.8088305409e-05 
          0.0000000000e+00 0.0000000000e+00 0.0000000000e+00 
          5.8532836049e-05 -1.4082340668e-04 -6.3823099755e-04 
          1.0220601457e-03 9.5659309459e-04 -4.7326064726e-04 
          1.0486975292e-03 -1.0730595744e-03 -4.5978811631e-04 
          1.1657136586e-03 9.5551394323e-04 -4.7380688818e-04 
          5.5164417143e-05 -7.3464161556e-05 -7.1419779448e-05 
          -1.0884862397e-03 1.3285785092e-03 -5.1234722552e-04 
          1.1659498306e-03 1.1830508768e-03 -5.0968813728e-04 
          2.6610489873e-04 -1.4214976568e-04 -7.3095170620e-04 
          1.6964195083e-04 -2.7936641378e-04 -8.5542030001e-04 
          1.0367136584e-04 -3.8996071360e-04 -1.0504377949e-03 
          1.5574977520e-04 -2.3001283139e-04 -8.9996404841e-04 
          6.8194841618e-05 -4.7228088053e-04 -1.2082184735e-03 
          1.7359889357e-04 -4.1164919815e-04 -1.0304978643e-03 
          1.4815627258e-05 -7.7476588142e-05 -7.5496410058e-04 
          1.1397527875e-04 -2.3704840338e-04 -9.2842635973e-04 
          7.8217623108e-05 -2.9133639769e-04 -1.0503629740e-03 
          -7.1601273048e-05 -3.2162976329e-04 -8.5077808895e-04 
          -2.7930504116e-05 -2.9222176924e-04 -1.0536057599e-03 
          -1.4680991862e-05 -4.3114722338e-04 -1.2061165905e-03 
          1.6104529793e-04 -5.4731730018e-04 -1.1657680396e-03 
          9.8099590373e-05 -6.6517522043e-04 -1.3673894783e-03 
          1.4410871225e-04 -7.3461991732e-04 -1.2860180785e-03 
          5.4053831661e-05 -8.5399011283e-04 -1.5061579971e-03 
          1.0640041472e-04 -1.0069065389e-03 -1.3918558496e-03 
          1.2619375444e-05 -9.8832628719e-04 -1.6174112959e-03 
          6.9258633649e-05 -4.5166245013e-04 -1.1878824342e-03 
          6.1746310012e-05 -5.7594534408e-04 -1.3009299707e-03 
          7.9434704013e-05 -8.2962634298e-04 -1.4018743309e-03 
          -6.5962988522e-05 -5.2851604047e-04 -1.3714776003e-03 
          -4.4247320131e-05 -7.1288842199e-04 -1.5086689793e-03 
          -2.4934632449e-05 -8.0684774927e-04 -1.6218415656e-03 
          -2.1188714822e-05 -1.1778851748e-03 -1.7705712862e-03 
          8.8261779876e-05 -1.1550448668e-03 -1.5022961356e-03 
          2.2555922311e-05 -1.1658268409e-03 -1.5637827948e-03 
          2.4712845932e-04 -1.2021503396e-03 -1.6011798197e-03 
          1.8301924247e-04 -1.6157158591e-03 -1.9168354435e-03 
          1.5737882861e-04 -1.5276418377e-03 -2.0145179494e-03 
          -2.8192341878e-05 -1.9473266035e-03 -2.2359031825e-03 
          1.1663730034e-04 -1.8956871508e-03 -1.8318938574e-03 
          4.4701668735e-05 -2.5717946523e-03 -2.4406054811e-03 
          2.0192638959e-04 -2.6235495459e-03 -1.9747196736e-03 
          -5.5097128600e-04 -1.9226326181e-03 -1.9785058591e-03 
          1.1482260215e-04 -1.6880253513e-03 -1.7648898742e-03 
          -2.2998391785e-05 -1.6464075988e-03 -2.1383705933e-03 
          1.3004172745e-04 -2.3915284099e-03 -2.3221860832e-03 
          2.3955522590e-04 -2.1228339356e-03 -1.8844405333e-03 
          1.2900302362e-04 -2.4223824525e-03 -2.2690734434e-03 
          2.3882853933e-04 -2.8860754247e-03 -2.0075692797e-03 
          8.3559768710e-05 -2.9472657081e-03 -2.4825776688e-03 
          9.4582977666e-05 -9.6332994087e-04 -1.5049406544e-03 
          1.0712349849e-04 -1.4818847032e-03 -1.7460571752e-03 
          9.1353088245e-05 -1.1633707949e-03 -1.4585197005e-03 
          1.3272516136e-04 -1.6858730135e-03 -1.8030604388e-03 
          1.9383879949e-04 -2.4122665151e-03 -1.9234163011e-03 
          -4.7350358610e-05 -1.0072892885e-03 -1.5953602075e-03 
          1.0313011584e-04 -1.3542154780e-03 -1.7790414824e-03 
          1.2519995399e-04 -9.8680223145e-04 -1.7890044527e-03 
          8.0297812129e-05 -1.9240959242e-03 -1.8441574064e-03 
          1.7697855282e-04 -2.1749553542e-03 -1.9620820390e-03 
          2.3589236916e-04 -2.6800899724e-03 -1.9514154582e-03 
          2.3913536768e-04 -3.1541932349e-03 -2.0916656245e-03 
          2.3903656102e-04 -3.2959360391e-03 -2.1317447557e-03 
          2.4268611179e-04 -3.1741251848e-03 -2.0969005718e-03 
          -1.5771982661e-05 -9.8707179548e-04 -1.7718849334e-03 
          -3.1342111159e-05 -1.4344679111e-03 -2.1231907809e-03 
          2.1098313214e-05 -9.7417165199e-04 -1.5670002984e-03 
          -1.2170118984e-05 -1.7374276774e-03 -2.2106598269e-03 
          4.1811128139e-05 -2.3616269352e-03 -2.3947715268e-03 
          -2.3735142026e-04 -1.4050157590e-03 -1.9133515683e-03 
          -1.7151579748e-05 -1.3214535257e-03 -2.0002617829e-03 
          5.0721917842e-04 -1.7125438732e-03 -1.9540726725e-03 
          -1.0974550827e-04 -2.1670272848e-03 -2.2855449761e-03 
          1.2416788539e-04 -2.2107888760e-03 -2.2163498845e-03 
          7.4360127587e-05 -2.7397058334e-03 -2.4338039201e-03 
          -1.8493097157e-05 -1.2569603439e-03 -1.7085845298e-03 
          -2.9265245772e-05 -1.5785649728e-03 -2.1678447948e-03 
          -1.9422991728e-05 -2.3502501404e-03 -2.1825920782e-03 
          2.5105360907e-05 -2.4046599620e-03 -2.4454037536e-03 
          1.4097562073e-04 -3.0749791577e-03 -2.4085947570e-03 
          1.7411251512e-04 -3.2921553219e-03 -2.3805752491e-03 
          1.6906295143e-04 -3.1701522647e-03 -2.3607023773e-03 
          -3.0930415815e-04 -2.4335246522e-03 -3.7033511109e-03 
          -2.2133703661e-04 -2.6498315344e-03 -3.0279940123e-03 
          -2.1875434007e-04 -2.4220877531e-03 -3.0309919688e-03 
          5.5956984775e-04 -2.5519792028e-03 -1.5656962284e-03 
          4.8668622583e-04 -2.6100417342e-03 -1.7192638503e-03 
          4.7621425715e-04 -2.5114901158e-03 -1.7222857427e-03 
          4.8657672578e-04 -2.6612889569e-03 -1.7445190789e-03 
          4.7627995098e-04 -2.5603073949e-03 -1.7474119956e-03 
          -2.2130030490e-04 -2.6948273428e-03 -3.0415706864e-03 
          -2.1865148329e-04 -2.4772913605e-03 -3.0444036488e-03 
          -3.9652284681e-04 -1.5062770220e-03 -3.2864267831e-03 
          -2.8619945276e-04 -1.6896424009e-03 -2.6799365965e-03 
          -2.7108572117e-04 -1.4865945740e-03 -2.6829957461e-03 
          4.6210553290e-04 -1.6182292003e-03 -1.5650784298e-03 
          3.3233922438e-04 -1.6249783839e-03 -1.6324793445e-03 
          3.3391794392e-04 -1.5645664829e-03 -1.6355438282e-03 
          3.3314764128e-04 -1.7047305966e-03 -1.6393378689e-03 
          3.3407449192e-04 -1.6399314015e-03 -1.6422785721e-03 
          -2.8567010228e-04 -1.7497921680e-03 -2.6877766967e-03 
          -2.7093799360e-04 -1.5585109700e-03 -2.6905912198e-03 
          -3.3193050534e-04 -8.5983347568e-04 -2.5367452801e-03 
          -2.1936436797e-04 -9.9463753335e-04 -2.0490671710e-03 
          -2.0705937256e-04 -8.4142378333e-04 -2.0520778026e-03 
          4.1544363901e-04 -9.5529688209e-04 -1.4228010229e-03 
          2.4007397279e-04 -9.1229279780e-04 -1.3975762976e-03 
          2.7394141756e-04 -9.0050114697e-04 -1.4006080878e-03 
          2.3982627050e-04 -1.0077305224e-03 -1.3716477532e-03 
          2.7394269156e-04 -9.7771888044e-04 -1.3744782545e-03 
          -2.1932619231e-04 -1.0592201832e-03 -2.0586684703e-03 
          -2.0698093016e-04 -9.1027342117e-04 -2.0614634472e-03 
          2.5791251407e-04 -3.0108610838e-03 -2.2475398310e-03 
          1.6198726622e-04 -3.1631141227e-03 -2.2726298063e-03 
          2.7645215780e-04 -3.6725255942e-03 -2.2275186591e-03 
          2.7649414482e-04 -3.6739500313e-03 -2.2422672797e-03 
          2.7848046113e-04 -3.6738387206e-03 -2.2613668814e-03 
          2.7842079403e-04 -3.6725121092e-03 -2.2525615148e-03 
          8.9555065481e-03 -1.6088944249e-04 -8.5748352551e-05 
          2.1477689368e-03 -2.5440590499e-04 -7.5761256777e-04 
          1.2200090390e-03 -3.7114722620e-04 -1.0149494744e-03 
          1.3995798129e-04 -2.5483689241e-03 -7.4585050932e-04 
          1.3790448754e-04 -3.9430398951e-03 -1.1485888597e-03 
          1.3071859796e-04 -1.9048428532e-03 -1.0740286457e-03 
          -5.1172462756e-03 -1.6488587289e-04 -3.0121591534e-04 
          -9.7329825423e-04 -2.2462961699e-04 -9.0225718549e-04 
          -1.0611330387e-03 -3.0674902540e-04 -9.6932961776e-04 
          5.1935513736e-05 -7.2393503039e-03 -2.2270449336e-04 
          4.2776843082e-05 1.5835812319e-04 -1.0272244583e-03 
          3.1748016574e-05 7.5132043290e-04 -1.2279407960e-03 
          6.9116982476e-04 -5.1899164681e-04 -1.1451967615e-03 
          3.1998405165e-04 -6.9750964059e-04 -1.3219084240e-03 
          1.1759982495e-04 -8.9573525569e-04 -1.4960908254e-03 
          1.2099800269e-04 -1.2625927473e-03 -1.1710214949e-03 
          1.0871677772e-04 -1.0551177488e-03 -1.2745226096e-03 
          9.7465117594e-05 -7.5771713456e-04 -1.3651691729e-03 
          -7.0184773724e-04 -4.1908130317e-04 -1.1835634119e-03 
          -2.1132048100e-04 -5.6257788929e-04 -1.3139320043e-03 
          -8.4245801116e-05 -7.2876805213e-04 -1.5064871938e-03 
          2.1154131051e-05 1.4245194242e-04 -1.3129056854e-03 
          9.7557731074e-06 -4.5617697945e-04 -1.4793787239e-03 
          -1.1954993681e-06 -6.7327222755e-04 -1.5984390007e-03 
        </DataArray>
        <DataArray type="Float64" Name="Reaction" NumberOfComponents="3" format="ascii">
          -7.9695287595e+03 8.6439320696e+03 1.1002921702e+05 
          3.4924745421e+02 -1.1664679197e+02 3.5111880564e+00 
          -8.5858356662e+03 -5.8424750300e+03 9.5047611030e+04 
          4.9755142678e+02 -3.5726905108e+02 -3.5386495107e+02 
          8.5682528353e+02 -2.2073983524e+02 -4.0935629124e+02 
          6.9343494676e+02 -5.1720179123e+02 -1.0681814688e+00 
          -7.2679988843e+02 -1.1260428659e+02 -2.7078394194e-01 
          8.1797836476e+01 -3.6579693443e+02 6.6284536840e-01 
          -1.1507751633e+02 -1.2327552749e+02 1.0804750012e+00 
          1.9374183104e+02 5.3930422835e+01 1.2264267560e+00 
          5.1287395911e+03 -4.9588236995e+03 8.6040927813e+04 
          -1.8371197348e+02 -6.0288083664e+02 -4.0933007913e+02 
          2.3667106739e+02 2.5784456262e+02 9.3746525287e-01 
          1.1800180083e+02 6.4775496939e+02 2.3899108007e-01 
          2.7378937234e+02 -3.8357152534e+02 2.6938502268e+00 
          3.3676423443e+02 -4.0994942405e+02 7.5815667478e+00 
          6.7359680286e+03 9.1832402101e+03 1.0729438961e+05 
          -4.5928422476e+02 -6.4549014174e+02 -3.5226684175e+02 
          1.1433766004e+02 -5.5420230398e+02 -1.9293334178e+00 
          -2.4903324427e+02 -6.4231523548e+02 -3.2272821596e+00 
          4.7167898492e+02 -4.3749142793e+02 1.1418786182e+00 
          2.2380313896e+02 -2.7369756926e+02 1.8011592271e+01 
          -2.0602725601e+02 9.6433249834e+02 -1.4515717147e+01 
          5.7779765243e+02 3.3118522742e+02 -5.2022245129e+00 
          3.4070887616e+02 -5.4398580771e+02 4.4070195342e+02 
          -2.1550795201e+02 6.8623423333e+02 3.9147961983e+02 
          6.0244149316e+02 -4.8746614715e+02 6.9395097219e+01 
          6.1043236124e+02 1.0777158708e+03 7.9055968391e+01 
          -5.1462857373e+02 7.0195017868e+02 1.3156125820e+01 
          -2.7756980197e+02 -1.4588059808e+02 3.5906330314e+00 
          -2.5061799358e+02 -2.3854857366e+02 4.6081294609e+02 
          -4.7318408722e+02 5.1936046738e+02 7.9491725453e+01 
          3.4837394395e+02 1.0837156181e+02 -6.7628269215e+00 
          1.7362811291e+02 2.4088167801e+02 3.6181200062e+02 
          -5.6859257593e+02 -1.0304418971e+02 1.1406376277e+02 
          5.1681914968e+02 3.1648707982e+02 -3.2956989225e+00 
          2.2329036389e+02 3.0930358325e+02 -5.0608863357e-01 
          3.6108943146e+02 1.3591934046e+02 3.4131775531e+00 
          -4.1650413982e+01 7.6577797809e+01 -9.3681065709e-01 
          -1.7048979265e+02 1.5057801243e+02 -1.0813693752e+00 
          6.0564647865e+01 -1.9213265690e+01 7.2970002355e+00 
          7.5827355891e+01 -3.7146363099e+01 -1.3723570402e+00 
          -9.7867894590e+01 2.3812196954e+02 2.8060885202e+00 
          5.2084179274e+01 7.7404481804e+01 -1.7317435617e+00 
          -1.4982971405e+01 1.4917296121e+01 9.3109357565e+00 
          -2.9398341079e+02 1.0510219997e+02 3.2902178030e+00 
          1.9113764574e+02 1.1886392163e+02 4.3503709299e-01 
          -1.7533231143e+01 -1.5277990374e+01 -5.2842145892e+00 
          2.0115395176e+01 -4.9943149144e+01 -8.5960544341e-01 
          3.8846981611e+01 -4.7939638934e+01 -9.4698727607e-01 
          -8.1057620795e+01 -8.8801956009e+01 -1.9255251094e+00 
          7.8410320813e+00 -5.1892468609e+01 1.0968333952e+00 
          -7.1078263704e+01 4.3354514327e+01 -8.1806861572e-01 
          1.1859403858e+02 4.6568401811e+00 -1.5415367938e+00 
          3.7480645191e+01 -1.4076892399e+02 -8.8572004848e-01 
          9.6299977942e+01 3.2055011663e+02 4.3996842011e-01 
          -2.8580687729e+01 -3.2937670033e+01 -1.9251392611e+00 
          -4.5288433948e+01 -2.0945841720e+01 8.6299342348e+00 
          -9.9960474060e+02 4.6700050075e+00 -1.8508402795e+00 
          1.1851507764e+01 1.6557670580e+02 -1.0004656425e+02 
          -5.9233676943e+01 -2.5602171304e+01 -1.1219893784e+02 
          1.8911190763e+01 5.0440341012e+01 7.6209138176e+01 
          -8.5817110769e-01 4.2466554616e+01 1.2750608808e+02 
          1.2053962932e+02 -5.5192315738e+00 -2.5335327101e+00 
          1.7712605056e+00 -1.2321744818e+02 3.4998124216e+00 
          1.9381040544e+02 -1.4034956312e+02 1.1981551675e+00 
          3.7057328156e+01 -5.7488396547e+00 -1.4332837091e+00 
          -2.8928347295e+01 1.4546160633e+02 -6.2392220099e+01 
          7.7187760283e+01 -4.5007376817e+02 6.7802664973e-01 
          -1.3313250425e+02 1.6561919296e+02 -9.2453453218e-01 
          -1.0538301745e+02 3.6790757302e+01 4.9720578638e-01 
          3.3781325722e+01 -9.2658201771e+00 1.0232520191e+00 
          1.0787911257e+01 -3.6096481427e+01 -2.6851743332e+00 
          -8.3252125238e+01 1.6254269153e+03 -6.7725167137e+01 
          -8.4317876559e+01 2.7600026449e+01 8.7745663560e+01 
          -6.3812342787e-01 6.8763552596e+01 -1.3237024712e+01 
          8.1145525424e+00 -1.7251617190e+02 -1.9977918613e+00 
          3.0797388939e+01 -6.8979178560e+01 1.5818003510e+00 
          5.5063826481e+01 -9.4371714993e+01 8.4505562354e+00 
          5.2156460061e+01 -9.8772883681e+01 6.1123469528e+00 
          -7.6386375917e+00 -1.1549819183e+01 -6.8264563146e-01 
          -1.8819141369e+02 6.6753161268e+01 -1.0456830204e+02 
          -6.7514418149e+01 2.5062691588e+01 -2.6013271575e+00 
          -1.3847183555e+02 -1.0007174402e+02 1.8357407597e-01 
          -2.7884901955e+01 -1.7930828784e+01 -1.7796005128e+00 
          -5.5432471251e+01 4.5450981558e+01 -4.6888029469e+00 
          8.9894004690e+00 1.7653363390e+01 -4.8635427776e-01 
          5.9558840509e+02 1.3504922812e+02 1.3166557658e+01 
          -1.4299607875e+02 9.1710318048e+01 4.4958395007e+01 
          -2.7560051098e+01 3.0690235243e+01 1.0293777288e+00 
          1.4731195005e+02 -1.4568692125e+02 -1.7937315318e+00 
          -5.6973111724e+00 -5.5469219239e+02 8.1999247841e+00 
          -4.8858004481e+00 -1.8483370305e+01 4.8771470647e+00 
          -6.9578036784e+01 -7.6494975666e+02 7.2243492483e+01 
          4.0120708326e-01 8.6930584948e+01 1.2126808246e+01 
          7.8484217638e+01 -6.4483524784e+01 2.1434972981e+00 
          1.0419784361e+02 -1.0702494251e+02 8.1142808506e+00 
          9.8264259969e+01 -1.2617406283e+02 6.5159559062e+00 
          3.0005353624e+01 -1.0469672252e+01 -3.5595854805e+00 
          -5.3036830920e+01 -6.0934238738e+01 7.7542025462e+00 
          -4.0658113418e+01 -1.5710806988e+01 -5.7541321360e+00 
          1.9011999695e+01 1.9319107671e+01 -3.9011598988e+00 
          7.2077978626e+01 -3.9727735419e+01 8.7886325470e+00 
          3.2935004075e+01 -3.3439528622e+00 -5.9971695781e+00 
          7.3797528232e+01 -2.8359055446e+00 7.2879553642e+00 
          2.9577234962e+01 4.2894676816e+00 -5.5086151235e+00 
          -5.6719046523e+01 -1.0476278208e+01 6.4373455130e+00 
          -3.9158646350e+01 1.5612090827e+01 -5.2946123457e+00 
          -8.3793659155e+01 1.6658548962e+01 -2.3647701345e+00 
          -6.1439393049e+01 3.8398637284e+00 5.5964389615e+00 
          -2.1366583036e+01 4.0849599915e+01 -4.0938718224e+00 
          -3.7267765615e+01 3.3220765424e+01 -2.2430574890e+00 
          4.4343570835e+01 4.6450718531e+01 5.3032879244e+00 
          1.2994903447e+01 1.4377461831e+01 -3.7312745778e+00 
          2.3377777679e+01 4.3592491071e+01 4.3182845019e+00 
          1.1673164192e+01 2.5530685843e+01 -3.3183607769e+00 
          -6.9460837762e+01 8.5261109763e+01 4.3502896369e+00 
          -2.4810301524e+01 -3.3586212927e+00 -3.3268389605e+00 
          -7.2129721661e+01 -1.1710089316e+01 -8.1565447679e-01 
          -4.9221552007e+01 -1.5077802619e+01 1.9252739419e+00 
          -1.2935468740e+01 -2.9442126841e+00 -1.2027746620e+00 
          1.0285321232e+02 -2.2932689264e+01 -7.6316122055e-01 
          -2.4500329890e+00 9.8154965421e+00 1.7781069113e+00 
          2.8914484516e+01 -6.3858845020e+00 -1.2072033156e+00 
          -5.1491460919e+00 -3.5673845526e+01 2.2793246705e+00 
          2.7363026697e+01 -1.8174994206e+01 -1.9166976922e+00 
          -5.4855148240e+01 -3.9162581459e+00 1.4760207955e+00 
          -1.2397160211e+01 -9.9561093487e+00 -1.0510722330e+00 
          3.8743153252e+01 -7.8339143850e+01 9.8370686322e-02 
          4.4196395058e+01 -6.7555790990e+01 5.1260103069e-01 
          3.9818996334e+00 -1.5860278107e+01 1.7436182051e+00 
          2.6628429381e+00 -3.1785023515e+01 4.3969328616e+00 
          2.0642733702e+01 -3.6523572908e+01 4.5036218103e+00 
          2.2614569783e+01 -2.3876285606e+01 2.1422091410e+00 
          1.5994745010e+03 5.8693156576e+01 -2.9860769530e+01 
          1.6593999313e+02 4.0390490463e+01 -3.6296134535e-01 
          1.0732699428e+02 7.1493679823e+01 -5.7847244211e+00 
          8.4558412739e+01 -7.6273213063e+01 -1.7844063466e+02 
          -1.6300304052e+01 -3.8220116003e+02 -3.6518512152e+01 
          1.7960498012e+01 -1.2283941501e+02 2.9212407534e-01 
          -9.9372814633e+02 -8.5742136788e+01 -1.8063649935e+01 
          -4.0848661446e+01 3.8703473859e+01 -2.8334998255e+01 
          -1.4517296510e+02 5.2971547807e+01 1.1620282106e+00 
          -1.3639058173e+02 -1.4843927759e+03 -1.8346921260e+02 
          -1.6721670932e+01 -8.0190245793e+01 -2.2297296504e+01 
          5.3053538735e+00 1.4744508398e+02 -3.7071007936e-01 
          7.7321120570e+01 7.0941988223e+01 8.8869502728e-01 
          2.9501631960e+01 4.7168385636e+01 -6.9755651677e-01 
          7.7737266257e+00 8.1038911318e+00 -3.6086603004e-01 
          2.0164543027e+01 -7.0542884709e+01 -2.3848838693e+00 
          1.0376382704e+01 -1.0739524594e+02 1.4974522751e+00 
          -5.8384977894e+00 1.5328757471e+02 -7.9233965267e+00 
          -1.4662307877e+02 4.9715240737e+01 2.8174339571e+00 
          -2.7331815973e+01 3.5501333411e+01 -1.7606518210e+00 
          -7.0454431807e+01 9.9696664376e+00 1.4521275446e-01 
          8.8850095569e+00 7.7562450883e+01 -5.4165296422e-02 
          5.9668424590e+00 7.3833964431e+00 5.0874048730e-01 
          5.8723723035e+00 8.8711722259e+01 -3.9751805962e-01 
        </DataArray>
        <DataArray type="Float64" Name="UnbalancedLoad" NumberOfComponents="3" format="ascii">
          0.0000000000e+00 0.0000000000e+00 -7.3997998413e+03 
          0.0000000000e+00 0.0000000000e+00 -7.5825796056e+03 
          0.0000000000e+00 0.0000000000e+00 -7.3995116777e+03 
          0.0000000000e+00 0.0000000000e+00 -1.1947766752e+04 
          0.0000000000e+00 0.0000000000e+00 -1.1947584726e+04 
          0.0000000000e+00 0.0000000000e+00 -8.0843021292e+03 
          0.0000000000e+00 0.0000000000e+00 -8.0853916907e+03 
          0.0000000000e+00 0.0000000000e+00 -6.0489373831e+03 
          0.0000000000e+00 0.0000000000e+00 -6.0498449252e+03 
          0.0000000000e+00 0.0000000000e+00 -7.5822914356e+03 
          0.0000000000e+00 0.0000000000e+00 -7.3997998413e+03 
          0.0000000000e+00 0.0000000000e+00 -1.1947766752e+04 
          0.0000000000e+00 0.0000000000e+00 -8.0853916907e+03 
          0.0000000000e+00 0.0000000000e+00 -8.0853916907e+03 
          0.0000000000e+00 0.0000000000e+00 -6.0498449252e+03 
          0.0000000000e+00 0.0000000000e+00 -7.5822914356e+03 
          0.0000000000e+00 0.0000000000e+00 -7.3997998413e+03 
          0.0000000000e+00 0.0000000000e+00 -1.1947766752e+04 
          0.0000000000e+00 0.0000000000e+00 -8.0853916907e+03 
          0.0000000000e+00 0.0000000000e+00 -8.0853916907e+03 
          0.0000000000e+00 0.0000000000e+00 -6.0498449252e+03 
          0.0000000000e+00 0.0000000000e+00 -7.5822914356e+03 
          0.0000000000e+00 0.0000000000e+00 -8.0853916907e+03 
          0.0000000000e+00 0.0000000000e+00 -8.0853916907e+03 
          0.0000000000e+00 0.0000000000e+00 -4.0305387760e+03 
          0.0000000000e+00 0.0000000000e+00 -4.0305387760e+03 
          0.0000000000e+00 0.0000000000e+00 -3.6404396602e+03 
          0.0000000000e+00 0.0000000000e+00 -3.6404396602e+03 
          0.0000000000e+00 0.0000000000e+00 -2.9967873711e+03 
          0.0000000000e+00 0.0000000000e+00 -2.9967873711e+03 
          0.0000000000e+00 0.0000000000e+00 -4.0305387760e+03 
          0.0000000000e+00 0.0000000000e+00 -3.6404396602e+03 
          0.0000000000e+00 0.0000000000e+00 -2.9967873711e+03 
          0.0000000000e+00 0.0000000000e+00 -4.0305387760e+03 
          0.0000000000e+00 0.0000000000e+00 -3.6404396602e+03 
          0.0000000000e+00 0.0000000000e+00 -2.9967873711e+03 
          0.0000000000e+00 0.0000000000e+00 -2.4131455636e+03 
          0.0000000000e+00 0.0000000000e+00 -2.4131455636e+03 
          0.0000000000e+00 0.0000000000e+00 -2.1833281692e+03 
          0.0000000000e+00 0.0000000000e+00 -2.1833281692e+03 
          0.0000000000e+00 0.0000000000e+00 -2.9751819600e+03 
          0.0000000000e+00 0.0000000000e+00 -2.9751819600e+03 
          0.0000000000e+00 0.0000000000e+00 -2.4131455636e+03 
          0.0000000000e+00 0.0000000000e+00 -2.1833281692e+03 
          0.0000000000e+00 0.0000000000e+00 -2.9751819600e+03 
          0.0000000000e+00 0.0000000000e+00 -2.4131455636e+03 
          0.0000000000e+00 0.0000000000e+00 -2.1833281692e+03 
          0.0000000000e+00 0.0000000000e+00 -2.9751819600e+03 
          0.0000000000e+00 0.0000000000e+00 -1.3723534677e+03 
          0.0000000000e+00 0.0000000000e+00 -1.3723534677e+03 
          0.0000000000e+00 0.0000000000e+00 -1.7158628491e+03 
          0.0000000000e+00 0.0000000000e+00 -1.4080328086e+03 
          0.0000000000e+00 0.0000000000e+00 -1.4080328086e+03 
          0.0000000000e+00 0.0000000000e+00 -7.8273716253e+02 
          0.0000000000e+00 0.0000000000e+00 -1.0552992465e+03 
          0.0000000000e+00 0.0000000000e+00 -1.0552992465e+03 
          0.0000000000e+00 0.0000000000e+00 -2.8042653693e+03 
          0.0000000000e+00 0.0000000000e+00 -2.8042653693e+03 
          0.0000000000e+00 0.0000000000e+00 -1.3988086278e+03 
          0.0000000000e+00 0.0000000000e+00 -2.5692176441e+03 
          0.0000000000e+00 0.0000000000e+00 -2.5692176441e+03 
          0.0000000000e+00 0.0000000000e+00 -1.4080328086e+03 
          0.0000000000e+00 0.0000000000e+00 -1.4080328086e+03 
          0.0000000000e+00 0.0000000000e+00 -7.8273716253e+02 
          0.0000000000e+00 0.0000000000e+00 -2.6829006260e+03 
          0.0000000000e+00 0.0000000000e+00 -2.6829006260e+03 
          0.0000000000e+00 0.0000000000e+00 -1.3723534677e+03 
          0.0000000000e+00 0.0000000000e+00 -2.5692176441e+03 
          0.0000000000e+00 0.0000000000e+00 -1.7158628491e+03 
          0.0000000000e+00 0.0000000000e+00 -1.0552992465e+03 
          0.0000000000e+00 0.0000000000e+00 -2.8042653693e+03 
          0.0000000000e+00 0.0000000000e+00 -1.4080328086e+03 
          0.0000000000e+00 0.0000000000e+00 -7.8273716253e+02 
          0.0000000000e+00 0.0000000000e+00 -1.3988086278e+03 
          0.0000000000e+00 0.0000000000e+00 -1.4080328086e+03 
          0.0000000000e+00 0.0000000000e+00 -7.8273716253e+02 
          0.0000000000e+00 0.0000000000e+00 -2.6829006260e+03 
          0.0000000000e+00 0.0000000000e+00 -7.4464777859e+02 
          0.0000000000e+00 0.0000000000e+00 -8.9983077388e+02 
          0.0000000000e+00 0.0000000000e+00 -8.9983077388e+02 
          0.0000000000e+00 0.0000000000e+00 -1.3723534677e+03 
          0.0000000000e+00 0.0000000000e+00 -2.5692176441e+03 
          0.0000000000e+00 0.0000000000e+00 -1.7158628491e+03 
          0.0000000000e+00 0.0000000000e+00 -1.0552992465e+03 
          0.0000000000e+00 0.0000000000e+00 -2.8042653693e+03 
          0.0000000000e+00 0.0000000000e+00 -1.4080328086e+03 
          0.0000000000e+00 0.0000000000e+00 -7.8273716253e+02 
          0.0000000000e+00 0.0000000000e+00 -1.3988086278e+03 
          0.0000000000e+00 0.0000000000e+00 -1.4080328086e+03 
          0.0000000000e+00 0.0000000000e+00 -7.8273716253e+02 
          0.0000000000e+00 0.0000000000e+00 -2.6829006260e+03 
          0.0000000000e+00 0.0000000000e+00 -1.7158628491e+03 
          0.0000000000e+00 0.0000000000e+00 -7.8273716253e+02 
          0.0000000000e+00 0.0000000000e+00 -1.3988086278e+03 
          0.0000000000e+00 0.0000000000e+00 -7.8273716253e+02 
          0.0000000000e+00 0.0000000000e+00 -7.4464777859e+02 
          0.0000000000e+00 0.0000000000e+00 -8.9983077388e+02 
          0.0000000000e+00 0.0000000000e+00 -8.9983077388e+02 
          0.0000000000e+00 0.0000000000e+00 -1.1634414727e+03 
          0.0000000000e+00 0.0000000000e+00 -1.1634500263e+03 
          0.0000000000e+00 0.0000000000e+00 -8.2584355903e+02 
          0.0000000000e+00 0.0000000000e+00 -1.1634414727e+03 
          0.0000000000e+00 0.0000000000e+00 -1.1634500263e+03 
          0.0000000000e+00 0.0000000000e+00 -8.2584355903e+02 
          0.0000000000e+00 0.0000000000e+00 -1.1634500263e+03 
          0.0000000000e+00 0.0000000000e+00 -8.2584355903e+02 
          0.0000000000e+00 0.0000000000e+00 -1.1634500263e+03 
          0.0000000000e+00 0.0000000000e+00 -8.2584355903e+02 
          0.0000000000e+00 0.0000000000e+00 -1.1634414727e+03 
          0.0000000000e+00 0.0000000000e+00 -1.1634500263e+03 
          0.0000000000e+00 0.0000000000e+00 -8.2584355903e+02 
          0.0000000000e+00 0.0000000000e+00 -1.1634414727e+03 
          0.0000000000e+00 0.0000000000e+00 -1.1634500263e+03 
          0.0000000000e+00 0.0000000000e+00 -8.2584355903e+02 
          0.0000000000e+00 0.0000000000e+00 -1.1634500263e+03 
          0.0000000000e+00 0.0000000000e+00 -8.2584355903e+02 
          0.0000000000e+00 0.0000000000e+00 -1.1634500263e+03 
          0.0000000000e+00 0.0000000000e+00 -8.2584355903e+02 
          0.0000000000e+00 0.0000000000e+00 -1.1634414727e+03 
          0.0000000000e+00 0.0000000000e+00 -1.1634500263e+03 
          0.0000000000e+00 0.0000000000e+00 -8.2584355903e+02 
          0.0000000000e+00 0.0000000000e+00 -1.1634414727e+03 
          0.0000000000e+00 0.0000000000e+00 -1.1634500263e+03 
          0.0000000000e+00 0.0000000000e+00 -8.2584355903e+02 
          0.0000000000e+00 0.0000000000e+00 -1.1634500263e+03 
          0.0000000000e+00 0.0000000000e+00 -8.2584355903e+02 
          0.0000000000e+00 0.0000000000e+00 -1.1634500263e+03 
          0.0000000000e+00 0.0000000000e+00 -8.2584355903e+02 
          0.0000000000e+00 0.0000000000e+00 -7.4642187466e+02 
          0.0000000000e+00 0.0000000000e+00 -7.4642187466e+02 
          0.0000000000e+00 0.0000000000e+00 -2.0404341919e+02 
          0.0000000000e+00 0.0000000000e+00 -2.0404341919e+02 
          0.0000000000e+00 0.0000000000e+00 -2.0404341919e+02 
          0.0000000000e+00 0.0000000000e+00 -2.0404341919e+02 
          0.0000000000e+00 0.0000000000e+00 -9.9282716554e+02 
          0.0000000000e+00 0.0000000000e+00 -8.9680968480e+02 
          0.0000000000e+00 0.0000000000e+00 -8.0851532852e+02 
          0.0000000000e+00 0.0000000000e+00 -9.9282716554e+02 
          0.0000000000e+00 0.0000000000e+00 -8.9680968480e+02 
          0.0000000000e+00 0.0000000000e+00 -8.0851532852e+02 
          0.0000000000e+00 0.0000000000e+00 -9.9282716554e+02 
          0.0000000000e+00 0.0000000000e+00 -8.9680968480e+02 
          0.0000000000e+00 0.0000000000e+00 -8.0851532852e+02 
          0.0000000000e+00 0.0000000000e+00 -9.9282716554e+02 
          0.0000000000e+00 0.0000000000e+00 -8.9680968480e+02 
          0.0000000000e+00 0.0000000000e+00 -8.0851532852e+02 
          0.0000000000e+00 0.0000000000e+00 -7.2904604627e+02 
          0.0000000000e+00 0.0000000000e+00 -6.5615357537e+02 
          0.0000000000e+00 0.0000000000e+00 -5.9477277123e+02 
          0.0000000000e+00 0.0000000000e+00 -7.2904604627e+02 
          0.0000000000e+00 0.0000000000e+00 -6.5615357537e+02 
          0.0000000000e+00 0.0000000000e+00 -5.9477277123e+02 
          0.0000000000e+00 0.0000000000e+00 -7.2904604627e+02 
          0.0000000000e+00 0.0000000000e+00 -6.5615357537e+02 
          0.0000000000e+00 0.0000000000e+00 -5.9477277123e+02 
          0.0000000000e+00 0.0000000000e+00 -7.2904604627e+02 
          0.0000000000e+00 0.0000000000e+00 -6.5615357537e+02 
          0.0000000000e+00 0.0000000000e+00 -5.9477277123e+02 
        </DataArray>
      </PointData>
      <CellData>
        <DataArray type="Int64" Name="ElementTag" format="ascii">
          0
        </DataArray>
      </CellData>
    </Piece>
  </UnstructuredGrid>
</VTKFile>
