<?xml version="1.0"?>
<VTKFile type="UnstructuredGrid" version="1.0" byte_order="LittleEndian" compressor="vtkZLibDataCompressor">
  <UnstructuredGrid>
    <Piece NumberOfPoints="158" NumberOfCells="1">
      <Points>
        <DataArray type="Float64" Name="Points" NumberOfComponents="3" format="ascii">
          1.7550000000e+00 -1.7550000000e+00 0.0000000000e+00 
          1.4140000000e+00 0.0000000000e+00 5.2300000000e+00 
          1.7550000000e+00 1.7550000000e+00 -0.0000000000e+00 
          1.4140000000e+00 -1.4140000000e+00 5.2300000000e+00 
          1.4140000000e+00 1.4140000000e+00 5.2300000000e+00 
          1.5840000000e+00 8.7800000000e-01 2.6150000000e+00 
          1.5840000000e+00 -8.7700000000e-01 2.6150000000e+00 
          1.5840000000e+00 1.5840000000e+00 2.6150000000e+00 
          1.5840000000e+00 -1.5840000000e+00 2.6150000000e+00 
          -0.0000000000e+00 1.4140000000e+00 5.2300000000e+00 
          -1.7550000000e+00 1.7550000000e+00 -0.0000000000e+00 
          -1.4140000000e+00 1.4140000000e+00 5.2300000000e+00 
          -8.7700000000e-01 1.5840000000e+00 2.6150000000e+00 
          8.7700000000e-01 1.5840000000e+00 2.6150000000e+00 
          -1.5840000000e+00 1.5840000000e+00 2.6150000000e+00 
          -1.4140000000e+00 -0.0000000000e+00 5.2300000000e+00 
          -1.7550000000e+00 -1.7550000000e+00 -0.0000000000e+00 
          -1.4140000000e+00 -1.4140000000e+00 5.2300000000e+00 
          -1.5840000000e+00 -8.7700000000e-01 2.6150000000e+00 
          -1.5840000000e+00 8.7700000000e-01 2.6150000000e+00 
          -1.5840000000e+00 -1.5840000000e+00 2.6150000000e+00 
          0.0000000000e+00 -1.4140000000e+00 5.2300000000e+00 
          8.7700000000e-01 -1.5840000000e+00 2.6150000000e+00 
          -8.7700000000e-01 -1.5840000000e+00 2.6150000000e+00 
          1.2750000000e+00 1.2750000000e+00 7.3500000000e+00 
          1.2750000000e+00 -1.2750000000e+00 7.3500000000e+00 
          1.1500000000e+00 -1.1500000000e+00 9.2700000000e+00 
          1.1500000000e+00 1.1500000000e+00 9.2700000000e+00 
          1.0370000000e+00 -1.0370000000e+00 1.1000000000e+01 
          1.0370000000e+00 1.0370000000e+00 1.1000000000e+01 
          -1.2750000000e+00 1.2750000000e+00 7.3500000000e+00 
          -1.1500000000e+00 1.1500000000e+00 9.2700000000e+00 
          -1.0370000000e+00 1.0370000000e+00 1.1000000000e+01 
          -1.2750000000e+00 -1.2750000000e+00 7.3500000000e+00 
          -1.1500000000e+00 -1.1500000000e+00 9.2700000000e+00 
          -1.0370000000e+00 -1.0370000000e+00 1.1000000000e+01 
          9.3500000000e-01 9.3500000000e-01 1.2560000000e+01 
          9.3500000000e-01 -9.3500000000e-01 1.2560000000e+01 
          8.4300000000e-01 8.4300000000e-01 1.3960000000e+01 
          8.4300000000e-01 -8.4300000000e-01 1.3960000000e+01 
          7.6000000000e-01 7.6000000000e-01 1.5240000000e+01 
          7.6000000000e-01 -7.6000000000e-01 1.5240000000e+01 
          -9.3500000000e-01 9.3500000000e-01 1.2560000000e+01 
          -8.4300000000e-01 8.4300000000e-01 1.3960000000e+01 
          -7.6000000000e-01 7.6000000000e-01 1.5240000000e+01 
          -9.3500000000e-01 -9.3500000000e-01 1.2560000000e+01 
          -8.4300000000e-01 -8.4300000000e-01 1.3960000000e+01 
          -7.6000000000e-01 -7.6000000000e-01 1.5240000000e+01 
          7.6000000000e-01 -7.6000000000e-01 1.6240000000e+01 
          7.6000000000e-01 7.6000000000e-01 1.6240000000e+01 
          7.6000000000e-01 0.0000000000e+00 1.6240000000e+01 
          7.6000000000e-01 7.6000000000e-01 1.7340000000e+01 
          7.6000000000e-01 -7.6000000000e-01 1.7340000000e+01 
          7.6000000000e-01 0.0000000000e+00 1.7890000000e+01 
          7.6000000000e-01 -7.6000000000e-01 1.9440000000e+01 
          7.6000000000e-01 7.6000000000e-01 1.9440000000e+01 
          7.6000000000e-01 -7.6000000000e-01 2.1640000000e+01 
          7.6000000000e-01 7.6000000000e-01 2.1640000000e+01 
          7.6000000000e-01 0.0000000000e+00 1.9440000000e+01 
          7.6000000000e-01 7.6000000000e-01 1.8440000000e+01 
          7.6000000000e-01 -7.6000000000e-01 1.8440000000e+01 
          7.6000000000e-01 -7.6000000000e-01 2.0540000000e+01 
          7.6000000000e-01 7.6000000000e-01 2.0540000000e+01 
          7.6000000000e-01 0.0000000000e+00 2.1090000000e+01 
          7.6000000000e-01 7.6000000000e-01 2.2640000000e+01 
          7.6000000000e-01 -7.6000000000e-01 2.2640000000e+01 
          -7.6000000000e-01 7.6000000000e-01 1.6240000000e+01 
          -7.6000000000e-01 7.6000000000e-01 1.8440000000e+01 
          -0.0000000000e+00 7.6000000000e-01 1.6240000000e+01 
          -7.6000000000e-01 7.6000000000e-01 1.9440000000e+01 
          -7.6000000000e-01 7.6000000000e-01 2.1640000000e+01 
          -7.6000000000e-01 7.6000000000e-01 1.7340000000e+01 
          -0.0000000000e+00 7.6000000000e-01 1.7890000000e+01 
          -0.0000000000e+00 7.6000000000e-01 1.9440000000e+01 
          -7.6000000000e-01 7.6000000000e-01 2.0540000000e+01 
          0.0000000000e+00 7.6000000000e-01 2.1090000000e+01 
          -7.6000000000e-01 7.6000000000e-01 2.2640000000e+01 
          -0.0000000000e+00 5.2600000000e-01 2.3499000000e+01 
          3.9900000000e-01 4.0400000000e-01 2.3950000000e+01 
          -3.9900000000e-01 4.0400000000e-01 2.3950000000e+01 
          -7.6000000000e-01 -7.6000000000e-01 1.6240000000e+01 
          -7.6000000000e-01 -7.6000000000e-01 1.8440000000e+01 
          -7.6000000000e-01 -0.0000000000e+00 1.6240000000e+01 
          -7.6000000000e-01 -7.6000000000e-01 1.9440000000e+01 
          -7.6000000000e-01 -7.6000000000e-01 2.1640000000e+01 
          -7.6000000000e-01 -7.6000000000e-01 1.7340000000e+01 
          -7.6000000000e-01 0.0000000000e+00 1.7890000000e+01 
          -7.6000000000e-01 -0.0000000000e+00 1.9440000000e+01 
          -7.6000000000e-01 -7.6000000000e-01 2.0540000000e+01 
          -7.6000000000e-01 -0.0000000000e+00 2.1090000000e+01 
          -7.6000000000e-01 -7.6000000000e-01 2.2640000000e+01 
          0.0000000000e+00 -7.6000000000e-01 1.6240000000e+01 
          0.0000000000e+00 -7.6000000000e-01 1.7890000000e+01 
          0.0000000000e+00 -7.6000000000e-01 1.9440000000e+01 
          0.0000000000e+00 -7.6000000000e-01 2.1090000000e+01 
          0.0000000000e+00 -5.2600000000e-01 2.3499000000e+01 
          3.9900000000e-01 -4.0400000000e-01 2.3950000000e+01 
          -3.9900000000e-01 -4.0400000000e-01 2.3950000000e+01 
          -0.0000000000e+00 -3.3500000000e+00 2.1640000000e+01 
          -3.8000000000e-01 -2.0550000000e+00 2.2140000000e+01 
          -3.8000000000e-01 -2.0550000000e+00 2.1640000000e+01 
          0.0000000000e+00 3.3500000000e+00 2.1640000000e+01 
          -3.8000000000e-01 2.0550000000e+00 2.2140000000e+01 
          -3.8000000000e-01 2.0550000000e+00 2.1640000000e+01 
          3.8000000000e-01 2.0550000000e+00 2.2140000000e+01 
          3.8000000000e-01 2.0550000000e+00 2.1640000000e+01 
          3.8000000000e-01 -2.0550000000e+00 2.2140000000e+01 
          3.8000000000e-01 -2.0550000000e+00 2.1640000000e+01 
          -0.0000000000e+00 -3.3500000000e+00 1.8440000000e+01 
          -3.8000000000e-01 -2.0550000000e+00 1.8940000000e+01 
          -3.8000000000e-01 -2.0550000000e+00 1.8440000000e+01 
          -0.0000000000e+00 3.3500000000e+00 1.8440000000e+01 
          -3.8000000000e-01 2.0550000000e+00 1.8940000000e+01 
          -3.8000000000e-01 2.0550000000e+00 1.8440000000e+01 
          3.8000000000e-01 2.0550000000e+00 1.8940000000e+01 
          3.8000000000e-01 2.0550000000e+00 1.8440000000e+01 
          3.8000000000e-01 -2.0550000000e+00 1.8940000000e+01 
          3.8000000000e-01 -2.0550000000e+00 1.8440000000e+01 
          -0.0000000000e+00 -3.3500000000e+00 1.5240000000e+01 
          -3.8000000000e-01 -2.0550000000e+00 1.5740000000e+01 
          -3.8000000000e-01 -2.0550000000e+00 1.5240000000e+01 
          -0.0000000000e+00 3.3500000000e+00 1.5240000000e+01 
          -3.8000000000e-01 2.0550000000e+00 1.5740000000e+01 
          -3.8000000000e-01 2.0550000000e+00 1.5240000000e+01 
          3.8000000000e-01 2.0550000000e+00 1.5740000000e+01 
          3.8000000000e-01 2.0550000000e+00 1.5240000000e+01 
          3.8000000000e-01 -2.0550000000e+00 1.5740000000e+01 
          3.8000000000e-01 -2.0550000000e+00 1.5240000000e+01 
          -5.2400000000e-01 0.0000000000e+00 2.3496000000e+01 
          5.2400000000e-01 0.0000000000e+00 2.3496000000e+01 
          4.0000000000e-02 5.0000000000e-02 2.5250000000e+01 
          -4.0000000000e-02 5.0000000000e-02 2.5250000000e+01 
          -4.0000000000e-02 -5.0000000000e-02 2.5250000000e+01 
          4.0000000000e-02 -5.0000000000e-02 2.5250000000e+01 
          1.3410000000e+00 0.0000000000e+00 6.3450000000e+00 
          1.2090000000e+00 0.0000000000e+00 8.3600000000e+00 
          1.0900000000e+00 -0.0000000000e+00 1.0180000000e+01 
          -0.0000000000e+00 1.3410000000e+00 6.3450000000e+00 
          0.0000000000e+00 1.2090000000e+00 8.3600000000e+00 
          -0.0000000000e+00 1.0900000000e+00 1.0180000000e+01 
          -1.3410000000e+00 0.0000000000e+00 6.3450000000e+00 
          -1.2090000000e+00 0.0000000000e+00 8.3600000000e+00 
          -1.0900000000e+00 -0.0000000000e+00 1.0180000000e+01 
          -0.0000000000e+00 -1.3410000000e+00 6.3450000000e+00 
          0.0000000000e+00 -1.2090000000e+00 8.3600000000e+00 
          0.0000000000e+00 -1.0900000000e+00 1.0180000000e+01 
          9.8300000000e-01 0.0000000000e+00 1.1820000000e+01 
          8.8700000000e-01 0.0000000000e+00 1.3296000000e+01 
          8.0000000000e-01 -0.0000000000e+00 1.4633000000e+01 
          0.0000000000e+00 9.8300000000e-01 1.1820000000e+01 
          -0.0000000000e+00 8.8700000000e-01 1.3296000000e+01 
          0.0000000000e+00 8.0000000000e-01 1.4633000000e+01 
          -9.8300000000e-01 0.0000000000e+00 1.1820000000e+01 
          -8.8700000000e-01 0.0000000000e+00 1.3296000000e+01 
          -8.0000000000e-01 0.0000000000e+00 1.4633000000e+01 
          0.0000000000e+00 -9.8300000000e-01 1.1820000000e+01 
          0.0000000000e+00 -8.8700000000e-01 1.3296000000e+01 
          0.0000000000e+00 -8.0000000000e-01 1.4633000000e+01 
        </DataArray>
      </Points>
      <Cells>
        <DataArray type="Int64" Name="connectivity" format="ascii">
          0
          1
          2
          3
          4
          5
          6
          7
          8
          9
          10
          11
          12
          13
          14
          15
          16
          17
          18
          19
          20
          21
          22
          23
          24
          25
          26
          27
          28
          29
          30
          31
          32
          33
          34
          35
          36
          37
          38
          39
          40
          41
          42
          43
          44
          45
          46
          47
          48
          49
          50
          51
          52
          53
          54
          55
          56
          57
          58
          59
          60
          61
          62
          63
          64
          65
          66
          67
          68
          69
          70
          71
          72
          73
          74
          75
          76
          77
          78
          79
          80
          81
          82
          83
          84
          85
          86
          87
          88
          89
          90
          91
          92
          93
          94
          95
          96
          97
          98
          99
          100
          101
          102
          103
          104
          105
          106
          107
          108
          109
          110
          111
          112
          113
          114
          115
          116
          117
          118
          119
          120
          121
          122
          123
          124
          125
          126
          127
          128
          129
          130
          131
          132
          133
          134
          135
          136
          137
          138
          139
          140
          141
          142
          143
          144
          145
          146
          147
          148
          149
          150
          151
          152
          153
          154
          155
          156
          157
        </DataArray>
        <DataArray type="Int64" Name="offsets" format="ascii">
          158
        </DataArray>
        <DataArray type="Int64" Name="types" format="ascii">
          2
        </DataArray>
      </Cells>
      <PointData>
        <DataArray type="Int64" Name="NodeTag" format="ascii">
          1
          2
          3
          4
          5
          6
          7
          8
          9
          10
          11
          12
          13
          14
          15
          16
          17
          18
          19
          20
          21
          22
          23
          24
          25
          26
          27
          28
          29
          30
          31
          32
          33
          34
          35
          36
          37
          38
          39
          40
          41
          42
          43
          44
          45
          46
          47
          48
          49
          50
          51
          52
          53
          54
          55
          56
          57
          58
          59
          60
          61
          62
          63
          64
          65
          66
          67
          68
          69
          70
          71
          72
          73
          74
          75
          76
          77
          78
          79
          80
          81
          82
          83
          84
          85
          86
          87
          88
          89
          90
          91
          92
          93
          94
          95
          96
          97
          98
          99
          100
          101
          102
          103
          104
          105
          106
          107
          108
          109
          110
          111
          112
          113
          114
          115
          116
          117
          118
          119
          120
          121
          122
          123
          124
          125
          126
          127
          128
          129
          130
          131
          132
          133
          134
          135
          136
          137
          138
          139
          140
          141
          142
          143
          144
          145
          146
          147
          148
          149
          150
          151
          152
          153
          154
          155
          156
          157
          158
        </DataArray>
        <DataArray type="Float64" Name="Displacement" NumberOfComponents="3" format="ascii">
          0.0000000000e+00 0.0000000000e+00 0.0000000000e+00 
          3.4246287452e-15 -7.7770553289e-16 1.9113128259e-16 
          0.0000000000e+00 0.0000000000e+00 0.0000000000e+00 
          6.3864097944e-16 -7.9701852548e-16 -3.4564861231e-16 
          5.5551371109e-16 -7.8731659761e-16 1.0284808198e-16 
          -4.1851028732e-17 -6.3571516968e-16 -9.2664228661e-17 
          1.0643792756e-15 -1.3309695202e-16 -9.6152686792e-17 
          1.1662997617e-16 -6.3133463499e-16 -6.0706626142e-17 
          -4.2448549407e-16 -1.4622929139e-16 -3.1476771215e-16 
          5.2108862736e-16 -2.3082377752e-15 4.0425023459e-17 
          0.0000000000e+00 0.0000000000e+00 0.0000000000e+00 
          5.5286775412e-16 -1.1214527866e-15 2.0385005997e-16 
          3.6726192601e-16 -7.8658996170e-16 1.5090624974e-17 
          1.4115798118e-16 -1.5873230510e-15 1.2568238888e-16 
          3.6625458595e-16 -6.0691825261e-16 1.7113766288e-16 
          4.0869290741e-15 -1.0740275612e-15 -2.3383162956e-16 
          0.0000000000e+00 0.0000000000e+00 0.0000000000e+00 
          6.6018661118e-16 -1.0702439828e-15 -2.2329507265e-16 
          1.2911001159e-15 -2.6819682951e-16 -1.6676774035e-16 
          1.3621738617e-16 -6.0260084971e-16 1.4354151772e-17 
          7.1167828433e-16 -2.6062673874e-16 -2.0163375704e-18 
          6.1178844095e-16 -8.0751481267e-16 2.1037084454e-17 
          -4.1546876518e-16 -7.1466186644e-16 -1.0659066597e-16 
          7.4365429829e-16 8.3238334407e-16 -3.4942662146e-16 
          4.3215397798e-16 -1.5626833155e-15 3.1157758956e-16 
          8.3848066117e-16 -1.3597189715e-15 -5.4467251460e-16 
          1.2317715872e-15 -2.1036039222e-15 -6.7870029745e-16 
          1.0293716251e-15 -2.2561675532e-15 5.5909102306e-16 
          1.8190766688e-15 -3.3505427987e-15 -7.1295048554e-16 
          1.0164112464e-15 -3.1238368432e-15 7.7869396639e-16 
          6.2093539629e-16 -1.6796522880e-15 4.8887384119e-16 
          8.8707262676e-16 -2.6697973393e-15 6.7270943295e-16 
          1.8188115458e-15 -3.8845962701e-15 7.6385078594e-16 
          3.9722449461e-16 -1.9209723158e-15 -3.4304325406e-16 
          1.1868044153e-15 -2.6181360677e-15 -5.4840821290e-16 
          1.6357903291e-15 -3.5752738761e-15 -7.3426842465e-16 
          1.7764962950e-15 -4.8316007813e-15 1.1057037785e-15 
          2.1269487969e-15 -4.3665388882e-15 -7.4896493762e-16 
          1.5223008457e-15 -6.1368298111e-15 1.3799490694e-15 
          1.8985465894e-15 -6.4117377287e-15 -6.9354415797e-16 
          1.7050859937e-15 -8.3996539872e-15 1.5965239988e-15 
          1.4535151787e-15 -8.1490222746e-15 -6.2962575193e-16 
          1.7103224861e-15 -4.9138045077e-15 8.9964576180e-16 
          2.0101906726e-15 -6.7326010590e-15 8.7059703210e-16 
          1.6705861392e-15 -8.3078798265e-15 8.5306411714e-16 
          1.9167663591e-15 -5.3283935089e-15 -9.8644779766e-16 
          1.9375869495e-15 -6.6714467561e-15 -1.2621826686e-15 
          1.3375146770e-15 -8.4738307319e-15 -1.4584668130e-15 
          8.3649976896e-16 -9.9122550630e-15 -5.6215278155e-16 
          1.3540051545e-15 -9.8601769869e-15 2.2282638722e-15 
          5.1550007062e-16 -9.8943104636e-15 7.6134768372e-16 
          -4.5473060582e-16 -1.3117457200e-14 2.9675027797e-15 
          -4.8479008822e-16 -1.2147291762e-14 -4.4406868921e-16 
          -1.3054485289e-15 -1.3957818696e-14 1.8716925196e-15 
          -5.6948755934e-15 -1.8568385036e-14 8.9789219600e-17 
          -4.6011863592e-15 -1.8476202306e-14 4.4490836311e-15 
          -1.4164851605e-14 -2.5681166974e-14 7.7131348869e-16 
          -1.3401945160e-14 -2.5454862807e-14 5.4493292666e-15 
          -4.9651404184e-15 -1.8507418068e-14 2.0948440502e-15 
          -2.0410918161e-15 -1.5572999483e-14 3.9523556248e-15 
          -3.1697239026e-15 -1.5512417799e-14 -1.7019008143e-16 
          -9.5971883545e-15 -2.1533418462e-14 4.0126892558e-16 
          -8.8214861364e-15 -2.2603511031e-14 5.0068079513e-15 
          -1.0122577077e-14 -2.3807002170e-14 3.3309519960e-15 
          -1.7835417846e-14 -2.8714421899e-14 5.5679234525e-15 
          -1.8412780414e-14 -2.8601709252e-14 9.1242475349e-16 
          1.3897329121e-15 -9.9934309792e-15 7.6294763804e-16 
          -2.0895741034e-15 -1.5558012574e-14 2.4751752153e-16 
          1.3766628300e-15 -9.7518901973e-15 1.3558629514e-15 
          -4.6239700756e-15 -1.8509446892e-14 -1.0490309285e-16 
          -1.3382130974e-14 -2.5070851425e-14 -9.3346458197e-16 
          4.3708389486e-16 -1.1971308812e-14 6.2970353220e-16 
          -7.8710015894e-16 -1.3584325705e-14 2.2950196166e-15 
          -4.6258196840e-15 -1.8309557173e-14 2.1968937445e-15 
          -8.8777340779e-15 -2.1226661742e-14 -5.0504844963e-16 
          -1.0962650961e-14 -2.4854288132e-14 2.2186968578e-15 
          -1.7853183925e-14 -2.7883622762e-14 -1.0387994760e-15 
          -2.1793265134e-14 -3.0276522439e-14 1.7049668288e-15 
          -2.3899013624e-14 -3.2529507936e-14 2.8934315396e-15 
          -2.3840337968e-14 -3.1931182457e-14 -5.0533906244e-16 
          8.2690511879e-16 -9.9767124248e-15 -2.1338838571e-15 
          -3.1316245693e-15 -1.5523910117e-14 -3.8841531713e-15 
          9.9507351321e-16 -9.9873103373e-15 -5.0624639535e-16 
          -5.7016846248e-15 -1.8480564653e-14 -4.3593010576e-15 
          -1.4122167540e-14 -2.4879451987e-14 -5.3666273650e-15 
          -1.2913167987e-15 -1.3379500467e-14 -2.9090716400e-15 
          -3.2910940425e-16 -1.4003509722e-14 -1.9953599164e-15 
          -3.8665760623e-15 -1.8474465015e-14 -2.0964920316e-15 
          -9.9260728471e-15 -2.2325573988e-14 -4.8703839767e-15 
          -1.1751569670e-14 -2.3368992391e-14 -3.3765662631e-15 
          -1.8427076399e-14 -2.7949540534e-14 -5.5001114732e-15 
          8.3635121885e-16 -1.0169924254e-14 -1.2397848307e-15 
          -1.7909125431e-15 -1.4746491114e-14 -2.1312551289e-15 
          -5.7112024788e-15 -1.9467805581e-14 -2.0485837234e-15 
          -1.1791062241e-14 -2.3198428138e-14 -2.3955619264e-15 
          -2.2022306390e-14 -3.2192511204e-14 -1.2446657765e-15 
          -2.3995591895e-14 -3.2497054259e-14 5.2781427391e-16 
          -2.3959858771e-14 -3.1916747957e-14 -3.0091516183e-15 
          -1.5778138958e-14 -2.5505357276e-14 -9.0097931969e-15 
          -1.9979710506e-14 -2.7328518021e-14 -8.1156586200e-15 
          -1.5445613753e-14 -2.5324839710e-14 -8.1439613468e-15 
          -1.2610409217e-14 -2.5128724509e-14 1.0782655762e-14 
          -1.4061562641e-14 -2.7062605321e-14 4.1068120430e-15 
          -8.7617630893e-15 -2.6313955969e-14 4.0807640678e-15 
          -1.4080837141e-14 -2.6579234244e-14 8.3036147049e-15 
          -8.7397487658e-15 -2.4072363206e-14 8.3202292655e-15 
          -2.0046848219e-14 -2.6076810223e-14 -4.2691867013e-15 
          -1.5391494060e-14 -2.5491779328e-14 -4.2582241335e-15 
          -3.0574011484e-15 -1.5302673511e-14 -1.0983947331e-14 
          -3.0205467189e-15 -1.6709107161e-14 -7.0391455117e-15 
          -1.6882001982e-15 -1.4990848924e-14 -7.0341913619e-15 
          -1.9799708935e-15 -1.5723626247e-14 9.0781778453e-15 
          4.0295540409e-15 -1.9120252154e-14 4.9600510013e-15 
          5.1393597327e-15 -1.7746837656e-14 4.9699174268e-15 
          4.0544902327e-15 -1.4867080643e-14 7.0286267777e-15 
          5.1170960115e-15 -1.3563643038e-14 7.0317897981e-15 
          -2.9951346748e-15 -1.7531115082e-14 -4.9188318080e-15 
          -1.7145820215e-15 -1.5814266744e-14 -4.9123251160e-15 
          1.8561075585e-15 -8.2524666640e-15 -5.8042312344e-15 
          -1.2126942304e-15 -1.0072095077e-14 -3.2990173783e-15 
          -1.8240603201e-15 -9.3658761452e-15 -3.2888794062e-15 
          1.9377568677e-15 -8.4540921867e-15 5.0404356363e-15 
          3.4043814830e-15 -9.6383170019e-15 3.2722354304e-15 
          3.0862108015e-15 -8.7464337672e-15 3.2802287575e-15 
          3.3888252861e-15 -8.7049988825e-15 3.3980812627e-15 
          3.1020386724e-15 -8.0528297390e-15 3.3914352584e-15 
          -1.1973061466e-15 -8.3394457765e-15 -3.2573802431e-15 
          -1.8339785382e-15 -7.1664433488e-15 -3.2596643433e-15 
          -1.8142858402e-14 -3.0502175475e-14 -3.3365393630e-15 
          -2.0611526529e-14 -3.1205664288e-14 2.5948246505e-15 
          -2.9282731174e-14 -3.6101599794e-14 4.7304899279e-16 
          -2.9302442402e-14 -3.6137527540e-14 -4.7658724023e-17 
          -2.9360033584e-14 -3.6109866116e-14 -5.0009984041e-16 
          -2.9379624963e-14 -3.6128984196e-14 1.2911552374e-17 
          6.7353336345e-15 -1.0476080475e-15 2.2140194842e-16 
          4.4525469747e-16 -1.7476457622e-15 -9.5632766194e-17 
          2.5317578944e-15 -2.6471733579e-15 2.0317476446e-16 
          5.1241222388e-16 5.9468031803e-16 3.5842338334e-16 
          7.5292322216e-16 -3.5090345529e-15 5.1549766807e-16 
          1.2172364857e-15 -3.0683630022e-15 3.8104950766e-16 
          7.3794120507e-15 -1.3747288810e-15 -2.9531353445e-16 
          7.7386425975e-16 -2.1560231203e-15 -2.1189738701e-17 
          2.2467536126e-15 -3.1278817487e-15 -1.0396260786e-16 
          6.0545483702e-16 2.6971988907e-15 -4.6757955333e-16 
          9.3153480738e-16 -4.6949918471e-15 -4.7469246324e-16 
          1.5109697232e-15 -3.4652606460e-15 -5.9051070106e-16 
          -1.9230072688e-15 -3.8520502288e-15 -3.4445935888e-16 
          3.1464161949e-15 -5.3932240367e-15 5.9279680839e-16 
          9.1676510715e-16 -7.2559605900e-15 2.1168082247e-16 
          1.6405790614e-15 -3.3547865075e-15 1.2135180918e-15 
          1.8149169667e-15 -5.9997159664e-15 8.6254918092e-16 
          1.7891593607e-15 -6.8272852355e-15 1.3818286022e-15 
          -1.1219013415e-15 -4.3531068907e-15 4.1568056462e-16 
          4.0747828504e-15 -5.8594542866e-15 -4.1060061555e-16 
          1.5606363167e-15 -7.5059257422e-15 -1.6693186635e-16 
          1.9427919911e-15 -3.6313694296e-15 -8.1628894176e-16 
          2.0381052352e-15 -5.2641463083e-15 -1.0342381950e-15 
          1.7117122596e-15 -7.3230032865e-15 -9.6487447518e-16 
        </DataArray>
        <DataArray type="Float64" Name="Reaction" NumberOfComponents="3" format="ascii">
          -9.0640021832e-10 2.1074376926e-08 1.0998887541e-07 
          3.1763631482e-09 1.1559792679e-09 2.2647976244e-09 
          2.3780589643e-08 6.7239716079e-09 -5.2729670380e-08 
          2.0808983923e-09 1.8770654518e-09 3.3835572938e-09 
          5.2701971424e-10 5.1791464188e-09 -1.7090811864e-09 
          -1.0814575456e-08 -9.7389681614e-09 -3.6250048356e-09 
          1.8208482728e-09 -7.7225710569e-10 -3.3673598655e-09 
          -8.3547616625e-10 -6.7999951130e-09 -4.6129985446e-09 
          -2.9784453956e-09 -1.2637812527e-09 1.1303143078e-09 
          -3.1055619311e-09 -1.3863281187e-09 4.3484006041e-09 
          -1.7227963018e-08 2.2576967410e-08 -1.3199506200e-07 
          -5.8111708739e-09 -8.0161536926e-11 -3.6319691605e-09 
          1.0500944181e-08 -8.0597212636e-10 -7.9829371287e-09 
          -1.6620209239e-09 7.0933320098e-09 1.0203050514e-08 
          6.8086878040e-09 -2.9662124482e-09 -2.8979286819e-09 
          1.0557252650e-08 -1.8506428543e-09 -5.0376755664e-09 
          1.3069585195e-08 1.3415165031e-08 3.5854170068e-08 
          -2.2165115882e-09 -3.5372454948e-09 8.2687123526e-10 
          -1.9288141217e-08 -5.3873634553e-09 -1.2852927983e-09 
          -4.2493746822e-09 -5.0737911049e-09 -2.1177587246e-10 
          7.3267162118e-09 -3.2691473525e-09 -1.7224867331e-09 
          -2.9723772243e-10 -6.5013355342e-09 4.3365745739e-09 
          -3.8441860323e-09 -1.2167498411e-08 6.8156913182e-09 
          1.1103212799e-08 1.1775019476e-08 -2.1406515128e-09 
          -7.4554101061e-09 -4.6455495882e-09 -4.8936022239e-10 
          -8.8870516551e-09 9.1798814331e-10 8.1332154135e-10 
          -2.8365295105e-09 3.6927944769e-10 1.2429712808e-09 
          -3.6343508058e-09 -2.1781374823e-09 8.0810375844e-10 
          2.4066511688e-09 4.7129621476e-10 1.7997929474e-09 
          -2.0627994732e-09 2.0053059497e-09 9.8822218432e-10 
          -1.1568522501e-08 1.1865251774e-09 9.0605305157e-10 
          -4.3409392484e-10 -4.7468624792e-09 7.5386863177e-11 
          2.6866025881e-09 -1.3640318668e-09 3.3148935595e-10 
          -1.1833935724e-08 -5.6737374632e-09 3.2181128529e-09 
          -5.8668347025e-10 -7.1261891756e-10 2.3936492938e-09 
          4.3267377373e-09 3.0915698255e-09 2.0396195999e-09 
          1.7446665526e-09 1.0706462081e-09 1.5390890986e-09 
          5.8665503833e-09 2.9303672947e-09 1.8412315836e-09 
          -3.3684487604e-09 2.3885012942e-09 1.2554855462e-09 
          5.7225992356e-12 -2.6099233798e-10 1.8620533472e-09 
          3.8046966332e-10 1.1437651031e-09 1.1018573306e-09 
          1.8034144243e-09 3.0862006708e-10 2.0647052002e-09 
          1.6402948792e-09 2.1121050217e-09 9.4262236241e-10 
          8.8072828498e-10 -9.5453828260e-10 1.2419569877e-09 
          -2.4636031836e-09 -1.6385014703e-09 2.7998879672e-09 
          4.3078323662e-09 -4.9915279233e-10 1.4710534978e-09 
          3.4113022062e-09 1.1969345418e-09 1.1282964151e-09 
          -4.4160007876e-11 -1.6076925331e-09 2.6178231851e-09 
          -6.8487638928e-10 -5.0927213242e-10 1.1405426956e-10 
          -1.1146039692e-09 7.0464565200e-10 -7.3643878203e-11 
          8.1476620237e-10 1.4103291574e-10 -5.0092005440e-10 
          4.0293329267e-11 7.7626560920e-10 -1.7959928033e-10 
          2.4671028257e-09 1.5840040566e-09 1.0628728844e-10 
          4.6021847529e-10 6.0982151210e-10 -9.6903544578e-11 
          3.1999827650e-10 3.2146469298e-10 -1.3933616229e-10 
          5.5497780195e-10 -3.2167743010e-10 1.5884252048e-10 
          1.7754772559e-09 8.9154740672e-10 1.1535425473e-09 
          -1.0194790415e-09 1.4626335218e-09 1.6754575001e-09 
          -1.8097027278e-09 3.4743282862e-11 1.5259061407e-10 
          4.1747048561e-09 7.2591823074e-10 9.1170089989e-10 
          1.4209419827e-09 1.8823061773e-09 -2.1492474776e-10 
          -2.2835207279e-11 -4.6991714564e-10 1.7616096854e-10 
          -4.2544247343e-11 5.6613329662e-11 9.8873312655e-10 
          -3.8559809700e-10 1.5839005404e-10 1.5753963347e-11 
          -1.1048592926e-09 3.1903571714e-10 -9.2786597248e-11 
          -1.1283669190e-09 -1.1222641761e-10 -6.9459132326e-10 
          -9.5902601007e-10 -2.4300856592e-10 1.2730052466e-09 
          3.2443343703e-09 -9.9362811699e-10 5.7320118586e-10 
          -1.4042329574e-09 2.5903579808e-09 8.7366911346e-10 
          3.8216123558e-10 -9.2718608568e-10 -3.3783926973e-10 
          1.9254202200e-10 -3.8190889568e-09 -6.6200823698e-10 
          2.2244497153e-09 6.6553388378e-10 1.0848027662e-09 
          1.0289378130e-09 -2.1615731097e-10 9.3782219708e-10 
          7.3278415263e-10 3.6437921728e-10 1.2188836223e-09 
          -1.3023633676e-09 -2.0738077936e-09 -3.2129762500e-10 
          -4.1547170496e-10 -1.1953611392e-09 1.6332476696e-10 
          -3.6921328712e-09 -2.9188763622e-09 9.8111741342e-10 
          -6.9205370881e-10 3.2885410289e-09 1.5765962687e-10 
          -5.4145862717e-10 -1.9258634063e-09 -8.4686690238e-10 
          5.9982704174e-10 -2.8620328425e-09 7.9308113372e-10 
          -7.7633758624e-10 -4.0307741133e-10 8.0075372684e-10 
          3.6150247504e-09 -8.7718848680e-12 5.3631538876e-11 
          6.9716454081e-10 -4.9497898626e-10 1.0783916077e-09 
          1.3521218964e-10 -1.4529723160e-09 -3.0099483823e-11 
          1.6618429712e-09 -1.0299446503e-09 -1.0561216894e-09 
          -8.7992443657e-10 -1.3966461229e-09 6.4448712885e-10 
          -6.1413246188e-10 -3.4171565969e-10 -5.3375718825e-10 
          2.2025796757e-09 -1.4822278871e-09 -3.5596441243e-10 
          -7.6862111175e-11 -2.5984335814e-09 -4.6294261308e-10 
          -7.7552827827e-10 -1.0117120947e-09 -8.4030693334e-10 
          -5.9322880768e-10 -2.4490195762e-09 7.4948572546e-10 
          -6.0475966631e-10 1.0103052066e-09 2.5293112758e-09 
          7.8925093351e-10 1.2926334206e-09 -5.0643165155e-10 
          4.5797433440e-10 -2.3361112744e-09 5.1253660061e-11 
          3.2762592580e-10 -1.9390051450e-10 1.9404535127e-12 
          -2.4396301025e-10 2.8726092906e-09 -3.5541480862e-10 
          -1.2649762025e-10 -1.5891442039e-09 -7.6903751992e-10 
          -6.3906482132e-11 -2.4793149681e-09 1.8799489595e-10 
          -2.5360639396e-09 -4.6622811798e-10 7.7932715357e-10 
          2.8436439432e-09 3.0352774084e-10 1.9967314578e-11 
          -5.8588892047e-09 -2.0408668430e-09 -1.5076257733e-10 
          -1.0135367402e-08 2.2092590289e-10 5.5626940725e-10 
          6.3657976760e-09 -3.2370702789e-09 8.2098490630e-10 
          -3.7199534476e-09 -3.8577204766e-10 5.4448780084e-10 
          6.2911908989e-09 3.1942123509e-09 -1.0408688404e-09 
          -3.9958538658e-09 3.9480914576e-10 -7.3414146775e-10 
          1.5335255759e-09 -8.5043979055e-10 -2.1123928373e-09 
          -6.1427495345e-09 1.3717582386e-09 -1.6113693528e-09 
          4.0591863408e-09 1.7188110614e-10 -1.9478771190e-09 
          2.2293106382e-09 -4.8462421002e-10 -2.2547250078e-09 
          -1.9035651888e-09 -1.2698714125e-09 -1.6110095266e-09 
          6.4306166382e-10 2.7815854530e-10 3.9534123433e-10 
          5.4787369448e-09 -1.5270070620e-09 -8.7498641273e-10 
          -5.0550283883e-11 1.5974544196e-10 -6.7042138206e-10 
          5.4457154676e-09 1.3352185596e-09 -1.9586992592e-10 
          -4.5052158290e-11 -1.1036905586e-10 -1.6133837508e-10 
          1.8244938905e-09 4.2195215378e-10 2.0058319653e-10 
          -1.9938420248e-09 1.3000050719e-09 1.1072555525e-10 
          -2.5176315577e-09 -5.0130048060e-10 -3.0387511052e-10 
          1.4353915368e-09 -6.4381508475e-10 3.0517943582e-09 
          -2.5136656889e-09 -8.1485654991e-10 2.2657069758e-09 
          -4.0571521340e-09 -9.9441749332e-10 -3.1058767490e-09 
          3.6718992269e-09 -9.2295322590e-10 2.7088373375e-09 
          -1.8988483060e-10 -1.4305765619e-09 1.9220795799e-09 
          3.8950144563e-09 2.3991285790e-09 -2.0006067249e-09 
          -7.4586665693e-10 -2.5221113879e-10 -1.3755130984e-09 
          1.6004764273e-09 -1.3049620942e-09 -1.8003979960e-09 
          -2.6491756017e-09 9.6762924454e-10 -1.2845917946e-09 
          2.2103957375e-09 -2.7951033186e-10 -1.2236347640e-09 
          -1.9274831118e-09 7.9564511932e-11 -5.9920726971e-10 
          3.4702241168e-10 -1.4939894714e-09 1.1564746961e-10 
          1.5074885089e-09 -6.9439586372e-10 -4.0408880997e-10 
          -8.2849590887e-10 -2.2123259949e-09 -3.5140930469e-10 
          3.3041187858e-10 5.9397591657e-11 2.3960417468e-10 
          1.1822190665e-09 -1.7420418576e-10 7.6856857136e-10 
          4.3537903151e-11 -2.0189470601e-10 4.7199301616e-10 
          1.3829532505e-10 1.1482820208e-10 9.6633583439e-10 
          -1.6129484674e-09 6.2806619814e-10 1.2151947051e-09 
          -1.0316898641e-09 -5.2428266738e-10 -4.8063826216e-10 
          -1.5926742664e-10 -5.8976189370e-11 -4.9330519051e-11 
          1.6756144104e-09 -5.8862673319e-10 1.4626615299e-09 
          -5.3267596189e-11 -6.1881459598e-10 -2.4501709618e-10 
          3.0297007949e-10 -1.3585055624e-10 -1.5286714156e-10 
          -1.7829976361e-09 8.0723423797e-10 9.5185823032e-10 
          -1.0974164901e-09 -8.1103357574e-10 2.0744661643e-10 
          3.2060793740e-10 -2.2672515598e-10 1.6135991841e-10 
          -1.6729224932e-09 5.3559133350e-10 -8.4375203098e-11 
          1.4603262592e-09 5.1616242085e-10 6.8866147749e-10 
          -1.6404024308e-10 2.3374849558e-10 4.6874676552e-10 
          4.8486777014e-10 3.7904636139e-10 7.3477019153e-10 
          -2.4461347034e-12 -7.4069683588e-10 -3.6133802180e-10 
          -3.7353105174e-10 5.8969737358e-10 1.1323906221e-09 
          -1.2519236815e-09 1.6662501207e-10 1.2137680882e-09 
          8.3239739524e-10 2.3307125068e-10 -1.1487132331e-10 
          -6.2308831023e-10 -1.1765666650e-10 1.7212481845e-10 
          1.3005458048e-09 2.6692278153e-10 1.1033943344e-09 
          9.9836005610e-10 3.5968276119e-10 5.9256930868e-11 
          1.3839310938e-10 5.4961441002e-10 1.0615333252e-09 
        </DataArray>
        <DataArray type="Float64" Name="UnbalancedLoad" NumberOfComponents="3" format="ascii">
          0.0000000000e+00 0.0000000000e+00 0.0000000000e+00 
          0.0000000000e+00 0.0000000000e+00 0.0000000000e+00 
          0.0000000000e+00 0.0000000000e+00 0.0000000000e+00 
          0.0000000000e+00 0.0000000000e+00 0.0000000000e+00 
          0.0000000000e+00 0.0000000000e+00 0.0000000000e+00 
          0.0000000000e+00 0.0000000000e+00 0.0000000000e+00 
          0.0000000000e+00 0.0000000000e+00 0.0000000000e+00 
          0.0000000000e+00 0.0000000000e+00 0.0000000000e+00 
          0.0000000000e+00 0.0000000000e+00 0.0000000000e+00 
          0.0000000000e+00 0.0000000000e+00 0.0000000000e+00 
          0.0000000000e+00 0.0000000000e+00 0.0000000000e+00 
          0.0000000000e+00 0.0000000000e+00 0.0000000000e+00 
          0.0000000000e+00 0.0000000000e+00 0.0000000000e+00 
          0.0000000000e+00 0.0000000000e+00 0.0000000000e+00 
          0.0000000000e+00 0.0000000000e+00 0.0000000000e+00 
          0.0000000000e+00 0.0000000000e+00 0.0000000000e+00 
          0.0000000000e+00 0.0000000000e+00 0.0000000000e+00 
          0.0000000000e+00 0.0000000000e+00 0.0000000000e+00 
          0.0000000000e+00 0.0000000000e+00 0.0000000000e+00 
          0.0000000000e+00 0.0000000000e+00 0.0000000000e+00 
          0.0000000000e+00 0.0000000000e+00 0.0000000000e+00 
          0.0000000000e+00 0.0000000000e+00 0.0000000000e+00 
          0.0000000000e+00 0.0000000000e+00 0.0000000000e+00 
          0.0000000000e+00 0.0000000000e+00 0.0000000000e+00 
          0.0000000000e+00 0.0000000000e+00 0.0000000000e+00 
          0.0000000000e+00 0.0000000000e+00 0.0000000000e+00 
          0.0000000000e+00 0.0000000000e+00 0.0000000000e+00 
          0.0000000000e+00 0.0000000000e+00 0.0000000000e+00 
          0.0000000000e+00 0.0000000000e+00 0.0000000000e+00 
          0.0000000000e+00 0.0000000000e+00 0.0000000000e+00 
          0.0000000000e+00 0.0000000000e+00 0.0000000000e+00 
          0.0000000000e+00 0.0000000000e+00 0.0000000000e+00 
          0.0000000000e+00 0.0000000000e+00 0.0000000000e+00 
          0.0000000000e+00 0.0000000000e+00 0.0000000000e+00 
          0.0000000000e+00 0.0000000000e+00 0.0000000000e+00 
          0.0000000000e+00 0.0000000000e+00 0.0000000000e+00 
          0.0000000000e+00 0.0000000000e+00 0.0000000000e+00 
          0.0000000000e+00 0.0000000000e+00 0.0000000000e+00 
          0.0000000000e+00 0.0000000000e+00 0.0000000000e+00 
          0.0000000000e+00 0.0000000000e+00 0.0000000000e+00 
          0.0000000000e+00 0.0000000000e+00 0.0000000000e+00 
          0.0000000000e+00 0.0000000000e+00 0.0000000000e+00 
          0.0000000000e+00 0.0000000000e+00 0.0000000000e+00 
          0.0000000000e+00 0.0000000000e+00 0.0000000000e+00 
          0.0000000000e+00 0.0000000000e+00 0.0000000000e+00 
          0.0000000000e+00 0.0000000000e+00 0.0000000000e+00 
          0.0000000000e+00 0.0000000000e+00 0.0000000000e+00 
          0.0000000000e+00 0.0000000000e+00 0.0000000000e+00 
          0.0000000000e+00 0.0000000000e+00 0.0000000000e+00 
          0.0000000000e+00 0.0000000000e+00 0.0000000000e+00 
          0.0000000000e+00 0.0000000000e+00 0.0000000000e+00 
          0.0000000000e+00 0.0000000000e+00 0.0000000000e+00 
          0.0000000000e+00 0.0000000000e+00 0.0000000000e+00 
          0.0000000000e+00 0.0000000000e+00 0.0000000000e+00 
          0.0000000000e+00 0.0000000000e+00 0.0000000000e+00 
          0.0000000000e+00 0.0000000000e+00 0.0000000000e+00 
          0.0000000000e+00 0.0000000000e+00 0.0000000000e+00 
          0.0000000000e+00 0.0000000000e+00 0.0000000000e+00 
          0.0000000000e+00 0.0000000000e+00 0.0000000000e+00 
          0.0000000000e+00 0.0000000000e+00 0.0000000000e+00 
          0.0000000000e+00 0.0000000000e+00 0.0000000000e+00 
          0.0000000000e+00 0.0000000000e+00 0.0000000000e+00 
          0.0000000000e+00 0.0000000000e+00 0.0000000000e+00 
          0.0000000000e+00 0.0000000000e+00 0.0000000000e+00 
          0.0000000000e+00 0.0000000000e+00 0.0000000000e+00 
          0.0000000000e+00 0.0000000000e+00 0.0000000000e+00 
          0.0000000000e+00 0.0000000000e+00 0.0000000000e+00 
          0.0000000000e+00 0.0000000000e+00 0.0000000000e+00 
          0.0000000000e+00 0.0000000000e+00 0.0000000000e+00 
          0.0000000000e+00 0.0000000000e+00 0.0000000000e+00 
          0.0000000000e+00 0.0000000000e+00 0.0000000000e+00 
          0.0000000000e+00 0.0000000000e+00 0.0000000000e+00 
          0.0000000000e+00 0.0000000000e+00 0.0000000000e+00 
          0.0000000000e+00 0.0000000000e+00 0.0000000000e+00 
          0.0000000000e+00 0.0000000000e+00 0.0000000000e+00 
          0.0000000000e+00 0.0000000000e+00 0.0000000000e+00 
          0.0000000000e+00 0.0000000000e+00 0.0000000000e+00 
          0.0000000000e+00 0.0000000000e+00 0.0000000000e+00 
          0.0000000000e+00 0.0000000000e+00 0.0000000000e+00 
          0.0000000000e+00 0.0000000000e+00 0.0000000000e+00 
          0.0000000000e+00 0.0000000000e+00 0.0000000000e+00 
          0.0000000000e+00 0.0000000000e+00 0.0000000000e+00 
          0.0000000000e+00 0.0000000000e+00 0.0000000000e+00 
          0.0000000000e+00 0.0000000000e+00 0.0000000000e+00 
          0.0000000000e+00 0.0000000000e+00 0.0000000000e+00 
          0.0000000000e+00 0.0000000000e+00 0.0000000000e+00 
          0.0000000000e+00 0.0000000000e+00 0.0000000000e+00 
          0.0000000000e+00 0.0000000000e+00 0.0000000000e+00 
          0.0000000000e+00 0.0000000000e+00 0.0000000000e+00 
          0.0000000000e+00 0.0000000000e+00 0.0000000000e+00 
          0.0000000000e+00 0.0000000000e+00 0.0000000000e+00 
          0.0000000000e+00 0.0000000000e+00 0.0000000000e+00 
          0.0000000000e+00 0.0000000000e+00 0.0000000000e+00 
          0.0000000000e+00 0.0000000000e+00 0.0000000000e+00 
          0.0000000000e+00 0.0000000000e+00 0.0000000000e+00 
          0.0000000000e+00 0.0000000000e+00 0.0000000000e+00 
          0.0000000000e+00 0.0000000000e+00 0.0000000000e+00 
          0.0000000000e+00 0.0000000000e+00 0.0000000000e+00 
          0.0000000000e+00 0.0000000000e+00 0.0000000000e+00 
          0.0000000000e+00 0.0000000000e+00 0.0000000000e+00 
          0.0000000000e+00 0.0000000000e+00 0.0000000000e+00 
          0.0000000000e+00 0.0000000000e+00 0.0000000000e+00 
          0.0000000000e+00 0.0000000000e+00 0.0000000000e+00 
          0.0000000000e+00 0.0000000000e+00 0.0000000000e+00 
          0.0000000000e+00 0.0000000000e+00 0.0000000000e+00 
          0.0000000000e+00 0.0000000000e+00 0.0000000000e+00 
          0.0000000000e+00 0.0000000000e+00 0.0000000000e+00 
          0.0000000000e+00 0.0000000000e+00 0.0000000000e+00 
          0.0000000000e+00 0.0000000000e+00 0.0000000000e+00 
          0.0000000000e+00 0.0000000000e+00 0.0000000000e+00 
          0.0000000000e+00 0.0000000000e+00 0.0000000000e+00 
          0.0000000000e+00 0.0000000000e+00 0.0000000000e+00 
          0.0000000000e+00 0.0000000000e+00 0.0000000000e+00 
          0.0000000000e+00 0.0000000000e+00 0.0000000000e+00 
          0.0000000000e+00 0.0000000000e+00 0.0000000000e+00 
          0.0000000000e+00 0.0000000000e+00 0.0000000000e+00 
          0.0000000000e+00 0.0000000000e+00 0.0000000000e+00 
          0.0000000000e+00 0.0000000000e+00 0.0000000000e+00 
          0.0000000000e+00 0.0000000000e+00 0.0000000000e+00 
          0.0000000000e+00 0.0000000000e+00 0.0000000000e+00 
          0.0000000000e+00 0.0000000000e+00 0.0000000000e+00 
          0.0000000000e+00 0.0000000000e+00 0.0000000000e+00 
          0.0000000000e+00 0.0000000000e+00 0.0000000000e+00 
          0.0000000000e+00 0.0000000000e+00 0.0000000000e+00 
          0.0000000000e+00 0.0000000000e+00 0.0000000000e+00 
          0.0000000000e+00 0.0000000000e+00 0.0000000000e+00 
          0.0000000000e+00 0.0000000000e+00 0.0000000000e+00 
          0.0000000000e+00 0.0000000000e+00 0.0000000000e+00 
          0.0000000000e+00 0.0000000000e+00 0.0000000000e+00 
          0.0000000000e+00 0.0000000000e+00 0.0000000000e+00 
          0.0000000000e+00 0.0000000000e+00 0.0000000000e+00 
          0.0000000000e+00 0.0000000000e+00 0.0000000000e+00 
          0.0000000000e+00 0.0000000000e+00 0.0000000000e+00 
          0.0000000000e+00 0.0000000000e+00 0.0000000000e+00 
          0.0000000000e+00 0.0000000000e+00 0.0000000000e+00 
          0.0000000000e+00 0.0000000000e+00 0.0000000000e+00 
          0.0000000000e+00 0.0000000000e+00 0.0000000000e+00 
          0.0000000000e+00 0.0000000000e+00 0.0000000000e+00 
          0.0000000000e+00 0.0000000000e+00 0.0000000000e+00 
          0.0000000000e+00 0.0000000000e+00 0.0000000000e+00 
          0.0000000000e+00 0.0000000000e+00 0.0000000000e+00 
          0.0000000000e+00 0.0000000000e+00 0.0000000000e+00 
          0.0000000000e+00 0.0000000000e+00 0.0000000000e+00 
          0.0000000000e+00 0.0000000000e+00 0.0000000000e+00 
          0.0000000000e+00 0.0000000000e+00 0.0000000000e+00 
          0.0000000000e+00 0.0000000000e+00 0.0000000000e+00 
          0.0000000000e+00 0.0000000000e+00 0.0000000000e+00 
          0.0000000000e+00 0.0000000000e+00 0.0000000000e+00 
          0.0000000000e+00 0.0000000000e+00 0.0000000000e+00 
          0.0000000000e+00 0.0000000000e+00 0.0000000000e+00 
          0.0000000000e+00 0.0000000000e+00 0.0000000000e+00 
          0.0000000000e+00 0.0000000000e+00 0.0000000000e+00 
          0.0000000000e+00 0.0000000000e+00 0.0000000000e+00 
          0.0000000000e+00 0.0000000000e+00 0.0000000000e+00 
          0.0000000000e+00 0.0000000000e+00 0.0000000000e+00 
          0.0000000000e+00 0.0000000000e+00 0.0000000000e+00 
          0.0000000000e+00 0.0000000000e+00 0.0000000000e+00 
          0.0000000000e+00 0.0000000000e+00 0.0000000000e+00 
        </DataArray>
      </PointData>
      <CellData>
        <DataArray type="Int64" Name="ElementTag" format="ascii">
          0
        </DataArray>
      </CellData>
    </Piece>
  </UnstructuredGrid>
</VTKFile>
