<?xml version="1.0"?>
<VTKFile type="UnstructuredGrid" version="1.0" byte_order="LittleEndian" compressor="vtkZLibDataCompressor">
  <UnstructuredGrid>
    <Piece NumberOfPoints="158" NumberOfCells="1">
      <Points>
        <DataArray type="Float64" Name="Points" NumberOfComponents="3" format="ascii">
          1.7550000000e+00 -1.7550000000e+00 0.0000000000e+00 
          1.4140000000e+00 0.0000000000e+00 5.2300000000e+00 
          1.7550000000e+00 1.7550000000e+00 -0.0000000000e+00 
          1.4140000000e+00 -1.4140000000e+00 5.2300000000e+00 
          1.4140000000e+00 1.4140000000e+00 5.2300000000e+00 
          1.5840000000e+00 8.7800000000e-01 2.6150000000e+00 
          1.5840000000e+00 -8.7700000000e-01 2.6150000000e+00 
          1.5840000000e+00 1.5840000000e+00 2.6150000000e+00 
          1.5840000000e+00 -1.5840000000e+00 2.6150000000e+00 
          -0.0000000000e+00 1.4140000000e+00 5.2300000000e+00 
          -1.7550000000e+00 1.7550000000e+00 -0.0000000000e+00 
          -1.4140000000e+00 1.4140000000e+00 5.2300000000e+00 
          -8.7700000000e-01 1.5840000000e+00 2.6150000000e+00 
          8.7700000000e-01 1.5840000000e+00 2.6150000000e+00 
          -1.5840000000e+00 1.5840000000e+00 2.6150000000e+00 
          -1.4140000000e+00 -0.0000000000e+00 5.2300000000e+00 
          -1.7550000000e+00 -1.7550000000e+00 -0.0000000000e+00 
          -1.4140000000e+00 -1.4140000000e+00 5.2300000000e+00 
          -1.5840000000e+00 -8.7700000000e-01 2.6150000000e+00 
          -1.5840000000e+00 8.7700000000e-01 2.6150000000e+00 
          -1.5840000000e+00 -1.5840000000e+00 2.6150000000e+00 
          0.0000000000e+00 -1.4140000000e+00 5.2300000000e+00 
          8.7700000000e-01 -1.5840000000e+00 2.6150000000e+00 
          -8.7700000000e-01 -1.5840000000e+00 2.6150000000e+00 
          1.2750000000e+00 1.2750000000e+00 7.3500000000e+00 
          1.2750000000e+00 -1.2750000000e+00 7.3500000000e+00 
          1.1500000000e+00 -1.1500000000e+00 9.2700000000e+00 
          1.1500000000e+00 1.1500000000e+00 9.2700000000e+00 
          1.0370000000e+00 -1.0370000000e+00 1.1000000000e+01 
          1.0370000000e+00 1.0370000000e+00 1.1000000000e+01 
          -1.2750000000e+00 1.2750000000e+00 7.3500000000e+00 
          -1.1500000000e+00 1.1500000000e+00 9.2700000000e+00 
          -1.0370000000e+00 1.0370000000e+00 1.1000000000e+01 
          -1.2750000000e+00 -1.2750000000e+00 7.3500000000e+00 
          -1.1500000000e+00 -1.1500000000e+00 9.2700000000e+00 
          -1.0370000000e+00 -1.0370000000e+00 1.1000000000e+01 
          9.3500000000e-01 9.3500000000e-01 1.2560000000e+01 
          9.3500000000e-01 -9.3500000000e-01 1.2560000000e+01 
          8.4300000000e-01 8.4300000000e-01 1.3960000000e+01 
          8.4300000000e-01 -8.4300000000e-01 1.3960000000e+01 
          7.6000000000e-01 7.6000000000e-01 1.5240000000e+01 
          7.6000000000e-01 -7.6000000000e-01 1.5240000000e+01 
          -9.3500000000e-01 9.3500000000e-01 1.2560000000e+01 
          -8.4300000000e-01 8.4300000000e-01 1.3960000000e+01 
          -7.6000000000e-01 7.6000000000e-01 1.5240000000e+01 
          -9.3500000000e-01 -9.3500000000e-01 1.2560000000e+01 
          -8.4300000000e-01 -8.4300000000e-01 1.3960000000e+01 
          -7.6000000000e-01 -7.6000000000e-01 1.5240000000e+01 
          7.6000000000e-01 -7.6000000000e-01 1.6240000000e+01 
          7.6000000000e-01 7.6000000000e-01 1.6240000000e+01 
          7.6000000000e-01 0.0000000000e+00 1.6240000000e+01 
          7.6000000000e-01 7.6000000000e-01 1.7340000000e+01 
          7.6000000000e-01 -7.6000000000e-01 1.7340000000e+01 
          7.6000000000e-01 0.0000000000e+00 1.7890000000e+01 
          7.6000000000e-01 -7.6000000000e-01 1.9440000000e+01 
          7.6000000000e-01 7.6000000000e-01 1.9440000000e+01 
          7.6000000000e-01 -7.6000000000e-01 2.1640000000e+01 
          7.6000000000e-01 7.6000000000e-01 2.1640000000e+01 
          7.6000000000e-01 0.0000000000e+00 1.9440000000e+01 
          7.6000000000e-01 7.6000000000e-01 1.8440000000e+01 
          7.6000000000e-01 -7.6000000000e-01 1.8440000000e+01 
          7.6000000000e-01 -7.6000000000e-01 2.0540000000e+01 
          7.6000000000e-01 7.6000000000e-01 2.0540000000e+01 
          7.6000000000e-01 0.0000000000e+00 2.1090000000e+01 
          7.6000000000e-01 7.6000000000e-01 2.2640000000e+01 
          7.6000000000e-01 -7.6000000000e-01 2.2640000000e+01 
          -7.6000000000e-01 7.6000000000e-01 1.6240000000e+01 
          -7.6000000000e-01 7.6000000000e-01 1.8440000000e+01 
          -0.0000000000e+00 7.6000000000e-01 1.6240000000e+01 
          -7.6000000000e-01 7.6000000000e-01 1.9440000000e+01 
          -7.6000000000e-01 7.6000000000e-01 2.1640000000e+01 
          -7.6000000000e-01 7.6000000000e-01 1.7340000000e+01 
          -0.0000000000e+00 7.6000000000e-01 1.7890000000e+01 
          -0.0000000000e+00 7.6000000000e-01 1.9440000000e+01 
          -7.6000000000e-01 7.6000000000e-01 2.0540000000e+01 
          0.0000000000e+00 7.6000000000e-01 2.1090000000e+01 
          -7.6000000000e-01 7.6000000000e-01 2.2640000000e+01 
          -0.0000000000e+00 5.2600000000e-01 2.3499000000e+01 
          3.9900000000e-01 4.0400000000e-01 2.3950000000e+01 
          -3.9900000000e-01 4.0400000000e-01 2.3950000000e+01 
          -7.6000000000e-01 -7.6000000000e-01 1.6240000000e+01 
          -7.6000000000e-01 -7.6000000000e-01 1.8440000000e+01 
          -7.6000000000e-01 -0.0000000000e+00 1.6240000000e+01 
          -7.6000000000e-01 -7.6000000000e-01 1.9440000000e+01 
          -7.6000000000e-01 -7.6000000000e-01 2.1640000000e+01 
          -7.6000000000e-01 -7.6000000000e-01 1.7340000000e+01 
          -7.6000000000e-01 0.0000000000e+00 1.7890000000e+01 
          -7.6000000000e-01 -0.0000000000e+00 1.9440000000e+01 
          -7.6000000000e-01 -7.6000000000e-01 2.0540000000e+01 
          -7.6000000000e-01 -0.0000000000e+00 2.1090000000e+01 
          -7.6000000000e-01 -7.6000000000e-01 2.2640000000e+01 
          0.0000000000e+00 -7.6000000000e-01 1.6240000000e+01 
          0.0000000000e+00 -7.6000000000e-01 1.7890000000e+01 
          0.0000000000e+00 -7.6000000000e-01 1.9440000000e+01 
          0.0000000000e+00 -7.6000000000e-01 2.1090000000e+01 
          0.0000000000e+00 -5.2600000000e-01 2.3499000000e+01 
          3.9900000000e-01 -4.0400000000e-01 2.3950000000e+01 
          -3.9900000000e-01 -4.0400000000e-01 2.3950000000e+01 
          -0.0000000000e+00 -3.3500000000e+00 2.1640000000e+01 
          -3.8000000000e-01 -2.0550000000e+00 2.2140000000e+01 
          -3.8000000000e-01 -2.0550000000e+00 2.1640000000e+01 
          0.0000000000e+00 3.3500000000e+00 2.1640000000e+01 
          -3.8000000000e-01 2.0550000000e+00 2.2140000000e+01 
          -3.8000000000e-01 2.0550000000e+00 2.1640000000e+01 
          3.8000000000e-01 2.0550000000e+00 2.2140000000e+01 
          3.8000000000e-01 2.0550000000e+00 2.1640000000e+01 
          3.8000000000e-01 -2.0550000000e+00 2.2140000000e+01 
          3.8000000000e-01 -2.0550000000e+00 2.1640000000e+01 
          -0.0000000000e+00 -3.3500000000e+00 1.8440000000e+01 
          -3.8000000000e-01 -2.0550000000e+00 1.8940000000e+01 
          -3.8000000000e-01 -2.0550000000e+00 1.8440000000e+01 
          -0.0000000000e+00 3.3500000000e+00 1.8440000000e+01 
          -3.8000000000e-01 2.0550000000e+00 1.8940000000e+01 
          -3.8000000000e-01 2.0550000000e+00 1.8440000000e+01 
          3.8000000000e-01 2.0550000000e+00 1.8940000000e+01 
          3.8000000000e-01 2.0550000000e+00 1.8440000000e+01 
          3.8000000000e-01 -2.0550000000e+00 1.8940000000e+01 
          3.8000000000e-01 -2.0550000000e+00 1.8440000000e+01 
          -0.0000000000e+00 -3.3500000000e+00 1.5240000000e+01 
          -3.8000000000e-01 -2.0550000000e+00 1.5740000000e+01 
          -3.8000000000e-01 -2.0550000000e+00 1.5240000000e+01 
          -0.0000000000e+00 3.3500000000e+00 1.5240000000e+01 
          -3.8000000000e-01 2.0550000000e+00 1.5740000000e+01 
          -3.8000000000e-01 2.0550000000e+00 1.5240000000e+01 
          3.8000000000e-01 2.0550000000e+00 1.5740000000e+01 
          3.8000000000e-01 2.0550000000e+00 1.5240000000e+01 
          3.8000000000e-01 -2.0550000000e+00 1.5740000000e+01 
          3.8000000000e-01 -2.0550000000e+00 1.5240000000e+01 
          -5.2400000000e-01 0.0000000000e+00 2.3496000000e+01 
          5.2400000000e-01 0.0000000000e+00 2.3496000000e+01 
          4.0000000000e-02 5.0000000000e-02 2.5250000000e+01 
          -4.0000000000e-02 5.0000000000e-02 2.5250000000e+01 
          -4.0000000000e-02 -5.0000000000e-02 2.5250000000e+01 
          4.0000000000e-02 -5.0000000000e-02 2.5250000000e+01 
          1.3410000000e+00 0.0000000000e+00 6.3450000000e+00 
          1.2090000000e+00 0.0000000000e+00 8.3600000000e+00 
          1.0900000000e+00 -0.0000000000e+00 1.0180000000e+01 
          -0.0000000000e+00 1.3410000000e+00 6.3450000000e+00 
          0.0000000000e+00 1.2090000000e+00 8.3600000000e+00 
          -0.0000000000e+00 1.0900000000e+00 1.0180000000e+01 
          -1.3410000000e+00 0.0000000000e+00 6.3450000000e+00 
          -1.2090000000e+00 0.0000000000e+00 8.3600000000e+00 
          -1.0900000000e+00 -0.0000000000e+00 1.0180000000e+01 
          -0.0000000000e+00 -1.3410000000e+00 6.3450000000e+00 
          0.0000000000e+00 -1.2090000000e+00 8.3600000000e+00 
          0.0000000000e+00 -1.0900000000e+00 1.0180000000e+01 
          9.8300000000e-01 0.0000000000e+00 1.1820000000e+01 
          8.8700000000e-01 0.0000000000e+00 1.3296000000e+01 
          8.0000000000e-01 -0.0000000000e+00 1.4633000000e+01 
          0.0000000000e+00 9.8300000000e-01 1.1820000000e+01 
          -0.0000000000e+00 8.8700000000e-01 1.3296000000e+01 
          0.0000000000e+00 8.0000000000e-01 1.4633000000e+01 
          -9.8300000000e-01 0.0000000000e+00 1.1820000000e+01 
          -8.8700000000e-01 0.0000000000e+00 1.3296000000e+01 
          -8.0000000000e-01 0.0000000000e+00 1.4633000000e+01 
          0.0000000000e+00 -9.8300000000e-01 1.1820000000e+01 
          0.0000000000e+00 -8.8700000000e-01 1.3296000000e+01 
          0.0000000000e+00 -8.0000000000e-01 1.4633000000e+01 
        </DataArray>
      </Points>
      <Cells>
        <DataArray type="Int64" Name="connectivity" format="ascii">
          0
          1
          2
          3
          4
          5
          6
          7
          8
          9
          10
          11
          12
          13
          14
          15
          16
          17
          18
          19
          20
          21
          22
          23
          24
          25
          26
          27
          28
          29
          30
          31
          32
          33
          34
          35
          36
          37
          38
          39
          40
          41
          42
          43
          44
          45
          46
          47
          48
          49
          50
          51
          52
          53
          54
          55
          56
          57
          58
          59
          60
          61
          62
          63
          64
          65
          66
          67
          68
          69
          70
          71
          72
          73
          74
          75
          76
          77
          78
          79
          80
          81
          82
          83
          84
          85
          86
          87
          88
          89
          90
          91
          92
          93
          94
          95
          96
          97
          98
          99
          100
          101
          102
          103
          104
          105
          106
          107
          108
          109
          110
          111
          112
          113
          114
          115
          116
          117
          118
          119
          120
          121
          122
          123
          124
          125
          126
          127
          128
          129
          130
          131
          132
          133
          134
          135
          136
          137
          138
          139
          140
          141
          142
          143
          144
          145
          146
          147
          148
          149
          150
          151
          152
          153
          154
          155
          156
          157
        </DataArray>
        <DataArray type="Int64" Name="offsets" format="ascii">
          158
        </DataArray>
        <DataArray type="Int64" Name="types" format="ascii">
          2
        </DataArray>
      </Cells>
      <PointData>
        <DataArray type="Int64" Name="NodeTag" format="ascii">
          1
          2
          3
          4
          5
          6
          7
          8
          9
          10
          11
          12
          13
          14
          15
          16
          17
          18
          19
          20
          21
          22
          23
          24
          25
          26
          27
          28
          29
          30
          31
          32
          33
          34
          35
          36
          37
          38
          39
          40
          41
          42
          43
          44
          45
          46
          47
          48
          49
          50
          51
          52
          53
          54
          55
          56
          57
          58
          59
          60
          61
          62
          63
          64
          65
          66
          67
          68
          69
          70
          71
          72
          73
          74
          75
          76
          77
          78
          79
          80
          81
          82
          83
          84
          85
          86
          87
          88
          89
          90
          91
          92
          93
          94
          95
          96
          97
          98
          99
          100
          101
          102
          103
          104
          105
          106
          107
          108
          109
          110
          111
          112
          113
          114
          115
          116
          117
          118
          119
          120
          121
          122
          123
          124
          125
          126
          127
          128
          129
          130
          131
          132
          133
          134
          135
          136
          137
          138
          139
          140
          141
          142
          143
          144
          145
          146
          147
          148
          149
          150
          151
          152
          153
          154
          155
          156
          157
          158
        </DataArray>
        <DataArray type="Float64" Name="Displacement" NumberOfComponents="3" format="ascii">
          0.0000000000e+00 0.0000000000e+00 0.0000000000e+00 
          -2.1538249331e-04 -7.1438351614e-05 -1.1890041214e-04 
          0.0000000000e+00 0.0000000000e+00 0.0000000000e+00 
          -2.7595463912e-05 -7.0213190022e-05 -8.0475594528e-04 
          8.1330208114e-05 -7.5648373777e-05 -6.8773863655e-04 
          -7.9952165921e-04 -1.2096134306e-03 -5.1951801153e-04 
          -1.8051448944e-03 1.2946713648e-03 -6.4032237090e-04 
          -1.0611522028e-03 -1.2084069556e-03 -5.0915260244e-04 
          -1.4117136510e-03 1.2936306277e-03 -5.9722977835e-04 
          7.9471420230e-05 -1.1968643926e-05 -1.0871215710e-04 
          0.0000000000e+00 0.0000000000e+00 0.0000000000e+00 
          8.1203639709e-05 -6.0877299739e-05 -6.9837297257e-04 
          1.2020662589e-03 -1.3408728111e-03 -5.5436945820e-04 
          -1.0627824301e-03 -1.4260572577e-03 -5.4087394958e-04 
          1.2007760941e-03 -1.2222623723e-03 -5.1945044450e-04 
          2.1615372552e-04 -5.7178105139e-05 -1.1599486514e-04 
          0.0000000000e+00 0.0000000000e+00 0.0000000000e+00 
          -1.2987632085e-05 -5.4631227142e-05 -7.7401917732e-04 
          1.7718817249e-03 1.2545971695e-03 -6.2110170280e-04 
          1.1390937889e-03 -1.2227974355e-03 -5.4276874129e-04 
          1.3146106706e-03 1.2534321302e-03 -5.7374185661e-04 
          -2.0189969769e-05 -5.5796934930e-05 -9.4592058472e-05 
          -1.4121010413e-03 1.0022761753e-03 -6.0242046841e-04 
          1.3153908605e-03 8.4790154016e-04 -5.6878992546e-04 
          1.5972753016e-04 7.7282280264e-05 -9.1075996245e-04 
          3.7487219000e-04 -4.3528593631e-04 -1.0564742544e-03 
          -1.1451619537e-04 -2.8738107547e-04 -1.3457719820e-03 
          2.9324218072e-04 -3.8406134644e-04 -1.1308940476e-03 
          3.0245643051e-04 -6.6145531367e-04 -1.4910275861e-03 
          9.3709628566e-05 -3.7074675113e-04 -1.2971389917e-03 
          5.6709303087e-05 5.7390921154e-05 -9.2038573295e-04 
          -3.9246708245e-05 -2.0057972442e-04 -1.1299090158e-03 
          1.7147236275e-04 -2.5777011525e-04 -1.3016401770e-03 
          -3.6633015721e-04 -3.0951973875e-04 -1.0227030767e-03 
          1.8434321442e-04 -2.4965970195e-04 -1.3023294460e-03 
          -1.7690190140e-04 -4.3064801723e-04 -1.4591450942e-03 
          2.6447466318e-04 -6.9703973954e-04 -1.4723976847e-03 
          6.6448756500e-05 -7.3546496873e-04 -1.7206921955e-03 
          1.6583909244e-04 -8.3175881280e-04 -1.6269071379e-03 
          2.4039604638e-04 -1.0266517860e-03 -1.8647566083e-03 
          1.7896943632e-04 -1.1660969643e-03 -1.7565635618e-03 
          1.6366556054e-04 -1.1356388302e-03 -2.0093451182e-03 
          1.1999310808e-05 -4.3680803153e-04 -1.4649380706e-03 
          1.2748704996e-04 -5.7263301092e-04 -1.6195474952e-03 
          1.3738875189e-04 -8.5622878967e-04 -1.7451829447e-03 
          1.1829170666e-04 -5.4117861035e-04 -1.6856053504e-03 
          3.9175899602e-07 -7.3824086008e-04 -1.8403731349e-03 
          1.3024819022e-04 -8.2882696261e-04 -1.9906345773e-03 
          1.5588525525e-04 -1.3565925868e-03 -2.1870160914e-03 
          1.7465057585e-04 -1.3280411317e-03 -1.8952826169e-03 
          3.5663255190e-04 -1.3429472945e-03 -1.9512042744e-03 
          3.8764358047e-04 -1.3714656986e-03 -2.0193371115e-03 
          4.1136411633e-04 -1.8726114238e-03 -2.3542904538e-03 
          6.0941627772e-04 -1.7555488780e-03 -2.4968830651e-03 
          1.4463398343e-04 -2.1813900270e-03 -2.6820513138e-03 
          1.8570167668e-04 -2.1242689182e-03 -2.3235471025e-03 
          6.9325115937e-05 -2.6311679531e-03 -2.8656915948e-03 
          1.4607923943e-04 -2.6944364098e-03 -2.5215572595e-03 
          8.7472836708e-04 -2.1511223966e-03 -2.4380776546e-03 
          2.0528026278e-04 -1.9294225652e-03 -2.2316168156e-03 
          1.6194727866e-04 -1.8677158208e-03 -2.5939444398e-03 
          2.3774436503e-04 -2.5606419018e-03 -2.7529710267e-03 
          2.9321935108e-04 -2.2614637355e-03 -2.3999198432e-03 
          4.0696360233e-04 -2.5386676624e-03 -2.7635254591e-03 
          1.2261020574e-04 -2.8506838765e-03 -2.5669068629e-03 
          1.7118829651e-05 -2.9237782664e-03 -2.9032878648e-03 
          1.8094609628e-04 -1.0082134623e-03 -1.8877164567e-03 
          1.8453105488e-04 -1.5913216562e-03 -2.2401842392e-03 
          1.7759766491e-04 -1.2339503884e-03 -1.8326796936e-03 
          1.9491394647e-04 -1.7900441827e-03 -2.3401430485e-03 
          1.3819504366e-04 -2.4144914225e-03 -2.5549500600e-03 
          -5.5462141063e-06 -1.0301734427e-03 -2.0162659467e-03 
          1.9511687384e-04 -1.8272405730e-03 -2.2589758444e-03 
          1.8949693604e-04 -2.3458799009e-03 -2.2912346970e-03 
          4.1370098229e-05 -1.9374414994e-03 -2.4239161652e-03 
          1.5632034112e-04 -2.6090653029e-03 -2.5636947390e-03 
          1.1400867869e-04 -2.5859167067e-03 -2.6026640060e-03 
          5.6594010344e-05 -2.9886813335e-03 -2.6741096733e-03 
          2.8011977625e-05 -3.1478609990e-03 -2.6947391652e-03 
          2.3261396998e-05 -2.9763701449e-03 -2.7026184339e-03 
          1.6252537672e-04 -1.0362471848e-03 -2.1763388881e-03 
          1.5388346123e-04 -1.5346441762e-03 -2.6097555694e-03 
          2.4187233507e-05 -1.0224090960e-03 -1.9394604324e-03 
          1.5359822995e-04 -1.8489236321e-03 -2.7141095138e-03 
          6.3792261028e-05 -2.3489003364e-03 -2.9329683872e-03 
          -8.7442876851e-05 -1.5517496268e-03 -2.3521611779e-03 
          -2.3601445951e-04 -1.4208572091e-03 -2.5069301348e-03 
          -4.9628335835e-04 -1.8188529545e-03 -2.4579028251e-03 
          -1.4301178913e-05 -2.2695333187e-03 -2.8030637171e-03 
          -1.5812928896e-04 -2.2427780726e-03 -2.8192018500e-03 
          1.0539810261e-05 -2.6641534696e-03 -2.9793366258e-03 
          1.5931568194e-04 -1.0014784646e-03 -2.1052346484e-03 
          1.6313298385e-04 -1.4002116861e-03 -2.6500193024e-03 
          1.4895257941e-04 -1.7168530549e-03 -2.6546465883e-03 
          9.2388553946e-05 -2.2193840770e-03 -2.9280074948e-03 
          9.1573470259e-06 -2.8810133178e-03 -2.9324335359e-03 
          1.6525136137e-06 -3.1427420104e-03 -2.8587519654e-03 
          4.0708324662e-06 -2.9717325686e-03 -2.9144744087e-03 
          -3.9256519685e-04 -2.4479427503e-03 -4.0674989966e-03 
          -1.9525499568e-04 -2.5947771967e-03 -3.4815651774e-03 
          -1.3733435850e-04 -2.3901640396e-03 -3.4853298998e-03 
          6.1028267011e-04 -2.5979743891e-03 -2.5024024610e-03 
          2.2540368919e-04 -2.5072163666e-03 -2.4929940662e-03 
          2.7316525887e-04 -2.4774987089e-03 -2.4969000835e-03 
          2.2522968772e-04 -2.7253669127e-03 -2.4811175305e-03 
          2.7294899211e-04 -2.6775279278e-03 -2.4846081270e-03 
          -1.9538451342e-04 -2.7284941251e-03 -3.4215158391e-03 
          -1.3741585736e-04 -2.5462800314e-03 -3.4250709736e-03 
          -4.0421050590e-04 -1.6598950296e-03 -3.8547421721e-03 
          -1.4676733407e-04 -1.8119484071e-03 -3.2069623763e-03 
          -1.2284038381e-04 -1.5963734127e-03 -3.2106538543e-03 
          7.8522768871e-04 -1.8065165890e-03 -2.1753304160e-03 
          4.4631283466e-04 -1.7339038533e-03 -2.1770249924e-03 
          4.4026328346e-04 -1.6865393817e-03 -2.1806611283e-03 
          4.4520464963e-04 -1.9257071470e-03 -2.1678572042e-03 
          4.3983927193e-04 -1.8853231436e-03 -2.1715304345e-03 
          -1.4749316812e-04 -1.9668995103e-03 -3.1881263562e-03 
          -1.2299752432e-04 -1.7631913996e-03 -3.1916562196e-03 
          -3.9082181819e-04 -9.3574458869e-04 -3.0910083731e-03 
          -1.7553785477e-04 -1.0745913050e-03 -2.5035933656e-03 
          -2.0135388312e-04 -9.0243641247e-04 -2.5071918643e-03 
          7.0524510251e-04 -1.0571376743e-03 -1.8395542016e-03 
          3.9139077458e-04 -9.6154370136e-04 -1.7741294086e-03 
          4.2244922966e-04 -9.5711854957e-04 -1.7779041752e-03 
          3.9112125421e-04 -1.1437850074e-03 -1.7560343072e-03 
          4.2252389116e-04 -1.1175621131e-03 -1.7595717473e-03 
          -1.7604973111e-04 -1.1939230794e-03 -2.5246105169e-03 
          -2.0138653136e-04 -1.0097168960e-03 -2.5282456063e-03 
          7.6334356932e-05 -2.8523283180e-03 -2.8307784327e-03 
          -3.6375932715e-05 -3.0581897075e-03 -2.7966271451e-03 
          -3.9711838924e-05 -3.3283961934e-03 -2.7714739361e-03 
          -3.9638521717e-05 -3.3351186369e-03 -2.7881144086e-03 
          -3.0698646872e-05 -3.3349778253e-03 -2.8155073468e-03 
          -3.0752557997e-05 -3.3283721166e-03 -2.8128463253e-03 
          4.7290556738e-03 -1.1448320158e-04 -4.1940718284e-04 
          -4.9496017349e-04 -2.5220278500e-04 -1.3579502463e-03 
          -1.7192131669e-04 -4.2268879229e-04 -1.2255977970e-03 
          9.5120265858e-05 6.2912300706e-03 -3.7719071726e-04 
          1.1916080828e-04 2.2854973753e-03 -8.0670461764e-04 
          1.3043038411e-04 2.0368019728e-04 -1.3207938116e-03 
          -3.4334868472e-03 -8.1399584667e-05 -5.3237637531e-04 
          8.4065586503e-04 -1.6997339715e-04 -1.2623976399e-03 
          1.7521014433e-04 -2.7989022646e-04 -1.2788371697e-03 
          -1.0350436767e-05 -1.4446251045e-03 -6.1303507773e-04 
          1.8792562229e-05 1.6200502056e-03 -1.6471237607e-03 
          4.8546517719e-05 1.7653845191e-04 -1.2032057872e-03 
          9.6307954354e-05 -6.1129243637e-04 -1.5878843769e-03 
          1.6154011565e-04 -8.2191151198e-04 -1.6298764033e-03 
          1.0467908771e-04 -1.0387983566e-03 -1.8959003821e-03 
          1.3521189653e-04 -4.3000873904e-04 -1.2885550724e-03 
          1.4280710394e-04 -7.5212664917e-04 -1.6267188126e-03 
          1.5276993443e-04 -1.1133201963e-03 -1.7092130315e-03 
          4.5791970203e-05 -4.0964786357e-04 -1.5085865825e-03 
          2.0513218143e-04 -5.6883819675e-04 -1.6485808843e-03 
          2.7222747032e-04 -7.4533052517e-04 -1.8766212235e-03 
          7.7288440487e-05 -2.7412477143e-04 -1.7839573942e-03 
          1.0700750189e-04 -7.5797384290e-04 -1.6935406056e-03 
          1.3424888692e-04 -5.7245539797e-04 -2.0187378873e-03 
        </DataArray>
        <DataArray type="Float64" Name="Reaction" NumberOfComponents="3" format="ascii">
          -8.7712346351e+03 1.0485104973e+04 1.3292749209e+05 
          -2.0122092555e+02 -4.6701786726e+01 9.6440836561e+00 
          -1.0261309570e+04 -8.2901832893e+03 1.1995644652e+05 
          1.3760344729e+03 -1.3558196599e+03 -2.2463736089e+03 
          4.8216980529e+02 9.7454311046e+02 -9.5193163999e+02 
          9.1861724255e+02 -1.1938250861e+02 -1.0335590911e+01 
          -8.1045239422e+02 -4.1071861484e+02 3.9052472275e-01 
          2.5582533442e+02 -5.4635292752e+01 5.5135869049e-01 
          -3.0839549308e+02 -2.8929033306e+02 1.3995502071e+00 
          1.3846040410e+02 7.4568442273e+02 7.8053600594e+00 
          8.1379685020e+03 -7.7141641394e+03 1.1392027919e+05 
          -1.4933187833e+02 2.2092098881e+02 -4.0793863505e+02 
          -2.6175055401e+02 -1.2590601558e+02 -4.5101172047e+00 
          2.6027563306e+02 1.9029042607e+02 -4.1626733113e+00 
          -3.1156210456e+02 -2.8126437313e+02 1.1621692571e+00 
          -2.3786981267e+02 -2.3591794269e+02 8.7241316989e+00 
          9.2219840474e+03 1.0280070108e+04 1.3070606569e+05 
          -1.5543755137e+03 -1.0179656886e+03 -1.7203893486e+03 
          5.1715531196e+02 -3.5904289799e+02 -9.1514576993e+00 
          -2.1161630597e+02 -4.1788451083e+02 8.7615810149e-01 
          7.9541029451e+01 -2.0888741806e+02 5.1032527318e-02 
          -1.2591712992e+02 -7.3123374246e+01 3.7152641100e+00 
          -4.3205204199e+02 1.2852978692e+02 8.4510494652e-01 
          2.0553933954e+02 -2.7896738501e+02 -3.4814900080e+00 
          -8.9599833199e+02 2.0392541207e+03 8.5110753989e+02 
          3.4538371735e+03 -1.6966258596e+03 2.7558216651e+03 
          -8.4153607669e+02 2.2755821607e+02 5.6515787411e+01 
          2.4591025122e+03 -2.3680113696e+02 4.1739571163e+02 
          8.5045305040e+02 -2.2710161069e+02 9.5879747101e+01 
          -9.3868441351e+02 2.6196444436e+02 3.7688087049e+01 
          1.0730475202e+03 3.4465042097e+02 2.2721216762e+02 
          -2.0107897048e+03 3.4169437299e+02 3.2436136421e+02 
          9.8582621552e+02 -1.8130999543e+02 3.7354361199e+01 
          -3.6040700371e+03 -6.0083923192e+02 2.0878823744e+03 
          1.0239081595e+03 -5.1118150510e+02 7.5628162794e+01 
          -8.8083181913e+02 3.1074758793e+02 3.1481329801e+01 
          5.8537962473e+02 5.4751533766e+01 3.8361587037e+01 
          -5.1921594997e+02 6.4007851260e+00 5.5040411034e+00 
          -3.5529844318e+02 -1.8862853284e+01 -1.1715895750e+01 
          1.5318015154e+02 4.9962159560e+01 1.2336822966e+01 
          -4.6667590371e+00 1.4751012722e+02 4.6278541524e+00 
          -5.6705760027e+01 1.1593653604e+02 1.9274986481e+01 
          -6.8429118357e+02 2.9467503918e+02 1.0808524560e+01 
          1.8906041487e+02 1.1961323105e+02 -1.2594567776e+01 
          -7.9412171020e+01 2.1632081291e+02 9.3260957911e+00 
          5.1563519921e+02 -8.4517427570e+01 1.8687546346e+01 
          -2.8699718160e+02 2.0445584374e+02 5.5936250358e+00 
          -3.9977851238e+01 2.0256810924e+02 1.8698501230e+01 
          2.4990951764e+01 2.2162963624e+01 9.8294511181e-01 
          2.7176549079e+01 5.0430226160e+01 4.1038618723e-01 
          3.6144555134e+02 -2.5427606132e+01 1.1449325089e+00 
          1.0223312116e+02 -9.2993398020e+00 -2.9794329425e+01 
          8.9395908948e+01 -7.7386204540e+01 -2.0283663432e+01 
          3.6965689474e+02 -6.8944550628e+01 -1.4673702907e+00 
          1.4037391533e+02 -3.1318103692e+02 4.0551815916e-01 
          5.1883190863e+01 9.5712706402e+01 5.9013389781e-01 
          1.2859919333e+02 -6.9576763452e+01 2.0399448951e+01 
          -2.2218422896e+01 -1.3322203777e+02 2.1623043536e+01 
          1.4262695039e+03 -1.7407206600e+02 -3.1209358111e+00 
          2.0886051859e+02 -2.0397757127e+02 -3.6323167693e+01 
          3.8343407724e+01 -2.7457365811e+02 -4.0536767424e+01 
          1.2266996950e+02 -1.2940483041e+02 5.5764750900e+01 
          7.2823776365e+01 -9.3312969248e+01 4.7793145044e+01 
          1.7413312056e+02 -4.9810359387e+01 -5.4141126711e+00 
          -9.2433332032e+01 -2.1421976080e+01 4.7524608458e-01 
          -5.4036837406e+00 -1.3906106986e+01 -7.6636705336e-01 
          8.1987875619e+00 7.2620366368e+01 6.0807785253e-01 
          3.2887926972e+01 -8.1122136494e+01 -4.7946572457e+01 
          7.9496307387e+01 2.7760529542e+01 6.4671156528e+00 
          2.4189790331e+01 1.3669338199e+02 4.1184039859e-01 
          -5.3724699739e+01 -3.1884780594e+01 1.7598956297e+01 
          7.6099104712e+00 4.1790021730e+01 -3.3964859263e+01 
          4.9099451975e+01 -3.8028224534e+02 1.1071820352e+01 
          9.4596173747e+01 -3.3421522520e+02 3.9293026818e+00 
          -2.0275581369e+01 -1.2464664682e+01 3.6396821597e+01 
          -2.2298552990e+01 -2.6794079945e+02 3.0583562082e-01 
          -9.2459598991e+01 1.2462572930e+02 2.5275507994e-01 
          -3.7517323419e+01 9.1426895511e+01 -9.6620450738e-02 
          -5.0599262689e+01 4.7233767677e+01 1.1883510411e-01 
          -8.1729832451e+01 9.1189641375e+01 3.5071292245e-01 
          6.4315023222e+00 5.7280660013e+01 4.6009045713e-01 
          4.0076000506e+01 -2.0923698479e+02 -6.3543193040e+01 
          -2.2793276352e+02 1.3454678252e+02 2.7993954155e-01 
          3.3826377867e+01 -3.3736259532e+02 3.6212644820e-01 
          1.3493987850e+02 -4.1440865866e+01 2.4610025227e+01 
          -6.4607861977e+01 -7.3472169950e+01 -2.0511552775e+01 
          -3.4150996967e+02 1.0719845858e+01 2.0756814258e+00 
          -1.3331691215e+03 -8.0178098888e+01 2.8488891627e+01 
          6.0187459604e+01 -1.1915305463e+02 5.3158983780e+01 
          -2.0034429514e+02 -1.4628789556e+00 5.4452657665e+00 
          -1.4643628635e+01 1.1492541051e+02 -1.0557982965e+00 
          -3.1742929001e+01 6.1579912629e+02 -6.4886991753e+00 
          -3.8679270153e+01 3.5303105864e+02 -9.2262390127e+00 
          8.9550709225e+01 1.8562638403e+02 -3.8382106744e+00 
          2.7271563239e+01 2.2829972079e+02 -1.8134534136e-01 
          -2.0829844607e+00 1.0336255520e+02 -4.3285183324e-01 
          -1.7277459120e+01 4.4414170936e+01 7.8904201086e-01 
          -1.8379282684e+01 9.3980482009e+01 6.8418471838e-01 
          4.7303581892e+01 3.4659049976e+01 -5.2425603731e-02 
          -2.6096911553e+01 2.0782826015e+00 1.3741700827e+00 
          1.0442602644e+01 2.0986255017e-01 -1.3534305291e+00 
          2.7061976379e+01 -7.1966929339e+01 -1.0363735300e+00 
          -1.0107642575e+02 4.2076482014e+01 2.3462372807e+00 
          1.5688571943e+01 -4.6567552038e+01 -1.5628984437e+00 
          -9.2765012130e+01 -4.7906346851e+01 2.1194322279e+00 
          2.0278664088e+01 -5.1723332997e+01 -1.4025289352e+00 
          -2.4714876784e+01 2.3960393407e+01 1.4004499869e+00 
          1.2377938685e+01 1.7206803440e+01 -1.4377910644e+00 
          -2.9018181134e+01 -3.3607869343e+01 -1.7561905719e-01 
          -2.2251607800e+01 -1.0034114653e+02 7.7057713324e-01 
          -1.4322086726e+01 -3.8725525949e+01 -4.8803293678e-01 
          1.9578609516e+02 -1.1422830250e+02 -1.1783785820e-01 
          6.5370456157e+01 -3.8548655167e+01 7.9194538059e-01 
          -2.9163335898e+01 -3.2936189824e+01 -8.3776442707e-01 
          6.8201299101e+01 -1.3728772979e+02 2.8135093595e-01 
          -3.3980132678e+01 -1.3873805005e+02 -4.0676211352e-01 
          -2.9325995184e+01 -6.2856245109e+01 3.9486046894e-01 
          -1.5346068387e+01 -3.2627653410e+01 -3.5011083414e-01 
          -7.2882382185e+01 4.8078892579e+01 -2.4332025938e+00 
          -1.5549097504e+01 6.6455419189e+01 2.2223286987e+00 
          -8.9539140084e+01 3.0861620222e+01 -1.1650224324e+00 
          3.8439193310e+01 5.3795167269e+01 -2.0791643448e+00 
          -3.2693799870e+00 6.8022557603e+01 1.7461285993e+00 
          2.8806710035e+01 3.1512559912e+01 -9.1358043320e-01 
          -1.0572666652e+01 2.5377938983e+01 2.7149272966e+00 
          3.5897822373e+01 3.7203328633e+01 -1.5502812651e+00 
          -2.2201573557e+01 2.8837324911e+01 3.1533360142e+00 
          -8.3278385717e+01 5.3119195475e+01 -1.7677038568e+00 
          -7.1588488229e+01 5.9859485310e+01 6.5563431688e-01 
          -6.1643647093e+01 2.0203968322e+01 5.0590173826e-01 
          -4.1017166489e+01 6.0336136066e+01 -3.3678281120e-01 
          -4.4690501746e+01 4.4650246590e+01 8.5954160044e-01 
          -2.4261232554e+01 3.6571295983e+01 1.1881291219e+00 
          -2.0464939234e+01 5.2468924539e+01 -6.8781972528e-02 
          1.0456024506e+03 2.3393167462e+02 -5.2980480970e+02 
          -7.4070513225e+01 7.1463250307e+00 1.0212211740e+01 
          -1.0892083577e+01 2.7443082103e+01 -2.9014702468e+01 
          1.6410939812e+01 1.2329426487e+03 -1.5249411181e+01 
          3.6882541403e+01 5.5316996842e+02 -2.5461459934e+02 
          1.3720150624e+01 1.1270591191e+02 5.9994487488e+00 
          -8.2661367840e+02 4.8447358998e+01 -2.3174390346e+02 
          8.8966910040e+01 -2.6591951587e+01 -3.9437572781e-01 
          -5.3091721986e+01 1.8027058427e+01 -1.0325375611e+01 
          -5.4725964537e+01 -3.4937330835e+02 -7.4619389848e+02 
          -3.0356105961e+00 3.3456142493e+02 1.0512342267e+01 
          2.0176108446e+00 9.1825138872e+01 1.9909958906e+00 
          2.4392515239e+00 1.0373046421e+01 7.6833545296e+00 
          6.7616913184e+00 1.2356964841e+01 -2.4911820379e-01 
          -1.0155473098e+02 1.7657887413e+01 -2.8152800021e-01 
          -1.4368073180e+01 5.2464863222e+01 -1.0030010823e+01 
          -2.0205674849e+01 -9.0575064149e+00 -5.5841151062e-01 
          -1.5054172417e+01 -1.5057608385e+02 6.8415663714e+00 
          -4.2745129068e+01 2.2312637358e+01 6.0668704911e+00 
          5.4859758840e+01 3.6293447573e+01 -3.0435104473e+00 
          1.4860861497e+02 5.2665026192e+01 4.1366662278e-01 
          -2.1583667152e+00 9.8466548384e+01 -4.9472938794e+00 
          -6.7107757019e+00 -5.4392920059e+01 8.4229910191e+00 
          -2.9687107519e+01 3.0632331086e+02 -1.2537708162e+01 
        </DataArray>
        <DataArray type="Float64" Name="UnbalancedLoad" NumberOfComponents="3" format="ascii">
          0.0000000000e+00 0.0000000000e+00 -9.2404066199e+03 
          0.0000000000e+00 0.0000000000e+00 -9.4686505429e+03 
          0.0000000000e+00 0.0000000000e+00 -9.2400467793e+03 
          0.0000000000e+00 0.0000000000e+00 -1.4919622876e+04 
          0.0000000000e+00 0.0000000000e+00 -1.4919395573e+04 
          0.0000000000e+00 0.0000000000e+00 -1.0095170209e+04 
          0.0000000000e+00 0.0000000000e+00 -1.0096530785e+04 
          0.0000000000e+00 0.0000000000e+00 -7.5535341817e+03 
          0.0000000000e+00 0.0000000000e+00 -7.5546674634e+03 
          0.0000000000e+00 0.0000000000e+00 -9.4682906942e+03 
          0.0000000000e+00 0.0000000000e+00 -9.2404066199e+03 
          0.0000000000e+00 0.0000000000e+00 -1.4919622876e+04 
          0.0000000000e+00 0.0000000000e+00 -1.0096530785e+04 
          0.0000000000e+00 0.0000000000e+00 -1.0096530785e+04 
          0.0000000000e+00 0.0000000000e+00 -7.5546674634e+03 
          0.0000000000e+00 0.0000000000e+00 -9.4682906942e+03 
          0.0000000000e+00 0.0000000000e+00 -9.2404066199e+03 
          0.0000000000e+00 0.0000000000e+00 -1.4919622876e+04 
          0.0000000000e+00 0.0000000000e+00 -1.0096530785e+04 
          0.0000000000e+00 0.0000000000e+00 -1.0096530785e+04 
          0.0000000000e+00 0.0000000000e+00 -7.5546674634e+03 
          0.0000000000e+00 0.0000000000e+00 -9.4682906942e+03 
          0.0000000000e+00 0.0000000000e+00 -1.0096530785e+04 
          0.0000000000e+00 0.0000000000e+00 -1.0096530785e+04 
          0.0000000000e+00 0.0000000000e+00 -5.0330844059e+03 
          0.0000000000e+00 0.0000000000e+00 -5.0330844059e+03 
          0.0000000000e+00 0.0000000000e+00 -4.5459530605e+03 
          0.0000000000e+00 0.0000000000e+00 -4.5459530605e+03 
          0.0000000000e+00 0.0000000000e+00 -3.7422003914e+03 
          0.0000000000e+00 0.0000000000e+00 -3.7422003914e+03 
          0.0000000000e+00 0.0000000000e+00 -5.0330844059e+03 
          0.0000000000e+00 0.0000000000e+00 -4.5459530605e+03 
          0.0000000000e+00 0.0000000000e+00 -3.7422003914e+03 
          0.0000000000e+00 0.0000000000e+00 -5.0330844059e+03 
          0.0000000000e+00 0.0000000000e+00 -4.5459530605e+03 
          0.0000000000e+00 0.0000000000e+00 -3.7422003914e+03 
          0.0000000000e+00 0.0000000000e+00 -3.0133850535e+03 
          0.0000000000e+00 0.0000000000e+00 -3.0133850535e+03 
          0.0000000000e+00 0.0000000000e+00 -2.7264034841e+03 
          0.0000000000e+00 0.0000000000e+00 -2.7264034841e+03 
          0.0000000000e+00 0.0000000000e+00 -3.7152209071e+03 
          0.0000000000e+00 0.0000000000e+00 -3.7152209071e+03 
          0.0000000000e+00 0.0000000000e+00 -3.0133850535e+03 
          0.0000000000e+00 0.0000000000e+00 -2.7264034841e+03 
          0.0000000000e+00 0.0000000000e+00 -3.7152209071e+03 
          0.0000000000e+00 0.0000000000e+00 -3.0133850535e+03 
          0.0000000000e+00 0.0000000000e+00 -2.7264034841e+03 
          0.0000000000e+00 0.0000000000e+00 -3.7152209071e+03 
          0.0000000000e+00 0.0000000000e+00 -1.7137090651e+03 
          0.0000000000e+00 0.0000000000e+00 -1.7137090651e+03 
          0.0000000000e+00 0.0000000000e+00 -2.1426620678e+03 
          0.0000000000e+00 0.0000000000e+00 -1.7582631915e+03 
          0.0000000000e+00 0.0000000000e+00 -1.7582631915e+03 
          0.0000000000e+00 0.0000000000e+00 -9.7743314866e+02 
          0.0000000000e+00 0.0000000000e+00 -1.3177916095e+03 
          0.0000000000e+00 0.0000000000e+00 -1.3177916095e+03 
          0.0000000000e+00 0.0000000000e+00 -3.5017909725e+03 
          0.0000000000e+00 0.0000000000e+00 -3.5017909725e+03 
          0.0000000000e+00 0.0000000000e+00 -1.7467446123e+03 
          0.0000000000e+00 0.0000000000e+00 -3.2082780935e+03 
          0.0000000000e+00 0.0000000000e+00 -3.2082780935e+03 
          0.0000000000e+00 0.0000000000e+00 -1.7582631915e+03 
          0.0000000000e+00 0.0000000000e+00 -1.7582631915e+03 
          0.0000000000e+00 0.0000000000e+00 -9.7743314866e+02 
          0.0000000000e+00 0.0000000000e+00 -3.3502382817e+03 
          0.0000000000e+00 0.0000000000e+00 -3.3502382817e+03 
          0.0000000000e+00 0.0000000000e+00 -1.7137090651e+03 
          0.0000000000e+00 0.0000000000e+00 -3.2082780935e+03 
          0.0000000000e+00 0.0000000000e+00 -2.1426620678e+03 
          0.0000000000e+00 0.0000000000e+00 -1.3177916095e+03 
          0.0000000000e+00 0.0000000000e+00 -3.5017909725e+03 
          0.0000000000e+00 0.0000000000e+00 -1.7582631915e+03 
          0.0000000000e+00 0.0000000000e+00 -9.7743314866e+02 
          0.0000000000e+00 0.0000000000e+00 -1.7467446123e+03 
          0.0000000000e+00 0.0000000000e+00 -1.7582631915e+03 
          0.0000000000e+00 0.0000000000e+00 -9.7743314866e+02 
          0.0000000000e+00 0.0000000000e+00 -3.3502382817e+03 
          0.0000000000e+00 0.0000000000e+00 -9.2986951139e+02 
          0.0000000000e+00 0.0000000000e+00 -1.1236523174e+03 
          0.0000000000e+00 0.0000000000e+00 -1.1236523174e+03 
          0.0000000000e+00 0.0000000000e+00 -1.7137090651e+03 
          0.0000000000e+00 0.0000000000e+00 -3.2082780935e+03 
          0.0000000000e+00 0.0000000000e+00 -2.1426620678e+03 
          0.0000000000e+00 0.0000000000e+00 -1.3177916095e+03 
          0.0000000000e+00 0.0000000000e+00 -3.5017909725e+03 
          0.0000000000e+00 0.0000000000e+00 -1.7582631915e+03 
          0.0000000000e+00 0.0000000000e+00 -9.7743314866e+02 
          0.0000000000e+00 0.0000000000e+00 -1.7467446123e+03 
          0.0000000000e+00 0.0000000000e+00 -1.7582631915e+03 
          0.0000000000e+00 0.0000000000e+00 -9.7743314866e+02 
          0.0000000000e+00 0.0000000000e+00 -3.3502382817e+03 
          0.0000000000e+00 0.0000000000e+00 -2.1426620678e+03 
          0.0000000000e+00 0.0000000000e+00 -9.7743314866e+02 
          0.0000000000e+00 0.0000000000e+00 -1.7467446123e+03 
          0.0000000000e+00 0.0000000000e+00 -9.7743314866e+02 
          0.0000000000e+00 0.0000000000e+00 -9.2986951139e+02 
          0.0000000000e+00 0.0000000000e+00 -1.1236523174e+03 
          0.0000000000e+00 0.0000000000e+00 -1.1236523174e+03 
          0.0000000000e+00 0.0000000000e+00 -1.4528328491e+03 
          0.0000000000e+00 0.0000000000e+00 -1.4528435304e+03 
          0.0000000000e+00 0.0000000000e+00 -1.0312617170e+03 
          0.0000000000e+00 0.0000000000e+00 -1.4528328491e+03 
          0.0000000000e+00 0.0000000000e+00 -1.4528435304e+03 
          0.0000000000e+00 0.0000000000e+00 -1.0312617170e+03 
          0.0000000000e+00 0.0000000000e+00 -1.4528435304e+03 
          0.0000000000e+00 0.0000000000e+00 -1.0312617170e+03 
          0.0000000000e+00 0.0000000000e+00 -1.4528435304e+03 
          0.0000000000e+00 0.0000000000e+00 -1.0312617170e+03 
          0.0000000000e+00 0.0000000000e+00 -1.4528328491e+03 
          0.0000000000e+00 0.0000000000e+00 -1.4528435304e+03 
          0.0000000000e+00 0.0000000000e+00 -1.0312617170e+03 
          0.0000000000e+00 0.0000000000e+00 -1.4528328491e+03 
          0.0000000000e+00 0.0000000000e+00 -1.4528435304e+03 
          0.0000000000e+00 0.0000000000e+00 -1.0312617170e+03 
          0.0000000000e+00 0.0000000000e+00 -1.4528435304e+03 
          0.0000000000e+00 0.0000000000e+00 -1.0312617170e+03 
          0.0000000000e+00 0.0000000000e+00 -1.4528435304e+03 
          0.0000000000e+00 0.0000000000e+00 -1.0312617170e+03 
          0.0000000000e+00 0.0000000000e+00 -1.4528328491e+03 
          0.0000000000e+00 0.0000000000e+00 -1.4528435304e+03 
          0.0000000000e+00 0.0000000000e+00 -1.0312617170e+03 
          0.0000000000e+00 0.0000000000e+00 -1.4528328491e+03 
          0.0000000000e+00 0.0000000000e+00 -1.4528435304e+03 
          0.0000000000e+00 0.0000000000e+00 -1.0312617170e+03 
          0.0000000000e+00 0.0000000000e+00 -1.4528435304e+03 
          0.0000000000e+00 0.0000000000e+00 -1.0312617170e+03 
          0.0000000000e+00 0.0000000000e+00 -1.4528435304e+03 
          0.0000000000e+00 0.0000000000e+00 -1.0312617170e+03 
          0.0000000000e+00 0.0000000000e+00 -9.3208489147e+02 
          0.0000000000e+00 0.0000000000e+00 -9.3208489147e+02 
          0.0000000000e+00 0.0000000000e+00 -2.5479664340e+02 
          0.0000000000e+00 0.0000000000e+00 -2.5479664340e+02 
          0.0000000000e+00 0.0000000000e+00 -2.5479664340e+02 
          0.0000000000e+00 0.0000000000e+00 -2.5479664340e+02 
          0.0000000000e+00 0.0000000000e+00 -1.2397803873e+03 
          0.0000000000e+00 0.0000000000e+00 -1.1198797705e+03 
          0.0000000000e+00 0.0000000000e+00 -1.0096233080e+03 
          0.0000000000e+00 0.0000000000e+00 -1.2397803873e+03 
          0.0000000000e+00 0.0000000000e+00 -1.1198797705e+03 
          0.0000000000e+00 0.0000000000e+00 -1.0096233080e+03 
          0.0000000000e+00 0.0000000000e+00 -1.2397803873e+03 
          0.0000000000e+00 0.0000000000e+00 -1.1198797705e+03 
          0.0000000000e+00 0.0000000000e+00 -1.0096233080e+03 
          0.0000000000e+00 0.0000000000e+00 -1.2397803873e+03 
          0.0000000000e+00 0.0000000000e+00 -1.1198797705e+03 
          0.0000000000e+00 0.0000000000e+00 -1.0096233080e+03 
          0.0000000000e+00 0.0000000000e+00 -9.1038704516e+02 
          0.0000000000e+00 0.0000000000e+00 -8.1936349248e+02 
          0.0000000000e+00 0.0000000000e+00 -7.4271498831e+02 
          0.0000000000e+00 0.0000000000e+00 -9.1038704516e+02 
          0.0000000000e+00 0.0000000000e+00 -8.1936349248e+02 
          0.0000000000e+00 0.0000000000e+00 -7.4271498831e+02 
          0.0000000000e+00 0.0000000000e+00 -9.1038704516e+02 
          0.0000000000e+00 0.0000000000e+00 -8.1936349248e+02 
          0.0000000000e+00 0.0000000000e+00 -7.4271498831e+02 
          0.0000000000e+00 0.0000000000e+00 -9.1038704516e+02 
          0.0000000000e+00 0.0000000000e+00 -8.1936349248e+02 
          0.0000000000e+00 0.0000000000e+00 -7.4271498831e+02 
        </DataArray>
      </PointData>
      <CellData>
        <DataArray type="Int64" Name="ElementTag" format="ascii">
          0
        </DataArray>
      </CellData>
    </Piece>
  </UnstructuredGrid>
</VTKFile>
